<?xml version="1.0" encoding="UTF-8" standalone="no"?>
<!DOCTYPE svg PUBLIC "-//W3C//DTD SVG 1.1//EN"
 "http://www.w3.org/Graphics/SVG/1.1/DTD/svg11.dtd">
<!-- Generated by graphviz version 2.28.0 (20121120.0402)
 -->
<!-- Title: LetterTileVisibilityControl Pages: 1 -->
<svg width="210pt" height="470pt"
 viewBox="0.00 0.00 210.00 470.00" xmlns="http://www.w3.org/2000/svg" xmlns:xlink="http://www.w3.org/1999/xlink">
<g id="graph1" class="graph" transform="scale(1 1) rotate(0) translate(4 466)">
<title>LetterTileVisibilityControl</title>
<!-- Node1 -->
<g id="node1" class="node"><title>Node1</title>
<polygon fill="#bfbfbf" stroke="black" points="38.2515,-1 38.2515,-61 163.749,-61 163.749,-1 38.2515,-1"/>
<text text-anchor="middle" x="101" y="-47" font-family="Helvetica,sans-Serif" font-size="10.00">LetterTileVisibilityControl</text>
<polyline fill="none" stroke="black" points="38.2515,-41 163.749,-41 "/>
<text text-anchor="start" x="46.2515" y="-27" font-family="Helvetica,sans-Serif" font-size="10.00">+ objects</text>
<polyline fill="none" stroke="black" points="38.2515,-21 163.749,-21 "/>
<text text-anchor="middle" x="101" y="-7" font-family="Helvetica,sans-Serif" font-size="10.00"> </text>
</g>
<!-- Node2 -->
<g id="node2" class="node"><title>Node2</title>
<a xlink:href="class_thinksquirrel_1_1_word_game_builder_1_1_w_g_b_base.html" target="_top" xlink:title="The base class for all Word Game Builder components. ">
<polygon fill="none" stroke="black" points="-0.0541992,-99 -0.0541992,-363 202.054,-363 202.054,-99 -0.0541992,-99"/>
<text text-anchor="middle" x="101" y="-349" font-family="Helvetica,sans-Serif" font-size="10.00">WGBBase</text>
<polyline fill="none" stroke="black" points="-0.0541992,-343 202.054,-343 "/>
<text text-anchor="start" x="7.9458" y="-329" font-family="Helvetica,sans-Serif" font-size="10.00">+ userData</text>
<polyline fill="none" stroke="black" points="-0.0541992,-323 202.054,-323 "/>
<text text-anchor="start" x="7.9458" y="-309" font-family="Helvetica,sans-Serif" font-size="10.00">+ GetComponentFromInterface&lt; T &gt;()</text>
<text text-anchor="start" x="7.9458" y="-297" font-family="Helvetica,sans-Serif" font-size="10.00">+ GetComponentInChildrenFrom</text>
<text text-anchor="start" x="7.9458" y="-285" font-family="Helvetica,sans-Serif" font-size="10.00">Interface&lt; T &gt;()</text>
<text text-anchor="start" x="7.9458" y="-273" font-family="Helvetica,sans-Serif" font-size="10.00">+ GetComponentsFromInterface&lt; T &gt;()</text>
<text text-anchor="start" x="7.9458" y="-261" font-family="Helvetica,sans-Serif" font-size="10.00">+ GetComponentsInChildrenFrom</text>
<text text-anchor="start" x="7.9458" y="-249" font-family="Helvetica,sans-Serif" font-size="10.00">Interface&lt; T &gt;()</text>
<text text-anchor="start" x="7.9458" y="-237" font-family="Helvetica,sans-Serif" font-size="10.00">+ FindObjectOfTypeFromInterface&lt; T &gt;()</text>
<text text-anchor="start" x="7.9458" y="-225" font-family="Helvetica,sans-Serif" font-size="10.00">+ FindObjectsOfTypeFromInterface&lt; T &gt;()</text>
<text text-anchor="start" x="7.9458" y="-213" font-family="Helvetica,sans-Serif" font-size="10.00">+ InstantiateFromInterface&lt; T &gt;()</text>
<text text-anchor="start" x="7.9458" y="-201" font-family="Helvetica,sans-Serif" font-size="10.00">+ InstantiateFromInterface&lt; T &gt;()</text>
<text text-anchor="start" x="7.9458" y="-189" font-family="Helvetica,sans-Serif" font-size="10.00">+ Log()</text>
<text text-anchor="start" x="7.9458" y="-177" font-family="Helvetica,sans-Serif" font-size="10.00">+ Log()</text>
<text text-anchor="start" x="7.9458" y="-165" font-family="Helvetica,sans-Serif" font-size="10.00">+ LogError()</text>
<text text-anchor="start" x="7.9458" y="-153" font-family="Helvetica,sans-Serif" font-size="10.00">+ LogError()</text>
<text text-anchor="start" x="7.9458" y="-141" font-family="Helvetica,sans-Serif" font-size="10.00">+ LogException()</text>
<text text-anchor="start" x="7.9458" y="-129" font-family="Helvetica,sans-Serif" font-size="10.00">+ LogException()</text>
<text text-anchor="start" x="7.9458" y="-117" font-family="Helvetica,sans-Serif" font-size="10.00">+ LogWarning()</text>
<text text-anchor="start" x="7.9458" y="-105" font-family="Helvetica,sans-Serif" font-size="10.00">+ LogWarning()</text>
</a>
</g>
<!-- Node2&#45;&gt;Node1 -->
<g id="edge2" class="edge"><title>Node2&#45;&gt;Node1</title>
<path fill="none" stroke="midnightblue" d="M101,-88.5279C101,-78.5166 101,-69.2202 101,-61.1765"/>
<polygon fill="none" stroke="midnightblue" points="97.5001,-88.7577 101,-98.7577 104.5,-88.7578 97.5001,-88.7577"/>
</g>
<!-- Node3 -->
<g id="node4" class="node"><title>Node3</title>
<polygon fill="none" stroke="#bfbfbf" points="57.978,-401 57.978,-461 144.022,-461 144.022,-401 57.978,-401"/>
<text text-anchor="middle" x="101" y="-447" font-family="Helvetica,sans-Serif" font-size="10.00">MonoBehaviour</text>
<polyline fill="none" stroke="#bfbfbf" points="57.978,-441 144.022,-441 "/>
<text text-anchor="middle" x="101" y="-427" font-family="Helvetica,sans-Serif" font-size="10.00"> </text>
<polyline fill="none" stroke="#bfbfbf" points="57.978,-421 144.022,-421 "/>
<text text-anchor="middle" x="101" y="-407" font-family="Helvetica,sans-Serif" font-size="10.00"> </text>
</g>
<!-- Node3&#45;&gt;Node2 -->
<g id="edge4" class="edge"><title>Node3&#45;&gt;Node2</title>
<path fill="none" stroke="midnightblue" d="M101,-390.646C101,-382.228 101,-372.893 101,-363.087"/>
<polygon fill="none" stroke="midnightblue" points="97.5001,-390.784 101,-400.784 104.5,-390.784 97.5001,-390.784"/>
</g>
</g>
</svg>
