<?xml version="1.0" encoding="UTF-8" standalone="no"?>
<!DOCTYPE svg PUBLIC "-//W3C//DTD SVG 1.1//EN"
 "http://www.w3.org/Graphics/SVG/1.1/DTD/svg11.dtd">
<!-- Generated by graphviz version 2.28.0 (20121120.0402)
 -->
<!-- Title: ExampleViewModel.GameContext Pages: 1 -->
<svg width="176pt" height="204pt"
 viewBox="0.00 0.00 176.00 204.00" xmlns="http://www.w3.org/2000/svg" xmlns:xlink="http://www.w3.org/1999/xlink">
<g id="graph1" class="graph" transform="scale(1 1) rotate(0) translate(4 200)">
<title>ExampleViewModel.GameContext</title>
<!-- Node1 -->
<g id="node1" class="node"><title>Node1</title>
<polygon fill="#bfbfbf" stroke="black" points="-0.0571289,-1 -0.0571289,-97 168.057,-97 168.057,-1 -0.0571289,-1"/>
<text text-anchor="middle" x="84" y="-83" font-family="Helvetica,sans-Serif" font-size="10.00">ExampleViewModel.GameContext</text>
<polyline fill="none" stroke="black" points="-0.0571289,-77 168.057,-77 "/>
<text text-anchor="start" x="7.94287" y="-63" font-family="Helvetica,sans-Serif" font-size="10.00">+ isInitialized</text>
<text text-anchor="start" x="7.94287" y="-51" font-family="Helvetica,sans-Serif" font-size="10.00">+ tilePoolExists</text>
<text text-anchor="start" x="7.94287" y="-39" font-family="Helvetica,sans-Serif" font-size="10.00">+ tilesRemaining</text>
<polyline fill="none" stroke="black" points="-0.0571289,-33 168.057,-33 "/>
<text text-anchor="start" x="7.94287" y="-19" font-family="Helvetica,sans-Serif" font-size="10.00">+ ResetTiles()</text>
<text text-anchor="start" x="7.94287" y="-7" font-family="Helvetica,sans-Serif" font-size="10.00">+ SelectWildcardLetter()</text>
</g>
<!-- Node2 -->
<g id="node2" class="node"><title>Node2</title>
<a xlink:href="class_thinksquirrel_1_1_word_game_builder_example_1_1_example_view_model_1_1_ui_context.html" target="_top" xlink:title="Represents a base class for all user interface contexts. ">
<polygon fill="none" stroke="black" points="54.0469,-135 54.0469,-195 113.953,-195 113.953,-135 54.0469,-135"/>
<text text-anchor="middle" x="84" y="-181" font-family="Helvetica,sans-Serif" font-size="10.00">UiContext</text>
<polyline fill="none" stroke="black" points="54.0469,-175 113.953,-175 "/>
<text text-anchor="middle" x="84" y="-161" font-family="Helvetica,sans-Serif" font-size="10.00"> </text>
<polyline fill="none" stroke="black" points="54.0469,-155 113.953,-155 "/>
<text text-anchor="middle" x="84" y="-141" font-family="Helvetica,sans-Serif" font-size="10.00"> </text>
</a>
</g>
<!-- Node2&#45;&gt;Node1 -->
<g id="edge2" class="edge"><title>Node2&#45;&gt;Node1</title>
<path fill="none" stroke="midnightblue" d="M84,-124.836C84,-115.928 84,-106.372 84,-97.1692"/>
<polygon fill="none" stroke="midnightblue" points="80.5001,-124.938 84,-134.938 87.5001,-124.938 80.5001,-124.938"/>
</g>
</g>
</svg>
