<?xml version="1.0" encoding="UTF-8" standalone="no"?>
<!DOCTYPE svg PUBLIC "-//W3C//DTD SVG 1.1//EN"
 "http://www.w3.org/Graphics/SVG/1.1/DTD/svg11.dtd">
<!-- Generated by graphviz version 2.28.0 (20121120.0402)
 -->
<!-- Title: ExampleGameLogic Pages: 1 -->
<svg width="210pt" height="506pt"
 viewBox="0.00 0.00 210.00 506.00" xmlns="http://www.w3.org/2000/svg" xmlns:xlink="http://www.w3.org/1999/xlink">
<g id="graph1" class="graph" transform="scale(1 1) rotate(0) translate(4 502)">
<title>ExampleGameLogic</title>
<!-- Node1 -->
<g id="node1" class="node"><title>Node1</title>
<polygon fill="#bfbfbf" stroke="black" points="37.4727,-1 37.4727,-97 164.527,-97 164.527,-1 37.4727,-1"/>
<text text-anchor="middle" x="101" y="-83" font-family="Helvetica,sans-Serif" font-size="10.00">ExampleGameLogic</text>
<polyline fill="none" stroke="black" points="37.4727,-77 164.527,-77 "/>
<text text-anchor="middle" x="101" y="-63" font-family="Helvetica,sans-Serif" font-size="10.00"> </text>
<polyline fill="none" stroke="black" points="37.4727,-57 164.527,-57 "/>
<text text-anchor="start" x="45.4727" y="-43" font-family="Helvetica,sans-Serif" font-size="10.00">+ OnAgentFindWords()</text>
<text text-anchor="start" x="45.4727" y="-31" font-family="Helvetica,sans-Serif" font-size="10.00">+ OnPlayerWordResult()</text>
<text text-anchor="start" x="45.4727" y="-19" font-family="Helvetica,sans-Serif" font-size="10.00">+ OnTileDistribution()</text>
<text text-anchor="start" x="45.4727" y="-7" font-family="Helvetica,sans-Serif" font-size="10.00">+ OnWildcardTileSelect()</text>
</g>
<!-- Node2 -->
<g id="node2" class="node"><title>Node2</title>
<a xlink:href="class_thinksquirrel_1_1_word_game_builder_1_1_w_g_b_base.html" target="_top" xlink:title="The base class for all Word Game Builder components. ">
<polygon fill="none" stroke="black" points="-0.0541992,-135 -0.0541992,-399 202.054,-399 202.054,-135 -0.0541992,-135"/>
<text text-anchor="middle" x="101" y="-385" font-family="Helvetica,sans-Serif" font-size="10.00">WGBBase</text>
<polyline fill="none" stroke="black" points="-0.0541992,-379 202.054,-379 "/>
<text text-anchor="start" x="7.9458" y="-365" font-family="Helvetica,sans-Serif" font-size="10.00">+ userData</text>
<polyline fill="none" stroke="black" points="-0.0541992,-359 202.054,-359 "/>
<text text-anchor="start" x="7.9458" y="-345" font-family="Helvetica,sans-Serif" font-size="10.00">+ GetComponentFromInterface&lt; T &gt;()</text>
<text text-anchor="start" x="7.9458" y="-333" font-family="Helvetica,sans-Serif" font-size="10.00">+ GetComponentInChildrenFrom</text>
<text text-anchor="start" x="7.9458" y="-321" font-family="Helvetica,sans-Serif" font-size="10.00">Interface&lt; T &gt;()</text>
<text text-anchor="start" x="7.9458" y="-309" font-family="Helvetica,sans-Serif" font-size="10.00">+ GetComponentsFromInterface&lt; T &gt;()</text>
<text text-anchor="start" x="7.9458" y="-297" font-family="Helvetica,sans-Serif" font-size="10.00">+ GetComponentsInChildrenFrom</text>
<text text-anchor="start" x="7.9458" y="-285" font-family="Helvetica,sans-Serif" font-size="10.00">Interface&lt; T &gt;()</text>
<text text-anchor="start" x="7.9458" y="-273" font-family="Helvetica,sans-Serif" font-size="10.00">+ FindObjectOfTypeFromInterface&lt; T &gt;()</text>
<text text-anchor="start" x="7.9458" y="-261" font-family="Helvetica,sans-Serif" font-size="10.00">+ FindObjectsOfTypeFromInterface&lt; T &gt;()</text>
<text text-anchor="start" x="7.9458" y="-249" font-family="Helvetica,sans-Serif" font-size="10.00">+ InstantiateFromInterface&lt; T &gt;()</text>
<text text-anchor="start" x="7.9458" y="-237" font-family="Helvetica,sans-Serif" font-size="10.00">+ InstantiateFromInterface&lt; T &gt;()</text>
<text text-anchor="start" x="7.9458" y="-225" font-family="Helvetica,sans-Serif" font-size="10.00">+ Log()</text>
<text text-anchor="start" x="7.9458" y="-213" font-family="Helvetica,sans-Serif" font-size="10.00">+ Log()</text>
<text text-anchor="start" x="7.9458" y="-201" font-family="Helvetica,sans-Serif" font-size="10.00">+ LogError()</text>
<text text-anchor="start" x="7.9458" y="-189" font-family="Helvetica,sans-Serif" font-size="10.00">+ LogError()</text>
<text text-anchor="start" x="7.9458" y="-177" font-family="Helvetica,sans-Serif" font-size="10.00">+ LogException()</text>
<text text-anchor="start" x="7.9458" y="-165" font-family="Helvetica,sans-Serif" font-size="10.00">+ LogException()</text>
<text text-anchor="start" x="7.9458" y="-153" font-family="Helvetica,sans-Serif" font-size="10.00">+ LogWarning()</text>
<text text-anchor="start" x="7.9458" y="-141" font-family="Helvetica,sans-Serif" font-size="10.00">+ LogWarning()</text>
</a>
</g>
<!-- Node2&#45;&gt;Node1 -->
<g id="edge2" class="edge"><title>Node2&#45;&gt;Node1</title>
<path fill="none" stroke="midnightblue" d="M101,-124.612C101,-115.007 101,-105.793 101,-97.3166"/>
<polygon fill="none" stroke="midnightblue" points="97.5001,-124.749 101,-134.749 104.5,-124.749 97.5001,-124.749"/>
</g>
<!-- Node3 -->
<g id="node4" class="node"><title>Node3</title>
<polygon fill="none" stroke="#bfbfbf" points="57.978,-437 57.978,-497 144.022,-497 144.022,-437 57.978,-437"/>
<text text-anchor="middle" x="101" y="-483" font-family="Helvetica,sans-Serif" font-size="10.00">MonoBehaviour</text>
<polyline fill="none" stroke="#bfbfbf" points="57.978,-477 144.022,-477 "/>
<text text-anchor="middle" x="101" y="-463" font-family="Helvetica,sans-Serif" font-size="10.00"> </text>
<polyline fill="none" stroke="#bfbfbf" points="57.978,-457 144.022,-457 "/>
<text text-anchor="middle" x="101" y="-443" font-family="Helvetica,sans-Serif" font-size="10.00"> </text>
</g>
<!-- Node3&#45;&gt;Node2 -->
<g id="edge4" class="edge"><title>Node3&#45;&gt;Node2</title>
<path fill="none" stroke="midnightblue" d="M101,-426.646C101,-418.228 101,-408.893 101,-399.087"/>
<polygon fill="none" stroke="midnightblue" points="97.5001,-426.784 101,-436.784 104.5,-426.784 97.5001,-426.784"/>
</g>
</g>
</svg>
