<?xml version="1.0" encoding="UTF-8" standalone="no"?>
<!DOCTYPE svg PUBLIC "-//W3C//DTD SVG 1.1//EN"
 "http://www.w3.org/Graphics/SVG/1.1/DTD/svg11.dtd">
<!-- Generated by graphviz version 2.28.0 (20121120.0402)
 -->
<!-- Title: WGBBase Pages: 1 -->
<svg width="2360pt" height="758pt"
 viewBox="0.00 0.00 2360.00 758.00" xmlns="http://www.w3.org/2000/svg" xmlns:xlink="http://www.w3.org/1999/xlink">
<g id="graph1" class="graph" transform="scale(1 1) rotate(0) translate(4 754)">
<title>WGBBase</title>
<!-- Node1 -->
<g id="node1" class="node"><title>Node1</title>
<polygon fill="#bfbfbf" stroke="black" points="1146.95,-387 1146.95,-651 1349.05,-651 1349.05,-387 1146.95,-387"/>
<text text-anchor="middle" x="1248" y="-637" font-family="Helvetica,sans-Serif" font-size="10.00">WGBBase</text>
<polyline fill="none" stroke="black" points="1146.95,-631 1349.05,-631 "/>
<text text-anchor="start" x="1154.95" y="-617" font-family="Helvetica,sans-Serif" font-size="10.00">+ userData</text>
<polyline fill="none" stroke="black" points="1146.95,-611 1349.05,-611 "/>
<text text-anchor="start" x="1154.95" y="-597" font-family="Helvetica,sans-Serif" font-size="10.00">+ GetComponentFromInterface&lt; T &gt;()</text>
<text text-anchor="start" x="1154.95" y="-585" font-family="Helvetica,sans-Serif" font-size="10.00">+ GetComponentInChildrenFrom</text>
<text text-anchor="start" x="1154.95" y="-573" font-family="Helvetica,sans-Serif" font-size="10.00">Interface&lt; T &gt;()</text>
<text text-anchor="start" x="1154.95" y="-561" font-family="Helvetica,sans-Serif" font-size="10.00">+ GetComponentsFromInterface&lt; T &gt;()</text>
<text text-anchor="start" x="1154.95" y="-549" font-family="Helvetica,sans-Serif" font-size="10.00">+ GetComponentsInChildrenFrom</text>
<text text-anchor="start" x="1154.95" y="-537" font-family="Helvetica,sans-Serif" font-size="10.00">Interface&lt; T &gt;()</text>
<text text-anchor="start" x="1154.95" y="-525" font-family="Helvetica,sans-Serif" font-size="10.00">+ FindObjectOfTypeFromInterface&lt; T &gt;()</text>
<text text-anchor="start" x="1154.95" y="-513" font-family="Helvetica,sans-Serif" font-size="10.00">+ FindObjectsOfTypeFromInterface&lt; T &gt;()</text>
<text text-anchor="start" x="1154.95" y="-501" font-family="Helvetica,sans-Serif" font-size="10.00">+ InstantiateFromInterface&lt; T &gt;()</text>
<text text-anchor="start" x="1154.95" y="-489" font-family="Helvetica,sans-Serif" font-size="10.00">+ InstantiateFromInterface&lt; T &gt;()</text>
<text text-anchor="start" x="1154.95" y="-477" font-family="Helvetica,sans-Serif" font-size="10.00">+ Log()</text>
<text text-anchor="start" x="1154.95" y="-465" font-family="Helvetica,sans-Serif" font-size="10.00">+ Log()</text>
<text text-anchor="start" x="1154.95" y="-453" font-family="Helvetica,sans-Serif" font-size="10.00">+ LogError()</text>
<text text-anchor="start" x="1154.95" y="-441" font-family="Helvetica,sans-Serif" font-size="10.00">+ LogError()</text>
<text text-anchor="start" x="1154.95" y="-429" font-family="Helvetica,sans-Serif" font-size="10.00">+ LogException()</text>
<text text-anchor="start" x="1154.95" y="-417" font-family="Helvetica,sans-Serif" font-size="10.00">+ LogException()</text>
<text text-anchor="start" x="1154.95" y="-405" font-family="Helvetica,sans-Serif" font-size="10.00">+ LogWarning()</text>
<text text-anchor="start" x="1154.95" y="-393" font-family="Helvetica,sans-Serif" font-size="10.00">+ LogWarning()</text>
</g>
<!-- Node3 -->
<g id="node5" class="node"><title>Node3</title>
<a xlink:href="class_thinksquirrel_1_1_word_game_builder_1_1_gameplay_1_1_tile_pool.html" target="_top" xlink:title="A class that manages an instance pool of letter tiles. ">
<polygon fill="none" stroke="black" points="-0.918945,-1 -0.918945,-349 118.919,-349 118.919,-1 -0.918945,-1"/>
<text text-anchor="middle" x="59" y="-335" font-family="Helvetica,sans-Serif" font-size="10.00">TilePool</text>
<polyline fill="none" stroke="black" points="-0.918945,-329 118.919,-329 "/>
<text text-anchor="start" x="7.08105" y="-315" font-family="Helvetica,sans-Serif" font-size="10.00">+ blankLetterCount</text>
<text text-anchor="start" x="7.08105" y="-303" font-family="Helvetica,sans-Serif" font-size="10.00">+ language</text>
<text text-anchor="start" x="7.08105" y="-291" font-family="Helvetica,sans-Serif" font-size="10.00">+ languageIdentifier</text>
<text text-anchor="start" x="7.08105" y="-279" font-family="Helvetica,sans-Serif" font-size="10.00">+ lastDistributionCount</text>
<text text-anchor="start" x="7.08105" y="-267" font-family="Helvetica,sans-Serif" font-size="10.00">+ onTileDistribution</text>
<text text-anchor="start" x="7.08105" y="-255" font-family="Helvetica,sans-Serif" font-size="10.00">+ poolMultiplier</text>
<text text-anchor="start" x="7.08105" y="-243" font-family="Helvetica,sans-Serif" font-size="10.00">+ tileDistribution</text>
<text text-anchor="start" x="7.08105" y="-231" font-family="Helvetica,sans-Serif" font-size="10.00">+ tileDistributionCount</text>
<text text-anchor="start" x="7.08105" y="-219" font-family="Helvetica,sans-Serif" font-size="10.00">+ tilePool</text>
<text text-anchor="start" x="7.08105" y="-207" font-family="Helvetica,sans-Serif" font-size="10.00">+ tilePoolCount</text>
<text text-anchor="start" x="7.08105" y="-195" font-family="Helvetica,sans-Serif" font-size="10.00">+ tilePrefab</text>
<polyline fill="none" stroke="black" points="-0.918945,-189 118.919,-189 "/>
<text text-anchor="start" x="7.08105" y="-175" font-family="Helvetica,sans-Serif" font-size="10.00">+ AddLetter()</text>
<text text-anchor="start" x="7.08105" y="-163" font-family="Helvetica,sans-Serif" font-size="10.00">+ CreateTilePool()</text>
<text text-anchor="start" x="7.08105" y="-151" font-family="Helvetica,sans-Serif" font-size="10.00">+ CreateTilePool()</text>
<text text-anchor="start" x="7.08105" y="-139" font-family="Helvetica,sans-Serif" font-size="10.00">+ DestroyAllTiles()</text>
<text text-anchor="start" x="7.08105" y="-127" font-family="Helvetica,sans-Serif" font-size="10.00">+ DestroyTile()</text>
<text text-anchor="start" x="7.08105" y="-115" font-family="Helvetica,sans-Serif" font-size="10.00">+ DestroyTiles()</text>
<text text-anchor="start" x="7.08105" y="-103" font-family="Helvetica,sans-Serif" font-size="10.00">+ DistributeTiles()</text>
<text text-anchor="start" x="7.08105" y="-91" font-family="Helvetica,sans-Serif" font-size="10.00">+ DistributeTiles()</text>
<text text-anchor="start" x="7.08105" y="-79" font-family="Helvetica,sans-Serif" font-size="10.00">+ InsertTile()</text>
<text text-anchor="start" x="7.08105" y="-67" font-family="Helvetica,sans-Serif" font-size="10.00">+ RemoveLetter()</text>
<text text-anchor="start" x="7.08105" y="-55" font-family="Helvetica,sans-Serif" font-size="10.00">+ RemoveTile()</text>
<text text-anchor="start" x="7.08105" y="-43" font-family="Helvetica,sans-Serif" font-size="10.00">+ RemoveTiles()</text>
<text text-anchor="start" x="7.08105" y="-31" font-family="Helvetica,sans-Serif" font-size="10.00">+ ResetTilePool()</text>
<text text-anchor="start" x="7.08105" y="-19" font-family="Helvetica,sans-Serif" font-size="10.00">+ SaveTileDistribution()</text>
<text text-anchor="start" x="7.08105" y="-7" font-family="Helvetica,sans-Serif" font-size="10.00">+ SetTiles()</text>
</a>
</g>
<!-- Node1&#45;&gt;Node3 -->
<g id="edge4" class="edge"><title>Node1&#45;&gt;Node3</title>
<path fill="none" stroke="midnightblue" d="M1136.42,-515.079C884.729,-506.353 282.726,-472.854 128,-350 124.946,-347.575 122.027,-344.995 119.236,-342.28"/>
<polygon fill="none" stroke="midnightblue" points="1136.57,-518.586 1146.68,-515.428 1136.81,-511.59 1136.57,-518.586"/>
</g>
<!-- Node4 -->
<g id="node7" class="node"><title>Node4</title>
<a xlink:href="class_thinksquirrel_1_1_word_game_builder_1_1_gameplay_1_1_wildcard_tile_manager.html" target="_top" xlink:title="A manager class for selecting wildcard tiles. ">
<polygon fill="none" stroke="black" points="136.911,-145 136.911,-205 255.089,-205 255.089,-145 136.911,-145"/>
<text text-anchor="middle" x="196" y="-191" font-family="Helvetica,sans-Serif" font-size="10.00">WildcardTileManager</text>
<polyline fill="none" stroke="black" points="136.911,-185 255.089,-185 "/>
<text text-anchor="start" x="144.911" y="-171" font-family="Helvetica,sans-Serif" font-size="10.00">+ onWildcardTileSelect</text>
<polyline fill="none" stroke="black" points="136.911,-165 255.089,-165 "/>
<text text-anchor="start" x="144.911" y="-151" font-family="Helvetica,sans-Serif" font-size="10.00">+ SelectWildcardTile()</text>
</a>
</g>
<!-- Node1&#45;&gt;Node4 -->
<g id="edge6" class="edge"><title>Node1&#45;&gt;Node4</title>
<path fill="none" stroke="midnightblue" d="M1136.63,-512.539C908.07,-499.216 396.388,-457.864 264,-350 219.495,-313.739 204.025,-244.441 198.716,-205.124"/>
<polygon fill="none" stroke="midnightblue" points="1136.45,-516.034 1146.63,-513.114 1136.85,-509.046 1136.45,-516.034"/>
</g>
<!-- Node5 -->
<g id="node9" class="node"><title>Node5</title>
<a xlink:href="class_thinksquirrel_1_1_word_game_builder_1_1_gameplay_1_1_word_game_agent.html" target="_top" xlink:title="Represents a word game AI agent. The agent is multithreaded and supports automatic selection/submissi...">
<polygon fill="none" stroke="black" points="273.174,-67 273.174,-283 402.826,-283 402.826,-67 273.174,-67"/>
<text text-anchor="middle" x="338" y="-269" font-family="Helvetica,sans-Serif" font-size="10.00">WordGameAgent</text>
<polyline fill="none" stroke="black" points="273.174,-263 402.826,-263 "/>
<text text-anchor="start" x="281.174" y="-249" font-family="Helvetica,sans-Serif" font-size="10.00">+ autoSelectTime</text>
<text text-anchor="start" x="281.174" y="-237" font-family="Helvetica,sans-Serif" font-size="10.00">+ autoSelectWord</text>
<text text-anchor="start" x="281.174" y="-225" font-family="Helvetica,sans-Serif" font-size="10.00">+ autoSubmitTime</text>
<text text-anchor="start" x="281.174" y="-213" font-family="Helvetica,sans-Serif" font-size="10.00">+ autoSubmitWord</text>
<text text-anchor="start" x="281.174" y="-201" font-family="Helvetica,sans-Serif" font-size="10.00">+ bias</text>
<text text-anchor="start" x="281.174" y="-189" font-family="Helvetica,sans-Serif" font-size="10.00">+ customWildcardScore</text>
<text text-anchor="start" x="281.174" y="-177" font-family="Helvetica,sans-Serif" font-size="10.00">+ customWildcardScores</text>
<text text-anchor="start" x="281.174" y="-165" font-family="Helvetica,sans-Serif" font-size="10.00">+ customWildcardScoring</text>
<text text-anchor="start" x="281.174" y="-153" font-family="Helvetica,sans-Serif" font-size="10.00">+ ignorePlayerInputState</text>
<text text-anchor="start" x="281.174" y="-141" font-family="Helvetica,sans-Serif" font-size="10.00">+ lastSearchInfo</text>
<text text-anchor="start" x="281.174" y="-129" font-family="Helvetica,sans-Serif" font-size="10.00">and 9 more...</text>
<polyline fill="none" stroke="black" points="273.174,-123 402.826,-123 "/>
<text text-anchor="start" x="281.174" y="-109" font-family="Helvetica,sans-Serif" font-size="10.00">+ FindWords()</text>
<text text-anchor="start" x="281.174" y="-97" font-family="Helvetica,sans-Serif" font-size="10.00">+ FindWords()</text>
<text text-anchor="start" x="281.174" y="-85" font-family="Helvetica,sans-Serif" font-size="10.00">+ FindWords()</text>
<text text-anchor="start" x="281.174" y="-73" font-family="Helvetica,sans-Serif" font-size="10.00">+ Stop()</text>
</a>
</g>
<!-- Node1&#45;&gt;Node5 -->
<g id="edge8" class="edge"><title>Node1&#45;&gt;Node5</title>
<path fill="none" stroke="midnightblue" d="M1136.73,-508.538C935.31,-489.369 520.905,-439.94 411,-350 389.958,-332.78 374.886,-308.436 364.126,-283.397"/>
<polygon fill="none" stroke="midnightblue" points="1136.46,-512.028 1146.75,-509.483 1137.12,-505.059 1136.46,-512.028"/>
</g>
<!-- Node6 -->
<g id="node11" class="node"><title>Node6</title>
<a xlink:href="class_thinksquirrel_1_1_word_game_builder_1_1_gameplay_1_1_word_game_player.html" target="_top" xlink:title="Represents a word game player. It tracks scores, holds tiles, and can be controlled by an AI agent...">
<polygon fill="none" stroke="black" points="420.488,-13 420.488,-337 545.512,-337 545.512,-13 420.488,-13"/>
<text text-anchor="middle" x="483" y="-323" font-family="Helvetica,sans-Serif" font-size="10.00">WordGamePlayer</text>
<polyline fill="none" stroke="black" points="420.488,-317 545.512,-317 "/>
<text text-anchor="start" x="428.488" y="-303" font-family="Helvetica,sans-Serif" font-size="10.00">+ bestWord</text>
<text text-anchor="start" x="428.488" y="-291" font-family="Helvetica,sans-Serif" font-size="10.00">+ bestWordScore</text>
<text text-anchor="start" x="428.488" y="-279" font-family="Helvetica,sans-Serif" font-size="10.00">+ heldTiles</text>
<text text-anchor="start" x="428.488" y="-267" font-family="Helvetica,sans-Serif" font-size="10.00">+ highScore</text>
<text text-anchor="start" x="428.488" y="-255" font-family="Helvetica,sans-Serif" font-size="10.00">+ inputEnabled</text>
<text text-anchor="start" x="428.488" y="-243" font-family="Helvetica,sans-Serif" font-size="10.00">+ lastPenalty</text>
<text text-anchor="start" x="428.488" y="-231" font-family="Helvetica,sans-Serif" font-size="10.00">+ lastResult</text>
<text text-anchor="start" x="428.488" y="-219" font-family="Helvetica,sans-Serif" font-size="10.00">+ lastWord</text>
<text text-anchor="start" x="428.488" y="-207" font-family="Helvetica,sans-Serif" font-size="10.00">+ lastWordScore</text>
<text text-anchor="start" x="428.488" y="-195" font-family="Helvetica,sans-Serif" font-size="10.00">+ maxTiles</text>
<text text-anchor="start" x="428.488" y="-183" font-family="Helvetica,sans-Serif" font-size="10.00">and 11 more...</text>
<polyline fill="none" stroke="black" points="420.488,-177 545.512,-177 "/>
<text text-anchor="start" x="428.488" y="-163" font-family="Helvetica,sans-Serif" font-size="10.00">+ ClearSelection()</text>
<text text-anchor="start" x="428.488" y="-151" font-family="Helvetica,sans-Serif" font-size="10.00">+ DeselectTile()</text>
<text text-anchor="start" x="428.488" y="-139" font-family="Helvetica,sans-Serif" font-size="10.00">+ Initialize()</text>
<text text-anchor="start" x="428.488" y="-127" font-family="Helvetica,sans-Serif" font-size="10.00">+ ResetAllData()</text>
<text text-anchor="start" x="428.488" y="-115" font-family="Helvetica,sans-Serif" font-size="10.00">+ ResetAllScores()</text>
<text text-anchor="start" x="428.488" y="-103" font-family="Helvetica,sans-Serif" font-size="10.00">+ ResetBestWord()</text>
<text text-anchor="start" x="428.488" y="-91" font-family="Helvetica,sans-Serif" font-size="10.00">+ ResetHighScore()</text>
<text text-anchor="start" x="428.488" y="-79" font-family="Helvetica,sans-Serif" font-size="10.00">+ ResetLastPenalty()</text>
<text text-anchor="start" x="428.488" y="-67" font-family="Helvetica,sans-Serif" font-size="10.00">+ ResetLastWord()</text>
<text text-anchor="start" x="428.488" y="-55" font-family="Helvetica,sans-Serif" font-size="10.00">+ ResetPreviousWords()</text>
<text text-anchor="start" x="428.488" y="-43" font-family="Helvetica,sans-Serif" font-size="10.00">and 6 more...</text>
<text text-anchor="start" x="428.488" y="-31" font-family="Helvetica,sans-Serif" font-size="10.00">+ FindPlayer()</text>
<text text-anchor="start" x="428.488" y="-19" font-family="Helvetica,sans-Serif" font-size="10.00">+ GetAllPlayers()</text>
</a>
</g>
<!-- Node1&#45;&gt;Node6 -->
<g id="edge10" class="edge"><title>Node1&#45;&gt;Node6</title>
<path fill="none" stroke="midnightblue" d="M1136.53,-503.418C963.664,-478.797 641.78,-424.31 555,-350 550.406,-346.066 546.1,-341.792 542.064,-337.248"/>
<polygon fill="none" stroke="midnightblue" points="1136.29,-506.918 1146.68,-504.853 1137.27,-499.987 1136.29,-506.918"/>
</g>
<!-- Node7 -->
<g id="node13" class="node"><title>Node7</title>
<a xlink:href="class_thinksquirrel_1_1_word_game_builder_1_1_tiles_1_1_daikon_forge_1_1_letter_tile_daikon_forge_control.html" target="_top" xlink:title="Adds Daikon Forge GUI display to a letter tile. ">
<polygon fill="none" stroke="black" points="563.597,-133 563.597,-217 710.403,-217 710.403,-133 563.597,-133"/>
<text text-anchor="middle" x="637" y="-203" font-family="Helvetica,sans-Serif" font-size="10.00">LetterTileDaikonForgeControl</text>
<polyline fill="none" stroke="black" points="563.597,-197 710.403,-197 "/>
<text text-anchor="start" x="571.597" y="-183" font-family="Helvetica,sans-Serif" font-size="10.00">+ controls</text>
<text text-anchor="start" x="571.597" y="-171" font-family="Helvetica,sans-Serif" font-size="10.00">+ letterLabel</text>
<text text-anchor="start" x="571.597" y="-159" font-family="Helvetica,sans-Serif" font-size="10.00">+ scoreLabel</text>
<polyline fill="none" stroke="black" points="563.597,-153 710.403,-153 "/>
<text text-anchor="middle" x="637" y="-139" font-family="Helvetica,sans-Serif" font-size="10.00"> </text>
</a>
</g>
<!-- Node1&#45;&gt;Node7 -->
<g id="edge12" class="edge"><title>Node1&#45;&gt;Node7</title>
<path fill="none" stroke="midnightblue" d="M1136.9,-508.451C1020.48,-493.079 838.379,-453.175 720,-350 680.009,-315.145 657.721,-256.75 646.545,-217.325"/>
<polygon fill="none" stroke="midnightblue" points="1136.55,-511.934 1146.91,-509.734 1137.44,-504.991 1136.55,-511.934"/>
</g>
<!-- Node8 -->
<g id="node15" class="node"><title>Node8</title>
<a xlink:href="class_thinksquirrel_1_1_word_game_builder_1_1_tiles_1_1_daikon_forge_1_1_letter_tile_daikon_forge_input.html" target="_top" xlink:title="Adds input control to a letter tile, using DF&#45;GUI&#39;s events. ">
<polygon fill="none" stroke="black" points="728.595,-145 728.595,-205 865.405,-205 865.405,-145 728.595,-145"/>
<text text-anchor="middle" x="797" y="-191" font-family="Helvetica,sans-Serif" font-size="10.00">LetterTileDaikonForgeInput</text>
<polyline fill="none" stroke="black" points="728.595,-185 865.405,-185 "/>
<text text-anchor="middle" x="797" y="-171" font-family="Helvetica,sans-Serif" font-size="10.00"> </text>
<polyline fill="none" stroke="black" points="728.595,-165 865.405,-165 "/>
<text text-anchor="middle" x="797" y="-151" font-family="Helvetica,sans-Serif" font-size="10.00"> </text>
</a>
</g>
<!-- Node1&#45;&gt;Node8 -->
<g id="edge14" class="edge"><title>Node1&#45;&gt;Node8</title>
<path fill="none" stroke="midnightblue" d="M1136.8,-491.227C1055.06,-466.543 946.106,-422.508 874,-350 833.353,-309.126 812.342,-243.128 803.084,-205.249"/>
<polygon fill="none" stroke="midnightblue" points="1136.05,-494.654 1146.63,-494.142 1138.04,-487.943 1136.05,-494.654"/>
</g>
<!-- Node9 -->
<g id="node17" class="node"><title>Node9</title>
<a xlink:href="class_thinksquirrel_1_1_word_game_builder_1_1_tiles_1_1_letter_tile.html" target="_top" xlink:title="A standard letter tile. Includes support for selection, wildcard tiles, multiple colors, input, and state querying. ">
<polygon fill="none" stroke="black" points="883.494,-25 883.494,-325 1036.51,-325 1036.51,-25 883.494,-25"/>
<text text-anchor="middle" x="960" y="-311" font-family="Helvetica,sans-Serif" font-size="10.00">LetterTile</text>
<polyline fill="none" stroke="black" points="883.494,-305 1036.51,-305 "/>
<text text-anchor="start" x="891.494" y="-291" font-family="Helvetica,sans-Serif" font-size="10.00">+ colorInfo</text>
<text text-anchor="start" x="891.494" y="-279" font-family="Helvetica,sans-Serif" font-size="10.00">+ currentBackgroundColor</text>
<text text-anchor="start" x="891.494" y="-267" font-family="Helvetica,sans-Serif" font-size="10.00">+ currentBackgroundColorRaw</text>
<text text-anchor="start" x="891.494" y="-255" font-family="Helvetica,sans-Serif" font-size="10.00">+ currentLetter</text>
<text text-anchor="start" x="891.494" y="-243" font-family="Helvetica,sans-Serif" font-size="10.00">+ currentLetterLabel</text>
<text text-anchor="start" x="891.494" y="-231" font-family="Helvetica,sans-Serif" font-size="10.00">+ currentPointValue</text>
<text text-anchor="start" x="891.494" y="-219" font-family="Helvetica,sans-Serif" font-size="10.00">+ currentScoreLabel</text>
<text text-anchor="start" x="891.494" y="-207" font-family="Helvetica,sans-Serif" font-size="10.00">+ currentTextColor</text>
<text text-anchor="start" x="891.494" y="-195" font-family="Helvetica,sans-Serif" font-size="10.00">+ currentTextColorRaw</text>
<text text-anchor="start" x="891.494" y="-183" font-family="Helvetica,sans-Serif" font-size="10.00">+ defaultPointValue</text>
<text text-anchor="start" x="891.494" y="-171" font-family="Helvetica,sans-Serif" font-size="10.00">and 18 more...</text>
<polyline fill="none" stroke="black" points="883.494,-165 1036.51,-165 "/>
<text text-anchor="start" x="891.494" y="-151" font-family="Helvetica,sans-Serif" font-size="10.00">+ CanSelectTile()</text>
<text text-anchor="start" x="891.494" y="-139" font-family="Helvetica,sans-Serif" font-size="10.00">+ CanSelectTile()</text>
<text text-anchor="start" x="891.494" y="-127" font-family="Helvetica,sans-Serif" font-size="10.00">+ ChangeLetter()</text>
<text text-anchor="start" x="891.494" y="-115" font-family="Helvetica,sans-Serif" font-size="10.00">+ ChangeLetter()</text>
<text text-anchor="start" x="891.494" y="-103" font-family="Helvetica,sans-Serif" font-size="10.00">+ ChangeLetter()</text>
<text text-anchor="start" x="891.494" y="-91" font-family="Helvetica,sans-Serif" font-size="10.00">+ DeselectTile()</text>
<text text-anchor="start" x="891.494" y="-79" font-family="Helvetica,sans-Serif" font-size="10.00">+ DeselectTile()</text>
<text text-anchor="start" x="891.494" y="-67" font-family="Helvetica,sans-Serif" font-size="10.00">+ DespawnTile()</text>
<text text-anchor="start" x="891.494" y="-55" font-family="Helvetica,sans-Serif" font-size="10.00">+ ModifyTileSelection()</text>
<text text-anchor="start" x="891.494" y="-43" font-family="Helvetica,sans-Serif" font-size="10.00">+ RemoveWildcard()</text>
<text text-anchor="start" x="891.494" y="-31" font-family="Helvetica,sans-Serif" font-size="10.00">and 11 more...</text>
</a>
</g>
<!-- Node1&#45;&gt;Node9 -->
<g id="edge16" class="edge"><title>Node1&#45;&gt;Node9</title>
<path fill="none" stroke="midnightblue" d="M1138.93,-441.881C1106.01,-415.391 1071.59,-383.776 1045,-350 1038.86,-342.207 1033.02,-333.9 1027.47,-325.3"/>
<polygon fill="none" stroke="midnightblue" points="1136.81,-444.666 1146.81,-448.152 1141.17,-439.188 1136.81,-444.666"/>
</g>
<!-- Node10 -->
<g id="node19" class="node"><title>Node10</title>
<a xlink:href="class_thinksquirrel_1_1_word_game_builder_1_1_tiles_1_1_letter_tile_animation.html" target="_top" xlink:title="Adds animation to a letter tile. ">
<polygon fill="none" stroke="black" points="1054.44,-121 1054.44,-229 1173.56,-229 1173.56,-121 1054.44,-121"/>
<text text-anchor="middle" x="1114" y="-215" font-family="Helvetica,sans-Serif" font-size="10.00">LetterTileAnimation</text>
<polyline fill="none" stroke="black" points="1054.44,-209 1173.56,-209 "/>
<text text-anchor="start" x="1062.44" y="-195" font-family="Helvetica,sans-Serif" font-size="10.00">+ changeAnimationClip</text>
<text text-anchor="start" x="1062.44" y="-183" font-family="Helvetica,sans-Serif" font-size="10.00">+ disableAnimationClip</text>
<text text-anchor="start" x="1062.44" y="-171" font-family="Helvetica,sans-Serif" font-size="10.00">+ enableAnimationClip</text>
<text text-anchor="start" x="1062.44" y="-159" font-family="Helvetica,sans-Serif" font-size="10.00">+ spawnAnimationClip</text>
<text text-anchor="start" x="1062.44" y="-147" font-family="Helvetica,sans-Serif" font-size="10.00">+ tileAnimation</text>
<polyline fill="none" stroke="black" points="1054.44,-141 1173.56,-141 "/>
<text text-anchor="middle" x="1114" y="-127" font-family="Helvetica,sans-Serif" font-size="10.00"> </text>
</a>
</g>
<!-- Node1&#45;&gt;Node10 -->
<g id="edge18" class="edge"><title>Node1&#45;&gt;Node10</title>
<path fill="none" stroke="midnightblue" d="M1192.79,-377.527C1189.14,-368.212 1185.52,-358.972 1182,-350 1166.14,-309.535 1148.26,-263.758 1134.81,-229.317"/>
<polygon fill="none" stroke="midnightblue" points="1189.54,-378.829 1196.45,-386.86 1196.06,-376.273 1189.54,-378.829"/>
</g>
<!-- Node11 -->
<g id="node21" class="node"><title>Node11</title>
<a xlink:href="class_thinksquirrel_1_1_word_game_builder_1_1_tiles_1_1_letter_tile_color_control.html" target="_top" xlink:title="Automatically controls the color of objects based on a letter tile&#39;s state. ">
<polygon fill="none" stroke="black" points="1191.27,-133 1191.27,-217 1304.73,-217 1304.73,-133 1191.27,-133"/>
<text text-anchor="middle" x="1248" y="-203" font-family="Helvetica,sans-Serif" font-size="10.00">LetterTileColorControl</text>
<polyline fill="none" stroke="black" points="1191.27,-197 1304.73,-197 "/>
<text text-anchor="start" x="1199.27" y="-183" font-family="Helvetica,sans-Serif" font-size="10.00">+ background</text>
<text text-anchor="start" x="1199.27" y="-171" font-family="Helvetica,sans-Serif" font-size="10.00">+ colorProperties</text>
<text text-anchor="start" x="1199.27" y="-159" font-family="Helvetica,sans-Serif" font-size="10.00">+ text</text>
<polyline fill="none" stroke="black" points="1191.27,-153 1304.73,-153 "/>
<text text-anchor="middle" x="1248" y="-139" font-family="Helvetica,sans-Serif" font-size="10.00"> </text>
</a>
</g>
<!-- Node1&#45;&gt;Node11 -->
<g id="edge20" class="edge"><title>Node1&#45;&gt;Node11</title>
<path fill="none" stroke="midnightblue" d="M1248,-376.448C1248,-318.936 1248,-256.841 1248,-217.253"/>
<polygon fill="none" stroke="midnightblue" points="1244.5,-376.752 1248,-386.752 1251.5,-376.752 1244.5,-376.752"/>
</g>
<!-- Node12 -->
<g id="node23" class="node"><title>Node12</title>
<a xlink:href="class_thinksquirrel_1_1_word_game_builder_1_1_tiles_1_1_letter_tile_label_control.html" target="_top" xlink:title="Automatically controls the text on objects based on a letter tile&#39;s state. ">
<polygon fill="none" stroke="black" points="1322.99,-139 1322.99,-211 1437.01,-211 1437.01,-139 1322.99,-139"/>
<text text-anchor="middle" x="1380" y="-197" font-family="Helvetica,sans-Serif" font-size="10.00">LetterTileLabelControl</text>
<polyline fill="none" stroke="black" points="1322.99,-191 1437.01,-191 "/>
<text text-anchor="start" x="1330.99" y="-177" font-family="Helvetica,sans-Serif" font-size="10.00">+ letterLabel</text>
<text text-anchor="start" x="1330.99" y="-165" font-family="Helvetica,sans-Serif" font-size="10.00">+ scoreLabel</text>
<polyline fill="none" stroke="black" points="1322.99,-159 1437.01,-159 "/>
<text text-anchor="middle" x="1380" y="-145" font-family="Helvetica,sans-Serif" font-size="10.00"> </text>
</a>
</g>
<!-- Node1&#45;&gt;Node12 -->
<g id="edge22" class="edge"><title>Node1&#45;&gt;Node12</title>
<path fill="none" stroke="midnightblue" d="M1302.37,-377.527C1305.97,-368.212 1309.54,-358.972 1313,-350 1331.59,-301.833 1353.02,-246.142 1366.54,-211"/>
<polygon fill="none" stroke="midnightblue" points="1299.1,-376.27 1298.76,-386.859 1305.63,-378.793 1299.1,-376.27"/>
</g>
<!-- Node13 -->
<g id="node25" class="node"><title>Node13</title>
<a xlink:href="class_thinksquirrel_1_1_word_game_builder_1_1_tiles_1_1_letter_tile_mouse_input.html" target="_top" xlink:title="Adds input control to a letter tile, using Unity&#39;s OnMouse[...] methods. ">
<polygon fill="none" stroke="black" points="1455.21,-145 1455.21,-205 1564.79,-205 1564.79,-145 1455.21,-145"/>
<text text-anchor="middle" x="1510" y="-191" font-family="Helvetica,sans-Serif" font-size="10.00">LetterTileMouseInput</text>
<polyline fill="none" stroke="black" points="1455.21,-185 1564.79,-185 "/>
<text text-anchor="middle" x="1510" y="-171" font-family="Helvetica,sans-Serif" font-size="10.00"> </text>
<polyline fill="none" stroke="black" points="1455.21,-165 1564.79,-165 "/>
<text text-anchor="middle" x="1510" y="-151" font-family="Helvetica,sans-Serif" font-size="10.00"> </text>
</a>
</g>
<!-- Node1&#45;&gt;Node13 -->
<g id="edge24" class="edge"><title>Node1&#45;&gt;Node13</title>
<path fill="none" stroke="midnightblue" d="M1357.28,-442.298C1389.21,-416.012 1421.96,-384.409 1446,-350 1477.71,-304.617 1495.7,-241.671 1504.09,-205.249"/>
<polygon fill="none" stroke="midnightblue" points="1354.74,-439.848 1349.18,-448.865 1359.15,-445.284 1354.74,-439.848"/>
</g>
<!-- Node14 -->
<g id="node27" class="node"><title>Node14</title>
<a xlink:href="class_thinksquirrel_1_1_word_game_builder_1_1_tiles_1_1_letter_tile_visibility_control.html" target="_top" xlink:title="Automatically controls the visibility of objects based on a letter tile&#39;s state. ">
<polygon fill="none" stroke="black" points="1583.25,-145 1583.25,-205 1708.75,-205 1708.75,-145 1583.25,-145"/>
<text text-anchor="middle" x="1646" y="-191" font-family="Helvetica,sans-Serif" font-size="10.00">LetterTileVisibilityControl</text>
<polyline fill="none" stroke="black" points="1583.25,-185 1708.75,-185 "/>
<text text-anchor="start" x="1591.25" y="-171" font-family="Helvetica,sans-Serif" font-size="10.00">+ objects</text>
<polyline fill="none" stroke="black" points="1583.25,-165 1708.75,-165 "/>
<text text-anchor="middle" x="1646" y="-151" font-family="Helvetica,sans-Serif" font-size="10.00"> </text>
</a>
</g>
<!-- Node1&#45;&gt;Node14 -->
<g id="edge26" class="edge"><title>Node1&#45;&gt;Node14</title>
<path fill="none" stroke="midnightblue" d="M1359.09,-482.768C1428.38,-455.911 1515.08,-412.737 1573,-350 1611.66,-308.117 1631.49,-242.785 1640.23,-205.229"/>
<polygon fill="none" stroke="midnightblue" points="1357.53,-479.616 1349.43,-486.449 1360.02,-486.157 1357.53,-479.616"/>
</g>
<!-- Node15 -->
<g id="node29" class="node"><title>Node15</title>
<a xlink:href="class_thinksquirrel_1_1_word_game_builder_1_1_tiles_1_1_ngui_1_1_letter_tile_ngui_control.html" target="_top" xlink:title="Adds NGUI display to a letter tile. ">
<polygon fill="none" stroke="black" points="1726.94,-133 1726.94,-217 1837.06,-217 1837.06,-133 1726.94,-133"/>
<text text-anchor="middle" x="1782" y="-203" font-family="Helvetica,sans-Serif" font-size="10.00">LetterTileNguiControl</text>
<polyline fill="none" stroke="black" points="1726.94,-197 1837.06,-197 "/>
<text text-anchor="start" x="1734.94" y="-183" font-family="Helvetica,sans-Serif" font-size="10.00">+ letterLabel</text>
<text text-anchor="start" x="1734.94" y="-171" font-family="Helvetica,sans-Serif" font-size="10.00">+ scoreLabel</text>
<text text-anchor="start" x="1734.94" y="-159" font-family="Helvetica,sans-Serif" font-size="10.00">+ widgets</text>
<polyline fill="none" stroke="black" points="1726.94,-153 1837.06,-153 "/>
<text text-anchor="middle" x="1782" y="-139" font-family="Helvetica,sans-Serif" font-size="10.00"> </text>
</a>
</g>
<!-- Node1&#45;&gt;Node15 -->
<g id="edge28" class="edge"><title>Node1&#45;&gt;Node15</title>
<path fill="none" stroke="midnightblue" d="M1359.47,-505.07C1464.53,-487.297 1619.93,-445.768 1717,-350 1753.27,-314.217 1769.53,-256.324 1776.66,-217.243"/>
<polygon fill="none" stroke="midnightblue" points="1358.76,-501.639 1349.46,-506.717 1359.9,-508.547 1358.76,-501.639"/>
</g>
<!-- Node16 -->
<g id="node31" class="node"><title>Node16</title>
<a xlink:href="class_thinksquirrel_1_1_word_game_builder_1_1_tiles_1_1_ngui_1_1_letter_tile_ngui_input.html" target="_top" xlink:title="Adds input control to a letter tile, using NGUI&#39;s OnPress/OnHover/OnClick methods. ">
<polygon fill="none" stroke="black" points="1854.94,-145 1854.94,-205 1955.06,-205 1955.06,-145 1854.94,-145"/>
<text text-anchor="middle" x="1905" y="-191" font-family="Helvetica,sans-Serif" font-size="10.00">LetterTileNguiInput</text>
<polyline fill="none" stroke="black" points="1854.94,-185 1955.06,-185 "/>
<text text-anchor="middle" x="1905" y="-171" font-family="Helvetica,sans-Serif" font-size="10.00"> </text>
<polyline fill="none" stroke="black" points="1854.94,-165 1955.06,-165 "/>
<text text-anchor="middle" x="1905" y="-151" font-family="Helvetica,sans-Serif" font-size="10.00"> </text>
</a>
</g>
<!-- Node1&#45;&gt;Node16 -->
<g id="edge30" class="edge"><title>Node1&#45;&gt;Node16</title>
<path fill="none" stroke="midnightblue" d="M1359.35,-516.611C1492.11,-508.96 1712.73,-476.38 1846,-350 1886.74,-311.37 1899.35,-243.614 1903.25,-205.039"/>
<polygon fill="none" stroke="midnightblue" points="1358.95,-513.128 1349.15,-517.16 1359.33,-520.117 1358.95,-513.128"/>
</g>
<!-- Node17 -->
<g id="node33" class="node"><title>Node17</title>
<a xlink:href="class_thinksquirrel_1_1_word_game_builder_1_1_tiles_1_1_tk2_d_1_1_letter_tile_tk2_d_control.html" target="_top" xlink:title="Adds 2D Toolkit display to a letter tile. ">
<polygon fill="none" stroke="black" points="1973.28,-133 1973.28,-217 2086.72,-217 2086.72,-133 1973.28,-133"/>
<text text-anchor="middle" x="2030" y="-203" font-family="Helvetica,sans-Serif" font-size="10.00">LetterTileTk2DControl</text>
<polyline fill="none" stroke="black" points="1973.28,-197 2086.72,-197 "/>
<text text-anchor="start" x="1981.28" y="-183" font-family="Helvetica,sans-Serif" font-size="10.00">+ letterLabel</text>
<text text-anchor="start" x="1981.28" y="-171" font-family="Helvetica,sans-Serif" font-size="10.00">+ scoreLabel</text>
<text text-anchor="start" x="1981.28" y="-159" font-family="Helvetica,sans-Serif" font-size="10.00">+ sprites</text>
<polyline fill="none" stroke="black" points="1973.28,-153 2086.72,-153 "/>
<text text-anchor="middle" x="2030" y="-139" font-family="Helvetica,sans-Serif" font-size="10.00"> </text>
</a>
</g>
<!-- Node1&#45;&gt;Node17 -->
<g id="edge32" class="edge"><title>Node1&#45;&gt;Node17</title>
<path fill="none" stroke="midnightblue" d="M1359.25,-504.741C1537.13,-481.482 1874.67,-428.247 1964,-350 2002.76,-316.045 2018.84,-256.857 2025.46,-217.059"/>
<polygon fill="none" stroke="midnightblue" points="1358.54,-501.304 1349.07,-506.062 1359.44,-508.246 1358.54,-501.304"/>
</g>
<!-- Node18 -->
<g id="node35" class="node"><title>Node18</title>
<a xlink:href="class_thinksquirrel_1_1_word_game_builder_1_1_tiles_1_1_tk2_d_1_1_letter_tile_tk2_d_input.html" target="_top" xlink:title="Adds input control to a letter tile, using 2D Toolkit&#39;s UI events. ">
<polygon fill="none" stroke="black" points="2104.27,-145 2104.27,-205 2207.73,-205 2207.73,-145 2104.27,-145"/>
<text text-anchor="middle" x="2156" y="-191" font-family="Helvetica,sans-Serif" font-size="10.00">LetterTileTk2DInput</text>
<polyline fill="none" stroke="black" points="2104.27,-185 2207.73,-185 "/>
<text text-anchor="start" x="2112.27" y="-171" font-family="Helvetica,sans-Serif" font-size="10.00">+ uiItem</text>
<polyline fill="none" stroke="black" points="2104.27,-165 2207.73,-165 "/>
<text text-anchor="middle" x="2156" y="-151" font-family="Helvetica,sans-Serif" font-size="10.00"> </text>
</a>
</g>
<!-- Node1&#45;&gt;Node18 -->
<g id="edge34" class="edge"><title>Node1&#45;&gt;Node18</title>
<path fill="none" stroke="midnightblue" d="M1359.54,-509.472C1563.64,-491.726 1986.23,-444.387 2095,-350 2137.67,-312.971 2150.5,-244.291 2154.35,-205.206"/>
<polygon fill="none" stroke="midnightblue" points="1359.06,-506.001 1349.4,-510.345 1359.66,-512.975 1359.06,-506.001"/>
</g>
<!-- Node19 -->
<g id="node37" class="node"><title>Node19</title>
<a xlink:href="class_thinksquirrel_1_1_word_game_builder_example_1_1_example_game_logic.html" target="_top" xlink:title="This class is responsible for all game logic. ">
<polygon fill="none" stroke="black" points="2225.47,-127 2225.47,-223 2352.53,-223 2352.53,-127 2225.47,-127"/>
<text text-anchor="middle" x="2289" y="-209" font-family="Helvetica,sans-Serif" font-size="10.00">ExampleGameLogic</text>
<polyline fill="none" stroke="black" points="2225.47,-203 2352.53,-203 "/>
<text text-anchor="middle" x="2289" y="-189" font-family="Helvetica,sans-Serif" font-size="10.00"> </text>
<polyline fill="none" stroke="black" points="2225.47,-183 2352.53,-183 "/>
<text text-anchor="start" x="2233.47" y="-169" font-family="Helvetica,sans-Serif" font-size="10.00">+ OnAgentFindWords()</text>
<text text-anchor="start" x="2233.47" y="-157" font-family="Helvetica,sans-Serif" font-size="10.00">+ OnPlayerWordResult()</text>
<text text-anchor="start" x="2233.47" y="-145" font-family="Helvetica,sans-Serif" font-size="10.00">+ OnTileDistribution()</text>
<text text-anchor="start" x="2233.47" y="-133" font-family="Helvetica,sans-Serif" font-size="10.00">+ OnWildcardTileSelect()</text>
</a>
</g>
<!-- Node1&#45;&gt;Node19 -->
<g id="edge36" class="edge"><title>Node1&#45;&gt;Node19</title>
<path fill="none" stroke="midnightblue" d="M1359.39,-511.911C1584.85,-497.512 2084.94,-454.41 2216,-350 2255.07,-318.871 2273.5,-263.084 2282.01,-223.062"/>
<polygon fill="none" stroke="midnightblue" points="1358.95,-508.431 1349.19,-512.554 1359.4,-515.417 1358.95,-508.431"/>
</g>
<!-- Node2 -->
<g id="node2" class="node"><title>Node2</title>
<polygon fill="none" stroke="#bfbfbf" points="1204.98,-689 1204.98,-749 1291.02,-749 1291.02,-689 1204.98,-689"/>
<text text-anchor="middle" x="1248" y="-735" font-family="Helvetica,sans-Serif" font-size="10.00">MonoBehaviour</text>
<polyline fill="none" stroke="#bfbfbf" points="1204.98,-729 1291.02,-729 "/>
<text text-anchor="middle" x="1248" y="-715" font-family="Helvetica,sans-Serif" font-size="10.00"> </text>
<polyline fill="none" stroke="#bfbfbf" points="1204.98,-709 1291.02,-709 "/>
<text text-anchor="middle" x="1248" y="-695" font-family="Helvetica,sans-Serif" font-size="10.00"> </text>
</g>
<!-- Node2&#45;&gt;Node1 -->
<g id="edge2" class="edge"><title>Node2&#45;&gt;Node1</title>
<path fill="none" stroke="midnightblue" d="M1248,-678.646C1248,-670.228 1248,-660.893 1248,-651.087"/>
<polygon fill="none" stroke="midnightblue" points="1244.5,-678.784 1248,-688.784 1251.5,-678.784 1244.5,-678.784"/>
</g>
</g>
</svg>
