<?xml version="1.0" encoding="UTF-8" standalone="no"?>
<!DOCTYPE svg PUBLIC "-//W3C//DTD SVG 1.1//EN"
 "http://www.w3.org/Graphics/SVG/1.1/DTD/svg11.dtd">
<!-- Generated by graphviz version 2.28.0 (20121120.0402)
 -->
<!-- Title: LetterTileLabelControl Pages: 1 -->
<svg width="210pt" height="482pt"
 viewBox="0.00 0.00 210.00 482.00" xmlns="http://www.w3.org/2000/svg" xmlns:xlink="http://www.w3.org/1999/xlink">
<g id="graph1" class="graph" transform="scale(1 1) rotate(0) translate(4 478)">
<title>LetterTileLabelControl</title>
<!-- Node1 -->
<g id="node1" class="node"><title>Node1</title>
<polygon fill="#bfbfbf" stroke="black" points="43.9888,-1 43.9888,-73 158.011,-73 158.011,-1 43.9888,-1"/>
<text text-anchor="middle" x="101" y="-59" font-family="Helvetica,sans-Serif" font-size="10.00">LetterTileLabelControl</text>
<polyline fill="none" stroke="black" points="43.9888,-53 158.011,-53 "/>
<text text-anchor="start" x="51.9888" y="-39" font-family="Helvetica,sans-Serif" font-size="10.00">+ letterLabel</text>
<text text-anchor="start" x="51.9888" y="-27" font-family="Helvetica,sans-Serif" font-size="10.00">+ scoreLabel</text>
<polyline fill="none" stroke="black" points="43.9888,-21 158.011,-21 "/>
<text text-anchor="middle" x="101" y="-7" font-family="Helvetica,sans-Serif" font-size="10.00"> </text>
</g>
<!-- Node2 -->
<g id="node2" class="node"><title>Node2</title>
<a xlink:href="class_thinksquirrel_1_1_word_game_builder_1_1_w_g_b_base.html" target="_top" xlink:title="The base class for all Word Game Builder components. ">
<polygon fill="none" stroke="black" points="-0.0541992,-111 -0.0541992,-375 202.054,-375 202.054,-111 -0.0541992,-111"/>
<text text-anchor="middle" x="101" y="-361" font-family="Helvetica,sans-Serif" font-size="10.00">WGBBase</text>
<polyline fill="none" stroke="black" points="-0.0541992,-355 202.054,-355 "/>
<text text-anchor="start" x="7.9458" y="-341" font-family="Helvetica,sans-Serif" font-size="10.00">+ userData</text>
<polyline fill="none" stroke="black" points="-0.0541992,-335 202.054,-335 "/>
<text text-anchor="start" x="7.9458" y="-321" font-family="Helvetica,sans-Serif" font-size="10.00">+ GetComponentFromInterface&lt; T &gt;()</text>
<text text-anchor="start" x="7.9458" y="-309" font-family="Helvetica,sans-Serif" font-size="10.00">+ GetComponentInChildrenFrom</text>
<text text-anchor="start" x="7.9458" y="-297" font-family="Helvetica,sans-Serif" font-size="10.00">Interface&lt; T &gt;()</text>
<text text-anchor="start" x="7.9458" y="-285" font-family="Helvetica,sans-Serif" font-size="10.00">+ GetComponentsFromInterface&lt; T &gt;()</text>
<text text-anchor="start" x="7.9458" y="-273" font-family="Helvetica,sans-Serif" font-size="10.00">+ GetComponentsInChildrenFrom</text>
<text text-anchor="start" x="7.9458" y="-261" font-family="Helvetica,sans-Serif" font-size="10.00">Interface&lt; T &gt;()</text>
<text text-anchor="start" x="7.9458" y="-249" font-family="Helvetica,sans-Serif" font-size="10.00">+ FindObjectOfTypeFromInterface&lt; T &gt;()</text>
<text text-anchor="start" x="7.9458" y="-237" font-family="Helvetica,sans-Serif" font-size="10.00">+ FindObjectsOfTypeFromInterface&lt; T &gt;()</text>
<text text-anchor="start" x="7.9458" y="-225" font-family="Helvetica,sans-Serif" font-size="10.00">+ InstantiateFromInterface&lt; T &gt;()</text>
<text text-anchor="start" x="7.9458" y="-213" font-family="Helvetica,sans-Serif" font-size="10.00">+ InstantiateFromInterface&lt; T &gt;()</text>
<text text-anchor="start" x="7.9458" y="-201" font-family="Helvetica,sans-Serif" font-size="10.00">+ Log()</text>
<text text-anchor="start" x="7.9458" y="-189" font-family="Helvetica,sans-Serif" font-size="10.00">+ Log()</text>
<text text-anchor="start" x="7.9458" y="-177" font-family="Helvetica,sans-Serif" font-size="10.00">+ LogError()</text>
<text text-anchor="start" x="7.9458" y="-165" font-family="Helvetica,sans-Serif" font-size="10.00">+ LogError()</text>
<text text-anchor="start" x="7.9458" y="-153" font-family="Helvetica,sans-Serif" font-size="10.00">+ LogException()</text>
<text text-anchor="start" x="7.9458" y="-141" font-family="Helvetica,sans-Serif" font-size="10.00">+ LogException()</text>
<text text-anchor="start" x="7.9458" y="-129" font-family="Helvetica,sans-Serif" font-size="10.00">+ LogWarning()</text>
<text text-anchor="start" x="7.9458" y="-117" font-family="Helvetica,sans-Serif" font-size="10.00">+ LogWarning()</text>
</a>
</g>
<!-- Node2&#45;&gt;Node1 -->
<g id="edge2" class="edge"><title>Node2&#45;&gt;Node1</title>
<path fill="none" stroke="midnightblue" d="M101,-100.734C101,-90.8601 101,-81.5652 101,-73.3085"/>
<polygon fill="none" stroke="midnightblue" points="97.5001,-100.785 101,-110.785 104.5,-100.785 97.5001,-100.785"/>
</g>
<!-- Node3 -->
<g id="node4" class="node"><title>Node3</title>
<polygon fill="none" stroke="#bfbfbf" points="57.978,-413 57.978,-473 144.022,-473 144.022,-413 57.978,-413"/>
<text text-anchor="middle" x="101" y="-459" font-family="Helvetica,sans-Serif" font-size="10.00">MonoBehaviour</text>
<polyline fill="none" stroke="#bfbfbf" points="57.978,-453 144.022,-453 "/>
<text text-anchor="middle" x="101" y="-439" font-family="Helvetica,sans-Serif" font-size="10.00"> </text>
<polyline fill="none" stroke="#bfbfbf" points="57.978,-433 144.022,-433 "/>
<text text-anchor="middle" x="101" y="-419" font-family="Helvetica,sans-Serif" font-size="10.00"> </text>
</g>
<!-- Node3&#45;&gt;Node2 -->
<g id="edge4" class="edge"><title>Node3&#45;&gt;Node2</title>
<path fill="none" stroke="midnightblue" d="M101,-402.646C101,-394.228 101,-384.893 101,-375.087"/>
<polygon fill="none" stroke="midnightblue" points="97.5001,-402.784 101,-412.784 104.5,-402.784 97.5001,-402.784"/>
</g>
</g>
</svg>
