<?xml version="1.0" encoding="UTF-8" standalone="no"?>
<!DOCTYPE svg PUBLIC "-//W3C//DTD SVG 1.1//EN"
 "http://www.w3.org/Graphics/SVG/1.1/DTD/svg11.dtd">
<!-- Generated by graphviz version 2.34.0 (20130907.0111)
 -->
<!-- Title: Invoke Pages: 1 -->
<svg width="294pt" height="88pt"
 viewBox="0.00 0.00 294.00 88.00" xmlns="http://www.w3.org/2000/svg" xmlns:xlink="http://www.w3.org/1999/xlink">
<g id="graph0" class="graph" transform="scale(1 1) rotate(0) translate(4 84)">
<title>Invoke</title>
<!-- Node1 -->
<g id="node1" class="node"><title>Node1</title>
<polygon fill="#bfbfbf" stroke="black" points="0,-35.5 0,-54.5 44,-54.5 44,-35.5 0,-35.5"/>
<text text-anchor="middle" x="22" y="-42.5" font-family="Helvetica,sans-Serif" font-size="10.00">Invoke</text>
</g>
<!-- Node2 -->
<g id="node2" class="node"><title>Node2</title>
<g id="a_node2"><a xlink:href="class_thinksquirrel_software_1_1_word_game_builder_1_1_w_g_b_event.html#ae0a1971d24b447511741cc2c90595e3f" target="_top" xlink:title="Invokes the event directly. This will never run outside of play mode. ">
<polygon fill="none" stroke="black" points="161,-60.5 161,-79.5 205,-79.5 205,-60.5 161,-60.5"/>
<text text-anchor="middle" x="183" y="-67.5" font-family="Helvetica,sans-Serif" font-size="10.00">Invoke</text>
</a>
</g>
</g>
<!-- Node1&#45;&gt;Node2 -->
<g id="edge1" class="edge"><title>Node1&#45;&gt;Node2</title>
<path fill="none" stroke="midnightblue" d="M44.114,-48.3198C71.4363,-52.6158 119.264,-60.1358 150.787,-65.0922"/>
<polygon fill="midnightblue" stroke="midnightblue" points="150.376,-68.5707 160.799,-66.6665 151.464,-61.6556 150.376,-68.5707"/>
</g>
<!-- Node3 -->
<g id="node3" class="node"><title>Node3</title>
<g id="a_node3"><a xlink:href="interface_thinksquirrel_software_1_1_word_game_builder_1_1_object_model_1_1_i_mono_behaviour.html#a9fd98ad6edfbda23fd09f763596b8488" target="_top" xlink:title="Invokes the method methodName in time seconds. ">
<polygon fill="none" stroke="black" points="80.5,-0.5 80.5,-41.5 285.5,-41.5 285.5,-0.5 80.5,-0.5"/>
<text text-anchor="start" x="88.5" y="-29.5" font-family="Helvetica,sans-Serif" font-size="10.00">ThinksquirrelSoftware.Word</text>
<text text-anchor="start" x="88.5" y="-18.5" font-family="Helvetica,sans-Serif" font-size="10.00">GameBuilder.ObjectModel.IMonoBehaviour.</text>
<text text-anchor="middle" x="183" y="-7.5" font-family="Helvetica,sans-Serif" font-size="10.00">Invoke</text>
</a>
</g>
</g>
<!-- Node1&#45;&gt;Node3 -->
<g id="edge2" class="edge"><title>Node1&#45;&gt;Node3</title>
<path fill="none" stroke="midnightblue" d="M44.114,-41.813C51.59,-40.6845 60.6012,-39.3243 70.3936,-37.8462"/>
<polygon fill="midnightblue" stroke="midnightblue" points="71.0529,-41.2865 80.4185,-36.3331 70.008,-34.3649 71.0529,-41.2865"/>
</g>
</g>
</svg>
