<?xml version="1.0" encoding="UTF-8" standalone="no"?>
<!DOCTYPE svg PUBLIC "-//W3C//DTD SVG 1.1//EN"
 "http://www.w3.org/Graphics/SVG/1.1/DTD/svg11.dtd">
<!-- Generated by graphviz version 2.28.0 (20121120.0402)
 -->
<!-- Title: ExampleViewModel Pages: 1 -->
<svg width="154pt" height="252pt"
 viewBox="0.00 0.00 154.00 252.00" xmlns="http://www.w3.org/2000/svg" xmlns:xlink="http://www.w3.org/1999/xlink">
<g id="graph1" class="graph" transform="scale(1 1) rotate(0) translate(4 248)">
<title>ExampleViewModel</title>
<!-- Node1 -->
<g id="node1" class="node"><title>Node1</title>
<polygon fill="#bfbfbf" stroke="black" points="-0.727539,-1 -0.727539,-145 146.728,-145 146.728,-1 -0.727539,-1"/>
<text text-anchor="middle" x="73" y="-131" font-family="Helvetica,sans-Serif" font-size="10.00">ExampleViewModel</text>
<polyline fill="none" stroke="black" points="-0.727539,-125 146.728,-125 "/>
<text text-anchor="start" x="7.27246" y="-111" font-family="Helvetica,sans-Serif" font-size="10.00">+ agent</text>
<text text-anchor="start" x="7.27246" y="-99" font-family="Helvetica,sans-Serif" font-size="10.00">+ game</text>
<text text-anchor="start" x="7.27246" y="-87" font-family="Helvetica,sans-Serif" font-size="10.00">+ languages</text>
<text text-anchor="start" x="7.27246" y="-75" font-family="Helvetica,sans-Serif" font-size="10.00">+ player</text>
<text text-anchor="start" x="7.27246" y="-63" font-family="Helvetica,sans-Serif" font-size="10.00">+ showWildcardPanel</text>
<text text-anchor="start" x="7.27246" y="-51" font-family="Helvetica,sans-Serif" font-size="10.00">+ submitButtonEnabled</text>
<text text-anchor="start" x="7.27246" y="-39" font-family="Helvetica,sans-Serif" font-size="10.00">+ wildcardPanelScrollPosition</text>
<text text-anchor="start" x="7.27246" y="-27" font-family="Helvetica,sans-Serif" font-size="10.00">+ wildcardPanelSelection</text>
<polyline fill="none" stroke="black" points="-0.727539,-21 146.728,-21 "/>
<text text-anchor="middle" x="73" y="-7" font-family="Helvetica,sans-Serif" font-size="10.00"> </text>
</g>
<!-- Node2 -->
<g id="node2" class="node"><title>Node2</title>
<polygon fill="none" stroke="#bfbfbf" points="29.978,-183 29.978,-243 116.022,-243 116.022,-183 29.978,-183"/>
<text text-anchor="middle" x="73" y="-229" font-family="Helvetica,sans-Serif" font-size="10.00">MonoBehaviour</text>
<polyline fill="none" stroke="#bfbfbf" points="29.978,-223 116.022,-223 "/>
<text text-anchor="middle" x="73" y="-209" font-family="Helvetica,sans-Serif" font-size="10.00"> </text>
<polyline fill="none" stroke="#bfbfbf" points="29.978,-203 116.022,-203 "/>
<text text-anchor="middle" x="73" y="-189" font-family="Helvetica,sans-Serif" font-size="10.00"> </text>
</g>
<!-- Node2&#45;&gt;Node1 -->
<g id="edge2" class="edge"><title>Node2&#45;&gt;Node1</title>
<path fill="none" stroke="midnightblue" d="M73,-172.656C73,-164.046 73,-154.675 73,-145.249"/>
<polygon fill="none" stroke="midnightblue" points="69.5001,-172.734 73,-182.734 76.5001,-172.734 69.5001,-172.734"/>
</g>
</g>
</svg>
