<?xml version="1.0" encoding="UTF-8" standalone="no"?>
<!DOCTYPE svg PUBLIC "-//W3C//DTD SVG 1.1//EN"
 "http://www.w3.org/Graphics/SVG/1.1/DTD/svg11.dtd">
<!-- Generated by graphviz version 2.34.0 (20130907.0111)
 -->
<!-- Title: LetterTileTextMesh Pages: 1 -->
<svg width="204pt" height="310pt"
 viewBox="0.00 0.00 204.00 310.00" xmlns="http://www.w3.org/2000/svg" xmlns:xlink="http://www.w3.org/1999/xlink">
<g id="graph0" class="graph" transform="scale(1 1) rotate(0) translate(4 306)">
<title>LetterTileTextMesh</title>
<!-- Node1 -->
<g id="node1" class="node"><title>Node1</title>
<polygon fill="#bfbfbf" stroke="black" points="48.5,-1 48.5,-69 147.5,-69 147.5,-1 48.5,-1"/>
<text text-anchor="middle" x="98" y="-57" font-family="Helvetica,sans-Serif" font-size="10.00">LetterTileTextMesh</text>
<polyline fill="none" stroke="black" points="48.5,-50 147.5,-50 "/>
<text text-anchor="start" x="56.5" y="-38" font-family="Helvetica,sans-Serif" font-size="10.00">+ letterLabel</text>
<text text-anchor="start" x="56.5" y="-27" font-family="Helvetica,sans-Serif" font-size="10.00">+ scoreLabel</text>
<polyline fill="none" stroke="black" points="48.5,-20 147.5,-20 "/>
<text text-anchor="middle" x="98" y="-8" font-family="Helvetica,sans-Serif" font-size="10.00"> </text>
</g>
<!-- Node2 -->
<g id="node2" class="node"><title>Node2</title>
<g id="a_node2"><a xlink:href="class_thinksquirrel_software_1_1_word_game_builder_1_1_w_g_b_base.html" target="_top" xlink:title="The base class for all Word Game Builder components. ">
<polygon fill="none" stroke="black" points="-0.5,-106.5 -0.5,-207.5 196.5,-207.5 196.5,-106.5 -0.5,-106.5"/>
<text text-anchor="middle" x="98" y="-195.5" font-family="Helvetica,sans-Serif" font-size="10.00">WGBBase</text>
<polyline fill="none" stroke="black" points="-0.5,-188.5 196.5,-188.5 "/>
<text text-anchor="start" x="7.5" y="-176.5" font-family="Helvetica,sans-Serif" font-size="10.00">+ userData</text>
<polyline fill="none" stroke="black" points="-0.5,-169.5 196.5,-169.5 "/>
<text text-anchor="start" x="7.5" y="-157.5" font-family="Helvetica,sans-Serif" font-size="10.00">+ GetComponentFromInterface&lt; T &gt;()</text>
<text text-anchor="start" x="7.5" y="-146.5" font-family="Helvetica,sans-Serif" font-size="10.00">+ FindObjectOfTypeFromInterface&lt; T &gt;()</text>
<text text-anchor="start" x="7.5" y="-135.5" font-family="Helvetica,sans-Serif" font-size="10.00">+ FindObjectsOfTypeFromInterface&lt; T &gt;()</text>
<text text-anchor="start" x="7.5" y="-124.5" font-family="Helvetica,sans-Serif" font-size="10.00">+ InstantiateFromInterface&lt; T &gt;()</text>
<text text-anchor="start" x="7.5" y="-113.5" font-family="Helvetica,sans-Serif" font-size="10.00">+ InstantiateFromInterface&lt; T &gt;()</text>
</a>
</g>
</g>
<!-- Node2&#45;&gt;Node1 -->
<g id="edge1" class="edge"><title>Node2&#45;&gt;Node1</title>
<path fill="none" stroke="midnightblue" d="M98,-96.4271C98,-87.1013 98,-77.7617 98,-69.3096"/>
<polygon fill="none" stroke="midnightblue" points="94.5001,-96.4986 98,-106.499 101.5,-96.4986 94.5001,-96.4986"/>
</g>
<!-- Node3 -->
<g id="node3" class="node"><title>Node3</title>
<polygon fill="none" stroke="#bfbfbf" points="56.5,-244.5 56.5,-301.5 139.5,-301.5 139.5,-244.5 56.5,-244.5"/>
<text text-anchor="middle" x="98" y="-289.5" font-family="Helvetica,sans-Serif" font-size="10.00">MonoBehaviour</text>
<polyline fill="none" stroke="#bfbfbf" points="56.5,-282.5 139.5,-282.5 "/>
<text text-anchor="middle" x="98" y="-270.5" font-family="Helvetica,sans-Serif" font-size="10.00"> </text>
<polyline fill="none" stroke="#bfbfbf" points="56.5,-263.5 139.5,-263.5 "/>
<text text-anchor="middle" x="98" y="-251.5" font-family="Helvetica,sans-Serif" font-size="10.00"> </text>
</g>
<!-- Node3&#45;&gt;Node2 -->
<g id="edge2" class="edge"><title>Node3&#45;&gt;Node2</title>
<path fill="none" stroke="midnightblue" d="M98,-234.354C98,-225.796 98,-216.578 98,-207.608"/>
<polygon fill="none" stroke="midnightblue" points="94.5001,-234.404 98,-244.404 101.5,-234.404 94.5001,-234.404"/>
</g>
</g>
</svg>
