<?xml version="1.0" encoding="UTF-8" standalone="no"?>
<!DOCTYPE svg PUBLIC "-//W3C//DTD SVG 1.1//EN"
 "http://www.w3.org/Graphics/SVG/1.1/DTD/svg11.dtd">
<!-- Generated by graphviz version 2.28.0 (20121120.0402)
 -->
<!-- Title: AsyncTask Pages: 1 -->
<svg width="136pt" height="276pt"
 viewBox="0.00 0.00 136.00 276.00" xmlns="http://www.w3.org/2000/svg" xmlns:xlink="http://www.w3.org/1999/xlink">
<g id="graph1" class="graph" transform="scale(1 1) rotate(0) translate(4 272)">
<title>AsyncTask</title>
<!-- Node1 -->
<g id="node1" class="node"><title>Node1</title>
<polygon fill="#bfbfbf" stroke="black" points="-0.0913086,-1 -0.0913086,-169 128.091,-169 128.091,-1 -0.0913086,-1"/>
<text text-anchor="middle" x="64" y="-155" font-family="Helvetica,sans-Serif" font-size="10.00">AsyncTask</text>
<polyline fill="none" stroke="black" points="-0.0913086,-149 128.091,-149 "/>
<text text-anchor="start" x="7.90869" y="-135" font-family="Helvetica,sans-Serif" font-size="10.00">+ hasEnded</text>
<text text-anchor="start" x="7.90869" y="-123" font-family="Helvetica,sans-Serif" font-size="10.00">+ isFailed</text>
<text text-anchor="start" x="7.90869" y="-111" font-family="Helvetica,sans-Serif" font-size="10.00">+ isSucceeded</text>
<text text-anchor="start" x="7.90869" y="-99" font-family="Helvetica,sans-Serif" font-size="10.00">+ shouldAbort</text>
<polyline fill="none" stroke="black" points="-0.0913086,-93 128.091,-93 "/>
<text text-anchor="start" x="7.90869" y="-79" font-family="Helvetica,sans-Serif" font-size="10.00">+ Abort()</text>
<text text-anchor="start" x="7.90869" y="-67" font-family="Helvetica,sans-Serif" font-size="10.00">+ AbortWait()</text>
<text text-anchor="start" x="7.90869" y="-55" font-family="Helvetica,sans-Serif" font-size="10.00">+ AbortWaitForSeconds()</text>
<text text-anchor="start" x="7.90869" y="-43" font-family="Helvetica,sans-Serif" font-size="10.00">+ Dispose()</text>
<text text-anchor="start" x="7.90869" y="-31" font-family="Helvetica,sans-Serif" font-size="10.00">+ SetReusable()</text>
<text text-anchor="start" x="7.90869" y="-19" font-family="Helvetica,sans-Serif" font-size="10.00">+ Wait()</text>
<text text-anchor="start" x="7.90869" y="-7" font-family="Helvetica,sans-Serif" font-size="10.00">+ WaitForSeconds()</text>
</g>
<!-- Node2 -->
<g id="node2" class="node"><title>Node2</title>
<polygon fill="none" stroke="#bfbfbf" points="29.8745,-207 29.8745,-267 98.1255,-267 98.1255,-207 29.8745,-207"/>
<text text-anchor="middle" x="64" y="-253" font-family="Helvetica,sans-Serif" font-size="10.00">IDisposable</text>
<polyline fill="none" stroke="#bfbfbf" points="29.8745,-247 98.1255,-247 "/>
<text text-anchor="middle" x="64" y="-233" font-family="Helvetica,sans-Serif" font-size="10.00"> </text>
<polyline fill="none" stroke="#bfbfbf" points="29.8745,-227 98.1255,-227 "/>
<text text-anchor="middle" x="64" y="-213" font-family="Helvetica,sans-Serif" font-size="10.00"> </text>
</g>
<!-- Node2&#45;&gt;Node1 -->
<g id="edge2" class="edge"><title>Node2&#45;&gt;Node1</title>
<path fill="none" stroke="midnightblue" d="M64,-196.696C64,-188.11 64,-178.709 64,-169.13"/>
<polygon fill="none" stroke="midnightblue" points="60.5001,-196.722 64,-206.722 67.5001,-196.722 60.5001,-196.722"/>
</g>
</g>
</svg>
