<?xml version="1.0" encoding="UTF-8" standalone="no"?>
<!DOCTYPE svg PUBLIC "-//W3C//DTD SVG 1.1//EN"
 "http://www.w3.org/Graphics/SVG/1.1/DTD/svg11.dtd">
<!-- Generated by graphviz version 2.28.0 (20121120.0402)
 -->
<!-- Title: ExampleViewModel.UiContext Pages: 1 -->
<svg width="899pt" height="312pt"
 viewBox="0.00 0.00 899.00 312.00" xmlns="http://www.w3.org/2000/svg" xmlns:xlink="http://www.w3.org/1999/xlink">
<g id="graph1" class="graph" transform="scale(1 1) rotate(0) translate(4 308)">
<title>ExampleViewModel.UiContext</title>
<!-- Node1 -->
<g id="node1" class="node"><title>Node1</title>
<polygon fill="#bfbfbf" stroke="black" points="373.837,-243 373.837,-303 524.163,-303 524.163,-243 373.837,-243"/>
<text text-anchor="middle" x="449" y="-289" font-family="Helvetica,sans-Serif" font-size="10.00">ExampleViewModel.UiContext</text>
<polyline fill="none" stroke="black" points="373.837,-283 524.163,-283 "/>
<text text-anchor="middle" x="449" y="-269" font-family="Helvetica,sans-Serif" font-size="10.00"> </text>
<polyline fill="none" stroke="black" points="373.837,-263 524.163,-263 "/>
<text text-anchor="middle" x="449" y="-249" font-family="Helvetica,sans-Serif" font-size="10.00"> </text>
</g>
<!-- Node2 -->
<g id="node3" class="node"><title>Node2</title>
<a xlink:href="class_thinksquirrel_1_1_word_game_builder_example_1_1_example_view_model_1_1_agent_context.html" target="_top" xlink:title="Contains information about the agent. ">
<polygon fill="none" stroke="black" points="-0.507812,-67 -0.507812,-139 166.508,-139 166.508,-67 -0.507812,-67"/>
<text text-anchor="middle" x="83" y="-125" font-family="Helvetica,sans-Serif" font-size="10.00">ExampleViewModel.AgentContext</text>
<polyline fill="none" stroke="black" points="-0.507812,-119 166.508,-119 "/>
<text text-anchor="start" x="7.49219" y="-105" font-family="Helvetica,sans-Serif" font-size="10.00">+ agentStatus</text>
<text text-anchor="start" x="7.49219" y="-93" font-family="Helvetica,sans-Serif" font-size="10.00">+ automaticMode</text>
<polyline fill="none" stroke="black" points="-0.507812,-87 166.508,-87 "/>
<text text-anchor="start" x="7.49219" y="-73" font-family="Helvetica,sans-Serif" font-size="10.00">+ ToggleAutomaticMode()</text>
</a>
</g>
<!-- Node1&#45;&gt;Node2 -->
<g id="edge2" class="edge"><title>Node1&#45;&gt;Node2</title>
<path fill="none" stroke="midnightblue" d="M363.584,-264.45C307.147,-256.424 233.302,-239.911 176,-206 147.952,-189.402 123.458,-161.652 106.658,-139.284"/>
<polygon fill="none" stroke="midnightblue" points="363.174,-267.927 373.554,-265.806 364.117,-260.991 363.174,-267.927"/>
</g>
<!-- Node3 -->
<g id="node5" class="node"><title>Node3</title>
<a xlink:href="class_thinksquirrel_1_1_word_game_builder_example_1_1_example_view_model_1_1_game_context.html" target="_top" xlink:title="Contains information about the game. ">
<polygon fill="none" stroke="black" points="184.943,-55 184.943,-151 353.057,-151 353.057,-55 184.943,-55"/>
<text text-anchor="middle" x="269" y="-137" font-family="Helvetica,sans-Serif" font-size="10.00">ExampleViewModel.GameContext</text>
<polyline fill="none" stroke="black" points="184.943,-131 353.057,-131 "/>
<text text-anchor="start" x="192.943" y="-117" font-family="Helvetica,sans-Serif" font-size="10.00">+ isInitialized</text>
<text text-anchor="start" x="192.943" y="-105" font-family="Helvetica,sans-Serif" font-size="10.00">+ tilePoolExists</text>
<text text-anchor="start" x="192.943" y="-93" font-family="Helvetica,sans-Serif" font-size="10.00">+ tilesRemaining</text>
<polyline fill="none" stroke="black" points="184.943,-87 353.057,-87 "/>
<text text-anchor="start" x="192.943" y="-73" font-family="Helvetica,sans-Serif" font-size="10.00">+ ResetTiles()</text>
<text text-anchor="start" x="192.943" y="-61" font-family="Helvetica,sans-Serif" font-size="10.00">+ SelectWildcardLetter()</text>
</a>
</g>
<!-- Node1&#45;&gt;Node3 -->
<g id="edge4" class="edge"><title>Node1&#45;&gt;Node3</title>
<path fill="none" stroke="midnightblue" d="M399.355,-236.804C386.8,-227.244 373.597,-216.594 362,-206 343.511,-189.109 324.62,-169.012 308.736,-151.141"/>
<polygon fill="none" stroke="midnightblue" points="397.391,-239.707 407.488,-242.917 401.597,-234.111 397.391,-239.707"/>
</g>
<!-- Node4 -->
<g id="node7" class="node"><title>Node4</title>
<a xlink:href="class_thinksquirrel_1_1_word_game_builder_example_1_1_example_view_model_1_1_languages_context.html" target="_top" xlink:title="Contains information about languages. ">
<polygon fill="none" stroke="black" points="371.044,-43 371.044,-163 526.956,-163 526.956,-43 371.044,-43"/>
<text text-anchor="start" x="379.044" y="-149" font-family="Helvetica,sans-Serif" font-size="10.00">ExampleViewModel.Languages</text>
<text text-anchor="middle" x="449" y="-137" font-family="Helvetica,sans-Serif" font-size="10.00">Context</text>
<polyline fill="none" stroke="black" points="371.044,-131 526.956,-131 "/>
<text text-anchor="start" x="379.044" y="-117" font-family="Helvetica,sans-Serif" font-size="10.00">+ currentLanguage</text>
<text text-anchor="start" x="379.044" y="-105" font-family="Helvetica,sans-Serif" font-size="10.00">+ currentLanguageIsLoaded</text>
<text text-anchor="start" x="379.044" y="-93" font-family="Helvetica,sans-Serif" font-size="10.00">+ currentLetters</text>
<text text-anchor="start" x="379.044" y="-81" font-family="Helvetica,sans-Serif" font-size="10.00">+ languageLoadProgress</text>
<text text-anchor="start" x="379.044" y="-69" font-family="Helvetica,sans-Serif" font-size="10.00">+ languageNames</text>
<polyline fill="none" stroke="black" points="371.044,-63 526.956,-63 "/>
<text text-anchor="start" x="379.044" y="-49" font-family="Helvetica,sans-Serif" font-size="10.00">+ ChangeLanguage()</text>
</a>
</g>
<!-- Node1&#45;&gt;Node4 -->
<g id="edge6" class="edge"><title>Node1&#45;&gt;Node4</title>
<path fill="none" stroke="midnightblue" d="M449,-232.726C449,-212.036 449,-186.237 449,-163.179"/>
<polygon fill="none" stroke="midnightblue" points="445.5,-232.737 449,-242.737 452.5,-232.737 445.5,-232.737"/>
</g>
<!-- Node5 -->
<g id="node9" class="node"><title>Node5</title>
<a xlink:href="class_thinksquirrel_1_1_word_game_builder_example_1_1_example_view_model_1_1_player_context.html" target="_top" xlink:title="Contains information about the player. ">
<polygon fill="none" stroke="black" points="545.386,-1 545.386,-205 714.614,-205 714.614,-1 545.386,-1"/>
<text text-anchor="middle" x="630" y="-191" font-family="Helvetica,sans-Serif" font-size="10.00">ExampleViewModel.PlayerContext</text>
<polyline fill="none" stroke="black" points="545.386,-185 714.614,-185 "/>
<text text-anchor="start" x="553.386" y="-171" font-family="Helvetica,sans-Serif" font-size="10.00">+ bestWord</text>
<text text-anchor="start" x="553.386" y="-159" font-family="Helvetica,sans-Serif" font-size="10.00">+ bestWordScore</text>
<text text-anchor="start" x="553.386" y="-147" font-family="Helvetica,sans-Serif" font-size="10.00">+ hasSelection</text>
<text text-anchor="start" x="553.386" y="-135" font-family="Helvetica,sans-Serif" font-size="10.00">+ highScore</text>
<text text-anchor="start" x="553.386" y="-123" font-family="Helvetica,sans-Serif" font-size="10.00">+ inputEnabled</text>
<text text-anchor="start" x="553.386" y="-111" font-family="Helvetica,sans-Serif" font-size="10.00">+ lastWord</text>
<text text-anchor="start" x="553.386" y="-99" font-family="Helvetica,sans-Serif" font-size="10.00">+ lastWordScore</text>
<text text-anchor="start" x="553.386" y="-87" font-family="Helvetica,sans-Serif" font-size="10.00">+ multiplyByPermutations</text>
<text text-anchor="start" x="553.386" y="-75" font-family="Helvetica,sans-Serif" font-size="10.00">+ orderedResult</text>
<text text-anchor="start" x="553.386" y="-63" font-family="Helvetica,sans-Serif" font-size="10.00">+ permutationResult</text>
<text text-anchor="start" x="553.386" y="-51" font-family="Helvetica,sans-Serif" font-size="10.00">+ score</text>
<polyline fill="none" stroke="black" points="545.386,-45 714.614,-45 "/>
<text text-anchor="start" x="553.386" y="-31" font-family="Helvetica,sans-Serif" font-size="10.00">+ PlayerContext()</text>
<text text-anchor="start" x="553.386" y="-19" font-family="Helvetica,sans-Serif" font-size="10.00">+ ClearSelection()</text>
<text text-anchor="start" x="553.386" y="-7" font-family="Helvetica,sans-Serif" font-size="10.00">+ SubmitWord()</text>
</a>
</g>
<!-- Node1&#45;&gt;Node5 -->
<g id="edge8" class="edge"><title>Node1&#45;&gt;Node5</title>
<path fill="none" stroke="midnightblue" d="M497.971,-236.658C510.383,-227.101 523.461,-216.488 535,-206 538.402,-202.907 541.823,-199.712 545.24,-196.446"/>
<polygon fill="none" stroke="midnightblue" points="495.772,-233.934 489.934,-242.775 500.011,-239.504 495.772,-233.934"/>
</g>
<!-- Node6 -->
<g id="node11" class="node"><title>Node6</title>
<a xlink:href="class_thinksquirrel_1_1_word_game_builder_example_1_1_example_view_model_1_1_word_result_context.html" target="_top" xlink:title="Contains information about a word check. ">
<polygon fill="none" stroke="black" points="732.76,-43 732.76,-163 891.24,-163 891.24,-43 732.76,-43"/>
<text text-anchor="start" x="740.76" y="-149" font-family="Helvetica,sans-Serif" font-size="10.00">ExampleViewModel.WordResult</text>
<text text-anchor="middle" x="812" y="-137" font-family="Helvetica,sans-Serif" font-size="10.00">Context</text>
<polyline fill="none" stroke="black" points="732.76,-131 891.24,-131 "/>
<text text-anchor="start" x="740.76" y="-117" font-family="Helvetica,sans-Serif" font-size="10.00">+ allWords</text>
<text text-anchor="start" x="740.76" y="-105" font-family="Helvetica,sans-Serif" font-size="10.00">+ hasValue</text>
<text text-anchor="start" x="740.76" y="-93" font-family="Helvetica,sans-Serif" font-size="10.00">+ input</text>
<text text-anchor="start" x="740.76" y="-81" font-family="Helvetica,sans-Serif" font-size="10.00">+ isValid</text>
<text text-anchor="start" x="740.76" y="-69" font-family="Helvetica,sans-Serif" font-size="10.00">+ score</text>
<polyline fill="none" stroke="black" points="732.76,-63 891.24,-63 "/>
<text text-anchor="middle" x="812" y="-49" font-family="Helvetica,sans-Serif" font-size="10.00"> </text>
</a>
</g>
<!-- Node1&#45;&gt;Node6 -->
<g id="edge10" class="edge"><title>Node1&#45;&gt;Node6</title>
<path fill="none" stroke="midnightblue" d="M534.384,-265.001C591.207,-257.208 665.663,-240.75 723,-206 741.089,-195.037 757.459,-179.176 771.083,-163.215"/>
<polygon fill="none" stroke="midnightblue" points="533.809,-261.546 524.347,-266.313 534.717,-268.487 533.809,-261.546"/>
</g>
</g>
</svg>
