<?xml version="1.0" encoding="UTF-8" standalone="no"?>
<!DOCTYPE svg PUBLIC "-//W3C//DTD SVG 1.1//EN"
 "http://www.w3.org/Graphics/SVG/1.1/DTD/svg11.dtd">
<!-- Generated by graphviz version 2.28.0 (20121120.0402)
 -->
<!-- Title: WGBBase Pages: 1 -->
<svg width="2340pt" height="758pt"
 viewBox="0.00 0.00 2340.00 758.00" xmlns="http://www.w3.org/2000/svg" xmlns:xlink="http://www.w3.org/1999/xlink">
<g id="graph1" class="graph" transform="scale(1 1) rotate(0) translate(4 754)">
<title>WGBBase</title>
<!-- Node1 -->
<g id="node1" class="node"><title>Node1</title>
<polygon fill="#bfbfbf" stroke="black" points="1126.95,-387 1126.95,-651 1329.05,-651 1329.05,-387 1126.95,-387"/>
<text text-anchor="middle" x="1228" y="-637" font-family="Helvetica,sans-Serif" font-size="10.00">WGBBase</text>
<polyline fill="none" stroke="black" points="1126.95,-631 1329.05,-631 "/>
<text text-anchor="start" x="1134.95" y="-617" font-family="Helvetica,sans-Serif" font-size="10.00">+ userData</text>
<polyline fill="none" stroke="black" points="1126.95,-611 1329.05,-611 "/>
<text text-anchor="start" x="1134.95" y="-597" font-family="Helvetica,sans-Serif" font-size="10.00">+ GetComponentFromInterface&lt; T &gt;()</text>
<text text-anchor="start" x="1134.95" y="-585" font-family="Helvetica,sans-Serif" font-size="10.00">+ GetComponentInChildrenFrom</text>
<text text-anchor="start" x="1134.95" y="-573" font-family="Helvetica,sans-Serif" font-size="10.00">Interface&lt; T &gt;()</text>
<text text-anchor="start" x="1134.95" y="-561" font-family="Helvetica,sans-Serif" font-size="10.00">+ GetComponentsFromInterface&lt; T &gt;()</text>
<text text-anchor="start" x="1134.95" y="-549" font-family="Helvetica,sans-Serif" font-size="10.00">+ GetComponentsInChildrenFrom</text>
<text text-anchor="start" x="1134.95" y="-537" font-family="Helvetica,sans-Serif" font-size="10.00">Interface&lt; T &gt;()</text>
<text text-anchor="start" x="1134.95" y="-525" font-family="Helvetica,sans-Serif" font-size="10.00">+ FindObjectOfTypeFromInterface&lt; T &gt;()</text>
<text text-anchor="start" x="1134.95" y="-513" font-family="Helvetica,sans-Serif" font-size="10.00">+ FindObjectsOfTypeFromInterface&lt; T &gt;()</text>
<text text-anchor="start" x="1134.95" y="-501" font-family="Helvetica,sans-Serif" font-size="10.00">+ InstantiateFromInterface&lt; T &gt;()</text>
<text text-anchor="start" x="1134.95" y="-489" font-family="Helvetica,sans-Serif" font-size="10.00">+ InstantiateFromInterface&lt; T &gt;()</text>
<text text-anchor="start" x="1134.95" y="-477" font-family="Helvetica,sans-Serif" font-size="10.00">+ Log()</text>
<text text-anchor="start" x="1134.95" y="-465" font-family="Helvetica,sans-Serif" font-size="10.00">+ Log()</text>
<text text-anchor="start" x="1134.95" y="-453" font-family="Helvetica,sans-Serif" font-size="10.00">+ LogError()</text>
<text text-anchor="start" x="1134.95" y="-441" font-family="Helvetica,sans-Serif" font-size="10.00">+ LogError()</text>
<text text-anchor="start" x="1134.95" y="-429" font-family="Helvetica,sans-Serif" font-size="10.00">+ LogException()</text>
<text text-anchor="start" x="1134.95" y="-417" font-family="Helvetica,sans-Serif" font-size="10.00">+ LogException()</text>
<text text-anchor="start" x="1134.95" y="-405" font-family="Helvetica,sans-Serif" font-size="10.00">+ LogWarning()</text>
<text text-anchor="start" x="1134.95" y="-393" font-family="Helvetica,sans-Serif" font-size="10.00">+ LogWarning()</text>
</g>
<!-- Node3 -->
<g id="node5" class="node"><title>Node3</title>
<a xlink:href="class_thinksquirrel_software_1_1_word_game_builder_1_1_gameplay_1_1_tile_pool.html" target="_top" xlink:title="A class that manages an instance pool of letter tiles. ">
<polygon fill="none" stroke="black" points="-0.918945,-1 -0.918945,-349 118.919,-349 118.919,-1 -0.918945,-1"/>
<text text-anchor="middle" x="59" y="-335" font-family="Helvetica,sans-Serif" font-size="10.00">TilePool</text>
<polyline fill="none" stroke="black" points="-0.918945,-329 118.919,-329 "/>
<text text-anchor="start" x="7.08105" y="-315" font-family="Helvetica,sans-Serif" font-size="10.00">+ blankLetterCount</text>
<text text-anchor="start" x="7.08105" y="-303" font-family="Helvetica,sans-Serif" font-size="10.00">+ language</text>
<text text-anchor="start" x="7.08105" y="-291" font-family="Helvetica,sans-Serif" font-size="10.00">+ languageIdentifier</text>
<text text-anchor="start" x="7.08105" y="-279" font-family="Helvetica,sans-Serif" font-size="10.00">+ lastDistributionCount</text>
<text text-anchor="start" x="7.08105" y="-267" font-family="Helvetica,sans-Serif" font-size="10.00">+ onTileDistribution</text>
<text text-anchor="start" x="7.08105" y="-255" font-family="Helvetica,sans-Serif" font-size="10.00">+ poolMultiplier</text>
<text text-anchor="start" x="7.08105" y="-243" font-family="Helvetica,sans-Serif" font-size="10.00">+ tileDistribution</text>
<text text-anchor="start" x="7.08105" y="-231" font-family="Helvetica,sans-Serif" font-size="10.00">+ tileDistributionCount</text>
<text text-anchor="start" x="7.08105" y="-219" font-family="Helvetica,sans-Serif" font-size="10.00">+ tilePool</text>
<text text-anchor="start" x="7.08105" y="-207" font-family="Helvetica,sans-Serif" font-size="10.00">+ tilePoolCount</text>
<text text-anchor="start" x="7.08105" y="-195" font-family="Helvetica,sans-Serif" font-size="10.00">+ tilePrefab</text>
<polyline fill="none" stroke="black" points="-0.918945,-189 118.919,-189 "/>
<text text-anchor="start" x="7.08105" y="-175" font-family="Helvetica,sans-Serif" font-size="10.00">+ AddLetter()</text>
<text text-anchor="start" x="7.08105" y="-163" font-family="Helvetica,sans-Serif" font-size="10.00">+ CreateTilePool()</text>
<text text-anchor="start" x="7.08105" y="-151" font-family="Helvetica,sans-Serif" font-size="10.00">+ CreateTilePool()</text>
<text text-anchor="start" x="7.08105" y="-139" font-family="Helvetica,sans-Serif" font-size="10.00">+ DestroyAllTiles()</text>
<text text-anchor="start" x="7.08105" y="-127" font-family="Helvetica,sans-Serif" font-size="10.00">+ DestroyTile()</text>
<text text-anchor="start" x="7.08105" y="-115" font-family="Helvetica,sans-Serif" font-size="10.00">+ DestroyTiles()</text>
<text text-anchor="start" x="7.08105" y="-103" font-family="Helvetica,sans-Serif" font-size="10.00">+ DistributeTiles()</text>
<text text-anchor="start" x="7.08105" y="-91" font-family="Helvetica,sans-Serif" font-size="10.00">+ DistributeTiles()</text>
<text text-anchor="start" x="7.08105" y="-79" font-family="Helvetica,sans-Serif" font-size="10.00">+ InsertTile()</text>
<text text-anchor="start" x="7.08105" y="-67" font-family="Helvetica,sans-Serif" font-size="10.00">+ RemoveLetter()</text>
<text text-anchor="start" x="7.08105" y="-55" font-family="Helvetica,sans-Serif" font-size="10.00">+ RemoveTile()</text>
<text text-anchor="start" x="7.08105" y="-43" font-family="Helvetica,sans-Serif" font-size="10.00">+ RemoveTiles()</text>
<text text-anchor="start" x="7.08105" y="-31" font-family="Helvetica,sans-Serif" font-size="10.00">+ ResetTilePool()</text>
<text text-anchor="start" x="7.08105" y="-19" font-family="Helvetica,sans-Serif" font-size="10.00">+ SaveTileDistribution()</text>
<text text-anchor="start" x="7.08105" y="-7" font-family="Helvetica,sans-Serif" font-size="10.00">+ SetTiles()</text>
</a>
</g>
<!-- Node1&#45;&gt;Node3 -->
<g id="edge4" class="edge"><title>Node1&#45;&gt;Node3</title>
<path fill="none" stroke="midnightblue" d="M1116.57,-514.741C868.273,-505.348 279.49,-470.614 128,-350 124.949,-347.571 122.033,-344.987 119.245,-342.269"/>
<polygon fill="none" stroke="midnightblue" points="1116.57,-518.243 1126.7,-515.117 1116.83,-511.248 1116.57,-518.243"/>
</g>
<!-- Node4 -->
<g id="node7" class="node"><title>Node4</title>
<a xlink:href="class_thinksquirrel_software_1_1_word_game_builder_1_1_gameplay_1_1_wildcard_tile_manager.html" target="_top" xlink:title="A manager class for selecting wildcard tiles. ">
<polygon fill="none" stroke="black" points="136.911,-145 136.911,-205 255.089,-205 255.089,-145 136.911,-145"/>
<text text-anchor="middle" x="196" y="-191" font-family="Helvetica,sans-Serif" font-size="10.00">WildcardTileManager</text>
<polyline fill="none" stroke="black" points="136.911,-185 255.089,-185 "/>
<text text-anchor="start" x="144.911" y="-171" font-family="Helvetica,sans-Serif" font-size="10.00">+ onWildcardTileSelect</text>
<polyline fill="none" stroke="black" points="136.911,-165 255.089,-165 "/>
<text text-anchor="start" x="144.911" y="-151" font-family="Helvetica,sans-Serif" font-size="10.00">+ SelectWildcardTile()</text>
</a>
</g>
<!-- Node1&#45;&gt;Node4 -->
<g id="edge6" class="edge"><title>Node1&#45;&gt;Node4</title>
<path fill="none" stroke="midnightblue" d="M1116.43,-512.084C891.307,-498.031 393.123,-455.574 264,-350 219.557,-313.663 204.064,-244.394 198.733,-205.102"/>
<polygon fill="none" stroke="midnightblue" points="1116.42,-515.589 1126.62,-512.712 1116.85,-508.603 1116.42,-515.589"/>
</g>
<!-- Node5 -->
<g id="node9" class="node"><title>Node5</title>
<a xlink:href="class_thinksquirrel_software_1_1_word_game_builder_1_1_gameplay_1_1_word_game_agent.html" target="_top" xlink:title="Represents a word game AI agent. The agent is multithreaded and supports automatic selection/submissi...">
<polygon fill="none" stroke="black" points="273.174,-67 273.174,-283 402.826,-283 402.826,-67 273.174,-67"/>
<text text-anchor="middle" x="338" y="-269" font-family="Helvetica,sans-Serif" font-size="10.00">WordGameAgent</text>
<polyline fill="none" stroke="black" points="273.174,-263 402.826,-263 "/>
<text text-anchor="start" x="281.174" y="-249" font-family="Helvetica,sans-Serif" font-size="10.00">+ autoSelectTime</text>
<text text-anchor="start" x="281.174" y="-237" font-family="Helvetica,sans-Serif" font-size="10.00">+ autoSelectWord</text>
<text text-anchor="start" x="281.174" y="-225" font-family="Helvetica,sans-Serif" font-size="10.00">+ autoSubmitTime</text>
<text text-anchor="start" x="281.174" y="-213" font-family="Helvetica,sans-Serif" font-size="10.00">+ autoSubmitWord</text>
<text text-anchor="start" x="281.174" y="-201" font-family="Helvetica,sans-Serif" font-size="10.00">+ bias</text>
<text text-anchor="start" x="281.174" y="-189" font-family="Helvetica,sans-Serif" font-size="10.00">+ customWildcardScore</text>
<text text-anchor="start" x="281.174" y="-177" font-family="Helvetica,sans-Serif" font-size="10.00">+ customWildcardScores</text>
<text text-anchor="start" x="281.174" y="-165" font-family="Helvetica,sans-Serif" font-size="10.00">+ customWildcardScoring</text>
<text text-anchor="start" x="281.174" y="-153" font-family="Helvetica,sans-Serif" font-size="10.00">+ ignorePlayerInputState</text>
<text text-anchor="start" x="281.174" y="-141" font-family="Helvetica,sans-Serif" font-size="10.00">+ lastSearchInfo</text>
<text text-anchor="start" x="281.174" y="-129" font-family="Helvetica,sans-Serif" font-size="10.00">and 9 more...</text>
<polyline fill="none" stroke="black" points="273.174,-123 402.826,-123 "/>
<text text-anchor="start" x="281.174" y="-109" font-family="Helvetica,sans-Serif" font-size="10.00">+ FindWords()</text>
<text text-anchor="start" x="281.174" y="-97" font-family="Helvetica,sans-Serif" font-size="10.00">+ FindWords()</text>
<text text-anchor="start" x="281.174" y="-85" font-family="Helvetica,sans-Serif" font-size="10.00">+ FindWords()</text>
<text text-anchor="start" x="281.174" y="-73" font-family="Helvetica,sans-Serif" font-size="10.00">+ Stop()</text>
</a>
</g>
<!-- Node1&#45;&gt;Node5 -->
<g id="edge8" class="edge"><title>Node1&#45;&gt;Node5</title>
<path fill="none" stroke="midnightblue" d="M1116.8,-507.935C919.22,-488.02 517.709,-437.745 411,-350 389.998,-332.731 374.941,-308.369 364.182,-283.329"/>
<polygon fill="none" stroke="midnightblue" points="1116.62,-511.434 1126.91,-508.946 1117.31,-504.469 1116.62,-511.434"/>
</g>
<!-- Node6 -->
<g id="node11" class="node"><title>Node6</title>
<a xlink:href="class_thinksquirrel_software_1_1_word_game_builder_1_1_gameplay_1_1_word_game_player.html" target="_top" xlink:title="Represents a word game player. Also tracks scores and high scores. ">
<polygon fill="none" stroke="black" points="420.488,-13 420.488,-337 545.512,-337 545.512,-13 420.488,-13"/>
<text text-anchor="middle" x="483" y="-323" font-family="Helvetica,sans-Serif" font-size="10.00">WordGamePlayer</text>
<polyline fill="none" stroke="black" points="420.488,-317 545.512,-317 "/>
<text text-anchor="start" x="428.488" y="-303" font-family="Helvetica,sans-Serif" font-size="10.00">+ bestWord</text>
<text text-anchor="start" x="428.488" y="-291" font-family="Helvetica,sans-Serif" font-size="10.00">+ bestWordScore</text>
<text text-anchor="start" x="428.488" y="-279" font-family="Helvetica,sans-Serif" font-size="10.00">+ heldTiles</text>
<text text-anchor="start" x="428.488" y="-267" font-family="Helvetica,sans-Serif" font-size="10.00">+ highScore</text>
<text text-anchor="start" x="428.488" y="-255" font-family="Helvetica,sans-Serif" font-size="10.00">+ inputEnabled</text>
<text text-anchor="start" x="428.488" y="-243" font-family="Helvetica,sans-Serif" font-size="10.00">+ lastPenalty</text>
<text text-anchor="start" x="428.488" y="-231" font-family="Helvetica,sans-Serif" font-size="10.00">+ lastResult</text>
<text text-anchor="start" x="428.488" y="-219" font-family="Helvetica,sans-Serif" font-size="10.00">+ lastWord</text>
<text text-anchor="start" x="428.488" y="-207" font-family="Helvetica,sans-Serif" font-size="10.00">+ lastWordScore</text>
<text text-anchor="start" x="428.488" y="-195" font-family="Helvetica,sans-Serif" font-size="10.00">+ maxTiles</text>
<text text-anchor="start" x="428.488" y="-183" font-family="Helvetica,sans-Serif" font-size="10.00">and 11 more...</text>
<polyline fill="none" stroke="black" points="420.488,-177 545.512,-177 "/>
<text text-anchor="start" x="428.488" y="-163" font-family="Helvetica,sans-Serif" font-size="10.00">+ ClearSelection()</text>
<text text-anchor="start" x="428.488" y="-151" font-family="Helvetica,sans-Serif" font-size="10.00">+ DeselectTile()</text>
<text text-anchor="start" x="428.488" y="-139" font-family="Helvetica,sans-Serif" font-size="10.00">+ Initialize()</text>
<text text-anchor="start" x="428.488" y="-127" font-family="Helvetica,sans-Serif" font-size="10.00">+ ResetAllData()</text>
<text text-anchor="start" x="428.488" y="-115" font-family="Helvetica,sans-Serif" font-size="10.00">+ ResetAllScores()</text>
<text text-anchor="start" x="428.488" y="-103" font-family="Helvetica,sans-Serif" font-size="10.00">+ ResetBestWord()</text>
<text text-anchor="start" x="428.488" y="-91" font-family="Helvetica,sans-Serif" font-size="10.00">+ ResetHighScore()</text>
<text text-anchor="start" x="428.488" y="-79" font-family="Helvetica,sans-Serif" font-size="10.00">+ ResetLastPenalty()</text>
<text text-anchor="start" x="428.488" y="-67" font-family="Helvetica,sans-Serif" font-size="10.00">+ ResetLastWord()</text>
<text text-anchor="start" x="428.488" y="-55" font-family="Helvetica,sans-Serif" font-size="10.00">+ ResetPreviousWords()</text>
<text text-anchor="start" x="428.488" y="-43" font-family="Helvetica,sans-Serif" font-size="10.00">and 6 more...</text>
<text text-anchor="start" x="428.488" y="-31" font-family="Helvetica,sans-Serif" font-size="10.00">+ FindPlayer()</text>
<text text-anchor="start" x="428.488" y="-19" font-family="Helvetica,sans-Serif" font-size="10.00">+ GetAllPlayers()</text>
</a>
</g>
<!-- Node1&#45;&gt;Node6 -->
<g id="edge10" class="edge"><title>Node1&#45;&gt;Node6</title>
<path fill="none" stroke="midnightblue" d="M1117.03,-502.608C948.496,-477.24 638.723,-422.187 555,-350 550.419,-346.051 546.125,-341.763 542.099,-337.208"/>
<polygon fill="none" stroke="midnightblue" points="1116.52,-506.071 1126.93,-504.088 1117.56,-499.148 1116.52,-506.071"/>
</g>
<!-- Node7 -->
<g id="node13" class="node"><title>Node7</title>
<a xlink:href="class_thinksquirrel_software_1_1_word_game_builder_1_1_tiles_1_1_daikon_forge_1_1_letter_tile_daikon_forge_control.html" target="_top" xlink:title="Adds Daikon Forge GUI display to a letter tile. ">
<polygon fill="none" stroke="black" points="563.597,-133 563.597,-217 710.403,-217 710.403,-133 563.597,-133"/>
<text text-anchor="middle" x="637" y="-203" font-family="Helvetica,sans-Serif" font-size="10.00">LetterTileDaikonForgeControl</text>
<polyline fill="none" stroke="black" points="563.597,-197 710.403,-197 "/>
<text text-anchor="start" x="571.597" y="-183" font-family="Helvetica,sans-Serif" font-size="10.00">+ controls</text>
<text text-anchor="start" x="571.597" y="-171" font-family="Helvetica,sans-Serif" font-size="10.00">+ letterLabel</text>
<text text-anchor="start" x="571.597" y="-159" font-family="Helvetica,sans-Serif" font-size="10.00">+ scoreLabel</text>
<polyline fill="none" stroke="black" points="563.597,-153 710.403,-153 "/>
<text text-anchor="middle" x="637" y="-139" font-family="Helvetica,sans-Serif" font-size="10.00"> </text>
</a>
</g>
<!-- Node1&#45;&gt;Node7 -->
<g id="edge12" class="edge"><title>Node1&#45;&gt;Node7</title>
<path fill="none" stroke="midnightblue" d="M1116.94,-506.704C1004.74,-489.982 832.366,-449.06 720,-350 680.207,-314.919 657.872,-256.578 646.631,-217.227"/>
<polygon fill="none" stroke="midnightblue" points="1116.53,-510.182 1126.93,-508.153 1117.53,-503.254 1116.53,-510.182"/>
</g>
<!-- Node8 -->
<g id="node15" class="node"><title>Node8</title>
<a xlink:href="class_thinksquirrel_software_1_1_word_game_builder_1_1_tiles_1_1_daikon_forge_1_1_letter_tile_daikon_forge_input.html" target="_top" xlink:title="Adds input control to a letter tile, using DF&#45;GUI&#39;s events. ">
<polygon fill="none" stroke="black" points="728.595,-145 728.595,-205 865.405,-205 865.405,-145 728.595,-145"/>
<text text-anchor="middle" x="797" y="-191" font-family="Helvetica,sans-Serif" font-size="10.00">LetterTileDaikonForgeInput</text>
<polyline fill="none" stroke="black" points="728.595,-185 865.405,-185 "/>
<text text-anchor="middle" x="797" y="-171" font-family="Helvetica,sans-Serif" font-size="10.00"> </text>
<polyline fill="none" stroke="black" points="728.595,-165 865.405,-165 "/>
<text text-anchor="middle" x="797" y="-151" font-family="Helvetica,sans-Serif" font-size="10.00"> </text>
</a>
</g>
<!-- Node1&#45;&gt;Node8 -->
<g id="edge14" class="edge"><title>Node1&#45;&gt;Node8</title>
<path fill="none" stroke="midnightblue" d="M1117.16,-487.944C1040.45,-462.235 940.566,-418.353 874,-350 833.782,-308.703 812.616,-242.859 803.215,-205.121"/>
<polygon fill="none" stroke="midnightblue" points="1116.28,-491.338 1126.87,-491.143 1118.47,-484.69 1116.28,-491.338"/>
</g>
<!-- Node9 -->
<g id="node17" class="node"><title>Node9</title>
<a xlink:href="class_thinksquirrel_software_1_1_word_game_builder_1_1_tiles_1_1_letter_tile.html" target="_top" xlink:title="A standard letter tile. Includes support for selection, wildcard tiles, multiple colors, input, and state querying. ">
<polygon fill="none" stroke="black" points="883.497,-25 883.497,-325 1016.5,-325 1016.5,-25 883.497,-25"/>
<text text-anchor="middle" x="950" y="-311" font-family="Helvetica,sans-Serif" font-size="10.00">LetterTile</text>
<polyline fill="none" stroke="black" points="883.497,-305 1016.5,-305 "/>
<text text-anchor="start" x="891.497" y="-291" font-family="Helvetica,sans-Serif" font-size="10.00">+ colorInfo</text>
<text text-anchor="start" x="891.497" y="-279" font-family="Helvetica,sans-Serif" font-size="10.00">+ currentBackgroundColor</text>
<text text-anchor="start" x="891.497" y="-267" font-family="Helvetica,sans-Serif" font-size="10.00">+ currentLetter</text>
<text text-anchor="start" x="891.497" y="-255" font-family="Helvetica,sans-Serif" font-size="10.00">+ currentLetterLabel</text>
<text text-anchor="start" x="891.497" y="-243" font-family="Helvetica,sans-Serif" font-size="10.00">+ currentPointValue</text>
<text text-anchor="start" x="891.497" y="-231" font-family="Helvetica,sans-Serif" font-size="10.00">+ currentScoreLabel</text>
<text text-anchor="start" x="891.497" y="-219" font-family="Helvetica,sans-Serif" font-size="10.00">+ currentTextColor</text>
<text text-anchor="start" x="891.497" y="-207" font-family="Helvetica,sans-Serif" font-size="10.00">+ defaultPointValue</text>
<text text-anchor="start" x="891.497" y="-195" font-family="Helvetica,sans-Serif" font-size="10.00">+ displayInfo</text>
<text text-anchor="start" x="891.497" y="-183" font-family="Helvetica,sans-Serif" font-size="10.00">+ isActive</text>
<text text-anchor="start" x="891.497" y="-171" font-family="Helvetica,sans-Serif" font-size="10.00">and 12 more...</text>
<polyline fill="none" stroke="black" points="883.497,-165 1016.5,-165 "/>
<text text-anchor="start" x="891.497" y="-151" font-family="Helvetica,sans-Serif" font-size="10.00">+ CanSelectTile()</text>
<text text-anchor="start" x="891.497" y="-139" font-family="Helvetica,sans-Serif" font-size="10.00">+ CanSelectTile()</text>
<text text-anchor="start" x="891.497" y="-127" font-family="Helvetica,sans-Serif" font-size="10.00">+ ChangeLetter()</text>
<text text-anchor="start" x="891.497" y="-115" font-family="Helvetica,sans-Serif" font-size="10.00">+ ChangeLetter()</text>
<text text-anchor="start" x="891.497" y="-103" font-family="Helvetica,sans-Serif" font-size="10.00">+ ChangeLetter()</text>
<text text-anchor="start" x="891.497" y="-91" font-family="Helvetica,sans-Serif" font-size="10.00">+ DeselectTile()</text>
<text text-anchor="start" x="891.497" y="-79" font-family="Helvetica,sans-Serif" font-size="10.00">+ DeselectTile()</text>
<text text-anchor="start" x="891.497" y="-67" font-family="Helvetica,sans-Serif" font-size="10.00">+ DespawnTile()</text>
<text text-anchor="start" x="891.497" y="-55" font-family="Helvetica,sans-Serif" font-size="10.00">+ ModifyTileSelection()</text>
<text text-anchor="start" x="891.497" y="-43" font-family="Helvetica,sans-Serif" font-size="10.00">+ RemoveWildcard()</text>
<text text-anchor="start" x="891.497" y="-31" font-family="Helvetica,sans-Serif" font-size="10.00">and 11 more...</text>
</a>
</g>
<!-- Node1&#45;&gt;Node9 -->
<g id="edge16" class="edge"><title>Node1&#45;&gt;Node9</title>
<path fill="none" stroke="midnightblue" d="M1118.93,-443.408C1085.66,-416.803 1051.04,-384.736 1025,-350 1019.18,-342.235 1013.71,-333.949 1008.57,-325.366"/>
<polygon fill="none" stroke="midnightblue" points="1116.89,-446.251 1126.9,-449.7 1121.22,-440.757 1116.89,-446.251"/>
</g>
<!-- Node10 -->
<g id="node19" class="node"><title>Node10</title>
<a xlink:href="class_thinksquirrel_software_1_1_word_game_builder_1_1_tiles_1_1_letter_tile_animation.html" target="_top" xlink:title="Adds animation to a letter tile. ">
<polygon fill="none" stroke="black" points="1034.44,-121 1034.44,-229 1153.56,-229 1153.56,-121 1034.44,-121"/>
<text text-anchor="middle" x="1094" y="-215" font-family="Helvetica,sans-Serif" font-size="10.00">LetterTileAnimation</text>
<polyline fill="none" stroke="black" points="1034.44,-209 1153.56,-209 "/>
<text text-anchor="start" x="1042.44" y="-195" font-family="Helvetica,sans-Serif" font-size="10.00">+ changeAnimationClip</text>
<text text-anchor="start" x="1042.44" y="-183" font-family="Helvetica,sans-Serif" font-size="10.00">+ disableAnimationClip</text>
<text text-anchor="start" x="1042.44" y="-171" font-family="Helvetica,sans-Serif" font-size="10.00">+ enableAnimationClip</text>
<text text-anchor="start" x="1042.44" y="-159" font-family="Helvetica,sans-Serif" font-size="10.00">+ spawnAnimationClip</text>
<text text-anchor="start" x="1042.44" y="-147" font-family="Helvetica,sans-Serif" font-size="10.00">+ tileAnimation</text>
<polyline fill="none" stroke="black" points="1034.44,-141 1153.56,-141 "/>
<text text-anchor="middle" x="1094" y="-127" font-family="Helvetica,sans-Serif" font-size="10.00"> </text>
</a>
</g>
<!-- Node1&#45;&gt;Node10 -->
<g id="edge18" class="edge"><title>Node1&#45;&gt;Node10</title>
<path fill="none" stroke="midnightblue" d="M1172.79,-377.527C1169.14,-368.212 1165.52,-358.972 1162,-350 1146.14,-309.535 1128.26,-263.758 1114.81,-229.317"/>
<polygon fill="none" stroke="midnightblue" points="1169.54,-378.829 1176.45,-386.86 1176.06,-376.273 1169.54,-378.829"/>
</g>
<!-- Node11 -->
<g id="node21" class="node"><title>Node11</title>
<a xlink:href="class_thinksquirrel_software_1_1_word_game_builder_1_1_tiles_1_1_letter_tile_color_control.html" target="_top" xlink:title="Automatically controls the color of objects based on a letter tile&#39;s state. ">
<polygon fill="none" stroke="black" points="1171.27,-133 1171.27,-217 1284.73,-217 1284.73,-133 1171.27,-133"/>
<text text-anchor="middle" x="1228" y="-203" font-family="Helvetica,sans-Serif" font-size="10.00">LetterTileColorControl</text>
<polyline fill="none" stroke="black" points="1171.27,-197 1284.73,-197 "/>
<text text-anchor="start" x="1179.27" y="-183" font-family="Helvetica,sans-Serif" font-size="10.00">+ background</text>
<text text-anchor="start" x="1179.27" y="-171" font-family="Helvetica,sans-Serif" font-size="10.00">+ colorProperties</text>
<text text-anchor="start" x="1179.27" y="-159" font-family="Helvetica,sans-Serif" font-size="10.00">+ text</text>
<polyline fill="none" stroke="black" points="1171.27,-153 1284.73,-153 "/>
<text text-anchor="middle" x="1228" y="-139" font-family="Helvetica,sans-Serif" font-size="10.00"> </text>
</a>
</g>
<!-- Node1&#45;&gt;Node11 -->
<g id="edge20" class="edge"><title>Node1&#45;&gt;Node11</title>
<path fill="none" stroke="midnightblue" d="M1228,-376.448C1228,-318.936 1228,-256.841 1228,-217.253"/>
<polygon fill="none" stroke="midnightblue" points="1224.5,-376.752 1228,-386.752 1231.5,-376.752 1224.5,-376.752"/>
</g>
<!-- Node12 -->
<g id="node23" class="node"><title>Node12</title>
<a xlink:href="class_thinksquirrel_software_1_1_word_game_builder_1_1_tiles_1_1_letter_tile_label_control.html" target="_top" xlink:title="Automatically controls the label of objects based on a letter tile&#39;s state. ">
<polygon fill="none" stroke="black" points="1302.99,-139 1302.99,-211 1417.01,-211 1417.01,-139 1302.99,-139"/>
<text text-anchor="middle" x="1360" y="-197" font-family="Helvetica,sans-Serif" font-size="10.00">LetterTileLabelControl</text>
<polyline fill="none" stroke="black" points="1302.99,-191 1417.01,-191 "/>
<text text-anchor="start" x="1310.99" y="-177" font-family="Helvetica,sans-Serif" font-size="10.00">+ letterLabel</text>
<text text-anchor="start" x="1310.99" y="-165" font-family="Helvetica,sans-Serif" font-size="10.00">+ scoreLabel</text>
<polyline fill="none" stroke="black" points="1302.99,-159 1417.01,-159 "/>
<text text-anchor="middle" x="1360" y="-145" font-family="Helvetica,sans-Serif" font-size="10.00"> </text>
</a>
</g>
<!-- Node1&#45;&gt;Node12 -->
<g id="edge22" class="edge"><title>Node1&#45;&gt;Node12</title>
<path fill="none" stroke="midnightblue" d="M1282.37,-377.527C1285.97,-368.212 1289.54,-358.972 1293,-350 1311.59,-301.833 1333.02,-246.142 1346.54,-211"/>
<polygon fill="none" stroke="midnightblue" points="1279.1,-376.27 1278.76,-386.859 1285.63,-378.793 1279.1,-376.27"/>
</g>
<!-- Node13 -->
<g id="node25" class="node"><title>Node13</title>
<a xlink:href="class_thinksquirrel_software_1_1_word_game_builder_1_1_tiles_1_1_letter_tile_mouse_input.html" target="_top" xlink:title="Adds input control to a letter tile, using Unity&#39;s OnMouse[...] methods. ">
<polygon fill="none" stroke="black" points="1435.21,-145 1435.21,-205 1544.79,-205 1544.79,-145 1435.21,-145"/>
<text text-anchor="middle" x="1490" y="-191" font-family="Helvetica,sans-Serif" font-size="10.00">LetterTileMouseInput</text>
<polyline fill="none" stroke="black" points="1435.21,-185 1544.79,-185 "/>
<text text-anchor="middle" x="1490" y="-171" font-family="Helvetica,sans-Serif" font-size="10.00"> </text>
<polyline fill="none" stroke="black" points="1435.21,-165 1544.79,-165 "/>
<text text-anchor="middle" x="1490" y="-151" font-family="Helvetica,sans-Serif" font-size="10.00"> </text>
</a>
</g>
<!-- Node1&#45;&gt;Node13 -->
<g id="edge24" class="edge"><title>Node1&#45;&gt;Node13</title>
<path fill="none" stroke="midnightblue" d="M1337.28,-442.298C1369.21,-416.012 1401.96,-384.409 1426,-350 1457.71,-304.617 1475.7,-241.671 1484.09,-205.249"/>
<polygon fill="none" stroke="midnightblue" points="1334.74,-439.848 1329.18,-448.865 1339.15,-445.284 1334.74,-439.848"/>
</g>
<!-- Node14 -->
<g id="node27" class="node"><title>Node14</title>
<a xlink:href="class_thinksquirrel_software_1_1_word_game_builder_1_1_tiles_1_1_letter_tile_visibility_control.html" target="_top" xlink:title="Automatically controls the visibility of objects based on a letter tile&#39;s state. ">
<polygon fill="none" stroke="black" points="1563.25,-145 1563.25,-205 1688.75,-205 1688.75,-145 1563.25,-145"/>
<text text-anchor="middle" x="1626" y="-191" font-family="Helvetica,sans-Serif" font-size="10.00">LetterTileVisibilityControl</text>
<polyline fill="none" stroke="black" points="1563.25,-185 1688.75,-185 "/>
<text text-anchor="start" x="1571.25" y="-171" font-family="Helvetica,sans-Serif" font-size="10.00">+ objects</text>
<polyline fill="none" stroke="black" points="1563.25,-165 1688.75,-165 "/>
<text text-anchor="middle" x="1626" y="-151" font-family="Helvetica,sans-Serif" font-size="10.00"> </text>
</a>
</g>
<!-- Node1&#45;&gt;Node14 -->
<g id="edge26" class="edge"><title>Node1&#45;&gt;Node14</title>
<path fill="none" stroke="midnightblue" d="M1339.09,-482.768C1408.38,-455.911 1495.08,-412.737 1553,-350 1591.66,-308.117 1611.49,-242.785 1620.23,-205.229"/>
<polygon fill="none" stroke="midnightblue" points="1337.53,-479.616 1329.43,-486.449 1340.02,-486.157 1337.53,-479.616"/>
</g>
<!-- Node15 -->
<g id="node29" class="node"><title>Node15</title>
<a xlink:href="class_thinksquirrel_software_1_1_word_game_builder_1_1_tiles_1_1_ngui_1_1_letter_tile_ngui_control.html" target="_top" xlink:title="Adds NGUI display to a letter tile. ">
<polygon fill="none" stroke="black" points="1706.94,-133 1706.94,-217 1817.06,-217 1817.06,-133 1706.94,-133"/>
<text text-anchor="middle" x="1762" y="-203" font-family="Helvetica,sans-Serif" font-size="10.00">LetterTileNguiControl</text>
<polyline fill="none" stroke="black" points="1706.94,-197 1817.06,-197 "/>
<text text-anchor="start" x="1714.94" y="-183" font-family="Helvetica,sans-Serif" font-size="10.00">+ letterLabel</text>
<text text-anchor="start" x="1714.94" y="-171" font-family="Helvetica,sans-Serif" font-size="10.00">+ scoreLabel</text>
<text text-anchor="start" x="1714.94" y="-159" font-family="Helvetica,sans-Serif" font-size="10.00">+ widgets</text>
<polyline fill="none" stroke="black" points="1706.94,-153 1817.06,-153 "/>
<text text-anchor="middle" x="1762" y="-139" font-family="Helvetica,sans-Serif" font-size="10.00"> </text>
</a>
</g>
<!-- Node1&#45;&gt;Node15 -->
<g id="edge28" class="edge"><title>Node1&#45;&gt;Node15</title>
<path fill="none" stroke="midnightblue" d="M1339.47,-505.07C1444.53,-487.297 1599.93,-445.768 1697,-350 1733.27,-314.217 1749.53,-256.324 1756.66,-217.243"/>
<polygon fill="none" stroke="midnightblue" points="1338.76,-501.639 1329.46,-506.717 1339.9,-508.547 1338.76,-501.639"/>
</g>
<!-- Node16 -->
<g id="node31" class="node"><title>Node16</title>
<a xlink:href="class_thinksquirrel_software_1_1_word_game_builder_1_1_tiles_1_1_ngui_1_1_letter_tile_ngui_input.html" target="_top" xlink:title="Adds input control to a letter tile, using NGUI&#39;s OnPress/OnHover/OnClick methods. ">
<polygon fill="none" stroke="black" points="1834.94,-145 1834.94,-205 1935.06,-205 1935.06,-145 1834.94,-145"/>
<text text-anchor="middle" x="1885" y="-191" font-family="Helvetica,sans-Serif" font-size="10.00">LetterTileNguiInput</text>
<polyline fill="none" stroke="black" points="1834.94,-185 1935.06,-185 "/>
<text text-anchor="middle" x="1885" y="-171" font-family="Helvetica,sans-Serif" font-size="10.00"> </text>
<polyline fill="none" stroke="black" points="1834.94,-165 1935.06,-165 "/>
<text text-anchor="middle" x="1885" y="-151" font-family="Helvetica,sans-Serif" font-size="10.00"> </text>
</a>
</g>
<!-- Node1&#45;&gt;Node16 -->
<g id="edge30" class="edge"><title>Node1&#45;&gt;Node16</title>
<path fill="none" stroke="midnightblue" d="M1339.35,-516.611C1472.11,-508.96 1692.73,-476.38 1826,-350 1866.74,-311.37 1879.35,-243.614 1883.25,-205.039"/>
<polygon fill="none" stroke="midnightblue" points="1338.95,-513.128 1329.15,-517.16 1339.33,-520.117 1338.95,-513.128"/>
</g>
<!-- Node17 -->
<g id="node33" class="node"><title>Node17</title>
<a xlink:href="class_thinksquirrel_software_1_1_word_game_builder_1_1_tiles_1_1_tk2_d_1_1_letter_tile_tk2_d_control.html" target="_top" xlink:title="Adds 2D Toolkit display to a letter tile. ">
<polygon fill="none" stroke="black" points="1953.28,-133 1953.28,-217 2066.72,-217 2066.72,-133 1953.28,-133"/>
<text text-anchor="middle" x="2010" y="-203" font-family="Helvetica,sans-Serif" font-size="10.00">LetterTileTk2DControl</text>
<polyline fill="none" stroke="black" points="1953.28,-197 2066.72,-197 "/>
<text text-anchor="start" x="1961.28" y="-183" font-family="Helvetica,sans-Serif" font-size="10.00">+ letterLabel</text>
<text text-anchor="start" x="1961.28" y="-171" font-family="Helvetica,sans-Serif" font-size="10.00">+ scoreLabel</text>
<text text-anchor="start" x="1961.28" y="-159" font-family="Helvetica,sans-Serif" font-size="10.00">+ sprites</text>
<polyline fill="none" stroke="black" points="1953.28,-153 2066.72,-153 "/>
<text text-anchor="middle" x="2010" y="-139" font-family="Helvetica,sans-Serif" font-size="10.00"> </text>
</a>
</g>
<!-- Node1&#45;&gt;Node17 -->
<g id="edge32" class="edge"><title>Node1&#45;&gt;Node17</title>
<path fill="none" stroke="midnightblue" d="M1339.25,-504.741C1517.13,-481.482 1854.67,-428.247 1944,-350 1982.76,-316.045 1998.84,-256.857 2005.46,-217.059"/>
<polygon fill="none" stroke="midnightblue" points="1338.54,-501.304 1329.07,-506.062 1339.44,-508.246 1338.54,-501.304"/>
</g>
<!-- Node18 -->
<g id="node35" class="node"><title>Node18</title>
<a xlink:href="class_thinksquirrel_software_1_1_word_game_builder_1_1_tiles_1_1_tk2_d_1_1_letter_tile_tk2_d_input.html" target="_top" xlink:title="Adds input control to a letter tile, using 2D Toolkit&#39;s UI events. ">
<polygon fill="none" stroke="black" points="2084.27,-145 2084.27,-205 2187.73,-205 2187.73,-145 2084.27,-145"/>
<text text-anchor="middle" x="2136" y="-191" font-family="Helvetica,sans-Serif" font-size="10.00">LetterTileTk2DInput</text>
<polyline fill="none" stroke="black" points="2084.27,-185 2187.73,-185 "/>
<text text-anchor="start" x="2092.27" y="-171" font-family="Helvetica,sans-Serif" font-size="10.00">+ uiItem</text>
<polyline fill="none" stroke="black" points="2084.27,-165 2187.73,-165 "/>
<text text-anchor="middle" x="2136" y="-151" font-family="Helvetica,sans-Serif" font-size="10.00"> </text>
</a>
</g>
<!-- Node1&#45;&gt;Node18 -->
<g id="edge34" class="edge"><title>Node1&#45;&gt;Node18</title>
<path fill="none" stroke="midnightblue" d="M1339.54,-509.472C1543.64,-491.726 1966.23,-444.387 2075,-350 2117.67,-312.971 2130.5,-244.291 2134.35,-205.206"/>
<polygon fill="none" stroke="midnightblue" points="1339.06,-506.001 1329.4,-510.345 1339.66,-512.975 1339.06,-506.001"/>
</g>
<!-- Node19 -->
<g id="node37" class="node"><title>Node19</title>
<a xlink:href="class_thinksquirrel_software_1_1_word_game_builder_example_1_1_example_game_logic.html" target="_top" xlink:title="This class is responsible for all game logic. ">
<polygon fill="none" stroke="black" points="2205.47,-127 2205.47,-223 2332.53,-223 2332.53,-127 2205.47,-127"/>
<text text-anchor="middle" x="2269" y="-209" font-family="Helvetica,sans-Serif" font-size="10.00">ExampleGameLogic</text>
<polyline fill="none" stroke="black" points="2205.47,-203 2332.53,-203 "/>
<text text-anchor="middle" x="2269" y="-189" font-family="Helvetica,sans-Serif" font-size="10.00"> </text>
<polyline fill="none" stroke="black" points="2205.47,-183 2332.53,-183 "/>
<text text-anchor="start" x="2213.47" y="-169" font-family="Helvetica,sans-Serif" font-size="10.00">+ OnAgentFindWords()</text>
<text text-anchor="start" x="2213.47" y="-157" font-family="Helvetica,sans-Serif" font-size="10.00">+ OnPlayerWordResult()</text>
<text text-anchor="start" x="2213.47" y="-145" font-family="Helvetica,sans-Serif" font-size="10.00">+ OnTileDistribution()</text>
<text text-anchor="start" x="2213.47" y="-133" font-family="Helvetica,sans-Serif" font-size="10.00">+ OnWildcardTileSelect()</text>
</a>
</g>
<!-- Node1&#45;&gt;Node19 -->
<g id="edge36" class="edge"><title>Node1&#45;&gt;Node19</title>
<path fill="none" stroke="midnightblue" d="M1339.39,-511.911C1564.85,-497.512 2064.94,-454.41 2196,-350 2235.07,-318.871 2253.5,-263.084 2262.01,-223.062"/>
<polygon fill="none" stroke="midnightblue" points="1338.95,-508.431 1329.19,-512.554 1339.4,-515.417 1338.95,-508.431"/>
</g>
<!-- Node2 -->
<g id="node2" class="node"><title>Node2</title>
<polygon fill="none" stroke="#bfbfbf" points="1184.98,-689 1184.98,-749 1271.02,-749 1271.02,-689 1184.98,-689"/>
<text text-anchor="middle" x="1228" y="-735" font-family="Helvetica,sans-Serif" font-size="10.00">MonoBehaviour</text>
<polyline fill="none" stroke="#bfbfbf" points="1184.98,-729 1271.02,-729 "/>
<text text-anchor="middle" x="1228" y="-715" font-family="Helvetica,sans-Serif" font-size="10.00"> </text>
<polyline fill="none" stroke="#bfbfbf" points="1184.98,-709 1271.02,-709 "/>
<text text-anchor="middle" x="1228" y="-695" font-family="Helvetica,sans-Serif" font-size="10.00"> </text>
</g>
<!-- Node2&#45;&gt;Node1 -->
<g id="edge2" class="edge"><title>Node2&#45;&gt;Node1</title>
<path fill="none" stroke="midnightblue" d="M1228,-678.646C1228,-670.228 1228,-660.893 1228,-651.087"/>
<polygon fill="none" stroke="midnightblue" points="1224.5,-678.784 1228,-688.784 1231.5,-678.784 1224.5,-678.784"/>
</g>
</g>
</svg>
