<?xml version="1.0" encoding="UTF-8" standalone="no"?>
<!DOCTYPE svg PUBLIC "-//W3C//DTD SVG 1.1//EN"
 "http://www.w3.org/Graphics/SVG/1.1/DTD/svg11.dtd">
<!-- Generated by graphviz version 2.28.0 (20121120.0402)
 -->
<!-- Title: Invoke Pages: 1 -->
<svg width="302pt" height="91pt"
 viewBox="0.00 0.00 302.00 91.00" xmlns="http://www.w3.org/2000/svg" xmlns:xlink="http://www.w3.org/1999/xlink">
<g id="graph1" class="graph" transform="scale(1 1) rotate(0) translate(4 87)">
<title>Invoke</title>
<!-- Node1 -->
<g id="node1" class="node"><title>Node1</title>
<polygon fill="#bfbfbf" stroke="black" points="0.268555,-37 0.268555,-57 45.7314,-57 45.7314,-37 0.268555,-37"/>
<text text-anchor="middle" x="23" y="-43" font-family="Helvetica,sans-Serif" font-size="10.00">Invoke</text>
</g>
<!-- Node2 -->
<g id="node3" class="node"><title>Node2</title>
<a xlink:href="class_thinksquirrel_software_1_1_word_game_builder_1_1_w_g_b_event.html#ae0a1971d24b447511741cc2c90595e3f" target="_top" xlink:title="Invokes the event directly. This will never run outside of play mode. ">
<polygon fill="none" stroke="black" points="165.269,-63 165.269,-83 210.731,-83 210.731,-63 165.269,-63"/>
<text text-anchor="middle" x="188" y="-69" font-family="Helvetica,sans-Serif" font-size="10.00">Invoke</text>
</a>
</g>
<!-- Node1&#45;&gt;Node2 -->
<g id="edge2" class="edge"><title>Node1&#45;&gt;Node2</title>
<path fill="none" stroke="midnightblue" d="M45.9829,-50.5065C74.0111,-54.9772 122.688,-62.7417 154.876,-67.8759"/>
<polygon fill="midnightblue" stroke="midnightblue" points="154.679,-71.3887 165.106,-69.5077 155.782,-64.4761 154.679,-71.3887"/>
</g>
<!-- Node3 -->
<g id="node5" class="node"><title>Node3</title>
<a xlink:href="interface_thinksquirrel_software_1_1_word_game_builder_1_1_object_model_1_1_i_mono_behaviour.html#a9fd98ad6edfbda23fd09f763596b8488" target="_top" xlink:title="Invokes the method methodName in time seconds. ">
<polygon fill="none" stroke="black" points="82.7197,-0 82.7197,-44 293.28,-44 293.28,-0 82.7197,-0"/>
<text text-anchor="start" x="90.7197" y="-30" font-family="Helvetica,sans-Serif" font-size="10.00">ThinksquirrelSoftware.Word</text>
<text text-anchor="start" x="90.7197" y="-18" font-family="Helvetica,sans-Serif" font-size="10.00">GameBuilder.ObjectModel.IMonoBehaviour.</text>
<text text-anchor="middle" x="188" y="-6" font-family="Helvetica,sans-Serif" font-size="10.00">Invoke</text>
</a>
</g>
<!-- Node1&#45;&gt;Node3 -->
<g id="edge4" class="edge"><title>Node1&#45;&gt;Node3</title>
<path fill="none" stroke="midnightblue" d="M45.9829,-43.6284C53.5431,-42.4689 62.6056,-41.0789 72.4417,-39.5703"/>
<polygon fill="midnightblue" stroke="midnightblue" points="73.1548,-43.0019 82.5086,-38.0263 72.0935,-36.0828 73.1548,-43.0019"/>
</g>
</g>
</svg>
