<?xml version="1.0" encoding="UTF-8" standalone="no"?>
<!DOCTYPE svg PUBLIC "-//W3C//DTD SVG 1.1//EN"
 "http://www.w3.org/Graphics/SVG/1.1/DTD/svg11.dtd">
<!-- Generated by graphviz version 2.28.0 (20121120.0402)
 -->
<!-- Title: LetterTileAnimation Pages: 1 -->
<svg width="210pt" height="518pt"
 viewBox="0.00 0.00 210.00 518.00" xmlns="http://www.w3.org/2000/svg" xmlns:xlink="http://www.w3.org/1999/xlink">
<g id="graph1" class="graph" transform="scale(1 1) rotate(0) translate(4 514)">
<title>LetterTileAnimation</title>
<!-- Node1 -->
<g id="node1" class="node"><title>Node1</title>
<polygon fill="#bfbfbf" stroke="black" points="41.4399,-1 41.4399,-109 160.56,-109 160.56,-1 41.4399,-1"/>
<text text-anchor="middle" x="101" y="-95" font-family="Helvetica,sans-Serif" font-size="10.00">LetterTileAnimation</text>
<polyline fill="none" stroke="black" points="41.4399,-89 160.56,-89 "/>
<text text-anchor="start" x="49.4399" y="-75" font-family="Helvetica,sans-Serif" font-size="10.00">+ changeAnimationClip</text>
<text text-anchor="start" x="49.4399" y="-63" font-family="Helvetica,sans-Serif" font-size="10.00">+ disableAnimationClip</text>
<text text-anchor="start" x="49.4399" y="-51" font-family="Helvetica,sans-Serif" font-size="10.00">+ enableAnimationClip</text>
<text text-anchor="start" x="49.4399" y="-39" font-family="Helvetica,sans-Serif" font-size="10.00">+ spawnAnimationClip</text>
<text text-anchor="start" x="49.4399" y="-27" font-family="Helvetica,sans-Serif" font-size="10.00">+ tileAnimation</text>
<polyline fill="none" stroke="black" points="41.4399,-21 160.56,-21 "/>
<text text-anchor="middle" x="101" y="-7" font-family="Helvetica,sans-Serif" font-size="10.00"> </text>
</g>
<!-- Node2 -->
<g id="node2" class="node"><title>Node2</title>
<a xlink:href="class_thinksquirrel_1_1_word_game_builder_1_1_w_g_b_base.html" target="_top" xlink:title="The base class for all Word Game Builder components. ">
<polygon fill="none" stroke="black" points="-0.0541992,-147 -0.0541992,-411 202.054,-411 202.054,-147 -0.0541992,-147"/>
<text text-anchor="middle" x="101" y="-397" font-family="Helvetica,sans-Serif" font-size="10.00">WGBBase</text>
<polyline fill="none" stroke="black" points="-0.0541992,-391 202.054,-391 "/>
<text text-anchor="start" x="7.9458" y="-377" font-family="Helvetica,sans-Serif" font-size="10.00">+ userData</text>
<polyline fill="none" stroke="black" points="-0.0541992,-371 202.054,-371 "/>
<text text-anchor="start" x="7.9458" y="-357" font-family="Helvetica,sans-Serif" font-size="10.00">+ GetComponentFromInterface&lt; T &gt;()</text>
<text text-anchor="start" x="7.9458" y="-345" font-family="Helvetica,sans-Serif" font-size="10.00">+ GetComponentInChildrenFrom</text>
<text text-anchor="start" x="7.9458" y="-333" font-family="Helvetica,sans-Serif" font-size="10.00">Interface&lt; T &gt;()</text>
<text text-anchor="start" x="7.9458" y="-321" font-family="Helvetica,sans-Serif" font-size="10.00">+ GetComponentsFromInterface&lt; T &gt;()</text>
<text text-anchor="start" x="7.9458" y="-309" font-family="Helvetica,sans-Serif" font-size="10.00">+ GetComponentsInChildrenFrom</text>
<text text-anchor="start" x="7.9458" y="-297" font-family="Helvetica,sans-Serif" font-size="10.00">Interface&lt; T &gt;()</text>
<text text-anchor="start" x="7.9458" y="-285" font-family="Helvetica,sans-Serif" font-size="10.00">+ FindObjectOfTypeFromInterface&lt; T &gt;()</text>
<text text-anchor="start" x="7.9458" y="-273" font-family="Helvetica,sans-Serif" font-size="10.00">+ FindObjectsOfTypeFromInterface&lt; T &gt;()</text>
<text text-anchor="start" x="7.9458" y="-261" font-family="Helvetica,sans-Serif" font-size="10.00">+ InstantiateFromInterface&lt; T &gt;()</text>
<text text-anchor="start" x="7.9458" y="-249" font-family="Helvetica,sans-Serif" font-size="10.00">+ InstantiateFromInterface&lt; T &gt;()</text>
<text text-anchor="start" x="7.9458" y="-237" font-family="Helvetica,sans-Serif" font-size="10.00">+ Log()</text>
<text text-anchor="start" x="7.9458" y="-225" font-family="Helvetica,sans-Serif" font-size="10.00">+ Log()</text>
<text text-anchor="start" x="7.9458" y="-213" font-family="Helvetica,sans-Serif" font-size="10.00">+ LogError()</text>
<text text-anchor="start" x="7.9458" y="-201" font-family="Helvetica,sans-Serif" font-size="10.00">+ LogError()</text>
<text text-anchor="start" x="7.9458" y="-189" font-family="Helvetica,sans-Serif" font-size="10.00">+ LogException()</text>
<text text-anchor="start" x="7.9458" y="-177" font-family="Helvetica,sans-Serif" font-size="10.00">+ LogException()</text>
<text text-anchor="start" x="7.9458" y="-165" font-family="Helvetica,sans-Serif" font-size="10.00">+ LogWarning()</text>
<text text-anchor="start" x="7.9458" y="-153" font-family="Helvetica,sans-Serif" font-size="10.00">+ LogWarning()</text>
</a>
</g>
<!-- Node2&#45;&gt;Node1 -->
<g id="edge2" class="edge"><title>Node2&#45;&gt;Node1</title>
<path fill="none" stroke="midnightblue" d="M101,-136.862C101,-127.294 101,-118.05 101,-109.444"/>
<polygon fill="none" stroke="midnightblue" points="97.5001,-136.936 101,-146.936 104.5,-136.936 97.5001,-136.936"/>
</g>
<!-- Node3 -->
<g id="node4" class="node"><title>Node3</title>
<polygon fill="none" stroke="#bfbfbf" points="57.978,-449 57.978,-509 144.022,-509 144.022,-449 57.978,-449"/>
<text text-anchor="middle" x="101" y="-495" font-family="Helvetica,sans-Serif" font-size="10.00">MonoBehaviour</text>
<polyline fill="none" stroke="#bfbfbf" points="57.978,-489 144.022,-489 "/>
<text text-anchor="middle" x="101" y="-475" font-family="Helvetica,sans-Serif" font-size="10.00"> </text>
<polyline fill="none" stroke="#bfbfbf" points="57.978,-469 144.022,-469 "/>
<text text-anchor="middle" x="101" y="-455" font-family="Helvetica,sans-Serif" font-size="10.00"> </text>
</g>
<!-- Node3&#45;&gt;Node2 -->
<g id="edge4" class="edge"><title>Node3&#45;&gt;Node2</title>
<path fill="none" stroke="midnightblue" d="M101,-438.646C101,-430.228 101,-420.893 101,-411.087"/>
<polygon fill="none" stroke="midnightblue" points="97.5001,-438.784 101,-448.784 104.5,-438.784 97.5001,-438.784"/>
</g>
</g>
</svg>
