<?xml version="1.0" encoding="UTF-8" standalone="no"?>
<!DOCTYPE svg PUBLIC "-//W3C//DTD SVG 1.1//EN"
 "http://www.w3.org/Graphics/SVG/1.1/DTD/svg11.dtd">
<!-- Generated by graphviz version 2.34.0 (20130907.0111)
 -->
<!-- Title: ExampleView Pages: 1 -->
<svg width="90pt" height="160pt"
 viewBox="0.00 0.00 90.00 160.00" xmlns="http://www.w3.org/2000/svg" xmlns:xlink="http://www.w3.org/1999/xlink">
<g id="graph0" class="graph" transform="scale(1 1) rotate(0) translate(4 156)">
<title>ExampleView</title>
<!-- Node1 -->
<g id="node1" class="node"><title>Node1</title>
<polygon fill="#bfbfbf" stroke="black" points="3,-0.5 3,-57.5 79,-57.5 79,-0.5 3,-0.5"/>
<text text-anchor="middle" x="41" y="-45.5" font-family="Helvetica,sans-Serif" font-size="10.00">ExampleView</text>
<polyline fill="none" stroke="black" points="3,-38.5 79,-38.5 "/>
<text text-anchor="middle" x="41" y="-26.5" font-family="Helvetica,sans-Serif" font-size="10.00"> </text>
<polyline fill="none" stroke="black" points="3,-19.5 79,-19.5 "/>
<text text-anchor="middle" x="41" y="-7.5" font-family="Helvetica,sans-Serif" font-size="10.00"> </text>
</g>
<!-- Node2 -->
<g id="node2" class="node"><title>Node2</title>
<polygon fill="none" stroke="#bfbfbf" points="-0.5,-94.5 -0.5,-151.5 82.5,-151.5 82.5,-94.5 -0.5,-94.5"/>
<text text-anchor="middle" x="41" y="-139.5" font-family="Helvetica,sans-Serif" font-size="10.00">MonoBehaviour</text>
<polyline fill="none" stroke="#bfbfbf" points="-0.5,-132.5 82.5,-132.5 "/>
<text text-anchor="middle" x="41" y="-120.5" font-family="Helvetica,sans-Serif" font-size="10.00"> </text>
<polyline fill="none" stroke="#bfbfbf" points="-0.5,-113.5 82.5,-113.5 "/>
<text text-anchor="middle" x="41" y="-101.5" font-family="Helvetica,sans-Serif" font-size="10.00"> </text>
</g>
<!-- Node2&#45;&gt;Node1 -->
<g id="edge1" class="edge"><title>Node2&#45;&gt;Node1</title>
<path fill="none" stroke="midnightblue" d="M41,-84.2092C41,-75.2929 41,-65.9513 41,-57.5836"/>
<polygon fill="none" stroke="midnightblue" points="37.5001,-84.3969 41,-94.397 44.5001,-84.397 37.5001,-84.3969"/>
</g>
</g>
</svg>
