<?xml version="1.0" encoding="UTF-8" standalone="no"?>
<!DOCTYPE svg PUBLIC "-//W3C//DTD SVG 1.1//EN"
 "http://www.w3.org/Graphics/SVG/1.1/DTD/svg11.dtd">
<!-- Generated by graphviz version 2.34.0 (20130907.0111)
 -->
<!-- Title: LetterTile Pages: 1 -->
<svg width="621pt" height="1086pt"
 viewBox="0.00 0.00 621.00 1086.00" xmlns="http://www.w3.org/2000/svg" xmlns:xlink="http://www.w3.org/1999/xlink">
<g id="graph0" class="graph" transform="scale(1 1) rotate(0) translate(4 1082)">
<title>LetterTile</title>
<!-- Node1 -->
<g id="node1" class="node"><title>Node1</title>
<polygon fill="#bfbfbf" stroke="black" points="275,-0.5 275,-277.5 405,-277.5 405,-0.5 275,-0.5"/>
<text text-anchor="middle" x="340" y="-265.5" font-family="Helvetica,sans-Serif" font-size="10.00">LetterTile</text>
<polyline fill="none" stroke="black" points="275,-258.5 405,-258.5 "/>
<text text-anchor="start" x="283" y="-246.5" font-family="Helvetica,sans-Serif" font-size="10.00">+ colorInfo</text>
<text text-anchor="start" x="283" y="-235.5" font-family="Helvetica,sans-Serif" font-size="10.00">+ currentBackgroundColor</text>
<text text-anchor="start" x="283" y="-224.5" font-family="Helvetica,sans-Serif" font-size="10.00">+ currentLetter</text>
<text text-anchor="start" x="283" y="-213.5" font-family="Helvetica,sans-Serif" font-size="10.00">+ currentLetterLabel</text>
<text text-anchor="start" x="283" y="-202.5" font-family="Helvetica,sans-Serif" font-size="10.00">+ currentPointValue</text>
<text text-anchor="start" x="283" y="-191.5" font-family="Helvetica,sans-Serif" font-size="10.00">+ currentScoreLabel</text>
<text text-anchor="start" x="283" y="-180.5" font-family="Helvetica,sans-Serif" font-size="10.00">+ currentTextColor</text>
<text text-anchor="start" x="283" y="-169.5" font-family="Helvetica,sans-Serif" font-size="10.00">+ defaultPointValue</text>
<text text-anchor="start" x="283" y="-158.5" font-family="Helvetica,sans-Serif" font-size="10.00">+ displayInfo</text>
<text text-anchor="start" x="283" y="-147.5" font-family="Helvetica,sans-Serif" font-size="10.00">+ isActive</text>
<text text-anchor="start" x="283" y="-136.5" font-family="Helvetica,sans-Serif" font-size="10.00">and 12 more...</text>
<polyline fill="none" stroke="black" points="275,-129.5 405,-129.5 "/>
<text text-anchor="start" x="283" y="-117.5" font-family="Helvetica,sans-Serif" font-size="10.00">+ CanSelectTile()</text>
<text text-anchor="start" x="283" y="-106.5" font-family="Helvetica,sans-Serif" font-size="10.00">+ CanSelectTile()</text>
<text text-anchor="start" x="283" y="-95.5" font-family="Helvetica,sans-Serif" font-size="10.00">+ ChangeLetter()</text>
<text text-anchor="start" x="283" y="-84.5" font-family="Helvetica,sans-Serif" font-size="10.00">+ ChangeLetter()</text>
<text text-anchor="start" x="283" y="-73.5" font-family="Helvetica,sans-Serif" font-size="10.00">+ ChangeLetter()</text>
<text text-anchor="start" x="283" y="-62.5" font-family="Helvetica,sans-Serif" font-size="10.00">+ DeselectTile()</text>
<text text-anchor="start" x="283" y="-51.5" font-family="Helvetica,sans-Serif" font-size="10.00">+ DeselectTile()</text>
<text text-anchor="start" x="283" y="-40.5" font-family="Helvetica,sans-Serif" font-size="10.00">+ DespawnTile()</text>
<text text-anchor="start" x="283" y="-29.5" font-family="Helvetica,sans-Serif" font-size="10.00">+ ModifyTileSelection()</text>
<text text-anchor="start" x="283" y="-18.5" font-family="Helvetica,sans-Serif" font-size="10.00">+ RemoveWildcard()</text>
<text text-anchor="start" x="283" y="-7.5" font-family="Helvetica,sans-Serif" font-size="10.00">and 11 more...</text>
</g>
<!-- Node2 -->
<g id="node2" class="node"><title>Node2</title>
<g id="a_node2"><a xlink:href="class_thinksquirrel_software_1_1_word_game_builder_1_1_w_g_b_base.html" target="_top" xlink:title="The base class for all Word Game Builder components. ">
<polygon fill="none" stroke="black" points="-0.5,-315 -0.5,-559 196.5,-559 196.5,-315 -0.5,-315"/>
<text text-anchor="middle" x="98" y="-547" font-family="Helvetica,sans-Serif" font-size="10.00">WGBBase</text>
<polyline fill="none" stroke="black" points="-0.5,-540 196.5,-540 "/>
<text text-anchor="start" x="7.5" y="-528" font-family="Helvetica,sans-Serif" font-size="10.00">+ userData</text>
<polyline fill="none" stroke="black" points="-0.5,-521 196.5,-521 "/>
<text text-anchor="start" x="7.5" y="-509" font-family="Helvetica,sans-Serif" font-size="10.00">+ GetComponentFromInterface&lt; T &gt;()</text>
<text text-anchor="start" x="7.5" y="-498" font-family="Helvetica,sans-Serif" font-size="10.00">+ GetComponentInChildrenFrom</text>
<text text-anchor="start" x="7.5" y="-487" font-family="Helvetica,sans-Serif" font-size="10.00">Interface&lt; T &gt;()</text>
<text text-anchor="start" x="7.5" y="-476" font-family="Helvetica,sans-Serif" font-size="10.00">+ GetComponentsFromInterface&lt; T &gt;()</text>
<text text-anchor="start" x="7.5" y="-465" font-family="Helvetica,sans-Serif" font-size="10.00">+ GetComponentsInChildrenFrom</text>
<text text-anchor="start" x="7.5" y="-454" font-family="Helvetica,sans-Serif" font-size="10.00">Interface&lt; T &gt;()</text>
<text text-anchor="start" x="7.5" y="-443" font-family="Helvetica,sans-Serif" font-size="10.00">+ FindObjectOfTypeFromInterface&lt; T &gt;()</text>
<text text-anchor="start" x="7.5" y="-432" font-family="Helvetica,sans-Serif" font-size="10.00">+ FindObjectsOfTypeFromInterface&lt; T &gt;()</text>
<text text-anchor="start" x="7.5" y="-421" font-family="Helvetica,sans-Serif" font-size="10.00">+ InstantiateFromInterface&lt; T &gt;()</text>
<text text-anchor="start" x="7.5" y="-410" font-family="Helvetica,sans-Serif" font-size="10.00">+ InstantiateFromInterface&lt; T &gt;()</text>
<text text-anchor="start" x="7.5" y="-399" font-family="Helvetica,sans-Serif" font-size="10.00">+ Log()</text>
<text text-anchor="start" x="7.5" y="-388" font-family="Helvetica,sans-Serif" font-size="10.00">+ Log()</text>
<text text-anchor="start" x="7.5" y="-377" font-family="Helvetica,sans-Serif" font-size="10.00">+ LogError()</text>
<text text-anchor="start" x="7.5" y="-366" font-family="Helvetica,sans-Serif" font-size="10.00">+ LogError()</text>
<text text-anchor="start" x="7.5" y="-355" font-family="Helvetica,sans-Serif" font-size="10.00">+ LogException()</text>
<text text-anchor="start" x="7.5" y="-344" font-family="Helvetica,sans-Serif" font-size="10.00">+ LogException()</text>
<text text-anchor="start" x="7.5" y="-333" font-family="Helvetica,sans-Serif" font-size="10.00">+ LogWarning()</text>
<text text-anchor="start" x="7.5" y="-322" font-family="Helvetica,sans-Serif" font-size="10.00">+ LogWarning()</text>
</a>
</g>
</g>
<!-- Node2&#45;&gt;Node1 -->
<g id="edge1" class="edge"><title>Node2&#45;&gt;Node1</title>
<path fill="none" stroke="midnightblue" d="M203.271,-307.239C227.571,-277.516 252.733,-246.74 274.745,-219.816"/>
<polygon fill="none" stroke="midnightblue" points="200.4,-305.221 196.78,-315.179 205.819,-309.652 200.4,-305.221"/>
</g>
<!-- Node3 -->
<g id="node3" class="node"><title>Node3</title>
<polygon fill="none" stroke="#bfbfbf" points="56.5,-662.5 56.5,-719.5 139.5,-719.5 139.5,-662.5 56.5,-662.5"/>
<text text-anchor="middle" x="98" y="-707.5" font-family="Helvetica,sans-Serif" font-size="10.00">MonoBehaviour</text>
<polyline fill="none" stroke="#bfbfbf" points="56.5,-700.5 139.5,-700.5 "/>
<text text-anchor="middle" x="98" y="-688.5" font-family="Helvetica,sans-Serif" font-size="10.00"> </text>
<polyline fill="none" stroke="#bfbfbf" points="56.5,-681.5 139.5,-681.5 "/>
<text text-anchor="middle" x="98" y="-669.5" font-family="Helvetica,sans-Serif" font-size="10.00"> </text>
</g>
<!-- Node3&#45;&gt;Node2 -->
<g id="edge2" class="edge"><title>Node3&#45;&gt;Node2</title>
<path fill="none" stroke="midnightblue" d="M98,-651.958C98,-626.988 98,-592.821 98,-559.12"/>
<polygon fill="none" stroke="midnightblue" points="94.5001,-652.069 98,-662.069 101.5,-652.069 94.5001,-652.069"/>
</g>
<!-- Node4 -->
<g id="node4" class="node"><title>Node4</title>
<g id="a_node4"><a xlink:href="interface_thinksquirrel_software_1_1_word_game_builder_1_1_object_model_1_1_i_selectable_letter_tile.html" target="_top" xlink:title="An interface defining a letter tile that can be selected and deselected. Implementations must derive ...">
<polygon fill="none" stroke="black" points="215,-364.5 215,-509.5 331,-509.5 331,-364.5 215,-364.5"/>
<text text-anchor="middle" x="273" y="-497.5" font-family="Helvetica,sans-Serif" font-size="10.00">ISelectableLetterTile</text>
<polyline fill="none" stroke="black" points="215,-490.5 331,-490.5 "/>
<text text-anchor="start" x="223" y="-478.5" font-family="Helvetica,sans-Serif" font-size="10.00">+ isSelected</text>
<polyline fill="none" stroke="black" points="215,-471.5 331,-471.5 "/>
<text text-anchor="start" x="223" y="-459.5" font-family="Helvetica,sans-Serif" font-size="10.00">+ CanSelectTile()</text>
<text text-anchor="start" x="223" y="-448.5" font-family="Helvetica,sans-Serif" font-size="10.00">+ CanSelectTile()</text>
<text text-anchor="start" x="223" y="-437.5" font-family="Helvetica,sans-Serif" font-size="10.00">+ DeselectTile()</text>
<text text-anchor="start" x="223" y="-426.5" font-family="Helvetica,sans-Serif" font-size="10.00">+ DeselectTile()</text>
<text text-anchor="start" x="223" y="-415.5" font-family="Helvetica,sans-Serif" font-size="10.00">+ ForceDeselectTile()</text>
<text text-anchor="start" x="223" y="-404.5" font-family="Helvetica,sans-Serif" font-size="10.00">+ ForceSelectTile()</text>
<text text-anchor="start" x="223" y="-393.5" font-family="Helvetica,sans-Serif" font-size="10.00">+ ModifyTileSelection()</text>
<text text-anchor="start" x="223" y="-382.5" font-family="Helvetica,sans-Serif" font-size="10.00">+ SelectTile()</text>
<text text-anchor="start" x="223" y="-371.5" font-family="Helvetica,sans-Serif" font-size="10.00">+ SelectTile()</text>
</a>
</g>
</g>
<!-- Node4&#45;&gt;Node1 -->
<g id="edge3" class="edge"><title>Node4&#45;&gt;Node1</title>
<path fill="none" stroke="midnightblue" d="M291.485,-354.334C296.872,-330.536 302.912,-303.853 308.852,-277.608"/>
<polygon fill="none" stroke="midnightblue" points="288.013,-353.821 289.219,-364.347 294.84,-355.366 288.013,-353.821"/>
</g>
<!-- Node5 -->
<g id="node5" class="node"><title>Node5</title>
<g id="a_node5"><a xlink:href="interface_thinksquirrel_software_1_1_word_game_builder_1_1_object_model_1_1_i_letter_tile.html" target="_top" xlink:title="An interface defining a letter tile. Implementations must derive from MonoBehaviour in some form...">
<polygon fill="none" stroke="black" points="355,-596.5 355,-785.5 459,-785.5 459,-596.5 355,-596.5"/>
<text text-anchor="middle" x="407" y="-773.5" font-family="Helvetica,sans-Serif" font-size="10.00">ILetterTile</text>
<polyline fill="none" stroke="black" points="355,-766.5 459,-766.5 "/>
<text text-anchor="start" x="363" y="-754.5" font-family="Helvetica,sans-Serif" font-size="10.00">+ currentLetter</text>
<text text-anchor="start" x="363" y="-743.5" font-family="Helvetica,sans-Serif" font-size="10.00">+ currentPointValue</text>
<text text-anchor="start" x="363" y="-732.5" font-family="Helvetica,sans-Serif" font-size="10.00">+ defaultPointValue</text>
<text text-anchor="start" x="363" y="-721.5" font-family="Helvetica,sans-Serif" font-size="10.00">+ isActive</text>
<text text-anchor="start" x="363" y="-710.5" font-family="Helvetica,sans-Serif" font-size="10.00">+ letter</text>
<text text-anchor="start" x="363" y="-699.5" font-family="Helvetica,sans-Serif" font-size="10.00">+ onTileChange</text>
<text text-anchor="start" x="363" y="-688.5" font-family="Helvetica,sans-Serif" font-size="10.00">+ onTileSpawn</text>
<text text-anchor="start" x="363" y="-677.5" font-family="Helvetica,sans-Serif" font-size="10.00">+ wildcardLetter</text>
<polyline fill="none" stroke="black" points="355,-670.5 459,-670.5 "/>
<text text-anchor="start" x="363" y="-658.5" font-family="Helvetica,sans-Serif" font-size="10.00">+ ChangeLetter()</text>
<text text-anchor="start" x="363" y="-647.5" font-family="Helvetica,sans-Serif" font-size="10.00">+ DespawnTile()</text>
<text text-anchor="start" x="363" y="-636.5" font-family="Helvetica,sans-Serif" font-size="10.00">+ RemoveWildcard()</text>
<text text-anchor="start" x="363" y="-625.5" font-family="Helvetica,sans-Serif" font-size="10.00">+ SetWildcard()</text>
<text text-anchor="start" x="363" y="-614.5" font-family="Helvetica,sans-Serif" font-size="10.00">+ SetWildcard()</text>
<text text-anchor="start" x="363" y="-603.5" font-family="Helvetica,sans-Serif" font-size="10.00">+ SpawnTile()</text>
</a>
</g>
</g>
<!-- Node5&#45;&gt;Node4 -->
<g id="edge4" class="edge"><title>Node5&#45;&gt;Node4</title>
<path fill="none" stroke="midnightblue" d="M352.263,-587.061C338.481,-561.143 323.983,-533.878 311.208,-509.855"/>
<polygon fill="none" stroke="midnightblue" points="349.318,-588.978 357.103,-596.165 355.499,-585.692 349.318,-588.978"/>
</g>
<!-- Node7 -->
<g id="node7" class="node"><title>Node7</title>
<g id="a_node7"><a xlink:href="interface_thinksquirrel_software_1_1_word_game_builder_1_1_object_model_1_1_i_letter_tile_input.html" target="_top" xlink:title="An interface defining letter tile input events. ">
<polygon fill="none" stroke="black" points="349,-397.5 349,-476.5 465,-476.5 465,-397.5 349,-397.5"/>
<text text-anchor="middle" x="407" y="-464.5" font-family="Helvetica,sans-Serif" font-size="10.00">ILetterTileInput</text>
<polyline fill="none" stroke="black" points="349,-457.5 465,-457.5 "/>
<text text-anchor="middle" x="407" y="-445.5" font-family="Helvetica,sans-Serif" font-size="10.00"> </text>
<polyline fill="none" stroke="black" points="349,-438.5 465,-438.5 "/>
<text text-anchor="start" x="357" y="-426.5" font-family="Helvetica,sans-Serif" font-size="10.00">+ SimulateClickInput()</text>
<text text-anchor="start" x="357" y="-415.5" font-family="Helvetica,sans-Serif" font-size="10.00">+ SimulateHoverInput()</text>
<text text-anchor="start" x="357" y="-404.5" font-family="Helvetica,sans-Serif" font-size="10.00">+ SimulatePressInput()</text>
</a>
</g>
</g>
<!-- Node5&#45;&gt;Node7 -->
<g id="edge7" class="edge"><title>Node5&#45;&gt;Node7</title>
<path fill="none" stroke="midnightblue" d="M407,-585.882C407,-547.231 407,-505.746 407,-476.582"/>
<polygon fill="none" stroke="midnightblue" points="403.5,-586.164 407,-596.165 410.5,-586.165 403.5,-586.164"/>
</g>
<!-- Node8 -->
<g id="node8" class="node"><title>Node8</title>
<g id="a_node8"><a xlink:href="interface_thinksquirrel_software_1_1_word_game_builder_1_1_object_model_1_1_i_letter_tile_display.html" target="_top" xlink:title="An interface defining letter tile colors and labels. ">
<polygon fill="none" stroke="black" points="483,-392 483,-482 613,-482 613,-392 483,-392"/>
<text text-anchor="middle" x="548" y="-470" font-family="Helvetica,sans-Serif" font-size="10.00">ILetterTileDisplay</text>
<polyline fill="none" stroke="black" points="483,-463 613,-463 "/>
<text text-anchor="start" x="491" y="-451" font-family="Helvetica,sans-Serif" font-size="10.00">+ currentBackgroundColor</text>
<text text-anchor="start" x="491" y="-440" font-family="Helvetica,sans-Serif" font-size="10.00">+ currentLetterLabel</text>
<text text-anchor="start" x="491" y="-429" font-family="Helvetica,sans-Serif" font-size="10.00">+ currentScoreLabel</text>
<text text-anchor="start" x="491" y="-418" font-family="Helvetica,sans-Serif" font-size="10.00">+ currentTextColor</text>
<polyline fill="none" stroke="black" points="483,-411 613,-411 "/>
<text text-anchor="middle" x="548" y="-399" font-family="Helvetica,sans-Serif" font-size="10.00"> </text>
</a>
</g>
</g>
<!-- Node5&#45;&gt;Node8 -->
<g id="edge9" class="edge"><title>Node5&#45;&gt;Node8</title>
<path fill="none" stroke="midnightblue" d="M464.032,-588.071C484.671,-551.183 506.911,-511.436 523.314,-482.12"/>
<polygon fill="none" stroke="midnightblue" points="460.931,-586.445 459.103,-596.88 467.04,-589.863 460.931,-586.445"/>
</g>
<!-- Node6 -->
<g id="node6" class="node"><title>Node6</title>
<g id="a_node6"><a xlink:href="interface_thinksquirrel_software_1_1_word_game_builder_1_1_object_model_1_1_i_mono_behaviour.html" target="_top" xlink:title="An interface representation of a MonoBehaviour. ">
<polygon fill="none" stroke="black" points="352,-822.5 352,-1077.5 462,-1077.5 462,-822.5 352,-822.5"/>
<text text-anchor="middle" x="407" y="-1065.5" font-family="Helvetica,sans-Serif" font-size="10.00">IMonoBehaviour</text>
<polyline fill="none" stroke="black" points="352,-1058.5 462,-1058.5 "/>
<text text-anchor="start" x="360" y="-1046.5" font-family="Helvetica,sans-Serif" font-size="10.00">+ enabled</text>
<text text-anchor="start" x="360" y="-1035.5" font-family="Helvetica,sans-Serif" font-size="10.00">+ gameObject</text>
<text text-anchor="start" x="360" y="-1024.5" font-family="Helvetica,sans-Serif" font-size="10.00">+ hideFlags</text>
<text text-anchor="start" x="360" y="-1013.5" font-family="Helvetica,sans-Serif" font-size="10.00">+ name</text>
<text text-anchor="start" x="360" y="-1002.5" font-family="Helvetica,sans-Serif" font-size="10.00">+ tag</text>
<text text-anchor="start" x="360" y="-991.5" font-family="Helvetica,sans-Serif" font-size="10.00">+ transform</text>
<text text-anchor="start" x="360" y="-980.5" font-family="Helvetica,sans-Serif" font-size="10.00">+ userData</text>
<polyline fill="none" stroke="black" points="352,-973.5 462,-973.5 "/>
<text text-anchor="start" x="360" y="-961.5" font-family="Helvetica,sans-Serif" font-size="10.00">+ CancelInvoke()</text>
<text text-anchor="start" x="360" y="-950.5" font-family="Helvetica,sans-Serif" font-size="10.00">+ CancelInvoke()</text>
<text text-anchor="start" x="360" y="-939.5" font-family="Helvetica,sans-Serif" font-size="10.00">+ GetInstanceID()</text>
<text text-anchor="start" x="360" y="-928.5" font-family="Helvetica,sans-Serif" font-size="10.00">+ Invoke()</text>
<text text-anchor="start" x="360" y="-917.5" font-family="Helvetica,sans-Serif" font-size="10.00">+ InvokeRepeating()</text>
<text text-anchor="start" x="360" y="-906.5" font-family="Helvetica,sans-Serif" font-size="10.00">+ IsInvoking()</text>
<text text-anchor="start" x="360" y="-895.5" font-family="Helvetica,sans-Serif" font-size="10.00">+ IsInvoking()</text>
<text text-anchor="start" x="360" y="-884.5" font-family="Helvetica,sans-Serif" font-size="10.00">+ StartCoroutine()</text>
<text text-anchor="start" x="360" y="-873.5" font-family="Helvetica,sans-Serif" font-size="10.00">+ StartCoroutine()</text>
<text text-anchor="start" x="360" y="-862.5" font-family="Helvetica,sans-Serif" font-size="10.00">+ StartCoroutine()</text>
<text text-anchor="start" x="360" y="-851.5" font-family="Helvetica,sans-Serif" font-size="10.00">+ StopAllCoroutines()</text>
<text text-anchor="start" x="360" y="-840.5" font-family="Helvetica,sans-Serif" font-size="10.00">+ StopCoroutine()</text>
<text text-anchor="start" x="360" y="-829.5" font-family="Helvetica,sans-Serif" font-size="10.00">+ ToString()</text>
</a>
</g>
</g>
<!-- Node6&#45;&gt;Node5 -->
<g id="edge5" class="edge"><title>Node6&#45;&gt;Node5</title>
<path fill="none" stroke="midnightblue" d="M407,-812.201C407,-803.195 407,-794.244 407,-785.526"/>
<polygon fill="none" stroke="midnightblue" points="403.5,-812.382 407,-822.382 410.5,-812.382 403.5,-812.382"/>
</g>
<!-- Node7&#45;&gt;Node1 -->
<g id="edge6" class="edge"><title>Node7&#45;&gt;Node1</title>
<path fill="none" stroke="midnightblue" d="M396.021,-387.496C389.202,-357.371 380.065,-317.002 371.15,-277.618"/>
<polygon fill="none" stroke="midnightblue" points="392.62,-388.323 398.241,-397.303 399.447,-386.777 392.62,-388.323"/>
</g>
<!-- Node8&#45;&gt;Node1 -->
<g id="edge8" class="edge"><title>Node8&#45;&gt;Node1</title>
<path fill="none" stroke="midnightblue" d="M517.6,-383.012C504.686,-361.281 489.138,-336.091 474,-314 452.664,-282.862 427.79,-249.785 405.305,-220.926"/>
<polygon fill="none" stroke="midnightblue" points="514.68,-384.951 522.779,-391.781 520.707,-381.39 514.68,-384.951"/>
</g>
</g>
</svg>
