<?xml version="1.0" encoding="UTF-8" standalone="no"?>
<!DOCTYPE svg PUBLIC "-//W3C//DTD SVG 1.1//EN"
 "http://www.w3.org/Graphics/SVG/1.1/DTD/svg11.dtd">
<!-- Generated by graphviz version 2.28.0 (20121120.0402)
 -->
<!-- Title: LanguageEditor Pages: 1 -->
<svg width="110pt" height="180pt"
 viewBox="0.00 0.00 110.00 180.00" xmlns="http://www.w3.org/2000/svg" xmlns:xlink="http://www.w3.org/1999/xlink">
<g id="graph1" class="graph" transform="scale(1 1) rotate(0) translate(4 176)">
<title>LanguageEditor</title>
<!-- Node1 -->
<g id="node1" class="node"><title>Node1</title>
<polygon fill="#bfbfbf" stroke="black" points="-0.220215,-1 -0.220215,-73 102.22,-73 102.22,-1 -0.220215,-1"/>
<text text-anchor="middle" x="51" y="-59" font-family="Helvetica,sans-Serif" font-size="10.00">LanguageEditor</text>
<polyline fill="none" stroke="black" points="-0.220215,-53 102.22,-53 "/>
<text text-anchor="start" x="7.77979" y="-39" font-family="Helvetica,sans-Serif" font-size="10.00">+ languagePath</text>
<polyline fill="none" stroke="black" points="-0.220215,-33 102.22,-33 "/>
<text text-anchor="start" x="7.77979" y="-19" font-family="Helvetica,sans-Serif" font-size="10.00">+ LangToIdentifier()</text>
<text text-anchor="start" x="7.77979" y="-7" font-family="Helvetica,sans-Serif" font-size="10.00">+ SaveLanguage()</text>
</g>
<!-- Node2 -->
<g id="node2" class="node"><title>Node2</title>
<polygon fill="none" stroke="#bfbfbf" points="12.1553,-111 12.1553,-171 89.8447,-171 89.8447,-111 12.1553,-111"/>
<text text-anchor="middle" x="51" y="-157" font-family="Helvetica,sans-Serif" font-size="10.00">EditorWindow</text>
<polyline fill="none" stroke="#bfbfbf" points="12.1553,-151 89.8447,-151 "/>
<text text-anchor="middle" x="51" y="-137" font-family="Helvetica,sans-Serif" font-size="10.00"> </text>
<polyline fill="none" stroke="#bfbfbf" points="12.1553,-131 89.8447,-131 "/>
<text text-anchor="middle" x="51" y="-117" font-family="Helvetica,sans-Serif" font-size="10.00"> </text>
</g>
<!-- Node2&#45;&gt;Node1 -->
<g id="edge2" class="edge"><title>Node2&#45;&gt;Node1</title>
<path fill="none" stroke="midnightblue" d="M51,-100.752C51,-91.6193 51,-81.9544 51,-73.0179"/>
<polygon fill="none" stroke="midnightblue" points="47.5001,-100.771 51,-110.771 54.5001,-100.771 47.5001,-100.771"/>
</g>
</g>
</svg>
