<?xml version="1.0" encoding="UTF-8" standalone="no"?>
<!DOCTYPE svg PUBLIC "-//W3C//DTD SVG 1.1//EN"
 "http://www.w3.org/Graphics/SVG/1.1/DTD/svg11.dtd">
<!-- Generated by graphviz version 2.28.0 (20121120.0402)
 -->
<!-- Title: Graphical Class Hierarchy Pages: 1 -->
<svg width="526pt" height="769pt"
 viewBox="0.00 0.00 526.00 769.00" xmlns="http://www.w3.org/2000/svg" xmlns:xlink="http://www.w3.org/1999/xlink">
<g id="graph1" class="graph" transform="scale(1 1) rotate(0) translate(4 765)">
<title>Graphical Class Hierarchy</title>
<!-- Node1 -->
<g id="node1" class="node"><title>Node1</title>
<polygon fill="none" stroke="#bfbfbf" points="1.97803,-273 1.97803,-293 88.022,-293 88.022,-273 1.97803,-273"/>
<text text-anchor="middle" x="45" y="-279" font-family="Helvetica,sans-Serif" font-size="10.00">MonoBehaviour</text>
</g>
<!-- Node2 -->
<g id="node3" class="node"><title>Node2</title>
<a xlink:href="class_thinksquirrel_1_1_word_game_builder_1_1_w_g_b_base.html" target="_top" xlink:title="The base class for all Word Game Builder components. ">
<polygon fill="none" stroke="black" points="151.66,-312 151.66,-332 214.34,-332 214.34,-312 151.66,-312"/>
<text text-anchor="middle" x="183" y="-318" font-family="Helvetica,sans-Serif" font-size="10.00">WGBBase</text>
</a>
</g>
<!-- Node1&#45;&gt;Node2 -->
<g id="edge2" class="edge"><title>Node1&#45;&gt;Node2</title>
<path fill="none" stroke="midnightblue" d="M90.7748,-295.84C110.595,-301.524 133.407,-308.065 151.262,-313.185"/>
<polygon fill="midnightblue" stroke="midnightblue" points="91.6008,-292.436 81.0234,-293.043 89.6711,-299.164 91.6008,-292.436"/>
</g>
<!-- Node20 -->
<g id="node39" class="node"><title>Node20</title>
<a xlink:href="class_thinksquirrel_1_1_word_game_builder_example_1_1_example_view.html" target="_top" xlink:title="This class is responsible for rendering the UI. ">
<polygon fill="none" stroke="black" points="144.797,-273 144.797,-293 221.203,-293 221.203,-273 144.797,-273"/>
<text text-anchor="middle" x="183" y="-279" font-family="Helvetica,sans-Serif" font-size="10.00">ExampleView</text>
</a>
</g>
<!-- Node1&#45;&gt;Node20 -->
<g id="edge38" class="edge"><title>Node1&#45;&gt;Node20</title>
<path fill="none" stroke="midnightblue" d="M98.6285,-283C113.877,-283 130.215,-283 144.351,-283"/>
<polygon fill="midnightblue" stroke="midnightblue" points="98.2858,-279.5 88.2858,-283 98.2857,-286.5 98.2858,-279.5"/>
</g>
<!-- Node21 -->
<g id="node41" class="node"><title>Node21</title>
<a xlink:href="class_thinksquirrel_1_1_word_game_builder_example_1_1_example_view_model.html" target="_top" xlink:title="This class is responsible for sending and receiving data between the game and the UI...">
<polygon fill="none" stroke="black" points="131.179,-234 131.179,-254 234.821,-254 234.821,-234 131.179,-234"/>
<text text-anchor="middle" x="183" y="-240" font-family="Helvetica,sans-Serif" font-size="10.00">ExampleViewModel</text>
</a>
</g>
<!-- Node1&#45;&gt;Node21 -->
<g id="edge40" class="edge"><title>Node1&#45;&gt;Node21</title>
<path fill="none" stroke="midnightblue" d="M90.881,-270.13C109.165,-264.887 129.98,-258.918 147.095,-254.009"/>
<polygon fill="midnightblue" stroke="midnightblue" points="89.6711,-266.836 81.0234,-272.957 91.6008,-273.564 89.6711,-266.836"/>
</g>
<!-- Node3 -->
<g id="node5" class="node"><title>Node3</title>
<a xlink:href="class_thinksquirrel_1_1_word_game_builder_1_1_gameplay_1_1_tile_pool.html" target="_top" xlink:title="A class that manages an instance pool of letter tiles. ">
<polygon fill="none" stroke="black" points="324.119,-585 324.119,-605 375.881,-605 375.881,-585 324.119,-585"/>
<text text-anchor="middle" x="350" y="-591" font-family="Helvetica,sans-Serif" font-size="10.00">TilePool</text>
</a>
</g>
<!-- Node2&#45;&gt;Node3 -->
<g id="edge4" class="edge"><title>Node2&#45;&gt;Node3</title>
<path fill="none" stroke="midnightblue" d="M189.987,-341.606C207.398,-398.111 257.921,-558.335 276,-575 288.947,-586.934 308.341,-591.855 323.886,-593.834"/>
<polygon fill="midnightblue" stroke="midnightblue" points="193.331,-340.572 187.051,-332.04 186.639,-342.626 193.331,-340.572"/>
</g>
<!-- Node4 -->
<g id="node7" class="node"><title>Node4</title>
<a xlink:href="class_thinksquirrel_1_1_word_game_builder_1_1_gameplay_1_1_wildcard_tile_manager.html" target="_top" xlink:title="A manager class for selecting wildcard tiles. ">
<polygon fill="none" stroke="black" points="294.944,-546 294.944,-566 405.056,-566 405.056,-546 294.944,-546"/>
<text text-anchor="middle" x="350" y="-552" font-family="Helvetica,sans-Serif" font-size="10.00">WildcardTileManager</text>
</a>
</g>
<!-- Node2&#45;&gt;Node4 -->
<g id="edge6" class="edge"><title>Node2&#45;&gt;Node4</title>
<path fill="none" stroke="midnightblue" d="M186.792,-342.292C193.736,-384.804 215.79,-483.606 276,-536 281.452,-540.744 287.931,-544.373 294.744,-547.147"/>
<polygon fill="midnightblue" stroke="midnightblue" points="190.239,-341.678 185.276,-332.317 183.319,-342.729 190.239,-341.678"/>
</g>
<!-- Node5 -->
<g id="node9" class="node"><title>Node5</title>
<a xlink:href="class_thinksquirrel_1_1_word_game_builder_1_1_gameplay_1_1_word_game_agent.html" target="_top" xlink:title="Represents a word game AI agent. The agent is multithreaded and supports automatic selection/submissi...">
<polygon fill="none" stroke="black" points="303.46,-507 303.46,-527 396.54,-527 396.54,-507 303.46,-507"/>
<text text-anchor="middle" x="350" y="-513" font-family="Helvetica,sans-Serif" font-size="10.00">WordGameAgent</text>
</a>
</g>
<!-- Node2&#45;&gt;Node5 -->
<g id="edge8" class="edge"><title>Node2&#45;&gt;Node5</title>
<path fill="none" stroke="midnightblue" d="M188.865,-342.047C198.78,-378.55 224.845,-455.877 276,-497 283.886,-503.339 293.633,-507.675 303.407,-510.638"/>
<polygon fill="midnightblue" stroke="midnightblue" points="192.189,-340.92 186.296,-332.115 185.412,-342.673 192.189,-340.92"/>
</g>
<!-- Node6 -->
<g id="node11" class="node"><title>Node6</title>
<a xlink:href="class_thinksquirrel_1_1_word_game_builder_1_1_gameplay_1_1_word_game_player.html" target="_top" xlink:title="Represents a word game player. It tracks scores, holds tiles, and can be controlled by an AI agent...">
<polygon fill="none" stroke="black" points="302.354,-624 302.354,-644 397.646,-644 397.646,-624 302.354,-624"/>
<text text-anchor="middle" x="350" y="-630" font-family="Helvetica,sans-Serif" font-size="10.00">WordGamePlayer</text>
</a>
</g>
<!-- Node2&#45;&gt;Node6 -->
<g id="edge10" class="edge"><title>Node2&#45;&gt;Node6</title>
<path fill="none" stroke="midnightblue" d="M190.442,-341.882C200.935,-374.321 222.322,-440.67 240,-497 256.291,-548.91 236.936,-576.132 276,-614 283.171,-620.951 292.518,-625.538 302.117,-628.551"/>
<polygon fill="midnightblue" stroke="midnightblue" points="193.732,-340.68 187.322,-332.244 187.072,-342.836 193.732,-340.68"/>
</g>
<!-- Node7 -->
<g id="node13" class="node"><title>Node7</title>
<a xlink:href="class_thinksquirrel_1_1_word_game_builder_1_1_tiles_1_1_daikon_forge_1_1_letter_tile_daikon_forge_control.html" target="_top" xlink:title="Adds Daikon Forge GUI display to a letter tile. ">
<polygon fill="none" stroke="black" points="276.597,-117 276.597,-137 423.403,-137 423.403,-117 276.597,-117"/>
<text text-anchor="middle" x="350" y="-123" font-family="Helvetica,sans-Serif" font-size="10.00">LetterTileDaikonForgeControl</text>
</a>
</g>
<!-- Node2&#45;&gt;Node7 -->
<g id="edge12" class="edge"><title>Node2&#45;&gt;Node7</title>
<path fill="none" stroke="midnightblue" d="M224.086,-313.289C230.057,-310.508 235.655,-306.839 240,-302 285.805,-250.987 229.862,-202.713 276,-152 281.95,-145.46 289.684,-140.631 297.887,-137.064"/>
<polygon fill="midnightblue" stroke="midnightblue" points="222.597,-310.112 214.522,-316.97 225.112,-316.645 222.597,-310.112"/>
</g>
<!-- Node8 -->
<g id="node15" class="node"><title>Node8</title>
<a xlink:href="class_thinksquirrel_1_1_word_game_builder_1_1_tiles_1_1_daikon_forge_1_1_letter_tile_daikon_forge_input.html" target="_top" xlink:title="Adds input control to a letter tile, using DF&#45;GUI&#39;s events. ">
<polygon fill="none" stroke="black" points="281.595,-78 281.595,-98 418.405,-98 418.405,-78 281.595,-78"/>
<text text-anchor="middle" x="350" y="-84" font-family="Helvetica,sans-Serif" font-size="10.00">LetterTileDaikonForgeInput</text>
</a>
</g>
<!-- Node2&#45;&gt;Node8 -->
<g id="edge14" class="edge"><title>Node2&#45;&gt;Node8</title>
<path fill="none" stroke="midnightblue" d="M224.121,-313.57C230.137,-310.757 235.741,-307.004 240,-302 297.123,-234.888 215.967,-171.523 276,-107 279.301,-103.453 283.172,-100.534 287.38,-98.1356"/>
<polygon fill="midnightblue" stroke="midnightblue" points="222.552,-310.423 214.462,-317.263 225.052,-316.961 222.552,-310.423"/>
</g>
<!-- Node9 -->
<g id="node17" class="node"><title>Node9</title>
<a xlink:href="class_thinksquirrel_1_1_word_game_builder_1_1_tiles_1_1_letter_tile.html" target="_top" xlink:title="A standard letter tile. Includes support for selection, wildcard tiles, multiple colors, input, and state querying. ">
<polygon fill="none" stroke="black" points="460.341,-682 460.341,-702 517.659,-702 517.659,-682 460.341,-682"/>
<text text-anchor="middle" x="489" y="-688" font-family="Helvetica,sans-Serif" font-size="10.00">LetterTile</text>
</a>
</g>
<!-- Node2&#45;&gt;Node9 -->
<g id="edge16" class="edge"><title>Node2&#45;&gt;Node9</title>
<path fill="none" stroke="midnightblue" d="M224.017,-312.966C229.948,-310.223 235.551,-306.651 240,-302 277.605,-262.682 232.236,-217.323 276,-185 328.911,-145.921 374.661,-141.498 424,-185 462.847,-219.251 484.073,-612.816 487.504,-681.733"/>
<polygon fill="midnightblue" stroke="midnightblue" points="222.609,-309.757 214.545,-316.628 225.134,-316.286 222.609,-309.757"/>
</g>
<!-- Node10 -->
<g id="node19" class="node"><title>Node10</title>
<a xlink:href="class_thinksquirrel_1_1_word_game_builder_1_1_tiles_1_1_letter_tile_animation.html" target="_top" xlink:title="Adds animation to a letter tile. ">
<polygon fill="none" stroke="black" points="299.107,-39 299.107,-59 400.893,-59 400.893,-39 299.107,-39"/>
<text text-anchor="middle" x="350" y="-45" font-family="Helvetica,sans-Serif" font-size="10.00">LetterTileAnimation</text>
</a>
</g>
<!-- Node2&#45;&gt;Node10 -->
<g id="edge18" class="edge"><title>Node2&#45;&gt;Node10</title>
<path fill="none" stroke="midnightblue" d="M224.248,-313.677C230.25,-310.851 235.816,-307.067 240,-302 306.996,-220.861 205.484,-146.1 276,-68 282.056,-61.2931 290.15,-56.8214 298.744,-53.8672"/>
<polygon fill="midnightblue" stroke="midnightblue" points="222.681,-310.529 214.594,-317.375 225.185,-317.066 222.681,-310.529"/>
</g>
<!-- Node11 -->
<g id="node21" class="node"><title>Node11</title>
<a xlink:href="class_thinksquirrel_1_1_word_game_builder_1_1_tiles_1_1_letter_tile_color_control.html" target="_top" xlink:title="Automatically controls the color of objects based on a letter tile&#39;s state. ">
<polygon fill="none" stroke="black" points="293.274,-0 293.274,-20 406.726,-20 406.726,-0 293.274,-0"/>
<text text-anchor="middle" x="350" y="-6" font-family="Helvetica,sans-Serif" font-size="10.00">LetterTileColorControl</text>
</a>
</g>
<!-- Node2&#45;&gt;Node11 -->
<g id="edge20" class="edge"><title>Node2&#45;&gt;Node11</title>
<path fill="none" stroke="midnightblue" d="M224.156,-313.84C230.218,-310.997 235.828,-307.165 240,-302 316.901,-206.795 194.968,-120.714 276,-29 280.682,-23.7004 286.637,-19.7912 293.12,-16.9216"/>
<polygon fill="midnightblue" stroke="midnightblue" points="222.506,-310.722 214.399,-317.543 224.99,-317.267 222.506,-310.722"/>
</g>
<!-- Node12 -->
<g id="node23" class="node"><title>Node12</title>
<a xlink:href="class_thinksquirrel_1_1_word_game_builder_1_1_tiles_1_1_letter_tile_label_control.html" target="_top" xlink:title="Automatically controls the text on objects based on a letter tile&#39;s state. ">
<polygon fill="none" stroke="black" points="292.989,-468 292.989,-488 407.011,-488 407.011,-468 292.989,-468"/>
<text text-anchor="middle" x="350" y="-474" font-family="Helvetica,sans-Serif" font-size="10.00">LetterTileLabelControl</text>
</a>
</g>
<!-- Node2&#45;&gt;Node12 -->
<g id="edge22" class="edge"><title>Node2&#45;&gt;Node12</title>
<path fill="none" stroke="midnightblue" d="M191.942,-341.709C204.966,-371.494 233.715,-427.702 276,-458 281.661,-462.056 288.107,-465.29 294.771,-467.869"/>
<polygon fill="midnightblue" stroke="midnightblue" points="195.109,-340.212 187.994,-332.362 188.661,-342.936 195.109,-340.212"/>
</g>
<!-- Node13 -->
<g id="node25" class="node"><title>Node13</title>
<a xlink:href="class_thinksquirrel_1_1_word_game_builder_1_1_tiles_1_1_letter_tile_mouse_input.html" target="_top" xlink:title="Adds input control to a letter tile, using Unity&#39;s OnMouse[...] methods. ">
<polygon fill="none" stroke="black" points="295.213,-429 295.213,-449 404.787,-449 404.787,-429 295.213,-429"/>
<text text-anchor="middle" x="350" y="-435" font-family="Helvetica,sans-Serif" font-size="10.00">LetterTileMouseInput</text>
</a>
</g>
<!-- Node2&#45;&gt;Node13 -->
<g id="edge24" class="edge"><title>Node2&#45;&gt;Node13</title>
<path fill="none" stroke="midnightblue" d="M196.569,-340.425C212.511,-362.388 242.049,-398.666 276,-419 282.764,-423.051 290.367,-426.302 298.045,-428.905"/>
<polygon fill="midnightblue" stroke="midnightblue" points="199.411,-338.383 190.778,-332.242 193.697,-342.426 199.411,-338.383"/>
</g>
<!-- Node14 -->
<g id="node27" class="node"><title>Node14</title>
<a xlink:href="class_thinksquirrel_1_1_word_game_builder_1_1_tiles_1_1_letter_tile_visibility_control.html" target="_top" xlink:title="Automatically controls the visibility of objects based on a letter tile&#39;s state. ">
<polygon fill="none" stroke="black" points="287.251,-390 287.251,-410 412.749,-410 412.749,-390 287.251,-390"/>
<text text-anchor="middle" x="350" y="-396" font-family="Helvetica,sans-Serif" font-size="10.00">LetterTileVisibilityControl</text>
</a>
</g>
<!-- Node2&#45;&gt;Node14 -->
<g id="edge26" class="edge"><title>Node2&#45;&gt;Node14</title>
<path fill="none" stroke="midnightblue" d="M205.407,-338.068C223.431,-350.949 250.311,-368.683 276,-380 284.899,-383.92 294.753,-387.245 304.266,-389.992"/>
<polygon fill="midnightblue" stroke="midnightblue" points="207.461,-335.234 197.315,-332.184 203.345,-340.896 207.461,-335.234"/>
</g>
<!-- Node15 -->
<g id="node29" class="node"><title>Node15</title>
<a xlink:href="class_thinksquirrel_1_1_word_game_builder_1_1_tiles_1_1_ngui_1_1_letter_tile_ngui_control.html" target="_top" xlink:title="Adds NGUI display to a letter tile. ">
<polygon fill="none" stroke="black" points="294.939,-351 294.939,-371 405.061,-371 405.061,-351 294.939,-351"/>
<text text-anchor="middle" x="350" y="-357" font-family="Helvetica,sans-Serif" font-size="10.00">LetterTileNguiControl</text>
</a>
</g>
<!-- Node2&#45;&gt;Node15 -->
<g id="edge28" class="edge"><title>Node2&#45;&gt;Node15</title>
<path fill="none" stroke="midnightblue" d="M224.493,-331.571C249.351,-337.446 281.148,-344.962 306.387,-350.928"/>
<polygon fill="midnightblue" stroke="midnightblue" points="225.186,-328.138 214.649,-329.244 223.575,-334.951 225.186,-328.138"/>
</g>
<!-- Node16 -->
<g id="node31" class="node"><title>Node16</title>
<a xlink:href="class_thinksquirrel_1_1_word_game_builder_1_1_tiles_1_1_ngui_1_1_letter_tile_ngui_input.html" target="_top" xlink:title="Adds input control to a letter tile, using NGUI&#39;s OnPress/OnHover/OnClick methods. ">
<polygon fill="none" stroke="black" points="299.937,-312 299.937,-332 400.063,-332 400.063,-312 299.937,-312"/>
<text text-anchor="middle" x="350" y="-318" font-family="Helvetica,sans-Serif" font-size="10.00">LetterTileNguiInput</text>
</a>
</g>
<!-- Node2&#45;&gt;Node16 -->
<g id="edge30" class="edge"><title>Node2&#45;&gt;Node16</title>
<path fill="none" stroke="midnightblue" d="M224.94,-322C247.58,-322 275.871,-322 299.718,-322"/>
<polygon fill="midnightblue" stroke="midnightblue" points="224.649,-318.5 214.649,-322 224.649,-325.5 224.649,-318.5"/>
</g>
<!-- Node17 -->
<g id="node33" class="node"><title>Node17</title>
<a xlink:href="class_thinksquirrel_1_1_word_game_builder_1_1_tiles_1_1_tk2_d_1_1_letter_tile_tk2_d_control.html" target="_top" xlink:title="Adds 2D Toolkit display to a letter tile. ">
<polygon fill="none" stroke="black" points="293.277,-273 293.277,-293 406.723,-293 406.723,-273 293.277,-273"/>
<text text-anchor="middle" x="350" y="-279" font-family="Helvetica,sans-Serif" font-size="10.00">LetterTileTk2DControl</text>
</a>
</g>
<!-- Node2&#45;&gt;Node17 -->
<g id="edge32" class="edge"><title>Node2&#45;&gt;Node17</title>
<path fill="none" stroke="midnightblue" d="M224.493,-312.429C249.351,-306.554 281.148,-299.038 306.387,-293.072"/>
<polygon fill="midnightblue" stroke="midnightblue" points="223.575,-309.049 214.649,-314.756 225.186,-315.862 223.575,-309.049"/>
</g>
<!-- Node18 -->
<g id="node35" class="node"><title>Node18</title>
<a xlink:href="class_thinksquirrel_1_1_word_game_builder_1_1_tiles_1_1_tk2_d_1_1_letter_tile_tk2_d_input.html" target="_top" xlink:title="Adds input control to a letter tile, using 2D Toolkit&#39;s UI events. ">
<polygon fill="none" stroke="black" points="298.274,-234 298.274,-254 401.726,-254 401.726,-234 298.274,-234"/>
<text text-anchor="middle" x="350" y="-240" font-family="Helvetica,sans-Serif" font-size="10.00">LetterTileTk2DInput</text>
</a>
</g>
<!-- Node2&#45;&gt;Node18 -->
<g id="edge34" class="edge"><title>Node2&#45;&gt;Node18</title>
<path fill="none" stroke="midnightblue" d="M224.005,-310.418C229.589,-308.039 235.09,-305.246 240,-302 259.677,-288.99 255.767,-275.128 276,-263 282.739,-258.96 290.33,-255.77 298.002,-253.254"/>
<polygon fill="midnightblue" stroke="midnightblue" points="222.686,-307.176 214.616,-314.041 225.206,-313.706 222.686,-307.176"/>
</g>
<!-- Node19 -->
<g id="node37" class="node"><title>Node19</title>
<a xlink:href="class_thinksquirrel_1_1_word_game_builder_example_1_1_example_game_logic.html" target="_top" xlink:title="This class is responsible for all game logic. ">
<polygon fill="none" stroke="black" points="296.978,-195 296.978,-215 403.022,-215 403.022,-195 296.978,-195"/>
<text text-anchor="middle" x="350" y="-201" font-family="Helvetica,sans-Serif" font-size="10.00">ExampleGameLogic</text>
</a>
</g>
<!-- Node2&#45;&gt;Node19 -->
<g id="edge36" class="edge"><title>Node2&#45;&gt;Node19</title>
<path fill="none" stroke="midnightblue" d="M224.296,-312.076C230.001,-309.452 235.461,-306.151 240,-302 268.177,-276.235 246.712,-248.495 276,-224 282.027,-218.959 289.239,-215.237 296.75,-212.493"/>
<polygon fill="midnightblue" stroke="midnightblue" points="222.616,-308.975 214.581,-315.88 225.168,-315.493 222.616,-308.975"/>
</g>
<!-- Node22 -->
<g id="node42" class="node"><title>Node22</title>
<a xlink:href="interface_thinksquirrel_1_1_word_game_builder_1_1_object_model_1_1_i_mono_behaviour.html" target="_top" xlink:title="An interface representation of a MonoBehaviour. ">
<polygon fill="none" stroke="black" points="0.588867,-585 0.588867,-605 89.4111,-605 89.4111,-585 0.588867,-585"/>
<text text-anchor="middle" x="45" y="-591" font-family="Helvetica,sans-Serif" font-size="10.00">IMonoBehaviour</text>
</a>
</g>
<!-- Node23 -->
<g id="node44" class="node"><title>Node23</title>
<a xlink:href="interface_thinksquirrel_1_1_word_game_builder_1_1_object_model_1_1_i_letter_tile.html" target="_top" xlink:title="An interface defining a letter tile. Implementations must derive from MonoBehaviour in some form...">
<polygon fill="none" stroke="black" points="152.952,-682 152.952,-702 213.048,-702 213.048,-682 152.952,-682"/>
<text text-anchor="middle" x="183" y="-688" font-family="Helvetica,sans-Serif" font-size="10.00">ILetterTile</text>
</a>
</g>
<!-- Node22&#45;&gt;Node23 -->
<g id="edge42" class="edge"><title>Node22&#45;&gt;Node23</title>
<path fill="none" stroke="midnightblue" d="M68.0225,-611.138C84.0461,-622.838 106.296,-638.998 126,-653 139.907,-662.882 155.887,-673.987 167.208,-681.812"/>
<polygon fill="midnightblue" stroke="midnightblue" points="69.9551,-608.215 59.8168,-605.139 65.8238,-613.866 69.9551,-608.215"/>
</g>
<!-- Node27 -->
<g id="node55" class="node"><title>Node27</title>
<a xlink:href="interface_thinksquirrel_1_1_word_game_builder_1_1_object_model_1_1_i_tile_pool.html" target="_top" xlink:title="An interface defining a pool of letter tiles. Implementations must derive from MonoBehaviour in some ...">
<polygon fill="none" stroke="black" points="155.73,-585 155.73,-605 210.27,-605 210.27,-585 155.73,-585"/>
<text text-anchor="middle" x="183" y="-591" font-family="Helvetica,sans-Serif" font-size="10.00">ITilePool</text>
</a>
</g>
<!-- Node22&#45;&gt;Node27 -->
<g id="edge56" class="edge"><title>Node22&#45;&gt;Node27</title>
<path fill="none" stroke="midnightblue" d="M99.8697,-595C118.93,-595 139.54,-595 155.346,-595"/>
<polygon fill="midnightblue" stroke="midnightblue" points="99.7799,-591.5 89.7799,-595 99.7798,-598.5 99.7799,-591.5"/>
</g>
<!-- Node28 -->
<g id="node58" class="node"><title>Node28</title>
<a xlink:href="interface_thinksquirrel_1_1_word_game_builder_1_1_object_model_1_1_i_wildcard_tile_manager.html" target="_top" xlink:title="An interface defining a manager for selecting wildcard tiles. Implementations must derive from MonoBe...">
<polygon fill="none" stroke="black" points="126.555,-546 126.555,-566 239.445,-566 239.445,-546 126.555,-546"/>
<text text-anchor="middle" x="183" y="-552" font-family="Helvetica,sans-Serif" font-size="10.00">IWildcardTileManager</text>
</a>
</g>
<!-- Node22&#45;&gt;Node28 -->
<g id="edge60" class="edge"><title>Node22&#45;&gt;Node28</title>
<path fill="none" stroke="midnightblue" d="M90.881,-582.13C109.165,-576.887 129.98,-570.918 147.095,-566.009"/>
<polygon fill="midnightblue" stroke="midnightblue" points="89.6711,-578.836 81.0234,-584.957 91.6008,-585.564 89.6711,-578.836"/>
</g>
<!-- Node29 -->
<g id="node61" class="node"><title>Node29</title>
<a xlink:href="interface_thinksquirrel_1_1_word_game_builder_1_1_object_model_1_1_i_word_game_agent.html" target="_top" xlink:title="An interface defining a word game agent. Implementations must derive from MonoBehaviour in some form...">
<polygon fill="none" stroke="black" points="135.071,-507 135.071,-527 230.929,-527 230.929,-507 135.071,-507"/>
<text text-anchor="middle" x="183" y="-513" font-family="Helvetica,sans-Serif" font-size="10.00">IWordGameAgent</text>
</a>
</g>
<!-- Node22&#45;&gt;Node29 -->
<g id="edge64" class="edge"><title>Node22&#45;&gt;Node29</title>
<path fill="none" stroke="midnightblue" d="M64.9888,-578.357C80.5317,-565.409 103.542,-547.728 126,-536 132.552,-532.578 139.849,-529.578 146.952,-527.033"/>
<polygon fill="midnightblue" stroke="midnightblue" points="62.5287,-575.855 57.173,-584.996 67.0605,-581.19 62.5287,-575.855"/>
</g>
<!-- Node30 -->
<g id="node64" class="node"><title>Node30</title>
<a xlink:href="interface_thinksquirrel_1_1_word_game_builder_1_1_object_model_1_1_i_word_game_player.html" target="_top" xlink:title="An interface defining a word game player. Implementations must derive from MonoBehaviour in some form...">
<polygon fill="none" stroke="black" points="133.965,-624 133.965,-644 232.035,-644 232.035,-624 133.965,-624"/>
<text text-anchor="middle" x="183" y="-630" font-family="Helvetica,sans-Serif" font-size="10.00">IWordGamePlayer</text>
</a>
</g>
<!-- Node22&#45;&gt;Node30 -->
<g id="edge68" class="edge"><title>Node22&#45;&gt;Node30</title>
<path fill="none" stroke="midnightblue" d="M90.881,-607.87C109.165,-613.113 129.98,-619.082 147.095,-623.991"/>
<polygon fill="midnightblue" stroke="midnightblue" points="91.6008,-604.436 81.0234,-605.043 89.6711,-611.164 91.6008,-604.436"/>
</g>
<!-- Node24 -->
<g id="node46" class="node"><title>Node24</title>
<a xlink:href="interface_thinksquirrel_1_1_word_game_builder_1_1_object_model_1_1_i_letter_tile_display.html" target="_top" xlink:title="An interface defining letter tile colors and labels. ">
<polygon fill="none" stroke="black" points="303.558,-702 303.558,-722 396.442,-722 396.442,-702 303.558,-702"/>
<text text-anchor="middle" x="350" y="-708" font-family="Helvetica,sans-Serif" font-size="10.00">ILetterTileDisplay</text>
</a>
</g>
<!-- Node23&#45;&gt;Node24 -->
<g id="edge44" class="edge"><title>Node23&#45;&gt;Node24</title>
<path fill="none" stroke="midnightblue" d="M223.309,-696.765C247.362,-699.68 278.238,-703.423 303.369,-706.469"/>
<polygon fill="midnightblue" stroke="midnightblue" points="223.467,-693.258 213.119,-695.53 222.625,-700.208 223.467,-693.258"/>
</g>
<!-- Node25 -->
<g id="node49" class="node"><title>Node25</title>
<a xlink:href="interface_thinksquirrel_1_1_word_game_builder_1_1_object_model_1_1_i_letter_tile_input.html" target="_top" xlink:title="An interface defining letter tile input events. ">
<polygon fill="none" stroke="black" points="308.831,-663 308.831,-683 391.169,-683 391.169,-663 308.831,-663"/>
<text text-anchor="middle" x="350" y="-669" font-family="Helvetica,sans-Serif" font-size="10.00">ILetterTileInput</text>
</a>
</g>
<!-- Node23&#45;&gt;Node25 -->
<g id="edge48" class="edge"><title>Node23&#45;&gt;Node25</title>
<path fill="none" stroke="midnightblue" d="M223.293,-687.475C249.087,-684.505 282.732,-680.631 308.723,-677.638"/>
<polygon fill="midnightblue" stroke="midnightblue" points="222.653,-684.026 213.119,-688.647 223.454,-690.98 222.653,-684.026"/>
</g>
<!-- Node26 -->
<g id="node52" class="node"><title>Node26</title>
<a xlink:href="interface_thinksquirrel_1_1_word_game_builder_1_1_object_model_1_1_i_selectable_letter_tile.html" target="_top" xlink:title="An interface defining a letter tile that can be selected and deselected. Implementations must derive ...">
<polygon fill="none" stroke="black" points="296.602,-741 296.602,-761 403.398,-761 403.398,-741 296.602,-741"/>
<text text-anchor="middle" x="350" y="-747" font-family="Helvetica,sans-Serif" font-size="10.00">ISelectableLetterTile</text>
</a>
</g>
<!-- Node23&#45;&gt;Node26 -->
<g id="edge52" class="edge"><title>Node23&#45;&gt;Node26</title>
<path fill="none" stroke="midnightblue" d="M214.867,-706.305C232.539,-714.185 255.258,-723.798 276,-731 286.428,-734.62 297.872,-738.018 308.542,-740.95"/>
<polygon fill="midnightblue" stroke="midnightblue" points="216.168,-703.053 205.614,-702.132 213.291,-709.434 216.168,-703.053"/>
</g>
<!-- Node24&#45;&gt;Node9 -->
<g id="edge46" class="edge"><title>Node24&#45;&gt;Node9</title>
<path fill="none" stroke="midnightblue" d="M406.673,-703.873C425.071,-701.187 444.749,-698.314 460.139,-696.067"/>
<polygon fill="midnightblue" stroke="midnightblue" points="406.009,-700.432 396.619,-705.34 407.02,-707.359 406.009,-700.432"/>
</g>
<!-- Node25&#45;&gt;Node9 -->
<g id="edge50" class="edge"><title>Node25&#45;&gt;Node9</title>
<path fill="none" stroke="midnightblue" d="M401.479,-680.001C421.273,-682.746 443.229,-685.791 460.07,-688.126"/>
<polygon fill="midnightblue" stroke="midnightblue" points="401.75,-676.505 391.364,-678.598 400.788,-683.438 401.75,-676.505"/>
</g>
<!-- Node26&#45;&gt;Node9 -->
<g id="edge54" class="edge"><title>Node26&#45;&gt;Node9</title>
<path fill="none" stroke="midnightblue" d="M405.319,-737.949C411.708,-735.879 418.062,-733.562 424,-731 442.159,-723.165 461.317,-710.885 473.886,-702.2"/>
<polygon fill="midnightblue" stroke="midnightblue" points="403.85,-734.738 395.304,-741 405.89,-741.434 403.85,-734.738"/>
</g>
<!-- Node27&#45;&gt;Node3 -->
<g id="edge58" class="edge"><title>Node27&#45;&gt;Node3</title>
<path fill="none" stroke="midnightblue" d="M220.615,-595C252.009,-595 296.401,-595 323.908,-595"/>
<polygon fill="midnightblue" stroke="midnightblue" points="220.51,-591.5 210.51,-595 220.51,-598.5 220.51,-591.5"/>
</g>
<!-- Node28&#45;&gt;Node4 -->
<g id="edge62" class="edge"><title>Node28&#45;&gt;Node4</title>
<path fill="none" stroke="midnightblue" d="M250.023,-556C264.909,-556 280.541,-556 294.873,-556"/>
<polygon fill="midnightblue" stroke="midnightblue" points="249.862,-552.5 239.861,-556 249.861,-559.5 249.862,-552.5"/>
</g>
<!-- Node29&#45;&gt;Node5 -->
<g id="edge66" class="edge"><title>Node29&#45;&gt;Node5</title>
<path fill="none" stroke="midnightblue" d="M241.356,-517C261.664,-517 284.22,-517 303.416,-517"/>
<polygon fill="midnightblue" stroke="midnightblue" points="241.282,-513.5 231.282,-517 241.282,-520.5 241.282,-513.5"/>
</g>
<!-- Node30&#45;&gt;Node6 -->
<g id="edge70" class="edge"><title>Node30&#45;&gt;Node6</title>
<path fill="none" stroke="midnightblue" d="M242.233,-634C261.881,-634 283.544,-634 302.193,-634"/>
<polygon fill="midnightblue" stroke="midnightblue" points="242.168,-630.5 232.168,-634 242.168,-637.5 242.168,-630.5"/>
</g>
</g>
</svg>
