<?xml version="1.0" encoding="UTF-8" standalone="no"?>
<!DOCTYPE svg PUBLIC "-//W3C//DTD SVG 1.1//EN"
 "http://www.w3.org/Graphics/SVG/1.1/DTD/svg11.dtd">
<!-- Generated by graphviz version 2.28.0 (20121120.0402)
 -->
<!-- Title: Graphical Class Hierarchy Pages: 1 -->
<svg width="190pt" height="67pt"
 viewBox="0.00 0.00 190.00 67.00" xmlns="http://www.w3.org/2000/svg" xmlns:xlink="http://www.w3.org/1999/xlink">
<g id="graph1" class="graph" transform="scale(1 1) rotate(0) translate(4 63)">
<title>Graphical Class Hierarchy</title>
<!-- Node1 -->
<g id="node1" class="node"><title>Node1</title>
<polygon fill="none" stroke="#bfbfbf" points="-0.125488,-19 -0.125488,-39 68.1255,-39 68.1255,-19 -0.125488,-19"/>
<text text-anchor="middle" x="34" y="-25" font-family="Helvetica,sans-Serif" font-size="10.00">IDisposable</text>
</g>
<!-- Node2 -->
<g id="node3" class="node"><title>Node2</title>
<a xlink:href="class_thinksquirrel_1_1_word_game_builder_1_1_async_task.html" target="_top" xlink:title="Represents an asynchronous task. ">
<polygon fill="none" stroke="black" points="111.104,-39 111.104,-59 174.896,-59 174.896,-39 111.104,-39"/>
<text text-anchor="middle" x="143" y="-45" font-family="Helvetica,sans-Serif" font-size="10.00">AsyncTask</text>
</a>
</g>
<!-- Node1&#45;&gt;Node2 -->
<g id="edge2" class="edge"><title>Node1&#45;&gt;Node2</title>
<path fill="none" stroke="midnightblue" d="M78.1271,-37.0611C89.108,-39.1136 100.695,-41.2795 110.941,-43.1946"/>
<polygon fill="midnightblue" stroke="midnightblue" points="78.7418,-33.6155 68.2689,-35.2185 77.4556,-40.4963 78.7418,-33.6155"/>
</g>
<!-- Node3 -->
<g id="node5" class="node"><title>Node3</title>
<a xlink:href="class_thinksquirrel_1_1_word_game_builder_1_1_tweening_1_1_tweener_3_01_t_01_4.html" target="_top" xlink:title="The main tweening class. ">
<polygon fill="none" stroke="black" points="104.324,-0 104.324,-20 181.676,-20 181.676,-0 104.324,-0"/>
<text text-anchor="middle" x="143" y="-6" font-family="Helvetica,sans-Serif" font-size="10.00">Tweener&lt; T &gt;</text>
</a>
</g>
<!-- Node1&#45;&gt;Node3 -->
<g id="edge4" class="edge"><title>Node1&#45;&gt;Node3</title>
<path fill="none" stroke="midnightblue" d="M78.1816,-21.3322C86.8201,-19.7983 95.8317,-18.1981 104.269,-16.6999"/>
<polygon fill="midnightblue" stroke="midnightblue" points="77.503,-17.8979 68.2689,-23.0924 78.7269,-24.7901 77.503,-17.8979"/>
</g>
</g>
</svg>
