<?xml version="1.0" encoding="UTF-8" standalone="no"?>
<!DOCTYPE svg PUBLIC "-//W3C//DTD SVG 1.1//EN"
 "http://www.w3.org/Graphics/SVG/1.1/DTD/svg11.dtd">
<!-- Generated by graphviz version 2.34.0 (20130907.0111)
 -->
<!-- Title: IWildcardTileManager Pages: 1 -->
<svg width="124pt" height="452pt"
 viewBox="0.00 0.00 124.00 452.00" xmlns="http://www.w3.org/2000/svg" xmlns:xlink="http://www.w3.org/1999/xlink">
<g id="graph0" class="graph" transform="scale(1 1) rotate(0) translate(4 448)">
<title>IWildcardTileManager</title>
<!-- Node1 -->
<g id="node1" class="node"><title>Node1</title>
<polygon fill="#bfbfbf" stroke="black" points="-0.5,-94.5 -0.5,-151.5 116.5,-151.5 116.5,-94.5 -0.5,-94.5"/>
<text text-anchor="middle" x="58" y="-139.5" font-family="Helvetica,sans-Serif" font-size="10.00">IWildcardTileManager</text>
<polyline fill="none" stroke="black" points="-0.5,-132.5 116.5,-132.5 "/>
<text text-anchor="start" x="7.5" y="-120.5" font-family="Helvetica,sans-Serif" font-size="10.00">+ onWildcardTileSelect</text>
<polyline fill="none" stroke="black" points="-0.5,-113.5 116.5,-113.5 "/>
<text text-anchor="start" x="7.5" y="-101.5" font-family="Helvetica,sans-Serif" font-size="10.00">+ SelectWildcardTile()</text>
</g>
<!-- Node3 -->
<g id="node3" class="node"><title>Node3</title>
<g id="a_node3"><a xlink:href="class_thinksquirrel_software_1_1_word_game_builder_1_1_gameplay_1_1_wildcard_tile_manager.html" target="_top" xlink:title="A manager class for selecting wildcard tiles. ">
<polygon fill="none" stroke="black" points="-0.5,-0.5 -0.5,-57.5 116.5,-57.5 116.5,-0.5 -0.5,-0.5"/>
<text text-anchor="middle" x="58" y="-45.5" font-family="Helvetica,sans-Serif" font-size="10.00">WildcardTileManager</text>
<polyline fill="none" stroke="black" points="-0.5,-38.5 116.5,-38.5 "/>
<text text-anchor="start" x="7.5" y="-26.5" font-family="Helvetica,sans-Serif" font-size="10.00">+ onWildcardTileSelect</text>
<polyline fill="none" stroke="black" points="-0.5,-19.5 116.5,-19.5 "/>
<text text-anchor="start" x="7.5" y="-7.5" font-family="Helvetica,sans-Serif" font-size="10.00">+ SelectWildcardTile()</text>
</a>
</g>
</g>
<!-- Node1&#45;&gt;Node3 -->
<g id="edge2" class="edge"><title>Node1&#45;&gt;Node3</title>
<path fill="none" stroke="midnightblue" d="M58,-84.2092C58,-75.2929 58,-65.9513 58,-57.5836"/>
<polygon fill="none" stroke="midnightblue" points="54.5001,-84.3969 58,-94.397 61.5001,-84.397 54.5001,-84.3969"/>
</g>
<!-- Node2 -->
<g id="node2" class="node"><title>Node2</title>
<g id="a_node2"><a xlink:href="interface_thinksquirrel_software_1_1_word_game_builder_1_1_object_model_1_1_i_mono_behaviour.html" target="_top" xlink:title="An interface representation of a MonoBehaviour. ">
<polygon fill="none" stroke="black" points="3,-188.5 3,-443.5 113,-443.5 113,-188.5 3,-188.5"/>
<text text-anchor="middle" x="58" y="-431.5" font-family="Helvetica,sans-Serif" font-size="10.00">IMonoBehaviour</text>
<polyline fill="none" stroke="black" points="3,-424.5 113,-424.5 "/>
<text text-anchor="start" x="11" y="-412.5" font-family="Helvetica,sans-Serif" font-size="10.00">+ enabled</text>
<text text-anchor="start" x="11" y="-401.5" font-family="Helvetica,sans-Serif" font-size="10.00">+ gameObject</text>
<text text-anchor="start" x="11" y="-390.5" font-family="Helvetica,sans-Serif" font-size="10.00">+ hideFlags</text>
<text text-anchor="start" x="11" y="-379.5" font-family="Helvetica,sans-Serif" font-size="10.00">+ name</text>
<text text-anchor="start" x="11" y="-368.5" font-family="Helvetica,sans-Serif" font-size="10.00">+ tag</text>
<text text-anchor="start" x="11" y="-357.5" font-family="Helvetica,sans-Serif" font-size="10.00">+ transform</text>
<text text-anchor="start" x="11" y="-346.5" font-family="Helvetica,sans-Serif" font-size="10.00">+ userData</text>
<polyline fill="none" stroke="black" points="3,-339.5 113,-339.5 "/>
<text text-anchor="start" x="11" y="-327.5" font-family="Helvetica,sans-Serif" font-size="10.00">+ CancelInvoke()</text>
<text text-anchor="start" x="11" y="-316.5" font-family="Helvetica,sans-Serif" font-size="10.00">+ CancelInvoke()</text>
<text text-anchor="start" x="11" y="-305.5" font-family="Helvetica,sans-Serif" font-size="10.00">+ GetInstanceID()</text>
<text text-anchor="start" x="11" y="-294.5" font-family="Helvetica,sans-Serif" font-size="10.00">+ Invoke()</text>
<text text-anchor="start" x="11" y="-283.5" font-family="Helvetica,sans-Serif" font-size="10.00">+ InvokeRepeating()</text>
<text text-anchor="start" x="11" y="-272.5" font-family="Helvetica,sans-Serif" font-size="10.00">+ IsInvoking()</text>
<text text-anchor="start" x="11" y="-261.5" font-family="Helvetica,sans-Serif" font-size="10.00">+ IsInvoking()</text>
<text text-anchor="start" x="11" y="-250.5" font-family="Helvetica,sans-Serif" font-size="10.00">+ StartCoroutine()</text>
<text text-anchor="start" x="11" y="-239.5" font-family="Helvetica,sans-Serif" font-size="10.00">+ StartCoroutine()</text>
<text text-anchor="start" x="11" y="-228.5" font-family="Helvetica,sans-Serif" font-size="10.00">+ StartCoroutine()</text>
<text text-anchor="start" x="11" y="-217.5" font-family="Helvetica,sans-Serif" font-size="10.00">+ StopAllCoroutines()</text>
<text text-anchor="start" x="11" y="-206.5" font-family="Helvetica,sans-Serif" font-size="10.00">+ StopCoroutine()</text>
<text text-anchor="start" x="11" y="-195.5" font-family="Helvetica,sans-Serif" font-size="10.00">+ ToString()</text>
</a>
</g>
</g>
<!-- Node2&#45;&gt;Node1 -->
<g id="edge1" class="edge"><title>Node2&#45;&gt;Node1</title>
<path fill="none" stroke="midnightblue" d="M58,-178.33C58,-168.484 58,-159.359 58,-151.508"/>
<polygon fill="none" stroke="midnightblue" points="54.5001,-178.398 58,-188.398 61.5001,-178.398 54.5001,-178.398"/>
</g>
</g>
</svg>
