<?xml version="1.0" encoding="UTF-8" standalone="no"?>
<!DOCTYPE svg PUBLIC "-//W3C//DTD SVG 1.1//EN"
 "http://www.w3.org/Graphics/SVG/1.1/DTD/svg11.dtd">
<!-- Generated by graphviz version 2.28.0 (20121120.0402)
 -->
<!-- Title: Letter Pages: 1 -->
<svg width="248pt" height="300pt"
 viewBox="0.00 0.00 248.00 300.00" xmlns="http://www.w3.org/2000/svg" xmlns:xlink="http://www.w3.org/1999/xlink">
<g id="graph1" class="graph" transform="scale(1 1) rotate(0) translate(4 296)">
<title>Letter</title>
<!-- Node1 -->
<g id="node1" class="node"><title>Node1</title>
<polygon fill="#bfbfbf" stroke="black" points="69.6763,-1 69.6763,-193 164.324,-193 164.324,-1 69.6763,-1"/>
<text text-anchor="middle" x="117" y="-179" font-family="Helvetica,sans-Serif" font-size="10.00">Letter</text>
<polyline fill="none" stroke="black" points="69.6763,-173 164.324,-173 "/>
<text text-anchor="start" x="77.6763" y="-159" font-family="Helvetica,sans-Serif" font-size="10.00">+ character</text>
<text text-anchor="start" x="77.6763" y="-147" font-family="Helvetica,sans-Serif" font-size="10.00">+ empty</text>
<text text-anchor="start" x="77.6763" y="-135" font-family="Helvetica,sans-Serif" font-size="10.00">+ hasValue</text>
<text text-anchor="start" x="77.6763" y="-123" font-family="Helvetica,sans-Serif" font-size="10.00">+ score</text>
<text text-anchor="start" x="77.6763" y="-111" font-family="Helvetica,sans-Serif" font-size="10.00">+ text</text>
<polyline fill="none" stroke="black" points="69.6763,-105 164.324,-105 "/>
<text text-anchor="start" x="77.6763" y="-91" font-family="Helvetica,sans-Serif" font-size="10.00">+ Letter()</text>
<text text-anchor="start" x="77.6763" y="-79" font-family="Helvetica,sans-Serif" font-size="10.00">+ CompareTo()</text>
<text text-anchor="start" x="77.6763" y="-67" font-family="Helvetica,sans-Serif" font-size="10.00">+ CompareTo()</text>
<text text-anchor="start" x="77.6763" y="-55" font-family="Helvetica,sans-Serif" font-size="10.00">+ Equals()</text>
<text text-anchor="start" x="77.6763" y="-43" font-family="Helvetica,sans-Serif" font-size="10.00">+ Equals()</text>
<text text-anchor="start" x="77.6763" y="-31" font-family="Helvetica,sans-Serif" font-size="10.00">+ GetHashCode()</text>
<text text-anchor="start" x="77.6763" y="-19" font-family="Helvetica,sans-Serif" font-size="10.00">+ operator!=()</text>
<text text-anchor="start" x="77.6763" y="-7" font-family="Helvetica,sans-Serif" font-size="10.00">+ operator==()</text>
</g>
<!-- Node2 -->
<g id="node2" class="node"><title>Node2</title>
<polygon fill="none" stroke="#bfbfbf" points="-0.3125,-231 -0.3125,-291 106.312,-291 106.312,-231 -0.3125,-231"/>
<text text-anchor="middle" x="53" y="-277" font-family="Helvetica,sans-Serif" font-size="10.00">IEquatable&lt; Letter &gt;</text>
<polyline fill="none" stroke="#bfbfbf" points="-0.3125,-271 106.312,-271 "/>
<text text-anchor="middle" x="53" y="-257" font-family="Helvetica,sans-Serif" font-size="10.00"> </text>
<polyline fill="none" stroke="#bfbfbf" points="-0.3125,-251 106.312,-251 "/>
<text text-anchor="middle" x="53" y="-237" font-family="Helvetica,sans-Serif" font-size="10.00"> </text>
</g>
<!-- Node2&#45;&gt;Node1 -->
<g id="edge2" class="edge"><title>Node2&#45;&gt;Node1</title>
<path fill="none" stroke="midnightblue" d="M68.2816,-221.318C71.6956,-212.677 75.4625,-203.142 79.3441,-193.317"/>
<polygon fill="none" stroke="midnightblue" points="65.0091,-220.076 64.5899,-230.663 71.5194,-222.649 65.0091,-220.076"/>
</g>
<!-- Node3 -->
<g id="node4" class="node"><title>Node3</title>
<polygon fill="none" stroke="#bfbfbf" points="123.971,-231 123.971,-291 240.029,-291 240.029,-231 123.971,-231"/>
<text text-anchor="middle" x="182" y="-277" font-family="Helvetica,sans-Serif" font-size="10.00">IComparable&lt; Letter &gt;</text>
<polyline fill="none" stroke="#bfbfbf" points="123.971,-271 240.029,-271 "/>
<text text-anchor="middle" x="182" y="-257" font-family="Helvetica,sans-Serif" font-size="10.00"> </text>
<polyline fill="none" stroke="#bfbfbf" points="123.971,-251 240.029,-251 "/>
<text text-anchor="middle" x="182" y="-237" font-family="Helvetica,sans-Serif" font-size="10.00"> </text>
</g>
<!-- Node3&#45;&gt;Node1 -->
<g id="edge4" class="edge"><title>Node3&#45;&gt;Node1</title>
<path fill="none" stroke="midnightblue" d="M166.48,-221.318C163.012,-212.677 159.187,-203.142 155.244,-193.317"/>
<polygon fill="none" stroke="midnightblue" points="163.257,-222.686 170.229,-230.663 169.753,-220.079 163.257,-222.686"/>
</g>
</g>
</svg>
