<?xml version="1.0" encoding="UTF-8" standalone="no"?>
<!DOCTYPE svg PUBLIC "-//W3C//DTD SVG 1.1//EN"
 "http://www.w3.org/Graphics/SVG/1.1/DTD/svg11.dtd">
<!-- Generated by graphviz version 2.36.0 (20140111.2315)
 -->
<!-- Title: ExampleViewModel Pages: 1 -->
<svg width="154pt" height="238pt"
 viewBox="0.00 0.00 154.00 238.00" xmlns="http://www.w3.org/2000/svg" xmlns:xlink="http://www.w3.org/1999/xlink">
<g id="graph0" class="graph" transform="scale(1 1) rotate(0) translate(4 234)">
<title>ExampleViewModel</title>
<!-- Node1 -->
<g id="node1" class="node"><title>Node1</title>
<polygon fill="#bfbfbf" stroke="black" points="0,-1 0,-135 146,-135 146,-1 0,-1"/>
<text text-anchor="middle" x="73" y="-123" font-family="Helvetica,sans-Serif" font-size="10.00">ExampleViewModel</text>
<polyline fill="none" stroke="black" points="0,-116 146,-116 "/>
<text text-anchor="start" x="8" y="-104" font-family="Helvetica,sans-Serif" font-size="10.00">+ agent</text>
<text text-anchor="start" x="8" y="-93" font-family="Helvetica,sans-Serif" font-size="10.00">+ game</text>
<text text-anchor="start" x="8" y="-82" font-family="Helvetica,sans-Serif" font-size="10.00">+ languages</text>
<text text-anchor="start" x="8" y="-71" font-family="Helvetica,sans-Serif" font-size="10.00">+ player</text>
<text text-anchor="start" x="8" y="-60" font-family="Helvetica,sans-Serif" font-size="10.00">+ showWildcardPanel</text>
<text text-anchor="start" x="8" y="-49" font-family="Helvetica,sans-Serif" font-size="10.00">+ submitButtonEnabled</text>
<text text-anchor="start" x="8" y="-38" font-family="Helvetica,sans-Serif" font-size="10.00">+ wildcardPanelScrollPosition</text>
<text text-anchor="start" x="8" y="-27" font-family="Helvetica,sans-Serif" font-size="10.00">+ wildcardPanelSelection</text>
<polyline fill="none" stroke="black" points="0,-20 146,-20 "/>
<text text-anchor="middle" x="73" y="-8" font-family="Helvetica,sans-Serif" font-size="10.00"> </text>
</g>
<!-- Node2 -->
<g id="node2" class="node"><title>Node2</title>
<polygon fill="none" stroke="#bfbfbf" points="31.5,-172.5 31.5,-229.5 114.5,-229.5 114.5,-172.5 31.5,-172.5"/>
<text text-anchor="middle" x="73" y="-217.5" font-family="Helvetica,sans-Serif" font-size="10.00">MonoBehaviour</text>
<polyline fill="none" stroke="#bfbfbf" points="31.5,-210.5 114.5,-210.5 "/>
<text text-anchor="middle" x="73" y="-198.5" font-family="Helvetica,sans-Serif" font-size="10.00"> </text>
<polyline fill="none" stroke="#bfbfbf" points="31.5,-191.5 114.5,-191.5 "/>
<text text-anchor="middle" x="73" y="-179.5" font-family="Helvetica,sans-Serif" font-size="10.00"> </text>
</g>
<!-- Node2&#45;&gt;Node1 -->
<g id="edge1" class="edge"><title>Node2&#45;&gt;Node1</title>
<path fill="none" stroke="midnightblue" d="M73,-161.942C73,-153.47 73,-144.249 73,-135.016"/>
<polygon fill="none" stroke="midnightblue" points="69.5001,-162.218 73,-172.218 76.5001,-162.218 69.5001,-162.218"/>
</g>
</g>
</svg>
