<?xml version="1.0" encoding="UTF-8" standalone="no"?>
<!DOCTYPE svg PUBLIC "-//W3C//DTD SVG 1.1//EN"
 "http://www.w3.org/Graphics/SVG/1.1/DTD/svg11.dtd">
<!-- Generated by graphviz version 2.36.0 (20140111.2315)
 -->
<!-- Title: LetterComparer Pages: 1 -->
<svg width="110pt" height="184pt"
 viewBox="0.00 0.00 110.00 184.00" xmlns="http://www.w3.org/2000/svg" xmlns:xlink="http://www.w3.org/1999/xlink">
<g id="graph0" class="graph" transform="scale(1 1) rotate(0) translate(4 180)">
<title>LetterComparer</title>
<!-- Node1 -->
<g id="node1" class="node"><title>Node1</title>
<polygon fill="#bfbfbf" stroke="black" points="5,-1 5,-69 97,-69 97,-1 5,-1"/>
<text text-anchor="middle" x="51" y="-57" font-family="Helvetica,sans-Serif" font-size="10.00">LetterComparer</text>
<polyline fill="none" stroke="black" points="5,-50 97,-50 "/>
<text text-anchor="middle" x="51" y="-38" font-family="Helvetica,sans-Serif" font-size="10.00"> </text>
<polyline fill="none" stroke="black" points="5,-31 97,-31 "/>
<text text-anchor="start" x="13" y="-19" font-family="Helvetica,sans-Serif" font-size="10.00">+ Equals()</text>
<text text-anchor="start" x="13" y="-8" font-family="Helvetica,sans-Serif" font-size="10.00">+ GetHashCode()</text>
</g>
<!-- Node2 -->
<g id="node2" class="node"><title>Node2</title>
<polygon fill="none" stroke="#bfbfbf" points="0,-107 0,-175 102,-175 102,-107 0,-107"/>
<text text-anchor="start" x="8" y="-163" font-family="Helvetica,sans-Serif" font-size="10.00">IEqualityComparer&lt;</text>
<text text-anchor="middle" x="51" y="-152" font-family="Helvetica,sans-Serif" font-size="10.00"> Letter &gt;</text>
<polyline fill="none" stroke="#bfbfbf" points="0,-145 102,-145 "/>
<text text-anchor="middle" x="51" y="-133" font-family="Helvetica,sans-Serif" font-size="10.00"> </text>
<polyline fill="none" stroke="#bfbfbf" points="0,-126 102,-126 "/>
<text text-anchor="middle" x="51" y="-114" font-family="Helvetica,sans-Serif" font-size="10.00"> </text>
</g>
<!-- Node2&#45;&gt;Node1 -->
<g id="edge1" class="edge"><title>Node2&#45;&gt;Node1</title>
<path fill="none" stroke="midnightblue" d="M51,-96.6737C51,-87.5025 51,-77.9608 51,-69.2336"/>
<polygon fill="none" stroke="midnightblue" points="47.5001,-96.8078 51,-106.808 54.5001,-96.8078 47.5001,-96.8078"/>
</g>
</g>
</svg>
