<?xml version="1.0" encoding="UTF-8" standalone="no"?>
<!DOCTYPE svg PUBLIC "-//W3C//DTD SVG 1.1//EN"
 "http://www.w3.org/Graphics/SVG/1.1/DTD/svg11.dtd">
<!-- Generated by graphviz version 2.36.0 (20140111.2315)
 -->
<!-- Title: LetterTileUguiInput Pages: 1 -->
<svg width="936pt" height="442pt"
 viewBox="0.00 0.00 936.00 442.00" xmlns="http://www.w3.org/2000/svg" xmlns:xlink="http://www.w3.org/1999/xlink">
<g id="graph0" class="graph" transform="scale(1 1) rotate(0) translate(4 438)">
<title>LetterTileUguiInput</title>
<!-- Node1 -->
<g id="node1" class="node"><title>Node1</title>
<polygon fill="#bfbfbf" stroke="black" points="467.5,-0.5 467.5,-57.5 564.5,-57.5 564.5,-0.5 467.5,-0.5"/>
<text text-anchor="middle" x="516" y="-45.5" font-family="Helvetica,sans-Serif" font-size="10.00">LetterTileUguiInput</text>
<polyline fill="none" stroke="black" points="467.5,-38.5 564.5,-38.5 "/>
<text text-anchor="middle" x="516" y="-26.5" font-family="Helvetica,sans-Serif" font-size="10.00"> </text>
<polyline fill="none" stroke="black" points="467.5,-19.5 564.5,-19.5 "/>
<text text-anchor="middle" x="516" y="-7.5" font-family="Helvetica,sans-Serif" font-size="10.00"> </text>
</g>
<!-- Node2 -->
<g id="node2" class="node"><title>Node2</title>
<g id="a_node2"><a xlink:href="$class_thinksquirrel_1_1_word_game_builder_1_1_w_g_b_base.html" xlink:title="The base class for all Word Game Builder components. ">
<polygon fill="none" stroke="black" points="-0.5,-95 -0.5,-339 196.5,-339 196.5,-95 -0.5,-95"/>
<text text-anchor="middle" x="98" y="-327" font-family="Helvetica,sans-Serif" font-size="10.00">WGBBase</text>
<polyline fill="none" stroke="black" points="-0.5,-320 196.5,-320 "/>
<text text-anchor="start" x="7.5" y="-308" font-family="Helvetica,sans-Serif" font-size="10.00">+ userData</text>
<polyline fill="none" stroke="black" points="-0.5,-301 196.5,-301 "/>
<text text-anchor="start" x="7.5" y="-289" font-family="Helvetica,sans-Serif" font-size="10.00">+ GetComponentFromInterface&lt; T &gt;()</text>
<text text-anchor="start" x="7.5" y="-278" font-family="Helvetica,sans-Serif" font-size="10.00">+ GetComponentInChildrenFrom</text>
<text text-anchor="start" x="7.5" y="-267" font-family="Helvetica,sans-Serif" font-size="10.00">Interface&lt; T &gt;()</text>
<text text-anchor="start" x="7.5" y="-256" font-family="Helvetica,sans-Serif" font-size="10.00">+ GetComponentsFromInterface&lt; T &gt;()</text>
<text text-anchor="start" x="7.5" y="-245" font-family="Helvetica,sans-Serif" font-size="10.00">+ GetComponentsInChildrenFrom</text>
<text text-anchor="start" x="7.5" y="-234" font-family="Helvetica,sans-Serif" font-size="10.00">Interface&lt; T &gt;()</text>
<text text-anchor="start" x="7.5" y="-223" font-family="Helvetica,sans-Serif" font-size="10.00">+ FindObjectOfTypeFromInterface&lt; T &gt;()</text>
<text text-anchor="start" x="7.5" y="-212" font-family="Helvetica,sans-Serif" font-size="10.00">+ FindObjectsOfTypeFromInterface&lt; T &gt;()</text>
<text text-anchor="start" x="7.5" y="-201" font-family="Helvetica,sans-Serif" font-size="10.00">+ InstantiateFromInterface&lt; T &gt;()</text>
<text text-anchor="start" x="7.5" y="-190" font-family="Helvetica,sans-Serif" font-size="10.00">+ InstantiateFromInterface&lt; T &gt;()</text>
<text text-anchor="start" x="7.5" y="-179" font-family="Helvetica,sans-Serif" font-size="10.00">+ Log()</text>
<text text-anchor="start" x="7.5" y="-168" font-family="Helvetica,sans-Serif" font-size="10.00">+ Log()</text>
<text text-anchor="start" x="7.5" y="-157" font-family="Helvetica,sans-Serif" font-size="10.00">+ LogError()</text>
<text text-anchor="start" x="7.5" y="-146" font-family="Helvetica,sans-Serif" font-size="10.00">+ LogError()</text>
<text text-anchor="start" x="7.5" y="-135" font-family="Helvetica,sans-Serif" font-size="10.00">+ LogException()</text>
<text text-anchor="start" x="7.5" y="-124" font-family="Helvetica,sans-Serif" font-size="10.00">+ LogException()</text>
<text text-anchor="start" x="7.5" y="-113" font-family="Helvetica,sans-Serif" font-size="10.00">+ LogWarning()</text>
<text text-anchor="start" x="7.5" y="-102" font-family="Helvetica,sans-Serif" font-size="10.00">+ LogWarning()</text>
</a>
</g>
</g>
<!-- Node2&#45;&gt;Node1 -->
<g id="edge1" class="edge"><title>Node2&#45;&gt;Node1</title>
<path fill="none" stroke="midnightblue" d="M205.106,-94.5216C205.404,-94.3466 205.702,-94.1728 206,-94 289.105,-45.8761 403.202,-33.6307 467.255,-30.7054"/>
<polygon fill="none" stroke="midnightblue" points="203.181,-91.5976 196.591,-99.893 206.916,-97.5181 203.181,-91.5976"/>
</g>
<!-- Node3 -->
<g id="node3" class="node"><title>Node3</title>
<polygon fill="none" stroke="#bfbfbf" points="56.5,-376.5 56.5,-433.5 139.5,-433.5 139.5,-376.5 56.5,-376.5"/>
<text text-anchor="middle" x="98" y="-421.5" font-family="Helvetica,sans-Serif" font-size="10.00">MonoBehaviour</text>
<polyline fill="none" stroke="#bfbfbf" points="56.5,-414.5 139.5,-414.5 "/>
<text text-anchor="middle" x="98" y="-402.5" font-family="Helvetica,sans-Serif" font-size="10.00"> </text>
<polyline fill="none" stroke="#bfbfbf" points="56.5,-395.5 139.5,-395.5 "/>
<text text-anchor="middle" x="98" y="-383.5" font-family="Helvetica,sans-Serif" font-size="10.00"> </text>
</g>
<!-- Node3&#45;&gt;Node2 -->
<g id="edge2" class="edge"><title>Node3&#45;&gt;Node2</title>
<path fill="none" stroke="midnightblue" d="M98,-365.933C98,-357.741 98,-348.663 98,-339.15"/>
<polygon fill="none" stroke="midnightblue" points="94.5001,-366.154 98,-376.154 101.5,-366.154 94.5001,-366.154"/>
</g>
<!-- Node4 -->
<g id="node4" class="node"><title>Node4</title>
<polygon fill="none" stroke="#bfbfbf" points="215,-188.5 215,-245.5 325,-245.5 325,-188.5 215,-188.5"/>
<text text-anchor="middle" x="270" y="-233.5" font-family="Helvetica,sans-Serif" font-size="10.00">IEventSystemHandler</text>
<polyline fill="none" stroke="#bfbfbf" points="215,-226.5 325,-226.5 "/>
<text text-anchor="middle" x="270" y="-214.5" font-family="Helvetica,sans-Serif" font-size="10.00"> </text>
<polyline fill="none" stroke="#bfbfbf" points="215,-207.5 325,-207.5 "/>
<text text-anchor="middle" x="270" y="-195.5" font-family="Helvetica,sans-Serif" font-size="10.00"> </text>
</g>
<!-- Node4&#45;&gt;Node1 -->
<g id="edge3" class="edge"><title>Node4&#45;&gt;Node1</title>
<path fill="none" stroke="midnightblue" d="M281.196,-178.97C291.097,-152.009 308.056,-116.431 334,-94 371.879,-61.2502 427.585,-44.9248 467.379,-37.0094"/>
<polygon fill="none" stroke="midnightblue" points="277.87,-177.877 277.865,-188.472 284.476,-180.193 277.87,-177.877"/>
</g>
<!-- Node5 -->
<g id="node5" class="node"><title>Node5</title>
<polygon fill="none" stroke="#bfbfbf" points="343.5,-188.5 343.5,-245.5 450.5,-245.5 450.5,-188.5 343.5,-188.5"/>
<text text-anchor="middle" x="397" y="-233.5" font-family="Helvetica,sans-Serif" font-size="10.00">IPointerDownHandler</text>
<polyline fill="none" stroke="#bfbfbf" points="343.5,-226.5 450.5,-226.5 "/>
<text text-anchor="middle" x="397" y="-214.5" font-family="Helvetica,sans-Serif" font-size="10.00"> </text>
<polyline fill="none" stroke="#bfbfbf" points="343.5,-207.5 450.5,-207.5 "/>
<text text-anchor="middle" x="397" y="-195.5" font-family="Helvetica,sans-Serif" font-size="10.00"> </text>
</g>
<!-- Node5&#45;&gt;Node1 -->
<g id="edge4" class="edge"><title>Node5&#45;&gt;Node1</title>
<path fill="none" stroke="midnightblue" d="M412.732,-179.091C424.079,-154.147 440.592,-120.971 459,-94 467.639,-81.3419 478.554,-68.5093 488.514,-57.6916"/>
<polygon fill="none" stroke="midnightblue" points="409.537,-177.661 408.643,-188.218 415.925,-180.523 409.537,-177.661"/>
</g>
<!-- Node6 -->
<g id="node6" class="node"><title>Node6</title>
<polygon fill="none" stroke="#bfbfbf" points="468.5,-188.5 468.5,-245.5 563.5,-245.5 563.5,-188.5 468.5,-188.5"/>
<text text-anchor="middle" x="516" y="-233.5" font-family="Helvetica,sans-Serif" font-size="10.00">IPointerUpHandler</text>
<polyline fill="none" stroke="#bfbfbf" points="468.5,-226.5 563.5,-226.5 "/>
<text text-anchor="middle" x="516" y="-214.5" font-family="Helvetica,sans-Serif" font-size="10.00"> </text>
<polyline fill="none" stroke="#bfbfbf" points="468.5,-207.5 563.5,-207.5 "/>
<text text-anchor="middle" x="516" y="-195.5" font-family="Helvetica,sans-Serif" font-size="10.00"> </text>
</g>
<!-- Node6&#45;&gt;Node1 -->
<g id="edge5" class="edge"><title>Node6&#45;&gt;Node1</title>
<path fill="none" stroke="midnightblue" d="M516,-178.107C516,-142.383 516,-89.6898 516,-57.7323"/>
<polygon fill="none" stroke="midnightblue" points="512.5,-178.154 516,-188.154 519.5,-178.154 512.5,-178.154"/>
</g>
<!-- Node7 -->
<g id="node7" class="node"><title>Node7</title>
<polygon fill="none" stroke="#bfbfbf" points="582,-188.5 582,-245.5 688,-245.5 688,-188.5 582,-188.5"/>
<text text-anchor="middle" x="635" y="-233.5" font-family="Helvetica,sans-Serif" font-size="10.00">IPointerEnterHandler</text>
<polyline fill="none" stroke="#bfbfbf" points="582,-226.5 688,-226.5 "/>
<text text-anchor="middle" x="635" y="-214.5" font-family="Helvetica,sans-Serif" font-size="10.00"> </text>
<polyline fill="none" stroke="#bfbfbf" points="582,-207.5 688,-207.5 "/>
<text text-anchor="middle" x="635" y="-195.5" font-family="Helvetica,sans-Serif" font-size="10.00"> </text>
</g>
<!-- Node7&#45;&gt;Node1 -->
<g id="edge6" class="edge"><title>Node7&#45;&gt;Node1</title>
<path fill="none" stroke="midnightblue" d="M618.843,-179.163C607.238,-154.25 590.439,-121.082 572,-94 563.442,-81.4298 552.705,-68.6144 542.928,-57.7859"/>
<polygon fill="none" stroke="midnightblue" points="615.675,-180.65 623.029,-188.277 622.036,-177.728 615.675,-180.65"/>
</g>
<!-- Node8 -->
<g id="node8" class="node"><title>Node8</title>
<polygon fill="none" stroke="#bfbfbf" points="706,-188.5 706,-245.5 806,-245.5 806,-188.5 706,-188.5"/>
<text text-anchor="middle" x="756" y="-233.5" font-family="Helvetica,sans-Serif" font-size="10.00">IPointerExitHandler</text>
<polyline fill="none" stroke="#bfbfbf" points="706,-226.5 806,-226.5 "/>
<text text-anchor="middle" x="756" y="-214.5" font-family="Helvetica,sans-Serif" font-size="10.00"> </text>
<polyline fill="none" stroke="#bfbfbf" points="706,-207.5 806,-207.5 "/>
<text text-anchor="middle" x="756" y="-195.5" font-family="Helvetica,sans-Serif" font-size="10.00"> </text>
</g>
<!-- Node8&#45;&gt;Node1 -->
<g id="edge7" class="edge"><title>Node8&#45;&gt;Node1</title>
<path fill="none" stroke="midnightblue" d="M746.189,-178.404C737.392,-151.539 721.949,-116.332 697,-94 659.873,-60.7667 604.381,-44.5225 564.636,-36.7584"/>
<polygon fill="none" stroke="midnightblue" points="742.936,-179.733 749.24,-188.248 749.622,-177.66 742.936,-179.733"/>
</g>
<!-- Node9 -->
<g id="node9" class="node"><title>Node9</title>
<polygon fill="none" stroke="#bfbfbf" points="824,-188.5 824,-245.5 928,-245.5 928,-188.5 824,-188.5"/>
<text text-anchor="middle" x="876" y="-233.5" font-family="Helvetica,sans-Serif" font-size="10.00">IPointerClickHandler</text>
<polyline fill="none" stroke="#bfbfbf" points="824,-226.5 928,-226.5 "/>
<text text-anchor="middle" x="876" y="-214.5" font-family="Helvetica,sans-Serif" font-size="10.00"> </text>
<polyline fill="none" stroke="#bfbfbf" points="824,-207.5 928,-207.5 "/>
<text text-anchor="middle" x="876" y="-195.5" font-family="Helvetica,sans-Serif" font-size="10.00"> </text>
</g>
<!-- Node9&#45;&gt;Node1 -->
<g id="edge8" class="edge"><title>Node9&#45;&gt;Node1</title>
<path fill="none" stroke="midnightblue" d="M866.802,-178.783C858.051,-151.236 842.096,-114.986 815,-94 776.441,-64.1351 639.191,-44.17 564.791,-35.2794"/>
<polygon fill="none" stroke="midnightblue" points="863.488,-179.917 869.707,-188.495 870.194,-177.911 863.488,-179.917"/>
</g>
</g>
</svg>
