<?xml version="1.0" encoding="UTF-8" standalone="no"?>
<!DOCTYPE svg PUBLIC "-//W3C//DTD SVG 1.1//EN"
 "http://www.w3.org/Graphics/SVG/1.1/DTD/svg11.dtd">
<!-- Generated by graphviz version 2.36.0 (20140111.2315)
 -->
<!-- Title: ExampleViewModel.GameContext Pages: 1 -->
<svg width="172pt" height="194pt"
 viewBox="0.00 0.00 172.00 194.00" xmlns="http://www.w3.org/2000/svg" xmlns:xlink="http://www.w3.org/1999/xlink">
<g id="graph0" class="graph" transform="scale(1 1) rotate(0) translate(4 190)">
<title>ExampleViewModel.GameContext</title>
<!-- Node1 -->
<g id="node1" class="node"><title>Node1</title>
<polygon fill="#bfbfbf" stroke="black" points="-0.5,-1 -0.5,-91 164.5,-91 164.5,-1 -0.5,-1"/>
<text text-anchor="middle" x="82" y="-79" font-family="Helvetica,sans-Serif" font-size="10.00">ExampleViewModel.GameContext</text>
<polyline fill="none" stroke="black" points="-0.5,-72 164.5,-72 "/>
<text text-anchor="start" x="7.5" y="-60" font-family="Helvetica,sans-Serif" font-size="10.00">+ isInitialized</text>
<text text-anchor="start" x="7.5" y="-49" font-family="Helvetica,sans-Serif" font-size="10.00">+ tilePoolExists</text>
<text text-anchor="start" x="7.5" y="-38" font-family="Helvetica,sans-Serif" font-size="10.00">+ tilesRemaining</text>
<polyline fill="none" stroke="black" points="-0.5,-31 164.5,-31 "/>
<text text-anchor="start" x="7.5" y="-19" font-family="Helvetica,sans-Serif" font-size="10.00">+ ResetTiles()</text>
<text text-anchor="start" x="7.5" y="-8" font-family="Helvetica,sans-Serif" font-size="10.00">+ SelectWildcardLetter()</text>
</g>
<!-- Node2 -->
<g id="node2" class="node"><title>Node2</title>
<g id="a_node2"><a xlink:href="$class_thinksquirrel_1_1_word_game_builder_example_1_1_example_view_model_1_1_ui_context.html" xlink:title="Represents a base class for all user interface contexts. ">
<polygon fill="none" stroke="black" points="52.5,-128.5 52.5,-185.5 111.5,-185.5 111.5,-128.5 52.5,-128.5"/>
<text text-anchor="middle" x="82" y="-173.5" font-family="Helvetica,sans-Serif" font-size="10.00">UiContext</text>
<polyline fill="none" stroke="black" points="52.5,-166.5 111.5,-166.5 "/>
<text text-anchor="middle" x="82" y="-154.5" font-family="Helvetica,sans-Serif" font-size="10.00"> </text>
<polyline fill="none" stroke="black" points="52.5,-147.5 111.5,-147.5 "/>
<text text-anchor="middle" x="82" y="-135.5" font-family="Helvetica,sans-Serif" font-size="10.00"> </text>
</a>
</g>
</g>
<!-- Node2&#45;&gt;Node1 -->
<g id="edge1" class="edge"><title>Node2&#45;&gt;Node1</title>
<path fill="none" stroke="midnightblue" d="M82,-118.484C82,-109.643 82,-100.139 82,-91.0399"/>
<polygon fill="none" stroke="midnightblue" points="78.5001,-118.495 82,-128.495 85.5001,-118.495 78.5001,-118.495"/>
</g>
</g>
</svg>
