<?xml version="1.0" encoding="UTF-8" standalone="no"?>
<!DOCTYPE svg PUBLIC "-//W3C//DTD SVG 1.1//EN"
 "http://www.w3.org/Graphics/SVG/1.1/DTD/svg11.dtd">
<!-- Generated by graphviz version 2.36.0 (20140111.2315)
 -->
<!-- Title: LetterList Pages: 1 -->
<svg width="106pt" height="292pt"
 viewBox="0.00 0.00 106.00 292.00" xmlns="http://www.w3.org/2000/svg" xmlns:xlink="http://www.w3.org/1999/xlink">
<g id="graph0" class="graph" transform="scale(1 1) rotate(0) translate(4 288)">
<title>LetterList</title>
<!-- Node1 -->
<g id="node1" class="node"><title>Node1</title>
<polygon fill="#bfbfbf" stroke="black" points="0,-0.5 0,-189.5 98,-189.5 98,-0.5 0,-0.5"/>
<text text-anchor="middle" x="49" y="-177.5" font-family="Helvetica,sans-Serif" font-size="10.00">LetterList</text>
<polyline fill="none" stroke="black" points="0,-170.5 98,-170.5 "/>
<text text-anchor="start" x="8" y="-158.5" font-family="Helvetica,sans-Serif" font-size="10.00">+ Count</text>
<text text-anchor="start" x="8" y="-147.5" font-family="Helvetica,sans-Serif" font-size="10.00">+ IsReadOnly</text>
<text text-anchor="start" x="8" y="-136.5" font-family="Helvetica,sans-Serif" font-size="10.00">+ this[int index]</text>
<polyline fill="none" stroke="black" points="0,-129.5 98,-129.5 "/>
<text text-anchor="start" x="8" y="-117.5" font-family="Helvetica,sans-Serif" font-size="10.00">+ LetterList()</text>
<text text-anchor="start" x="8" y="-106.5" font-family="Helvetica,sans-Serif" font-size="10.00">+ LetterList()</text>
<text text-anchor="start" x="8" y="-95.5" font-family="Helvetica,sans-Serif" font-size="10.00">+ LetterList()</text>
<text text-anchor="start" x="8" y="-84.5" font-family="Helvetica,sans-Serif" font-size="10.00">+ Add()</text>
<text text-anchor="start" x="8" y="-73.5" font-family="Helvetica,sans-Serif" font-size="10.00">+ AddRange()</text>
<text text-anchor="start" x="8" y="-62.5" font-family="Helvetica,sans-Serif" font-size="10.00">+ Clear()</text>
<text text-anchor="start" x="8" y="-51.5" font-family="Helvetica,sans-Serif" font-size="10.00">+ Contains()</text>
<text text-anchor="start" x="8" y="-40.5" font-family="Helvetica,sans-Serif" font-size="10.00">+ CopyTo()</text>
<text text-anchor="start" x="8" y="-29.5" font-family="Helvetica,sans-Serif" font-size="10.00">+ GetEnumerator()</text>
<text text-anchor="start" x="8" y="-18.5" font-family="Helvetica,sans-Serif" font-size="10.00">+ IndexOf()</text>
<text text-anchor="start" x="8" y="-7.5" font-family="Helvetica,sans-Serif" font-size="10.00">and 7 more...</text>
</g>
<!-- Node2 -->
<g id="node2" class="node"><title>Node2</title>
<polygon fill="none" stroke="#bfbfbf" points="10.5,-226.5 10.5,-283.5 87.5,-283.5 87.5,-226.5 10.5,-226.5"/>
<text text-anchor="middle" x="49" y="-271.5" font-family="Helvetica,sans-Serif" font-size="10.00">IList&lt; Letter &gt;</text>
<polyline fill="none" stroke="#bfbfbf" points="10.5,-264.5 87.5,-264.5 "/>
<text text-anchor="middle" x="49" y="-252.5" font-family="Helvetica,sans-Serif" font-size="10.00"> </text>
<polyline fill="none" stroke="#bfbfbf" points="10.5,-245.5 87.5,-245.5 "/>
<text text-anchor="middle" x="49" y="-233.5" font-family="Helvetica,sans-Serif" font-size="10.00"> </text>
</g>
<!-- Node2&#45;&gt;Node1 -->
<g id="edge1" class="edge"><title>Node2&#45;&gt;Node1</title>
<path fill="none" stroke="midnightblue" d="M49,-216.215C49,-208.012 49,-198.986 49,-189.678"/>
<polygon fill="none" stroke="midnightblue" points="45.5001,-216.478 49,-226.479 52.5001,-216.479 45.5001,-216.478"/>
</g>
</g>
</svg>
