<?xml version="1.0" encoding="UTF-8" standalone="no"?>
<!DOCTYPE svg PUBLIC "-//W3C//DTD SVG 1.1//EN"
 "http://www.w3.org/Graphics/SVG/1.1/DTD/svg11.dtd">
<!-- Generated by graphviz version 2.36.0 (20140111.2315)
 -->
<!-- Title: Graphical Class Hierarchy Pages: 1 -->
<svg width="206pt" height="66pt"
 viewBox="0.00 0.00 206.00 66.00" xmlns="http://www.w3.org/2000/svg" xmlns:xlink="http://www.w3.org/1999/xlink">
<g id="graph0" class="graph" transform="scale(1 1) rotate(0) translate(4 62)">
<title>Graphical Class Hierarchy</title>
<!-- Node1 -->
<g id="node1" class="node"><title>Node1</title>
<polygon fill="none" stroke="#bfbfbf" points="0.5,-19.5 0.5,-38.5 77.5,-38.5 77.5,-19.5 0.5,-19.5"/>
<text text-anchor="middle" x="39" y="-26.5" font-family="Helvetica,sans-Serif" font-size="10.00">EditorWindow</text>
</g>
<!-- Node2 -->
<g id="node2" class="node"><title>Node2</title>
<g id="a_node2"><a xlink:href="$class_thinksquirrel_1_1_word_game_builder_editor_1_1_culture_i_d_popup.html" xlink:title="A popup window for picking a culture ID in the language editor. ">
<polygon fill="none" stroke="black" points="114,-38.5 114,-57.5 198,-57.5 198,-38.5 114,-38.5"/>
<text text-anchor="middle" x="156" y="-45.5" font-family="Helvetica,sans-Serif" font-size="10.00">CultureIDPopup</text>
</a>
</g>
</g>
<!-- Node1&#45;&gt;Node2 -->
<g id="edge1" class="edge"><title>Node1&#45;&gt;Node2</title>
<path fill="none" stroke="midnightblue" d="M87.6219,-36.868C96.274,-38.2974 105.234,-39.7777 113.685,-41.1741"/>
<polygon fill="midnightblue" stroke="midnightblue" points="88.0921,-33.3983 77.6553,-35.2213 86.951,-40.3047 88.0921,-33.3983"/>
</g>
<!-- Node3 -->
<g id="node3" class="node"><title>Node3</title>
<g id="a_node3"><a xlink:href="$class_thinksquirrel_1_1_word_game_builder_editor_1_1_language_editor.html" xlink:title="Various resources for modifying languages through editor scripts. ">
<polygon fill="none" stroke="black" points="114,-0.5 114,-19.5 198,-19.5 198,-0.5 114,-0.5"/>
<text text-anchor="middle" x="156" y="-7.5" font-family="Helvetica,sans-Serif" font-size="10.00">LanguageEditor</text>
</a>
</g>
</g>
<!-- Node1&#45;&gt;Node3 -->
<g id="edge2" class="edge"><title>Node1&#45;&gt;Node3</title>
<path fill="none" stroke="midnightblue" d="M87.6219,-21.132C96.274,-19.7026 105.234,-18.2223 113.685,-16.8259"/>
<polygon fill="midnightblue" stroke="midnightblue" points="86.951,-17.6953 77.6553,-22.7787 88.0921,-24.6017 86.951,-17.6953"/>
</g>
</g>
</svg>
