<?xml version="1.0" encoding="UTF-8" standalone="no"?>
<!DOCTYPE svg PUBLIC "-//W3C//DTD SVG 1.1//EN"
 "http://www.w3.org/Graphics/SVG/1.1/DTD/svg11.dtd">
<!-- Generated by graphviz version 2.36.0 (20140111.2315)
 -->
<!-- Title: Graphical Class Hierarchy Pages: 1 -->
<svg width="510pt" height="750pt"
 viewBox="0.00 0.00 510.00 750.00" xmlns="http://www.w3.org/2000/svg" xmlns:xlink="http://www.w3.org/1999/xlink">
<g id="graph0" class="graph" transform="scale(1 1) rotate(0) translate(4 746)">
<title>Graphical Class Hierarchy</title>
<!-- Node1 -->
<g id="node1" class="node"><title>Node1</title>
<polygon fill="none" stroke="#bfbfbf" points="1.5,-266.5 1.5,-285.5 84.5,-285.5 84.5,-266.5 1.5,-266.5"/>
<text text-anchor="middle" x="43" y="-273.5" font-family="Helvetica,sans-Serif" font-size="10.00">MonoBehaviour</text>
</g>
<!-- Node2 -->
<g id="node2" class="node"><title>Node2</title>
<g id="a_node2"><a xlink:href="$class_thinksquirrel_1_1_word_game_builder_1_1_w_g_b_base.html" xlink:title="The base class for all Word Game Builder components. ">
<polygon fill="none" stroke="black" points="145.5,-304.5 145.5,-323.5 208.5,-323.5 208.5,-304.5 145.5,-304.5"/>
<text text-anchor="middle" x="177" y="-311.5" font-family="Helvetica,sans-Serif" font-size="10.00">WGBBase</text>
</a>
</g>
</g>
<!-- Node1&#45;&gt;Node2 -->
<g id="edge1" class="edge"><title>Node1&#45;&gt;Node2</title>
<path fill="none" stroke="midnightblue" d="M86.9757,-288.372C106.049,-293.863 128.055,-300.198 145.416,-305.195"/>
<polygon fill="midnightblue" stroke="midnightblue" points="87.8872,-284.992 77.3092,-285.589 85.9506,-291.719 87.8872,-284.992"/>
</g>
<!-- Node20 -->
<g id="node20" class="node"><title>Node20</title>
<g id="a_node20"><a xlink:href="$class_thinksquirrel_1_1_word_game_builder_example_1_1_example_view.html" xlink:title="This class is responsible for rendering the UI. ">
<polygon fill="none" stroke="black" points="139,-266.5 139,-285.5 215,-285.5 215,-266.5 139,-266.5"/>
<text text-anchor="middle" x="177" y="-273.5" font-family="Helvetica,sans-Serif" font-size="10.00">ExampleView</text>
</a>
</g>
</g>
<!-- Node1&#45;&gt;Node20 -->
<g id="edge19" class="edge"><title>Node1&#45;&gt;Node20</title>
<path fill="none" stroke="midnightblue" d="M95.0698,-276C109.645,-276 125.246,-276 138.822,-276"/>
<polygon fill="midnightblue" stroke="midnightblue" points="94.6815,-272.5 84.6814,-276 94.6814,-279.5 94.6815,-272.5"/>
</g>
<!-- Node21 -->
<g id="node21" class="node"><title>Node21</title>
<g id="a_node21"><a xlink:href="$class_thinksquirrel_1_1_word_game_builder_example_1_1_example_view_model.html" xlink:title="This class is responsible for sending and receiving data between the game and the UI...">
<polygon fill="none" stroke="black" points="126,-228.5 126,-247.5 228,-247.5 228,-228.5 126,-228.5"/>
<text text-anchor="middle" x="177" y="-235.5" font-family="Helvetica,sans-Serif" font-size="10.00">ExampleViewModel</text>
</a>
</g>
</g>
<!-- Node1&#45;&gt;Node21 -->
<g id="edge20" class="edge"><title>Node1&#45;&gt;Node21</title>
<path fill="none" stroke="midnightblue" d="M87.0409,-263.609C105.118,-258.406 125.819,-252.446 142.701,-247.586"/>
<polygon fill="midnightblue" stroke="midnightblue" points="85.9506,-260.281 77.3092,-266.411 87.8872,-267.008 85.9506,-260.281"/>
</g>
<!-- Node3 -->
<g id="node3" class="node"><title>Node3</title>
<g id="a_node3"><a xlink:href="$class_thinksquirrel_1_1_word_game_builder_1_1_gameplay_1_1_tile_pool.html" xlink:title="A class that manages an instance pool of letter tiles. ">
<polygon fill="none" stroke="black" points="313.5,-570.5 313.5,-589.5 364.5,-589.5 364.5,-570.5 313.5,-570.5"/>
<text text-anchor="middle" x="339" y="-577.5" font-family="Helvetica,sans-Serif" font-size="10.00">TilePool</text>
</a>
</g>
</g>
<!-- Node2&#45;&gt;Node3 -->
<g id="edge2" class="edge"><title>Node2&#45;&gt;Node3</title>
<path fill="none" stroke="midnightblue" d="M183.85,-333.119C200.878,-388.268 250.318,-544.751 268,-561 280.239,-572.247 298.467,-576.947 313.255,-578.862"/>
<polygon fill="midnightblue" stroke="midnightblue" points="187.181,-332.041 180.896,-323.512 180.49,-334.099 187.181,-332.041"/>
</g>
<!-- Node4 -->
<g id="node4" class="node"><title>Node4</title>
<g id="a_node4"><a xlink:href="$class_thinksquirrel_1_1_word_game_builder_1_1_gameplay_1_1_wildcard_tile_manager.html" xlink:title="A manager class for selecting wildcard tiles. ">
<polygon fill="none" stroke="black" points="285.5,-532.5 285.5,-551.5 392.5,-551.5 392.5,-532.5 285.5,-532.5"/>
<text text-anchor="middle" x="339" y="-539.5" font-family="Helvetica,sans-Serif" font-size="10.00">WildcardTileManager</text>
</a>
</g>
</g>
<!-- Node2&#45;&gt;Node4 -->
<g id="edge3" class="edge"><title>Node2&#45;&gt;Node4</title>
<path fill="none" stroke="midnightblue" d="M180.682,-333.518C187.419,-374.885 208.957,-471.776 268,-523 273.041,-527.374 278.995,-530.751 285.268,-533.356"/>
<polygon fill="midnightblue" stroke="midnightblue" points="184.141,-332.981 179.184,-323.617 177.219,-334.028 184.141,-332.981"/>
</g>
<!-- Node5 -->
<g id="node5" class="node"><title>Node5</title>
<g id="a_node5"><a xlink:href="$class_thinksquirrel_1_1_word_game_builder_1_1_gameplay_1_1_word_game_agent.html" xlink:title="Represents a word game AI agent. The agent is multithreaded and supports automatic selection/submissi...">
<polygon fill="none" stroke="black" points="293,-494.5 293,-513.5 385,-513.5 385,-494.5 293,-494.5"/>
<text text-anchor="middle" x="339" y="-501.5" font-family="Helvetica,sans-Serif" font-size="10.00">WordGameAgent</text>
</a>
</g>
</g>
<!-- Node2&#45;&gt;Node5 -->
<g id="edge4" class="edge"><title>Node2&#45;&gt;Node5</title>
<path fill="none" stroke="midnightblue" d="M182.757,-333.601C192.453,-369.288 217.944,-444.878 268,-485 275.173,-490.749 283.947,-494.765 292.826,-497.567"/>
<polygon fill="midnightblue" stroke="midnightblue" points="186.138,-332.695 180.245,-323.89 179.361,-334.448 186.138,-332.695"/>
</g>
<!-- Node6 -->
<g id="node6" class="node"><title>Node6</title>
<g id="a_node6"><a xlink:href="$class_thinksquirrel_1_1_word_game_builder_1_1_gameplay_1_1_word_game_player.html" xlink:title="Represents a word game player. It tracks scores, holds tiles, and can be controlled by an AI agent...">
<polygon fill="none" stroke="black" points="292,-608.5 292,-627.5 386,-627.5 386,-608.5 292,-608.5"/>
<text text-anchor="middle" x="339" y="-615.5" font-family="Helvetica,sans-Serif" font-size="10.00">WordGamePlayer</text>
</a>
</g>
</g>
<!-- Node2&#45;&gt;Node6 -->
<g id="edge5" class="edge"><title>Node2&#45;&gt;Node6</title>
<path fill="none" stroke="midnightblue" d="M184.169,-333.537C204.485,-397.869 268,-599 268,-599 274.631,-605.366 283.173,-609.646 291.996,-612.513"/>
<polygon fill="midnightblue" stroke="midnightblue" points="187.447,-332.292 181.098,-323.81 180.772,-334.4 187.447,-332.292"/>
</g>
<!-- Node7 -->
<g id="node7" class="node"><title>Node7</title>
<g id="a_node7"><a xlink:href="$class_thinksquirrel_1_1_word_game_builder_1_1_tiles_1_1_daikon_forge_1_1_letter_tile_daikon_forge_control.html" xlink:title="Adds Daikon Forge GUI display to a letter tile. ">
<polygon fill="none" stroke="black" points="268,-114.5 268,-133.5 410,-133.5 410,-114.5 268,-114.5"/>
<text text-anchor="middle" x="339" y="-121.5" font-family="Helvetica,sans-Serif" font-size="10.00">LetterTileDaikonForgeControl</text>
</a>
</g>
</g>
<!-- Node2&#45;&gt;Node7 -->
<g id="edge6" class="edge"><title>Node2&#45;&gt;Node7</title>
<path fill="none" stroke="midnightblue" d="M218.129,-305.082C223.324,-302.525 228.162,-299.234 232,-295 277.172,-245.161 222.628,-197.657 268,-148 273.806,-141.645 281.368,-136.973 289.369,-133.538"/>
<polygon fill="midnightblue" stroke="midnightblue" points="216.504,-301.963 208.53,-308.939 219.114,-308.458 216.504,-301.963"/>
</g>
<!-- Node8 -->
<g id="node8" class="node"><title>Node8</title>
<g id="a_node8"><a xlink:href="$class_thinksquirrel_1_1_word_game_builder_1_1_tiles_1_1_daikon_forge_1_1_letter_tile_daikon_forge_input.html" xlink:title="Adds input control to a letter tile, using DF&#45;GUI&#39;s events. ">
<polygon fill="none" stroke="black" points="273,-76.5 273,-95.5 405,-95.5 405,-76.5 273,-76.5"/>
<text text-anchor="middle" x="339" y="-83.5" font-family="Helvetica,sans-Serif" font-size="10.00">LetterTileDaikonForgeInput</text>
</a>
</g>
</g>
<!-- Node2&#45;&gt;Node8 -->
<g id="edge7" class="edge"><title>Node2&#45;&gt;Node8</title>
<path fill="none" stroke="midnightblue" d="M218.333,-305.263C223.5,-302.68 228.276,-299.334 232,-295 288.014,-229.814 209.636,-168.091 268,-105 271.506,-101.21 275.685,-98.1467 280.23,-95.6745"/>
<polygon fill="midnightblue" stroke="midnightblue" points="216.713,-302.143 208.754,-309.136 219.336,-308.632 216.713,-302.143"/>
</g>
<!-- Node9 -->
<g id="node9" class="node"><title>Node9</title>
<g id="a_node9"><a xlink:href="$class_thinksquirrel_1_1_word_game_builder_1_1_tiles_1_1_letter_tile.html" xlink:title="A standard letter tile. Includes support for selection, wildcard tiles, multiple colors, input, and state querying. ">
<polygon fill="none" stroke="black" points="446,-665.5 446,-684.5 502,-684.5 502,-665.5 446,-665.5"/>
<text text-anchor="middle" x="474" y="-672.5" font-family="Helvetica,sans-Serif" font-size="10.00">LetterTile</text>
</a>
</g>
</g>
<!-- Node2&#45;&gt;Node9 -->
<g id="edge8" class="edge"><title>Node2&#45;&gt;Node9</title>
<path fill="none" stroke="midnightblue" d="M218.052,-304.768C223.218,-302.256 228.068,-299.061 232,-295 268.956,-256.825 225.144,-212.408 268,-181 318.904,-143.693 362.635,-139.292 410,-181 447.959,-214.426 469.161,-599.487 472.525,-665.423"/>
<polygon fill="midnightblue" stroke="midnightblue" points="216.513,-301.615 208.541,-308.594 219.125,-308.109 216.513,-301.615"/>
</g>
<!-- Node10 -->
<g id="node10" class="node"><title>Node10</title>
<g id="a_node10"><a xlink:href="$class_thinksquirrel_1_1_word_game_builder_1_1_tiles_1_1_letter_tile_animation.html" xlink:title="Adds animation to a letter tile. ">
<polygon fill="none" stroke="black" points="289,-38.5 289,-57.5 389,-57.5 389,-38.5 289,-38.5"/>
<text text-anchor="middle" x="339" y="-45.5" font-family="Helvetica,sans-Serif" font-size="10.00">LetterTileAnimation</text>
</a>
</g>
</g>
<!-- Node2&#45;&gt;Node10 -->
<g id="edge9" class="edge"><title>Node2&#45;&gt;Node10</title>
<path fill="none" stroke="midnightblue" d="M218.286,-305.449C223.501,-302.841 228.303,-299.439 232,-295 297.66,-216.176 199.497,-143.366 268,-67 273.55,-60.8134 280.891,-56.5538 288.73,-53.6389"/>
<polygon fill="midnightblue" stroke="midnightblue" points="216.579,-302.363 208.603,-309.338 219.187,-308.859 216.579,-302.363"/>
</g>
<!-- Node11 -->
<g id="node11" class="node"><title>Node11</title>
<g id="a_node11"><a xlink:href="$class_thinksquirrel_1_1_word_game_builder_1_1_tiles_1_1_letter_tile_color_control.html" xlink:title="Automatically controls the color of objects based on a letter tile&#39;s state. ">
<polygon fill="none" stroke="black" points="284,-0.5 284,-19.5 394,-19.5 394,-0.5 284,-0.5"/>
<text text-anchor="middle" x="339" y="-7.5" font-family="Helvetica,sans-Serif" font-size="10.00">LetterTileColorControl</text>
</a>
</g>
</g>
<!-- Node2&#45;&gt;Node11 -->
<g id="edge10" class="edge"><title>Node2&#45;&gt;Node11</title>
<path fill="none" stroke="midnightblue" d="M218.374,-305.522C223.577,-302.904 228.352,-299.479 232,-295 307.339,-202.498 189.323,-118.68 268,-29 272.318,-24.0777 277.771,-20.3711 283.718,-17.5895"/>
<polygon fill="midnightblue" stroke="midnightblue" points="216.669,-302.435 208.699,-309.417 219.283,-308.929 216.669,-302.435"/>
</g>
<!-- Node12 -->
<g id="node12" class="node"><title>Node12</title>
<g id="a_node12"><a xlink:href="$class_thinksquirrel_1_1_word_game_builder_1_1_tiles_1_1_letter_tile_label_control.html" xlink:title="Automatically controls the text on objects based on a letter tile&#39;s state. ">
<polygon fill="none" stroke="black" points="284,-456.5 284,-475.5 394,-475.5 394,-456.5 284,-456.5"/>
<text text-anchor="middle" x="339" y="-463.5" font-family="Helvetica,sans-Serif" font-size="10.00">LetterTileLabelControl</text>
</a>
</g>
</g>
<!-- Node2&#45;&gt;Node12 -->
<g id="edge11" class="edge"><title>Node2&#45;&gt;Node12</title>
<path fill="none" stroke="midnightblue" d="M185.743,-333.242C198.466,-362.373 226.585,-417.404 268,-447 273.43,-450.88 279.612,-453.968 286.002,-456.426"/>
<polygon fill="midnightblue" stroke="midnightblue" points="188.863,-331.633 181.756,-323.776 182.412,-334.35 188.863,-331.633"/>
</g>
<!-- Node13 -->
<g id="node13" class="node"><title>Node13</title>
<g id="a_node13"><a xlink:href="$class_thinksquirrel_1_1_word_game_builder_1_1_tiles_1_1_letter_tile_mouse_input.html" xlink:title="Adds input control to a letter tile, using Unity&#39;s OnMouse[...] methods. ">
<polygon fill="none" stroke="black" points="285.5,-418.5 285.5,-437.5 392.5,-437.5 392.5,-418.5 285.5,-418.5"/>
<text text-anchor="middle" x="339" y="-425.5" font-family="Helvetica,sans-Serif" font-size="10.00">LetterTileMouseInput</text>
</a>
</g>
</g>
<!-- Node2&#45;&gt;Node13 -->
<g id="edge12" class="edge"><title>Node2&#45;&gt;Node13</title>
<path fill="none" stroke="midnightblue" d="M190.251,-332.014C205.826,-353.533 234.726,-389.112 268,-409 274.485,-412.876 281.776,-415.979 289.138,-418.459"/>
<polygon fill="midnightblue" stroke="midnightblue" points="193.04,-329.896 184.417,-323.74 187.319,-333.93 193.04,-329.896"/>
</g>
<!-- Node14 -->
<g id="node14" class="node"><title>Node14</title>
<g id="a_node14"><a xlink:href="$class_thinksquirrel_1_1_word_game_builder_1_1_tiles_1_1_letter_tile_visibility_control.html" xlink:title="Automatically controls the visibility of objects based on a letter tile&#39;s state. ">
<polygon fill="none" stroke="black" points="277,-380.5 277,-399.5 401,-399.5 401,-380.5 277,-380.5"/>
<text text-anchor="middle" x="339" y="-387.5" font-family="Helvetica,sans-Serif" font-size="10.00">LetterTileVisibilityControl</text>
</a>
</g>
</g>
<!-- Node2&#45;&gt;Node14 -->
<g id="edge13" class="edge"><title>Node2&#45;&gt;Node14</title>
<path fill="none" stroke="midnightblue" d="M198.799,-329.723C216.42,-342.401 242.775,-359.892 268,-371 276.413,-374.705 285.72,-377.842 294.727,-380.433"/>
<polygon fill="midnightblue" stroke="midnightblue" points="200.567,-326.679 190.432,-323.591 196.429,-332.325 200.567,-326.679"/>
</g>
<!-- Node15 -->
<g id="node15" class="node"><title>Node15</title>
<g id="a_node15"><a xlink:href="$class_thinksquirrel_1_1_word_game_builder_1_1_tiles_1_1_ngui_1_1_letter_tile_ngui_control.html" xlink:title="Adds NGUI display to a letter tile. ">
<polygon fill="none" stroke="black" points="285.5,-342.5 285.5,-361.5 392.5,-361.5 392.5,-342.5 285.5,-342.5"/>
<text text-anchor="middle" x="339" y="-349.5" font-family="Helvetica,sans-Serif" font-size="10.00">LetterTileNguiControl</text>
</a>
</g>
</g>
<!-- Node2&#45;&gt;Node15 -->
<g id="edge14" class="edge"><title>Node2&#45;&gt;Node15</title>
<path fill="none" stroke="midnightblue" d="M218.816,-323.694C243.071,-329.454 273.707,-336.73 297.845,-342.463"/>
<polygon fill="midnightblue" stroke="midnightblue" points="219.388,-320.232 208.85,-321.327 217.77,-327.043 219.388,-320.232"/>
</g>
<!-- Node16 -->
<g id="node16" class="node"><title>Node16</title>
<g id="a_node16"><a xlink:href="$class_thinksquirrel_1_1_word_game_builder_1_1_tiles_1_1_ngui_1_1_letter_tile_ngui_input.html" xlink:title="Adds input control to a letter tile, using NGUI&#39;s OnPress/OnHover/OnClick methods. ">
<polygon fill="none" stroke="black" points="290.5,-304.5 290.5,-323.5 387.5,-323.5 387.5,-304.5 290.5,-304.5"/>
<text text-anchor="middle" x="339" y="-311.5" font-family="Helvetica,sans-Serif" font-size="10.00">LetterTileNguiInput</text>
</a>
</g>
</g>
<!-- Node2&#45;&gt;Node16 -->
<g id="edge15" class="edge"><title>Node2&#45;&gt;Node16</title>
<path fill="none" stroke="midnightblue" d="M219.068,-314C240.794,-314 267.587,-314 290.239,-314"/>
<polygon fill="midnightblue" stroke="midnightblue" points="218.85,-310.5 208.85,-314 218.85,-317.5 218.85,-310.5"/>
</g>
<!-- Node17 -->
<g id="node17" class="node"><title>Node17</title>
<g id="a_node17"><a xlink:href="$class_thinksquirrel_1_1_word_game_builder_1_1_tiles_1_1_tk2_d_1_1_letter_tile_tk2_d_control.html" xlink:title="Adds 2D Toolkit display to a letter tile. ">
<polygon fill="none" stroke="black" points="284,-266.5 284,-285.5 394,-285.5 394,-266.5 284,-266.5"/>
<text text-anchor="middle" x="339" y="-273.5" font-family="Helvetica,sans-Serif" font-size="10.00">LetterTileTk2DControl</text>
</a>
</g>
</g>
<!-- Node2&#45;&gt;Node17 -->
<g id="edge16" class="edge"><title>Node2&#45;&gt;Node17</title>
<path fill="none" stroke="midnightblue" d="M218.816,-304.306C243.071,-298.546 273.707,-291.27 297.845,-285.537"/>
<polygon fill="midnightblue" stroke="midnightblue" points="217.77,-300.957 208.85,-306.673 219.388,-307.768 217.77,-300.957"/>
</g>
<!-- Node18 -->
<g id="node18" class="node"><title>Node18</title>
<g id="a_node18"><a xlink:href="$class_thinksquirrel_1_1_word_game_builder_1_1_tiles_1_1_tk2_d_1_1_letter_tile_tk2_d_input.html" xlink:title="Adds input control to a letter tile, using 2D Toolkit&#39;s UI events. ">
<polygon fill="none" stroke="black" points="289,-228.5 289,-247.5 389,-247.5 389,-228.5 289,-228.5"/>
<text text-anchor="middle" x="339" y="-235.5" font-family="Helvetica,sans-Serif" font-size="10.00">LetterTileTk2DInput</text>
</a>
</g>
</g>
<!-- Node2&#45;&gt;Node18 -->
<g id="edge17" class="edge"><title>Node2&#45;&gt;Node18</title>
<path fill="none" stroke="midnightblue" d="M218.019,-302.366C222.899,-300.247 227.681,-297.801 232,-295 251.519,-282.341 248.031,-268.936 268,-257 274.485,-253.124 281.776,-250.021 289.138,-247.541"/>
<polygon fill="midnightblue" stroke="midnightblue" points="216.645,-299.144 208.607,-306.046 219.195,-305.664 216.645,-299.144"/>
</g>
<!-- Node19 -->
<g id="node19" class="node"><title>Node19</title>
<g id="a_node19"><a xlink:href="$class_thinksquirrel_1_1_word_game_builder_example_1_1_example_game_logic.html" xlink:title="This class is responsible for all game logic. ">
<polygon fill="none" stroke="black" points="287,-190.5 287,-209.5 391,-209.5 391,-190.5 287,-190.5"/>
<text text-anchor="middle" x="339" y="-197.5" font-family="Helvetica,sans-Serif" font-size="10.00">ExampleGameLogic</text>
</a>
</g>
</g>
<!-- Node2&#45;&gt;Node19 -->
<g id="edge18" class="edge"><title>Node2&#45;&gt;Node19</title>
<path fill="none" stroke="midnightblue" d="M217.911,-304.103C223.021,-301.69 227.893,-298.7 232,-295 259.767,-269.982 239.335,-242.985 268,-219 273.505,-214.394 280.029,-210.897 286.845,-208.244"/>
<polygon fill="midnightblue" stroke="midnightblue" points="216.546,-300.879 208.569,-307.851 219.153,-307.375 216.546,-300.879"/>
</g>
<!-- Node22 -->
<g id="node22" class="node"><title>Node22</title>
<g id="a_node22"><a xlink:href="$interface_thinksquirrel_1_1_word_game_builder_1_1_object_model_1_1_i_mono_behaviour.html" xlink:title="An interface representation of a MonoBehaviour. ">
<polygon fill="none" stroke="black" points="0.5,-570.5 0.5,-589.5 85.5,-589.5 85.5,-570.5 0.5,-570.5"/>
<text text-anchor="middle" x="43" y="-577.5" font-family="Helvetica,sans-Serif" font-size="10.00">IMonoBehaviour</text>
</a>
</g>
</g>
<!-- Node23 -->
<g id="node23" class="node"><title>Node23</title>
<g id="a_node23"><a xlink:href="$interface_thinksquirrel_1_1_word_game_builder_1_1_object_model_1_1_i_letter_tile.html" xlink:title="An interface defining a letter tile. Implementations must derive from MonoBehaviour in some form...">
<polygon fill="none" stroke="black" points="147.5,-665.5 147.5,-684.5 206.5,-684.5 206.5,-665.5 147.5,-665.5"/>
<text text-anchor="middle" x="177" y="-672.5" font-family="Helvetica,sans-Serif" font-size="10.00">ILetterTile</text>
</a>
</g>
</g>
<!-- Node22&#45;&gt;Node23 -->
<g id="edge21" class="edge"><title>Node22&#45;&gt;Node23</title>
<path fill="none" stroke="midnightblue" d="M65.3539,-595.763C80.9878,-607.265 102.745,-623.191 122,-637 135.601,-646.754 151.252,-657.742 162.191,-665.384"/>
<polygon fill="midnightblue" stroke="midnightblue" points="67.049,-592.664 56.9217,-589.552 62.8974,-598.3 67.049,-592.664"/>
</g>
<!-- Node27 -->
<g id="node27" class="node"><title>Node27</title>
<g id="a_node27"><a xlink:href="$interface_thinksquirrel_1_1_word_game_builder_1_1_object_model_1_1_i_tile_pool.html" xlink:title="An interface defining a pool of letter tiles. Implementations must derive from MonoBehaviour in some ...">
<polygon fill="none" stroke="black" points="150.5,-570.5 150.5,-589.5 203.5,-589.5 203.5,-570.5 150.5,-570.5"/>
<text text-anchor="middle" x="177" y="-577.5" font-family="Helvetica,sans-Serif" font-size="10.00">ITilePool</text>
</a>
</g>
</g>
<!-- Node22&#45;&gt;Node27 -->
<g id="edge28" class="edge"><title>Node22&#45;&gt;Node27</title>
<path fill="none" stroke="midnightblue" d="M95.9212,-580C114.565,-580 134.78,-580 150.236,-580"/>
<polygon fill="midnightblue" stroke="midnightblue" points="95.7657,-576.5 85.7656,-580 95.7656,-583.5 95.7657,-576.5"/>
</g>
<!-- Node28 -->
<g id="node28" class="node"><title>Node28</title>
<g id="a_node28"><a xlink:href="$interface_thinksquirrel_1_1_word_game_builder_1_1_object_model_1_1_i_wildcard_tile_manager.html" xlink:title="An interface defining a manager for selecting wildcard tiles. Implementations must derive from MonoBe...">
<polygon fill="none" stroke="black" points="122,-532.5 122,-551.5 232,-551.5 232,-532.5 122,-532.5"/>
<text text-anchor="middle" x="177" y="-539.5" font-family="Helvetica,sans-Serif" font-size="10.00">IWildcardTileManager</text>
</a>
</g>
</g>
<!-- Node22&#45;&gt;Node28 -->
<g id="edge30" class="edge"><title>Node22&#45;&gt;Node28</title>
<path fill="none" stroke="midnightblue" d="M87.0409,-567.609C105.118,-562.406 125.819,-556.446 142.701,-551.586"/>
<polygon fill="midnightblue" stroke="midnightblue" points="85.9506,-564.281 77.3092,-570.411 87.8872,-571.008 85.9506,-564.281"/>
</g>
<!-- Node29 -->
<g id="node29" class="node"><title>Node29</title>
<g id="a_node29"><a xlink:href="$interface_thinksquirrel_1_1_word_game_builder_1_1_object_model_1_1_i_word_game_agent.html" xlink:title="An interface defining a word game agent. Implementations must derive from MonoBehaviour in some form...">
<polygon fill="none" stroke="black" points="130,-494.5 130,-513.5 224,-513.5 224,-494.5 130,-494.5"/>
<text text-anchor="middle" x="177" y="-501.5" font-family="Helvetica,sans-Serif" font-size="10.00">IWordGameAgent</text>
</a>
</g>
</g>
<!-- Node22&#45;&gt;Node29 -->
<g id="edge32" class="edge"><title>Node22&#45;&gt;Node29</title>
<path fill="none" stroke="midnightblue" d="M62.9975,-563.652C78.1774,-551.218 100.414,-534.367 122,-523 128.859,-519.388 136.551,-516.213 143.933,-513.545"/>
<polygon fill="midnightblue" stroke="midnightblue" points="60.3648,-561.29 54.9336,-570.387 64.8523,-566.663 60.3648,-561.29"/>
</g>
<!-- Node30 -->
<g id="node30" class="node"><title>Node30</title>
<g id="a_node30"><a xlink:href="$interface_thinksquirrel_1_1_word_game_builder_1_1_object_model_1_1_i_word_game_player.html" xlink:title="An interface defining a word game player. Implementations must derive from MonoBehaviour in some form...">
<polygon fill="none" stroke="black" points="129,-608.5 129,-627.5 225,-627.5 225,-608.5 129,-608.5"/>
<text text-anchor="middle" x="177" y="-615.5" font-family="Helvetica,sans-Serif" font-size="10.00">IWordGamePlayer</text>
</a>
</g>
</g>
<!-- Node22&#45;&gt;Node30 -->
<g id="edge34" class="edge"><title>Node22&#45;&gt;Node30</title>
<path fill="none" stroke="midnightblue" d="M87.0409,-592.391C105.118,-597.594 125.819,-603.554 142.701,-608.414"/>
<polygon fill="midnightblue" stroke="midnightblue" points="87.8872,-588.992 77.3092,-589.589 85.9506,-595.719 87.8872,-588.992"/>
</g>
<!-- Node24 -->
<g id="node24" class="node"><title>Node24</title>
<g id="a_node24"><a xlink:href="$interface_thinksquirrel_1_1_word_game_builder_1_1_object_model_1_1_i_letter_tile_display.html" xlink:title="An interface defining letter tile colors and labels. ">
<polygon fill="none" stroke="black" points="293.5,-684.5 293.5,-703.5 384.5,-703.5 384.5,-684.5 293.5,-684.5"/>
<text text-anchor="middle" x="339" y="-691.5" font-family="Helvetica,sans-Serif" font-size="10.00">ILetterTileDisplay</text>
</a>
</g>
</g>
<!-- Node23&#45;&gt;Node24 -->
<g id="edge22" class="edge"><title>Node23&#45;&gt;Node24</title>
<path fill="none" stroke="midnightblue" d="M216.732,-679.599C239.832,-682.343 269.253,-685.836 293.331,-688.696"/>
<polygon fill="midnightblue" stroke="midnightblue" points="216.948,-676.101 206.605,-678.397 216.122,-683.052 216.948,-676.101"/>
</g>
<!-- Node25 -->
<g id="node25" class="node"><title>Node25</title>
<g id="a_node25"><a xlink:href="$interface_thinksquirrel_1_1_word_game_builder_1_1_object_model_1_1_i_letter_tile_input.html" xlink:title="An interface defining letter tile input events. ">
<polygon fill="none" stroke="black" points="299,-646.5 299,-665.5 379,-665.5 379,-646.5 299,-646.5"/>
<text text-anchor="middle" x="339" y="-653.5" font-family="Helvetica,sans-Serif" font-size="10.00">ILetterTileInput</text>
</a>
</g>
</g>
<!-- Node23&#45;&gt;Node25 -->
<g id="edge24" class="edge"><title>Node23&#45;&gt;Node25</title>
<path fill="none" stroke="midnightblue" d="M216.778,-670.395C241.661,-667.44 273.864,-663.616 298.824,-660.652"/>
<polygon fill="midnightblue" stroke="midnightblue" points="216.122,-666.948 206.605,-671.603 216.948,-673.899 216.122,-666.948"/>
</g>
<!-- Node26 -->
<g id="node26" class="node"><title>Node26</title>
<g id="a_node26"><a xlink:href="$interface_thinksquirrel_1_1_word_game_builder_1_1_object_model_1_1_i_selectable_letter_tile.html" xlink:title="An interface defining a letter tile that can be selected and deselected. Implementations must derive ...">
<polygon fill="none" stroke="black" points="287,-722.5 287,-741.5 391,-741.5 391,-722.5 287,-722.5"/>
<text text-anchor="middle" x="339" y="-729.5" font-family="Helvetica,sans-Serif" font-size="10.00">ISelectableLetterTile</text>
</a>
</g>
</g>
<!-- Node23&#45;&gt;Node26 -->
<g id="edge26" class="edge"><title>Node23&#45;&gt;Node26</title>
<path fill="none" stroke="midnightblue" d="M207.991,-688.859C225.307,-696.557 247.628,-705.97 268,-713 277.999,-716.45 288.973,-719.682 299.205,-722.467"/>
<polygon fill="midnightblue" stroke="midnightblue" points="208.982,-685.467 198.426,-684.555 206.109,-691.85 208.982,-685.467"/>
</g>
<!-- Node24&#45;&gt;Node9 -->
<g id="edge23" class="edge"><title>Node24&#45;&gt;Node9</title>
<path fill="none" stroke="midnightblue" d="M394.818,-686.169C412.36,-683.663 431.021,-680.997 445.712,-678.898"/>
<polygon fill="midnightblue" stroke="midnightblue" points="394.062,-682.741 384.657,-687.62 395.052,-689.671 394.062,-682.741"/>
</g>
<!-- Node25&#45;&gt;Node9 -->
<g id="edge25" class="edge"><title>Node25&#45;&gt;Node9</title>
<path fill="none" stroke="midnightblue" d="M389.27,-663.039C408.417,-665.774 429.611,-668.802 445.885,-671.126"/>
<polygon fill="midnightblue" stroke="midnightblue" points="389.58,-659.547 379.185,-661.598 388.59,-666.477 389.58,-659.547"/>
</g>
<!-- Node26&#45;&gt;Node9 -->
<g id="edge27" class="edge"><title>Node26&#45;&gt;Node9</title>
<path fill="none" stroke="midnightblue" d="M392.754,-719.386C398.654,-717.475 404.511,-715.346 410,-713 428.088,-705.269 447.212,-693.088 459.58,-684.609"/>
<polygon fill="midnightblue" stroke="midnightblue" points="391.392,-716.142 382.842,-722.398 393.427,-722.84 391.392,-716.142"/>
</g>
<!-- Node27&#45;&gt;Node3 -->
<g id="edge29" class="edge"><title>Node27&#45;&gt;Node3</title>
<path fill="none" stroke="midnightblue" d="M213.872,-580C244.193,-580 286.823,-580 313.408,-580"/>
<polygon fill="midnightblue" stroke="midnightblue" points="213.707,-576.5 203.707,-580 213.707,-583.5 213.707,-576.5"/>
</g>
<!-- Node28&#45;&gt;Node4 -->
<g id="edge31" class="edge"><title>Node28&#45;&gt;Node4</title>
<path fill="none" stroke="midnightblue" d="M242.384,-542C256.617,-542 271.536,-542 285.243,-542"/>
<polygon fill="midnightblue" stroke="midnightblue" points="242.169,-538.5 232.169,-542 242.169,-545.5 242.169,-538.5"/>
</g>
<!-- Node29&#45;&gt;Node5 -->
<g id="edge33" class="edge"><title>Node29&#45;&gt;Node5</title>
<path fill="none" stroke="midnightblue" d="M234.399,-504C253.582,-504 274.752,-504 292.929,-504"/>
<polygon fill="midnightblue" stroke="midnightblue" points="234.279,-500.5 224.279,-504 234.279,-507.5 234.279,-500.5"/>
</g>
<!-- Node30&#45;&gt;Node6 -->
<g id="edge35" class="edge"><title>Node30&#45;&gt;Node6</title>
<path fill="none" stroke="midnightblue" d="M235.231,-618C253.777,-618 274.104,-618 291.748,-618"/>
<polygon fill="midnightblue" stroke="midnightblue" points="235.14,-614.5 225.14,-618 235.14,-621.5 235.14,-614.5"/>
</g>
</g>
</svg>
