<?xml version="1.0" encoding="UTF-8" standalone="no"?>
<!DOCTYPE svg PUBLIC "-//W3C//DTD SVG 1.1//EN"
 "http://www.w3.org/Graphics/SVG/1.1/DTD/svg11.dtd">
<!-- Generated by graphviz version 2.36.0 (20140111.2315)
 -->
<!-- Title: Graphical Class Hierarchy Pages: 1 -->
<svg width="188pt" height="66pt"
 viewBox="0.00 0.00 188.00 66.00" xmlns="http://www.w3.org/2000/svg" xmlns:xlink="http://www.w3.org/1999/xlink">
<g id="graph0" class="graph" transform="scale(1 1) rotate(0) translate(4 62)">
<title>Graphical Class Hierarchy</title>
<!-- Node1 -->
<g id="node1" class="node"><title>Node1</title>
<polygon fill="none" stroke="#bfbfbf" points="0.5,-19.5 0.5,-38.5 67.5,-38.5 67.5,-19.5 0.5,-19.5"/>
<text text-anchor="middle" x="34" y="-26.5" font-family="Helvetica,sans-Serif" font-size="10.00">IDisposable</text>
</g>
<!-- Node2 -->
<g id="node2" class="node"><title>Node2</title>
<g id="a_node2"><a xlink:href="$class_thinksquirrel_1_1_word_game_builder_1_1_async_task.html" xlink:title="Represents an asynchronous task. ">
<polygon fill="none" stroke="black" points="109.5,-38.5 109.5,-57.5 174.5,-57.5 174.5,-38.5 109.5,-38.5"/>
<text text-anchor="middle" x="142" y="-45.5" font-family="Helvetica,sans-Serif" font-size="10.00">AsyncTask</text>
</a>
</g>
</g>
<!-- Node1&#45;&gt;Node2 -->
<g id="edge1" class="edge"><title>Node1&#45;&gt;Node2</title>
<path fill="none" stroke="midnightblue" d="M77.5973,-36.6354C88.1988,-38.5356 99.3784,-40.5395 109.348,-42.3265"/>
<polygon fill="midnightblue" stroke="midnightblue" points="78.1291,-33.175 67.6684,-34.8557 76.894,-40.0652 78.1291,-33.175"/>
</g>
<!-- Node3 -->
<g id="node3" class="node"><title>Node3</title>
<g id="a_node3"><a xlink:href="$class_thinksquirrel_1_1_word_game_builder_1_1_tweening_1_1_tweener_3_01_t_01_4.html" xlink:title="The main tweening class. ">
<polygon fill="none" stroke="black" points="104,-0.5 104,-19.5 180,-19.5 180,-0.5 104,-0.5"/>
<text text-anchor="middle" x="142" y="-7.5" font-family="Helvetica,sans-Serif" font-size="10.00">Tweener&lt; T &gt;</text>
</a>
</g>
</g>
<!-- Node1&#45;&gt;Node3 -->
<g id="edge2" class="edge"><title>Node1&#45;&gt;Node3</title>
<path fill="none" stroke="midnightblue" d="M77.6123,-21.3619C86.2841,-19.8076 95.342,-18.184 103.808,-16.6665"/>
<polygon fill="midnightblue" stroke="midnightblue" points="76.894,-17.9348 67.6684,-23.1443 78.1291,-24.825 76.894,-17.9348"/>
</g>
</g>
</svg>
