<?xml version="1.0" encoding="UTF-8" standalone="no"?>
<!DOCTYPE svg PUBLIC "-//W3C//DTD SVG 1.1//EN"
 "http://www.w3.org/Graphics/SVG/1.1/DTD/svg11.dtd">
<!-- Generated by graphviz version 2.36.0 (20140111.2315)
 -->
<!-- Title: Graphical Class Hierarchy Pages: 1 -->
<svg width="360pt" height="203pt"
 viewBox="0.00 0.00 360.00 203.00" xmlns="http://www.w3.org/2000/svg" xmlns:xlink="http://www.w3.org/1999/xlink">
<g id="graph0" class="graph" transform="scale(1 1) rotate(0) translate(4 199)">
<title>Graphical Class Hierarchy</title>
<!-- Node1 -->
<g id="node1" class="node"><title>Node1</title>
<g id="a_node1"><a xlink:href="$class_thinksquirrel_1_1_word_game_builder_example_1_1_example_view_model_1_1_ui_context.html" xlink:title="Represents a base class for all user interface contexts. ">
<polygon fill="none" stroke="black" points="0,-93.5 0,-112.5 148,-112.5 148,-93.5 0,-93.5"/>
<text text-anchor="middle" x="74" y="-100.5" font-family="Helvetica,sans-Serif" font-size="10.00">ExampleViewModel.UiContext</text>
</a>
</g>
</g>
<!-- Node2 -->
<g id="node2" class="node"><title>Node2</title>
<g id="a_node2"><a xlink:href="$class_thinksquirrel_1_1_word_game_builder_example_1_1_example_view_model_1_1_agent_context.html" xlink:title="Contains information about the agent. ">
<polygon fill="none" stroke="black" points="186,-175.5 186,-194.5 350,-194.5 350,-175.5 186,-175.5"/>
<text text-anchor="middle" x="268" y="-182.5" font-family="Helvetica,sans-Serif" font-size="10.00">ExampleViewModel.AgentContext</text>
</a>
</g>
</g>
<!-- Node1&#45;&gt;Node2 -->
<g id="edge1" class="edge"><title>Node1&#45;&gt;Node2</title>
<path fill="none" stroke="midnightblue" d="M96.7635,-118.209C118.088,-132.462 151.962,-153.405 184,-166 193.63,-169.786 204.2,-172.922 214.475,-175.48"/>
<polygon fill="midnightblue" stroke="midnightblue" points="98.6743,-115.276 88.4349,-112.555 94.7423,-121.068 98.6743,-115.276"/>
</g>
<!-- Node3 -->
<g id="node3" class="node"><title>Node3</title>
<g id="a_node3"><a xlink:href="$class_thinksquirrel_1_1_word_game_builder_example_1_1_example_view_model_1_1_game_context.html" xlink:title="Contains information about the game. ">
<polygon fill="none" stroke="black" points="185.5,-137.5 185.5,-156.5 350.5,-156.5 350.5,-137.5 185.5,-137.5"/>
<text text-anchor="middle" x="268" y="-144.5" font-family="Helvetica,sans-Serif" font-size="10.00">ExampleViewModel.GameContext</text>
</a>
</g>
</g>
<!-- Node1&#45;&gt;Node3 -->
<g id="edge2" class="edge"><title>Node1&#45;&gt;Node3</title>
<path fill="none" stroke="midnightblue" d="M126.422,-114.784C157.416,-121.887 196.379,-130.816 225.42,-137.471"/>
<polygon fill="midnightblue" stroke="midnightblue" points="127.19,-111.37 116.661,-112.547 125.627,-118.193 127.19,-111.37"/>
</g>
<!-- Node4 -->
<g id="node4" class="node"><title>Node4</title>
<g id="a_node4"><a xlink:href="$class_thinksquirrel_1_1_word_game_builder_example_1_1_example_view_model_1_1_languages_context.html" xlink:title="Contains information about languages. ">
<polygon fill="none" stroke="black" points="192,-88 192,-118 344,-118 344,-88 192,-88"/>
<text text-anchor="start" x="200" y="-106" font-family="Helvetica,sans-Serif" font-size="10.00">ExampleViewModel.Languages</text>
<text text-anchor="middle" x="268" y="-95" font-family="Helvetica,sans-Serif" font-size="10.00">Context</text>
</a>
</g>
</g>
<!-- Node1&#45;&gt;Node4 -->
<g id="edge3" class="edge"><title>Node1&#45;&gt;Node4</title>
<path fill="none" stroke="midnightblue" d="M158.295,-103C169.449,-103 180.836,-103 191.839,-103"/>
<polygon fill="midnightblue" stroke="midnightblue" points="158.135,-99.5001 148.135,-103 158.135,-106.5 158.135,-99.5001"/>
</g>
<!-- Node5 -->
<g id="node5" class="node"><title>Node5</title>
<g id="a_node5"><a xlink:href="$class_thinksquirrel_1_1_word_game_builder_example_1_1_example_view_model_1_1_player_context.html" xlink:title="Contains information about the player. ">
<polygon fill="none" stroke="black" points="184.5,-49.5 184.5,-68.5 351.5,-68.5 351.5,-49.5 184.5,-49.5"/>
<text text-anchor="middle" x="268" y="-56.5" font-family="Helvetica,sans-Serif" font-size="10.00">ExampleViewModel.PlayerContext</text>
</a>
</g>
</g>
<!-- Node1&#45;&gt;Node5 -->
<g id="edge4" class="edge"><title>Node1&#45;&gt;Node5</title>
<path fill="none" stroke="midnightblue" d="M126.422,-91.2159C157.416,-84.1131 196.379,-75.184 225.42,-68.5287"/>
<polygon fill="midnightblue" stroke="midnightblue" points="125.627,-87.8073 116.661,-93.4527 127.19,-94.6304 125.627,-87.8073"/>
</g>
<!-- Node6 -->
<g id="node6" class="node"><title>Node6</title>
<g id="a_node6"><a xlink:href="$class_thinksquirrel_1_1_word_game_builder_example_1_1_example_view_model_1_1_word_result_context.html" xlink:title="Contains information about a word check. ">
<polygon fill="none" stroke="black" points="190,-0 190,-30 346,-30 346,-0 190,-0"/>
<text text-anchor="start" x="198" y="-18" font-family="Helvetica,sans-Serif" font-size="10.00">ExampleViewModel.WordResult</text>
<text text-anchor="middle" x="268" y="-7" font-family="Helvetica,sans-Serif" font-size="10.00">Context</text>
</a>
</g>
</g>
<!-- Node1&#45;&gt;Node6 -->
<g id="edge5" class="edge"><title>Node1&#45;&gt;Node6</title>
<path fill="none" stroke="midnightblue" d="M97.6807,-87.8018C119.184,-73.906 152.756,-53.5171 184,-40 192.425,-36.3549 201.548,-33.0275 210.557,-30.0733"/>
<polygon fill="midnightblue" stroke="midnightblue" points="95.6977,-84.9166 89.2461,-93.3206 99.5303,-90.7741 95.6977,-84.9166"/>
</g>
</g>
</svg>
