<?xml version="1.0" encoding="UTF-8" standalone="no"?>
<!DOCTYPE svg PUBLIC "-//W3C//DTD SVG 1.1//EN"
 "http://www.w3.org/Graphics/SVG/1.1/DTD/svg11.dtd">
<!-- Generated by graphviz version 2.36.0 (20140111.2315)
 -->
<!-- Title: LetterList.Enumerator Pages: 1 -->
<svg width="292pt" height="204pt"
 viewBox="0.00 0.00 292.00 204.00" xmlns="http://www.w3.org/2000/svg" xmlns:xlink="http://www.w3.org/1999/xlink">
<g id="graph0" class="graph" transform="scale(1 1) rotate(0) translate(4 200)">
<title>LetterList.Enumerator</title>
<!-- Node1 -->
<g id="node1" class="node"><title>Node1</title>
<polygon fill="#bfbfbf" stroke="black" points="109,-0.5 109,-101.5 219,-101.5 219,-0.5 109,-0.5"/>
<text text-anchor="middle" x="164" y="-89.5" font-family="Helvetica,sans-Serif" font-size="10.00">LetterList.Enumerator</text>
<polyline fill="none" stroke="black" points="109,-82.5 219,-82.5 "/>
<text text-anchor="start" x="117" y="-70.5" font-family="Helvetica,sans-Serif" font-size="10.00">+ l</text>
<text text-anchor="start" x="117" y="-59.5" font-family="Helvetica,sans-Serif" font-size="10.00">+ Current</text>
<text text-anchor="start" x="117" y="-48.5" font-family="Helvetica,sans-Serif" font-size="10.00">+ Current</text>
<polyline fill="none" stroke="black" points="109,-41.5 219,-41.5 "/>
<text text-anchor="start" x="117" y="-29.5" font-family="Helvetica,sans-Serif" font-size="10.00">+ Dispose()</text>
<text text-anchor="start" x="117" y="-18.5" font-family="Helvetica,sans-Serif" font-size="10.00">+ MoveNext()</text>
<text text-anchor="start" x="117" y="-7.5" font-family="Helvetica,sans-Serif" font-size="10.00">+ Reset()</text>
</g>
<!-- Node2 -->
<g id="node2" class="node"><title>Node2</title>
<polygon fill="none" stroke="#bfbfbf" points="0,-138.5 0,-195.5 112,-195.5 112,-138.5 0,-138.5"/>
<text text-anchor="middle" x="56" y="-183.5" font-family="Helvetica,sans-Serif" font-size="10.00">IEnumerator&lt; Letter &gt;</text>
<polyline fill="none" stroke="#bfbfbf" points="0,-176.5 112,-176.5 "/>
<text text-anchor="middle" x="56" y="-164.5" font-family="Helvetica,sans-Serif" font-size="10.00"> </text>
<polyline fill="none" stroke="#bfbfbf" points="0,-157.5 112,-157.5 "/>
<text text-anchor="middle" x="56" y="-145.5" font-family="Helvetica,sans-Serif" font-size="10.00"> </text>
</g>
<!-- Node2&#45;&gt;Node1 -->
<g id="edge1" class="edge"><title>Node2&#45;&gt;Node1</title>
<path fill="none" stroke="midnightblue" d="M89.2785,-130.873C98.0424,-121.622 107.665,-111.465 117.003,-101.608"/>
<polygon fill="none" stroke="midnightblue" points="86.4804,-128.737 82.1438,-138.404 91.5621,-133.551 86.4804,-128.737"/>
</g>
<!-- Node3 -->
<g id="node3" class="node"><title>Node3</title>
<polygon fill="none" stroke="#bfbfbf" points="130.5,-138.5 130.5,-195.5 197.5,-195.5 197.5,-138.5 130.5,-138.5"/>
<text text-anchor="middle" x="164" y="-183.5" font-family="Helvetica,sans-Serif" font-size="10.00">IDisposable</text>
<polyline fill="none" stroke="#bfbfbf" points="130.5,-176.5 197.5,-176.5 "/>
<text text-anchor="middle" x="164" y="-164.5" font-family="Helvetica,sans-Serif" font-size="10.00"> </text>
<polyline fill="none" stroke="#bfbfbf" points="130.5,-157.5 197.5,-157.5 "/>
<text text-anchor="middle" x="164" y="-145.5" font-family="Helvetica,sans-Serif" font-size="10.00"> </text>
</g>
<!-- Node3&#45;&gt;Node1 -->
<g id="edge2" class="edge"><title>Node3&#45;&gt;Node1</title>
<path fill="none" stroke="midnightblue" d="M164,-128.354C164,-119.796 164,-110.578 164,-101.608"/>
<polygon fill="none" stroke="midnightblue" points="160.5,-128.404 164,-138.404 167.5,-128.404 160.5,-128.404"/>
</g>
<!-- Node4 -->
<g id="node4" class="node"><title>Node4</title>
<polygon fill="none" stroke="#bfbfbf" points="215.5,-138.5 215.5,-195.5 284.5,-195.5 284.5,-138.5 215.5,-138.5"/>
<text text-anchor="middle" x="250" y="-183.5" font-family="Helvetica,sans-Serif" font-size="10.00">IEnumerator</text>
<polyline fill="none" stroke="#bfbfbf" points="215.5,-176.5 284.5,-176.5 "/>
<text text-anchor="middle" x="250" y="-164.5" font-family="Helvetica,sans-Serif" font-size="10.00"> </text>
<polyline fill="none" stroke="#bfbfbf" points="215.5,-157.5 284.5,-157.5 "/>
<text text-anchor="middle" x="250" y="-145.5" font-family="Helvetica,sans-Serif" font-size="10.00"> </text>
</g>
<!-- Node4&#45;&gt;Node1 -->
<g id="edge3" class="edge"><title>Node4&#45;&gt;Node1</title>
<path fill="none" stroke="midnightblue" d="M223.081,-130.317C216.215,-121.216 208.711,-111.268 201.424,-101.608"/>
<polygon fill="none" stroke="midnightblue" points="220.365,-132.528 229.182,-138.404 225.953,-128.313 220.365,-132.528"/>
</g>
</g>
</svg>
