<?xml version="1.0" encoding="UTF-8" standalone="no"?>
<!DOCTYPE svg PUBLIC "-//W3C//DTD SVG 1.1//EN"
 "http://www.w3.org/Graphics/SVG/1.1/DTD/svg11.dtd">
<!-- Generated by graphviz version 2.36.0 (20140111.2315)
 -->
<!-- Title: Letter Pages: 1 -->
<svg width="243pt" height="282pt"
 viewBox="0.00 0.00 243.00 282.00" xmlns="http://www.w3.org/2000/svg" xmlns:xlink="http://www.w3.org/1999/xlink">
<g id="graph0" class="graph" transform="scale(1 1) rotate(0) translate(4 278)">
<title>Letter</title>
<!-- Node1 -->
<g id="node1" class="node"><title>Node1</title>
<polygon fill="#bfbfbf" stroke="black" points="69,-1 69,-179 161,-179 161,-1 69,-1"/>
<text text-anchor="middle" x="115" y="-167" font-family="Helvetica,sans-Serif" font-size="10.00">Letter</text>
<polyline fill="none" stroke="black" points="69,-160 161,-160 "/>
<text text-anchor="start" x="77" y="-148" font-family="Helvetica,sans-Serif" font-size="10.00">+ character</text>
<text text-anchor="start" x="77" y="-137" font-family="Helvetica,sans-Serif" font-size="10.00">+ empty</text>
<text text-anchor="start" x="77" y="-126" font-family="Helvetica,sans-Serif" font-size="10.00">+ hasValue</text>
<text text-anchor="start" x="77" y="-115" font-family="Helvetica,sans-Serif" font-size="10.00">+ score</text>
<text text-anchor="start" x="77" y="-104" font-family="Helvetica,sans-Serif" font-size="10.00">+ text</text>
<polyline fill="none" stroke="black" points="69,-97 161,-97 "/>
<text text-anchor="start" x="77" y="-85" font-family="Helvetica,sans-Serif" font-size="10.00">+ Letter()</text>
<text text-anchor="start" x="77" y="-74" font-family="Helvetica,sans-Serif" font-size="10.00">+ CompareTo()</text>
<text text-anchor="start" x="77" y="-63" font-family="Helvetica,sans-Serif" font-size="10.00">+ CompareTo()</text>
<text text-anchor="start" x="77" y="-52" font-family="Helvetica,sans-Serif" font-size="10.00">+ Equals()</text>
<text text-anchor="start" x="77" y="-41" font-family="Helvetica,sans-Serif" font-size="10.00">+ Equals()</text>
<text text-anchor="start" x="77" y="-30" font-family="Helvetica,sans-Serif" font-size="10.00">+ GetHashCode()</text>
<text text-anchor="start" x="77" y="-19" font-family="Helvetica,sans-Serif" font-size="10.00">+ operator!=()</text>
<text text-anchor="start" x="77" y="-8" font-family="Helvetica,sans-Serif" font-size="10.00">+ operator==()</text>
</g>
<!-- Node2 -->
<g id="node2" class="node"><title>Node2</title>
<polygon fill="none" stroke="#bfbfbf" points="-0.5,-216.5 -0.5,-273.5 104.5,-273.5 104.5,-216.5 -0.5,-216.5"/>
<text text-anchor="middle" x="52" y="-261.5" font-family="Helvetica,sans-Serif" font-size="10.00">IEquatable&lt; Letter &gt;</text>
<polyline fill="none" stroke="#bfbfbf" points="-0.5,-254.5 104.5,-254.5 "/>
<text text-anchor="middle" x="52" y="-242.5" font-family="Helvetica,sans-Serif" font-size="10.00"> </text>
<polyline fill="none" stroke="#bfbfbf" points="-0.5,-235.5 104.5,-235.5 "/>
<text text-anchor="middle" x="52" y="-223.5" font-family="Helvetica,sans-Serif" font-size="10.00"> </text>
</g>
<!-- Node2&#45;&gt;Node1 -->
<g id="edge1" class="edge"><title>Node2&#45;&gt;Node1</title>
<path fill="none" stroke="midnightblue" d="M67.2345,-207.002C70.7783,-198.396 74.7006,-188.87 78.7294,-179.086"/>
<polygon fill="none" stroke="midnightblue" points="63.98,-205.713 63.4088,-216.293 70.4528,-208.379 63.98,-205.713"/>
</g>
<!-- Node3 -->
<g id="node3" class="node"><title>Node3</title>
<polygon fill="none" stroke="#bfbfbf" points="122.5,-216.5 122.5,-273.5 235.5,-273.5 235.5,-216.5 122.5,-216.5"/>
<text text-anchor="middle" x="179" y="-261.5" font-family="Helvetica,sans-Serif" font-size="10.00">IComparable&lt; Letter &gt;</text>
<polyline fill="none" stroke="#bfbfbf" points="122.5,-254.5 235.5,-254.5 "/>
<text text-anchor="middle" x="179" y="-242.5" font-family="Helvetica,sans-Serif" font-size="10.00"> </text>
<polyline fill="none" stroke="#bfbfbf" points="122.5,-235.5 235.5,-235.5 "/>
<text text-anchor="middle" x="179" y="-223.5" font-family="Helvetica,sans-Serif" font-size="10.00"> </text>
</g>
<!-- Node3&#45;&gt;Node1 -->
<g id="edge2" class="edge"><title>Node3&#45;&gt;Node1</title>
<path fill="none" stroke="midnightblue" d="M163.524,-207.002C159.924,-198.396 155.939,-188.87 151.846,-179.086"/>
<polygon fill="none" stroke="midnightblue" points="160.322,-208.418 167.41,-216.293 166.78,-205.717 160.322,-208.418"/>
</g>
</g>
</svg>
