<?xml version="1.0" encoding="UTF-8" standalone="no"?>
<!DOCTYPE svg PUBLIC "-//W3C//DTD SVG 1.1//EN"
 "http://www.w3.org/Graphics/SVG/1.1/DTD/svg11.dtd">
<!-- Generated by graphviz version 2.36.0 (20140111.2315)
 -->
<!-- Title: LetterList.Enumerator Pages: 1 -->
<!--zoomable 468 -->
<svg id="main" version="1.1" xmlns="http://www.w3.org/2000/svg" xmlns:xlink="http://www.w3.org/1999/xlink" xml:space="preserve" onload="init(evt)">
<style type="text/css"><![CDATA[
.edge:hover path { stroke: red; }
.edge:hover polygon { stroke: red; fill: red; }
]]></style>
<script type="text/javascript"><![CDATA[
var edges = document.getElementsByTagName('g');
if (edges && edges.length) {
  for (var i=0;i<edges.length;i++) {
    if (edges[i].id.substr(0,4)=='edge') {
      edges[i].setAttribute('class','edge');
    }
  }
}
]]></script>
        <defs>
                <circle id="rim" cx="0" cy="0" r="7"/>
                <circle id="rim2" cx="0" cy="0" r="3.5"/>
                <g id="zoomPlus">
                        <use xlink:href="#rim" fill="#404040">
                                <set attributeName="fill" to="#808080" begin="zoomplus.mouseover" end="zoomplus.mouseout"/>
                        </use>
                        <path d="M-4,0h8M0,-4v8" fill="none" stroke="white" stroke-width="1.5" pointer-events="none"/>
                </g>
                <g id="zoomMin">
                        <use xlink:href="#rim" fill="#404040">
                                <set attributeName="fill" to="#808080" begin="zoomminus.mouseover" end="zoomminus.mouseout"/>
                        </use>
                        <path d="M-4,0h8" fill="none" stroke="white" stroke-width="1.5" pointer-events="none"/>
                </g>
                <g id="dirArrow">
                        <path fill="none" stroke="white" stroke-width="1.5" d="M0,-3.0v7 M-2.5,-0.5L0,-3.0L2.5,-0.5"/>
                </g>
               <g id="resetDef">
                       <use xlink:href="#rim2" fill="#404040">
                               <set attributeName="fill" to="#808080" begin="reset.mouseover" end="reset.mouseout"/>
                       </use>
               </g>
        </defs>

<script type="text/javascript">
var viewWidth = 409;
var viewHeight = 468;
var sectionId = 'dynsection-1';
</script>
<script xlink:href="svgpan.js"/>
<svg id="graph" class="graph">
<g id="viewport">
<title>LetterList.Enumerator</title>
<!-- Node1 -->
<g id="node1" class="node"><title>Node1</title>
<polygon fill="#bfbfbf" stroke="black" points="152,-1 152,-91 262,-91 262,-1 152,-1"/>
<text text-anchor="middle" x="207" y="-79" font-family="Helvetica,sans-Serif" font-size="10.00">LetterList.Enumerator</text>
<polyline fill="none" stroke="black" points="152,-72 262,-72 "/>
<text text-anchor="start" x="160" y="-60" font-family="Helvetica,sans-Serif" font-size="10.00">+ Current</text>
<text text-anchor="start" x="160" y="-49" font-family="Helvetica,sans-Serif" font-size="10.00">+ Current</text>
<polyline fill="none" stroke="black" points="152,-42 262,-42 "/>
<text text-anchor="start" x="160" y="-30" font-family="Helvetica,sans-Serif" font-size="10.00">+ Dispose()</text>
<text text-anchor="start" x="160" y="-19" font-family="Helvetica,sans-Serif" font-size="10.00">+ MoveNext()</text>
<text text-anchor="start" x="160" y="-8" font-family="Helvetica,sans-Serif" font-size="10.00">+ Reset()</text>
</g>
<!-- Node2 -->
<g id="node2" class="node"><title>Node2</title>
<polygon fill="none" stroke="#bfbfbf" points="0,-223.5 0,-280.5 112,-280.5 112,-223.5 0,-223.5"/>
<text text-anchor="middle" x="56" y="-268.5" font-family="Helvetica,sans-Serif" font-size="10.00">IEnumerator&lt; Letter &gt;</text>
<polyline fill="none" stroke="#bfbfbf" points="0,-261.5 112,-261.5 "/>
<text text-anchor="middle" x="56" y="-249.5" font-family="Helvetica,sans-Serif" font-size="10.00"> </text>
<polyline fill="none" stroke="#bfbfbf" points="0,-242.5 112,-242.5 "/>
<text text-anchor="middle" x="56" y="-230.5" font-family="Helvetica,sans-Serif" font-size="10.00"> </text>
</g>
<!-- Node2&#45;&gt;Node1 -->
<g id="edge1" class="edge"><title>Node2&#45;&gt;Node1</title>
<path fill="none" stroke="midnightblue" d="M75.0677,-213.94C87.1217,-191.743 103.659,-163.387 121,-140 133.443,-123.218 148.495,-106.085 162.504,-91.1715"/>
<polygon fill="none" stroke="midnightblue" points="71.8273,-212.577 70.1868,-223.044 77.9966,-215.884 71.8273,-212.577"/>
</g>
<!-- Node3 -->
<g id="node3" class="node"><title>Node3</title>
<polygon fill="none" stroke="#bfbfbf" points="130.5,-223.5 130.5,-280.5 197.5,-280.5 197.5,-223.5 130.5,-223.5"/>
<text text-anchor="middle" x="164" y="-268.5" font-family="Helvetica,sans-Serif" font-size="10.00">IDisposable</text>
<polyline fill="none" stroke="#bfbfbf" points="130.5,-261.5 197.5,-261.5 "/>
<text text-anchor="middle" x="164" y="-249.5" font-family="Helvetica,sans-Serif" font-size="10.00"> </text>
<polyline fill="none" stroke="#bfbfbf" points="130.5,-242.5 197.5,-242.5 "/>
<text text-anchor="middle" x="164" y="-230.5" font-family="Helvetica,sans-Serif" font-size="10.00"> </text>
</g>
<!-- Node3&#45;&gt;Node1 -->
<g id="edge2" class="edge"><title>Node3&#45;&gt;Node1</title>
<path fill="none" stroke="midnightblue" d="M171.938,-213.341C179.215,-178.817 189.996,-127.671 197.68,-91.2178"/>
<polygon fill="none" stroke="midnightblue" points="168.437,-212.981 169.799,-223.488 175.287,-214.425 168.437,-212.981"/>
</g>
<!-- Node4 -->
<g id="node4" class="node"><title>Node4</title>
<polygon fill="none" stroke="#bfbfbf" points="215.5,-223.5 215.5,-280.5 284.5,-280.5 284.5,-223.5 215.5,-223.5"/>
<text text-anchor="middle" x="250" y="-268.5" font-family="Helvetica,sans-Serif" font-size="10.00">IEnumerator</text>
<polyline fill="none" stroke="#bfbfbf" points="215.5,-261.5 284.5,-261.5 "/>
<text text-anchor="middle" x="250" y="-249.5" font-family="Helvetica,sans-Serif" font-size="10.00"> </text>
<polyline fill="none" stroke="#bfbfbf" points="215.5,-242.5 284.5,-242.5 "/>
<text text-anchor="middle" x="250" y="-230.5" font-family="Helvetica,sans-Serif" font-size="10.00"> </text>
</g>
<!-- Node4&#45;&gt;Node1 -->
<g id="edge3" class="edge"><title>Node4&#45;&gt;Node1</title>
<path fill="none" stroke="midnightblue" d="M242.062,-213.341C234.785,-178.817 224.004,-127.671 216.32,-91.2178"/>
<polygon fill="none" stroke="midnightblue" points="238.713,-214.425 244.201,-223.488 245.563,-212.981 238.713,-214.425"/>
</g>
<!-- Node5 -->
<g id="node5" class="node"><title>Node5</title>
<g id="a_node5"><a xlink:href="class_thinksquirrel_1_1_word_game_builder_1_1_letter_list.html" target="_top" xlink:title="{LetterList\n|+ Count\l+ IsReadOnly\l+ this[int index]\l|+ LetterList()\l+ LetterList()\l+ LetterList()\l+ Add()\l+ AddRange()\l+ Clear()\l+ Contains()\l+ CopyTo()\l+ GetEnumerator()\l+ IndexOf()\l+ Insert()\l+ Remove()\l+ RemoveAt()\l+ Sort()\l}">
<polygon fill="none" stroke="black" points="303,-141 303,-363 401,-363 401,-141 303,-141"/>
<text text-anchor="middle" x="352" y="-351" font-family="Helvetica,sans-Serif" font-size="10.00">LetterList</text>
<polyline fill="none" stroke="black" points="303,-344 401,-344 "/>
<text text-anchor="start" x="311" y="-332" font-family="Helvetica,sans-Serif" font-size="10.00">+ Count</text>
<text text-anchor="start" x="311" y="-321" font-family="Helvetica,sans-Serif" font-size="10.00">+ IsReadOnly</text>
<text text-anchor="start" x="311" y="-310" font-family="Helvetica,sans-Serif" font-size="10.00">+ this[int index]</text>
<polyline fill="none" stroke="black" points="303,-303 401,-303 "/>
<text text-anchor="start" x="311" y="-291" font-family="Helvetica,sans-Serif" font-size="10.00">+ LetterList()</text>
<text text-anchor="start" x="311" y="-280" font-family="Helvetica,sans-Serif" font-size="10.00">+ LetterList()</text>
<text text-anchor="start" x="311" y="-269" font-family="Helvetica,sans-Serif" font-size="10.00">+ LetterList()</text>
<text text-anchor="start" x="311" y="-258" font-family="Helvetica,sans-Serif" font-size="10.00">+ Add()</text>
<text text-anchor="start" x="311" y="-247" font-family="Helvetica,sans-Serif" font-size="10.00">+ AddRange()</text>
<text text-anchor="start" x="311" y="-236" font-family="Helvetica,sans-Serif" font-size="10.00">+ Clear()</text>
<text text-anchor="start" x="311" y="-225" font-family="Helvetica,sans-Serif" font-size="10.00">+ Contains()</text>
<text text-anchor="start" x="311" y="-214" font-family="Helvetica,sans-Serif" font-size="10.00">+ CopyTo()</text>
<text text-anchor="start" x="311" y="-203" font-family="Helvetica,sans-Serif" font-size="10.00">+ GetEnumerator()</text>
<text text-anchor="start" x="311" y="-192" font-family="Helvetica,sans-Serif" font-size="10.00">+ IndexOf()</text>
<text text-anchor="start" x="311" y="-181" font-family="Helvetica,sans-Serif" font-size="10.00">+ Insert()</text>
<text text-anchor="start" x="311" y="-170" font-family="Helvetica,sans-Serif" font-size="10.00">+ Remove()</text>
<text text-anchor="start" x="311" y="-159" font-family="Helvetica,sans-Serif" font-size="10.00">+ RemoveAt()</text>
<text text-anchor="start" x="311" y="-148" font-family="Helvetica,sans-Serif" font-size="10.00">+ Sort()</text>
</a>
</g>
</g>
<!-- Node5&#45;&gt;Node1 -->
<g id="edge4" class="edge"><title>Node5&#45;&gt;Node1</title>
<path fill="none" stroke="#404040" d="M302.839,-154.691C299.635,-149.644 296.348,-144.716 293,-140 283.37,-126.437 271.922,-112.77 260.572,-100.244"/>
<polygon fill="none" stroke="#404040" points="260.494,-100.159 253.484,-98.4645 252.352,-91.3428 259.362,-93.037 260.494,-100.159"/>
<text text-anchor="middle" x="284" y="-113.5" font-family="Helvetica,sans-Serif" font-size="10.00"> +l</text>
</g>
<!-- Node6 -->
<g id="node6" class="node"><title>Node6</title>
<polygon fill="none" stroke="#bfbfbf" points="313.5,-402.5 313.5,-459.5 390.5,-459.5 390.5,-402.5 313.5,-402.5"/>
<text text-anchor="middle" x="352" y="-447.5" font-family="Helvetica,sans-Serif" font-size="10.00">IList&lt; Letter &gt;</text>
<polyline fill="none" stroke="#bfbfbf" points="313.5,-440.5 390.5,-440.5 "/>
<text text-anchor="middle" x="352" y="-428.5" font-family="Helvetica,sans-Serif" font-size="10.00"> </text>
<polyline fill="none" stroke="#bfbfbf" points="313.5,-421.5 390.5,-421.5 "/>
<text text-anchor="middle" x="352" y="-409.5" font-family="Helvetica,sans-Serif" font-size="10.00"> </text>
</g>
<!-- Node6&#45;&gt;Node5 -->
<g id="edge5" class="edge"><title>Node6&#45;&gt;Node5</title>
<path fill="none" stroke="midnightblue" d="M352,-392.153C352,-383.356 352,-373.553 352,-363.336"/>
<polygon fill="none" stroke="midnightblue" points="348.5,-392.344 352,-402.344 355.5,-392.344 348.5,-392.344"/>
</g>
</g>
</svg>
        <g id="navigator" transform="translate(0 0)" fill="#404254">
                <rect fill="#f2f5e9" fill-opacity="0.5" stroke="#606060" stroke-width=".5" x="0" y="0" width="60" height="60"/>
                <use id="zoomplus" xlink:href="#zoomPlus" x="17" y="9" onmousedown="handleZoom(evt,'in')"/>
                <use id="zoomminus" xlink:href="#zoomMin" x="42" y="9" onmousedown="handleZoom(evt,'out')"/>
                <use id="reset" xlink:href="#resetDef" x="30" y="36" onmousedown="handleReset()"/>
                <g id="arrowUp" xlink:href="#dirArrow" transform="translate(30 24)" onmousedown="handlePan(0,-1)">
                  <use xlink:href="#rim" fill="#404040">
                        <set attributeName="fill" to="#808080" begin="arrowUp.mouseover" end="arrowUp.mouseout"/>
                  </use>
                  <path fill="none" stroke="white" stroke-width="1.5" d="M0,-3.0v7 M-2.5,-0.5L0,-3.0L2.5,-0.5"/>
                </g>
                <g id="arrowRight" xlink:href="#dirArrow" transform="rotate(90) translate(36 -43)" onmousedown="handlePan(1,0)">
                  <use xlink:href="#rim" fill="#404040">
                        <set attributeName="fill" to="#808080" begin="arrowRight.mouseover" end="arrowRight.mouseout"/>
                  </use>
                  <path fill="none" stroke="white" stroke-width="1.5" d="M0,-3.0v7 M-2.5,-0.5L0,-3.0L2.5,-0.5"/>
                </g>
                <g id="arrowDown" xlink:href="#dirArrow" transform="rotate(180) translate(-30 -48)" onmousedown="handlePan(0,1)">
                  <use xlink:href="#rim" fill="#404040">
                        <set attributeName="fill" to="#808080" begin="arrowDown.mouseover" end="arrowDown.mouseout"/>
                  </use>
                  <path fill="none" stroke="white" stroke-width="1.5" d="M0,-3.0v7 M-2.5,-0.5L0,-3.0L2.5,-0.5"/>
                </g>
                <g id="arrowLeft" xlink:href="#dirArrow" transform="rotate(270) translate(-36 17)" onmousedown="handlePan(-1,0)">
                  <use xlink:href="#rim" fill="#404040">
                        <set attributeName="fill" to="#808080" begin="arrowLeft.mouseover" end="arrowLeft.mouseout"/>
                  </use>
                  <path fill="none" stroke="white" stroke-width="1.5" d="M0,-3.0v7 M-2.5,-0.5L0,-3.0L2.5,-0.5"/>
                </g>
        </g>
        <svg viewBox="0 0 15 15" width="100%" height="30px" preserveAspectRatio="xMaxYMin meet">
         <g id="arrow_out" transform="scale(0.3 0.3)">
          <a xlink:href="struct_thinksquirrel_1_1_word_game_builder_1_1_letter_list_1_1_enumerator__coll__graph_org.svg" target="_base">
           <rect id="button" ry="5" rx="5" y="6" x="6" height="38" width="38"
                fill="#f2f5e9" fill-opacity="0.5" stroke="#606060" stroke-width="1.0"/>
           <path id="arrow"
             d="M 11.500037,31.436501 C 11.940474,20.09759 22.043105,11.32322 32.158766,21.979434 L 37.068811,17.246167 C 37.068811,17.246167 37.088388,32 37.088388,32 L 22.160133,31.978069 C 22.160133,31.978069 26.997745,27.140456 26.997745,27.140456 C 18.528582,18.264221 13.291696,25.230495 11.500037,31.436501 z"
             style="fill:#404040;"/>
          </a>
         </g>
        </svg>
</svg>
