<?xml version="1.0" encoding="UTF-8" standalone="no"?>
<!DOCTYPE svg PUBLIC "-//W3C//DTD SVG 1.1//EN"
 "http://www.w3.org/Graphics/SVG/1.1/DTD/svg11.dtd">
<!-- Generated by graphviz version 2.38.0 (20140413.2041)
 -->
<!-- Title: CheckWordAsync Pages: 1 -->
<svg width="364pt" height="88pt"
 viewBox="0.00 0.00 364.00 88.00" xmlns="http://www.w3.org/2000/svg" xmlns:xlink="http://www.w3.org/1999/xlink">
<g id="graph0" class="graph" transform="scale(1 1) rotate(0) translate(4 84)">
<title>CheckWordAsync</title>
<!-- Node1 -->
<g id="node1" class="node"><title>Node1</title>
<polygon fill="#bfbfbf" stroke="black" points="0,-30 0,-49 95,-49 95,-30 0,-30"/>
<text text-anchor="middle" x="47.5" y="-37" font-family="Helvetica,sans-Serif" font-size="10.00">CheckWordAsync</text>
</g>
<!-- Node2 -->
<g id="node2" class="node"><title>Node2</title>
<g id="a_node2"><a xlink:href="class_thinksquirrel_1_1_word_game_builder_example_1_1_example_game_logic.html#a2fd969ff4cd73e8d3201f42a6d5126b5" target="_top" xlink:title="This callback fires whenever tiles are distributed by the tile pool. ">
<polygon fill="none" stroke="black" points="131,-49.5 131,-79.5 356,-79.5 356,-49.5 131,-49.5"/>
<text text-anchor="start" x="139" y="-67.5" font-family="Helvetica,sans-Serif" font-size="10.00">Thinksquirrel.WordGameBuilder</text>
<text text-anchor="middle" x="243.5" y="-56.5" font-family="Helvetica,sans-Serif" font-size="10.00">Example.ExampleGameLogic.OnTileDistribution</text>
</a>
</g>
</g>
<!-- Node1&#45;&gt;Node2 -->
<g id="edge1" class="edge"><title>Node1&#45;&gt;Node2</title>
<path fill="none" stroke="midnightblue" d="M105.434,-46.8368C113.513,-47.878 122.043,-48.9771 130.734,-50.0972"/>
<polygon fill="midnightblue" stroke="midnightblue" points="105.827,-43.3587 95.462,-45.5518 104.933,-50.3013 105.827,-43.3587"/>
</g>
<!-- Node3 -->
<g id="node3" class="node"><title>Node3</title>
<g id="a_node3"><a xlink:href="class_thinksquirrel_1_1_word_game_builder_1_1_gameplay_1_1_word_game_player.html#a5850054dce7050ff763f918e17ded96c" target="_top" xlink:title="Submits the word for checking against the specified langauge&#39;s word list. ">
<polygon fill="none" stroke="black" points="144.5,-0.5 144.5,-30.5 342.5,-30.5 342.5,-0.5 144.5,-0.5"/>
<text text-anchor="start" x="152.5" y="-18.5" font-family="Helvetica,sans-Serif" font-size="10.00">Thinksquirrel.WordGameBuilder.</text>
<text text-anchor="middle" x="243.5" y="-7.5" font-family="Helvetica,sans-Serif" font-size="10.00">Gameplay.WordGamePlayer.SubmitWord</text>
</a>
</g>
</g>
<!-- Node1&#45;&gt;Node3 -->
<g id="edge2" class="edge"><title>Node1&#45;&gt;Node3</title>
<path fill="none" stroke="midnightblue" d="M105.461,-32.4532C117.679,-30.9417 130.925,-29.3031 144.203,-27.6604"/>
<polygon fill="midnightblue" stroke="midnightblue" points="104.957,-28.9889 95.462,-33.6903 105.816,-35.9359 104.957,-28.9889"/>
</g>
</g>
</svg>
