<?xml version="1.0" encoding="UTF-8" standalone="no"?>
<!DOCTYPE svg PUBLIC "-//W3C//DTD SVG 1.1//EN"
 "http://www.w3.org/Graphics/SVG/1.1/DTD/svg11.dtd">
<!-- Generated by graphviz version 2.38.0 (20140413.2041)
 -->
<!-- Title: OnWildcardTileSelect Pages: 1 -->
<svg width="364pt" height="88pt"
 viewBox="0.00 0.00 364.00 88.00" xmlns="http://www.w3.org/2000/svg" xmlns:xlink="http://www.w3.org/1999/xlink">
<g id="graph0" class="graph" transform="scale(1 1) rotate(0) translate(4 84)">
<title>OnWildcardTileSelect</title>
<!-- Node1 -->
<g id="node1" class="node"><title>Node1</title>
<polygon fill="#bfbfbf" stroke="black" points="0,-30 0,-49 110,-49 110,-30 0,-30"/>
<text text-anchor="middle" x="55" y="-37" font-family="Helvetica,sans-Serif" font-size="10.00">OnWildcardTileSelect</text>
</g>
<!-- Node2 -->
<g id="node2" class="node"><title>Node2</title>
<g id="a_node2"><a xlink:href="interface_thinksquirrel_1_1_word_game_builder_1_1_object_model_1_1_i_letter_tile.html#a23ae8895eb9f7b11c8dbb163b3b9bf84" target="_top" xlink:title="Remove the wildcard letter on a tile. ">
<polygon fill="none" stroke="black" points="155,-49.5 155,-79.5 347,-79.5 347,-49.5 155,-49.5"/>
<text text-anchor="start" x="163" y="-67.5" font-family="Helvetica,sans-Serif" font-size="10.00">Thinksquirrel.WordGameBuilder.</text>
<text text-anchor="middle" x="251" y="-56.5" font-family="Helvetica,sans-Serif" font-size="10.00">ObjectModel.ILetterTile.RemoveWildcard</text>
</a>
</g>
</g>
<!-- Node1&#45;&gt;Node2 -->
<g id="edge1" class="edge"><title>Node1&#45;&gt;Node2</title>
<path fill="none" stroke="midnightblue" d="M110.04,-46.4639C120.901,-47.8635 132.663,-49.3792 144.595,-50.9169"/>
<polygon fill="midnightblue" stroke="midnightblue" points="144.277,-54.4048 154.643,-52.2117 145.172,-47.4622 144.277,-54.4048"/>
</g>
<!-- Node3 -->
<g id="node3" class="node"><title>Node3</title>
<g id="a_node3"><a xlink:href="interface_thinksquirrel_1_1_word_game_builder_1_1_object_model_1_1_i_word_game_player.html#ab5560143617a2009adec410bbb4531c3" target="_top" xlink:title="Attempts to deselect a tile. If the tile implements ISelectableLetterTile, this follows selection rul...">
<polygon fill="none" stroke="black" points="146,-0.5 146,-30.5 356,-30.5 356,-0.5 146,-0.5"/>
<text text-anchor="start" x="154" y="-18.5" font-family="Helvetica,sans-Serif" font-size="10.00">Thinksquirrel.WordGameBuilder.</text>
<text text-anchor="middle" x="251" y="-7.5" font-family="Helvetica,sans-Serif" font-size="10.00">ObjectModel.IWordGamePlayer.DeselectTile</text>
</a>
</g>
</g>
<!-- Node1&#45;&gt;Node3 -->
<g id="edge2" class="edge"><title>Node1&#45;&gt;Node3</title>
<path fill="none" stroke="midnightblue" d="M110.04,-32.8147C118.186,-31.8069 126.838,-30.7365 135.689,-29.6415"/>
<polygon fill="midnightblue" stroke="midnightblue" points="136.256,-33.0982 145.751,-28.3968 135.396,-26.1512 136.256,-33.0982"/>
</g>
</g>
</svg>
