<?xml version="1.0" encoding="UTF-8" standalone="no"?>
<!DOCTYPE svg PUBLIC "-//W3C//DTD SVG 1.1//EN"
 "http://www.w3.org/Graphics/SVG/1.1/DTD/svg11.dtd">
<!-- Generated by graphviz version 2.38.0 (20140413.2041)
 -->
<!-- Title: SimulateInput Pages: 1 -->
<!--zoomable 417 -->
<svg id="main" version="1.1" xmlns="http://www.w3.org/2000/svg" xmlns:xlink="http://www.w3.org/1999/xlink" xml:space="preserve" onload="init(evt)">
<style type="text/css"><![CDATA[
.edge:hover path { stroke: red; }
.edge:hover polygon { stroke: red; fill: red; }
]]></style>
<script type="text/javascript"><![CDATA[
var edges = document.getElementsByTagName('g');
if (edges && edges.length) {
  for (var i=0;i<edges.length;i++) {
    if (edges[i].id.substr(0,4)=='edge') {
      edges[i].setAttribute('class','edge');
    }
  }
}
]]></script>
        <defs>
                <circle id="rim" cx="0" cy="0" r="7"/>
                <circle id="rim2" cx="0" cy="0" r="3.5"/>
                <g id="zoomPlus">
                        <use xlink:href="#rim" fill="#404040">
                                <set attributeName="fill" to="#808080" begin="zoomplus.mouseover" end="zoomplus.mouseout"/>
                        </use>
                        <path d="M-4,0h8M0,-4v8" fill="none" stroke="white" stroke-width="1.5" pointer-events="none"/>
                </g>
                <g id="zoomMin">
                        <use xlink:href="#rim" fill="#404040">
                                <set attributeName="fill" to="#808080" begin="zoomminus.mouseover" end="zoomminus.mouseout"/>
                        </use>
                        <path d="M-4,0h8" fill="none" stroke="white" stroke-width="1.5" pointer-events="none"/>
                </g>
                <g id="dirArrow">
                        <path fill="none" stroke="white" stroke-width="1.5" d="M0,-3.0v7 M-2.5,-0.5L0,-3.0L2.5,-0.5"/>
                </g>
               <g id="resetDef">
                       <use xlink:href="#rim2" fill="#404040">
                               <set attributeName="fill" to="#808080" begin="reset.mouseover" end="reset.mouseout"/>
                       </use>
               </g>
        </defs>

<script type="text/javascript">
var viewWidth = 530;
var viewHeight = 417;
var sectionId = 'dynsection-2';
</script>
<script xlink:href="svgpan.js"/>
<svg id="graph" class="graph">
<g id="viewport">
<title>SimulateInput</title>
<!-- Node1 -->
<g id="node1" class="node"><title>Node1</title>
<polygon fill="#bfbfbf" stroke="black" points="0,-200.5 0,-219.5 76,-219.5 76,-200.5 0,-200.5"/>
<text text-anchor="middle" x="38" y="-207.5" font-family="Helvetica,sans-Serif" font-size="10.00">SimulateInput</text>
</g>
<!-- Node2 -->
<g id="node2" class="node"><title>Node2</title>
<g id="a_node2"><a xlink:href="class_thinksquirrel_1_1_word_game_builder_1_1_tiles_1_1_letter_tile_1_1_selection_info.html#a4cb9bd9c93febadb526c1213c6c43923" target="_top" xlink:title="Adds all active players in the scene to this tile. ">
<polygon fill="none" stroke="black" points="118,-367.5 118,-408.5 276,-408.5 276,-367.5 118,-367.5"/>
<text text-anchor="start" x="126" y="-396.5" font-family="Helvetica,sans-Serif" font-size="10.00">Thinksquirrel.WordGameBuilder.</text>
<text text-anchor="start" x="126" y="-385.5" font-family="Helvetica,sans-Serif" font-size="10.00">Tiles.LetterTile.SelectionInfo.Add</text>
<text text-anchor="middle" x="197" y="-374.5" font-family="Helvetica,sans-Serif" font-size="10.00">AllPlayers</text>
</a>
</g>
</g>
<!-- Node1&#45;&gt;Node2 -->
<g id="edge1" class="edge"><title>Node1&#45;&gt;Node2</title>
<path fill="none" stroke="midnightblue" d="M41.1328,-219.855C47.3199,-246.131 67.7199,-318.548 112,-358 113.474,-359.313 115.01,-360.57 116.597,-361.773"/>
<polygon fill="midnightblue" stroke="midnightblue" points="114.664,-364.691 124.92,-367.349 118.56,-358.875 114.664,-364.691"/>
</g>
<!-- Node4 -->
<g id="node4" class="node"><title>Node4</title>
<g id="a_node4"><a xlink:href="class_thinksquirrel_1_1_word_game_builder_1_1_tweening_1_1_tweener.html#a6e2d745cdb7a7b983f861ed6a9a541a7" target="_top" xlink:title="Disposes the tweener object. ">
<polygon fill="none" stroke="black" points="118.5,-318 118.5,-348 275.5,-348 275.5,-318 118.5,-318"/>
<text text-anchor="start" x="126.5" y="-336" font-family="Helvetica,sans-Serif" font-size="10.00">Thinksquirrel.WordGameBuilder.</text>
<text text-anchor="middle" x="197" y="-325" font-family="Helvetica,sans-Serif" font-size="10.00">Tweening.Tweener.Dispose</text>
</a>
</g>
</g>
<!-- Node1&#45;&gt;Node4 -->
<g id="edge3" class="edge"><title>Node1&#45;&gt;Node4</title>
<path fill="none" stroke="midnightblue" d="M43.3385,-219.529C52.8422,-239.316 77.4427,-285.008 112,-309 114.258,-310.568 116.618,-312.034 119.053,-313.405"/>
<polygon fill="midnightblue" stroke="midnightblue" points="117.646,-316.615 128.155,-317.964 120.781,-310.356 117.646,-316.615"/>
</g>
<!-- Node5 -->
<g id="node5" class="node"><title>Node5</title>
<g id="a_node5"><a xlink:href="class_thinksquirrel_1_1_word_game_builder_1_1_w_g_b_event.html#ae0a1971d24b447511741cc2c90595e3f" target="_top" xlink:title="Invokes the event directly. This will never run outside of play mode. ">
<polygon fill="none" stroke="black" points="118.5,-269 118.5,-299 275.5,-299 275.5,-269 118.5,-269"/>
<text text-anchor="start" x="126.5" y="-287" font-family="Helvetica,sans-Serif" font-size="10.00">Thinksquirrel.WordGameBuilder.</text>
<text text-anchor="middle" x="197" y="-276" font-family="Helvetica,sans-Serif" font-size="10.00">WGBEvent.Invoke</text>
</a>
</g>
</g>
<!-- Node1&#45;&gt;Node5 -->
<g id="edge4" class="edge"><title>Node1&#45;&gt;Node5</title>
<path fill="none" stroke="midnightblue" d="M50.6683,-219.771C64.5047,-230.919 88.6446,-249.021 112,-260 116.126,-261.94 120.442,-263.755 124.846,-265.448"/>
<polygon fill="midnightblue" stroke="midnightblue" points="123.992,-268.861 134.587,-268.96 126.367,-262.276 123.992,-268.861"/>
</g>
<!-- Node6 -->
<g id="node6" class="node"><title>Node6</title>
<g id="a_node6"><a xlink:href="class_thinksquirrel_1_1_word_game_builder_1_1_tweening_1_1_tweener.html#a5c7eefbf162a3c63fafb2e0a33dcfc41" target="_top" xlink:title="Start a tween action. ">
<polygon fill="none" stroke="black" points="118.5,-220 118.5,-250 275.5,-250 275.5,-220 118.5,-220"/>
<text text-anchor="start" x="126.5" y="-238" font-family="Helvetica,sans-Serif" font-size="10.00">Thinksquirrel.WordGameBuilder.</text>
<text text-anchor="middle" x="197" y="-227" font-family="Helvetica,sans-Serif" font-size="10.00">Tweening.Tweener.Start</text>
</a>
</g>
</g>
<!-- Node1&#45;&gt;Node6 -->
<g id="edge5" class="edge"><title>Node1&#45;&gt;Node6</title>
<path fill="none" stroke="midnightblue" d="M76.2068,-215.925C86.0255,-217.488 97.0491,-219.243 108.329,-221.04"/>
<polygon fill="midnightblue" stroke="midnightblue" points="107.857,-224.509 118.283,-222.625 108.958,-217.596 107.857,-224.509"/>
</g>
<!-- Node7 -->
<g id="node7" class="node"><title>Node7</title>
<g id="a_node7"><a xlink:href="class_thinksquirrel_1_1_word_game_builder_1_1_tweening_1_1_tweener.html#a17a237457e57625296e6b24feb19c60a" target="_top" xlink:title="Stop any currently running tween action. ">
<polygon fill="none" stroke="black" points="118.5,-171 118.5,-201 275.5,-201 275.5,-171 118.5,-171"/>
<text text-anchor="start" x="126.5" y="-189" font-family="Helvetica,sans-Serif" font-size="10.00">Thinksquirrel.WordGameBuilder.</text>
<text text-anchor="middle" x="197" y="-178" font-family="Helvetica,sans-Serif" font-size="10.00">Tweening.Tweener.Stop</text>
</a>
</g>
</g>
<!-- Node1&#45;&gt;Node7 -->
<g id="edge6" class="edge"><title>Node1&#45;&gt;Node7</title>
<path fill="none" stroke="midnightblue" d="M76.2068,-204.312C86.0255,-202.811 97.0491,-201.126 108.329,-199.402"/>
<polygon fill="midnightblue" stroke="midnightblue" points="108.927,-202.851 118.283,-197.88 107.869,-195.932 108.927,-202.851"/>
</g>
<!-- Node8 -->
<g id="node8" class="node"><title>Node8</title>
<g id="a_node8"><a xlink:href="interface_thinksquirrel_1_1_word_game_builder_1_1_object_model_1_1_i_wildcard_tile_manager.html#a558733e100ca158233fe06df5a0f59ce" target="_top" xlink:title="Selects the specified tile as a wildcard with the specified language and player. ">
<polygon fill="none" stroke="black" points="112,-110.5 112,-151.5 282,-151.5 282,-110.5 112,-110.5"/>
<text text-anchor="start" x="120" y="-139.5" font-family="Helvetica,sans-Serif" font-size="10.00">Thinksquirrel.WordGameBuilder.</text>
<text text-anchor="start" x="120" y="-128.5" font-family="Helvetica,sans-Serif" font-size="10.00">ObjectModel.IWildcardTileManager.</text>
<text text-anchor="middle" x="197" y="-117.5" font-family="Helvetica,sans-Serif" font-size="10.00">SelectWildcardTile</text>
</a>
</g>
</g>
<!-- Node1&#45;&gt;Node8 -->
<g id="edge7" class="edge"><title>Node1&#45;&gt;Node8</title>
<path fill="none" stroke="midnightblue" d="M51.6459,-200.393C65.7916,-189.96 89.6595,-173.281 112,-162 116.482,-159.737 121.169,-157.552 125.94,-155.46"/>
<polygon fill="midnightblue" stroke="midnightblue" points="127.332,-158.672 135.184,-151.559 124.61,-152.223 127.332,-158.672"/>
</g>
<!-- Node9 -->
<g id="node9" class="node"><title>Node9</title>
<g id="a_node9"><a xlink:href="class_thinksquirrel_1_1_word_game_builder_1_1_w_g_b_base.html#ad9bdc41d57dc8af06a56606485902fe7" target="_top" xlink:title="Logs a prefixed warning. ">
<polygon fill="none" stroke="black" points="118.5,-61 118.5,-91 275.5,-91 275.5,-61 118.5,-61"/>
<text text-anchor="start" x="126.5" y="-79" font-family="Helvetica,sans-Serif" font-size="10.00">Thinksquirrel.WordGameBuilder.</text>
<text text-anchor="middle" x="197" y="-68" font-family="Helvetica,sans-Serif" font-size="10.00">WGBBase.LogWarning</text>
</a>
</g>
</g>
<!-- Node1&#45;&gt;Node9 -->
<g id="edge8" class="edge"><title>Node1&#45;&gt;Node9</title>
<path fill="none" stroke="midnightblue" d="M42.8186,-200.193C51.6397,-178.836 75.5109,-127.884 112,-101 114.634,-99.0596 117.418,-97.2688 120.308,-95.6161"/>
<polygon fill="midnightblue" stroke="midnightblue" points="121.93,-98.7177 129.253,-91.0611 118.754,-92.4798 121.93,-98.7177"/>
</g>
<!-- Node10 -->
<g id="node10" class="node"><title>Node10</title>
<g id="a_node10"><a xlink:href="interface_thinksquirrel_1_1_word_game_builder_1_1_object_model_1_1_i_selectable_letter_tile.html#a68d25dc137edb98ac45abf2777f68a21" target="_top" xlink:title="Deselects the tile, ignoring tile selection rules. ">
<polygon fill="none" stroke="black" points="114.5,-0.5 114.5,-41.5 279.5,-41.5 279.5,-0.5 114.5,-0.5"/>
<text text-anchor="start" x="122.5" y="-29.5" font-family="Helvetica,sans-Serif" font-size="10.00">Thinksquirrel.WordGameBuilder.</text>
<text text-anchor="start" x="122.5" y="-18.5" font-family="Helvetica,sans-Serif" font-size="10.00">ObjectModel.ISelectableLetterTile.</text>
<text text-anchor="middle" x="197" y="-7.5" font-family="Helvetica,sans-Serif" font-size="10.00">ForceDeselectTile</text>
</a>
</g>
</g>
<!-- Node1&#45;&gt;Node10 -->
<g id="edge9" class="edge"><title>Node1&#45;&gt;Node10</title>
<path fill="none" stroke="midnightblue" d="M40.7873,-200.312C46.3101,-173.045 65.6096,-94.8515 112,-52 113.716,-50.4146 115.521,-48.9084 117.397,-47.4778"/>
<polygon fill="midnightblue" stroke="midnightblue" points="119.684,-50.1581 126.033,-41.6764 115.78,-44.3476 119.684,-50.1581"/>
</g>
<!-- Node3 -->
<g id="node3" class="node"><title>Node3</title>
<g id="a_node3"><a xlink:href="class_thinksquirrel_1_1_word_game_builder_1_1_gameplay_1_1_word_game_player.html#a43f6de11c1ae566acf55e0ff9a540386" target="_top" xlink:title="Finds all active players in the scene. ">
<polygon fill="none" stroke="black" points="318,-373 318,-403 522,-403 522,-373 318,-373"/>
<text text-anchor="start" x="326" y="-391" font-family="Helvetica,sans-Serif" font-size="10.00">Thinksquirrel.WordGameBuilder.</text>
<text text-anchor="middle" x="420" y="-380" font-family="Helvetica,sans-Serif" font-size="10.00">Gameplay.WordGamePlayer.GetAllPlayers</text>
</a>
</g>
</g>
<!-- Node2&#45;&gt;Node3 -->
<g id="edge2" class="edge"><title>Node2&#45;&gt;Node3</title>
<path fill="none" stroke="midnightblue" d="M276.227,-388C286.39,-388 296.952,-388 307.525,-388"/>
<polygon fill="midnightblue" stroke="midnightblue" points="307.654,-391.5 317.654,-388 307.654,-384.5 307.654,-391.5"/>
</g>
</g>
</svg>
        <g id="navigator" transform="translate(0 0)" fill="#404254">
                <rect fill="#f2f5e9" fill-opacity="0.5" stroke="#606060" stroke-width=".5" x="0" y="0" width="60" height="60"/>
                <use id="zoomplus" xlink:href="#zoomPlus" x="17" y="9" onmousedown="handleZoom(evt,'in')"/>
                <use id="zoomminus" xlink:href="#zoomMin" x="42" y="9" onmousedown="handleZoom(evt,'out')"/>
                <use id="reset" xlink:href="#resetDef" x="30" y="36" onmousedown="handleReset()"/>
                <g id="arrowUp" xlink:href="#dirArrow" transform="translate(30 24)" onmousedown="handlePan(0,-1)">
                  <use xlink:href="#rim" fill="#404040">
                        <set attributeName="fill" to="#808080" begin="arrowUp.mouseover" end="arrowUp.mouseout"/>
                  </use>
                  <path fill="none" stroke="white" stroke-width="1.5" d="M0,-3.0v7 M-2.5,-0.5L0,-3.0L2.5,-0.5"/>
                </g>
                <g id="arrowRight" xlink:href="#dirArrow" transform="rotate(90) translate(36 -43)" onmousedown="handlePan(1,0)">
                  <use xlink:href="#rim" fill="#404040">
                        <set attributeName="fill" to="#808080" begin="arrowRight.mouseover" end="arrowRight.mouseout"/>
                  </use>
                  <path fill="none" stroke="white" stroke-width="1.5" d="M0,-3.0v7 M-2.5,-0.5L0,-3.0L2.5,-0.5"/>
                </g>
                <g id="arrowDown" xlink:href="#dirArrow" transform="rotate(180) translate(-30 -48)" onmousedown="handlePan(0,1)">
                  <use xlink:href="#rim" fill="#404040">
                        <set attributeName="fill" to="#808080" begin="arrowDown.mouseover" end="arrowDown.mouseout"/>
                  </use>
                  <path fill="none" stroke="white" stroke-width="1.5" d="M0,-3.0v7 M-2.5,-0.5L0,-3.0L2.5,-0.5"/>
                </g>
                <g id="arrowLeft" xlink:href="#dirArrow" transform="rotate(270) translate(-36 17)" onmousedown="handlePan(-1,0)">
                  <use xlink:href="#rim" fill="#404040">
                        <set attributeName="fill" to="#808080" begin="arrowLeft.mouseover" end="arrowLeft.mouseout"/>
                  </use>
                  <path fill="none" stroke="white" stroke-width="1.5" d="M0,-3.0v7 M-2.5,-0.5L0,-3.0L2.5,-0.5"/>
                </g>
        </g>
        <svg viewBox="0 0 15 15" width="100%" height="30px" preserveAspectRatio="xMaxYMin meet">
         <g id="arrow_out" transform="scale(0.3 0.3)">
          <a xlink:href="class_thinksquirrel_1_1_word_game_builder_1_1_tiles_1_1_letter_tile_aced12388d9c3fd45a02a5049a2276a09_cgraph_org.svg" target="_base">
           <rect id="button" ry="5" rx="5" y="6" x="6" height="38" width="38"
                fill="#f2f5e9" fill-opacity="0.5" stroke="#606060" stroke-width="1.0"/>
           <path id="arrow"
             d="M 11.500037,31.436501 C 11.940474,20.09759 22.043105,11.32322 32.158766,21.979434 L 37.068811,17.246167 C 37.068811,17.246167 37.088388,32 37.088388,32 L 22.160133,31.978069 C 22.160133,31.978069 26.997745,27.140456 26.997745,27.140456 C 18.528582,18.264221 13.291696,25.230495 11.500037,31.436501 z"
             style="fill:#404040;"/>
          </a>
         </g>
        </svg>
</svg>
