<?xml version="1.0" encoding="UTF-8" standalone="no"?>
<!DOCTYPE svg PUBLIC "-//W3C//DTD SVG 1.1//EN"
 "http://www.w3.org/Graphics/SVG/1.1/DTD/svg11.dtd">
<!-- Generated by graphviz version 2.38.0 (20140413.2041)
 -->
<!-- Title: FindByIdentifier Pages: 1 -->
<svg width="313pt" height="285pt"
 viewBox="0.00 0.00 313.00 285.00" xmlns="http://www.w3.org/2000/svg" xmlns:xlink="http://www.w3.org/1999/xlink">
<g id="graph0" class="graph" transform="scale(1 1) rotate(0) translate(4 281)">
<title>FindByIdentifier</title>
<!-- Node1 -->
<g id="node1" class="node"><title>Node1</title>
<polygon fill="#bfbfbf" stroke="black" points="0,-117.5 0,-136.5 83,-136.5 83,-117.5 0,-117.5"/>
<text text-anchor="middle" x="41.5" y="-124.5" font-family="Helvetica,sans-Serif" font-size="10.00">FindByIdentifier</text>
</g>
<!-- Node2 -->
<g id="node2" class="node"><title>Node2</title>
<g id="a_node2"><a xlink:href="class_thinksquirrel_1_1_word_game_builder_editor_1_1_editor_windows_1_1_language_editor.html#ae70777cd03293814a6381fef6a73d9fb" target="_top" xlink:title="Convert a language name into an identifier, by removing all diacritical marks. Also ensures that the ...">
<polygon fill="none" stroke="black" points="120,-235.5 120,-276.5 304,-276.5 304,-235.5 120,-235.5"/>
<text text-anchor="start" x="128" y="-264.5" font-family="Helvetica,sans-Serif" font-size="10.00">Thinksquirrel.WordGameBuilder</text>
<text text-anchor="start" x="128" y="-253.5" font-family="Helvetica,sans-Serif" font-size="10.00">Editor.EditorWindows.LanguageEditor.</text>
<text text-anchor="middle" x="212" y="-242.5" font-family="Helvetica,sans-Serif" font-size="10.00">LangToIdentifier</text>
</a>
</g>
</g>
<!-- Node1&#45;&gt;Node2 -->
<g id="edge1" class="edge"><title>Node1&#45;&gt;Node2</title>
<path fill="none" stroke="midnightblue" d="M52.219,-145.52C64.7822,-167.731 88.6897,-204.632 119,-226 123.943,-229.485 129.315,-232.583 134.898,-235.334"/>
<polygon fill="midnightblue" stroke="midnightblue" points="55.275,-143.814 47.4028,-136.723 49.1349,-147.175 55.275,-143.814"/>
</g>
<!-- Node3 -->
<g id="node3" class="node"><title>Node3</title>
<g id="a_node3"><a xlink:href="class_thinksquirrel_1_1_word_game_builder_1_1_gameplay_1_1_tile_pool.html#a384e442554038531fc8b43186a013323" target="_top" xlink:title="Saves the tile distribution dictionary. ">
<polygon fill="none" stroke="black" points="119,-186 119,-216 305,-216 305,-186 119,-186"/>
<text text-anchor="start" x="127" y="-204" font-family="Helvetica,sans-Serif" font-size="10.00">Thinksquirrel.WordGameBuilder.</text>
<text text-anchor="middle" x="212" y="-193" font-family="Helvetica,sans-Serif" font-size="10.00">Gameplay.TilePool.SaveTileDistribution</text>
</a>
</g>
</g>
<!-- Node1&#45;&gt;Node3 -->
<g id="edge2" class="edge"><title>Node1&#45;&gt;Node3</title>
<path fill="none" stroke="midnightblue" d="M62.892,-142.963C77.7298,-153.902 98.6976,-168.005 119,-177 126.546,-180.343 134.654,-183.296 142.816,-185.883"/>
<polygon fill="midnightblue" stroke="midnightblue" points="64.5969,-139.865 54.5062,-136.636 60.3805,-145.453 64.5969,-139.865"/>
</g>
<!-- Node4 -->
<g id="node4" class="node"><title>Node4</title>
<g id="a_node4"><a xlink:href="class_thinksquirrel_1_1_word_game_builder_1_1_gameplay_1_1_tile_pool.html#ad93cb8a56a2c82e24f9073821654d986" target="_top" xlink:title="Creates the tile pool. ">
<polygon fill="none" stroke="black" points="130,-137 130,-167 294,-167 294,-137 130,-137"/>
<text text-anchor="start" x="138" y="-155" font-family="Helvetica,sans-Serif" font-size="10.00">Thinksquirrel.WordGameBuilder.</text>
<text text-anchor="middle" x="212" y="-144" font-family="Helvetica,sans-Serif" font-size="10.00">Gameplay.TilePool.CreateTilePool</text>
</a>
</g>
</g>
<!-- Node1&#45;&gt;Node4 -->
<g id="edge3" class="edge"><title>Node1&#45;&gt;Node4</title>
<path fill="none" stroke="midnightblue" d="M93.2058,-134.523C104.82,-136.246 117.45,-138.12 129.985,-139.98"/>
<polygon fill="midnightblue" stroke="midnightblue" points="93.6946,-131.057 83.2891,-133.052 92.6672,-137.982 93.6946,-131.057"/>
</g>
<!-- Node5 -->
<g id="node5" class="node"><title>Node5</title>
<g id="a_node5"><a xlink:href="class_thinksquirrel_1_1_word_game_builder_1_1_gameplay_1_1_tile_pool.html#a57b5649459feafb1388a3c83d04141e8" target="_top" xlink:title="Resets the tile pool. ">
<polygon fill="none" stroke="black" points="131.5,-88 131.5,-118 292.5,-118 292.5,-88 131.5,-88"/>
<text text-anchor="start" x="139.5" y="-106" font-family="Helvetica,sans-Serif" font-size="10.00">Thinksquirrel.WordGameBuilder.</text>
<text text-anchor="middle" x="212" y="-95" font-family="Helvetica,sans-Serif" font-size="10.00">Gameplay.TilePool.ResetTilePool</text>
</a>
</g>
</g>
<!-- Node1&#45;&gt;Node5 -->
<g id="edge4" class="edge"><title>Node1&#45;&gt;Node5</title>
<path fill="none" stroke="midnightblue" d="M93.4875,-119.738C105.439,-118.035 118.454,-116.182 131.326,-114.348"/>
<polygon fill="midnightblue" stroke="midnightblue" points="92.6957,-116.315 83.2891,-121.19 93.6828,-123.245 92.6957,-116.315"/>
</g>
<!-- Node6 -->
<g id="node6" class="node"><title>Node6</title>
<g id="a_node6"><a xlink:href="class_thinksquirrel_1_1_word_game_builder_1_1_gameplay_1_1_tile_pool.html#a9a6655be91f9a087ac4d460821885fc3" target="_top" xlink:title="Spawns a brand new tile into the pool, based on the specified letter. ">
<polygon fill="none" stroke="black" points="133.5,-39 133.5,-69 290.5,-69 290.5,-39 133.5,-39"/>
<text text-anchor="start" x="141.5" y="-57" font-family="Helvetica,sans-Serif" font-size="10.00">Thinksquirrel.WordGameBuilder.</text>
<text text-anchor="middle" x="212" y="-46" font-family="Helvetica,sans-Serif" font-size="10.00">Gameplay.TilePool.CreateTile</text>
</a>
</g>
</g>
<!-- Node1&#45;&gt;Node6 -->
<g id="edge5" class="edge"><title>Node1&#45;&gt;Node6</title>
<path fill="none" stroke="midnightblue" d="M63.5483,-111.407C78.4101,-101.008 99.138,-87.6999 119,-79 127.49,-75.2812 136.668,-71.9931 145.827,-69.1252"/>
<polygon fill="midnightblue" stroke="midnightblue" points="61.2117,-108.775 55.1129,-117.439 65.2832,-114.469 61.2117,-108.775"/>
</g>
<!-- Node7 -->
<g id="node7" class="node"><title>Node7</title>
<g id="a_node7"><a xlink:href="class_thinksquirrel_1_1_word_game_builder_1_1_word_game_language.html#a9ac0166c5bf9e7e44b056d0fc3e7e355" target="_top" xlink:title="Deep copy this language to a new language. A unique name will be assigned to the language identifier...">
<polygon fill="none" stroke="black" points="192.5,-0.5 192.5,-19.5 231.5,-19.5 231.5,-0.5 192.5,-0.5"/>
<text text-anchor="middle" x="212" y="-7.5" font-family="Helvetica,sans-Serif" font-size="10.00">Copy</text>
</a>
</g>
</g>
<!-- Node1&#45;&gt;Node7 -->
<g id="edge6" class="edge"><title>Node1&#45;&gt;Node7</title>
<path fill="none" stroke="midnightblue" d="M51.9498,-108.384C64.2592,-86.1157 87.9283,-49.417 119,-30 141.594,-15.8808 172.714,-11.6333 192.342,-10.4106"/>
<polygon fill="midnightblue" stroke="midnightblue" points="48.7143,-107.014 47.1076,-117.486 54.8942,-110.301 48.7143,-107.014"/>
</g>
</g>
</svg>
