<?xml version="1.0" encoding="UTF-8" standalone="no"?>
<!DOCTYPE svg PUBLIC "-//W3C//DTD SVG 1.1//EN"
 "http://www.w3.org/Graphics/SVG/1.1/DTD/svg11.dtd">
<!-- Generated by graphviz version 2.38.0 (20140413.2041)
 -->
<!-- Title: Decompress Pages: 1 -->
<svg width="272pt" height="137pt"
 viewBox="0.00 0.00 272.00 137.00" xmlns="http://www.w3.org/2000/svg" xmlns:xlink="http://www.w3.org/1999/xlink">
<g id="graph0" class="graph" transform="scale(1 1) rotate(0) translate(4 133)">
<title>Decompress</title>
<!-- Node1 -->
<g id="node1" class="node"><title>Node1</title>
<polygon fill="#bfbfbf" stroke="black" points="0,-55 0,-74 71,-74 71,-55 0,-55"/>
<text text-anchor="middle" x="35.5" y="-62" font-family="Helvetica,sans-Serif" font-size="10.00">Decompress</text>
</g>
<!-- Node2 -->
<g id="node2" class="node"><title>Node2</title>
<g id="a_node2"><a xlink:href="class_thinksquirrel_1_1_word_game_builder_1_1_async_task.html#a61696d12bced86b6c979f001fa79df78" target="_top" xlink:title="Dispatches an action onto the main thread. ">
<polygon fill="none" stroke="black" points="107,-98.5 107,-128.5 264,-128.5 264,-98.5 107,-98.5"/>
<text text-anchor="start" x="115" y="-116.5" font-family="Helvetica,sans-Serif" font-size="10.00">Thinksquirrel.WordGameBuilder.</text>
<text text-anchor="middle" x="185.5" y="-105.5" font-family="Helvetica,sans-Serif" font-size="10.00">AsyncTask.Dispatch</text>
</a>
</g>
</g>
<!-- Node1&#45;&gt;Node2 -->
<g id="edge1" class="edge"><title>Node1&#45;&gt;Node2</title>
<path fill="none" stroke="midnightblue" d="M62.5281,-74.013C75.795,-78.7898 92.2101,-84.5899 107,-89.5 112.878,-91.4513 119.022,-93.4404 125.169,-95.3966"/>
<polygon fill="midnightblue" stroke="midnightblue" points="124.202,-98.7615 134.792,-98.4334 126.309,-92.086 124.202,-98.7615"/>
</g>
<!-- Node3 -->
<g id="node3" class="node"><title>Node3</title>
<g id="a_node3"><a xlink:href="class_thinksquirrel_1_1_word_game_builder_1_1_w_g_b_base.html#a1f57ebbdd7048e29bb2bb125febebd7d" target="_top" xlink:title="Logs an exception. ">
<polygon fill="none" stroke="black" points="107,-49.5 107,-79.5 264,-79.5 264,-49.5 107,-49.5"/>
<text text-anchor="start" x="115" y="-67.5" font-family="Helvetica,sans-Serif" font-size="10.00">Thinksquirrel.WordGameBuilder.</text>
<text text-anchor="middle" x="185.5" y="-56.5" font-family="Helvetica,sans-Serif" font-size="10.00">WGBBase.LogException</text>
</a>
</g>
</g>
<!-- Node1&#45;&gt;Node3 -->
<g id="edge2" class="edge"><title>Node1&#45;&gt;Node3</title>
<path fill="none" stroke="midnightblue" d="M71.1994,-64.5C79.021,-64.5 87.6678,-64.5 96.5947,-64.5"/>
<polygon fill="midnightblue" stroke="midnightblue" points="96.7634,-68.0001 106.763,-64.5 96.7633,-61.0001 96.7634,-68.0001"/>
</g>
<!-- Node4 -->
<g id="node4" class="node"><title>Node4</title>
<g id="a_node4"><a xlink:href="class_thinksquirrel_1_1_word_game_builder_1_1_w_g_b_base.html#ab57b4a4297b7972dbe73dbd6aeeb6bc2" target="_top" xlink:title="Logs a prefixed erorr. ">
<polygon fill="none" stroke="black" points="107,-0.5 107,-30.5 264,-30.5 264,-0.5 107,-0.5"/>
<text text-anchor="start" x="115" y="-18.5" font-family="Helvetica,sans-Serif" font-size="10.00">Thinksquirrel.WordGameBuilder.</text>
<text text-anchor="middle" x="185.5" y="-7.5" font-family="Helvetica,sans-Serif" font-size="10.00">WGBBase.LogError</text>
</a>
</g>
</g>
<!-- Node1&#45;&gt;Node4 -->
<g id="edge3" class="edge"><title>Node1&#45;&gt;Node4</title>
<path fill="none" stroke="midnightblue" d="M64.2572,-54.9358C77.2263,-50.4966 92.8864,-45.1784 107,-40.5 113.582,-38.3182 120.486,-36.0548 127.348,-33.8211"/>
<polygon fill="midnightblue" stroke="midnightblue" points="128.898,-36.9982 137.329,-30.5827 126.737,-30.3399 128.898,-36.9982"/>
</g>
</g>
</svg>
