<?xml version="1.0" encoding="UTF-8" standalone="no"?>
<!DOCTYPE svg PUBLIC "-//W3C//DTD SVG 1.1//EN"
 "http://www.w3.org/Graphics/SVG/1.1/DTD/svg11.dtd">
<!-- Generated by graphviz version 2.38.0 (20140413.2041)
 -->
<!-- Title: DrawEvent Pages: 1 -->
<svg width="505pt" height="237pt"
 viewBox="0.00 0.00 505.00 236.50" xmlns="http://www.w3.org/2000/svg" xmlns:xlink="http://www.w3.org/1999/xlink">
<g id="graph0" class="graph" transform="scale(1 1) rotate(0) translate(4 232.5)">
<title>DrawEvent</title>
<!-- Node1 -->
<g id="node1" class="node"><title>Node1</title>
<polygon fill="#bfbfbf" stroke="black" points="0,-115.5 0,-134.5 62,-134.5 62,-115.5 0,-115.5"/>
<text text-anchor="middle" x="31" y="-122.5" font-family="Helvetica,sans-Serif" font-size="10.00">DrawEvent</text>
</g>
<!-- Node2 -->
<g id="node2" class="node"><title>Node2</title>
<g id="a_node2"><a xlink:href="class_thinksquirrel_1_1_word_game_builder_1_1_w_g_b_event.html#adfabdedf537dd71c1d90ac8799cf0574" target="_top" xlink:title="Gets all individual events associated with this object. ">
<polygon fill="none" stroke="black" points="122.5,-198 122.5,-228 279.5,-228 279.5,-198 122.5,-198"/>
<text text-anchor="start" x="130.5" y="-216" font-family="Helvetica,sans-Serif" font-size="10.00">Thinksquirrel.WordGameBuilder.</text>
<text text-anchor="middle" x="201" y="-205" font-family="Helvetica,sans-Serif" font-size="10.00">WGBEvent.GetInvocationList</text>
</a>
</g>
</g>
<!-- Node1&#45;&gt;Node2 -->
<g id="edge1" class="edge"><title>Node1&#45;&gt;Node2</title>
<path fill="none" stroke="midnightblue" d="M40.4184,-134.657C52.1076,-147.49 74.4847,-170.046 98,-183 106.014,-187.415 114.749,-191.245 123.625,-194.551"/>
<polygon fill="midnightblue" stroke="midnightblue" points="122.69,-197.932 133.285,-197.935 125.005,-191.325 122.69,-197.932"/>
</g>
<!-- Node3 -->
<g id="node3" class="node"><title>Node3</title>
<g id="a_node3"><a xlink:href="class_thinksquirrel_1_1_word_game_builder_1_1_w_g_b_base.html#ab57b4a4297b7972dbe73dbd6aeeb6bc2" target="_top" xlink:title="Logs a prefixed erorr. ">
<polygon fill="none" stroke="black" points="340,-80 340,-110 497,-110 497,-80 340,-80"/>
<text text-anchor="start" x="348" y="-98" font-family="Helvetica,sans-Serif" font-size="10.00">Thinksquirrel.WordGameBuilder.</text>
<text text-anchor="middle" x="418.5" y="-87" font-family="Helvetica,sans-Serif" font-size="10.00">WGBBase.LogError</text>
</a>
</g>
</g>
<!-- Node1&#45;&gt;Node3 -->
<g id="edge2" class="edge"><title>Node1&#45;&gt;Node3</title>
<path fill="none" stroke="midnightblue" d="M51.6775,-134.608C64.5235,-140.333 81.8496,-147.044 98,-150 188.059,-166.485 214.765,-170.482 304,-150 333.131,-143.314 363.465,-128.121 385.438,-115.394"/>
<polygon fill="midnightblue" stroke="midnightblue" points="387.503,-118.238 394.314,-110.122 383.929,-112.219 387.503,-118.238"/>
</g>
<!-- Node4 -->
<g id="node4" class="node"><title>Node4</title>
<g id="a_node4"><a xlink:href="class_thinksquirrel_1_1_word_game_builder_1_1_word_game_language.html#a30196fc0633455ab791d225ffbaabc0c" target="_top" xlink:title="Imports the letters of a language from a CSV stream. ">
<polygon fill="none" stroke="black" points="98,-110 98,-140 304,-140 304,-110 98,-110"/>
<text text-anchor="start" x="106" y="-128" font-family="Helvetica,sans-Serif" font-size="10.00">Thinksquirrel.WordGameBuilder.</text>
<text text-anchor="middle" x="201" y="-117" font-family="Helvetica,sans-Serif" font-size="10.00">WordGameLanguage.ImportLettersFromCsv</text>
</a>
</g>
</g>
<!-- Node1&#45;&gt;Node4 -->
<g id="edge3" class="edge"><title>Node1&#45;&gt;Node4</title>
<path fill="none" stroke="midnightblue" d="M62.035,-125C69.7285,-125 78.4693,-125 87.729,-125"/>
<polygon fill="midnightblue" stroke="midnightblue" points="87.9554,-128.5 97.9554,-125 87.9554,-121.5 87.9554,-128.5"/>
</g>
<!-- Node5 -->
<g id="node5" class="node"><title>Node5</title>
<g id="a_node5"><a xlink:href="class_thinksquirrel_1_1_word_game_builder_1_1_word_game_language.html#af9fa1744a6ce7695fcfca4f07cae0aaa" target="_top" xlink:title="Imports the words of a language from a CSV file. ">
<polygon fill="none" stroke="black" points="98.5,-61 98.5,-91 303.5,-91 303.5,-61 98.5,-61"/>
<text text-anchor="start" x="106.5" y="-79" font-family="Helvetica,sans-Serif" font-size="10.00">Thinksquirrel.WordGameBuilder.</text>
<text text-anchor="middle" x="201" y="-68" font-family="Helvetica,sans-Serif" font-size="10.00">WordGameLanguage.ImportWordsFromCsv</text>
</a>
</g>
</g>
<!-- Node1&#45;&gt;Node5 -->
<g id="edge4" class="edge"><title>Node1&#45;&gt;Node5</title>
<path fill="none" stroke="midnightblue" d="M56.2356,-115.473C68.6223,-110.787 83.9993,-105.248 98,-101 106.52,-98.415 115.502,-95.9064 124.459,-93.5392"/>
<polygon fill="midnightblue" stroke="midnightblue" points="125.343,-96.9258 134.145,-91.0291 123.587,-90.1497 125.343,-96.9258"/>
</g>
<!-- Node6 -->
<g id="node6" class="node"><title>Node6</title>
<g id="a_node6"><a xlink:href="class_thinksquirrel_1_1_word_game_builder_editor_1_1_editor_windows_1_1_language_editor.html#a07475b4f457e86a6d6457d418a07fbb9" target="_top" xlink:title="Saves a language as an asset. ">
<polygon fill="none" stroke="black" points="109,-0.5 109,-41.5 293,-41.5 293,-0.5 109,-0.5"/>
<text text-anchor="start" x="117" y="-29.5" font-family="Helvetica,sans-Serif" font-size="10.00">Thinksquirrel.WordGameBuilder</text>
<text text-anchor="start" x="117" y="-18.5" font-family="Helvetica,sans-Serif" font-size="10.00">Editor.EditorWindows.LanguageEditor.</text>
<text text-anchor="middle" x="201" y="-7.5" font-family="Helvetica,sans-Serif" font-size="10.00">SaveLanguage</text>
</a>
</g>
</g>
<!-- Node1&#45;&gt;Node6 -->
<g id="edge5" class="edge"><title>Node1&#45;&gt;Node6</title>
<path fill="none" stroke="midnightblue" d="M38.0865,-115.43C48.4844,-99.8469 71.1663,-69.0253 98,-52 101.376,-49.8581 104.908,-47.8569 108.547,-45.988"/>
<polygon fill="midnightblue" stroke="midnightblue" points="110.244,-49.0567 117.781,-41.61 107.246,-42.7315 110.244,-49.0567"/>
</g>
<!-- Node6&#45;&gt;Node3 -->
<g id="edge6" class="edge"><title>Node6&#45;&gt;Node3</title>
<path fill="none" stroke="midnightblue" d="M271.882,-41.5587C282.675,-44.9298 293.664,-48.476 304,-52 325.952,-59.4848 350.009,-68.4824 370.303,-76.3082"/>
<polygon fill="midnightblue" stroke="midnightblue" points="369.049,-79.576 379.638,-79.9276 371.58,-73.0493 369.049,-79.576"/>
</g>
</g>
</svg>
