<?xml version="1.0" encoding="UTF-8" standalone="no"?>
<!DOCTYPE svg PUBLIC "-//W3C//DTD SVG 1.1//EN"
 "http://www.w3.org/Graphics/SVG/1.1/DTD/svg11.dtd">
<!-- Generated by graphviz version 2.38.0 (20140413.2041)
 -->
<!-- Title: OnWildcardPanelTileSelect Pages: 1 -->
<svg width="390pt" height="110pt"
 viewBox="0.00 0.00 390.00 110.00" xmlns="http://www.w3.org/2000/svg" xmlns:xlink="http://www.w3.org/1999/xlink">
<g id="graph0" class="graph" transform="scale(1 1) rotate(0) translate(4 106)">
<title>OnWildcardPanelTileSelect</title>
<!-- Node1 -->
<g id="node1" class="node"><title>Node1</title>
<polygon fill="#bfbfbf" stroke="black" points="0,-41.5 0,-60.5 135,-60.5 135,-41.5 0,-41.5"/>
<text text-anchor="middle" x="67.5" y="-48.5" font-family="Helvetica,sans-Serif" font-size="10.00">OnWildcardPanelTileSelect</text>
</g>
<!-- Node2 -->
<g id="node2" class="node"><title>Node2</title>
<g id="a_node2"><a xlink:href="class_thinksquirrel_1_1_word_game_builder_example_1_1_example_view_model_1_1_languages_context.html#a7d4671b57eb398f31441d7d72b1293b3" target="_top" xlink:title="Change the current language. Called by the UI. ">
<polygon fill="none" stroke="black" points="179.5,-60.5 179.5,-101.5 373.5,-101.5 373.5,-60.5 179.5,-60.5"/>
<text text-anchor="start" x="187.5" y="-89.5" font-family="Helvetica,sans-Serif" font-size="10.00">Thinksquirrel.WordGameBuilder</text>
<text text-anchor="start" x="187.5" y="-78.5" font-family="Helvetica,sans-Serif" font-size="10.00">Example.ExampleViewModel.Languages</text>
<text text-anchor="middle" x="276.5" y="-67.5" font-family="Helvetica,sans-Serif" font-size="10.00">Context.ChangeLanguage</text>
</a>
</g>
</g>
<!-- Node1&#45;&gt;Node2 -->
<g id="edge1" class="edge"><title>Node1&#45;&gt;Node2</title>
<path fill="none" stroke="midnightblue" d="M134.281,-60.5334C145.471,-62.1553 157.344,-63.876 169.265,-65.6036"/>
<polygon fill="midnightblue" stroke="midnightblue" points="168.878,-69.084 179.276,-67.0545 169.882,-62.1563 168.878,-69.084"/>
</g>
<!-- Node3 -->
<g id="node3" class="node"><title>Node3</title>
<g id="a_node3"><a xlink:href="class_thinksquirrel_1_1_word_game_builder_example_1_1_example_view_model_1_1_player_context.html#af3def0a5043ee3b759b0acd489cf1e44" target="_top" xlink:title="Clears the current tile selection. Called by the UI. ">
<polygon fill="none" stroke="black" points="171,-0.5 171,-41.5 382,-41.5 382,-0.5 171,-0.5"/>
<text text-anchor="start" x="179" y="-29.5" font-family="Helvetica,sans-Serif" font-size="10.00">Thinksquirrel.WordGameBuilder</text>
<text text-anchor="start" x="179" y="-18.5" font-family="Helvetica,sans-Serif" font-size="10.00">Example.ExampleViewModel.PlayerContext.</text>
<text text-anchor="middle" x="276.5" y="-7.5" font-family="Helvetica,sans-Serif" font-size="10.00">ClearSelection</text>
</a>
</g>
</g>
<!-- Node1&#45;&gt;Node3 -->
<g id="edge2" class="edge"><title>Node1&#45;&gt;Node3</title>
<path fill="none" stroke="midnightblue" d="M134.281,-41.4666C142.887,-40.2192 151.897,-38.9134 161.023,-37.5909"/>
<polygon fill="midnightblue" stroke="midnightblue" points="161.561,-41.0495 170.956,-36.1513 160.557,-34.1219 161.561,-41.0495"/>
</g>
</g>
</svg>
