<?xml version="1.0" encoding="UTF-8" standalone="no"?>
<!DOCTYPE svg PUBLIC "-//W3C//DTD SVG 1.1//EN"
 "http://www.w3.org/Graphics/SVG/1.1/DTD/svg11.dtd">
<!-- Generated by graphviz version 2.38.0 (20140413.2041)
 -->
<!-- Title: RemoveByIdentifier Pages: 1 -->
<svg width="263pt" height="28pt"
 viewBox="0.00 0.00 263.00 28.00" xmlns="http://www.w3.org/2000/svg" xmlns:xlink="http://www.w3.org/1999/xlink">
<g id="graph0" class="graph" transform="scale(1 1) rotate(0) translate(4 24)">
<title>RemoveByIdentifier</title>
<!-- Node1 -->
<g id="node1" class="node"><title>Node1</title>
<polygon fill="#bfbfbf" stroke="black" points="0,-0.5 0,-19.5 99,-19.5 99,-0.5 0,-0.5"/>
<text text-anchor="middle" x="49.5" y="-7.5" font-family="Helvetica,sans-Serif" font-size="10.00">RemoveByIdentifier</text>
</g>
<!-- Node2 -->
<g id="node2" class="node"><title>Node2</title>
<g id="a_node2"><a xlink:href="class_thinksquirrel_1_1_word_game_builder_1_1_word_game_language.html#a8d44bcde9835062d569725680e4e10cf" target="_top" xlink:title="Creates a language with the given name and identifier (file name). ">
<polygon fill="none" stroke="black" points="135,-0.5 135,-19.5 180,-19.5 180,-0.5 135,-0.5"/>
<text text-anchor="middle" x="157.5" y="-7.5" font-family="Helvetica,sans-Serif" font-size="10.00">Create</text>
</a>
</g>
</g>
<!-- Node1&#45;&gt;Node2 -->
<g id="edge1" class="edge"><title>Node1&#45;&gt;Node2</title>
<path fill="none" stroke="midnightblue" d="M109.441,-10C118.512,-10 127.348,-10 134.868,-10"/>
<polygon fill="midnightblue" stroke="midnightblue" points="109.157,-6.5001 99.1567,-10 109.157,-13.5001 109.157,-6.5001"/>
</g>
<!-- Node3 -->
<g id="node3" class="node"><title>Node3</title>
<g id="a_node3"><a xlink:href="class_thinksquirrel_1_1_word_game_builder_1_1_word_game_language.html#a1c2939b9bbc0e51d2752798232f76567" target="_top" xlink:title="Deep copy this language to a new language. ">
<polygon fill="none" stroke="black" points="216,-0.5 216,-19.5 255,-19.5 255,-0.5 216,-0.5"/>
<text text-anchor="middle" x="235.5" y="-7.5" font-family="Helvetica,sans-Serif" font-size="10.00">Copy</text>
</a>
</g>
</g>
<!-- Node2&#45;&gt;Node3 -->
<g id="edge2" class="edge"><title>Node2&#45;&gt;Node3</title>
<path fill="none" stroke="midnightblue" d="M190.287,-10C198.941,-10 208.037,-10 215.713,-10"/>
<polygon fill="midnightblue" stroke="midnightblue" points="190.075,-6.5001 180.075,-10 190.075,-13.5001 190.075,-6.5001"/>
</g>
</g>
</svg>
