<?xml version="1.0" encoding="UTF-8" standalone="no"?>
<!DOCTYPE svg PUBLIC "-//W3C//DTD SVG 1.1//EN"
 "http://www.w3.org/Graphics/SVG/1.1/DTD/svg11.dtd">
<!-- Generated by graphviz version 2.38.0 (20140413.2041)
 -->
<!-- Title: LangToIdentifier Pages: 1 -->
<svg width="512pt" height="137pt"
 viewBox="0.00 0.00 512.00 137.00" xmlns="http://www.w3.org/2000/svg" xmlns:xlink="http://www.w3.org/1999/xlink">
<g id="graph0" class="graph" transform="scale(1 1) rotate(0) translate(4 133)">
<title>LangToIdentifier</title>
<!-- Node1 -->
<g id="node1" class="node"><title>Node1</title>
<polygon fill="#bfbfbf" stroke="black" points="0,-55 0,-74 84,-74 84,-55 0,-55"/>
<text text-anchor="middle" x="42" y="-62" font-family="Helvetica,sans-Serif" font-size="10.00">LangToIdentifier</text>
</g>
<!-- Node2 -->
<g id="node2" class="node"><title>Node2</title>
<g id="a_node2"><a xlink:href="class_thinksquirrel_1_1_word_game_builder_1_1_word_game_language.html#aced658f76b08a71579217c1dbf572571" target="_top" xlink:title="Loads all language files from resources. ">
<polygon fill="none" stroke="black" points="120,-98.5 120,-128.5 311,-128.5 311,-98.5 120,-98.5"/>
<text text-anchor="start" x="128" y="-116.5" font-family="Helvetica,sans-Serif" font-size="10.00">Thinksquirrel.WordGameBuilder.</text>
<text text-anchor="middle" x="215.5" y="-105.5" font-family="Helvetica,sans-Serif" font-size="10.00">WordGameLanguage.LoadAllLanguages</text>
</a>
</g>
</g>
<!-- Node1&#45;&gt;Node2 -->
<g id="edge1" class="edge"><title>Node1&#45;&gt;Node2</title>
<path fill="none" stroke="midnightblue" d="M71.0247,-74.0853C85.5664,-78.9352 103.662,-84.7785 120,-89.5 127.432,-91.6478 135.222,-93.7936 143.006,-95.8698"/>
<polygon fill="midnightblue" stroke="midnightblue" points="142.273,-99.296 152.835,-98.4571 144.055,-92.5266 142.273,-99.296"/>
</g>
<!-- Node3 -->
<g id="node3" class="node"><title>Node3</title>
<g id="a_node3"><a xlink:href="class_thinksquirrel_1_1_word_game_builder_1_1_word_game_language.html#acea8c72132872acbe9b57f7919526102" target="_top" xlink:title="Finds a loaded language by identifier. ">
<polygon fill="none" stroke="black" points="126.5,-49.5 126.5,-79.5 304.5,-79.5 304.5,-49.5 126.5,-49.5"/>
<text text-anchor="start" x="134.5" y="-67.5" font-family="Helvetica,sans-Serif" font-size="10.00">Thinksquirrel.WordGameBuilder.</text>
<text text-anchor="middle" x="215.5" y="-56.5" font-family="Helvetica,sans-Serif" font-size="10.00">WordGameLanguage.FindByIdentifier</text>
</a>
</g>
</g>
<!-- Node1&#45;&gt;Node3 -->
<g id="edge2" class="edge"><title>Node1&#45;&gt;Node3</title>
<path fill="none" stroke="midnightblue" d="M84.0785,-64.5C93.8657,-64.5 104.73,-64.5 115.892,-64.5"/>
<polygon fill="midnightblue" stroke="midnightblue" points="116.204,-68.0001 126.204,-64.5 116.204,-61.0001 116.204,-68.0001"/>
</g>
<!-- Node4 -->
<g id="node4" class="node"><title>Node4</title>
<g id="a_node4"><a xlink:href="class_thinksquirrel_1_1_word_game_builder_1_1_word_game_language.html#a7f1c6752a7793902e86a28ab8971e256" target="_top" xlink:title="Unloads the first occurance of a language by name. ">
<polygon fill="none" stroke="black" points="124,-0.5 124,-30.5 307,-30.5 307,-0.5 124,-0.5"/>
<text text-anchor="start" x="132" y="-18.5" font-family="Helvetica,sans-Serif" font-size="10.00">Thinksquirrel.WordGameBuilder.</text>
<text text-anchor="middle" x="215.5" y="-7.5" font-family="Helvetica,sans-Serif" font-size="10.00">WordGameLanguage.RemoveByName</text>
</a>
</g>
</g>
<!-- Node1&#45;&gt;Node4 -->
<g id="edge3" class="edge"><title>Node1&#45;&gt;Node4</title>
<path fill="none" stroke="midnightblue" d="M72.5269,-54.9666C86.8205,-50.4362 104.257,-45.0335 120,-40.5 128.472,-38.0604 137.397,-35.5814 146.242,-33.1795"/>
<polygon fill="midnightblue" stroke="midnightblue" points="147.421,-36.4868 156.166,-30.5066 145.6,-29.7277 147.421,-36.4868"/>
</g>
<!-- Node5 -->
<g id="node5" class="node"><title>Node5</title>
<g id="a_node5"><a xlink:href="class_thinksquirrel_1_1_word_game_builder_1_1_word_set.html#ab4cbfc625a3798f8175fc15ef6621aec" target="_top" xlink:title="Compress the set into compressed form to save memory. Also clears the runtime set. ">
<polygon fill="none" stroke="black" points="347,-0.5 347,-30.5 504,-30.5 504,-0.5 347,-0.5"/>
<text text-anchor="start" x="355" y="-18.5" font-family="Helvetica,sans-Serif" font-size="10.00">Thinksquirrel.WordGameBuilder.</text>
<text text-anchor="middle" x="425.5" y="-7.5" font-family="Helvetica,sans-Serif" font-size="10.00">WordSet.CollapseSet</text>
</a>
</g>
</g>
<!-- Node4&#45;&gt;Node5 -->
<g id="edge4" class="edge"><title>Node4&#45;&gt;Node5</title>
<path fill="none" stroke="midnightblue" d="M307.127,-15.5C316.958,-15.5 326.952,-15.5 336.748,-15.5"/>
<polygon fill="midnightblue" stroke="midnightblue" points="336.871,-19.0001 346.871,-15.5 336.871,-12.0001 336.871,-19.0001"/>
</g>
</g>
</svg>
