<?xml version="1.0" encoding="UTF-8" standalone="no"?>
<!DOCTYPE svg PUBLIC "-//W3C//DTD SVG 1.1//EN"
 "http://www.w3.org/Graphics/SVG/1.1/DTD/svg11.dtd">
<!-- Generated by graphviz version 2.38.0 (20140413.2041)
 -->
<!-- Title: GetLetter Pages: 1 -->
<svg width="567pt" height="132pt"
 viewBox="0.00 0.00 567.00 132.00" xmlns="http://www.w3.org/2000/svg" xmlns:xlink="http://www.w3.org/1999/xlink">
<g id="graph0" class="graph" transform="scale(1 1) rotate(0) translate(4 128)">
<title>GetLetter</title>
<!-- Node1 -->
<g id="node1" class="node"><title>Node1</title>
<polygon fill="#bfbfbf" stroke="black" points="0,-55 0,-74 57,-74 57,-55 0,-55"/>
<text text-anchor="middle" x="28.5" y="-62" font-family="Helvetica,sans-Serif" font-size="10.00">GetLetter</text>
</g>
<!-- Node2 -->
<g id="node2" class="node"><title>Node2</title>
<g id="a_node2"><a xlink:href="class_thinksquirrel_1_1_word_game_builder_example_1_1_example_game_logic.html#a2fd969ff4cd73e8d3201f42a6d5126b5" target="_top" xlink:title="This callback fires whenever tiles are distributed by the tile pool. ">
<polygon fill="none" stroke="black" points="334,-93.5 334,-123.5 559,-123.5 559,-93.5 334,-93.5"/>
<text text-anchor="start" x="342" y="-111.5" font-family="Helvetica,sans-Serif" font-size="10.00">Thinksquirrel.WordGameBuilder</text>
<text text-anchor="middle" x="446.5" y="-100.5" font-family="Helvetica,sans-Serif" font-size="10.00">Example.ExampleGameLogic.OnTileDistribution</text>
</a>
</g>
</g>
<!-- Node1&#45;&gt;Node2 -->
<g id="edge1" class="edge"><title>Node1&#45;&gt;Node2</title>
<path fill="none" stroke="midnightblue" d="M59.3739,-77.9334C69.807,-82.0448 81.7296,-86.1094 93,-88.5 172.3,-105.321 263.741,-110.1 333.616,-110.79"/>
<polygon fill="midnightblue" stroke="midnightblue" points="60.4767,-74.6024 49.8973,-74.0302 57.8108,-81.0749 60.4767,-74.6024"/>
</g>
<!-- Node3 -->
<g id="node3" class="node"><title>Node3</title>
<g id="a_node3"><a xlink:href="class_thinksquirrel_1_1_word_game_builder_1_1_gameplay_1_1_word_checker.html#addf90951538425908ce504b2ed4ab352" target="_top" xlink:title="Checks the input word against the dictionary, asynchronously on another thread. ">
<polygon fill="none" stroke="black" points="93,-49.5 93,-79.5 298,-79.5 298,-49.5 93,-49.5"/>
<text text-anchor="start" x="101" y="-67.5" font-family="Helvetica,sans-Serif" font-size="10.00">Thinksquirrel.WordGameBuilder.</text>
<text text-anchor="middle" x="195.5" y="-56.5" font-family="Helvetica,sans-Serif" font-size="10.00">Gameplay.WordChecker.CheckWordAsync</text>
</a>
</g>
</g>
<!-- Node1&#45;&gt;Node3 -->
<g id="edge2" class="edge"><title>Node1&#45;&gt;Node3</title>
<path fill="none" stroke="midnightblue" d="M67.3163,-64.5C75.1795,-64.5 83.8182,-64.5 92.7772,-64.5"/>
<polygon fill="midnightblue" stroke="midnightblue" points="67.1173,-61.0001 57.1173,-64.5 67.1173,-68.0001 67.1173,-61.0001"/>
</g>
<!-- Node5 -->
<g id="node5" class="node"><title>Node5</title>
<g id="a_node5"><a xlink:href="class_thinksquirrel_1_1_word_game_builder_1_1_gameplay_1_1_word_game_agent.html#a17a237457e57625296e6b24feb19c60a" target="_top" xlink:title="Stops all actions currently in progress by the agent. ">
<polygon fill="none" stroke="black" points="114.5,-0.5 114.5,-30.5 276.5,-30.5 276.5,-0.5 114.5,-0.5"/>
<text text-anchor="start" x="122.5" y="-18.5" font-family="Helvetica,sans-Serif" font-size="10.00">Thinksquirrel.WordGameBuilder.</text>
<text text-anchor="middle" x="195.5" y="-7.5" font-family="Helvetica,sans-Serif" font-size="10.00">Gameplay.WordGameAgent.Stop</text>
</a>
</g>
</g>
<!-- Node1&#45;&gt;Node5 -->
<g id="edge5" class="edge"><title>Node1&#45;&gt;Node5</title>
<path fill="none" stroke="midnightblue" d="M60.8454,-51.1329C70.9955,-47.0821 82.3759,-42.8287 93,-39.5 103.281,-36.2788 114.266,-33.2584 125.072,-30.5196"/>
<polygon fill="midnightblue" stroke="midnightblue" points="59.4961,-47.9032 51.5558,-54.9177 62.1373,-54.3858 59.4961,-47.9032"/>
</g>
<!-- Node3&#45;&gt;Node2 -->
<g id="edge3" class="edge"><title>Node3&#45;&gt;Node2</title>
<path fill="none" stroke="midnightblue" d="M291.469,-81.2817C314.165,-85.2922 338.25,-89.5482 360.465,-93.4738"/>
<polygon fill="midnightblue" stroke="midnightblue" points="291.952,-77.8128 281.495,-79.5192 290.734,-84.706 291.952,-77.8128"/>
</g>
<!-- Node4 -->
<g id="node4" class="node"><title>Node4</title>
<g id="a_node4"><a xlink:href="class_thinksquirrel_1_1_word_game_builder_1_1_gameplay_1_1_word_game_player.html#a5850054dce7050ff763f918e17ded96c" target="_top" xlink:title="Submits the word for checking against the specified langauge&#39;s word list. ">
<polygon fill="none" stroke="black" points="347.5,-44.5 347.5,-74.5 545.5,-74.5 545.5,-44.5 347.5,-44.5"/>
<text text-anchor="start" x="355.5" y="-62.5" font-family="Helvetica,sans-Serif" font-size="10.00">Thinksquirrel.WordGameBuilder.</text>
<text text-anchor="middle" x="446.5" y="-51.5" font-family="Helvetica,sans-Serif" font-size="10.00">Gameplay.WordGamePlayer.SubmitWord</text>
</a>
</g>
</g>
<!-- Node3&#45;&gt;Node4 -->
<g id="edge4" class="edge"><title>Node3&#45;&gt;Node4</title>
<path fill="none" stroke="midnightblue" d="M308.495,-62.2511C321.473,-61.9905 334.634,-61.7262 347.406,-61.4698"/>
<polygon fill="midnightblue" stroke="midnightblue" points="308.065,-58.7589 298.137,-62.4591 308.205,-65.7575 308.065,-58.7589"/>
</g>
</g>
</svg>
