<?xml version="1.0" encoding="UTF-8" standalone="no"?>
<!DOCTYPE svg PUBLIC "-//W3C//DTD SVG 1.1//EN"
 "http://www.w3.org/Graphics/SVG/1.1/DTD/svg11.dtd">
<!-- Generated by graphviz version 2.38.0 (20140413.2041)
 -->
<!-- Title: Invoke Pages: 1 -->
<svg width="286pt" height="285pt"
 viewBox="0.00 0.00 286.00 285.00" xmlns="http://www.w3.org/2000/svg" xmlns:xlink="http://www.w3.org/1999/xlink">
<g id="graph0" class="graph" transform="scale(1 1) rotate(0) translate(4 281)">
<title>Invoke</title>
<!-- Node1 -->
<g id="node1" class="node"><title>Node1</title>
<polygon fill="#bfbfbf" stroke="black" points="0,-134 0,-153 44,-153 44,-134 0,-134"/>
<text text-anchor="middle" x="22" y="-141" font-family="Helvetica,sans-Serif" font-size="10.00">Invoke</text>
</g>
<!-- Node2 -->
<g id="node2" class="node"><title>Node2</title>
<g id="a_node2"><a xlink:href="class_thinksquirrel_1_1_word_game_builder_1_1_tiles_1_1_letter_tile.html#aced12388d9c3fd45a02a5049a2276a09" target="_top" xlink:title="Simulates tile selection/deselection event from user input (either a press or a click). ">
<polygon fill="none" stroke="black" points="100.5,-246.5 100.5,-276.5 257.5,-276.5 257.5,-246.5 100.5,-246.5"/>
<text text-anchor="start" x="108.5" y="-264.5" font-family="Helvetica,sans-Serif" font-size="10.00">Thinksquirrel.WordGameBuilder.</text>
<text text-anchor="middle" x="179" y="-253.5" font-family="Helvetica,sans-Serif" font-size="10.00">Tiles.LetterTile.SimulateInput</text>
</a>
</g>
</g>
<!-- Node1&#45;&gt;Node2 -->
<g id="edge1" class="edge"><title>Node1&#45;&gt;Node2</title>
<path fill="none" stroke="midnightblue" d="M29.4734,-162.625C37.7613,-184.152 54.2123,-218.582 80,-237.5 86.2144,-242.059 93.1876,-245.76 100.475,-248.763"/>
<polygon fill="midnightblue" stroke="midnightblue" points="32.7601,-161.422 26.0554,-153.218 26.181,-163.812 32.7601,-161.422"/>
</g>
<!-- Node3 -->
<g id="node3" class="node"><title>Node3</title>
<g id="a_node3"><a xlink:href="class_thinksquirrel_1_1_word_game_builder_1_1_gameplay_1_1_tile_pool.html#a439806f67a5cd8e16a635d77233a46d4" target="_top" xlink:title="Destroys a list of tiles from the scene, if the tiles are associated with the pool. ">
<polygon fill="none" stroke="black" points="100.5,-197.5 100.5,-227.5 257.5,-227.5 257.5,-197.5 100.5,-197.5"/>
<text text-anchor="start" x="108.5" y="-215.5" font-family="Helvetica,sans-Serif" font-size="10.00">Thinksquirrel.WordGameBuilder.</text>
<text text-anchor="middle" x="179" y="-204.5" font-family="Helvetica,sans-Serif" font-size="10.00">Gameplay.TilePool.DestroyTiles</text>
</a>
</g>
</g>
<!-- Node1&#45;&gt;Node3 -->
<g id="edge2" class="edge"><title>Node1&#45;&gt;Node3</title>
<path fill="none" stroke="midnightblue" d="M40.7553,-160.278C51.4047,-169.518 65.6358,-180.498 80,-187.5 87.8916,-191.347 96.439,-194.645 105.085,-197.462"/>
<polygon fill="midnightblue" stroke="midnightblue" points="42.8253,-157.433 33.0484,-153.351 38.1459,-162.639 42.8253,-157.433"/>
</g>
<!-- Node4 -->
<g id="node4" class="node"><title>Node4</title>
<g id="a_node4"><a xlink:href="class_thinksquirrel_1_1_word_game_builder_1_1_w_g_b_event.html#a5618b5967a8632ffe2d8e43b98ca8dc0" target="_top" xlink:title="Invoke an event with the current event state. ">
<polygon fill="none" stroke="black" points="157,-159 157,-178 201,-178 201,-159 157,-159"/>
<text text-anchor="middle" x="179" y="-166" font-family="Helvetica,sans-Serif" font-size="10.00">Invoke</text>
</a>
</g>
</g>
<!-- Node1&#45;&gt;Node4 -->
<g id="edge3" class="edge"><title>Node1&#45;&gt;Node4</title>
<path fill="none" stroke="midnightblue" d="M54.2995,-148.548C84.6922,-153.45 130.014,-160.76 156.532,-165.037"/>
<polygon fill="midnightblue" stroke="midnightblue" points="54.6568,-145.061 44.2271,-146.924 53.5422,-151.971 54.6568,-145.061"/>
</g>
<!-- Node5 -->
<g id="node5" class="node"><title>Node5</title>
<g id="a_node5"><a xlink:href="class_thinksquirrel_1_1_word_game_builder_1_1_gameplay_1_1_wildcard_tile_manager.html#a558733e100ca158233fe06df5a0f59ce" target="_top" xlink:title="Selects the specified tile as a wildcard with the specified language and player. ">
<polygon fill="none" stroke="black" points="86.5,-99 86.5,-140 271.5,-140 271.5,-99 86.5,-99"/>
<text text-anchor="start" x="94.5" y="-128" font-family="Helvetica,sans-Serif" font-size="10.00">Thinksquirrel.WordGameBuilder.</text>
<text text-anchor="start" x="94.5" y="-117" font-family="Helvetica,sans-Serif" font-size="10.00">Gameplay.WildcardTileManager.Select</text>
<text text-anchor="middle" x="179" y="-106" font-family="Helvetica,sans-Serif" font-size="10.00">WildcardTile</text>
</a>
</g>
</g>
<!-- Node1&#45;&gt;Node5 -->
<g id="edge4" class="edge"><title>Node1&#45;&gt;Node5</title>
<path fill="none" stroke="midnightblue" d="M54.3532,-138.645C63.9279,-137.163 74.9806,-135.451 86.4585,-133.674"/>
<polygon fill="midnightblue" stroke="midnightblue" points="53.5737,-135.224 44.2271,-140.213 54.6449,-142.142 53.5737,-135.224"/>
</g>
<!-- Node6 -->
<g id="node6" class="node"><title>Node6</title>
<g id="a_node6"><a xlink:href="class_thinksquirrel_1_1_word_game_builder_1_1_gameplay_1_1_word_game_agent.html#a0b8bd05e5893d7ed1dfeb730058a4330" target="_top" xlink:title="Finds a set of words, based on a list of letter tiles. ">
<polygon fill="none" stroke="black" points="84.5,-49.5 84.5,-79.5 273.5,-79.5 273.5,-49.5 84.5,-49.5"/>
<text text-anchor="start" x="92.5" y="-67.5" font-family="Helvetica,sans-Serif" font-size="10.00">Thinksquirrel.WordGameBuilder.</text>
<text text-anchor="middle" x="179" y="-56.5" font-family="Helvetica,sans-Serif" font-size="10.00">Gameplay.WordGameAgent.FindWords</text>
</a>
</g>
</g>
<!-- Node1&#45;&gt;Node6 -->
<g id="edge5" class="edge"><title>Node1&#45;&gt;Node6</title>
<path fill="none" stroke="midnightblue" d="M36.9,-126.315C47.5051,-114.304 63.1254,-98.8081 80,-89.5 86.9955,-85.6412 94.6002,-82.3644 102.376,-79.5845"/>
<polygon fill="midnightblue" stroke="midnightblue" points="34.216,-124.068 30.4055,-133.954 39.5492,-128.602 34.216,-124.068"/>
</g>
<!-- Node7 -->
<g id="node7" class="node"><title>Node7</title>
<g id="a_node7"><a xlink:href="class_thinksquirrel_1_1_word_game_builder_1_1_gameplay_1_1_word_game_player.html#a5850054dce7050ff763f918e17ded96c" target="_top" xlink:title="Submits the word for checking against the specified langauge&#39;s word list. ">
<polygon fill="none" stroke="black" points="80,-0.5 80,-30.5 278,-30.5 278,-0.5 80,-0.5"/>
<text text-anchor="start" x="88" y="-18.5" font-family="Helvetica,sans-Serif" font-size="10.00">Thinksquirrel.WordGameBuilder.</text>
<text text-anchor="middle" x="179" y="-7.5" font-family="Helvetica,sans-Serif" font-size="10.00">Gameplay.WordGamePlayer.SubmitWord</text>
</a>
</g>
</g>
<!-- Node1&#45;&gt;Node7 -->
<g id="edge6" class="edge"><title>Node1&#45;&gt;Node7</title>
<path fill="none" stroke="midnightblue" d="M28.54,-124.011C36.2123,-100.609 52.3505,-61.8511 80,-40.5 85.0031,-36.6366 90.5371,-33.3654 96.3537,-30.5962"/>
<polygon fill="midnightblue" stroke="midnightblue" points="25.1103,-123.256 25.5196,-133.843 31.8018,-125.312 25.1103,-123.256"/>
</g>
</g>
</svg>
