<?xml version="1.0" encoding="UTF-8" standalone="no"?>
<!DOCTYPE svg PUBLIC "-//W3C//DTD SVG 1.1//EN"
 "http://www.w3.org/Graphics/SVG/1.1/DTD/svg11.dtd">
<!-- Generated by graphviz version 2.38.0 (20140413.2041)
 -->
<!-- Title: ImportWordsFromCsv Pages: 1 -->
<svg width="330pt" height="78pt"
 viewBox="0.00 0.00 330.00 77.50" xmlns="http://www.w3.org/2000/svg" xmlns:xlink="http://www.w3.org/1999/xlink">
<g id="graph0" class="graph" transform="scale(1 1) rotate(0) translate(4 73.5)">
<title>ImportWordsFromCsv</title>
<!-- Node1 -->
<g id="node1" class="node"><title>Node1</title>
<polygon fill="#bfbfbf" stroke="black" points="0,-22.5 0,-41.5 110,-41.5 110,-22.5 0,-22.5"/>
<text text-anchor="middle" x="55" y="-29.5" font-family="Helvetica,sans-Serif" font-size="10.00">ImportWordsFromCsv</text>
</g>
<!-- Node2 -->
<g id="node2" class="node"><title>Node2</title>
<g id="a_node2"><a xlink:href="class_thinksquirrel_1_1_word_game_builder_editor_1_1_w_g_b_editor_helpers.html#a09809bc8cd6e5c18cb68031e72d91d45" target="_top" xlink:title="Draws the inspector for a WGBEvent. ">
<polygon fill="none" stroke="black" points="146,-39 146,-69 322,-69 322,-39 146,-39"/>
<text text-anchor="start" x="154" y="-57" font-family="Helvetica,sans-Serif" font-size="10.00">Thinksquirrel.WordGameBuilder</text>
<text text-anchor="middle" x="234" y="-46" font-family="Helvetica,sans-Serif" font-size="10.00">Editor.WGBEditorHelpers.DrawEvent</text>
</a>
</g>
</g>
<!-- Node1&#45;&gt;Node2 -->
<g id="edge1" class="edge"><title>Node1&#45;&gt;Node2</title>
<path fill="none" stroke="midnightblue" d="M120.145,-39.9728C128.555,-41.0181 137.282,-42.1029 145.991,-43.1853"/>
<polygon fill="midnightblue" stroke="midnightblue" points="120.423,-36.4805 110.068,-38.7203 119.56,-43.4271 120.423,-36.4805"/>
</g>
<!-- Node3 -->
<g id="node3" class="node"><title>Node3</title>
<g id="a_node3"><a xlink:href="class_thinksquirrel_1_1_word_game_builder_1_1_word_game_language.html#a1c2939b9bbc0e51d2752798232f76567" target="_top" xlink:title="Deep copy this language to a new language. ">
<polygon fill="none" stroke="black" points="214.5,-0.5 214.5,-19.5 253.5,-19.5 253.5,-0.5 214.5,-0.5"/>
<text text-anchor="middle" x="234" y="-7.5" font-family="Helvetica,sans-Serif" font-size="10.00">Copy</text>
</a>
</g>
</g>
<!-- Node1&#45;&gt;Node3 -->
<g id="edge2" class="edge"><title>Node1&#45;&gt;Node3</title>
<path fill="none" stroke="midnightblue" d="M120.224,-24.0173C153.54,-19.8763 191.831,-15.117 214.131,-12.3453"/>
<polygon fill="midnightblue" stroke="midnightblue" points="119.56,-20.5729 110.068,-25.2797 120.423,-27.5195 119.56,-20.5729"/>
</g>
</g>
</svg>
