<?xml version="1.0" encoding="UTF-8" standalone="no"?>
<!DOCTYPE svg PUBLIC "-//W3C//DTD SVG 1.1//EN"
 "http://www.w3.org/Graphics/SVG/1.1/DTD/svg11.dtd">
<!-- Generated by graphviz version 2.38.0 (20140413.2041)
 -->
<!-- Title: LogException Pages: 1 -->
<svg width="314pt" height="88pt"
 viewBox="0.00 0.00 314.00 88.00" xmlns="http://www.w3.org/2000/svg" xmlns:xlink="http://www.w3.org/1999/xlink">
<g id="graph0" class="graph" transform="scale(1 1) rotate(0) translate(4 84)">
<title>LogException</title>
<!-- Node1 -->
<g id="node1" class="node"><title>Node1</title>
<polygon fill="#bfbfbf" stroke="black" points="0,-30 0,-49 76,-49 76,-30 0,-30"/>
<text text-anchor="middle" x="38" y="-37" font-family="Helvetica,sans-Serif" font-size="10.00">LogException</text>
</g>
<!-- Node2 -->
<g id="node2" class="node"><title>Node2</title>
<g id="a_node2"><a xlink:href="class_thinksquirrel_1_1_word_game_builder_1_1_word_game_language.html#a621a852207d53e91a83a1667350e56a4" target="_top" xlink:title="Exports the words of a language to a CSV file. ">
<polygon fill="none" stroke="black" points="112,-49.5 112,-79.5 306,-79.5 306,-49.5 112,-49.5"/>
<text text-anchor="start" x="120" y="-67.5" font-family="Helvetica,sans-Serif" font-size="10.00">Thinksquirrel.WordGameBuilder.</text>
<text text-anchor="middle" x="209" y="-56.5" font-family="Helvetica,sans-Serif" font-size="10.00">WordGameLanguage.ExportWordsToCsv</text>
</a>
</g>
</g>
<!-- Node1&#45;&gt;Node2 -->
<g id="edge1" class="edge"><title>Node1&#45;&gt;Node2</title>
<path fill="none" stroke="midnightblue" d="M86.0656,-46.4624C94.2127,-47.6676 102.942,-48.9588 111.847,-50.2761"/>
<polygon fill="midnightblue" stroke="midnightblue" points="86.4923,-42.9875 76.0878,-44.9864 85.4679,-49.9121 86.4923,-42.9875"/>
</g>
<!-- Node3 -->
<g id="node3" class="node"><title>Node3</title>
<g id="a_node3"><a xlink:href="class_thinksquirrel_1_1_word_game_builder_1_1_word_set.html#ab869ee740498825018644ba178e8fb57" target="_top" xlink:title="Expands the set from compressed form. Yields when progress is updated and can be used in a coroutine...">
<polygon fill="none" stroke="black" points="130.5,-0.5 130.5,-30.5 287.5,-30.5 287.5,-0.5 130.5,-0.5"/>
<text text-anchor="start" x="138.5" y="-18.5" font-family="Helvetica,sans-Serif" font-size="10.00">Thinksquirrel.WordGameBuilder.</text>
<text text-anchor="middle" x="209" y="-7.5" font-family="Helvetica,sans-Serif" font-size="10.00">WordSet.Decompress</text>
</a>
</g>
</g>
<!-- Node1&#45;&gt;Node3 -->
<g id="edge2" class="edge"><title>Node1&#45;&gt;Node3</title>
<path fill="none" stroke="midnightblue" d="M86.2419,-32.7911C99.9812,-30.8399 115.364,-28.6555 130.449,-26.5132"/>
<polygon fill="midnightblue" stroke="midnightblue" points="85.4963,-29.3618 76.0878,-34.2331 86.4806,-36.2922 85.4963,-29.3618"/>
</g>
</g>
</svg>
