<?xml version="1.0" encoding="UTF-8" standalone="no"?>
<!DOCTYPE svg PUBLIC "-//W3C//DTD SVG 1.1//EN"
 "http://www.w3.org/Graphics/SVG/1.1/DTD/svg11.dtd">
<!-- Generated by graphviz version 2.38.0 (20140413.2041)
 -->
<!-- Title: GetAllPlayers Pages: 1 -->
<svg width="481pt" height="198pt"
 viewBox="0.00 0.00 481.00 197.50" xmlns="http://www.w3.org/2000/svg" xmlns:xlink="http://www.w3.org/1999/xlink">
<g id="graph0" class="graph" transform="scale(1 1) rotate(0) translate(4 193.5)">
<title>GetAllPlayers</title>
<!-- Node1 -->
<g id="node1" class="node"><title>Node1</title>
<polygon fill="#bfbfbf" stroke="black" points="0,-79 0,-98 77,-98 77,-79 0,-79"/>
<text text-anchor="middle" x="38.5" y="-86" font-family="Helvetica,sans-Serif" font-size="10.00">GetAllPlayers</text>
</g>
<!-- Node2 -->
<g id="node2" class="node"><title>Node2</title>
<g id="a_node2"><a xlink:href="class_thinksquirrel_1_1_word_game_builder_1_1_tiles_1_1_letter_tile_1_1_selection_info.html#a4cb9bd9c93febadb526c1213c6c43923" target="_top" xlink:title="Adds all active players in the scene to this tile. ">
<polygon fill="none" stroke="black" points="117.5,-148 117.5,-189 275.5,-189 275.5,-148 117.5,-148"/>
<text text-anchor="start" x="125.5" y="-177" font-family="Helvetica,sans-Serif" font-size="10.00">Thinksquirrel.WordGameBuilder.</text>
<text text-anchor="start" x="125.5" y="-166" font-family="Helvetica,sans-Serif" font-size="10.00">Tiles.LetterTile.SelectionInfo.Add</text>
<text text-anchor="middle" x="196.5" y="-155" font-family="Helvetica,sans-Serif" font-size="10.00">AllPlayers</text>
</a>
</g>
</g>
<!-- Node1&#45;&gt;Node2 -->
<g id="edge1" class="edge"><title>Node1&#45;&gt;Node2</title>
<path fill="none" stroke="midnightblue" d="M59.7759,-104.323C74.0787,-114.966 94.0006,-128.776 113,-138.5 119.512,-141.833 126.482,-144.971 133.51,-147.87"/>
<polygon fill="midnightblue" stroke="midnightblue" points="61.7393,-101.419 51.6549,-98.1699 57.512,-106.999 61.7393,-101.419"/>
</g>
<!-- Node4 -->
<g id="node4" class="node"><title>Node4</title>
<g id="a_node4"><a xlink:href="class_thinksquirrel_1_1_word_game_builder_1_1_gameplay_1_1_tile_pool.html#a439806f67a5cd8e16a635d77233a46d4" target="_top" xlink:title="Destroys a list of tiles from the scene, if the tiles are associated with the pool. ">
<polygon fill="none" stroke="black" points="118,-98.5 118,-128.5 275,-128.5 275,-98.5 118,-98.5"/>
<text text-anchor="start" x="126" y="-116.5" font-family="Helvetica,sans-Serif" font-size="10.00">Thinksquirrel.WordGameBuilder.</text>
<text text-anchor="middle" x="196.5" y="-105.5" font-family="Helvetica,sans-Serif" font-size="10.00">Gameplay.TilePool.DestroyTiles</text>
</a>
</g>
</g>
<!-- Node1&#45;&gt;Node4 -->
<g id="edge3" class="edge"><title>Node1&#45;&gt;Node4</title>
<path fill="none" stroke="midnightblue" d="M87.3882,-96.1744C97.012,-97.7167 107.358,-99.3747 117.7,-101.032"/>
<polygon fill="midnightblue" stroke="midnightblue" points="87.6911,-92.6784 77.2632,-94.5518 86.5834,-99.5902 87.6911,-92.6784"/>
</g>
<!-- Node5 -->
<g id="node5" class="node"><title>Node5</title>
<g id="a_node5"><a xlink:href="class_thinksquirrel_1_1_word_game_builder_1_1_gameplay_1_1_tile_pool.html#ade8025f6e7f46b6f4d654080232cb1e0" target="_top" xlink:title="Destroys all tiles that were created by this tile pool (whether it is currently in the pool or not)...">
<polygon fill="none" stroke="black" points="113,-49.5 113,-79.5 280,-79.5 280,-49.5 113,-49.5"/>
<text text-anchor="start" x="121" y="-67.5" font-family="Helvetica,sans-Serif" font-size="10.00">Thinksquirrel.WordGameBuilder.</text>
<text text-anchor="middle" x="196.5" y="-56.5" font-family="Helvetica,sans-Serif" font-size="10.00">Gameplay.TilePool.DestroyAllTiles</text>
</a>
</g>
</g>
<!-- Node1&#45;&gt;Node5 -->
<g id="edge4" class="edge"><title>Node1&#45;&gt;Node5</title>
<path fill="none" stroke="midnightblue" d="M87.2437,-81.1548C95.3678,-79.905 104.01,-78.5754 112.732,-77.2335"/>
<polygon fill="midnightblue" stroke="midnightblue" points="86.6147,-77.7103 77.2632,-82.6903 87.6792,-84.6289 86.6147,-77.7103"/>
</g>
<!-- Node6 -->
<g id="node6" class="node"><title>Node6</title>
<g id="a_node6"><a xlink:href="class_thinksquirrel_1_1_word_game_builder_1_1_gameplay_1_1_tile_pool.html#a00f3fc43c17cf271b4512aac93c13a4c" target="_top" xlink:title="Destroys the tile from the scene, if the tile is associated with the pool. ">
<polygon fill="none" stroke="black" points="118,-0.5 118,-30.5 275,-30.5 275,-0.5 118,-0.5"/>
<text text-anchor="start" x="126" y="-18.5" font-family="Helvetica,sans-Serif" font-size="10.00">Thinksquirrel.WordGameBuilder.</text>
<text text-anchor="middle" x="196.5" y="-7.5" font-family="Helvetica,sans-Serif" font-size="10.00">Gameplay.TilePool.DestroyTile</text>
</a>
</g>
</g>
<!-- Node1&#45;&gt;Node6 -->
<g id="edge5" class="edge"><title>Node1&#45;&gt;Node6</title>
<path fill="none" stroke="midnightblue" d="M59.9679,-72.8533C74.2229,-62.5411 94.0124,-49.3551 113,-40.5 120.867,-36.8312 129.404,-33.5415 137.903,-30.6475"/>
<polygon fill="midnightblue" stroke="midnightblue" points="57.8287,-70.0821 51.864,-78.8384 61.9873,-75.7129 57.8287,-70.0821"/>
</g>
<!-- Node3 -->
<g id="node3" class="node"><title>Node3</title>
<g id="a_node3"><a xlink:href="class_thinksquirrel_1_1_word_game_builder_1_1_tiles_1_1_letter_tile.html#aced12388d9c3fd45a02a5049a2276a09" target="_top" xlink:title="Simulates tile selection/deselection event from user input (either a press or a click). ">
<polygon fill="none" stroke="black" points="316,-153.5 316,-183.5 473,-183.5 473,-153.5 316,-153.5"/>
<text text-anchor="start" x="324" y="-171.5" font-family="Helvetica,sans-Serif" font-size="10.00">Thinksquirrel.WordGameBuilder.</text>
<text text-anchor="middle" x="394.5" y="-160.5" font-family="Helvetica,sans-Serif" font-size="10.00">Tiles.LetterTile.SimulateInput</text>
</a>
</g>
</g>
<!-- Node2&#45;&gt;Node3 -->
<g id="edge2" class="edge"><title>Node2&#45;&gt;Node3</title>
<path fill="none" stroke="midnightblue" d="M285.535,-168.5C295.606,-168.5 305.818,-168.5 315.741,-168.5"/>
<polygon fill="midnightblue" stroke="midnightblue" points="285.528,-165 275.528,-168.5 285.528,-172 285.528,-165"/>
</g>
</g>
</svg>
