<?xml version="1.0" encoding="UTF-8" standalone="no"?>
<!DOCTYPE svg PUBLIC "-//W3C//DTD SVG 1.1//EN"
 "http://www.w3.org/Graphics/SVG/1.1/DTD/svg11.dtd">
<!-- Generated by graphviz version 2.38.0 (20140413.2041)
 -->
<!-- Title: CreateTilePool Pages: 1 -->
<svg width="707pt" height="149pt"
 viewBox="0.00 0.00 707.00 148.50" xmlns="http://www.w3.org/2000/svg" xmlns:xlink="http://www.w3.org/1999/xlink">
<g id="graph0" class="graph" transform="scale(1 1) rotate(0) translate(4 144.5)">
<title>CreateTilePool</title>
<!-- Node1 -->
<g id="node1" class="node"><title>Node1</title>
<polygon fill="#bfbfbf" stroke="black" points="0,-66.5 0,-85.5 80,-85.5 80,-66.5 0,-66.5"/>
<text text-anchor="middle" x="40" y="-73.5" font-family="Helvetica,sans-Serif" font-size="10.00">CreateTilePool</text>
</g>
<!-- Node2 -->
<g id="node2" class="node"><title>Node2</title>
<g id="a_node2"><a xlink:href="class_thinksquirrel_1_1_word_game_builder_1_1_w_g_b_base.html#ab57b4a4297b7972dbe73dbd6aeeb6bc2" target="_top" xlink:title="Logs a prefixed erorr. ">
<polygon fill="none" stroke="black" points="136,-110 136,-140 293,-140 293,-110 136,-110"/>
<text text-anchor="start" x="144" y="-128" font-family="Helvetica,sans-Serif" font-size="10.00">Thinksquirrel.WordGameBuilder.</text>
<text text-anchor="middle" x="214.5" y="-117" font-family="Helvetica,sans-Serif" font-size="10.00">WGBBase.LogError</text>
</a>
</g>
</g>
<!-- Node1&#45;&gt;Node2 -->
<g id="edge1" class="edge"><title>Node1&#45;&gt;Node2</title>
<path fill="none" stroke="midnightblue" d="M67.9132,-85.5541C82.1272,-90.4516 99.9146,-96.3475 116,-101 123.619,-103.204 131.61,-105.382 139.6,-107.475"/>
<polygon fill="midnightblue" stroke="midnightblue" points="138.763,-110.874 149.32,-109.981 140.51,-104.095 138.763,-110.874"/>
</g>
<!-- Node3 -->
<g id="node3" class="node"><title>Node3</title>
<g id="a_node3"><a xlink:href="class_thinksquirrel_1_1_word_game_builder_1_1_word_game_language.html#acea8c72132872acbe9b57f7919526102" target="_top" xlink:title="Finds a loaded language by identifier. ">
<polygon fill="none" stroke="black" points="125.5,-61 125.5,-91 303.5,-91 303.5,-61 125.5,-61"/>
<text text-anchor="start" x="133.5" y="-79" font-family="Helvetica,sans-Serif" font-size="10.00">Thinksquirrel.WordGameBuilder.</text>
<text text-anchor="middle" x="214.5" y="-68" font-family="Helvetica,sans-Serif" font-size="10.00">WordGameLanguage.FindByIdentifier</text>
</a>
</g>
</g>
<!-- Node1&#45;&gt;Node3 -->
<g id="edge2" class="edge"><title>Node1&#45;&gt;Node3</title>
<path fill="none" stroke="midnightblue" d="M80.1429,-76C90.7046,-76 102.626,-76 114.887,-76"/>
<polygon fill="midnightblue" stroke="midnightblue" points="115.245,-79.5001 125.244,-76 115.244,-72.5001 115.245,-79.5001"/>
</g>
<!-- Node4 -->
<g id="node4" class="node"><title>Node4</title>
<g id="a_node4"><a xlink:href="class_thinksquirrel_1_1_word_game_builder_1_1_word_game_language.html#aebcb73d5c2851cd30aae66c3cb66977c" target="_top" xlink:title="Gets the psuedo&#45;random number generator for the language. ">
<polygon fill="none" stroke="black" points="116,-0.5 116,-41.5 313,-41.5 313,-0.5 116,-0.5"/>
<text text-anchor="start" x="124" y="-29.5" font-family="Helvetica,sans-Serif" font-size="10.00">Thinksquirrel.WordGameBuilder.</text>
<text text-anchor="start" x="124" y="-18.5" font-family="Helvetica,sans-Serif" font-size="10.00">WordGameLanguage.GetRandomNumber</text>
<text text-anchor="middle" x="214.5" y="-7.5" font-family="Helvetica,sans-Serif" font-size="10.00">Generator</text>
</a>
</g>
</g>
<!-- Node1&#45;&gt;Node4 -->
<g id="edge3" class="edge"><title>Node1&#45;&gt;Node4</title>
<path fill="none" stroke="midnightblue" d="M70.9224,-66.4108C84.6551,-62.0135 101.152,-56.7362 116,-52 123.436,-49.628 131.193,-47.1568 138.94,-44.6905"/>
<polygon fill="midnightblue" stroke="midnightblue" points="140.257,-47.9446 148.724,-41.5768 138.134,-41.2743 140.257,-47.9446"/>
</g>
<!-- Node5 -->
<g id="node5" class="node"><title>Node5</title>
<g id="a_node5"><a xlink:href="class_thinksquirrel_1_1_word_game_builder_1_1_word_set.html#a2035ba0afa36778a6f4f664af777e7e6" target="_top" xlink:title="Optimizes a word set for fast searches. This may take a while and should be done offline &#45; not at run...">
<polygon fill="none" stroke="black" points="349,-6 349,-36 506,-36 506,-6 349,-6"/>
<text text-anchor="start" x="357" y="-24" font-family="Helvetica,sans-Serif" font-size="10.00">Thinksquirrel.WordGameBuilder.</text>
<text text-anchor="middle" x="427.5" y="-13" font-family="Helvetica,sans-Serif" font-size="10.00">WordSet.Optimize</text>
</a>
</g>
</g>
<!-- Node4&#45;&gt;Node5 -->
<g id="edge4" class="edge"><title>Node4&#45;&gt;Node5</title>
<path fill="none" stroke="midnightblue" d="M313.279,-21C321.786,-21 330.36,-21 338.779,-21"/>
<polygon fill="midnightblue" stroke="midnightblue" points="338.956,-24.5001 348.956,-21 338.956,-17.5001 338.956,-24.5001"/>
</g>
<!-- Node6 -->
<g id="node6" class="node"><title>Node6</title>
<g id="a_node6"><a xlink:href="class_thinksquirrel_1_1_word_game_builder_1_1_w_g_b_base.html#ad9bdc41d57dc8af06a56606485902fe7" target="_top" xlink:title="Logs a prefixed warning. ">
<polygon fill="none" stroke="black" points="542,-6 542,-36 699,-36 699,-6 542,-6"/>
<text text-anchor="start" x="550" y="-24" font-family="Helvetica,sans-Serif" font-size="10.00">Thinksquirrel.WordGameBuilder.</text>
<text text-anchor="middle" x="620.5" y="-13" font-family="Helvetica,sans-Serif" font-size="10.00">WGBBase.LogWarning</text>
</a>
</g>
</g>
<!-- Node5&#45;&gt;Node6 -->
<g id="edge5" class="edge"><title>Node5&#45;&gt;Node6</title>
<path fill="none" stroke="midnightblue" d="M506.187,-21C514.65,-21 523.306,-21 531.876,-21"/>
<polygon fill="midnightblue" stroke="midnightblue" points="531.882,-24.5001 541.882,-21 531.882,-17.5001 531.882,-24.5001"/>
</g>
</g>
</svg>
