<?xml version="1.0" encoding="UTF-8" standalone="no"?>
<!DOCTYPE svg PUBLIC "-//W3C//DTD SVG 1.1//EN"
 "http://www.w3.org/Graphics/SVG/1.1/DTD/svg11.dtd">
<!-- Generated by graphviz version 2.38.0 (20140413.2041)
 -->
<!-- Title: LogError Pages: 1 -->
<!--zoomable 334 -->
<svg id="main" version="1.1" xmlns="http://www.w3.org/2000/svg" xmlns:xlink="http://www.w3.org/1999/xlink" xml:space="preserve" onload="init(evt)">
<style type="text/css"><![CDATA[
.edge:hover path { stroke: red; }
.edge:hover polygon { stroke: red; fill: red; }
]]></style>
<script type="text/javascript"><![CDATA[
var edges = document.getElementsByTagName('g');
if (edges && edges.length) {
  for (var i=0;i<edges.length;i++) {
    if (edges[i].id.substr(0,4)=='edge') {
      edges[i].setAttribute('class','edge');
    }
  }
}
]]></script>
        <defs>
                <circle id="rim" cx="0" cy="0" r="7"/>
                <circle id="rim2" cx="0" cy="0" r="3.5"/>
                <g id="zoomPlus">
                        <use xlink:href="#rim" fill="#404040">
                                <set attributeName="fill" to="#808080" begin="zoomplus.mouseover" end="zoomplus.mouseout"/>
                        </use>
                        <path d="M-4,0h8M0,-4v8" fill="none" stroke="white" stroke-width="1.5" pointer-events="none"/>
                </g>
                <g id="zoomMin">
                        <use xlink:href="#rim" fill="#404040">
                                <set attributeName="fill" to="#808080" begin="zoomminus.mouseover" end="zoomminus.mouseout"/>
                        </use>
                        <path d="M-4,0h8" fill="none" stroke="white" stroke-width="1.5" pointer-events="none"/>
                </g>
                <g id="dirArrow">
                        <path fill="none" stroke="white" stroke-width="1.5" d="M0,-3.0v7 M-2.5,-0.5L0,-3.0L2.5,-0.5"/>
                </g>
               <g id="resetDef">
                       <use xlink:href="#rim2" fill="#404040">
                               <set attributeName="fill" to="#808080" begin="reset.mouseover" end="reset.mouseout"/>
                       </use>
               </g>
        </defs>

<script type="text/javascript">
var viewWidth = 503;
var viewHeight = 334;
var sectionId = 'dynsection-2';
</script>
<script xlink:href="svgpan.js"/>
<svg id="graph" class="graph">
<g id="viewport">
<title>LogError</title>
<!-- Node1 -->
<g id="node1" class="node"><title>Node1</title>
<polygon fill="#bfbfbf" stroke="black" points="0,-153 0,-172 53,-172 53,-153 0,-153"/>
<text text-anchor="middle" x="26.5" y="-160" font-family="Helvetica,sans-Serif" font-size="10.00">LogError</text>
</g>
<!-- Node2 -->
<g id="node2" class="node"><title>Node2</title>
<g id="a_node2"><a xlink:href="class_thinksquirrel_1_1_word_game_builder_editor_1_1_editor_windows_1_1_language_editor.html#a07475b4f457e86a6d6457d418a07fbb9" target="_top" xlink:title="Saves a language as an asset. ">
<polygon fill="none" stroke="black" points="94,-284 94,-325 278,-325 278,-284 94,-284"/>
<text text-anchor="start" x="102" y="-313" font-family="Helvetica,sans-Serif" font-size="10.00">Thinksquirrel.WordGameBuilder</text>
<text text-anchor="start" x="102" y="-302" font-family="Helvetica,sans-Serif" font-size="10.00">Editor.EditorWindows.LanguageEditor.</text>
<text text-anchor="middle" x="186" y="-291" font-family="Helvetica,sans-Serif" font-size="10.00">SaveLanguage</text>
</a>
</g>
</g>
<!-- Node1&#45;&gt;Node2 -->
<g id="edge1" class="edge"><title>Node1&#45;&gt;Node2</title>
<path fill="none" stroke="midnightblue" d="M33.9557,-181.961C42.793,-205.768 60.847,-245.817 89,-269.5 95.6519,-275.096 103.274,-279.832 111.252,-283.832"/>
<polygon fill="midnightblue" stroke="midnightblue" points="37.1688,-180.548 30.5408,-172.283 30.5676,-182.878 37.1688,-180.548"/>
</g>
<!-- Node3 -->
<g id="node3" class="node"><title>Node3</title>
<g id="a_node3"><a xlink:href="class_thinksquirrel_1_1_word_game_builder_editor_1_1_w_g_b_editor_helpers.html#a09809bc8cd6e5c18cb68031e72d91d45" target="_top" xlink:title="Draws the inspector for a WGBEvent. ">
<polygon fill="none" stroke="black" points="319,-264.5 319,-294.5 495,-294.5 495,-264.5 319,-264.5"/>
<text text-anchor="start" x="327" y="-282.5" font-family="Helvetica,sans-Serif" font-size="10.00">Thinksquirrel.WordGameBuilder</text>
<text text-anchor="middle" x="407" y="-271.5" font-family="Helvetica,sans-Serif" font-size="10.00">Editor.WGBEditorHelpers.DrawEvent</text>
</a>
</g>
</g>
<!-- Node1&#45;&gt;Node3 -->
<g id="edge5" class="edge"><title>Node1&#45;&gt;Node3</title>
<path fill="none" stroke="midnightblue" d="M37.3653,-180.899C47.7566,-198.316 65.8238,-223.654 89,-236.5 127.315,-257.736 238.779,-269.128 318.694,-274.745"/>
<polygon fill="midnightblue" stroke="midnightblue" points="40.385,-179.129 32.3983,-172.167 34.3005,-182.59 40.385,-179.129"/>
</g>
<!-- Node4 -->
<g id="node4" class="node"><title>Node4</title>
<g id="a_node4"><a xlink:href="class_thinksquirrel_1_1_word_game_builder_1_1_gameplay_1_1_tile_pool.html#ad93cb8a56a2c82e24f9073821654d986" target="_top" xlink:title="Creates the tile pool. ">
<polygon fill="none" stroke="black" points="104,-196.5 104,-226.5 268,-226.5 268,-196.5 104,-196.5"/>
<text text-anchor="start" x="112" y="-214.5" font-family="Helvetica,sans-Serif" font-size="10.00">Thinksquirrel.WordGameBuilder.</text>
<text text-anchor="middle" x="186" y="-203.5" font-family="Helvetica,sans-Serif" font-size="10.00">Gameplay.TilePool.CreateTilePool</text>
</a>
</g>
</g>
<!-- Node1&#45;&gt;Node4 -->
<g id="edge3" class="edge"><title>Node1&#45;&gt;Node4</title>
<path fill="none" stroke="midnightblue" d="M58.1551,-175.954C67.9079,-179.965 78.8104,-184.174 89,-187.5 98.7989,-190.699 109.278,-193.717 119.58,-196.462"/>
<polygon fill="midnightblue" stroke="midnightblue" points="59.4298,-172.693 48.8546,-172.048 56.7197,-179.147 59.4298,-172.693"/>
</g>
<!-- Node5 -->
<g id="node5" class="node"><title>Node5</title>
<g id="a_node5"><a xlink:href="class_thinksquirrel_1_1_word_game_builder_1_1_gameplay_1_1_tile_pool.html#a9a6655be91f9a087ac4d460821885fc3" target="_top" xlink:title="Spawns a brand new tile into the pool, based on the specified letter. ">
<polygon fill="none" stroke="black" points="107.5,-147.5 107.5,-177.5 264.5,-177.5 264.5,-147.5 107.5,-147.5"/>
<text text-anchor="start" x="115.5" y="-165.5" font-family="Helvetica,sans-Serif" font-size="10.00">Thinksquirrel.WordGameBuilder.</text>
<text text-anchor="middle" x="186" y="-154.5" font-family="Helvetica,sans-Serif" font-size="10.00">Gameplay.TilePool.CreateTile</text>
</a>
</g>
</g>
<!-- Node1&#45;&gt;Node5 -->
<g id="edge4" class="edge"><title>Node1&#45;&gt;Node5</title>
<path fill="none" stroke="midnightblue" d="M63.1767,-162.5C76.3497,-162.5 91.8451,-162.5 107.287,-162.5"/>
<polygon fill="midnightblue" stroke="midnightblue" points="63.1557,-159 53.1556,-162.5 63.1556,-166 63.1557,-159"/>
</g>
<!-- Node6 -->
<g id="node6" class="node"><title>Node6</title>
<g id="a_node6"><a xlink:href="class_thinksquirrel_1_1_word_game_builder_1_1_word_game_language.html#a4e0d419cd552e37d7989409f30cd277c" target="_top" xlink:title="Sets the culture of a language. ">
<polygon fill="none" stroke="black" points="107.5,-98.5 107.5,-128.5 264.5,-128.5 264.5,-98.5 107.5,-98.5"/>
<text text-anchor="start" x="115.5" y="-116.5" font-family="Helvetica,sans-Serif" font-size="10.00">Thinksquirrel.WordGameBuilder.</text>
<text text-anchor="middle" x="186" y="-105.5" font-family="Helvetica,sans-Serif" font-size="10.00">WordGameLanguage.SetCulture</text>
</a>
</g>
</g>
<!-- Node1&#45;&gt;Node6 -->
<g id="edge6" class="edge"><title>Node1&#45;&gt;Node6</title>
<path fill="none" stroke="midnightblue" d="M59.4607,-149.208C68.892,-145.509 79.2895,-141.647 89,-138.5 99.8951,-134.969 111.608,-131.585 122.978,-128.511"/>
<polygon fill="midnightblue" stroke="midnightblue" points="58.0396,-146.007 50.0515,-152.967 60.6363,-152.507 58.0396,-146.007"/>
</g>
<!-- Node7 -->
<g id="node7" class="node"><title>Node7</title>
<g id="a_node7"><a xlink:href="class_thinksquirrel_1_1_word_game_builder_1_1_word_game_language.html#a621a852207d53e91a83a1667350e56a4" target="_top" xlink:title="Exports the words of a language to a CSV file. ">
<polygon fill="none" stroke="black" points="89,-49.5 89,-79.5 283,-79.5 283,-49.5 89,-49.5"/>
<text text-anchor="start" x="97" y="-67.5" font-family="Helvetica,sans-Serif" font-size="10.00">Thinksquirrel.WordGameBuilder.</text>
<text text-anchor="middle" x="186" y="-56.5" font-family="Helvetica,sans-Serif" font-size="10.00">WordGameLanguage.ExportWordsToCsv</text>
</a>
</g>
</g>
<!-- Node1&#45;&gt;Node7 -->
<g id="edge7" class="edge"><title>Node1&#45;&gt;Node7</title>
<path fill="none" stroke="midnightblue" d="M38.4188,-143.933C49.1996,-127.223 67.2067,-103.246 89,-89.5 95.1181,-85.641 101.813,-82.3753 108.73,-79.6121"/>
<polygon fill="midnightblue" stroke="midnightblue" points="35.2182,-142.454 32.9323,-152.799 41.1707,-146.137 35.2182,-142.454"/>
</g>
<!-- Node8 -->
<g id="node8" class="node"><title>Node8</title>
<g id="a_node8"><a xlink:href="class_thinksquirrel_1_1_word_game_builder_1_1_word_set.html#ab869ee740498825018644ba178e8fb57" target="_top" xlink:title="Expands the set from compressed form. Yields when progress is updated and can be used in a coroutine...">
<polygon fill="none" stroke="black" points="107.5,-0.5 107.5,-30.5 264.5,-30.5 264.5,-0.5 107.5,-0.5"/>
<text text-anchor="start" x="115.5" y="-18.5" font-family="Helvetica,sans-Serif" font-size="10.00">Thinksquirrel.WordGameBuilder.</text>
<text text-anchor="middle" x="186" y="-7.5" font-family="Helvetica,sans-Serif" font-size="10.00">WordSet.Decompress</text>
</a>
</g>
</g>
<!-- Node1&#45;&gt;Node8 -->
<g id="edge8" class="edge"><title>Node1&#45;&gt;Node8</title>
<path fill="none" stroke="midnightblue" d="M31.9497,-143.003C39.1713,-115.875 56.075,-67.088 89,-40.5 94.4937,-36.0637 100.69,-32.4071 107.223,-29.3944"/>
<polygon fill="midnightblue" stroke="midnightblue" points="28.5133,-142.319 29.4996,-152.868 35.3069,-144.006 28.5133,-142.319"/>
</g>
<!-- Node2&#45;&gt;Node3 -->
<g id="edge2" class="edge"><title>Node2&#45;&gt;Node3</title>
<path fill="none" stroke="midnightblue" d="M288.382,-292.927C298.517,-291.77 308.747,-290.602 318.719,-289.464"/>
<polygon fill="midnightblue" stroke="midnightblue" points="287.828,-289.467 278.29,-294.079 288.622,-296.422 287.828,-289.467"/>
</g>
</g>
</svg>
        <g id="navigator" transform="translate(0 0)" fill="#404254">
                <rect fill="#f2f5e9" fill-opacity="0.5" stroke="#606060" stroke-width=".5" x="0" y="0" width="60" height="60"/>
                <use id="zoomplus" xlink:href="#zoomPlus" x="17" y="9" onmousedown="handleZoom(evt,'in')"/>
                <use id="zoomminus" xlink:href="#zoomMin" x="42" y="9" onmousedown="handleZoom(evt,'out')"/>
                <use id="reset" xlink:href="#resetDef" x="30" y="36" onmousedown="handleReset()"/>
                <g id="arrowUp" xlink:href="#dirArrow" transform="translate(30 24)" onmousedown="handlePan(0,-1)">
                  <use xlink:href="#rim" fill="#404040">
                        <set attributeName="fill" to="#808080" begin="arrowUp.mouseover" end="arrowUp.mouseout"/>
                  </use>
                  <path fill="none" stroke="white" stroke-width="1.5" d="M0,-3.0v7 M-2.5,-0.5L0,-3.0L2.5,-0.5"/>
                </g>
                <g id="arrowRight" xlink:href="#dirArrow" transform="rotate(90) translate(36 -43)" onmousedown="handlePan(1,0)">
                  <use xlink:href="#rim" fill="#404040">
                        <set attributeName="fill" to="#808080" begin="arrowRight.mouseover" end="arrowRight.mouseout"/>
                  </use>
                  <path fill="none" stroke="white" stroke-width="1.5" d="M0,-3.0v7 M-2.5,-0.5L0,-3.0L2.5,-0.5"/>
                </g>
                <g id="arrowDown" xlink:href="#dirArrow" transform="rotate(180) translate(-30 -48)" onmousedown="handlePan(0,1)">
                  <use xlink:href="#rim" fill="#404040">
                        <set attributeName="fill" to="#808080" begin="arrowDown.mouseover" end="arrowDown.mouseout"/>
                  </use>
                  <path fill="none" stroke="white" stroke-width="1.5" d="M0,-3.0v7 M-2.5,-0.5L0,-3.0L2.5,-0.5"/>
                </g>
                <g id="arrowLeft" xlink:href="#dirArrow" transform="rotate(270) translate(-36 17)" onmousedown="handlePan(-1,0)">
                  <use xlink:href="#rim" fill="#404040">
                        <set attributeName="fill" to="#808080" begin="arrowLeft.mouseover" end="arrowLeft.mouseout"/>
                  </use>
                  <path fill="none" stroke="white" stroke-width="1.5" d="M0,-3.0v7 M-2.5,-0.5L0,-3.0L2.5,-0.5"/>
                </g>
        </g>
        <svg viewBox="0 0 15 15" width="100%" height="30px" preserveAspectRatio="xMaxYMin meet">
         <g id="arrow_out" transform="scale(0.3 0.3)">
          <a xlink:href="class_thinksquirrel_1_1_word_game_builder_1_1_w_g_b_base_ab57b4a4297b7972dbe73dbd6aeeb6bc2_icgraph_org.svg" target="_base">
           <rect id="button" ry="5" rx="5" y="6" x="6" height="38" width="38"
                fill="#f2f5e9" fill-opacity="0.5" stroke="#606060" stroke-width="1.0"/>
           <path id="arrow"
             d="M 11.500037,31.436501 C 11.940474,20.09759 22.043105,11.32322 32.158766,21.979434 L 37.068811,17.246167 C 37.068811,17.246167 37.088388,32 37.088388,32 L 22.160133,31.978069 C 22.160133,31.978069 26.997745,27.140456 26.997745,27.140456 C 18.528582,18.264221 13.291696,25.230495 11.500037,31.436501 z"
             style="fill:#404040;"/>
          </a>
         </g>
        </svg>
</svg>
