<?xml version="1.0" encoding="UTF-8" standalone="no"?>
<!DOCTYPE svg PUBLIC "-//W3C//DTD SVG 1.1//EN"
 "http://www.w3.org/Graphics/SVG/1.1/DTD/svg11.dtd">
<!-- Generated by graphviz version 2.38.0 (20140413.2041)
 -->
<!-- Title: OnTileDistribution Pages: 1 -->
<!--zoomable 678 -->
<svg id="main" version="1.1" xmlns="http://www.w3.org/2000/svg" xmlns:xlink="http://www.w3.org/1999/xlink" xml:space="preserve" onload="init(evt)">
<style type="text/css"><![CDATA[
.edge:hover path { stroke: red; }
.edge:hover polygon { stroke: red; fill: red; }
]]></style>
<script type="text/javascript"><![CDATA[
var edges = document.getElementsByTagName('g');
if (edges && edges.length) {
  for (var i=0;i<edges.length;i++) {
    if (edges[i].id.substr(0,4)=='edge') {
      edges[i].setAttribute('class','edge');
    }
  }
}
]]></script>
        <defs>
                <circle id="rim" cx="0" cy="0" r="7"/>
                <circle id="rim2" cx="0" cy="0" r="3.5"/>
                <g id="zoomPlus">
                        <use xlink:href="#rim" fill="#404040">
                                <set attributeName="fill" to="#808080" begin="zoomplus.mouseover" end="zoomplus.mouseout"/>
                        </use>
                        <path d="M-4,0h8M0,-4v8" fill="none" stroke="white" stroke-width="1.5" pointer-events="none"/>
                </g>
                <g id="zoomMin">
                        <use xlink:href="#rim" fill="#404040">
                                <set attributeName="fill" to="#808080" begin="zoomminus.mouseover" end="zoomminus.mouseout"/>
                        </use>
                        <path d="M-4,0h8" fill="none" stroke="white" stroke-width="1.5" pointer-events="none"/>
                </g>
                <g id="dirArrow">
                        <path fill="none" stroke="white" stroke-width="1.5" d="M0,-3.0v7 M-2.5,-0.5L0,-3.0L2.5,-0.5"/>
                </g>
               <g id="resetDef">
                       <use xlink:href="#rim2" fill="#404040">
                               <set attributeName="fill" to="#808080" begin="reset.mouseover" end="reset.mouseout"/>
                       </use>
               </g>
        </defs>

<script type="text/javascript">
var viewWidth = 541;
var viewHeight = 678;
var sectionId = 'dynsection-3';
</script>
<script xlink:href="svgpan.js"/>
<svg id="graph" class="graph">
<g id="viewport">
<title>OnTileDistribution</title>
<!-- Node1 -->
<g id="node1" class="node"><title>Node1</title>
<polygon fill="#bfbfbf" stroke="black" points="0,-336 0,-355 93,-355 93,-336 0,-336"/>
<text text-anchor="middle" x="46.5" y="-343" font-family="Helvetica,sans-Serif" font-size="10.00">OnTileDistribution</text>
</g>
<!-- Node2 -->
<g id="node2" class="node"><title>Node2</title>
<g id="a_node2"><a xlink:href="interface_thinksquirrel_1_1_word_game_builder_1_1_object_model_1_1_i_word_game_agent.html#a4bcc8aa30dc4f3f6f9e257fd064d955f" target="_top" xlink:title="Finds a set of words, based on the player&#39;s current held tiles. ">
<polygon fill="none" stroke="black" points="133.5,-639.5 133.5,-669.5 335.5,-669.5 335.5,-639.5 133.5,-639.5"/>
<text text-anchor="start" x="141.5" y="-657.5" font-family="Helvetica,sans-Serif" font-size="10.00">Thinksquirrel.WordGameBuilder.</text>
<text text-anchor="middle" x="234.5" y="-646.5" font-family="Helvetica,sans-Serif" font-size="10.00">ObjectModel.IWordGameAgent.FindWords</text>
</a>
</g>
</g>
<!-- Node1&#45;&gt;Node2 -->
<g id="edge1" class="edge"><title>Node1&#45;&gt;Node2</title>
<path fill="none" stroke="midnightblue" d="M47.0447,-355.086C45.6937,-395.291 46.1117,-551.875 129,-630.5 129.988,-631.437 131.004,-632.34 132.047,-633.21"/>
<polygon fill="midnightblue" stroke="midnightblue" points="130.346,-636.296 140.518,-639.258 134.413,-630.599 130.346,-636.296"/>
</g>
<!-- Node3 -->
<g id="node3" class="node"><title>Node3</title>
<g id="a_node3"><a xlink:href="class_thinksquirrel_1_1_word_game_builder_1_1_gameplay_1_1_word_checker.html#a0207a3223ea49cc9748af7c02817bcaa" target="_top" xlink:title="Gets the word from a list of a letter tiles. ">
<polygon fill="none" stroke="black" points="152,-590.5 152,-620.5 317,-620.5 317,-590.5 152,-590.5"/>
<text text-anchor="start" x="160" y="-608.5" font-family="Helvetica,sans-Serif" font-size="10.00">Thinksquirrel.WordGameBuilder.</text>
<text text-anchor="middle" x="234.5" y="-597.5" font-family="Helvetica,sans-Serif" font-size="10.00">Gameplay.WordChecker.GetWord</text>
</a>
</g>
</g>
<!-- Node1&#45;&gt;Node3 -->
<g id="edge2" class="edge"><title>Node1&#45;&gt;Node3</title>
<path fill="none" stroke="midnightblue" d="M47.708,-355.381C49.0327,-391.613 58.7115,-518.342 129,-581.5 133.154,-585.232 137.769,-588.42 142.681,-591.138"/>
<polygon fill="midnightblue" stroke="midnightblue" points="141.279,-594.348 151.806,-595.542 144.321,-588.044 141.279,-594.348"/>
</g>
<!-- Node4 -->
<g id="node4" class="node"><title>Node4</title>
<g id="a_node4"><a xlink:href="class_thinksquirrel_1_1_word_game_builder_1_1_gameplay_1_1_word_checker.html#a9fe38b55e3469629ca0ab3950d0dfeca" target="_top" xlink:title="Aborts all asynchronous tasks. ">
<polygon fill="none" stroke="black" points="141,-541.5 141,-571.5 328,-571.5 328,-541.5 141,-541.5"/>
<text text-anchor="start" x="149" y="-559.5" font-family="Helvetica,sans-Serif" font-size="10.00">Thinksquirrel.WordGameBuilder.</text>
<text text-anchor="middle" x="234.5" y="-548.5" font-family="Helvetica,sans-Serif" font-size="10.00">Gameplay.WordChecker.AbortAllTasks</text>
</a>
</g>
</g>
<!-- Node1&#45;&gt;Node4 -->
<g id="edge3" class="edge"><title>Node1&#45;&gt;Node4</title>
<path fill="none" stroke="midnightblue" d="M48.6522,-355.04C52.9133,-385.944 70.6832,-484.097 129,-532.5 130.558,-533.793 132.172,-535.019 133.834,-536.182"/>
<polygon fill="midnightblue" stroke="midnightblue" points="132.159,-539.26 142.517,-541.487 135.808,-533.287 132.159,-539.26"/>
</g>
<!-- Node5 -->
<g id="node5" class="node"><title>Node5</title>
<g id="a_node5"><a xlink:href="class_thinksquirrel_1_1_word_game_builder_1_1_gameplay_1_1_word_checker.html#addf90951538425908ce504b2ed4ab352" target="_top" xlink:title="Checks the input word against the dictionary, asynchronously on another thread. ">
<polygon fill="none" stroke="black" points="132,-492.5 132,-522.5 337,-522.5 337,-492.5 132,-492.5"/>
<text text-anchor="start" x="140" y="-510.5" font-family="Helvetica,sans-Serif" font-size="10.00">Thinksquirrel.WordGameBuilder.</text>
<text text-anchor="middle" x="234.5" y="-499.5" font-family="Helvetica,sans-Serif" font-size="10.00">Gameplay.WordChecker.CheckWordAsync</text>
</a>
</g>
</g>
<!-- Node1&#45;&gt;Node5 -->
<g id="edge4" class="edge"><title>Node1&#45;&gt;Node5</title>
<path fill="none" stroke="midnightblue" d="M50.6761,-355.158C59.2069,-379.566 85.0001,-444.147 129,-477.5 134.457,-481.637 140.467,-485.204 146.762,-488.279"/>
<polygon fill="midnightblue" stroke="midnightblue" points="145.599,-491.592 156.16,-492.442 148.434,-485.192 145.599,-491.592"/>
</g>
<!-- Node8 -->
<g id="node8" class="node"><title>Node8</title>
<g id="a_node8"><a xlink:href="class_thinksquirrel_1_1_word_game_builder_1_1_word_game_language.html#a03e573ffc9e274bef8f917c6c5894697" target="_top" xlink:title="Gets the Letter struct for the specified string (Letter.text). ">
<polygon fill="none" stroke="black" points="376,-445.5 376,-475.5 533,-475.5 533,-445.5 376,-445.5"/>
<text text-anchor="start" x="384" y="-463.5" font-family="Helvetica,sans-Serif" font-size="10.00">Thinksquirrel.WordGameBuilder.</text>
<text text-anchor="middle" x="454.5" y="-452.5" font-family="Helvetica,sans-Serif" font-size="10.00">WordGameLanguage.GetLetter</text>
</a>
</g>
</g>
<!-- Node1&#45;&gt;Node8 -->
<g id="edge10" class="edge"><title>Node1&#45;&gt;Node8</title>
<path fill="none" stroke="midnightblue" d="M51.9346,-355.08C62.1248,-375.82 89.4149,-424.608 129,-444.5 202.466,-481.418 297.478,-481.481 365.68,-474.69"/>
<polygon fill="midnightblue" stroke="midnightblue" points="366.392,-478.134 375.965,-473.594 365.65,-471.174 366.392,-478.134"/>
</g>
<!-- Node9 -->
<g id="node9" class="node"><title>Node9</title>
<g id="a_node9"><a xlink:href="class_thinksquirrel_1_1_word_game_builder_1_1_word_game_language.html#aa45ce56d0e89ef64768700f3c3988262" target="_top" xlink:title="Finds the first occurance of a loaded language by name. ">
<polygon fill="none" stroke="black" points="151,-404.5 151,-434.5 318,-434.5 318,-404.5 151,-404.5"/>
<text text-anchor="start" x="159" y="-422.5" font-family="Helvetica,sans-Serif" font-size="10.00">Thinksquirrel.WordGameBuilder.</text>
<text text-anchor="middle" x="234.5" y="-411.5" font-family="Helvetica,sans-Serif" font-size="10.00">WordGameLanguage.FindByName</text>
</a>
</g>
</g>
<!-- Node1&#45;&gt;Node9 -->
<g id="edge8" class="edge"><title>Node1&#45;&gt;Node9</title>
<path fill="none" stroke="midnightblue" d="M60.0693,-355.022C75.5096,-366.277 102.878,-384.823 129,-395.5 134.354,-397.688 139.947,-399.699 145.643,-401.543"/>
<polygon fill="midnightblue" stroke="midnightblue" points="144.716,-404.919 155.302,-404.49 146.759,-398.224 144.716,-404.919"/>
</g>
<!-- Node10 -->
<g id="node10" class="node"><title>Node10</title>
<g id="a_node10"><a xlink:href="interface_thinksquirrel_1_1_word_game_builder_1_1_object_model_1_1_i_word_game_player.html#a87d83908a2f954bac475c23e83fc2786" target="_top" xlink:title="Submits the word for checking against the current langauge&#39;s word list. ">
<polygon fill="none" stroke="black" points="129,-355.5 129,-385.5 340,-385.5 340,-355.5 129,-355.5"/>
<text text-anchor="start" x="137" y="-373.5" font-family="Helvetica,sans-Serif" font-size="10.00">Thinksquirrel.WordGameBuilder.</text>
<text text-anchor="middle" x="234.5" y="-362.5" font-family="Helvetica,sans-Serif" font-size="10.00">ObjectModel.IWordGamePlayer.SubmitWord</text>
</a>
</g>
</g>
<!-- Node1&#45;&gt;Node10 -->
<g id="edge9" class="edge"><title>Node1&#45;&gt;Node10</title>
<path fill="none" stroke="midnightblue" d="M93.0007,-351.616C101.136,-352.709 109.934,-353.892 119.021,-355.113"/>
<polygon fill="midnightblue" stroke="midnightblue" points="118.601,-358.588 128.978,-356.451 119.533,-351.65 118.601,-358.588"/>
</g>
<!-- Node11 -->
<g id="node11" class="node"><title>Node11</title>
<g id="a_node11"><a xlink:href="interface_thinksquirrel_1_1_word_game_builder_1_1_object_model_1_1_i_letter_tile.html#aa11c3d6f4f984d8e8baa38df60fccdc0" target="_top" xlink:title="Sets the wildcard letter on a tile. ">
<polygon fill="none" stroke="black" points="148,-306.5 148,-336.5 321,-336.5 321,-306.5 148,-306.5"/>
<text text-anchor="start" x="156" y="-324.5" font-family="Helvetica,sans-Serif" font-size="10.00">Thinksquirrel.WordGameBuilder.</text>
<text text-anchor="middle" x="234.5" y="-313.5" font-family="Helvetica,sans-Serif" font-size="10.00">ObjectModel.ILetterTile.SetWildcard</text>
</a>
</g>
</g>
<!-- Node1&#45;&gt;Node11 -->
<g id="edge11" class="edge"><title>Node1&#45;&gt;Node11</title>
<path fill="none" stroke="midnightblue" d="M93.0007,-339.629C106.587,-337.876 122.022,-335.884 137.567,-333.878"/>
<polygon fill="midnightblue" stroke="midnightblue" points="138.31,-337.312 147.78,-332.561 137.414,-330.369 138.31,-337.312"/>
</g>
<!-- Node12 -->
<g id="node12" class="node"><title>Node12</title>
<g id="a_node12"><a xlink:href="interface_thinksquirrel_1_1_word_game_builder_1_1_object_model_1_1_i_word_game_player.html#aa0c217fbc7afe338af01ff1a9ab27c5e" target="_top" xlink:title="Attempts to select a tile. If the tile implements ISelectableLetterTile, this follows selection rules...">
<polygon fill="none" stroke="black" points="134.5,-257.5 134.5,-287.5 334.5,-287.5 334.5,-257.5 134.5,-257.5"/>
<text text-anchor="start" x="142.5" y="-275.5" font-family="Helvetica,sans-Serif" font-size="10.00">Thinksquirrel.WordGameBuilder.</text>
<text text-anchor="middle" x="234.5" y="-264.5" font-family="Helvetica,sans-Serif" font-size="10.00">ObjectModel.IWordGamePlayer.SelectTile</text>
</a>
</g>
</g>
<!-- Node1&#45;&gt;Node12 -->
<g id="edge12" class="edge"><title>Node1&#45;&gt;Node12</title>
<path fill="none" stroke="midnightblue" d="M60.9813,-335.85C76.6353,-325.062 103.569,-307.762 129,-297.5 135.334,-294.944 141.995,-292.608 148.758,-290.48"/>
<polygon fill="midnightblue" stroke="midnightblue" points="150.132,-293.723 158.715,-287.512 148.132,-287.015 150.132,-293.723"/>
</g>
<!-- Node13 -->
<g id="node13" class="node"><title>Node13</title>
<g id="a_node13"><a xlink:href="interface_thinksquirrel_1_1_word_game_builder_1_1_object_model_1_1_i_word_game_player.html#af3def0a5043ee3b759b0acd489cf1e44" target="_top" xlink:title="Clears the player&#39;s selected tiles. Also deselected them if they implement ISelectableLetterTile. ">
<polygon fill="none" stroke="black" points="145,-197 145,-238 324,-238 324,-197 145,-197"/>
<text text-anchor="start" x="153" y="-226" font-family="Helvetica,sans-Serif" font-size="10.00">Thinksquirrel.WordGameBuilder.</text>
<text text-anchor="start" x="153" y="-215" font-family="Helvetica,sans-Serif" font-size="10.00">ObjectModel.IWordGamePlayer.Clear</text>
<text text-anchor="middle" x="234.5" y="-204" font-family="Helvetica,sans-Serif" font-size="10.00">Selection</text>
</a>
</g>
</g>
<!-- Node1&#45;&gt;Node13 -->
<g id="edge13" class="edge"><title>Node1&#45;&gt;Node13</title>
<path fill="none" stroke="midnightblue" d="M52.8904,-335.907C64.3249,-316.438 92.944,-272.133 129,-248.5 132.289,-246.344 135.733,-244.334 139.284,-242.46"/>
<polygon fill="midnightblue" stroke="midnightblue" points="140.842,-245.595 148.308,-238.078 137.784,-239.298 140.842,-245.595"/>
</g>
<!-- Node14 -->
<g id="node14" class="node"><title>Node14</title>
<g id="a_node14"><a xlink:href="interface_thinksquirrel_1_1_word_game_builder_1_1_object_model_1_1_i_word_game_agent.html#a17a237457e57625296e6b24feb19c60a" target="_top" xlink:title="Stops all actions currently in progress by the agent. ">
<polygon fill="none" stroke="black" points="147,-147.5 147,-177.5 322,-177.5 322,-147.5 147,-147.5"/>
<text text-anchor="start" x="155" y="-165.5" font-family="Helvetica,sans-Serif" font-size="10.00">Thinksquirrel.WordGameBuilder.</text>
<text text-anchor="middle" x="234.5" y="-154.5" font-family="Helvetica,sans-Serif" font-size="10.00">ObjectModel.IWordGameAgent.Stop</text>
</a>
</g>
</g>
<!-- Node1&#45;&gt;Node14 -->
<g id="edge14" class="edge"><title>Node1&#45;&gt;Node14</title>
<path fill="none" stroke="midnightblue" d="M49.507,-335.902C55.8234,-308.188 77.9829,-227.48 129,-187.5 131.801,-185.305 134.765,-183.298 137.852,-181.464"/>
<polygon fill="midnightblue" stroke="midnightblue" points="139.621,-184.488 146.845,-176.737 136.365,-178.291 139.621,-184.488"/>
</g>
<!-- Node15 -->
<g id="node15" class="node"><title>Node15</title>
<g id="a_node15"><a xlink:href="interface_thinksquirrel_1_1_word_game_builder_1_1_object_model_1_1_i_word_game_player.html#a715f64585fa4e9545f6e4d26e3082cd1" target="_top" xlink:title="Resets the current score. ">
<polygon fill="none" stroke="black" points="130.5,-98.5 130.5,-128.5 338.5,-128.5 338.5,-98.5 130.5,-98.5"/>
<text text-anchor="start" x="138.5" y="-116.5" font-family="Helvetica,sans-Serif" font-size="10.00">Thinksquirrel.WordGameBuilder.</text>
<text text-anchor="middle" x="234.5" y="-105.5" font-family="Helvetica,sans-Serif" font-size="10.00">ObjectModel.IWordGamePlayer.ResetScore</text>
</a>
</g>
</g>
<!-- Node1&#45;&gt;Node15 -->
<g id="edge15" class="edge"><title>Node1&#45;&gt;Node15</title>
<path fill="none" stroke="midnightblue" d="M48.2347,-335.925C51.2981,-302.964 66.0211,-193.212 129,-138.5 130.774,-136.959 132.625,-135.51 134.544,-134.146"/>
<polygon fill="midnightblue" stroke="midnightblue" points="136.682,-136.939 143.343,-128.7 132.998,-130.987 136.682,-136.939"/>
</g>
<!-- Node16 -->
<g id="node16" class="node"><title>Node16</title>
<g id="a_node16"><a xlink:href="interface_thinksquirrel_1_1_word_game_builder_1_1_object_model_1_1_i_tile_pool.html#a57b5649459feafb1388a3c83d04141e8" target="_top" xlink:title="Resets the tile pool. ">
<polygon fill="none" stroke="black" points="147.5,-49.5 147.5,-79.5 321.5,-79.5 321.5,-49.5 147.5,-49.5"/>
<text text-anchor="start" x="155.5" y="-67.5" font-family="Helvetica,sans-Serif" font-size="10.00">Thinksquirrel.WordGameBuilder.</text>
<text text-anchor="middle" x="234.5" y="-56.5" font-family="Helvetica,sans-Serif" font-size="10.00">ObjectModel.ITilePool.ResetTilePool</text>
</a>
</g>
</g>
<!-- Node1&#45;&gt;Node16 -->
<g id="edge16" class="edge"><title>Node1&#45;&gt;Node16</title>
<path fill="none" stroke="midnightblue" d="M47.4221,-335.88C47.6681,-298.207 53.8283,-159.348 129,-89.5 131.952,-86.7571 135.15,-84.2991 138.531,-82.0974"/>
<polygon fill="midnightblue" stroke="midnightblue" points="140.306,-85.1143 147.278,-77.1364 136.853,-79.0255 140.306,-85.1143"/>
</g>
<!-- Node17 -->
<g id="node17" class="node"><title>Node17</title>
<g id="a_node17"><a xlink:href="interface_thinksquirrel_1_1_word_game_builder_1_1_object_model_1_1_i_tile_pool.html#ae66f37155b51e19efe7a39369371c2c1" target="_top" xlink:title="Distributes the specified amount of tiles to the specified IWordGamePlayer, up to the player&#39;s maximu...">
<polygon fill="none" stroke="black" points="146.5,-0.5 146.5,-30.5 322.5,-30.5 322.5,-0.5 146.5,-0.5"/>
<text text-anchor="start" x="154.5" y="-18.5" font-family="Helvetica,sans-Serif" font-size="10.00">Thinksquirrel.WordGameBuilder.</text>
<text text-anchor="middle" x="234.5" y="-7.5" font-family="Helvetica,sans-Serif" font-size="10.00">ObjectModel.ITilePool.DistributeTiles</text>
</a>
</g>
</g>
<!-- Node1&#45;&gt;Node17 -->
<g id="edge17" class="edge"><title>Node1&#45;&gt;Node17</title>
<path fill="none" stroke="midnightblue" d="M48.7134,-335.97C54.8807,-289.01 84.2207,-82.7585 129,-39.5 131.623,-36.9659 134.457,-34.6791 137.454,-32.6166"/>
<polygon fill="midnightblue" stroke="midnightblue" points="139.473,-35.4883 146.292,-27.3789 135.904,-29.4664 139.473,-35.4883"/>
</g>
<!-- Node6 -->
<g id="node6" class="node"><title>Node6</title>
<g id="a_node6"><a xlink:href="class_thinksquirrel_1_1_word_game_builder_1_1_async_task.html#a74d46304f773f12c82b4c083696c7855" target="_top" xlink:title="Creates a task on a background thread. ">
<polygon fill="none" stroke="black" points="376,-543.5 376,-573.5 533,-573.5 533,-543.5 376,-543.5"/>
<text text-anchor="start" x="384" y="-561.5" font-family="Helvetica,sans-Serif" font-size="10.00">Thinksquirrel.WordGameBuilder.</text>
<text text-anchor="middle" x="454.5" y="-550.5" font-family="Helvetica,sans-Serif" font-size="10.00">AsyncTask.Create</text>
</a>
</g>
</g>
<!-- Node5&#45;&gt;Node6 -->
<g id="edge5" class="edge"><title>Node5&#45;&gt;Node6</title>
<path fill="none" stroke="midnightblue" d="M299.728,-522.526C324.786,-528.388 353.664,-535.144 379.581,-541.207"/>
<polygon fill="midnightblue" stroke="midnightblue" points="378.82,-544.623 389.355,-543.494 380.415,-537.808 378.82,-544.623"/>
</g>
<!-- Node7 -->
<g id="node7" class="node"><title>Node7</title>
<g id="a_node7"><a xlink:href="class_thinksquirrel_1_1_word_game_builder_1_1_async_task.html#a61696d12bced86b6c979f001fa79df78" target="_top" xlink:title="Dispatches an action onto the main thread. ">
<polygon fill="none" stroke="black" points="376,-494.5 376,-524.5 533,-524.5 533,-494.5 376,-494.5"/>
<text text-anchor="start" x="384" y="-512.5" font-family="Helvetica,sans-Serif" font-size="10.00">Thinksquirrel.WordGameBuilder.</text>
<text text-anchor="middle" x="454.5" y="-501.5" font-family="Helvetica,sans-Serif" font-size="10.00">AsyncTask.Dispatch</text>
</a>
</g>
</g>
<!-- Node5&#45;&gt;Node7 -->
<g id="edge6" class="edge"><title>Node5&#45;&gt;Node7</title>
<path fill="none" stroke="midnightblue" d="M337.16,-508.433C346.698,-508.52 356.311,-508.608 365.705,-508.695"/>
<polygon fill="midnightblue" stroke="midnightblue" points="365.767,-512.195 375.799,-508.787 365.831,-505.195 365.767,-512.195"/>
</g>
<!-- Node5&#45;&gt;Node8 -->
<g id="edge7" class="edge"><title>Node5&#45;&gt;Node8</title>
<path fill="none" stroke="midnightblue" d="M305.076,-492.5C327.002,-487.772 351.388,-482.515 373.953,-477.65"/>
<polygon fill="midnightblue" stroke="midnightblue" points="374.8,-481.048 383.837,-475.519 373.324,-474.205 374.8,-481.048"/>
</g>
</g>
</svg>
        <g id="navigator" transform="translate(0 0)" fill="#404254">
                <rect fill="#f2f5e9" fill-opacity="0.5" stroke="#606060" stroke-width=".5" x="0" y="0" width="60" height="60"/>
                <use id="zoomplus" xlink:href="#zoomPlus" x="17" y="9" onmousedown="handleZoom(evt,'in')"/>
                <use id="zoomminus" xlink:href="#zoomMin" x="42" y="9" onmousedown="handleZoom(evt,'out')"/>
                <use id="reset" xlink:href="#resetDef" x="30" y="36" onmousedown="handleReset()"/>
                <g id="arrowUp" xlink:href="#dirArrow" transform="translate(30 24)" onmousedown="handlePan(0,-1)">
                  <use xlink:href="#rim" fill="#404040">
                        <set attributeName="fill" to="#808080" begin="arrowUp.mouseover" end="arrowUp.mouseout"/>
                  </use>
                  <path fill="none" stroke="white" stroke-width="1.5" d="M0,-3.0v7 M-2.5,-0.5L0,-3.0L2.5,-0.5"/>
                </g>
                <g id="arrowRight" xlink:href="#dirArrow" transform="rotate(90) translate(36 -43)" onmousedown="handlePan(1,0)">
                  <use xlink:href="#rim" fill="#404040">
                        <set attributeName="fill" to="#808080" begin="arrowRight.mouseover" end="arrowRight.mouseout"/>
                  </use>
                  <path fill="none" stroke="white" stroke-width="1.5" d="M0,-3.0v7 M-2.5,-0.5L0,-3.0L2.5,-0.5"/>
                </g>
                <g id="arrowDown" xlink:href="#dirArrow" transform="rotate(180) translate(-30 -48)" onmousedown="handlePan(0,1)">
                  <use xlink:href="#rim" fill="#404040">
                        <set attributeName="fill" to="#808080" begin="arrowDown.mouseover" end="arrowDown.mouseout"/>
                  </use>
                  <path fill="none" stroke="white" stroke-width="1.5" d="M0,-3.0v7 M-2.5,-0.5L0,-3.0L2.5,-0.5"/>
                </g>
                <g id="arrowLeft" xlink:href="#dirArrow" transform="rotate(270) translate(-36 17)" onmousedown="handlePan(-1,0)">
                  <use xlink:href="#rim" fill="#404040">
                        <set attributeName="fill" to="#808080" begin="arrowLeft.mouseover" end="arrowLeft.mouseout"/>
                  </use>
                  <path fill="none" stroke="white" stroke-width="1.5" d="M0,-3.0v7 M-2.5,-0.5L0,-3.0L2.5,-0.5"/>
                </g>
        </g>
        <svg viewBox="0 0 15 15" width="100%" height="30px" preserveAspectRatio="xMaxYMin meet">
         <g id="arrow_out" transform="scale(0.3 0.3)">
          <a xlink:href="class_thinksquirrel_1_1_word_game_builder_example_1_1_example_game_logic_a2fd969ff4cd73e8d3201f42a6d5126b5_cgraph_org.svg" target="_base">
           <rect id="button" ry="5" rx="5" y="6" x="6" height="38" width="38"
                fill="#f2f5e9" fill-opacity="0.5" stroke="#606060" stroke-width="1.0"/>
           <path id="arrow"
             d="M 11.500037,31.436501 C 11.940474,20.09759 22.043105,11.32322 32.158766,21.979434 L 37.068811,17.246167 C 37.068811,17.246167 37.088388,32 37.088388,32 L 22.160133,31.978069 C 22.160133,31.978069 26.997745,27.140456 26.997745,27.140456 C 18.528582,18.264221 13.291696,25.230495 11.500037,31.436501 z"
             style="fill:#404040;"/>
          </a>
         </g>
        </svg>
</svg>
