<?xml version="1.0" encoding="UTF-8" standalone="no"?>
<!DOCTYPE svg PUBLIC "-//W3C//DTD SVG 1.1//EN"
 "http://www.w3.org/Graphics/SVG/1.1/DTD/svg11.dtd">
<!-- Generated by graphviz version 2.38.0 (20140413.2041)
 -->
<!-- Title: LetterTileUIInput Pages: 1 -->
<svg width="808pt" height="441pt"
 viewBox="0.00 0.00 807.50 441.00" xmlns="http://www.w3.org/2000/svg" xmlns:xlink="http://www.w3.org/1999/xlink">
<g id="graph0" class="graph" transform="scale(1 1) rotate(0) translate(4 437)">
<title>LetterTileUIInput</title>
<!-- Node1 -->
<g id="node1" class="node"><title>Node1</title>
<polygon fill="#bfbfbf" stroke="black" points="403.5,-0.5 403.5,-57.5 489.5,-57.5 489.5,-0.5 403.5,-0.5"/>
<text text-anchor="middle" x="446.5" y="-45.5" font-family="Helvetica,sans-Serif" font-size="10.00">LetterTileUIInput</text>
<polyline fill="none" stroke="black" points="403.5,-38.5 489.5,-38.5 "/>
<text text-anchor="middle" x="446.5" y="-26.5" font-family="Helvetica,sans-Serif" font-size="10.00"> </text>
<polyline fill="none" stroke="black" points="403.5,-19.5 489.5,-19.5 "/>
<text text-anchor="middle" x="446.5" y="-7.5" font-family="Helvetica,sans-Serif" font-size="10.00"> </text>
</g>
<!-- Node2 -->
<g id="node2" class="node"><title>Node2</title>
<g id="a_node2"><a xlink:href="class_thinksquirrel_1_1_word_game_builder_1_1_w_g_b_base.html" target="_top" xlink:title="The base class for all Word Game Builder components. ">
<polygon fill="none" stroke="black" points="0,-94.5 0,-338.5 197,-338.5 197,-94.5 0,-94.5"/>
<text text-anchor="middle" x="98.5" y="-326.5" font-family="Helvetica,sans-Serif" font-size="10.00">WGBBase</text>
<polyline fill="none" stroke="black" points="0,-319.5 197,-319.5 "/>
<text text-anchor="start" x="8" y="-307.5" font-family="Helvetica,sans-Serif" font-size="10.00">+ userData</text>
<polyline fill="none" stroke="black" points="0,-300.5 197,-300.5 "/>
<text text-anchor="start" x="8" y="-288.5" font-family="Helvetica,sans-Serif" font-size="10.00">+ GetComponentFromInterface&lt; T &gt;()</text>
<text text-anchor="start" x="8" y="-277.5" font-family="Helvetica,sans-Serif" font-size="10.00">+ GetComponentInChildrenFrom</text>
<text text-anchor="start" x="8" y="-266.5" font-family="Helvetica,sans-Serif" font-size="10.00">Interface&lt; T &gt;()</text>
<text text-anchor="start" x="8" y="-255.5" font-family="Helvetica,sans-Serif" font-size="10.00">+ GetComponentsFromInterface&lt; T &gt;()</text>
<text text-anchor="start" x="8" y="-244.5" font-family="Helvetica,sans-Serif" font-size="10.00">+ GetComponentsInChildrenFrom</text>
<text text-anchor="start" x="8" y="-233.5" font-family="Helvetica,sans-Serif" font-size="10.00">Interface&lt; T &gt;()</text>
<text text-anchor="start" x="8" y="-222.5" font-family="Helvetica,sans-Serif" font-size="10.00">+ FindObjectOfTypeFromInterface&lt; T &gt;()</text>
<text text-anchor="start" x="8" y="-211.5" font-family="Helvetica,sans-Serif" font-size="10.00">+ FindObjectsOfTypeFromInterface&lt; T &gt;()</text>
<text text-anchor="start" x="8" y="-200.5" font-family="Helvetica,sans-Serif" font-size="10.00">+ InstantiateFromInterface&lt; T &gt;()</text>
<text text-anchor="start" x="8" y="-189.5" font-family="Helvetica,sans-Serif" font-size="10.00">+ InstantiateFromInterface&lt; T &gt;()</text>
<text text-anchor="start" x="8" y="-178.5" font-family="Helvetica,sans-Serif" font-size="10.00">+ Log()</text>
<text text-anchor="start" x="8" y="-167.5" font-family="Helvetica,sans-Serif" font-size="10.00">+ Log()</text>
<text text-anchor="start" x="8" y="-156.5" font-family="Helvetica,sans-Serif" font-size="10.00">+ LogError()</text>
<text text-anchor="start" x="8" y="-145.5" font-family="Helvetica,sans-Serif" font-size="10.00">+ LogError()</text>
<text text-anchor="start" x="8" y="-134.5" font-family="Helvetica,sans-Serif" font-size="10.00">+ LogException()</text>
<text text-anchor="start" x="8" y="-123.5" font-family="Helvetica,sans-Serif" font-size="10.00">+ LogException()</text>
<text text-anchor="start" x="8" y="-112.5" font-family="Helvetica,sans-Serif" font-size="10.00">+ LogWarning()</text>
<text text-anchor="start" x="8" y="-101.5" font-family="Helvetica,sans-Serif" font-size="10.00">+ LogWarning()</text>
</a>
</g>
</g>
<!-- Node2&#45;&gt;Node1 -->
<g id="edge1" class="edge"><title>Node2&#45;&gt;Node1</title>
<path fill="none" stroke="midnightblue" d="M205.231,-94.1667C205.321,-94.111 205.41,-94.0555 205.5,-94 267.711,-55.5 352.814,-39.9404 403.472,-33.8113"/>
<polygon fill="none" stroke="midnightblue" points="203.408,-91.176 197,-99.6132 207.271,-97.0137 203.408,-91.176"/>
</g>
<!-- Node3 -->
<g id="node3" class="node"><title>Node3</title>
<polygon fill="none" stroke="#bfbfbf" points="57,-375.5 57,-432.5 140,-432.5 140,-375.5 57,-375.5"/>
<text text-anchor="middle" x="98.5" y="-420.5" font-family="Helvetica,sans-Serif" font-size="10.00">MonoBehaviour</text>
<polyline fill="none" stroke="#bfbfbf" points="57,-413.5 140,-413.5 "/>
<text text-anchor="middle" x="98.5" y="-401.5" font-family="Helvetica,sans-Serif" font-size="10.00"> </text>
<polyline fill="none" stroke="#bfbfbf" points="57,-394.5 140,-394.5 "/>
<text text-anchor="middle" x="98.5" y="-382.5" font-family="Helvetica,sans-Serif" font-size="10.00"> </text>
</g>
<!-- Node3&#45;&gt;Node2 -->
<g id="edge2" class="edge"><title>Node3&#45;&gt;Node2</title>
<path fill="none" stroke="midnightblue" d="M98.5,-365.139C98.5,-357.055 98.5,-348.101 98.5,-338.718"/>
<polygon fill="none" stroke="midnightblue" points="95.0001,-365.229 98.5,-375.229 102,-365.229 95.0001,-365.229"/>
</g>
<!-- Node4 -->
<g id="node4" class="node"><title>Node4</title>
<polygon fill="none" stroke="#bfbfbf" points="215,-188 215,-245 322,-245 322,-188 215,-188"/>
<text text-anchor="middle" x="268.5" y="-233" font-family="Helvetica,sans-Serif" font-size="10.00">IPointerDownHandler</text>
<polyline fill="none" stroke="#bfbfbf" points="215,-226 322,-226 "/>
<text text-anchor="middle" x="268.5" y="-214" font-family="Helvetica,sans-Serif" font-size="10.00"> </text>
<polyline fill="none" stroke="#bfbfbf" points="215,-207 322,-207 "/>
<text text-anchor="middle" x="268.5" y="-195" font-family="Helvetica,sans-Serif" font-size="10.00"> </text>
</g>
<!-- Node4&#45;&gt;Node1 -->
<g id="edge3" class="edge"><title>Node4&#45;&gt;Node1</title>
<path fill="none" stroke="midnightblue" d="M280.831,-178.243C290.931,-152.189 307.349,-117.912 330.5,-94 350.819,-73.0137 379.526,-57.0988 403.298,-46.3884"/>
<polygon fill="none" stroke="midnightblue" points="277.486,-177.195 277.268,-187.787 284.044,-179.643 277.486,-177.195"/>
</g>
<!-- Node5 -->
<g id="node5" class="node"><title>Node5</title>
<polygon fill="none" stroke="#bfbfbf" points="340,-188 340,-245 435,-245 435,-188 340,-188"/>
<text text-anchor="middle" x="387.5" y="-233" font-family="Helvetica,sans-Serif" font-size="10.00">IPointerUpHandler</text>
<polyline fill="none" stroke="#bfbfbf" points="340,-226 435,-226 "/>
<text text-anchor="middle" x="387.5" y="-214" font-family="Helvetica,sans-Serif" font-size="10.00"> </text>
<polyline fill="none" stroke="#bfbfbf" points="340,-207 435,-207 "/>
<text text-anchor="middle" x="387.5" y="-195" font-family="Helvetica,sans-Serif" font-size="10.00"> </text>
</g>
<!-- Node5&#45;&gt;Node1 -->
<g id="edge4" class="edge"><title>Node5&#45;&gt;Node1</title>
<path fill="none" stroke="midnightblue" d="M399.374,-178.167C410.708,-142.532 427.523,-89.6661 437.703,-57.6577"/>
<polygon fill="none" stroke="midnightblue" points="396.029,-177.138 396.333,-187.729 402.699,-179.26 396.029,-177.138"/>
</g>
<!-- Node6 -->
<g id="node6" class="node"><title>Node6</title>
<polygon fill="none" stroke="#bfbfbf" points="453.5,-188 453.5,-245 559.5,-245 559.5,-188 453.5,-188"/>
<text text-anchor="middle" x="506.5" y="-233" font-family="Helvetica,sans-Serif" font-size="10.00">IPointerEnterHandler</text>
<polyline fill="none" stroke="#bfbfbf" points="453.5,-226 559.5,-226 "/>
<text text-anchor="middle" x="506.5" y="-214" font-family="Helvetica,sans-Serif" font-size="10.00"> </text>
<polyline fill="none" stroke="#bfbfbf" points="453.5,-207 559.5,-207 "/>
<text text-anchor="middle" x="506.5" y="-195" font-family="Helvetica,sans-Serif" font-size="10.00"> </text>
</g>
<!-- Node6&#45;&gt;Node1 -->
<g id="edge5" class="edge"><title>Node6&#45;&gt;Node1</title>
<path fill="none" stroke="midnightblue" d="M494.425,-178.167C482.899,-142.532 465.799,-89.6661 455.446,-57.6577"/>
<polygon fill="none" stroke="midnightblue" points="491.11,-179.291 497.517,-187.729 497.77,-177.137 491.11,-179.291"/>
</g>
<!-- Node7 -->
<g id="node7" class="node"><title>Node7</title>
<polygon fill="none" stroke="#bfbfbf" points="577.5,-188 577.5,-245 677.5,-245 677.5,-188 577.5,-188"/>
<text text-anchor="middle" x="627.5" y="-233" font-family="Helvetica,sans-Serif" font-size="10.00">IPointerExitHandler</text>
<polyline fill="none" stroke="#bfbfbf" points="577.5,-226 677.5,-226 "/>
<text text-anchor="middle" x="627.5" y="-214" font-family="Helvetica,sans-Serif" font-size="10.00"> </text>
<polyline fill="none" stroke="#bfbfbf" points="577.5,-207 677.5,-207 "/>
<text text-anchor="middle" x="627.5" y="-195" font-family="Helvetica,sans-Serif" font-size="10.00"> </text>
</g>
<!-- Node7&#45;&gt;Node1 -->
<g id="edge6" class="edge"><title>Node7&#45;&gt;Node1</title>
<path fill="none" stroke="midnightblue" d="M616.408,-178.338C607.072,-152.181 591.511,-117.738 568.5,-94 546.691,-71.503 515.256,-55.2715 489.757,-44.7841"/>
<polygon fill="none" stroke="midnightblue" points="613.137,-179.589 619.685,-187.918 619.76,-177.324 613.137,-179.589"/>
</g>
<!-- Node8 -->
<g id="node8" class="node"><title>Node8</title>
<polygon fill="none" stroke="#bfbfbf" points="695.5,-188 695.5,-245 799.5,-245 799.5,-188 695.5,-188"/>
<text text-anchor="middle" x="747.5" y="-233" font-family="Helvetica,sans-Serif" font-size="10.00">IPointerClickHandler</text>
<polyline fill="none" stroke="#bfbfbf" points="695.5,-226 799.5,-226 "/>
<text text-anchor="middle" x="747.5" y="-214" font-family="Helvetica,sans-Serif" font-size="10.00"> </text>
<polyline fill="none" stroke="#bfbfbf" points="695.5,-207 799.5,-207 "/>
<text text-anchor="middle" x="747.5" y="-195" font-family="Helvetica,sans-Serif" font-size="10.00"> </text>
</g>
<!-- Node8&#45;&gt;Node1 -->
<g id="edge7" class="edge"><title>Node8&#45;&gt;Node1</title>
<path fill="none" stroke="midnightblue" d="M737.796,-178.307C728.832,-151.133 712.833,-115.428 686.5,-94 629.471,-47.5941 541.948,-34.6134 489.847,-31.1191"/>
<polygon fill="none" stroke="midnightblue" points="734.467,-179.387 740.787,-187.89 741.149,-177.301 734.467,-179.387"/>
</g>
</g>
</svg>
