<?xml version="1.0" encoding="UTF-8" standalone="no"?>
<!DOCTYPE svg PUBLIC "-//W3C//DTD SVG 1.1//EN"
 "http://www.w3.org/Graphics/SVG/1.1/DTD/svg11.dtd">
<!-- Generated by graphviz version 2.38.0 (20140413.2041)
 -->
<!-- Title: WGBBase Pages: 1 -->
<!--zoomable 727 -->
<svg id="main" version="1.1" xmlns="http://www.w3.org/2000/svg" xmlns:xlink="http://www.w3.org/1999/xlink" xml:space="preserve" onload="init(evt)">
<style type="text/css"><![CDATA[
.edge:hover path { stroke: red; }
.edge:hover polygon { stroke: red; fill: red; }
]]></style>
<script type="text/javascript"><![CDATA[
var edges = document.getElementsByTagName('g');
if (edges && edges.length) {
  for (var i=0;i<edges.length;i++) {
    if (edges[i].id.substr(0,4)=='edge') {
      edges[i].setAttribute('class','edge');
    }
  }
}
]]></script>
        <defs>
                <circle id="rim" cx="0" cy="0" r="7"/>
                <circle id="rim2" cx="0" cy="0" r="3.5"/>
                <g id="zoomPlus">
                        <use xlink:href="#rim" fill="#404040">
                                <set attributeName="fill" to="#808080" begin="zoomplus.mouseover" end="zoomplus.mouseout"/>
                        </use>
                        <path d="M-4,0h8M0,-4v8" fill="none" stroke="white" stroke-width="1.5" pointer-events="none"/>
                </g>
                <g id="zoomMin">
                        <use xlink:href="#rim" fill="#404040">
                                <set attributeName="fill" to="#808080" begin="zoomminus.mouseover" end="zoomminus.mouseout"/>
                        </use>
                        <path d="M-4,0h8" fill="none" stroke="white" stroke-width="1.5" pointer-events="none"/>
                </g>
                <g id="dirArrow">
                        <path fill="none" stroke="white" stroke-width="1.5" d="M0,-3.0v7 M-2.5,-0.5L0,-3.0L2.5,-0.5"/>
                </g>
               <g id="resetDef">
                       <use xlink:href="#rim2" fill="#404040">
                               <set attributeName="fill" to="#808080" begin="reset.mouseover" end="reset.mouseout"/>
                       </use>
               </g>
        </defs>

<script type="text/javascript">
var viewWidth = 2419;
var viewHeight = 727;
var sectionId = 'dynsection-0';
</script>
<script xlink:href="svgpan.js"/>
<svg id="graph" class="graph">
<g id="viewport">
<title>WGBBase</title>
<!-- Node1 -->
<g id="node1" class="node"><title>Node1</title>
<polygon fill="#bfbfbf" stroke="black" points="1190.5,-380.5 1190.5,-624.5 1387.5,-624.5 1387.5,-380.5 1190.5,-380.5"/>
<text text-anchor="middle" x="1289" y="-612.5" font-family="Helvetica,sans-Serif" font-size="10.00">WGBBase</text>
<polyline fill="none" stroke="black" points="1190.5,-605.5 1387.5,-605.5 "/>
<text text-anchor="start" x="1198.5" y="-593.5" font-family="Helvetica,sans-Serif" font-size="10.00">+ userData</text>
<polyline fill="none" stroke="black" points="1190.5,-586.5 1387.5,-586.5 "/>
<text text-anchor="start" x="1198.5" y="-574.5" font-family="Helvetica,sans-Serif" font-size="10.00">+ GetComponentFromInterface&lt; T &gt;()</text>
<text text-anchor="start" x="1198.5" y="-563.5" font-family="Helvetica,sans-Serif" font-size="10.00">+ GetComponentInChildrenFrom</text>
<text text-anchor="start" x="1198.5" y="-552.5" font-family="Helvetica,sans-Serif" font-size="10.00">Interface&lt; T &gt;()</text>
<text text-anchor="start" x="1198.5" y="-541.5" font-family="Helvetica,sans-Serif" font-size="10.00">+ GetComponentsFromInterface&lt; T &gt;()</text>
<text text-anchor="start" x="1198.5" y="-530.5" font-family="Helvetica,sans-Serif" font-size="10.00">+ GetComponentsInChildrenFrom</text>
<text text-anchor="start" x="1198.5" y="-519.5" font-family="Helvetica,sans-Serif" font-size="10.00">Interface&lt; T &gt;()</text>
<text text-anchor="start" x="1198.5" y="-508.5" font-family="Helvetica,sans-Serif" font-size="10.00">+ FindObjectOfTypeFromInterface&lt; T &gt;()</text>
<text text-anchor="start" x="1198.5" y="-497.5" font-family="Helvetica,sans-Serif" font-size="10.00">+ FindObjectsOfTypeFromInterface&lt; T &gt;()</text>
<text text-anchor="start" x="1198.5" y="-486.5" font-family="Helvetica,sans-Serif" font-size="10.00">+ InstantiateFromInterface&lt; T &gt;()</text>
<text text-anchor="start" x="1198.5" y="-475.5" font-family="Helvetica,sans-Serif" font-size="10.00">+ InstantiateFromInterface&lt; T &gt;()</text>
<text text-anchor="start" x="1198.5" y="-464.5" font-family="Helvetica,sans-Serif" font-size="10.00">+ Log()</text>
<text text-anchor="start" x="1198.5" y="-453.5" font-family="Helvetica,sans-Serif" font-size="10.00">+ Log()</text>
<text text-anchor="start" x="1198.5" y="-442.5" font-family="Helvetica,sans-Serif" font-size="10.00">+ LogError()</text>
<text text-anchor="start" x="1198.5" y="-431.5" font-family="Helvetica,sans-Serif" font-size="10.00">+ LogError()</text>
<text text-anchor="start" x="1198.5" y="-420.5" font-family="Helvetica,sans-Serif" font-size="10.00">+ LogException()</text>
<text text-anchor="start" x="1198.5" y="-409.5" font-family="Helvetica,sans-Serif" font-size="10.00">+ LogException()</text>
<text text-anchor="start" x="1198.5" y="-398.5" font-family="Helvetica,sans-Serif" font-size="10.00">+ LogWarning()</text>
<text text-anchor="start" x="1198.5" y="-387.5" font-family="Helvetica,sans-Serif" font-size="10.00">+ LogWarning()</text>
</g>
<!-- Node3 -->
<g id="node3" class="node"><title>Node3</title>
<g id="a_node3"><a xlink:href="class_thinksquirrel_1_1_word_game_builder_1_1_gameplay_1_1_tile_pool.html" target="_top" xlink:title="A class that manages an instance pool of letter tiles. ">
<polygon fill="none" stroke="black" points="0,-28 0,-316 116,-316 116,-28 0,-28"/>
<text text-anchor="middle" x="58" y="-304" font-family="Helvetica,sans-Serif" font-size="10.00">TilePool</text>
<polyline fill="none" stroke="black" points="0,-297 116,-297 "/>
<text text-anchor="start" x="8" y="-285" font-family="Helvetica,sans-Serif" font-size="10.00">+ blankLetterCount</text>
<text text-anchor="start" x="8" y="-274" font-family="Helvetica,sans-Serif" font-size="10.00">+ Count</text>
<text text-anchor="start" x="8" y="-263" font-family="Helvetica,sans-Serif" font-size="10.00">+ IsReadOnly</text>
<text text-anchor="start" x="8" y="-252" font-family="Helvetica,sans-Serif" font-size="10.00">+ language</text>
<text text-anchor="start" x="8" y="-241" font-family="Helvetica,sans-Serif" font-size="10.00">+ languageIdentifier</text>
<text text-anchor="start" x="8" y="-230" font-family="Helvetica,sans-Serif" font-size="10.00">+ lastDistributionCount</text>
<text text-anchor="start" x="8" y="-219" font-family="Helvetica,sans-Serif" font-size="10.00">+ onTileDistribution</text>
<text text-anchor="start" x="8" y="-208" font-family="Helvetica,sans-Serif" font-size="10.00">+ poolMultiplier</text>
<text text-anchor="start" x="8" y="-197" font-family="Helvetica,sans-Serif" font-size="10.00">+ this[int index]</text>
<text text-anchor="start" x="8" y="-186" font-family="Helvetica,sans-Serif" font-size="10.00">+ tileDistribution</text>
<text text-anchor="start" x="8" y="-175" font-family="Helvetica,sans-Serif" font-size="10.00">+ tileDistributionCount</text>
<text text-anchor="start" x="8" y="-164" font-family="Helvetica,sans-Serif" font-size="10.00">+ tilePrefab</text>
<polyline fill="none" stroke="black" points="0,-157 116,-157 "/>
<text text-anchor="start" x="8" y="-145" font-family="Helvetica,sans-Serif" font-size="10.00">+ Add()</text>
<text text-anchor="start" x="8" y="-134" font-family="Helvetica,sans-Serif" font-size="10.00">+ AddLetter()</text>
<text text-anchor="start" x="8" y="-123" font-family="Helvetica,sans-Serif" font-size="10.00">+ Clear()</text>
<text text-anchor="start" x="8" y="-112" font-family="Helvetica,sans-Serif" font-size="10.00">+ Contains()</text>
<text text-anchor="start" x="8" y="-101" font-family="Helvetica,sans-Serif" font-size="10.00">+ Contains()</text>
<text text-anchor="start" x="8" y="-90" font-family="Helvetica,sans-Serif" font-size="10.00">+ CopyTo()</text>
<text text-anchor="start" x="8" y="-79" font-family="Helvetica,sans-Serif" font-size="10.00">+ CreateTile()</text>
<text text-anchor="start" x="8" y="-68" font-family="Helvetica,sans-Serif" font-size="10.00">+ CreateTilePool()</text>
<text text-anchor="start" x="8" y="-57" font-family="Helvetica,sans-Serif" font-size="10.00">+ CreateTilePool()</text>
<text text-anchor="start" x="8" y="-46" font-family="Helvetica,sans-Serif" font-size="10.00">+ DestroyAllTiles()</text>
<text text-anchor="start" x="8" y="-35" font-family="Helvetica,sans-Serif" font-size="10.00">and 20 more...</text>
</a>
</g>
</g>
<!-- Node1&#45;&gt;Node3 -->
<g id="edge2" class="edge"><title>Node1&#45;&gt;Node3</title>
<path fill="none" stroke="midnightblue" d="M1180.12,-500.472C923.004,-495.933 287.592,-471.741 125,-344 115.096,-336.219 106.654,-326.768 99.4573,-316.348"/>
<polygon fill="none" stroke="midnightblue" points="1180.16,-503.973 1190.22,-500.643 1180.28,-496.974 1180.16,-503.973"/>
</g>
<!-- Node4 -->
<g id="node4" class="node"><title>Node4</title>
<g id="a_node4"><a xlink:href="class_thinksquirrel_1_1_word_game_builder_1_1_gameplay_1_1_wildcard_tile_manager.html" target="_top" xlink:title="A manager class for selecting wildcard tiles. ">
<polygon fill="none" stroke="black" points="134.5,-143.5 134.5,-200.5 251.5,-200.5 251.5,-143.5 134.5,-143.5"/>
<text text-anchor="middle" x="193" y="-188.5" font-family="Helvetica,sans-Serif" font-size="10.00">WildcardTileManager</text>
<polyline fill="none" stroke="black" points="134.5,-181.5 251.5,-181.5 "/>
<text text-anchor="start" x="142.5" y="-169.5" font-family="Helvetica,sans-Serif" font-size="10.00">+ onWildcardTileSelect</text>
<polyline fill="none" stroke="black" points="134.5,-162.5 251.5,-162.5 "/>
<text text-anchor="start" x="142.5" y="-150.5" font-family="Helvetica,sans-Serif" font-size="10.00">+ SelectWildcardTile()</text>
</a>
</g>
</g>
<!-- Node1&#45;&gt;Node4 -->
<g id="edge3" class="edge"><title>Node1&#45;&gt;Node4</title>
<path fill="none" stroke="midnightblue" d="M1180.14,-498.28C945.22,-489.242 400.547,-456.411 260,-344 215.553,-308.451 200.515,-239.339 195.483,-200.753"/>
<polygon fill="none" stroke="midnightblue" points="1180.29,-501.788 1190.41,-498.667 1180.55,-494.793 1180.29,-501.788"/>
</g>
<!-- Node5 -->
<g id="node5" class="node"><title>Node5</title>
<g id="a_node5"><a xlink:href="class_thinksquirrel_1_1_word_game_builder_1_1_gameplay_1_1_word_game_agent.html" target="_top" xlink:title="Represents a word game AI agent. The agent is multithreaded and supports automatic selection/submissi...">
<polygon fill="none" stroke="black" points="269.5,-72 269.5,-272 398.5,-272 398.5,-72 269.5,-72"/>
<text text-anchor="middle" x="334" y="-260" font-family="Helvetica,sans-Serif" font-size="10.00">WordGameAgent</text>
<polyline fill="none" stroke="black" points="269.5,-253 398.5,-253 "/>
<text text-anchor="start" x="277.5" y="-241" font-family="Helvetica,sans-Serif" font-size="10.00">+ autoSelectTime</text>
<text text-anchor="start" x="277.5" y="-230" font-family="Helvetica,sans-Serif" font-size="10.00">+ autoSelectWord</text>
<text text-anchor="start" x="277.5" y="-219" font-family="Helvetica,sans-Serif" font-size="10.00">+ autoSubmitTime</text>
<text text-anchor="start" x="277.5" y="-208" font-family="Helvetica,sans-Serif" font-size="10.00">+ autoSubmitWord</text>
<text text-anchor="start" x="277.5" y="-197" font-family="Helvetica,sans-Serif" font-size="10.00">+ bias</text>
<text text-anchor="start" x="277.5" y="-186" font-family="Helvetica,sans-Serif" font-size="10.00">+ customWildcardScore</text>
<text text-anchor="start" x="277.5" y="-175" font-family="Helvetica,sans-Serif" font-size="10.00">+ customWildcardScores</text>
<text text-anchor="start" x="277.5" y="-164" font-family="Helvetica,sans-Serif" font-size="10.00">+ customWildcardScoring</text>
<text text-anchor="start" x="277.5" y="-153" font-family="Helvetica,sans-Serif" font-size="10.00">+ ignorePlayerInputState</text>
<text text-anchor="start" x="277.5" y="-142" font-family="Helvetica,sans-Serif" font-size="10.00">+ lastSearchInfo</text>
<text text-anchor="start" x="277.5" y="-131" font-family="Helvetica,sans-Serif" font-size="10.00">and 9 more...</text>
<polyline fill="none" stroke="black" points="269.5,-124 398.5,-124 "/>
<text text-anchor="start" x="277.5" y="-112" font-family="Helvetica,sans-Serif" font-size="10.00">+ FindWords()</text>
<text text-anchor="start" x="277.5" y="-101" font-family="Helvetica,sans-Serif" font-size="10.00">+ FindWords()</text>
<text text-anchor="start" x="277.5" y="-90" font-family="Helvetica,sans-Serif" font-size="10.00">+ FindWords()</text>
<text text-anchor="start" x="277.5" y="-79" font-family="Helvetica,sans-Serif" font-size="10.00">+ Stop()</text>
</a>
</g>
</g>
<!-- Node1&#45;&gt;Node5 -->
<g id="edge4" class="edge"><title>Node1&#45;&gt;Node5</title>
<path fill="none" stroke="midnightblue" d="M1180.43,-494.767C972.071,-479.847 526.286,-437.644 408,-344 385.047,-325.829 369.075,-299.135 358.016,-272.215"/>
<polygon fill="none" stroke="midnightblue" points="1180.25,-498.263 1190.47,-495.478 1180.74,-491.28 1180.25,-498.263"/>
</g>
<!-- Node6 -->
<g id="node6" class="node"><title>Node6</title>
<g id="a_node6"><a xlink:href="class_thinksquirrel_1_1_word_game_builder_1_1_gameplay_1_1_word_game_player.html" target="_top" xlink:title="Represents a word game player. It tracks scores, holds tiles, and can be controlled by an AI agent...">
<polygon fill="none" stroke="black" points="417,-0.5 417,-343.5 539,-343.5 539,-0.5 417,-0.5"/>
<text text-anchor="middle" x="478" y="-331.5" font-family="Helvetica,sans-Serif" font-size="10.00">WordGamePlayer</text>
<polyline fill="none" stroke="black" points="417,-324.5 539,-324.5 "/>
<text text-anchor="start" x="425" y="-312.5" font-family="Helvetica,sans-Serif" font-size="10.00">+ bestWord</text>
<text text-anchor="start" x="425" y="-301.5" font-family="Helvetica,sans-Serif" font-size="10.00">+ bestWordScore</text>
<text text-anchor="start" x="425" y="-290.5" font-family="Helvetica,sans-Serif" font-size="10.00">+ heldTiles</text>
<text text-anchor="start" x="425" y="-279.5" font-family="Helvetica,sans-Serif" font-size="10.00">+ highScore</text>
<text text-anchor="start" x="425" y="-268.5" font-family="Helvetica,sans-Serif" font-size="10.00">+ inputEnabled</text>
<text text-anchor="start" x="425" y="-257.5" font-family="Helvetica,sans-Serif" font-size="10.00">+ lastPenalty</text>
<text text-anchor="start" x="425" y="-246.5" font-family="Helvetica,sans-Serif" font-size="10.00">+ lastResult</text>
<text text-anchor="start" x="425" y="-235.5" font-family="Helvetica,sans-Serif" font-size="10.00">+ lastWord</text>
<text text-anchor="start" x="425" y="-224.5" font-family="Helvetica,sans-Serif" font-size="10.00">+ lastWordScore</text>
<text text-anchor="start" x="425" y="-213.5" font-family="Helvetica,sans-Serif" font-size="10.00">+ maxTiles</text>
<text text-anchor="start" x="425" y="-202.5" font-family="Helvetica,sans-Serif" font-size="10.00">and 11 more...</text>
<polyline fill="none" stroke="black" points="417,-195.5 539,-195.5 "/>
<text text-anchor="start" x="425" y="-183.5" font-family="Helvetica,sans-Serif" font-size="10.00">+ ClearSelection()</text>
<text text-anchor="start" x="425" y="-172.5" font-family="Helvetica,sans-Serif" font-size="10.00">+ DeselectTile()</text>
<text text-anchor="start" x="425" y="-161.5" font-family="Helvetica,sans-Serif" font-size="10.00">+ Initialize()</text>
<text text-anchor="start" x="425" y="-150.5" font-family="Helvetica,sans-Serif" font-size="10.00">+ ResetAllData()</text>
<text text-anchor="start" x="425" y="-139.5" font-family="Helvetica,sans-Serif" font-size="10.00">+ ResetAllScores()</text>
<text text-anchor="start" x="425" y="-128.5" font-family="Helvetica,sans-Serif" font-size="10.00">+ ResetBestWord()</text>
<text text-anchor="start" x="425" y="-117.5" font-family="Helvetica,sans-Serif" font-size="10.00">+ ResetHighScore()</text>
<text text-anchor="start" x="425" y="-106.5" font-family="Helvetica,sans-Serif" font-size="10.00">+ ResetLastPenalty()</text>
<text text-anchor="start" x="425" y="-95.5" font-family="Helvetica,sans-Serif" font-size="10.00">+ ResetLastWord()</text>
<text text-anchor="start" x="425" y="-84.5" font-family="Helvetica,sans-Serif" font-size="10.00">+ ResetPreviousWords()</text>
<text text-anchor="start" x="425" y="-73.5" font-family="Helvetica,sans-Serif" font-size="10.00">+ ResetScore()</text>
<text text-anchor="start" x="425" y="-62.5" font-family="Helvetica,sans-Serif" font-size="10.00">+ SelectTile()</text>
<text text-anchor="start" x="425" y="-51.5" font-family="Helvetica,sans-Serif" font-size="10.00">+ SubmitWord()</text>
<text text-anchor="start" x="425" y="-40.5" font-family="Helvetica,sans-Serif" font-size="10.00">+ SubmitWord()</text>
<text text-anchor="start" x="425" y="-29.5" font-family="Helvetica,sans-Serif" font-size="10.00">+ SubmitWord()</text>
<text text-anchor="start" x="425" y="-18.5" font-family="Helvetica,sans-Serif" font-size="10.00">+ FindPlayer()</text>
<text text-anchor="start" x="425" y="-7.5" font-family="Helvetica,sans-Serif" font-size="10.00">+ GetAllPlayers()</text>
</a>
</g>
</g>
<!-- Node1&#45;&gt;Node6 -->
<g id="edge5" class="edge"><title>Node1&#45;&gt;Node6</title>
<path fill="none" stroke="midnightblue" d="M1180.21,-490.862C998.297,-471.078 642.922,-423.279 548,-344 544.922,-341.43 541.978,-338.702 539.162,-335.84"/>
<polygon fill="none" stroke="midnightblue" points="1180.03,-494.362 1190.34,-491.954 1180.78,-487.403 1180.03,-494.362"/>
</g>
<!-- Node7 -->
<g id="node7" class="node"><title>Node7</title>
<g id="a_node7"><a xlink:href="class_thinksquirrel_1_1_word_game_builder_1_1_tiles_1_1_daikon_forge_1_1_letter_tile_daikon_forge_control.html" target="_top" xlink:title="Adds Daikon Forge GUI display to a letter tile. ">
<polygon fill="none" stroke="black" points="557,-132.5 557,-211.5 699,-211.5 699,-132.5 557,-132.5"/>
<text text-anchor="middle" x="628" y="-199.5" font-family="Helvetica,sans-Serif" font-size="10.00">LetterTileDaikonForgeControl</text>
<polyline fill="none" stroke="black" points="557,-192.5 699,-192.5 "/>
<text text-anchor="start" x="565" y="-180.5" font-family="Helvetica,sans-Serif" font-size="10.00">+ controls</text>
<text text-anchor="start" x="565" y="-169.5" font-family="Helvetica,sans-Serif" font-size="10.00">+ letterLabel</text>
<text text-anchor="start" x="565" y="-158.5" font-family="Helvetica,sans-Serif" font-size="10.00">+ scoreLabel</text>
<polyline fill="none" stroke="black" points="557,-151.5 699,-151.5 "/>
<text text-anchor="middle" x="628" y="-139.5" font-family="Helvetica,sans-Serif" font-size="10.00"> </text>
</a>
</g>
</g>
<!-- Node1&#45;&gt;Node7 -->
<g id="edge6" class="edge"><title>Node1&#45;&gt;Node7</title>
<path fill="none" stroke="midnightblue" d="M1180.25,-498.675C1053.22,-489.898 843.241,-457.673 708,-344 667.48,-309.942 646.246,-250.8 636.091,-211.778"/>
<polygon fill="none" stroke="midnightblue" points="1180.18,-502.178 1190.39,-499.338 1180.64,-495.193 1180.18,-502.178"/>
</g>
<!-- Node8 -->
<g id="node8" class="node"><title>Node8</title>
<g id="a_node8"><a xlink:href="class_thinksquirrel_1_1_word_game_builder_1_1_tiles_1_1_daikon_forge_1_1_letter_tile_daikon_forge_input.html" target="_top" xlink:title="Adds input control to a letter tile, using DF&#45;GUI&#39;s events. ">
<polygon fill="none" stroke="black" points="717,-143.5 717,-200.5 849,-200.5 849,-143.5 717,-143.5"/>
<text text-anchor="middle" x="783" y="-188.5" font-family="Helvetica,sans-Serif" font-size="10.00">LetterTileDaikonForgeInput</text>
<polyline fill="none" stroke="black" points="717,-181.5 849,-181.5 "/>
<text text-anchor="middle" x="783" y="-169.5" font-family="Helvetica,sans-Serif" font-size="10.00"> </text>
<polyline fill="none" stroke="black" points="717,-162.5 849,-162.5 "/>
<text text-anchor="middle" x="783" y="-150.5" font-family="Helvetica,sans-Serif" font-size="10.00"> </text>
</a>
</g>
</g>
<!-- Node1&#45;&gt;Node8 -->
<g id="edge7" class="edge"><title>Node1&#45;&gt;Node8</title>
<path fill="none" stroke="midnightblue" d="M1180.49,-486.339C1084.9,-467.815 947.328,-427.872 858,-344 816.17,-304.725 796.33,-238.014 788.068,-200.582"/>
<polygon fill="none" stroke="midnightblue" points="1180.01,-489.809 1190.48,-488.227 1181.31,-482.931 1180.01,-489.809"/>
</g>
<!-- Node9 -->
<g id="node9" class="node"><title>Node9</title>
<g id="a_node9"><a xlink:href="class_thinksquirrel_1_1_word_game_builder_1_1_tiles_1_1_letter_tile.html" target="_top" xlink:title="A standard letter tile. Includes support for selection, wildcard tiles, multiple colors, input, and state querying. ">
<polygon fill="none" stroke="black" points="867.5,-33.5 867.5,-310.5 1016.5,-310.5 1016.5,-33.5 867.5,-33.5"/>
<text text-anchor="middle" x="942" y="-298.5" font-family="Helvetica,sans-Serif" font-size="10.00">LetterTile</text>
<polyline fill="none" stroke="black" points="867.5,-291.5 1016.5,-291.5 "/>
<text text-anchor="start" x="875.5" y="-279.5" font-family="Helvetica,sans-Serif" font-size="10.00">+ colorInfo</text>
<text text-anchor="start" x="875.5" y="-268.5" font-family="Helvetica,sans-Serif" font-size="10.00">+ currentBackgroundColor</text>
<text text-anchor="start" x="875.5" y="-257.5" font-family="Helvetica,sans-Serif" font-size="10.00">+ currentBackgroundColorRaw</text>
<text text-anchor="start" x="875.5" y="-246.5" font-family="Helvetica,sans-Serif" font-size="10.00">+ currentChange</text>
<text text-anchor="start" x="875.5" y="-235.5" font-family="Helvetica,sans-Serif" font-size="10.00">+ currentLetter</text>
<text text-anchor="start" x="875.5" y="-224.5" font-family="Helvetica,sans-Serif" font-size="10.00">+ currentLetterLabel</text>
<text text-anchor="start" x="875.5" y="-213.5" font-family="Helvetica,sans-Serif" font-size="10.00">+ currentPointValue</text>
<text text-anchor="start" x="875.5" y="-202.5" font-family="Helvetica,sans-Serif" font-size="10.00">+ currentScoreLabel</text>
<text text-anchor="start" x="875.5" y="-191.5" font-family="Helvetica,sans-Serif" font-size="10.00">+ currentTextColor</text>
<text text-anchor="start" x="875.5" y="-180.5" font-family="Helvetica,sans-Serif" font-size="10.00">+ currentTextColorRaw</text>
<text text-anchor="start" x="875.5" y="-169.5" font-family="Helvetica,sans-Serif" font-size="10.00">and 20 more...</text>
<polyline fill="none" stroke="black" points="867.5,-162.5 1016.5,-162.5 "/>
<text text-anchor="start" x="875.5" y="-150.5" font-family="Helvetica,sans-Serif" font-size="10.00">+ CanSelectTile()</text>
<text text-anchor="start" x="875.5" y="-139.5" font-family="Helvetica,sans-Serif" font-size="10.00">+ CanSelectTile()</text>
<text text-anchor="start" x="875.5" y="-128.5" font-family="Helvetica,sans-Serif" font-size="10.00">+ ChangeDefaultLetter()</text>
<text text-anchor="start" x="875.5" y="-117.5" font-family="Helvetica,sans-Serif" font-size="10.00">+ ChangeDefaultLetter()</text>
<text text-anchor="start" x="875.5" y="-106.5" font-family="Helvetica,sans-Serif" font-size="10.00">+ ChangeDefaultLetter()</text>
<text text-anchor="start" x="875.5" y="-95.5" font-family="Helvetica,sans-Serif" font-size="10.00">+ DeselectTile()</text>
<text text-anchor="start" x="875.5" y="-84.5" font-family="Helvetica,sans-Serif" font-size="10.00">+ DeselectTile()</text>
<text text-anchor="start" x="875.5" y="-73.5" font-family="Helvetica,sans-Serif" font-size="10.00">+ DespawnTile()</text>
<text text-anchor="start" x="875.5" y="-62.5" font-family="Helvetica,sans-Serif" font-size="10.00">+ ForceDeselectTile()</text>
<text text-anchor="start" x="875.5" y="-51.5" font-family="Helvetica,sans-Serif" font-size="10.00">+ ForceSelectTile()</text>
<text text-anchor="start" x="875.5" y="-40.5" font-family="Helvetica,sans-Serif" font-size="10.00">and 13 more...</text>
</a>
</g>
</g>
<!-- Node1&#45;&gt;Node9 -->
<g id="edge8" class="edge"><title>Node1&#45;&gt;Node9</title>
<path fill="none" stroke="midnightblue" d="M1181.37,-455.369C1129.07,-428.782 1068.32,-391.213 1025,-344 1015.74,-333.909 1007.3,-322.596 999.664,-310.722"/>
<polygon fill="none" stroke="midnightblue" points="1179.85,-458.522 1190.36,-459.873 1182.99,-452.264 1179.85,-458.522"/>
</g>
<!-- Node10 -->
<g id="node10" class="node"><title>Node10</title>
<g id="a_node10"><a xlink:href="class_thinksquirrel_1_1_word_game_builder_1_1_tiles_1_1_letter_tile_animation.html" target="_top" xlink:title="Adds animation to a letter tile. ">
<polygon fill="none" stroke="black" points="1034.5,-121.5 1034.5,-222.5 1151.5,-222.5 1151.5,-121.5 1034.5,-121.5"/>
<text text-anchor="middle" x="1093" y="-210.5" font-family="Helvetica,sans-Serif" font-size="10.00">LetterTileAnimation</text>
<polyline fill="none" stroke="black" points="1034.5,-203.5 1151.5,-203.5 "/>
<text text-anchor="start" x="1042.5" y="-191.5" font-family="Helvetica,sans-Serif" font-size="10.00">+ changeAnimationClip</text>
<text text-anchor="start" x="1042.5" y="-180.5" font-family="Helvetica,sans-Serif" font-size="10.00">+ disableAnimationClip</text>
<text text-anchor="start" x="1042.5" y="-169.5" font-family="Helvetica,sans-Serif" font-size="10.00">+ enableAnimationClip</text>
<text text-anchor="start" x="1042.5" y="-158.5" font-family="Helvetica,sans-Serif" font-size="10.00">+ spawnAnimationClip</text>
<text text-anchor="start" x="1042.5" y="-147.5" font-family="Helvetica,sans-Serif" font-size="10.00">+ tileAnimation</text>
<polyline fill="none" stroke="black" points="1034.5,-140.5 1151.5,-140.5 "/>
<text text-anchor="middle" x="1093" y="-128.5" font-family="Helvetica,sans-Serif" font-size="10.00"> </text>
</a>
</g>
</g>
<!-- Node1&#45;&gt;Node10 -->
<g id="edge9" class="edge"><title>Node1&#45;&gt;Node10</title>
<path fill="none" stroke="midnightblue" d="M1184.51,-380.131C1176.08,-368.246 1168.1,-356.1 1161,-344 1138.37,-305.419 1120.16,-257.894 1108.29,-222.747"/>
<polygon fill="none" stroke="midnightblue" points="1181.72,-382.247 1190.41,-388.313 1187.4,-378.154 1181.72,-382.247"/>
</g>
<!-- Node11 -->
<g id="node11" class="node"><title>Node11</title>
<g id="a_node11"><a xlink:href="class_thinksquirrel_1_1_word_game_builder_1_1_tiles_1_1_letter_tile_color_control.html" target="_top" xlink:title="Automatically controls the color of objects based on a letter tile&#39;s state. ">
<polygon fill="none" stroke="black" points="1170,-132.5 1170,-211.5 1280,-211.5 1280,-132.5 1170,-132.5"/>
<text text-anchor="middle" x="1225" y="-199.5" font-family="Helvetica,sans-Serif" font-size="10.00">LetterTileColorControl</text>
<polyline fill="none" stroke="black" points="1170,-192.5 1280,-192.5 "/>
<text text-anchor="start" x="1178" y="-180.5" font-family="Helvetica,sans-Serif" font-size="10.00">+ background</text>
<text text-anchor="start" x="1178" y="-169.5" font-family="Helvetica,sans-Serif" font-size="10.00">+ colorProperties</text>
<text text-anchor="start" x="1178" y="-158.5" font-family="Helvetica,sans-Serif" font-size="10.00">+ text</text>
<polyline fill="none" stroke="black" points="1170,-151.5 1280,-151.5 "/>
<text text-anchor="middle" x="1225" y="-139.5" font-family="Helvetica,sans-Serif" font-size="10.00"> </text>
</a>
</g>
</g>
<!-- Node1&#45;&gt;Node11 -->
<g id="edge10" class="edge"><title>Node1&#45;&gt;Node11</title>
<path fill="none" stroke="midnightblue" d="M1263.43,-370.27C1252.32,-313.207 1240.12,-250.597 1232.51,-211.551"/>
<polygon fill="none" stroke="midnightblue" points="1260,-370.966 1265.35,-380.112 1266.87,-369.627 1260,-370.966"/>
</g>
<!-- Node12 -->
<g id="node12" class="node"><title>Node12</title>
<g id="a_node12"><a xlink:href="class_thinksquirrel_1_1_word_game_builder_1_1_tiles_1_1_letter_tile_label_control.html" target="_top" xlink:title="Automatically controls the text on objects based on a letter tile&#39;s state. ">
<polygon fill="none" stroke="black" points="1298,-138 1298,-206 1408,-206 1408,-138 1298,-138"/>
<text text-anchor="middle" x="1353" y="-194" font-family="Helvetica,sans-Serif" font-size="10.00">LetterTileLabelControl</text>
<polyline fill="none" stroke="black" points="1298,-187 1408,-187 "/>
<text text-anchor="start" x="1306" y="-175" font-family="Helvetica,sans-Serif" font-size="10.00">+ letterLabel</text>
<text text-anchor="start" x="1306" y="-164" font-family="Helvetica,sans-Serif" font-size="10.00">+ scoreLabel</text>
<polyline fill="none" stroke="black" points="1298,-157 1408,-157 "/>
<text text-anchor="middle" x="1353" y="-145" font-family="Helvetica,sans-Serif" font-size="10.00"> </text>
</a>
</g>
</g>
<!-- Node1&#45;&gt;Node12 -->
<g id="edge11" class="edge"><title>Node1&#45;&gt;Node12</title>
<path fill="none" stroke="midnightblue" d="M1314.58,-370.184C1326.24,-310.366 1339.08,-244.471 1346.57,-206.02"/>
<polygon fill="none" stroke="midnightblue" points="1311.13,-369.627 1312.65,-380.112 1318,-370.966 1311.13,-369.627"/>
</g>
<!-- Node13 -->
<g id="node13" class="node"><title>Node13</title>
<g id="a_node13"><a xlink:href="class_thinksquirrel_1_1_word_game_builder_1_1_tiles_1_1_letter_tile_mouse_input.html" target="_top" xlink:title="Adds input control to a letter tile, using Unity&#39;s OnMouse[...] methods. ">
<polygon fill="none" stroke="black" points="1426.5,-143.5 1426.5,-200.5 1533.5,-200.5 1533.5,-143.5 1426.5,-143.5"/>
<text text-anchor="middle" x="1480" y="-188.5" font-family="Helvetica,sans-Serif" font-size="10.00">LetterTileMouseInput</text>
<polyline fill="none" stroke="black" points="1426.5,-181.5 1533.5,-181.5 "/>
<text text-anchor="middle" x="1480" y="-169.5" font-family="Helvetica,sans-Serif" font-size="10.00"> </text>
<polyline fill="none" stroke="black" points="1426.5,-162.5 1533.5,-162.5 "/>
<text text-anchor="middle" x="1480" y="-150.5" font-family="Helvetica,sans-Serif" font-size="10.00"> </text>
</a>
</g>
</g>
<!-- Node1&#45;&gt;Node13 -->
<g id="edge12" class="edge"><title>Node1&#45;&gt;Node13</title>
<path fill="none" stroke="midnightblue" d="M1393.57,-380.687C1402.02,-368.646 1409.99,-356.314 1417,-344 1444.01,-296.576 1463.22,-235.422 1472.89,-200.573"/>
<polygon fill="none" stroke="midnightblue" points="1390.61,-378.802 1387.64,-388.973 1396.31,-382.872 1390.61,-378.802"/>
</g>
<!-- Node14 -->
<g id="node14" class="node"><title>Node14</title>
<g id="a_node14"><a xlink:href="class_thinksquirrel_1_1_word_game_builder_1_1_tiles_1_1_letter_tile_visibility_control.html" target="_top" xlink:title="Automatically controls the visibility of objects based on a letter tile&#39;s state. ">
<polygon fill="none" stroke="black" points="1552,-143.5 1552,-200.5 1676,-200.5 1676,-143.5 1552,-143.5"/>
<text text-anchor="middle" x="1614" y="-188.5" font-family="Helvetica,sans-Serif" font-size="10.00">LetterTileVisibilityControl</text>
<polyline fill="none" stroke="black" points="1552,-181.5 1676,-181.5 "/>
<text text-anchor="start" x="1560" y="-169.5" font-family="Helvetica,sans-Serif" font-size="10.00">+ objects</text>
<polyline fill="none" stroke="black" points="1552,-162.5 1676,-162.5 "/>
<text text-anchor="middle" x="1614" y="-150.5" font-family="Helvetica,sans-Serif" font-size="10.00"> </text>
</a>
</g>
</g>
<!-- Node1&#45;&gt;Node14 -->
<g id="edge13" class="edge"><title>Node1&#45;&gt;Node14</title>
<path fill="none" stroke="midnightblue" d="M1396.68,-453.991C1446.58,-427.553 1503.45,-390.52 1543,-344 1579.44,-301.144 1599.24,-236.972 1608.12,-200.653"/>
<polygon fill="none" stroke="midnightblue" points="1395.02,-450.91 1387.77,-458.638 1398.26,-457.116 1395.02,-450.91"/>
</g>
<!-- Node15 -->
<g id="node15" class="node"><title>Node15</title>
<g id="a_node15"><a xlink:href="class_thinksquirrel_1_1_word_game_builder_1_1_tiles_1_1_ngui_1_1_letter_tile_ngui_control.html" target="_top" xlink:title="Adds NGUI display to a letter tile. ">
<polygon fill="none" stroke="black" points="1694.5,-132.5 1694.5,-211.5 1801.5,-211.5 1801.5,-132.5 1694.5,-132.5"/>
<text text-anchor="middle" x="1748" y="-199.5" font-family="Helvetica,sans-Serif" font-size="10.00">LetterTileNguiControl</text>
<polyline fill="none" stroke="black" points="1694.5,-192.5 1801.5,-192.5 "/>
<text text-anchor="start" x="1702.5" y="-180.5" font-family="Helvetica,sans-Serif" font-size="10.00">+ letterLabel</text>
<text text-anchor="start" x="1702.5" y="-169.5" font-family="Helvetica,sans-Serif" font-size="10.00">+ scoreLabel</text>
<text text-anchor="start" x="1702.5" y="-158.5" font-family="Helvetica,sans-Serif" font-size="10.00">+ widgets</text>
<polyline fill="none" stroke="black" points="1694.5,-151.5 1801.5,-151.5 "/>
<text text-anchor="middle" x="1748" y="-139.5" font-family="Helvetica,sans-Serif" font-size="10.00"> </text>
</a>
</g>
</g>
<!-- Node1&#45;&gt;Node15 -->
<g id="edge14" class="edge"><title>Node1&#45;&gt;Node15</title>
<path fill="none" stroke="midnightblue" d="M1397.67,-483.49C1485.87,-463.562 1607.84,-423.154 1685,-344 1720.33,-307.751 1736.11,-250.016 1742.97,-211.813"/>
<polygon fill="none" stroke="midnightblue" points="1396.91,-480.073 1387.9,-485.645 1398.42,-486.909 1396.91,-480.073"/>
</g>
<!-- Node16 -->
<g id="node16" class="node"><title>Node16</title>
<g id="a_node16"><a xlink:href="class_thinksquirrel_1_1_word_game_builder_1_1_tiles_1_1_ngui_1_1_letter_tile_ngui_input.html" target="_top" xlink:title="Adds input control to a letter tile, using NGUI&#39;s OnPress/OnHover/OnClick methods. ">
<polygon fill="none" stroke="black" points="1819.5,-143.5 1819.5,-200.5 1916.5,-200.5 1916.5,-143.5 1819.5,-143.5"/>
<text text-anchor="middle" x="1868" y="-188.5" font-family="Helvetica,sans-Serif" font-size="10.00">LetterTileNguiInput</text>
<polyline fill="none" stroke="black" points="1819.5,-181.5 1916.5,-181.5 "/>
<text text-anchor="middle" x="1868" y="-169.5" font-family="Helvetica,sans-Serif" font-size="10.00"> </text>
<polyline fill="none" stroke="black" points="1819.5,-162.5 1916.5,-162.5 "/>
<text text-anchor="middle" x="1868" y="-150.5" font-family="Helvetica,sans-Serif" font-size="10.00"> </text>
</a>
</g>
</g>
<!-- Node1&#45;&gt;Node16 -->
<g id="edge15" class="edge"><title>Node1&#45;&gt;Node16</title>
<path fill="none" stroke="midnightblue" d="M1397.64,-497.194C1514.64,-486.788 1699.02,-452.808 1811,-344 1850.72,-305.4 1862.77,-238.431 1866.41,-200.775"/>
<polygon fill="none" stroke="midnightblue" points="1397.26,-493.714 1387.59,-498.045 1397.85,-500.689 1397.26,-493.714"/>
</g>
<!-- Node17 -->
<g id="node17" class="node"><title>Node17</title>
<g id="a_node17"><a xlink:href="class_thinksquirrel_1_1_word_game_builder_1_1_tiles_1_1_tk2_d_1_1_letter_tile_tk2_d_control.html" target="_top" xlink:title="Adds 2D Toolkit display to a letter tile. ">
<polygon fill="none" stroke="black" points="1935,-132.5 1935,-211.5 2045,-211.5 2045,-132.5 1935,-132.5"/>
<text text-anchor="middle" x="1990" y="-199.5" font-family="Helvetica,sans-Serif" font-size="10.00">LetterTileTk2DControl</text>
<polyline fill="none" stroke="black" points="1935,-192.5 2045,-192.5 "/>
<text text-anchor="start" x="1943" y="-180.5" font-family="Helvetica,sans-Serif" font-size="10.00">+ letterLabel</text>
<text text-anchor="start" x="1943" y="-169.5" font-family="Helvetica,sans-Serif" font-size="10.00">+ scoreLabel</text>
<text text-anchor="start" x="1943" y="-158.5" font-family="Helvetica,sans-Serif" font-size="10.00">+ sprites</text>
<polyline fill="none" stroke="black" points="1935,-151.5 2045,-151.5 "/>
<text text-anchor="middle" x="1990" y="-139.5" font-family="Helvetica,sans-Serif" font-size="10.00"> </text>
</a>
</g>
</g>
<!-- Node1&#45;&gt;Node17 -->
<g id="edge16" class="edge"><title>Node1&#45;&gt;Node17</title>
<path fill="none" stroke="midnightblue" d="M1397.68,-487.028C1558.3,-463.633 1848.45,-413.058 1926,-344 1964.23,-309.955 1979.7,-250.81 1985.9,-211.784"/>
<polygon fill="none" stroke="midnightblue" points="1397.17,-483.567 1387.77,-488.462 1398.17,-490.495 1397.17,-483.567"/>
</g>
<!-- Node18 -->
<g id="node18" class="node"><title>Node18</title>
<g id="a_node18"><a xlink:href="class_thinksquirrel_1_1_word_game_builder_1_1_tiles_1_1_tk2_d_1_1_letter_tile_tk2_d_input.html" target="_top" xlink:title="Adds input control to a letter tile, using 2D Toolkit&#39;s UI events. ">
<polygon fill="none" stroke="black" points="2063,-143.5 2063,-200.5 2163,-200.5 2163,-143.5 2063,-143.5"/>
<text text-anchor="middle" x="2113" y="-188.5" font-family="Helvetica,sans-Serif" font-size="10.00">LetterTileTk2DInput</text>
<polyline fill="none" stroke="black" points="2063,-181.5 2163,-181.5 "/>
<text text-anchor="start" x="2071" y="-169.5" font-family="Helvetica,sans-Serif" font-size="10.00">+ uiItem</text>
<polyline fill="none" stroke="black" points="2063,-162.5 2163,-162.5 "/>
<text text-anchor="middle" x="2113" y="-150.5" font-family="Helvetica,sans-Serif" font-size="10.00"> </text>
</a>
</g>
</g>
<!-- Node1&#45;&gt;Node18 -->
<g id="edge17" class="edge"><title>Node1&#45;&gt;Node18</title>
<path fill="none" stroke="midnightblue" d="M1397.83,-492.272C1585.1,-474.302 1957.53,-428.746 2054,-344 2096,-307.106 2108.12,-238.846 2111.6,-200.675"/>
<polygon fill="none" stroke="midnightblue" points="1397.31,-488.806 1387.68,-493.236 1397.97,-495.775 1397.31,-488.806"/>
</g>
<!-- Node19 -->
<g id="node19" class="node"><title>Node19</title>
<g id="a_node19"><a xlink:href="class_thinksquirrel_1_1_word_game_builder_1_1_tiles_1_1_u_i_1_1_letter_tile_u_i_input.html" target="_top" xlink:title="Adds input control to a letter tile, using Unity UI&#39;s pointer events. ">
<polygon fill="none" stroke="black" points="2181,-143.5 2181,-200.5 2267,-200.5 2267,-143.5 2181,-143.5"/>
<text text-anchor="middle" x="2224" y="-188.5" font-family="Helvetica,sans-Serif" font-size="10.00">LetterTileUIInput</text>
<polyline fill="none" stroke="black" points="2181,-181.5 2267,-181.5 "/>
<text text-anchor="middle" x="2224" y="-169.5" font-family="Helvetica,sans-Serif" font-size="10.00"> </text>
<polyline fill="none" stroke="black" points="2181,-162.5 2267,-162.5 "/>
<text text-anchor="middle" x="2224" y="-150.5" font-family="Helvetica,sans-Serif" font-size="10.00"> </text>
</a>
</g>
</g>
<!-- Node1&#45;&gt;Node19 -->
<g id="edge18" class="edge"><title>Node1&#45;&gt;Node19</title>
<path fill="none" stroke="midnightblue" d="M1397.98,-495.994C1608.16,-483.199 2058.79,-444.511 2172,-344 2213.3,-307.33 2222.31,-238.982 2223.96,-200.738"/>
<polygon fill="none" stroke="midnightblue" points="1397.62,-492.509 1387.85,-496.602 1398.04,-499.496 1397.62,-492.509"/>
</g>
<!-- Node20 -->
<g id="node20" class="node"><title>Node20</title>
<g id="a_node20"><a xlink:href="class_thinksquirrel_1_1_word_game_builder_example_1_1_example_game_logic.html" target="_top" xlink:title="This class is responsible for all game logic. ">
<polygon fill="none" stroke="black" points="2285.5,-127 2285.5,-217 2410.5,-217 2410.5,-127 2285.5,-127"/>
<text text-anchor="middle" x="2348" y="-205" font-family="Helvetica,sans-Serif" font-size="10.00">ExampleGameLogic</text>
<polyline fill="none" stroke="black" points="2285.5,-198 2410.5,-198 "/>
<text text-anchor="middle" x="2348" y="-186" font-family="Helvetica,sans-Serif" font-size="10.00"> </text>
<polyline fill="none" stroke="black" points="2285.5,-179 2410.5,-179 "/>
<text text-anchor="start" x="2293.5" y="-167" font-family="Helvetica,sans-Serif" font-size="10.00">+ OnAgentFindWords()</text>
<text text-anchor="start" x="2293.5" y="-156" font-family="Helvetica,sans-Serif" font-size="10.00">+ OnPlayerWordResult()</text>
<text text-anchor="start" x="2293.5" y="-145" font-family="Helvetica,sans-Serif" font-size="10.00">+ OnTileDistribution()</text>
<text text-anchor="start" x="2293.5" y="-134" font-family="Helvetica,sans-Serif" font-size="10.00">+ OnWildcardTileSelect()</text>
</a>
</g>
</g>
<!-- Node1&#45;&gt;Node20 -->
<g id="edge19" class="edge"><title>Node1&#45;&gt;Node20</title>
<path fill="none" stroke="midnightblue" d="M1397.79,-497.211C1625.19,-486.205 2140.96,-449.949 2276,-344 2315.41,-313.082 2333.51,-256.632 2341.64,-217.075"/>
<polygon fill="none" stroke="midnightblue" points="1397.33,-493.729 1387.51,-497.701 1397.67,-500.721 1397.33,-493.729"/>
</g>
<!-- Node2 -->
<g id="node2" class="node"><title>Node2</title>
<polygon fill="none" stroke="#bfbfbf" points="1247.5,-661.5 1247.5,-718.5 1330.5,-718.5 1330.5,-661.5 1247.5,-661.5"/>
<text text-anchor="middle" x="1289" y="-706.5" font-family="Helvetica,sans-Serif" font-size="10.00">MonoBehaviour</text>
<polyline fill="none" stroke="#bfbfbf" points="1247.5,-699.5 1330.5,-699.5 "/>
<text text-anchor="middle" x="1289" y="-687.5" font-family="Helvetica,sans-Serif" font-size="10.00"> </text>
<polyline fill="none" stroke="#bfbfbf" points="1247.5,-680.5 1330.5,-680.5 "/>
<text text-anchor="middle" x="1289" y="-668.5" font-family="Helvetica,sans-Serif" font-size="10.00"> </text>
</g>
<!-- Node2&#45;&gt;Node1 -->
<g id="edge1" class="edge"><title>Node2&#45;&gt;Node1</title>
<path fill="none" stroke="midnightblue" d="M1289,-651.139C1289,-643.055 1289,-634.101 1289,-624.718"/>
<polygon fill="none" stroke="midnightblue" points="1285.5,-651.229 1289,-661.229 1292.5,-651.229 1285.5,-651.229"/>
</g>
</g>
</svg>
        <g id="navigator" transform="translate(0 0)" fill="#404254">
                <rect fill="#f2f5e9" fill-opacity="0.5" stroke="#606060" stroke-width=".5" x="0" y="0" width="60" height="60"/>
                <use id="zoomplus" xlink:href="#zoomPlus" x="17" y="9" onmousedown="handleZoom(evt,'in')"/>
                <use id="zoomminus" xlink:href="#zoomMin" x="42" y="9" onmousedown="handleZoom(evt,'out')"/>
                <use id="reset" xlink:href="#resetDef" x="30" y="36" onmousedown="handleReset()"/>
                <g id="arrowUp" xlink:href="#dirArrow" transform="translate(30 24)" onmousedown="handlePan(0,-1)">
                  <use xlink:href="#rim" fill="#404040">
                        <set attributeName="fill" to="#808080" begin="arrowUp.mouseover" end="arrowUp.mouseout"/>
                  </use>
                  <path fill="none" stroke="white" stroke-width="1.5" d="M0,-3.0v7 M-2.5,-0.5L0,-3.0L2.5,-0.5"/>
                </g>
                <g id="arrowRight" xlink:href="#dirArrow" transform="rotate(90) translate(36 -43)" onmousedown="handlePan(1,0)">
                  <use xlink:href="#rim" fill="#404040">
                        <set attributeName="fill" to="#808080" begin="arrowRight.mouseover" end="arrowRight.mouseout"/>
                  </use>
                  <path fill="none" stroke="white" stroke-width="1.5" d="M0,-3.0v7 M-2.5,-0.5L0,-3.0L2.5,-0.5"/>
                </g>
                <g id="arrowDown" xlink:href="#dirArrow" transform="rotate(180) translate(-30 -48)" onmousedown="handlePan(0,1)">
                  <use xlink:href="#rim" fill="#404040">
                        <set attributeName="fill" to="#808080" begin="arrowDown.mouseover" end="arrowDown.mouseout"/>
                  </use>
                  <path fill="none" stroke="white" stroke-width="1.5" d="M0,-3.0v7 M-2.5,-0.5L0,-3.0L2.5,-0.5"/>
                </g>
                <g id="arrowLeft" xlink:href="#dirArrow" transform="rotate(270) translate(-36 17)" onmousedown="handlePan(-1,0)">
                  <use xlink:href="#rim" fill="#404040">
                        <set attributeName="fill" to="#808080" begin="arrowLeft.mouseover" end="arrowLeft.mouseout"/>
                  </use>
                  <path fill="none" stroke="white" stroke-width="1.5" d="M0,-3.0v7 M-2.5,-0.5L0,-3.0L2.5,-0.5"/>
                </g>
        </g>
        <svg viewBox="0 0 15 15" width="100%" height="30px" preserveAspectRatio="xMaxYMin meet">
         <g id="arrow_out" transform="scale(0.3 0.3)">
          <a xlink:href="class_thinksquirrel_1_1_word_game_builder_1_1_w_g_b_base__inherit__graph_org.svg" target="_base">
           <rect id="button" ry="5" rx="5" y="6" x="6" height="38" width="38"
                fill="#f2f5e9" fill-opacity="0.5" stroke="#606060" stroke-width="1.0"/>
           <path id="arrow"
             d="M 11.500037,31.436501 C 11.940474,20.09759 22.043105,11.32322 32.158766,21.979434 L 37.068811,17.246167 C 37.068811,17.246167 37.088388,32 37.088388,32 L 22.160133,31.978069 C 22.160133,31.978069 26.997745,27.140456 26.997745,27.140456 C 18.528582,18.264221 13.291696,25.230495 11.500037,31.436501 z"
             style="fill:#404040;"/>
          </a>
         </g>
        </svg>
</svg>
