<?xml version="1.0" encoding="UTF-8" standalone="no"?>
<!DOCTYPE svg PUBLIC "-//W3C//DTD SVG 1.1//EN"
 "http://www.w3.org/Graphics/SVG/1.1/DTD/svg11.dtd">
<!-- Generated by graphviz version 2.38.0 (20140413.2041)
 -->
<!-- Title: WildcardTileManager Pages: 1 -->
<svg width="340pt" height="639pt"
 viewBox="0.00 0.00 340.00 639.00" xmlns="http://www.w3.org/2000/svg" xmlns:xlink="http://www.w3.org/1999/xlink">
<g id="graph0" class="graph" transform="scale(1 1) rotate(0) translate(4 635)">
<title>WildcardTileManager</title>
<!-- Node1 -->
<g id="node1" class="node"><title>Node1</title>
<polygon fill="#bfbfbf" stroke="black" points="127,-0.5 127,-57.5 244,-57.5 244,-0.5 127,-0.5"/>
<text text-anchor="middle" x="185.5" y="-45.5" font-family="Helvetica,sans-Serif" font-size="10.00">WildcardTileManager</text>
<polyline fill="none" stroke="black" points="127,-38.5 244,-38.5 "/>
<text text-anchor="start" x="135" y="-26.5" font-family="Helvetica,sans-Serif" font-size="10.00">+ onWildcardTileSelect</text>
<polyline fill="none" stroke="black" points="127,-19.5 244,-19.5 "/>
<text text-anchor="start" x="135" y="-7.5" font-family="Helvetica,sans-Serif" font-size="10.00">+ SelectWildcardTile()</text>
</g>
<!-- Node2 -->
<g id="node2" class="node"><title>Node2</title>
<g id="a_node2"><a xlink:href="class_thinksquirrel_1_1_word_game_builder_1_1_w_g_b_base.html" target="_top" xlink:title="The base class for all Word Game Builder components. ">
<polygon fill="none" stroke="black" points="0,-94.5 0,-338.5 197,-338.5 197,-94.5 0,-94.5"/>
<text text-anchor="middle" x="98.5" y="-326.5" font-family="Helvetica,sans-Serif" font-size="10.00">WGBBase</text>
<polyline fill="none" stroke="black" points="0,-319.5 197,-319.5 "/>
<text text-anchor="start" x="8" y="-307.5" font-family="Helvetica,sans-Serif" font-size="10.00">+ userData</text>
<polyline fill="none" stroke="black" points="0,-300.5 197,-300.5 "/>
<text text-anchor="start" x="8" y="-288.5" font-family="Helvetica,sans-Serif" font-size="10.00">+ GetComponentFromInterface&lt; T &gt;()</text>
<text text-anchor="start" x="8" y="-277.5" font-family="Helvetica,sans-Serif" font-size="10.00">+ GetComponentInChildrenFrom</text>
<text text-anchor="start" x="8" y="-266.5" font-family="Helvetica,sans-Serif" font-size="10.00">Interface&lt; T &gt;()</text>
<text text-anchor="start" x="8" y="-255.5" font-family="Helvetica,sans-Serif" font-size="10.00">+ GetComponentsFromInterface&lt; T &gt;()</text>
<text text-anchor="start" x="8" y="-244.5" font-family="Helvetica,sans-Serif" font-size="10.00">+ GetComponentsInChildrenFrom</text>
<text text-anchor="start" x="8" y="-233.5" font-family="Helvetica,sans-Serif" font-size="10.00">Interface&lt; T &gt;()</text>
<text text-anchor="start" x="8" y="-222.5" font-family="Helvetica,sans-Serif" font-size="10.00">+ FindObjectOfTypeFromInterface&lt; T &gt;()</text>
<text text-anchor="start" x="8" y="-211.5" font-family="Helvetica,sans-Serif" font-size="10.00">+ FindObjectsOfTypeFromInterface&lt; T &gt;()</text>
<text text-anchor="start" x="8" y="-200.5" font-family="Helvetica,sans-Serif" font-size="10.00">+ InstantiateFromInterface&lt; T &gt;()</text>
<text text-anchor="start" x="8" y="-189.5" font-family="Helvetica,sans-Serif" font-size="10.00">+ InstantiateFromInterface&lt; T &gt;()</text>
<text text-anchor="start" x="8" y="-178.5" font-family="Helvetica,sans-Serif" font-size="10.00">+ Log()</text>
<text text-anchor="start" x="8" y="-167.5" font-family="Helvetica,sans-Serif" font-size="10.00">+ Log()</text>
<text text-anchor="start" x="8" y="-156.5" font-family="Helvetica,sans-Serif" font-size="10.00">+ LogError()</text>
<text text-anchor="start" x="8" y="-145.5" font-family="Helvetica,sans-Serif" font-size="10.00">+ LogError()</text>
<text text-anchor="start" x="8" y="-134.5" font-family="Helvetica,sans-Serif" font-size="10.00">+ LogException()</text>
<text text-anchor="start" x="8" y="-123.5" font-family="Helvetica,sans-Serif" font-size="10.00">+ LogException()</text>
<text text-anchor="start" x="8" y="-112.5" font-family="Helvetica,sans-Serif" font-size="10.00">+ LogWarning()</text>
<text text-anchor="start" x="8" y="-101.5" font-family="Helvetica,sans-Serif" font-size="10.00">+ LogWarning()</text>
</a>
</g>
</g>
<!-- Node2&#45;&gt;Node1 -->
<g id="edge1" class="edge"><title>Node2&#45;&gt;Node1</title>
<path fill="none" stroke="midnightblue" d="M159.582,-85.2612C164.347,-75.103 168.772,-65.6661 172.57,-57.5694"/>
<polygon fill="none" stroke="midnightblue" points="156.393,-83.8184 155.316,-94.3583 162.731,-86.7908 156.393,-83.8184"/>
</g>
<!-- Node3 -->
<g id="node3" class="node"><title>Node3</title>
<polygon fill="none" stroke="#bfbfbf" points="57,-474.5 57,-531.5 140,-531.5 140,-474.5 57,-474.5"/>
<text text-anchor="middle" x="98.5" y="-519.5" font-family="Helvetica,sans-Serif" font-size="10.00">MonoBehaviour</text>
<polyline fill="none" stroke="#bfbfbf" points="57,-512.5 140,-512.5 "/>
<text text-anchor="middle" x="98.5" y="-500.5" font-family="Helvetica,sans-Serif" font-size="10.00"> </text>
<polyline fill="none" stroke="#bfbfbf" points="57,-493.5 140,-493.5 "/>
<text text-anchor="middle" x="98.5" y="-481.5" font-family="Helvetica,sans-Serif" font-size="10.00"> </text>
</g>
<!-- Node3&#45;&gt;Node2 -->
<g id="edge2" class="edge"><title>Node3&#45;&gt;Node2</title>
<path fill="none" stroke="midnightblue" d="M98.5,-464.175C98.5,-431.96 98.5,-383.838 98.5,-338.628"/>
<polygon fill="none" stroke="midnightblue" points="95.0001,-464.462 98.5,-474.462 102,-464.462 95.0001,-464.462"/>
</g>
<!-- Node4 -->
<g id="node4" class="node"><title>Node4</title>
<g id="a_node4"><a xlink:href="interface_thinksquirrel_1_1_word_game_builder_1_1_object_model_1_1_i_wildcard_tile_manager.html" target="_top" xlink:title="An interface defining a manager for selecting wildcard tiles. Implementations must derive from MonoBe...">
<polygon fill="none" stroke="black" points="215,-188 215,-245 332,-245 332,-188 215,-188"/>
<text text-anchor="middle" x="273.5" y="-233" font-family="Helvetica,sans-Serif" font-size="10.00">IWildcardTileManager</text>
<polyline fill="none" stroke="black" points="215,-226 332,-226 "/>
<text text-anchor="start" x="223" y="-214" font-family="Helvetica,sans-Serif" font-size="10.00">+ onWildcardTileSelect</text>
<polyline fill="none" stroke="black" points="215,-207 332,-207 "/>
<text text-anchor="start" x="223" y="-195" font-family="Helvetica,sans-Serif" font-size="10.00">+ SelectWildcardTile()</text>
</a>
</g>
</g>
<!-- Node4&#45;&gt;Node1 -->
<g id="edge3" class="edge"><title>Node4&#45;&gt;Node1</title>
<path fill="none" stroke="midnightblue" d="M256.006,-178.623C239.099,-142.984 213.87,-89.8029 198.621,-57.6577"/>
<polygon fill="none" stroke="midnightblue" points="252.877,-180.194 260.326,-187.729 259.202,-177.194 252.877,-180.194"/>
</g>
<!-- Node5 -->
<g id="node5" class="node"><title>Node5</title>
<g id="a_node5"><a xlink:href="interface_thinksquirrel_1_1_word_game_builder_1_1_object_model_1_1_i_mono_behaviour.html" target="_top" xlink:title="An interface representation of a MonoBehaviour. ">
<polygon fill="none" stroke="black" points="218.5,-375.5 218.5,-630.5 328.5,-630.5 328.5,-375.5 218.5,-375.5"/>
<text text-anchor="middle" x="273.5" y="-618.5" font-family="Helvetica,sans-Serif" font-size="10.00">IMonoBehaviour</text>
<polyline fill="none" stroke="black" points="218.5,-611.5 328.5,-611.5 "/>
<text text-anchor="start" x="226.5" y="-599.5" font-family="Helvetica,sans-Serif" font-size="10.00">+ enabled</text>
<text text-anchor="start" x="226.5" y="-588.5" font-family="Helvetica,sans-Serif" font-size="10.00">+ gameObject</text>
<text text-anchor="start" x="226.5" y="-577.5" font-family="Helvetica,sans-Serif" font-size="10.00">+ hideFlags</text>
<text text-anchor="start" x="226.5" y="-566.5" font-family="Helvetica,sans-Serif" font-size="10.00">+ name</text>
<text text-anchor="start" x="226.5" y="-555.5" font-family="Helvetica,sans-Serif" font-size="10.00">+ tag</text>
<text text-anchor="start" x="226.5" y="-544.5" font-family="Helvetica,sans-Serif" font-size="10.00">+ transform</text>
<text text-anchor="start" x="226.5" y="-533.5" font-family="Helvetica,sans-Serif" font-size="10.00">+ userData</text>
<polyline fill="none" stroke="black" points="218.5,-526.5 328.5,-526.5 "/>
<text text-anchor="start" x="226.5" y="-514.5" font-family="Helvetica,sans-Serif" font-size="10.00">+ CancelInvoke()</text>
<text text-anchor="start" x="226.5" y="-503.5" font-family="Helvetica,sans-Serif" font-size="10.00">+ CancelInvoke()</text>
<text text-anchor="start" x="226.5" y="-492.5" font-family="Helvetica,sans-Serif" font-size="10.00">+ GetInstanceID()</text>
<text text-anchor="start" x="226.5" y="-481.5" font-family="Helvetica,sans-Serif" font-size="10.00">+ Invoke()</text>
<text text-anchor="start" x="226.5" y="-470.5" font-family="Helvetica,sans-Serif" font-size="10.00">+ InvokeRepeating()</text>
<text text-anchor="start" x="226.5" y="-459.5" font-family="Helvetica,sans-Serif" font-size="10.00">+ IsInvoking()</text>
<text text-anchor="start" x="226.5" y="-448.5" font-family="Helvetica,sans-Serif" font-size="10.00">+ IsInvoking()</text>
<text text-anchor="start" x="226.5" y="-437.5" font-family="Helvetica,sans-Serif" font-size="10.00">+ StartCoroutine()</text>
<text text-anchor="start" x="226.5" y="-426.5" font-family="Helvetica,sans-Serif" font-size="10.00">+ StartCoroutine()</text>
<text text-anchor="start" x="226.5" y="-415.5" font-family="Helvetica,sans-Serif" font-size="10.00">+ StartCoroutine()</text>
<text text-anchor="start" x="226.5" y="-404.5" font-family="Helvetica,sans-Serif" font-size="10.00">+ StopAllCoroutines()</text>
<text text-anchor="start" x="226.5" y="-393.5" font-family="Helvetica,sans-Serif" font-size="10.00">+ StopCoroutine()</text>
<text text-anchor="start" x="226.5" y="-382.5" font-family="Helvetica,sans-Serif" font-size="10.00">+ ToString()</text>
</a>
</g>
</g>
<!-- Node5&#45;&gt;Node4 -->
<g id="edge4" class="edge"><title>Node5&#45;&gt;Node4</title>
<path fill="none" stroke="midnightblue" d="M273.5,-364.863C273.5,-319.467 273.5,-273.376 273.5,-245.114"/>
<polygon fill="none" stroke="midnightblue" points="270,-365.143 273.5,-375.143 277,-365.143 270,-365.143"/>
</g>
</g>
</svg>
