<?xml version="1.0" encoding="UTF-8" standalone="no"?>
<!DOCTYPE svg PUBLIC "-//W3C//DTD SVG 1.1//EN"
 "http://www.w3.org/Graphics/SVG/1.1/DTD/svg11.dtd">
<!-- Generated by graphviz version 2.38.0 (20140413.2041)
 -->
<!-- Title: Create Pages: 1 -->
<svg width="381pt" height="39pt"
 viewBox="0.00 0.00 381.00 39.00" xmlns="http://www.w3.org/2000/svg" xmlns:xlink="http://www.w3.org/1999/xlink">
<g id="graph0" class="graph" transform="scale(1 1) rotate(0) translate(4 35)">
<title>Create</title>
<!-- Node1 -->
<g id="node1" class="node"><title>Node1</title>
<polygon fill="#bfbfbf" stroke="black" points="0,-6 0,-25 45,-25 45,-6 0,-6"/>
<text text-anchor="middle" x="22.5" y="-13" font-family="Helvetica,sans-Serif" font-size="10.00">Create</text>
</g>
<!-- Node2 -->
<g id="node2" class="node"><title>Node2</title>
<g id="a_node2"><a xlink:href="class_thinksquirrel_1_1_word_game_builder_1_1_word_game_language.html#a3beb481648a7e11edf80adb71ba5a5cc" target="_top" xlink:title="Unloads a language by identifier. ">
<polygon fill="none" stroke="black" points="81,-6 81,-25 180,-25 180,-6 81,-6"/>
<text text-anchor="middle" x="130.5" y="-13" font-family="Helvetica,sans-Serif" font-size="10.00">RemoveByIdentifier</text>
</a>
</g>
</g>
<!-- Node1&#45;&gt;Node2 -->
<g id="edge1" class="edge"><title>Node1&#45;&gt;Node2</title>
<path fill="none" stroke="midnightblue" d="M45.2065,-15.5C52.6878,-15.5 61.4651,-15.5 70.4779,-15.5"/>
<polygon fill="midnightblue" stroke="midnightblue" points="70.697,-19.0001 80.697,-15.5 70.6969,-12.0001 70.697,-19.0001"/>
</g>
<!-- Node3 -->
<g id="node3" class="node"><title>Node3</title>
<g id="a_node3"><a xlink:href="class_thinksquirrel_1_1_word_game_builder_1_1_word_set.html#ab4cbfc625a3798f8175fc15ef6621aec" target="_top" xlink:title="Compress the set into compressed form to save memory. Also clears the runtime set. ">
<polygon fill="none" stroke="black" points="216,-0.5 216,-30.5 373,-30.5 373,-0.5 216,-0.5"/>
<text text-anchor="start" x="224" y="-18.5" font-family="Helvetica,sans-Serif" font-size="10.00">Thinksquirrel.WordGameBuilder.</text>
<text text-anchor="middle" x="294.5" y="-7.5" font-family="Helvetica,sans-Serif" font-size="10.00">WordSet.CollapseSet</text>
</a>
</g>
</g>
<!-- Node2&#45;&gt;Node3 -->
<g id="edge2" class="edge"><title>Node2&#45;&gt;Node3</title>
<path fill="none" stroke="midnightblue" d="M180.105,-15.5C188.211,-15.5 196.834,-15.5 205.566,-15.5"/>
<polygon fill="midnightblue" stroke="midnightblue" points="205.842,-19.0001 215.842,-15.5 205.842,-12.0001 205.842,-19.0001"/>
</g>
</g>
</svg>
