<?xml version="1.0" encoding="UTF-8" standalone="no"?>
<!DOCTYPE svg PUBLIC "-//W3C//DTD SVG 1.1//EN"
 "http://www.w3.org/Graphics/SVG/1.1/DTD/svg11.dtd">
<!-- Generated by graphviz version 2.38.0 (20140413.2041)
 -->
<!-- Title: DecompressAsync Pages: 1 -->
<svg width="300pt" height="88pt"
 viewBox="0.00 0.00 300.00 88.00" xmlns="http://www.w3.org/2000/svg" xmlns:xlink="http://www.w3.org/1999/xlink">
<g id="graph0" class="graph" transform="scale(1 1) rotate(0) translate(4 84)">
<title>DecompressAsync</title>
<!-- Node1 -->
<g id="node1" class="node"><title>Node1</title>
<polygon fill="#bfbfbf" stroke="black" points="0,-30 0,-49 99,-49 99,-30 0,-30"/>
<text text-anchor="middle" x="49.5" y="-37" font-family="Helvetica,sans-Serif" font-size="10.00">DecompressAsync</text>
</g>
<!-- Node2 -->
<g id="node2" class="node"><title>Node2</title>
<g id="a_node2"><a xlink:href="class_thinksquirrel_1_1_word_game_builder_1_1_async_task.html#a74d46304f773f12c82b4c083696c7855" target="_top" xlink:title="Creates a task on a background thread. ">
<polygon fill="none" stroke="black" points="135,-49.5 135,-79.5 292,-79.5 292,-49.5 135,-49.5"/>
<text text-anchor="start" x="143" y="-67.5" font-family="Helvetica,sans-Serif" font-size="10.00">Thinksquirrel.WordGameBuilder.</text>
<text text-anchor="middle" x="213.5" y="-56.5" font-family="Helvetica,sans-Serif" font-size="10.00">AsyncTask.Create</text>
</a>
</g>
</g>
<!-- Node1&#45;&gt;Node2 -->
<g id="edge1" class="edge"><title>Node1&#45;&gt;Node2</title>
<path fill="none" stroke="midnightblue" d="M99.1053,-47.0008C107.299,-48.2653 116.022,-49.6114 124.851,-50.9739"/>
<polygon fill="midnightblue" stroke="midnightblue" points="124.425,-54.4495 134.842,-52.5157 125.493,-47.5314 124.425,-54.4495"/>
</g>
<!-- Node3 -->
<g id="node3" class="node"><title>Node3</title>
<g id="a_node3"><a xlink:href="class_thinksquirrel_1_1_word_game_builder_1_1_async_task.html#a61696d12bced86b6c979f001fa79df78" target="_top" xlink:title="Dispatches an action onto the main thread. ">
<polygon fill="none" stroke="black" points="135,-0.5 135,-30.5 292,-30.5 292,-0.5 135,-0.5"/>
<text text-anchor="start" x="143" y="-18.5" font-family="Helvetica,sans-Serif" font-size="10.00">Thinksquirrel.WordGameBuilder.</text>
<text text-anchor="middle" x="213.5" y="-7.5" font-family="Helvetica,sans-Serif" font-size="10.00">AsyncTask.Dispatch</text>
</a>
</g>
</g>
<!-- Node1&#45;&gt;Node3 -->
<g id="edge2" class="edge"><title>Node1&#45;&gt;Node3</title>
<path fill="none" stroke="midnightblue" d="M99.1053,-32.2992C107.299,-31.0854 116.022,-29.7931 124.851,-28.485"/>
<polygon fill="midnightblue" stroke="midnightblue" points="125.463,-31.9327 134.842,-27.0049 124.437,-25.0083 125.463,-31.9327"/>
</g>
</g>
</svg>
