<?xml version="1.0" encoding="UTF-8" standalone="no"?>
<!DOCTYPE svg PUBLIC "-//W3C//DTD SVG 1.1//EN"
 "http://www.w3.org/Graphics/SVG/1.1/DTD/svg11.dtd">
<!-- Generated by graphviz version 2.38.0 (20140413.2041)
 -->
<!-- Title: GetRandomNumberGenerator Pages: 1 -->
<svg width="375pt" height="186pt"
 viewBox="0.00 0.00 375.00 186.00" xmlns="http://www.w3.org/2000/svg" xmlns:xlink="http://www.w3.org/1999/xlink">
<g id="graph0" class="graph" transform="scale(1 1) rotate(0) translate(4 182)">
<title>GetRandomNumberGenerator</title>
<!-- Node1 -->
<g id="node1" class="node"><title>Node1</title>
<polygon fill="#bfbfbf" stroke="black" points="0,-79 0,-98 145,-98 145,-79 0,-79"/>
<text text-anchor="middle" x="72.5" y="-86" font-family="Helvetica,sans-Serif" font-size="10.00">GetRandomNumberGenerator</text>
</g>
<!-- Node2 -->
<g id="node2" class="node"><title>Node2</title>
<g id="a_node2"><a xlink:href="class_thinksquirrel_1_1_word_game_builder_1_1_gameplay_1_1_tile_pool.html#a384e442554038531fc8b43186a013323" target="_top" xlink:title="Saves the tile distribution dictionary. ">
<polygon fill="none" stroke="black" points="181,-147.5 181,-177.5 367,-177.5 367,-147.5 181,-147.5"/>
<text text-anchor="start" x="189" y="-165.5" font-family="Helvetica,sans-Serif" font-size="10.00">Thinksquirrel.WordGameBuilder.</text>
<text text-anchor="middle" x="274" y="-154.5" font-family="Helvetica,sans-Serif" font-size="10.00">Gameplay.TilePool.SaveTileDistribution</text>
</a>
</g>
</g>
<!-- Node1&#45;&gt;Node2 -->
<g id="edge1" class="edge"><title>Node1&#45;&gt;Node2</title>
<path fill="none" stroke="midnightblue" d="M100.461,-102.698C121.866,-113.56 152.783,-128.351 181,-138.5 190.009,-141.74 199.658,-144.744 209.195,-147.453"/>
<polygon fill="midnightblue" stroke="midnightblue" points="101.835,-99.4682 91.34,-98.0139 98.6371,-105.695 101.835,-99.4682"/>
</g>
<!-- Node3 -->
<g id="node3" class="node"><title>Node3</title>
<g id="a_node3"><a xlink:href="class_thinksquirrel_1_1_word_game_builder_1_1_gameplay_1_1_tile_pool.html#ad93cb8a56a2c82e24f9073821654d986" target="_top" xlink:title="Creates the tile pool. ">
<polygon fill="none" stroke="black" points="192,-98.5 192,-128.5 356,-128.5 356,-98.5 192,-98.5"/>
<text text-anchor="start" x="200" y="-116.5" font-family="Helvetica,sans-Serif" font-size="10.00">Thinksquirrel.WordGameBuilder.</text>
<text text-anchor="middle" x="274" y="-105.5" font-family="Helvetica,sans-Serif" font-size="10.00">Gameplay.TilePool.CreateTilePool</text>
</a>
</g>
</g>
<!-- Node1&#45;&gt;Node3 -->
<g id="edge2" class="edge"><title>Node1&#45;&gt;Node3</title>
<path fill="none" stroke="midnightblue" d="M155.256,-98.7451C167.298,-100.254 179.702,-101.809 191.734,-103.316"/>
<polygon fill="midnightblue" stroke="midnightblue" points="155.6,-95.2609 145.242,-97.4903 154.729,-102.207 155.6,-95.2609"/>
</g>
<!-- Node4 -->
<g id="node4" class="node"><title>Node4</title>
<g id="a_node4"><a xlink:href="class_thinksquirrel_1_1_word_game_builder_1_1_gameplay_1_1_tile_pool.html#a57b5649459feafb1388a3c83d04141e8" target="_top" xlink:title="Resets the tile pool. ">
<polygon fill="none" stroke="black" points="193.5,-49.5 193.5,-79.5 354.5,-79.5 354.5,-49.5 193.5,-49.5"/>
<text text-anchor="start" x="201.5" y="-67.5" font-family="Helvetica,sans-Serif" font-size="10.00">Thinksquirrel.WordGameBuilder.</text>
<text text-anchor="middle" x="274" y="-56.5" font-family="Helvetica,sans-Serif" font-size="10.00">Gameplay.TilePool.ResetTilePool</text>
</a>
</g>
</g>
<!-- Node1&#45;&gt;Node4 -->
<g id="edge3" class="edge"><title>Node1&#45;&gt;Node4</title>
<path fill="none" stroke="midnightblue" d="M155.256,-78.6647C167.869,-77.1473 180.879,-75.5823 193.442,-74.0708"/>
<polygon fill="midnightblue" stroke="midnightblue" points="154.753,-75.1999 145.242,-79.8694 155.589,-82.1498 154.753,-75.1999"/>
</g>
<!-- Node5 -->
<g id="node5" class="node"><title>Node5</title>
<g id="a_node5"><a xlink:href="class_thinksquirrel_1_1_word_game_builder_1_1_word_set.html#a40a5fa0daad2bab4f247df0a2474b286" target="_top" xlink:title="Asynchronously returns all words that begin with a prefix, up to maxIterations. ">
<polygon fill="none" stroke="black" points="195.5,-0.5 195.5,-30.5 352.5,-30.5 352.5,-0.5 195.5,-0.5"/>
<text text-anchor="start" x="203.5" y="-18.5" font-family="Helvetica,sans-Serif" font-size="10.00">Thinksquirrel.WordGameBuilder.</text>
<text text-anchor="middle" x="274" y="-7.5" font-family="Helvetica,sans-Serif" font-size="10.00">WordSet.FindWordsAsync</text>
</a>
</g>
</g>
<!-- Node1&#45;&gt;Node5 -->
<g id="edge4" class="edge"><title>Node1&#45;&gt;Node5</title>
<path fill="none" stroke="midnightblue" d="M101.715,-74.4579C123.118,-64.163 153.454,-50.3258 181,-40.5 190.977,-36.941 201.716,-33.5991 212.211,-30.588"/>
<polygon fill="midnightblue" stroke="midnightblue" points="100.016,-71.3921 92.5525,-78.9116 103.076,-77.6878 100.016,-71.3921"/>
</g>
</g>
</svg>
