<?xml version="1.0" encoding="UTF-8" standalone="no"?>
<!DOCTYPE svg PUBLIC "-//W3C//DTD SVG 1.1//EN"
 "http://www.w3.org/Graphics/SVG/1.1/DTD/svg11.dtd">
<!-- Generated by graphviz version 2.38.0 (20140413.2041)
 -->
<!-- Title: CollapseSet Pages: 1 -->
<svg width="720pt" height="140pt"
 viewBox="0.00 0.00 720.00 140.00" xmlns="http://www.w3.org/2000/svg" xmlns:xlink="http://www.w3.org/1999/xlink">
<g id="graph0" class="graph" transform="scale(1 1) rotate(0) translate(4 136)">
<title>CollapseSet</title>
<!-- Node1 -->
<g id="node1" class="node"><title>Node1</title>
<polygon fill="#bfbfbf" stroke="black" points="0,-55 0,-74 69,-74 69,-55 0,-55"/>
<text text-anchor="middle" x="34.5" y="-62" font-family="Helvetica,sans-Serif" font-size="10.00">CollapseSet</text>
</g>
<!-- Node2 -->
<g id="node2" class="node"><title>Node2</title>
<g id="a_node2"><a xlink:href="class_thinksquirrel_1_1_word_game_builder_1_1_word_game_language.html#a3beb481648a7e11edf80adb71ba5a5cc" target="_top" xlink:title="Unloads a language by identifier. ">
<polygon fill="none" stroke="black" points="105,-99.5 105,-129.5 299,-129.5 299,-99.5 105,-99.5"/>
<text text-anchor="start" x="113" y="-117.5" font-family="Helvetica,sans-Serif" font-size="10.00">Thinksquirrel.WordGameBuilder.</text>
<text text-anchor="middle" x="202" y="-106.5" font-family="Helvetica,sans-Serif" font-size="10.00">WordGameLanguage.RemoveByIdentifier</text>
</a>
</g>
</g>
<!-- Node1&#45;&gt;Node2 -->
<g id="edge1" class="edge"><title>Node1&#45;&gt;Node2</title>
<path fill="none" stroke="midnightblue" d="M71.2958,-77.3822C82.0791,-81.1217 93.9775,-85.1085 105,-88.5 117.213,-92.2577 130.386,-96.0154 142.945,-99.4593"/>
<polygon fill="midnightblue" stroke="midnightblue" points="72.3582,-74.0459 61.7634,-74.0417 70.0431,-80.652 72.3582,-74.0459"/>
</g>
<!-- Node5 -->
<g id="node5" class="node"><title>Node5</title>
<g id="a_node5"><a xlink:href="class_thinksquirrel_1_1_word_game_builder_1_1_word_game_language.html#a7f1c6752a7793902e86a28ab8971e256" target="_top" xlink:title="Unloads the first occurance of a language by name. ">
<polygon fill="none" stroke="black" points="110.5,-49.5 110.5,-79.5 293.5,-79.5 293.5,-49.5 110.5,-49.5"/>
<text text-anchor="start" x="118.5" y="-67.5" font-family="Helvetica,sans-Serif" font-size="10.00">Thinksquirrel.WordGameBuilder.</text>
<text text-anchor="middle" x="202" y="-56.5" font-family="Helvetica,sans-Serif" font-size="10.00">WordGameLanguage.RemoveByName</text>
</a>
</g>
</g>
<!-- Node1&#45;&gt;Node5 -->
<g id="edge4" class="edge"><title>Node1&#45;&gt;Node5</title>
<path fill="none" stroke="midnightblue" d="M79.4622,-64.5C89.104,-64.5 99.6538,-64.5 110.382,-64.5"/>
<polygon fill="midnightblue" stroke="midnightblue" points="79.3908,-61.0001 69.3908,-64.5 79.3907,-68.0001 79.3908,-61.0001"/>
</g>
<!-- Node7 -->
<g id="node7" class="node"><title>Node7</title>
<g id="a_node7"><a xlink:href="class_thinksquirrel_1_1_word_game_builder_1_1_word_game_language.html#ae181b60d8c24114b8c417b74a51bff12" target="_top" xlink:title="Completely unloads all languages. ">
<polygon fill="none" stroke="black" points="123.5,-0.5 123.5,-30.5 280.5,-30.5 280.5,-0.5 123.5,-0.5"/>
<text text-anchor="start" x="131.5" y="-18.5" font-family="Helvetica,sans-Serif" font-size="10.00">Thinksquirrel.WordGameBuilder.</text>
<text text-anchor="middle" x="202" y="-7.5" font-family="Helvetica,sans-Serif" font-size="10.00">WordGameLanguage.RemoveAll</text>
</a>
</g>
</g>
<!-- Node1&#45;&gt;Node7 -->
<g id="edge6" class="edge"><title>Node1&#45;&gt;Node7</title>
<path fill="none" stroke="midnightblue" d="M69.5143,-51.4946C80.7342,-47.4118 93.3287,-43.0483 105,-39.5 115.273,-36.3768 126.252,-33.3481 136.98,-30.5539"/>
<polygon fill="midnightblue" stroke="midnightblue" points="68.2349,-48.236 60.066,-54.9828 70.6593,-54.8027 68.2349,-48.236"/>
</g>
<!-- Node3 -->
<g id="node3" class="node"><title>Node3</title>
<g id="a_node3"><a xlink:href="class_thinksquirrel_1_1_word_game_builder_1_1_word_game_language.html#a8d44bcde9835062d569725680e4e10cf" target="_top" xlink:title="Creates a language with the given name and identifier (file name). ">
<polygon fill="none" stroke="black" points="348.5,-101.5 348.5,-131.5 505.5,-131.5 505.5,-101.5 348.5,-101.5"/>
<text text-anchor="start" x="356.5" y="-119.5" font-family="Helvetica,sans-Serif" font-size="10.00">Thinksquirrel.WordGameBuilder.</text>
<text text-anchor="middle" x="427" y="-108.5" font-family="Helvetica,sans-Serif" font-size="10.00">WordGameLanguage.Create</text>
</a>
</g>
</g>
<!-- Node2&#45;&gt;Node3 -->
<g id="edge2" class="edge"><title>Node2&#45;&gt;Node3</title>
<path fill="none" stroke="midnightblue" d="M309.218,-115.453C322.373,-115.571 335.627,-115.689 348.243,-115.803"/>
<polygon fill="midnightblue" stroke="midnightblue" points="309.221,-111.953 299.19,-115.363 309.158,-118.952 309.221,-111.953"/>
</g>
<!-- Node4 -->
<g id="node4" class="node"><title>Node4</title>
<g id="a_node4"><a xlink:href="class_thinksquirrel_1_1_word_game_builder_1_1_word_game_language.html#a1c2939b9bbc0e51d2752798232f76567" target="_top" xlink:title="Deep copy this language to a new language. ">
<polygon fill="none" stroke="black" points="555,-101.5 555,-131.5 712,-131.5 712,-101.5 555,-101.5"/>
<text text-anchor="start" x="563" y="-119.5" font-family="Helvetica,sans-Serif" font-size="10.00">Thinksquirrel.WordGameBuilder.</text>
<text text-anchor="middle" x="633.5" y="-108.5" font-family="Helvetica,sans-Serif" font-size="10.00">WordGameLanguage.Copy</text>
</a>
</g>
</g>
<!-- Node3&#45;&gt;Node4 -->
<g id="edge3" class="edge"><title>Node3&#45;&gt;Node4</title>
<path fill="none" stroke="midnightblue" d="M515.929,-116.5C528.908,-116.5 542.201,-116.5 554.949,-116.5"/>
<polygon fill="midnightblue" stroke="midnightblue" points="515.604,-113 505.604,-116.5 515.604,-120 515.604,-113"/>
</g>
<!-- Node6 -->
<g id="node6" class="node"><title>Node6</title>
<g id="a_node6"><a xlink:href="class_thinksquirrel_1_1_word_game_builder_editor_1_1_editor_windows_1_1_language_editor.html#ae70777cd03293814a6381fef6a73d9fb" target="_top" xlink:title="Convert a language name into an identifier, by removing all diacritical marks. Also ensures that the ...">
<polygon fill="none" stroke="black" points="335,-41 335,-82 519,-82 519,-41 335,-41"/>
<text text-anchor="start" x="343" y="-70" font-family="Helvetica,sans-Serif" font-size="10.00">Thinksquirrel.WordGameBuilder</text>
<text text-anchor="start" x="343" y="-59" font-family="Helvetica,sans-Serif" font-size="10.00">Editor.EditorWindows.LanguageEditor.</text>
<text text-anchor="middle" x="427" y="-48" font-family="Helvetica,sans-Serif" font-size="10.00">LangToIdentifier</text>
</a>
</g>
</g>
<!-- Node5&#45;&gt;Node6 -->
<g id="edge5" class="edge"><title>Node5&#45;&gt;Node6</title>
<path fill="none" stroke="midnightblue" d="M303.898,-63.1426C314.146,-63.0048 324.515,-62.8653 334.654,-62.7289"/>
<polygon fill="midnightblue" stroke="midnightblue" points="303.655,-59.6455 293.703,-63.2798 303.749,-66.6449 303.655,-59.6455"/>
</g>
</g>
</svg>
