<?xml version="1.0" encoding="UTF-8" standalone="no"?>
<!DOCTYPE svg PUBLIC "-//W3C//DTD SVG 1.1//EN"
 "http://www.w3.org/Graphics/SVG/1.1/DTD/svg11.dtd">
<!-- Generated by graphviz version 2.38.0 (20140413.2041)
 -->
<!-- Title: Optimize Pages: 1 -->
<svg width="519pt" height="176pt"
 viewBox="0.00 0.00 519.00 175.50" xmlns="http://www.w3.org/2000/svg" xmlns:xlink="http://www.w3.org/1999/xlink">
<g id="graph0" class="graph" transform="scale(1 1) rotate(0) translate(4 171.5)">
<title>Optimize</title>
<!-- Node1 -->
<g id="node1" class="node"><title>Node1</title>
<polygon fill="#bfbfbf" stroke="black" points="0,-95.5 0,-114.5 56,-114.5 56,-95.5 0,-95.5"/>
<text text-anchor="middle" x="28" y="-102.5" font-family="Helvetica,sans-Serif" font-size="10.00">Optimize</text>
</g>
<!-- Node2 -->
<g id="node2" class="node"><title>Node2</title>
<g id="a_node2"><a xlink:href="class_thinksquirrel_1_1_word_game_builder_1_1_word_game_language.html#a621a852207d53e91a83a1667350e56a4" target="_top" xlink:title="Exports the words of a language to a CSV file. ">
<polygon fill="none" stroke="black" points="93.5,-118 93.5,-148 287.5,-148 287.5,-118 93.5,-118"/>
<text text-anchor="start" x="101.5" y="-136" font-family="Helvetica,sans-Serif" font-size="10.00">Thinksquirrel.WordGameBuilder.</text>
<text text-anchor="middle" x="190.5" y="-125" font-family="Helvetica,sans-Serif" font-size="10.00">WordGameLanguage.ExportWordsToCsv</text>
</a>
</g>
</g>
<!-- Node1&#45;&gt;Node2 -->
<g id="edge1" class="edge"><title>Node1&#45;&gt;Node2</title>
<path fill="none" stroke="midnightblue" d="M66.4125,-111.527C77.5833,-113.476 90.3208,-115.698 103.267,-117.956"/>
<polygon fill="midnightblue" stroke="midnightblue" points="66.6794,-108.021 56.2266,-109.75 65.4763,-114.916 66.6794,-108.021"/>
</g>
<!-- Node3 -->
<g id="node3" class="node"><title>Node3</title>
<g id="a_node3"><a xlink:href="class_thinksquirrel_1_1_word_game_builder_1_1_word_game_language.html#aebcb73d5c2851cd30aae66c3cb66977c" target="_top" xlink:title="Gets the psuedo&#45;random number generator for the language. ">
<polygon fill="none" stroke="black" points="92,-57.5 92,-98.5 289,-98.5 289,-57.5 92,-57.5"/>
<text text-anchor="start" x="100" y="-86.5" font-family="Helvetica,sans-Serif" font-size="10.00">Thinksquirrel.WordGameBuilder.</text>
<text text-anchor="start" x="100" y="-75.5" font-family="Helvetica,sans-Serif" font-size="10.00">WordGameLanguage.GetRandomNumber</text>
<text text-anchor="middle" x="190.5" y="-64.5" font-family="Helvetica,sans-Serif" font-size="10.00">Generator</text>
</a>
</g>
</g>
<!-- Node1&#45;&gt;Node3 -->
<g id="edge2" class="edge"><title>Node1&#45;&gt;Node3</title>
<path fill="none" stroke="midnightblue" d="M66.1723,-98.7467C74.1204,-97.4097 82.8697,-95.9378 91.9282,-94.4139"/>
<polygon fill="midnightblue" stroke="midnightblue" points="65.5074,-95.3093 56.2266,-100.42 66.6687,-102.212 65.5074,-95.3093"/>
</g>
<!-- Node4 -->
<g id="node4" class="node"><title>Node4</title>
<g id="a_node4"><a xlink:href="class_thinksquirrel_1_1_word_game_builder_1_1_gameplay_1_1_tile_pool.html#a384e442554038531fc8b43186a013323" target="_top" xlink:title="Saves the tile distribution dictionary. ">
<polygon fill="none" stroke="black" points="325,-137 325,-167 511,-167 511,-137 325,-137"/>
<text text-anchor="start" x="333" y="-155" font-family="Helvetica,sans-Serif" font-size="10.00">Thinksquirrel.WordGameBuilder.</text>
<text text-anchor="middle" x="418" y="-144" font-family="Helvetica,sans-Serif" font-size="10.00">Gameplay.TilePool.SaveTileDistribution</text>
</a>
</g>
</g>
<!-- Node3&#45;&gt;Node4 -->
<g id="edge3" class="edge"><title>Node3&#45;&gt;Node4</title>
<path fill="none" stroke="midnightblue" d="M270.984,-101.966C277.128,-104.215 283.194,-106.568 289,-109 305.686,-115.991 308.135,-121.451 325,-128 333.463,-131.286 342.536,-134.268 351.566,-136.925"/>
<polygon fill="midnightblue" stroke="midnightblue" points="271.886,-98.5723 261.291,-98.5212 269.542,-105.168 271.886,-98.5723"/>
</g>
<!-- Node5 -->
<g id="node5" class="node"><title>Node5</title>
<g id="a_node5"><a xlink:href="class_thinksquirrel_1_1_word_game_builder_1_1_gameplay_1_1_tile_pool.html#ad93cb8a56a2c82e24f9073821654d986" target="_top" xlink:title="Creates the tile pool. ">
<polygon fill="none" stroke="black" points="336,-88 336,-118 500,-118 500,-88 336,-88"/>
<text text-anchor="start" x="344" y="-106" font-family="Helvetica,sans-Serif" font-size="10.00">Thinksquirrel.WordGameBuilder.</text>
<text text-anchor="middle" x="418" y="-95" font-family="Helvetica,sans-Serif" font-size="10.00">Gameplay.TilePool.CreateTilePool</text>
</a>
</g>
</g>
<!-- Node3&#45;&gt;Node5 -->
<g id="edge4" class="edge"><title>Node3&#45;&gt;Node5</title>
<path fill="none" stroke="midnightblue" d="M299.373,-89.9593C311.644,-91.3197 323.992,-92.6887 335.835,-94.0016"/>
<polygon fill="midnightblue" stroke="midnightblue" points="299.421,-86.4433 289.096,-88.82 298.649,-93.4006 299.421,-86.4433"/>
</g>
<!-- Node6 -->
<g id="node6" class="node"><title>Node6</title>
<g id="a_node6"><a xlink:href="class_thinksquirrel_1_1_word_game_builder_1_1_gameplay_1_1_tile_pool.html#a57b5649459feafb1388a3c83d04141e8" target="_top" xlink:title="Resets the tile pool. ">
<polygon fill="none" stroke="black" points="337.5,-39 337.5,-69 498.5,-69 498.5,-39 337.5,-39"/>
<text text-anchor="start" x="345.5" y="-57" font-family="Helvetica,sans-Serif" font-size="10.00">Thinksquirrel.WordGameBuilder.</text>
<text text-anchor="middle" x="418" y="-46" font-family="Helvetica,sans-Serif" font-size="10.00">Gameplay.TilePool.ResetTilePool</text>
</a>
</g>
</g>
<!-- Node3&#45;&gt;Node6 -->
<g id="edge5" class="edge"><title>Node3&#45;&gt;Node6</title>
<path fill="none" stroke="midnightblue" d="M299.308,-66.526C312.08,-65.1667 324.937,-63.7983 337.221,-62.4909"/>
<polygon fill="midnightblue" stroke="midnightblue" points="298.669,-63.0741 289.096,-67.6128 299.41,-70.0348 298.669,-63.0741"/>
</g>
<!-- Node7 -->
<g id="node7" class="node"><title>Node7</title>
<g id="a_node7"><a xlink:href="class_thinksquirrel_1_1_word_game_builder_1_1_word_set.html#a40a5fa0daad2bab4f247df0a2474b286" target="_top" xlink:title="Asynchronously returns all words that begin with a prefix, up to maxIterations. ">
<polygon fill="none" stroke="black" points="372,-0.5 372,-19.5 464,-19.5 464,-0.5 372,-0.5"/>
<text text-anchor="middle" x="418" y="-7.5" font-family="Helvetica,sans-Serif" font-size="10.00">FindWordsAsync</text>
</a>
</g>
</g>
<!-- Node3&#45;&gt;Node7 -->
<g id="edge6" class="edge"><title>Node3&#45;&gt;Node7</title>
<path fill="none" stroke="midnightblue" d="M253.012,-53.9768C275.458,-45.7186 301.179,-36.8398 325,-30 340.082,-25.6695 356.79,-21.7743 371.784,-18.597"/>
<polygon fill="midnightblue" stroke="midnightblue" points="251.763,-50.7071 243.608,-57.4703 254.201,-57.2689 251.763,-50.7071"/>
</g>
</g>
</svg>
