<?xml version="1.0" encoding="UTF-8" standalone="no"?>
<!DOCTYPE svg PUBLIC "-//W3C//DTD SVG 1.1//EN"
 "http://www.w3.org/Graphics/SVG/1.1/DTD/svg11.dtd">
<!-- Generated by graphviz version 2.38.0 (20140413.2041)
 -->
<!-- Title: Dispatch Pages: 1 -->
<svg width="565pt" height="308pt"
 viewBox="0.00 0.00 565.00 308.00" xmlns="http://www.w3.org/2000/svg" xmlns:xlink="http://www.w3.org/1999/xlink">
<g id="graph0" class="graph" transform="scale(1 1) rotate(0) translate(4 304)">
<title>Dispatch</title>
<!-- Node1 -->
<g id="node1" class="node"><title>Node1</title>
<polygon fill="#bfbfbf" stroke="black" points="0,-128 0,-147 55,-147 55,-128 0,-128"/>
<text text-anchor="middle" x="27.5" y="-135" font-family="Helvetica,sans-Serif" font-size="10.00">Dispatch</text>
</g>
<!-- Node2 -->
<g id="node2" class="node"><title>Node2</title>
<g id="a_node2"><a xlink:href="class_thinksquirrel_1_1_word_game_builder_1_1_gameplay_1_1_word_checker.html#addf90951538425908ce504b2ed4ab352" target="_top" xlink:title="Checks the input word against the dictionary, asynchronously on another thread. ">
<polygon fill="none" stroke="black" points="91,-245.5 91,-275.5 296,-275.5 296,-245.5 91,-245.5"/>
<text text-anchor="start" x="99" y="-263.5" font-family="Helvetica,sans-Serif" font-size="10.00">Thinksquirrel.WordGameBuilder.</text>
<text text-anchor="middle" x="193.5" y="-252.5" font-family="Helvetica,sans-Serif" font-size="10.00">Gameplay.WordChecker.CheckWordAsync</text>
</a>
</g>
</g>
<!-- Node1&#45;&gt;Node2 -->
<g id="edge1" class="edge"><title>Node1&#45;&gt;Node2</title>
<path fill="none" stroke="midnightblue" d="M35.3886,-156.688C44.5284,-179.326 62.8646,-216.417 91,-236.5 95.8635,-239.972 101.16,-242.947 106.696,-245.496"/>
<polygon fill="midnightblue" stroke="midnightblue" points="38.5793,-155.233 31.7357,-147.145 32.0418,-157.735 38.5793,-155.233"/>
</g>
<!-- Node5 -->
<g id="node5" class="node"><title>Node5</title>
<g id="a_node5"><a xlink:href="class_thinksquirrel_1_1_word_game_builder_1_1_gameplay_1_1_word_game_agent.html#a0b8bd05e5893d7ed1dfeb730058a4330" target="_top" xlink:title="Finds a set of words, based on a list of letter tiles. ">
<polygon fill="none" stroke="black" points="99,-196.5 99,-226.5 288,-226.5 288,-196.5 99,-196.5"/>
<text text-anchor="start" x="107" y="-214.5" font-family="Helvetica,sans-Serif" font-size="10.00">Thinksquirrel.WordGameBuilder.</text>
<text text-anchor="middle" x="193.5" y="-203.5" font-family="Helvetica,sans-Serif" font-size="10.00">Gameplay.WordGameAgent.FindWords</text>
</a>
</g>
</g>
<!-- Node1&#45;&gt;Node5 -->
<g id="edge4" class="edge"><title>Node1&#45;&gt;Node5</title>
<path fill="none" stroke="midnightblue" d="M45.0759,-154.192C56.9165,-165.201 73.7464,-179.092 91,-187.5 98.0807,-190.951 105.686,-193.922 113.432,-196.476"/>
<polygon fill="midnightblue" stroke="midnightblue" points="47.3669,-151.539 37.7317,-147.133 42.5162,-156.586 47.3669,-151.539"/>
</g>
<!-- Node6 -->
<g id="node6" class="node"><title>Node6</title>
<g id="a_node6"><a xlink:href="class_thinksquirrel_1_1_word_game_builder_1_1_word_set.html#ab869ee740498825018644ba178e8fb57" target="_top" xlink:title="Expands the set from compressed form. Yields when progress is updated and can be used in a coroutine...">
<polygon fill="none" stroke="black" points="115,-147.5 115,-177.5 272,-177.5 272,-147.5 115,-147.5"/>
<text text-anchor="start" x="123" y="-165.5" font-family="Helvetica,sans-Serif" font-size="10.00">Thinksquirrel.WordGameBuilder.</text>
<text text-anchor="middle" x="193.5" y="-154.5" font-family="Helvetica,sans-Serif" font-size="10.00">WordSet.Decompress</text>
</a>
</g>
</g>
<!-- Node1&#45;&gt;Node6 -->
<g id="edge5" class="edge"><title>Node1&#45;&gt;Node6</title>
<path fill="none" stroke="midnightblue" d="M65.3707,-143.121C80.0598,-145.36 97.555,-148.027 114.796,-150.655"/>
<polygon fill="midnightblue" stroke="midnightblue" points="65.6277,-139.619 55.2144,-141.572 64.5728,-146.539 65.6277,-139.619"/>
</g>
<!-- Node7 -->
<g id="node7" class="node"><title>Node7</title>
<g id="a_node7"><a xlink:href="class_thinksquirrel_1_1_word_game_builder_1_1_word_set.html#aa590080a03b081c2dcd70fb63a8a991a" target="_top" xlink:title="Expands the set from compressed form asynchronously. ">
<polygon fill="none" stroke="black" points="115,-98.5 115,-128.5 272,-128.5 272,-98.5 115,-98.5"/>
<text text-anchor="start" x="123" y="-116.5" font-family="Helvetica,sans-Serif" font-size="10.00">Thinksquirrel.WordGameBuilder.</text>
<text text-anchor="middle" x="193.5" y="-105.5" font-family="Helvetica,sans-Serif" font-size="10.00">WordSet.DecompressAsync</text>
</a>
</g>
</g>
<!-- Node1&#45;&gt;Node7 -->
<g id="edge6" class="edge"><title>Node1&#45;&gt;Node7</title>
<path fill="none" stroke="midnightblue" d="M65.3707,-132.104C80.0598,-129.955 97.555,-127.394 114.796,-124.871"/>
<polygon fill="midnightblue" stroke="midnightblue" points="64.6022,-128.679 55.2144,-133.591 65.6159,-135.606 64.6022,-128.679"/>
</g>
<!-- Node8 -->
<g id="node8" class="node"><title>Node8</title>
<g id="a_node8"><a xlink:href="class_thinksquirrel_1_1_word_game_builder_1_1_word_set.html#a596aff1ed27807fb992bb9adc5366c21" target="_top" xlink:title="Finds the word in the set, asynchronously. ">
<polygon fill="none" stroke="black" points="115,-49.5 115,-79.5 272,-79.5 272,-49.5 115,-49.5"/>
<text text-anchor="start" x="123" y="-67.5" font-family="Helvetica,sans-Serif" font-size="10.00">Thinksquirrel.WordGameBuilder.</text>
<text text-anchor="middle" x="193.5" y="-56.5" font-family="Helvetica,sans-Serif" font-size="10.00">WordSet.FindWordAsync</text>
</a>
</g>
</g>
<!-- Node1&#45;&gt;Node8 -->
<g id="edge7" class="edge"><title>Node1&#45;&gt;Node8</title>
<path fill="none" stroke="midnightblue" d="M45.6397,-121.177C57.518,-110.702 74.1695,-97.5929 91,-89.5 99.0142,-85.6464 107.679,-82.352 116.452,-79.5441"/>
<polygon fill="midnightblue" stroke="midnightblue" points="43.2762,-118.596 38.2353,-127.915 47.9872,-123.773 43.2762,-118.596"/>
</g>
<!-- Node9 -->
<g id="node9" class="node"><title>Node9</title>
<g id="a_node9"><a xlink:href="class_thinksquirrel_1_1_word_game_builder_1_1_word_set.html#a40a5fa0daad2bab4f247df0a2474b286" target="_top" xlink:title="Asynchronously returns all words that begin with a prefix, up to maxIterations. ">
<polygon fill="none" stroke="black" points="115,-0.5 115,-30.5 272,-30.5 272,-0.5 115,-0.5"/>
<text text-anchor="start" x="123" y="-18.5" font-family="Helvetica,sans-Serif" font-size="10.00">Thinksquirrel.WordGameBuilder.</text>
<text text-anchor="middle" x="193.5" y="-7.5" font-family="Helvetica,sans-Serif" font-size="10.00">WordSet.FindWordsAsync</text>
</a>
</g>
</g>
<!-- Node1&#45;&gt;Node9 -->
<g id="edge8" class="edge"><title>Node1&#45;&gt;Node9</title>
<path fill="none" stroke="midnightblue" d="M35.6677,-118.401C44.9886,-96.2295 63.4112,-60.1942 91,-40.5 98.2377,-35.3334 106.423,-31.2287 114.929,-27.9687"/>
<polygon fill="midnightblue" stroke="midnightblue" points="32.3838,-117.187 31.9238,-127.772 38.8842,-119.784 32.3838,-117.187"/>
</g>
<!-- Node3 -->
<g id="node3" class="node"><title>Node3</title>
<g id="a_node3"><a xlink:href="class_thinksquirrel_1_1_word_game_builder_example_1_1_example_game_logic.html#a2fd969ff4cd73e8d3201f42a6d5126b5" target="_top" xlink:title="This callback fires whenever tiles are distributed by the tile pool. ">
<polygon fill="none" stroke="black" points="332,-269.5 332,-299.5 557,-299.5 557,-269.5 332,-269.5"/>
<text text-anchor="start" x="340" y="-287.5" font-family="Helvetica,sans-Serif" font-size="10.00">Thinksquirrel.WordGameBuilder</text>
<text text-anchor="middle" x="444.5" y="-276.5" font-family="Helvetica,sans-Serif" font-size="10.00">Example.ExampleGameLogic.OnTileDistribution</text>
</a>
</g>
</g>
<!-- Node2&#45;&gt;Node3 -->
<g id="edge2" class="edge"><title>Node2&#45;&gt;Node3</title>
<path fill="none" stroke="midnightblue" d="M306.342,-271.28C314.748,-272.09 323.233,-272.908 331.639,-273.718"/>
<polygon fill="midnightblue" stroke="midnightblue" points="306.427,-267.772 296.137,-270.296 305.755,-274.74 306.427,-267.772"/>
</g>
<!-- Node4 -->
<g id="node4" class="node"><title>Node4</title>
<g id="a_node4"><a xlink:href="class_thinksquirrel_1_1_word_game_builder_1_1_gameplay_1_1_word_game_player.html#a5850054dce7050ff763f918e17ded96c" target="_top" xlink:title="Submits the word for checking against the specified langauge&#39;s word list. ">
<polygon fill="none" stroke="black" points="345.5,-220.5 345.5,-250.5 543.5,-250.5 543.5,-220.5 345.5,-220.5"/>
<text text-anchor="start" x="353.5" y="-238.5" font-family="Helvetica,sans-Serif" font-size="10.00">Thinksquirrel.WordGameBuilder.</text>
<text text-anchor="middle" x="444.5" y="-227.5" font-family="Helvetica,sans-Serif" font-size="10.00">Gameplay.WordGamePlayer.SubmitWord</text>
</a>
</g>
</g>
<!-- Node2&#45;&gt;Node4 -->
<g id="edge3" class="edge"><title>Node2&#45;&gt;Node4</title>
<path fill="none" stroke="midnightblue" d="M306.109,-249.294C319.212,-247.979 332.507,-246.644 345.406,-245.349"/>
<polygon fill="midnightblue" stroke="midnightblue" points="305.737,-245.814 296.137,-250.295 306.437,-252.779 305.737,-245.814"/>
</g>
</g>
</svg>
