<?xml version="1.0" encoding="UTF-8" standalone="no"?>
<!DOCTYPE svg PUBLIC "-//W3C//DTD SVG 1.1//EN"
 "http://www.w3.org/Graphics/SVG/1.1/DTD/svg11.dtd">
<!-- Generated by graphviz version 2.38.0 (20140413.2041)
 -->
<!-- Title: DestroyTiles Pages: 1 -->
<svg width="319pt" height="88pt"
 viewBox="0.00 0.00 319.00 88.00" xmlns="http://www.w3.org/2000/svg" xmlns:xlink="http://www.w3.org/1999/xlink">
<g id="graph0" class="graph" transform="scale(1 1) rotate(0) translate(4 84)">
<title>DestroyTiles</title>
<!-- Node1 -->
<g id="node1" class="node"><title>Node1</title>
<polygon fill="#bfbfbf" stroke="black" points="0,-30 0,-49 71,-49 71,-30 0,-30"/>
<text text-anchor="middle" x="35.5" y="-37" font-family="Helvetica,sans-Serif" font-size="10.00">DestroyTiles</text>
</g>
<!-- Node2 -->
<g id="node2" class="node"><title>Node2</title>
<g id="a_node2"><a xlink:href="class_thinksquirrel_1_1_word_game_builder_1_1_gameplay_1_1_word_game_player.html#a43f6de11c1ae566acf55e0ff9a540386" target="_top" xlink:title="Finds all active players in the scene. ">
<polygon fill="none" stroke="black" points="107,-49.5 107,-79.5 311,-79.5 311,-49.5 107,-49.5"/>
<text text-anchor="start" x="115" y="-67.5" font-family="Helvetica,sans-Serif" font-size="10.00">Thinksquirrel.WordGameBuilder.</text>
<text text-anchor="middle" x="209" y="-56.5" font-family="Helvetica,sans-Serif" font-size="10.00">Gameplay.WordGamePlayer.GetAllPlayers</text>
</a>
</g>
</g>
<!-- Node1&#45;&gt;Node2 -->
<g id="edge1" class="edge"><title>Node1&#45;&gt;Node2</title>
<path fill="none" stroke="midnightblue" d="M71.2056,-44.5591C79.0403,-45.7012 87.7689,-46.9736 96.9203,-48.3076"/>
<polygon fill="midnightblue" stroke="midnightblue" points="96.5939,-51.797 106.994,-49.7761 97.6037,-44.8702 96.5939,-51.797"/>
</g>
<!-- Node3 -->
<g id="node3" class="node"><title>Node3</title>
<g id="a_node3"><a xlink:href="class_thinksquirrel_1_1_word_game_builder_1_1_w_g_b_event.html#ae0a1971d24b447511741cc2c90595e3f" target="_top" xlink:title="Invokes the event directly. This will never run outside of play mode. ">
<polygon fill="none" stroke="black" points="130.5,-0.5 130.5,-30.5 287.5,-30.5 287.5,-0.5 130.5,-0.5"/>
<text text-anchor="start" x="138.5" y="-18.5" font-family="Helvetica,sans-Serif" font-size="10.00">Thinksquirrel.WordGameBuilder.</text>
<text text-anchor="middle" x="209" y="-7.5" font-family="Helvetica,sans-Serif" font-size="10.00">WGBEvent.Invoke</text>
</a>
</g>
</g>
<!-- Node1&#45;&gt;Node3 -->
<g id="edge2" class="edge"><title>Node1&#45;&gt;Node3</title>
<path fill="none" stroke="midnightblue" d="M71.2056,-34.6432C85.5239,-32.6395 102.827,-30.218 120.242,-27.7811"/>
<polygon fill="midnightblue" stroke="midnightblue" points="121.067,-31.1997 130.486,-26.3475 120.097,-24.2672 121.067,-31.1997"/>
</g>
</g>
</svg>
