<?xml version="1.0" encoding="UTF-8" standalone="no"?>
<!DOCTYPE svg PUBLIC "-//W3C//DTD SVG 1.1//EN"
 "http://www.w3.org/Graphics/SVG/1.1/DTD/svg11.dtd">
<!-- Generated by graphviz version 2.38.0 (20140413.2041)
 -->
<!-- Title: CreateTile Pages: 1 -->
<svg width="282pt" height="88pt"
 viewBox="0.00 0.00 282.00 88.00" xmlns="http://www.w3.org/2000/svg" xmlns:xlink="http://www.w3.org/1999/xlink">
<g id="graph0" class="graph" transform="scale(1 1) rotate(0) translate(4 84)">
<title>CreateTile</title>
<!-- Node1 -->
<g id="node1" class="node"><title>Node1</title>
<polygon fill="#bfbfbf" stroke="black" points="0,-30 0,-49 60,-49 60,-30 0,-30"/>
<text text-anchor="middle" x="30" y="-37" font-family="Helvetica,sans-Serif" font-size="10.00">CreateTile</text>
</g>
<!-- Node2 -->
<g id="node2" class="node"><title>Node2</title>
<g id="a_node2"><a xlink:href="class_thinksquirrel_1_1_word_game_builder_1_1_word_game_language.html#acea8c72132872acbe9b57f7919526102" target="_top" xlink:title="Finds a loaded language by identifier. ">
<polygon fill="none" stroke="black" points="96,-49.5 96,-79.5 274,-79.5 274,-49.5 96,-49.5"/>
<text text-anchor="start" x="104" y="-67.5" font-family="Helvetica,sans-Serif" font-size="10.00">Thinksquirrel.WordGameBuilder.</text>
<text text-anchor="middle" x="185" y="-56.5" font-family="Helvetica,sans-Serif" font-size="10.00">WordGameLanguage.FindByIdentifier</text>
</a>
</g>
</g>
<!-- Node1&#45;&gt;Node2 -->
<g id="edge1" class="edge"><title>Node1&#45;&gt;Node2</title>
<path fill="none" stroke="midnightblue" d="M60.1383,-44.2612C67.8426,-45.52 76.6035,-46.9515 85.8222,-48.4579"/>
<polygon fill="midnightblue" stroke="midnightblue" points="85.5432,-51.9586 95.9768,-50.1171 86.6721,-45.0502 85.5432,-51.9586"/>
</g>
<!-- Node3 -->
<g id="node3" class="node"><title>Node3</title>
<g id="a_node3"><a xlink:href="class_thinksquirrel_1_1_word_game_builder_1_1_w_g_b_base.html#ab57b4a4297b7972dbe73dbd6aeeb6bc2" target="_top" xlink:title="Logs a prefixed erorr. ">
<polygon fill="none" stroke="black" points="106.5,-0.5 106.5,-30.5 263.5,-30.5 263.5,-0.5 106.5,-0.5"/>
<text text-anchor="start" x="114.5" y="-18.5" font-family="Helvetica,sans-Serif" font-size="10.00">Thinksquirrel.WordGameBuilder.</text>
<text text-anchor="middle" x="185" y="-7.5" font-family="Helvetica,sans-Serif" font-size="10.00">WGBBase.LogError</text>
</a>
</g>
</g>
<!-- Node1&#45;&gt;Node3 -->
<g id="edge2" class="edge"><title>Node1&#45;&gt;Node3</title>
<path fill="none" stroke="midnightblue" d="M60.1383,-34.9293C70.7092,-33.2711 83.2692,-31.3009 96.2716,-29.2613"/>
<polygon fill="midnightblue" stroke="midnightblue" points="96.9385,-32.6996 106.275,-27.6921 95.8536,-25.7842 96.9385,-32.6996"/>
</g>
</g>
</svg>
