<?xml version="1.0" encoding="UTF-8" standalone="no"?>
<!DOCTYPE svg PUBLIC "-//W3C//DTD SVG 1.1//EN"
 "http://www.w3.org/Graphics/SVG/1.1/DTD/svg11.dtd">
<!-- Generated by graphviz version 2.38.0 (20140413.2041)
 -->
<!-- Title: Graphical Class Hierarchy Pages: 1 -->
<svg width="509pt" height="864pt"
 viewBox="0.00 0.00 509.00 864.00" xmlns="http://www.w3.org/2000/svg" xmlns:xlink="http://www.w3.org/1999/xlink">
<g id="graph0" class="graph" transform="scale(1 1) rotate(0) translate(4 860)">
<title>Graphical Class Hierarchy</title>
<!-- Node1 -->
<g id="node1" class="node"><title>Node1</title>
<polygon fill="none" stroke="#bfbfbf" points="25,-608.5 25,-627.5 60,-627.5 60,-608.5 25,-608.5"/>
<text text-anchor="middle" x="42.5" y="-615.5" font-family="Helvetica,sans-Serif" font-size="10.00">IList</text>
</g>
<!-- Node2 -->
<g id="node2" class="node"><title>Node2</title>
<g id="a_node2"><a xlink:href="interface_thinksquirrel_1_1_word_game_builder_1_1_object_model_1_1_i_tile_pool.html" target="_top" xlink:title="An interface defining a pool of letter tiles. Implementations must derive from MonoBehaviour in some ...">
<polygon fill="none" stroke="black" points="149.5,-608.5 149.5,-627.5 202.5,-627.5 202.5,-608.5 149.5,-608.5"/>
<text text-anchor="middle" x="176" y="-615.5" font-family="Helvetica,sans-Serif" font-size="10.00">ITilePool</text>
</a>
</g>
</g>
<!-- Node1&#45;&gt;Node2 -->
<g id="edge1" class="edge"><title>Node1&#45;&gt;Node2</title>
<path fill="none" stroke="midnightblue" d="M70.316,-618C93.4693,-618 126.69,-618 149.463,-618"/>
<polygon fill="midnightblue" stroke="midnightblue" points="70.1546,-614.5 60.1546,-618 70.1545,-621.5 70.1546,-614.5"/>
</g>
<!-- Node3 -->
<g id="node3" class="node"><title>Node3</title>
<g id="a_node3"><a xlink:href="class_thinksquirrel_1_1_word_game_builder_1_1_gameplay_1_1_tile_pool.html" target="_top" xlink:title="A class that manages an instance pool of letter tiles. ">
<polygon fill="none" stroke="black" points="312.5,-608.5 312.5,-627.5 363.5,-627.5 363.5,-608.5 312.5,-608.5"/>
<text text-anchor="middle" x="338" y="-615.5" font-family="Helvetica,sans-Serif" font-size="10.00">TilePool</text>
</a>
</g>
</g>
<!-- Node2&#45;&gt;Node3 -->
<g id="edge2" class="edge"><title>Node2&#45;&gt;Node3</title>
<path fill="none" stroke="midnightblue" d="M212.872,-618C243.193,-618 285.823,-618 312.408,-618"/>
<polygon fill="midnightblue" stroke="midnightblue" points="212.707,-614.5 202.707,-618 212.707,-621.5 212.707,-614.5"/>
</g>
<!-- Node4 -->
<g id="node4" class="node"><title>Node4</title>
<polygon fill="none" stroke="#bfbfbf" points="124,-684.5 124,-703.5 228,-703.5 228,-684.5 124,-684.5"/>
<text text-anchor="middle" x="176" y="-691.5" font-family="Helvetica,sans-Serif" font-size="10.00">IPointerClickHandler</text>
</g>
<!-- Node5 -->
<g id="node5" class="node"><title>Node5</title>
<g id="a_node5"><a xlink:href="class_thinksquirrel_1_1_word_game_builder_1_1_tiles_1_1_u_i_1_1_letter_tile_u_i_input.html" target="_top" xlink:title="Adds input control to a letter tile, using Unity UI&#39;s pointer events. ">
<polygon fill="none" stroke="black" points="295,-760.5 295,-779.5 381,-779.5 381,-760.5 295,-760.5"/>
<text text-anchor="middle" x="338" y="-767.5" font-family="Helvetica,sans-Serif" font-size="10.00">LetterTileUIInput</text>
</a>
</g>
</g>
<!-- Node4&#45;&gt;Node5 -->
<g id="edge3" class="edge"><title>Node4&#45;&gt;Node5</title>
<path fill="none" stroke="midnightblue" d="M221.117,-707.506C224.56,-709.161 227.899,-710.989 231,-713 250.519,-725.659 247.031,-739.064 267,-751 275.431,-756.039 285.223,-759.772 294.763,-762.525"/>
<polygon fill="midnightblue" stroke="midnightblue" points="222.421,-704.257 211.852,-703.52 219.655,-710.687 222.421,-704.257"/>
</g>
<!-- Node6 -->
<g id="node6" class="node"><title>Node6</title>
<polygon fill="none" stroke="#bfbfbf" points="122.5,-836.5 122.5,-855.5 229.5,-855.5 229.5,-836.5 122.5,-836.5"/>
<text text-anchor="middle" x="176" y="-843.5" font-family="Helvetica,sans-Serif" font-size="10.00">IPointerDownHandler</text>
</g>
<!-- Node6&#45;&gt;Node5 -->
<g id="edge4" class="edge"><title>Node6&#45;&gt;Node5</title>
<path fill="none" stroke="midnightblue" d="M216.274,-832.988C221.277,-831.095 226.291,-829.08 231,-827 263.876,-812.482 300.425,-791.742 320.871,-779.694"/>
<polygon fill="midnightblue" stroke="midnightblue" points="214.946,-829.747 206.75,-836.461 217.344,-836.323 214.946,-829.747"/>
</g>
<!-- Node7 -->
<g id="node7" class="node"><title>Node7</title>
<polygon fill="none" stroke="#bfbfbf" points="123,-798.5 123,-817.5 229,-817.5 229,-798.5 123,-798.5"/>
<text text-anchor="middle" x="176" y="-805.5" font-family="Helvetica,sans-Serif" font-size="10.00">IPointerEnterHandler</text>
</g>
<!-- Node7&#45;&gt;Node5 -->
<g id="edge5" class="edge"><title>Node7&#45;&gt;Node5</title>
<path fill="none" stroke="midnightblue" d="M227.392,-796.032C249.813,-790.707 275.847,-784.524 296.916,-779.52"/>
<polygon fill="midnightblue" stroke="midnightblue" points="226.295,-792.695 217.375,-798.411 227.913,-799.505 226.295,-792.695"/>
</g>
<!-- Node8 -->
<g id="node8" class="node"><title>Node8</title>
<polygon fill="none" stroke="#bfbfbf" points="126,-760.5 126,-779.5 226,-779.5 226,-760.5 126,-760.5"/>
<text text-anchor="middle" x="176" y="-767.5" font-family="Helvetica,sans-Serif" font-size="10.00">IPointerExitHandler</text>
</g>
<!-- Node8&#45;&gt;Node5 -->
<g id="edge6" class="edge"><title>Node8&#45;&gt;Node5</title>
<path fill="none" stroke="midnightblue" d="M236.564,-770C255.943,-770 277.037,-770 294.868,-770"/>
<polygon fill="midnightblue" stroke="midnightblue" points="236.311,-766.5 226.311,-770 236.311,-773.5 236.311,-766.5"/>
</g>
<!-- Node9 -->
<g id="node9" class="node"><title>Node9</title>
<polygon fill="none" stroke="#bfbfbf" points="128.5,-722.5 128.5,-741.5 223.5,-741.5 223.5,-722.5 128.5,-722.5"/>
<text text-anchor="middle" x="176" y="-729.5" font-family="Helvetica,sans-Serif" font-size="10.00">IPointerUpHandler</text>
</g>
<!-- Node9&#45;&gt;Node5 -->
<g id="edge7" class="edge"><title>Node9&#45;&gt;Node5</title>
<path fill="none" stroke="midnightblue" d="M227.392,-743.968C249.813,-749.293 275.847,-755.476 296.916,-760.48"/>
<polygon fill="midnightblue" stroke="midnightblue" points="227.913,-740.495 217.375,-741.589 226.295,-747.305 227.913,-740.495"/>
</g>
<!-- Node10 -->
<g id="node10" class="node"><title>Node10</title>
<polygon fill="none" stroke="#bfbfbf" points="1,-285.5 1,-304.5 84,-304.5 84,-285.5 1,-285.5"/>
<text text-anchor="middle" x="42.5" y="-292.5" font-family="Helvetica,sans-Serif" font-size="10.00">MonoBehaviour</text>
</g>
<!-- Node11 -->
<g id="node11" class="node"><title>Node11</title>
<g id="a_node11"><a xlink:href="class_thinksquirrel_1_1_word_game_builder_1_1_w_g_b_base.html" target="_top" xlink:title="The base class for all Word Game Builder components. ">
<polygon fill="none" stroke="black" points="144.5,-323.5 144.5,-342.5 207.5,-342.5 207.5,-323.5 144.5,-323.5"/>
<text text-anchor="middle" x="176" y="-330.5" font-family="Helvetica,sans-Serif" font-size="10.00">WGBBase</text>
</a>
</g>
</g>
<!-- Node10&#45;&gt;Node11 -->
<g id="edge8" class="edge"><title>Node10&#45;&gt;Node11</title>
<path fill="none" stroke="midnightblue" d="M86.5001,-307.426C105.295,-312.857 126.918,-319.106 144.086,-324.067"/>
<polygon fill="midnightblue" stroke="midnightblue" points="87.2616,-304.003 76.683,-304.589 85.3183,-310.728 87.2616,-304.003"/>
</g>
<!-- Node28 -->
<g id="node28" class="node"><title>Node28</title>
<g id="a_node28"><a xlink:href="class_thinksquirrel_1_1_word_game_builder_example_1_1_example_view.html" target="_top" xlink:title="This class is responsible for rendering the UI. ">
<polygon fill="none" stroke="black" points="138,-247.5 138,-266.5 214,-266.5 214,-247.5 138,-247.5"/>
<text text-anchor="middle" x="176" y="-254.5" font-family="Helvetica,sans-Serif" font-size="10.00">ExampleView</text>
</a>
</g>
</g>
<!-- Node10&#45;&gt;Node28 -->
<g id="edge27" class="edge"><title>Node10&#45;&gt;Node28</title>
<path fill="none" stroke="midnightblue" d="M86.3778,-282.609C104.386,-277.406 125.01,-271.446 141.828,-266.586"/>
<polygon fill="midnightblue" stroke="midnightblue" points="85.3183,-279.272 76.683,-285.411 87.2616,-285.997 85.3183,-279.272"/>
</g>
<!-- Node29 -->
<g id="node29" class="node"><title>Node29</title>
<g id="a_node29"><a xlink:href="class_thinksquirrel_1_1_word_game_builder_example_1_1_example_view_model.html" target="_top" xlink:title="This class is responsible for sending and receiving data between the game and the UI...">
<polygon fill="none" stroke="black" points="125,-285.5 125,-304.5 227,-304.5 227,-285.5 125,-285.5"/>
<text text-anchor="middle" x="176" y="-292.5" font-family="Helvetica,sans-Serif" font-size="10.00">ExampleViewModel</text>
</a>
</g>
</g>
<!-- Node10&#45;&gt;Node29 -->
<g id="edge28" class="edge"><title>Node10&#45;&gt;Node29</title>
<path fill="none" stroke="midnightblue" d="M94.2094,-295C104.19,-295 114.658,-295 124.627,-295"/>
<polygon fill="midnightblue" stroke="midnightblue" points="94.0274,-291.5 84.0273,-295 94.0273,-298.5 94.0274,-291.5"/>
</g>
<!-- Node11&#45;&gt;Node3 -->
<g id="edge9" class="edge"><title>Node11&#45;&gt;Node3</title>
<path fill="none" stroke="midnightblue" d="M184.057,-352.172C194.586,-380.925 214.891,-436.972 231,-485 247.896,-535.375 228.67,-562.204 267,-599 279.082,-610.598 297.504,-615.274 312.417,-617.089"/>
<polygon fill="midnightblue" stroke="midnightblue" points="187.262,-350.744 180.53,-342.562 180.69,-353.156 187.262,-350.744"/>
</g>
<!-- Node11&#45;&gt;Node5 -->
<g id="edge25" class="edge"><title>Node11&#45;&gt;Node5</title>
<path fill="none" stroke="midnightblue" d="M185.31,-352.281C197.248,-380.764 219.118,-436.011 231,-485 245.059,-542.969 227.662,-706.16 267,-751 274.142,-759.141 284.385,-763.956 294.84,-766.762"/>
<polygon fill="midnightblue" stroke="midnightblue" points="188.391,-350.581 181.262,-342.743 181.947,-353.316 188.391,-350.581"/>
</g>
<!-- Node12 -->
<g id="node12" class="node"><title>Node12</title>
<g id="a_node12"><a xlink:href="class_thinksquirrel_1_1_word_game_builder_1_1_gameplay_1_1_wildcard_tile_manager.html" target="_top" xlink:title="A manager class for selecting wildcard tiles. ">
<polygon fill="none" stroke="black" points="284.5,-570.5 284.5,-589.5 391.5,-589.5 391.5,-570.5 284.5,-570.5"/>
<text text-anchor="middle" x="338" y="-577.5" font-family="Helvetica,sans-Serif" font-size="10.00">WildcardTileManager</text>
</a>
</g>
</g>
<!-- Node11&#45;&gt;Node12 -->
<g id="edge10" class="edge"><title>Node11&#45;&gt;Node12</title>
<path fill="none" stroke="midnightblue" d="M183.517,-352.34C201.311,-404.691 250.494,-546.23 267,-561 272.067,-565.534 278.112,-569.001 284.495,-571.649"/>
<polygon fill="midnightblue" stroke="midnightblue" points="186.742,-350.95 180.22,-342.601 180.112,-353.195 186.742,-350.95"/>
</g>
<!-- Node13 -->
<g id="node13" class="node"><title>Node13</title>
<g id="a_node13"><a xlink:href="class_thinksquirrel_1_1_word_game_builder_1_1_gameplay_1_1_word_game_agent.html" target="_top" xlink:title="Represents a word game AI agent. The agent is multithreaded and supports automatic selection/submissi...">
<polygon fill="none" stroke="black" points="292,-532.5 292,-551.5 384,-551.5 384,-532.5 292,-532.5"/>
<text text-anchor="middle" x="338" y="-539.5" font-family="Helvetica,sans-Serif" font-size="10.00">WordGameAgent</text>
</a>
</g>
</g>
<!-- Node11&#45;&gt;Node13 -->
<g id="edge11" class="edge"><title>Node11&#45;&gt;Node13</title>
<path fill="none" stroke="midnightblue" d="M180.625,-352.577C188.822,-391.193 212.477,-477.379 267,-523 274.05,-528.899 282.771,-532.979 291.638,-535.797"/>
<polygon fill="midnightblue" stroke="midnightblue" points="184.027,-351.737 178.635,-342.617 177.163,-353.109 184.027,-351.737"/>
</g>
<!-- Node14 -->
<g id="node14" class="node"><title>Node14</title>
<g id="a_node14"><a xlink:href="class_thinksquirrel_1_1_word_game_builder_1_1_gameplay_1_1_word_game_player.html" target="_top" xlink:title="Represents a word game player. It tracks scores, holds tiles, and can be controlled by an AI agent...">
<polygon fill="none" stroke="black" points="291,-494.5 291,-513.5 385,-513.5 385,-494.5 291,-494.5"/>
<text text-anchor="middle" x="338" y="-501.5" font-family="Helvetica,sans-Serif" font-size="10.00">WordGamePlayer</text>
</a>
</g>
</g>
<!-- Node11&#45;&gt;Node14 -->
<g id="edge12" class="edge"><title>Node11&#45;&gt;Node14</title>
<path fill="none" stroke="midnightblue" d="M183.929,-352.573C195.992,-383.911 223.771,-445.337 267,-480 274.818,-486.269 284.37,-490.945 293.874,-494.418"/>
<polygon fill="midnightblue" stroke="midnightblue" points="187.077,-350.995 180.318,-342.836 180.514,-353.429 187.077,-350.995"/>
</g>
<!-- Node15 -->
<g id="node15" class="node"><title>Node15</title>
<g id="a_node15"><a xlink:href="class_thinksquirrel_1_1_word_game_builder_1_1_tiles_1_1_daikon_forge_1_1_letter_tile_daikon_forge_control.html" target="_top" xlink:title="Adds Daikon Forge GUI display to a letter tile. ">
<polygon fill="none" stroke="black" points="267,-152.5 267,-171.5 409,-171.5 409,-152.5 267,-152.5"/>
<text text-anchor="middle" x="338" y="-159.5" font-family="Helvetica,sans-Serif" font-size="10.00">LetterTileDaikonForgeControl</text>
</a>
</g>
</g>
<!-- Node11&#45;&gt;Node15 -->
<g id="edge13" class="edge"><title>Node11&#45;&gt;Node15</title>
<path fill="none" stroke="midnightblue" d="M217.207,-323.915C222.351,-321.381 227.154,-318.142 231,-314 272.671,-269.126 223.713,-224.317 267,-181 270.827,-177.17 275.344,-174.09 280.21,-171.617"/>
<polygon fill="midnightblue" stroke="midnightblue" points="215.67,-320.761 207.711,-327.755 218.294,-327.25 215.67,-320.761"/>
</g>
<!-- Node16 -->
<g id="node16" class="node"><title>Node16</title>
<g id="a_node16"><a xlink:href="class_thinksquirrel_1_1_word_game_builder_1_1_tiles_1_1_daikon_forge_1_1_letter_tile_daikon_forge_input.html" target="_top" xlink:title="Adds input control to a letter tile, using DF&#45;GUI&#39;s events. ">
<polygon fill="none" stroke="black" points="272,-114.5 272,-133.5 404,-133.5 404,-114.5 272,-114.5"/>
<text text-anchor="middle" x="338" y="-121.5" font-family="Helvetica,sans-Serif" font-size="10.00">LetterTileDaikonForgeInput</text>
</a>
</g>
</g>
<!-- Node11&#45;&gt;Node16 -->
<g id="edge14" class="edge"><title>Node11&#45;&gt;Node16</title>
<path fill="none" stroke="midnightblue" d="M217.255,-324.194C222.432,-321.621 227.232,-318.296 231,-314 282.211,-255.609 213.685,-199.475 267,-143 270.631,-139.154 274.954,-136.059 279.645,-133.571"/>
<polygon fill="midnightblue" stroke="midnightblue" points="215.632,-321.075 207.668,-328.061 218.251,-327.566 215.632,-321.075"/>
</g>
<!-- Node17 -->
<g id="node17" class="node"><title>Node17</title>
<g id="a_node17"><a xlink:href="class_thinksquirrel_1_1_word_game_builder_1_1_tiles_1_1_letter_tile.html" target="_top" xlink:title="A standard letter tile. Includes support for selection, wildcard tiles, multiple colors, input, and state querying. ">
<polygon fill="none" stroke="black" points="445,-665.5 445,-684.5 501,-684.5 501,-665.5 445,-665.5"/>
<text text-anchor="middle" x="473" y="-672.5" font-family="Helvetica,sans-Serif" font-size="10.00">LetterTile</text>
</a>
</g>
</g>
<!-- Node11&#45;&gt;Node17 -->
<g id="edge15" class="edge"><title>Node11&#45;&gt;Node17</title>
<path fill="none" stroke="midnightblue" d="M186.664,-351.667C200.82,-377.134 229.622,-422.404 267,-447 321.576,-482.912 361.468,-440.179 409,-485 463.108,-536.022 470.778,-634.512 471.838,-665.456"/>
<polygon fill="midnightblue" stroke="midnightblue" points="189.639,-349.81 181.815,-342.667 183.477,-353.131 189.639,-349.81"/>
</g>
<!-- Node18 -->
<g id="node18" class="node"><title>Node18</title>
<g id="a_node18"><a xlink:href="class_thinksquirrel_1_1_word_game_builder_1_1_tiles_1_1_letter_tile_animation.html" target="_top" xlink:title="Adds animation to a letter tile. ">
<polygon fill="none" stroke="black" points="288,-76.5 288,-95.5 388,-95.5 388,-76.5 288,-76.5"/>
<text text-anchor="middle" x="338" y="-83.5" font-family="Helvetica,sans-Serif" font-size="10.00">LetterTileAnimation</text>
</a>
</g>
</g>
<!-- Node11&#45;&gt;Node18 -->
<g id="edge16" class="edge"><title>Node11&#45;&gt;Node18</title>
<path fill="none" stroke="midnightblue" d="M216.838,-324.596C222.211,-321.97 227.179,-318.523 231,-314 291.832,-242.001 203.572,-174.722 267,-105 272.593,-98.8523 279.954,-94.6116 287.801,-91.7033"/>
<polygon fill="midnightblue" stroke="midnightblue" points="215.545,-321.344 207.543,-328.287 218.129,-327.849 215.545,-321.344"/>
</g>
<!-- Node19 -->
<g id="node19" class="node"><title>Node19</title>
<g id="a_node19"><a xlink:href="class_thinksquirrel_1_1_word_game_builder_1_1_tiles_1_1_letter_tile_color_control.html" target="_top" xlink:title="Automatically controls the color of objects based on a letter tile&#39;s state. ">
<polygon fill="none" stroke="black" points="283,-38.5 283,-57.5 393,-57.5 393,-38.5 283,-38.5"/>
<text text-anchor="middle" x="338" y="-45.5" font-family="Helvetica,sans-Serif" font-size="10.00">LetterTileColorControl</text>
</a>
</g>
</g>
<!-- Node11&#45;&gt;Node19 -->
<g id="edge17" class="edge"><title>Node11&#45;&gt;Node19</title>
<path fill="none" stroke="midnightblue" d="M217.333,-324.488C222.541,-321.875 227.329,-318.46 231,-314 301.496,-228.341 193.413,-150.019 267,-67 271.343,-62.0998 276.811,-58.4064 282.766,-55.6316"/>
<polygon fill="midnightblue" stroke="midnightblue" points="215.627,-321.402 207.655,-328.38 218.239,-327.897 215.627,-321.402"/>
</g>
<!-- Node20 -->
<g id="node20" class="node"><title>Node20</title>
<g id="a_node20"><a xlink:href="class_thinksquirrel_1_1_word_game_builder_1_1_tiles_1_1_letter_tile_label_control.html" target="_top" xlink:title="Automatically controls the text on objects based on a letter tile&#39;s state. ">
<polygon fill="none" stroke="black" points="283,-0.5 283,-19.5 393,-19.5 393,-0.5 283,-0.5"/>
<text text-anchor="middle" x="338" y="-7.5" font-family="Helvetica,sans-Serif" font-size="10.00">LetterTileLabelControl</text>
</a>
</g>
</g>
<!-- Node11&#45;&gt;Node20 -->
<g id="edge18" class="edge"><title>Node11&#45;&gt;Node20</title>
<path fill="none" stroke="midnightblue" d="M217.41,-324.551C222.607,-321.929 227.372,-318.495 231,-314 311.187,-214.65 183.228,-125.346 267,-29 271.297,-24.0586 276.736,-20.3407 282.676,-17.5531"/>
<polygon fill="midnightblue" stroke="midnightblue" points="215.705,-321.464 207.738,-328.448 218.321,-327.957 215.705,-321.464"/>
</g>
<!-- Node21 -->
<g id="node21" class="node"><title>Node21</title>
<g id="a_node21"><a xlink:href="class_thinksquirrel_1_1_word_game_builder_1_1_tiles_1_1_letter_tile_mouse_input.html" target="_top" xlink:title="Adds input control to a letter tile, using Unity&#39;s OnMouse[...] methods. ">
<polygon fill="none" stroke="black" points="284.5,-418.5 284.5,-437.5 391.5,-437.5 391.5,-418.5 284.5,-418.5"/>
<text text-anchor="middle" x="338" y="-425.5" font-family="Helvetica,sans-Serif" font-size="10.00">LetterTileMouseInput</text>
</a>
</g>
</g>
<!-- Node11&#45;&gt;Node21 -->
<g id="edge19" class="edge"><title>Node11&#45;&gt;Node21</title>
<path fill="none" stroke="midnightblue" d="M193.031,-350.407C209.867,-367.684 237.897,-393.732 267,-409 274.248,-412.803 282.328,-415.899 290.351,-418.403"/>
<polygon fill="midnightblue" stroke="midnightblue" points="195.139,-347.545 185.71,-342.715 190.069,-352.372 195.139,-347.545"/>
</g>
<!-- Node22 -->
<g id="node22" class="node"><title>Node22</title>
<g id="a_node22"><a xlink:href="class_thinksquirrel_1_1_word_game_builder_1_1_tiles_1_1_letter_tile_visibility_control.html" target="_top" xlink:title="Automatically controls the visibility of objects based on a letter tile&#39;s state. ">
<polygon fill="none" stroke="black" points="276,-380.5 276,-399.5 400,-399.5 400,-380.5 276,-380.5"/>
<text text-anchor="middle" x="338" y="-387.5" font-family="Helvetica,sans-Serif" font-size="10.00">LetterTileVisibilityControl</text>
</a>
</g>
</g>
<!-- Node11&#45;&gt;Node22 -->
<g id="edge20" class="edge"><title>Node11&#45;&gt;Node22</title>
<path fill="none" stroke="midnightblue" d="M206.991,-346.859C224.307,-354.557 246.628,-363.97 267,-371 276.999,-374.45 287.973,-377.682 298.205,-380.467"/>
<polygon fill="midnightblue" stroke="midnightblue" points="207.982,-343.467 197.426,-342.555 205.109,-349.85 207.982,-343.467"/>
</g>
<!-- Node23 -->
<g id="node23" class="node"><title>Node23</title>
<g id="a_node23"><a xlink:href="class_thinksquirrel_1_1_word_game_builder_1_1_tiles_1_1_ngui_1_1_letter_tile_ngui_control.html" target="_top" xlink:title="Adds NGUI display to a letter tile. ">
<polygon fill="none" stroke="black" points="284.5,-342.5 284.5,-361.5 391.5,-361.5 391.5,-342.5 284.5,-342.5"/>
<text text-anchor="middle" x="338" y="-349.5" font-family="Helvetica,sans-Serif" font-size="10.00">LetterTileNguiControl</text>
</a>
</g>
</g>
<!-- Node11&#45;&gt;Node23 -->
<g id="edge21" class="edge"><title>Node11&#45;&gt;Node23</title>
<path fill="none" stroke="midnightblue" d="M217.951,-337.863C238.107,-340.256 262.645,-343.17 284.194,-345.729"/>
<polygon fill="midnightblue" stroke="midnightblue" points="218.193,-334.367 207.85,-336.663 217.367,-341.318 218.193,-334.367"/>
</g>
<!-- Node24 -->
<g id="node24" class="node"><title>Node24</title>
<g id="a_node24"><a xlink:href="class_thinksquirrel_1_1_word_game_builder_1_1_tiles_1_1_ngui_1_1_letter_tile_ngui_input.html" target="_top" xlink:title="Adds input control to a letter tile, using NGUI&#39;s OnPress/OnHover/OnClick methods. ">
<polygon fill="none" stroke="black" points="289.5,-304.5 289.5,-323.5 386.5,-323.5 386.5,-304.5 289.5,-304.5"/>
<text text-anchor="middle" x="338" y="-311.5" font-family="Helvetica,sans-Serif" font-size="10.00">LetterTileNguiInput</text>
</a>
</g>
</g>
<!-- Node11&#45;&gt;Node24 -->
<g id="edge22" class="edge"><title>Node11&#45;&gt;Node24</title>
<path fill="none" stroke="midnightblue" d="M218.068,-328.123C239.794,-325.543 266.587,-322.362 289.239,-319.672"/>
<polygon fill="midnightblue" stroke="midnightblue" points="217.367,-324.682 207.85,-329.337 218.193,-331.633 217.367,-324.682"/>
</g>
<!-- Node25 -->
<g id="node25" class="node"><title>Node25</title>
<g id="a_node25"><a xlink:href="class_thinksquirrel_1_1_word_game_builder_1_1_tiles_1_1_tk2_d_1_1_letter_tile_tk2_d_control.html" target="_top" xlink:title="Adds 2D Toolkit display to a letter tile. ">
<polygon fill="none" stroke="black" points="283,-266.5 283,-285.5 393,-285.5 393,-266.5 283,-266.5"/>
<text text-anchor="middle" x="338" y="-273.5" font-family="Helvetica,sans-Serif" font-size="10.00">LetterTileTk2DControl</text>
</a>
</g>
</g>
<!-- Node11&#45;&gt;Node25 -->
<g id="edge23" class="edge"><title>Node11&#45;&gt;Node25</title>
<path fill="none" stroke="midnightblue" d="M216.259,-319.953C221.264,-318.066 226.283,-316.061 231,-314 247.578,-306.756 250.168,-301.632 267,-295 276.138,-291.399 286.206,-288.229 295.789,-285.561"/>
<polygon fill="midnightblue" stroke="midnightblue" points="214.932,-316.711 206.732,-323.421 217.326,-323.289 214.932,-316.711"/>
</g>
<!-- Node26 -->
<g id="node26" class="node"><title>Node26</title>
<g id="a_node26"><a xlink:href="class_thinksquirrel_1_1_word_game_builder_1_1_tiles_1_1_tk2_d_1_1_letter_tile_tk2_d_input.html" target="_top" xlink:title="Adds input control to a letter tile, using 2D Toolkit&#39;s UI events. ">
<polygon fill="none" stroke="black" points="288,-228.5 288,-247.5 388,-247.5 388,-228.5 288,-228.5"/>
<text text-anchor="middle" x="338" y="-235.5" font-family="Helvetica,sans-Serif" font-size="10.00">LetterTileTk2DInput</text>
</a>
</g>
</g>
<!-- Node11&#45;&gt;Node26 -->
<g id="edge24" class="edge"><title>Node11&#45;&gt;Node26</title>
<path fill="none" stroke="midnightblue" d="M217.24,-322.301C222.15,-320.022 226.88,-317.284 231,-314 254.432,-295.325 242.9,-274.804 267,-257 273.178,-252.436 280.387,-248.968 287.784,-246.333"/>
<polygon fill="midnightblue" stroke="midnightblue" points="215.664,-319.162 207.689,-326.137 218.273,-325.658 215.664,-319.162"/>
</g>
<!-- Node27 -->
<g id="node27" class="node"><title>Node27</title>
<g id="a_node27"><a xlink:href="class_thinksquirrel_1_1_word_game_builder_example_1_1_example_game_logic.html" target="_top" xlink:title="This class is responsible for all game logic. ">
<polygon fill="none" stroke="black" points="286,-190.5 286,-209.5 390,-209.5 390,-190.5 286,-190.5"/>
<text text-anchor="middle" x="338" y="-197.5" font-family="Helvetica,sans-Serif" font-size="10.00">ExampleGameLogic</text>
</a>
</g>
</g>
<!-- Node11&#45;&gt;Node27 -->
<g id="edge26" class="edge"><title>Node11&#45;&gt;Node27</title>
<path fill="none" stroke="midnightblue" d="M217.019,-323.482C222.151,-321.012 227,-317.905 231,-314 263.307,-282.456 233.559,-249.339 267,-219 272.409,-214.092 278.961,-210.433 285.859,-207.709"/>
<polygon fill="midnightblue" stroke="midnightblue" points="215.566,-320.294 207.597,-327.276 218.181,-326.787 215.566,-320.294"/>
</g>
<!-- Node30 -->
<g id="node30" class="node"><title>Node30</title>
<g id="a_node30"><a xlink:href="interface_thinksquirrel_1_1_word_game_builder_1_1_object_model_1_1_i_mono_behaviour.html" target="_top" xlink:title="An interface representation of a MonoBehaviour. ">
<polygon fill="none" stroke="black" points="0,-570.5 0,-589.5 85,-589.5 85,-570.5 0,-570.5"/>
<text text-anchor="middle" x="42.5" y="-577.5" font-family="Helvetica,sans-Serif" font-size="10.00">IMonoBehaviour</text>
</a>
</g>
</g>
<!-- Node30&#45;&gt;Node2 -->
<g id="edge36" class="edge"><title>Node30&#45;&gt;Node2</title>
<path fill="none" stroke="midnightblue" d="M86.5459,-592.439C107.287,-598.433 131.463,-605.419 149.294,-610.572"/>
<polygon fill="midnightblue" stroke="midnightblue" points="87.2616,-589.003 76.683,-589.589 85.3183,-595.728 87.2616,-589.003"/>
</g>
<!-- Node31 -->
<g id="node31" class="node"><title>Node31</title>
<g id="a_node31"><a xlink:href="interface_thinksquirrel_1_1_word_game_builder_1_1_object_model_1_1_i_letter_tile.html" target="_top" xlink:title="An interface defining a letter tile. Implementations must derive from MonoBehaviour in some form...">
<polygon fill="none" stroke="black" points="146.5,-646.5 146.5,-665.5 205.5,-665.5 205.5,-646.5 146.5,-646.5"/>
<text text-anchor="middle" x="176" y="-653.5" font-family="Helvetica,sans-Serif" font-size="10.00">ILetterTile</text>
</a>
</g>
</g>
<!-- Node30&#45;&gt;Node31 -->
<g id="edge29" class="edge"><title>Node30&#45;&gt;Node31</title>
<path fill="none" stroke="midnightblue" d="M77.5079,-594.233C80.1136,-595.723 82.6435,-597.315 85,-599 103.922,-612.534 101.481,-624.341 121,-637 128.671,-641.975 137.803,-645.828 146.354,-648.723"/>
<polygon fill="midnightblue" stroke="midnightblue" points="78.988,-591.058 68.4984,-589.568 75.7695,-597.274 78.988,-591.058"/>
</g>
<!-- Node35 -->
<g id="node35" class="node"><title>Node35</title>
<g id="a_node35"><a xlink:href="interface_thinksquirrel_1_1_word_game_builder_1_1_object_model_1_1_i_wildcard_tile_manager.html" target="_top" xlink:title="An interface defining a manager for selecting wildcard tiles. Implementations must derive from MonoBe...">
<polygon fill="none" stroke="black" points="121,-570.5 121,-589.5 231,-589.5 231,-570.5 121,-570.5"/>
<text text-anchor="middle" x="176" y="-577.5" font-family="Helvetica,sans-Serif" font-size="10.00">IWildcardTileManager</text>
</a>
</g>
</g>
<!-- Node30&#45;&gt;Node35 -->
<g id="edge37" class="edge"><title>Node30&#45;&gt;Node35</title>
<path fill="none" stroke="midnightblue" d="M95.1324,-580C103.514,-580 112.216,-580 120.66,-580"/>
<polygon fill="midnightblue" stroke="midnightblue" points="95.1075,-576.5 85.1074,-580 95.1074,-583.5 95.1075,-576.5"/>
</g>
<!-- Node36 -->
<g id="node36" class="node"><title>Node36</title>
<g id="a_node36"><a xlink:href="interface_thinksquirrel_1_1_word_game_builder_1_1_object_model_1_1_i_word_game_agent.html" target="_top" xlink:title="An interface defining a word game agent. Implementations must derive from MonoBehaviour in some form...">
<polygon fill="none" stroke="black" points="129,-532.5 129,-551.5 223,-551.5 223,-532.5 129,-532.5"/>
<text text-anchor="middle" x="176" y="-539.5" font-family="Helvetica,sans-Serif" font-size="10.00">IWordGameAgent</text>
</a>
</g>
</g>
<!-- Node30&#45;&gt;Node36 -->
<g id="edge39" class="edge"><title>Node30&#45;&gt;Node36</title>
<path fill="none" stroke="midnightblue" d="M86.3778,-567.609C104.386,-562.406 125.01,-556.446 141.828,-551.586"/>
<polygon fill="midnightblue" stroke="midnightblue" points="85.3183,-564.272 76.683,-570.411 87.2616,-570.997 85.3183,-564.272"/>
</g>
<!-- Node37 -->
<g id="node37" class="node"><title>Node37</title>
<g id="a_node37"><a xlink:href="interface_thinksquirrel_1_1_word_game_builder_1_1_object_model_1_1_i_word_game_player.html" target="_top" xlink:title="An interface defining a word game player. Implementations must derive from MonoBehaviour in some form...">
<polygon fill="none" stroke="black" points="128,-494.5 128,-513.5 224,-513.5 224,-494.5 128,-494.5"/>
<text text-anchor="middle" x="176" y="-501.5" font-family="Helvetica,sans-Serif" font-size="10.00">IWordGamePlayer</text>
</a>
</g>
</g>
<!-- Node30&#45;&gt;Node37 -->
<g id="edge41" class="edge"><title>Node30&#45;&gt;Node37</title>
<path fill="none" stroke="midnightblue" d="M62.3585,-563.644C77.4316,-551.206 99.5219,-534.352 121,-523 127.853,-519.378 135.544,-516.199 142.924,-513.529"/>
<polygon fill="midnightblue" stroke="midnightblue" points="59.7494,-561.265 54.3522,-570.382 64.2568,-566.621 59.7494,-561.265"/>
</g>
<!-- Node32 -->
<g id="node32" class="node"><title>Node32</title>
<g id="a_node32"><a xlink:href="interface_thinksquirrel_1_1_word_game_builder_1_1_object_model_1_1_i_letter_tile_display.html" target="_top" xlink:title="An interface defining letter tile colors and labels. ">
<polygon fill="none" stroke="black" points="292.5,-722.5 292.5,-741.5 383.5,-741.5 383.5,-722.5 292.5,-722.5"/>
<text text-anchor="middle" x="338" y="-729.5" font-family="Helvetica,sans-Serif" font-size="10.00">ILetterTileDisplay</text>
</a>
</g>
</g>
<!-- Node31&#45;&gt;Node32 -->
<g id="edge30" class="edge"><title>Node31&#45;&gt;Node32</title>
<path fill="none" stroke="midnightblue" d="M215.403,-666.946C220.841,-669.219 226.206,-671.89 231,-675 250.519,-687.659 247.031,-701.064 267,-713 274.674,-717.587 283.476,-721.091 292.19,-723.76"/>
<polygon fill="midnightblue" stroke="midnightblue" points="216.238,-663.521 205.646,-663.277 213.773,-670.073 216.238,-663.521"/>
</g>
<!-- Node33 -->
<g id="node33" class="node"><title>Node33</title>
<g id="a_node33"><a xlink:href="interface_thinksquirrel_1_1_word_game_builder_1_1_object_model_1_1_i_letter_tile_input.html" target="_top" xlink:title="An interface defining letter tile input events. ">
<polygon fill="none" stroke="black" points="298,-684.5 298,-703.5 378,-703.5 378,-684.5 298,-684.5"/>
<text text-anchor="middle" x="338" y="-691.5" font-family="Helvetica,sans-Serif" font-size="10.00">ILetterTileInput</text>
</a>
</g>
</g>
<!-- Node31&#45;&gt;Node33 -->
<g id="edge32" class="edge"><title>Node31&#45;&gt;Node33</title>
<path fill="none" stroke="midnightblue" d="M215.445,-665.131C240.373,-671.051 272.753,-678.741 297.824,-684.696"/>
<polygon fill="midnightblue" stroke="midnightblue" points="216.143,-661.699 205.605,-662.794 214.525,-668.51 216.143,-661.699"/>
</g>
<!-- Node34 -->
<g id="node34" class="node"><title>Node34</title>
<g id="a_node34"><a xlink:href="interface_thinksquirrel_1_1_word_game_builder_1_1_object_model_1_1_i_selectable_letter_tile.html" target="_top" xlink:title="An interface defining a letter tile that can be selected and deselected. Implementations must derive ...">
<polygon fill="none" stroke="black" points="286,-646.5 286,-665.5 390,-665.5 390,-646.5 286,-646.5"/>
<text text-anchor="middle" x="338" y="-653.5" font-family="Helvetica,sans-Serif" font-size="10.00">ISelectableLetterTile</text>
</a>
</g>
</g>
<!-- Node31&#45;&gt;Node34 -->
<g id="edge34" class="edge"><title>Node31&#45;&gt;Node34</title>
<path fill="none" stroke="midnightblue" d="M215.763,-656C236.771,-656 262.999,-656 285.682,-656"/>
<polygon fill="midnightblue" stroke="midnightblue" points="215.605,-652.5 205.605,-656 215.605,-659.5 215.605,-652.5"/>
</g>
<!-- Node32&#45;&gt;Node17 -->
<g id="edge31" class="edge"><title>Node32&#45;&gt;Node17</title>
<path fill="none" stroke="midnightblue" d="M391.754,-719.386C397.654,-717.475 403.511,-715.346 409,-713 427.088,-705.269 446.212,-693.088 458.58,-684.609"/>
<polygon fill="midnightblue" stroke="midnightblue" points="390.392,-716.142 381.842,-722.398 392.427,-722.84 390.392,-716.142"/>
</g>
<!-- Node33&#45;&gt;Node17 -->
<g id="edge33" class="edge"><title>Node33&#45;&gt;Node17</title>
<path fill="none" stroke="midnightblue" d="M388.27,-686.961C407.417,-684.226 428.611,-681.198 444.885,-678.874"/>
<polygon fill="midnightblue" stroke="midnightblue" points="387.59,-683.523 378.185,-688.402 388.58,-690.453 387.59,-683.523"/>
</g>
<!-- Node34&#45;&gt;Node17 -->
<g id="edge35" class="edge"><title>Node34&#45;&gt;Node17</title>
<path fill="none" stroke="midnightblue" d="M400.2,-664.743C415.801,-666.972 431.794,-669.256 444.714,-671.102"/>
<polygon fill="midnightblue" stroke="midnightblue" points="400.435,-661.241 390.041,-663.292 399.445,-668.171 400.435,-661.241"/>
</g>
<!-- Node35&#45;&gt;Node12 -->
<g id="edge38" class="edge"><title>Node35&#45;&gt;Node12</title>
<path fill="none" stroke="midnightblue" d="M241.384,-580C255.617,-580 270.536,-580 284.243,-580"/>
<polygon fill="midnightblue" stroke="midnightblue" points="241.169,-576.5 231.169,-580 241.169,-583.5 241.169,-576.5"/>
</g>
<!-- Node36&#45;&gt;Node13 -->
<g id="edge40" class="edge"><title>Node36&#45;&gt;Node13</title>
<path fill="none" stroke="midnightblue" d="M233.399,-542C252.582,-542 273.752,-542 291.929,-542"/>
<polygon fill="midnightblue" stroke="midnightblue" points="233.279,-538.5 223.279,-542 233.279,-545.5 233.279,-538.5"/>
</g>
<!-- Node37&#45;&gt;Node14 -->
<g id="edge42" class="edge"><title>Node37&#45;&gt;Node14</title>
<path fill="none" stroke="midnightblue" d="M234.231,-504C252.777,-504 273.104,-504 290.748,-504"/>
<polygon fill="midnightblue" stroke="midnightblue" points="234.14,-500.5 224.14,-504 234.14,-507.5 234.14,-500.5"/>
</g>
</g>
</svg>
