<?xml version="1.0" encoding="UTF-8" standalone="no"?>
<!DOCTYPE svg PUBLIC "-//W3C//DTD SVG 1.1//EN"
 "http://www.w3.org/Graphics/SVG/1.1/DTD/svg11.dtd">
<!-- Generated by graphviz version 2.38.0 (20140413.2041)
 -->
<!-- Title: Graphical Class Hierarchy Pages: 1 -->
<svg width="187pt" height="66pt"
 viewBox="0.00 0.00 187.00 66.00" xmlns="http://www.w3.org/2000/svg" xmlns:xlink="http://www.w3.org/1999/xlink">
<g id="graph0" class="graph" transform="scale(1 1) rotate(0) translate(4 62)">
<title>Graphical Class Hierarchy</title>
<!-- Node1 -->
<g id="node1" class="node"><title>Node1</title>
<polygon fill="none" stroke="#bfbfbf" points="0,-19.5 0,-38.5 67,-38.5 67,-19.5 0,-19.5"/>
<text text-anchor="middle" x="33.5" y="-26.5" font-family="Helvetica,sans-Serif" font-size="10.00">IDisposable</text>
</g>
<!-- Node2 -->
<g id="node2" class="node"><title>Node2</title>
<g id="a_node2"><a xlink:href="class_thinksquirrel_1_1_word_game_builder_1_1_async_task.html" target="_top" xlink:title="Represents an asynchronous task. ">
<polygon fill="none" stroke="black" points="108.5,-38.5 108.5,-57.5 173.5,-57.5 173.5,-38.5 108.5,-38.5"/>
<text text-anchor="middle" x="141" y="-45.5" font-family="Helvetica,sans-Serif" font-size="10.00">AsyncTask</text>
</a>
</g>
</g>
<!-- Node1&#45;&gt;Node2 -->
<g id="edge1" class="edge"><title>Node1&#45;&gt;Node2</title>
<path fill="none" stroke="midnightblue" d="M76.8964,-36.6354C87.4479,-38.5356 98.5747,-40.5395 108.497,-42.3265"/>
<polygon fill="midnightblue" stroke="midnightblue" points="77.4764,-33.1836 67.0143,-34.8557 76.2356,-40.0728 77.4764,-33.1836"/>
</g>
<!-- Node3 -->
<g id="node3" class="node"><title>Node3</title>
<g id="a_node3"><a xlink:href="class_thinksquirrel_1_1_word_game_builder_1_1_tweening_1_1_tweener.html" target="_top" xlink:title="The main tweening class. ">
<polygon fill="none" stroke="black" points="103,-0.5 103,-19.5 179,-19.5 179,-0.5 103,-0.5"/>
<text text-anchor="middle" x="141" y="-7.5" font-family="Helvetica,sans-Serif" font-size="10.00">Tweener&lt; T &gt;</text>
</a>
</g>
</g>
<!-- Node1&#45;&gt;Node3 -->
<g id="edge2" class="edge"><title>Node1&#45;&gt;Node3</title>
<path fill="none" stroke="midnightblue" d="M76.9113,-21.3619C85.5422,-19.8076 94.5574,-18.184 102.983,-16.6665"/>
<polygon fill="midnightblue" stroke="midnightblue" points="76.2356,-17.9272 67.0143,-23.1443 77.4764,-24.8164 76.2356,-17.9272"/>
</g>
</g>
</svg>
