<?xml version="1.0" encoding="UTF-8" standalone="no"?>
<!DOCTYPE svg PUBLIC "-//W3C//DTD SVG 1.1//EN"
 "http://www.w3.org/Graphics/SVG/1.1/DTD/svg11.dtd">
<!-- Generated by graphviz version 2.38.0 (20140413.2041)
 -->
<!-- Title: ClearSelection Pages: 1 -->
<svg width="349pt" height="88pt"
 viewBox="0.00 0.00 349.00 88.00" xmlns="http://www.w3.org/2000/svg" xmlns:xlink="http://www.w3.org/1999/xlink">
<g id="graph0" class="graph" transform="scale(1 1) rotate(0) translate(4 84)">
<title>ClearSelection</title>
<!-- Node1 -->
<g id="node1" class="node"><title>Node1</title>
<polygon fill="#bfbfbf" stroke="black" points="0,-30 0,-49 80,-49 80,-30 0,-30"/>
<text text-anchor="middle" x="40" y="-37" font-family="Helvetica,sans-Serif" font-size="10.00">ClearSelection</text>
</g>
<!-- Node2 -->
<g id="node2" class="node"><title>Node2</title>
<g id="a_node2"><a xlink:href="class_thinksquirrel_1_1_word_game_builder_example_1_1_example_game_logic.html#a2fd969ff4cd73e8d3201f42a6d5126b5" target="_top" xlink:title="This callback fires whenever tiles are distributed by the tile pool. ">
<polygon fill="none" stroke="black" points="116,-49.5 116,-79.5 341,-79.5 341,-49.5 116,-49.5"/>
<text text-anchor="start" x="124" y="-67.5" font-family="Helvetica,sans-Serif" font-size="10.00">Thinksquirrel.WordGameBuilder</text>
<text text-anchor="middle" x="228.5" y="-56.5" font-family="Helvetica,sans-Serif" font-size="10.00">Example.ExampleGameLogic.OnTileDistribution</text>
</a>
</g>
</g>
<!-- Node1&#45;&gt;Node2 -->
<g id="edge1" class="edge"><title>Node1&#45;&gt;Node2</title>
<path fill="none" stroke="midnightblue" d="M90.0696,-46.0777C98.2105,-47.169 106.936,-48.3386 115.896,-49.5397"/>
<polygon fill="midnightblue" stroke="midnightblue" points="90.4729,-42.6005 80.0965,-44.7408 89.5428,-49.5385 90.4729,-42.6005"/>
</g>
<!-- Node3 -->
<g id="node3" class="node"><title>Node3</title>
<g id="a_node3"><a xlink:href="class_thinksquirrel_1_1_word_game_builder_1_1_gameplay_1_1_word_game_agent.html#a17a237457e57625296e6b24feb19c60a" target="_top" xlink:title="Stops all actions currently in progress by the agent. ">
<polygon fill="none" stroke="black" points="147.5,-0.5 147.5,-30.5 309.5,-30.5 309.5,-0.5 147.5,-0.5"/>
<text text-anchor="start" x="155.5" y="-18.5" font-family="Helvetica,sans-Serif" font-size="10.00">Thinksquirrel.WordGameBuilder.</text>
<text text-anchor="middle" x="228.5" y="-7.5" font-family="Helvetica,sans-Serif" font-size="10.00">Gameplay.WordGameAgent.Stop</text>
</a>
</g>
</g>
<!-- Node1&#45;&gt;Node3 -->
<g id="edge2" class="edge"><title>Node1&#45;&gt;Node3</title>
<path fill="none" stroke="midnightblue" d="M90.083,-33.1837C107.621,-30.9268 127.869,-28.3211 147.341,-25.8154"/>
<polygon fill="midnightblue" stroke="midnightblue" points="89.568,-29.721 80.0965,-34.4688 90.4615,-36.6638 89.568,-29.721"/>
</g>
</g>
</svg>
