<?xml version="1.0" encoding="UTF-8" standalone="no"?>
<!DOCTYPE svg PUBLIC "-//W3C//DTD SVG 1.1//EN"
 "http://www.w3.org/Graphics/SVG/1.1/DTD/svg11.dtd">
<!-- Generated by graphviz version 2.38.0 (20140413.2041)
 -->
<!-- Title: WGBEventDelegate Pages: 1 -->
<svg width="304pt" height="137pt"
 viewBox="0.00 0.00 304.00 137.00" xmlns="http://www.w3.org/2000/svg" xmlns:xlink="http://www.w3.org/1999/xlink">
<g id="graph0" class="graph" transform="scale(1 1) rotate(0) translate(4 133)">
<title>WGBEventDelegate</title>
<!-- Node1 -->
<g id="node1" class="node"><title>Node1</title>
<polygon fill="#bfbfbf" stroke="black" points="0,-55 0,-74 103,-74 103,-55 0,-55"/>
<text text-anchor="middle" x="51.5" y="-62" font-family="Helvetica,sans-Serif" font-size="10.00">WGBEventDelegate</text>
</g>
<!-- Node2 -->
<g id="node2" class="node"><title>Node2</title>
<g id="a_node2"><a xlink:href="class_thinksquirrel_1_1_word_game_builder_1_1_w_g_b_event.html#a4ef9e2518bb9cc9cdd8788e10ea4db76" target="_top" xlink:title="Sets the event with a MonoBehaviour and method name. ">
<polygon fill="none" stroke="black" points="139,-98.5 139,-128.5 296,-128.5 296,-98.5 139,-98.5"/>
<text text-anchor="start" x="147" y="-116.5" font-family="Helvetica,sans-Serif" font-size="10.00">Thinksquirrel.WordGameBuilder.</text>
<text text-anchor="middle" x="217.5" y="-105.5" font-family="Helvetica,sans-Serif" font-size="10.00">WGBEvent.SetDelegate</text>
</a>
</g>
</g>
<!-- Node1&#45;&gt;Node2 -->
<g id="edge1" class="edge"><title>Node1&#45;&gt;Node2</title>
<path fill="none" stroke="midnightblue" d="M94.183,-76.9541C116.089,-83.4992 143.106,-91.5713 166.172,-98.463"/>
<polygon fill="midnightblue" stroke="midnightblue" points="95.0936,-73.5733 84.5102,-74.064 93.0897,-80.2804 95.0936,-73.5733"/>
</g>
<!-- Node3 -->
<g id="node3" class="node"><title>Node3</title>
<g id="a_node3"><a xlink:href="class_thinksquirrel_1_1_word_game_builder_1_1_w_g_b_event.html#a47379d321a19a51046a19525f592198f" target="_top" xlink:title="Gets the raw delegate value. ">
<polygon fill="none" stroke="black" points="139,-49.5 139,-79.5 296,-79.5 296,-49.5 139,-49.5"/>
<text text-anchor="start" x="147" y="-67.5" font-family="Helvetica,sans-Serif" font-size="10.00">Thinksquirrel.WordGameBuilder.</text>
<text text-anchor="middle" x="217.5" y="-56.5" font-family="Helvetica,sans-Serif" font-size="10.00">WGBEvent.GetDelegate</text>
</a>
</g>
</g>
<!-- Node1&#45;&gt;Node3 -->
<g id="edge2" class="edge"><title>Node1&#45;&gt;Node3</title>
<path fill="none" stroke="midnightblue" d="M113.132,-64.5C121.556,-64.5 130.303,-64.5 138.983,-64.5"/>
<polygon fill="midnightblue" stroke="midnightblue" points="113.044,-61.0001 103.044,-64.5 113.044,-68.0001 113.044,-61.0001"/>
</g>
<!-- Node4 -->
<g id="node4" class="node"><title>Node4</title>
<g id="a_node4"><a xlink:href="class_thinksquirrel_1_1_word_game_builder_1_1_w_g_b_event.html#a1d1bb3dc8aced774e8d39583356f2dd3" target="_top" xlink:title="Remove the first instance of an event. ">
<polygon fill="none" stroke="black" points="139,-0.5 139,-30.5 296,-30.5 296,-0.5 139,-0.5"/>
<text text-anchor="start" x="147" y="-18.5" font-family="Helvetica,sans-Serif" font-size="10.00">Thinksquirrel.WordGameBuilder.</text>
<text text-anchor="middle" x="217.5" y="-7.5" font-family="Helvetica,sans-Serif" font-size="10.00">WGBEvent.Remove</text>
</a>
</g>
</g>
<!-- Node1&#45;&gt;Node4 -->
<g id="edge3" class="edge"><title>Node1&#45;&gt;Node4</title>
<path fill="none" stroke="midnightblue" d="M94.183,-52.0459C116.089,-45.5008 143.106,-37.4287 166.172,-30.537"/>
<polygon fill="midnightblue" stroke="midnightblue" points="93.0897,-48.7196 84.5102,-54.936 95.0936,-55.4267 93.0897,-48.7196"/>
</g>
</g>
</svg>
