<?xml version="1.0" encoding="UTF-8" standalone="no"?>
<!DOCTYPE svg PUBLIC "-//W3C//DTD SVG 1.1//EN"
 "http://www.w3.org/Graphics/SVG/1.1/DTD/svg11.dtd">
<!-- Generated by graphviz version 2.38.0 (20140413.2041)
 -->
<!-- Title: CompareTo Pages: 1 -->
<svg width="187pt" height="66pt"
 viewBox="0.00 0.00 187.00 66.00" xmlns="http://www.w3.org/2000/svg" xmlns:xlink="http://www.w3.org/1999/xlink">
<g id="graph0" class="graph" transform="scale(1 1) rotate(0) translate(4 62)">
<title>CompareTo</title>
<!-- Node1 -->
<g id="node1" class="node"><title>Node1</title>
<polygon fill="#bfbfbf" stroke="black" points="0,-19.5 0,-38.5 66,-38.5 66,-19.5 0,-19.5"/>
<text text-anchor="middle" x="33" y="-26.5" font-family="Helvetica,sans-Serif" font-size="10.00">CompareTo</text>
</g>
<!-- Node2 -->
<g id="node2" class="node"><title>Node2</title>
<g id="a_node2"><a xlink:href="struct_thinksquirrel_1_1_word_game_builder_1_1_letter.html#aadf763f0213fc2f3875230b06bb0b6cf" target="_top" xlink:title="Override for System.Object.Equals. ">
<polygon fill="none" stroke="black" points="117,-38.5 117,-57.5 164,-57.5 164,-38.5 117,-38.5"/>
<text text-anchor="middle" x="140.5" y="-45.5" font-family="Helvetica,sans-Serif" font-size="10.00">Equals</text>
</a>
</g>
</g>
<!-- Node1&#45;&gt;Node2 -->
<g id="edge1" class="edge"><title>Node1&#45;&gt;Node2</title>
<path fill="none" stroke="midnightblue" d="M66.2267,-34.8039C79.1367,-37.1289 93.9897,-39.8038 106.933,-42.1349"/>
<polygon fill="midnightblue" stroke="midnightblue" points="106.369,-45.5895 116.831,-43.9175 107.61,-38.7004 106.369,-45.5895"/>
</g>
<!-- Node3 -->
<g id="node3" class="node"><title>Node3</title>
<g id="a_node3"><a xlink:href="struct_thinksquirrel_1_1_word_game_builder_1_1_letter.html#a77e1afa2b6dee1ed3640da81d7407b42" target="_top" xlink:title="Override for System.Object.GetHashCode. ">
<polygon fill="none" stroke="black" points="102,-0.5 102,-19.5 179,-19.5 179,-0.5 102,-0.5"/>
<text text-anchor="middle" x="140.5" y="-7.5" font-family="Helvetica,sans-Serif" font-size="10.00">GetHashCode</text>
</a>
</g>
</g>
<!-- Node1&#45;&gt;Node3 -->
<g id="edge2" class="edge"><title>Node1&#45;&gt;Node3</title>
<path fill="none" stroke="midnightblue" d="M66.2267,-23.1961C74.3278,-21.7372 83.1939,-20.1404 91.8733,-18.5773"/>
<polygon fill="midnightblue" stroke="midnightblue" points="92.698,-21.9852 101.919,-16.7681 91.4573,-15.096 92.698,-21.9852"/>
</g>
</g>
</svg>
