<?xml version="1.0" encoding="UTF-8" standalone="no"?>
<!DOCTYPE svg PUBLIC "-//W3C//DTD SVG 1.1//EN"
 "http://www.w3.org/Graphics/SVG/1.1/DTD/svg11.dtd">
<!-- Generated by graphviz version 2.38.0 (20140413.2041)
 -->
<!-- Title: LanguageEditor Pages: 1 -->
<svg width="110pt" height="164pt"
 viewBox="0.00 0.00 110.44 164.00" xmlns="http://www.w3.org/2000/svg" xmlns:xlink="http://www.w3.org/1999/xlink">
<g id="graph0" class="graph" transform="scale(1 1) rotate(0) translate(4 160)">
<title>LanguageEditor</title>
<!-- Node1 -->
<g id="node1" class="node"><title>Node1</title>
<polygon fill="#bfbfbf" stroke="black" points="0,-0.5 0,-64.5 102.44,-64.5 102.44,-0.5 0,-0.5"/>
<text text-anchor="middle" x="51.2202" y="-52.5" font-family="Helvetica,sans-Serif" font-size="10.00">LanguageEditor</text>
<polyline fill="none" stroke="black" points="0,-46.5 102.44,-46.5 "/>
<text text-anchor="start" x="8" y="-34.5" font-family="Helvetica,sans-Serif" font-size="10.00">+ languagePath</text>
<polyline fill="none" stroke="black" points="0,-28.5 102.44,-28.5 "/>
<text text-anchor="start" x="8" y="-16.5" font-family="Helvetica,sans-Serif" font-size="10.00">+ LangToIdentifier()</text>
<text text-anchor="start" x="8" y="-6.5" font-family="Helvetica,sans-Serif" font-size="10.00">+ SaveLanguage()</text>
</g>
<!-- Node2 -->
<g id="node2" class="node"><title>Node2</title>
<polygon fill="none" stroke="#bfbfbf" points="12.3755,-101.5 12.3755,-155.5 90.0649,-155.5 90.0649,-101.5 12.3755,-101.5"/>
<text text-anchor="middle" x="51.2202" y="-143.5" font-family="Helvetica,sans-Serif" font-size="10.00">EditorWindow</text>
<polyline fill="none" stroke="#bfbfbf" points="12.3755,-137.5 90.0649,-137.5 "/>
<text text-anchor="middle" x="51.2202" y="-125.5" font-family="Helvetica,sans-Serif" font-size="10.00"> </text>
<polyline fill="none" stroke="#bfbfbf" points="12.3755,-119.5 90.0649,-119.5 "/>
<text text-anchor="middle" x="51.2202" y="-107.5" font-family="Helvetica,sans-Serif" font-size="10.00"> </text>
</g>
<!-- Node2&#45;&gt;Node1 -->
<g id="edge1" class="edge"><title>Node2&#45;&gt;Node1</title>
<path fill="none" stroke="midnightblue" d="M51.2202,-91.2838C51.2202,-82.4601 51.2202,-73.1003 51.2202,-64.5417"/>
<polygon fill="none" stroke="midnightblue" points="47.7203,-91.3157 51.2202,-101.316 54.7203,-91.3158 47.7203,-91.3157"/>
</g>
</g>
</svg>
