<?xml version="1.0" encoding="UTF-8" standalone="no"?>
<!DOCTYPE svg PUBLIC "-//W3C//DTD SVG 1.1//EN"
 "http://www.w3.org/Graphics/SVG/1.1/DTD/svg11.dtd">
<!-- Generated by graphviz version 2.38.0 (20140413.2041)
 -->
<!-- Title: ExampleViewModel.LanguagesContext Pages: 1 -->
<svg width="164pt" height="204pt"
 viewBox="0.00 0.00 163.91 204.00" xmlns="http://www.w3.org/2000/svg" xmlns:xlink="http://www.w3.org/1999/xlink">
<g id="graph0" class="graph" transform="scale(1 1) rotate(0) translate(4 200)">
<title>ExampleViewModel.LanguagesContext</title>
<!-- Node1 -->
<g id="node1" class="node"><title>Node1</title>
<polygon fill="#bfbfbf" stroke="black" points="0,-0.5 0,-104.5 155.912,-104.5 155.912,-0.5 0,-0.5"/>
<text text-anchor="start" x="8" y="-92.5" font-family="Helvetica,sans-Serif" font-size="10.00">ExampleViewModel.Languages</text>
<text text-anchor="middle" x="77.9561" y="-82.5" font-family="Helvetica,sans-Serif" font-size="10.00">Context</text>
<polyline fill="none" stroke="black" points="0,-76.5 155.912,-76.5 "/>
<text text-anchor="start" x="8" y="-64.5" font-family="Helvetica,sans-Serif" font-size="10.00">+ currentLanguage</text>
<text text-anchor="start" x="8" y="-54.5" font-family="Helvetica,sans-Serif" font-size="10.00">+ currentLanguageIsLoaded</text>
<text text-anchor="start" x="8" y="-44.5" font-family="Helvetica,sans-Serif" font-size="10.00">+ currentLetters</text>
<text text-anchor="start" x="8" y="-34.5" font-family="Helvetica,sans-Serif" font-size="10.00">+ languageLoadProgress</text>
<text text-anchor="start" x="8" y="-24.5" font-family="Helvetica,sans-Serif" font-size="10.00">+ languageNames</text>
<polyline fill="none" stroke="black" points="0,-18.5 155.912,-18.5 "/>
<text text-anchor="start" x="8" y="-6.5" font-family="Helvetica,sans-Serif" font-size="10.00">+ ChangeLanguage()</text>
</g>
<!-- Node2 -->
<g id="node2" class="node"><title>Node2</title>
<g id="a_node2"><a xlink:href="class_thinksquirrel_1_1_word_game_builder_example_1_1_example_view_model_1_1_ui_context.html" target="_top" xlink:title="Represents a base class for all user interface contexts. ">
<polygon fill="none" stroke="black" points="48.0029,-141.5 48.0029,-195.5 107.909,-195.5 107.909,-141.5 48.0029,-141.5"/>
<text text-anchor="middle" x="77.9561" y="-183.5" font-family="Helvetica,sans-Serif" font-size="10.00">UiContext</text>
<polyline fill="none" stroke="black" points="48.0029,-177.5 107.909,-177.5 "/>
<text text-anchor="middle" x="77.9561" y="-165.5" font-family="Helvetica,sans-Serif" font-size="10.00"> </text>
<polyline fill="none" stroke="black" points="48.0029,-159.5 107.909,-159.5 "/>
<text text-anchor="middle" x="77.9561" y="-147.5" font-family="Helvetica,sans-Serif" font-size="10.00"> </text>
</a>
</g>
</g>
<!-- Node2&#45;&gt;Node1 -->
<g id="edge1" class="edge"><title>Node2&#45;&gt;Node1</title>
<path fill="none" stroke="midnightblue" d="M77.9561,-131.123C77.9561,-122.708 77.9561,-113.598 77.9561,-104.681"/>
<polygon fill="none" stroke="midnightblue" points="74.4562,-131.346 77.9561,-141.346 81.4562,-131.346 74.4562,-131.346"/>
</g>
</g>
</svg>
