<?xml version="1.0" encoding="UTF-8" standalone="no"?>
<!DOCTYPE svg PUBLIC "-//W3C//DTD SVG 1.1//EN"
 "http://www.w3.org/Graphics/SVG/1.1/DTD/svg11.dtd">
<!-- Generated by graphviz version 2.38.0 (20140413.2041)
 -->
<!-- Title: Graphical Class Hierarchy Pages: 1 -->
<svg width="364pt" height="195pt"
 viewBox="0.00 0.00 363.55 195.00" xmlns="http://www.w3.org/2000/svg" xmlns:xlink="http://www.w3.org/1999/xlink">
<g id="graph0" class="graph" transform="scale(1 1) rotate(0) translate(4 191)">
<title>Graphical Class Hierarchy</title>
<!-- Node1 -->
<g id="node1" class="node"><title>Node1</title>
<g id="a_node1"><a xlink:href="class_thinksquirrel_1_1_word_game_builder_example_1_1_example_view_model_1_1_ui_context.html" target="_top" xlink:title="Represents a base class for all user interface contexts. ">
<polygon fill="none" stroke="black" points="0,-89.5 0,-107.5 150.326,-107.5 150.326,-89.5 0,-89.5"/>
<text text-anchor="middle" x="75.1631" y="-95.5" font-family="Helvetica,sans-Serif" font-size="10.00">ExampleViewModel.UiContext</text>
</a>
</g>
</g>
<!-- Node2 -->
<g id="node2" class="node"><title>Node2</title>
<g id="a_node2"><a xlink:href="class_thinksquirrel_1_1_word_game_builder_example_1_1_example_view_model_1_1_agent_context.html" target="_top" xlink:title="Contains information about the agent. ">
<polygon fill="none" stroke="black" points="187.432,-168.5 187.432,-186.5 354.448,-186.5 354.448,-168.5 187.432,-168.5"/>
<text text-anchor="middle" x="270.94" y="-174.5" font-family="Helvetica,sans-Serif" font-size="10.00">ExampleViewModel.AgentContext</text>
</a>
</g>
</g>
<!-- Node1&#45;&gt;Node2 -->
<g id="edge1" class="edge"><title>Node1&#45;&gt;Node2</title>
<path fill="none" stroke="midnightblue" d="M97.8628,-113.042C119.438,-126.879 153.908,-147.34 186.326,-159.5 195.919,-163.098 206.415,-166.065 216.631,-168.478"/>
<polygon fill="midnightblue" stroke="midnightblue" points="99.7385,-110.087 89.4491,-107.561 95.9175,-115.952 99.7385,-110.087"/>
</g>
<!-- Node3 -->
<g id="node3" class="node"><title>Node3</title>
<g id="a_node3"><a xlink:href="class_thinksquirrel_1_1_word_game_builder_example_1_1_example_view_model_1_1_game_context.html" target="_top" xlink:title="Contains information about the game. ">
<polygon fill="none" stroke="black" points="186.883,-131.5 186.883,-149.5 354.997,-149.5 354.997,-131.5 186.883,-131.5"/>
<text text-anchor="middle" x="270.94" y="-137.5" font-family="Helvetica,sans-Serif" font-size="10.00">ExampleViewModel.GameContext</text>
</a>
</g>
</g>
<!-- Node1&#45;&gt;Node3 -->
<g id="edge2" class="edge"><title>Node1&#45;&gt;Node3</title>
<path fill="none" stroke="midnightblue" d="M127.493,-109.71C146.031,-113.751 167.118,-118.34 186.326,-122.5 199.823,-125.423 214.548,-128.598 227.828,-131.456"/>
<polygon fill="midnightblue" stroke="midnightblue" points="128.001,-106.239 117.485,-107.528 126.509,-113.078 128.001,-106.239"/>
</g>
<!-- Node4 -->
<g id="node4" class="node"><title>Node4</title>
<g id="a_node4"><a xlink:href="class_thinksquirrel_1_1_word_game_builder_example_1_1_example_view_model_1_1_languages_context.html" target="_top" xlink:title="Contains information about languages. ">
<polygon fill="none" stroke="black" points="192.984,-84.5 192.984,-112.5 348.896,-112.5 348.896,-84.5 192.984,-84.5"/>
<text text-anchor="start" x="200.984" y="-100.5" font-family="Helvetica,sans-Serif" font-size="10.00">ExampleViewModel.Languages</text>
<text text-anchor="middle" x="270.94" y="-90.5" font-family="Helvetica,sans-Serif" font-size="10.00">Context</text>
</a>
</g>
</g>
<!-- Node1&#45;&gt;Node4 -->
<g id="edge3" class="edge"><title>Node1&#45;&gt;Node4</title>
<path fill="none" stroke="midnightblue" d="M160.707,-98.5C171.406,-98.5 182.31,-98.5 192.884,-98.5"/>
<polygon fill="midnightblue" stroke="midnightblue" points="160.528,-95.0001 150.528,-98.5 160.528,-102 160.528,-95.0001"/>
</g>
<!-- Node5 -->
<g id="node5" class="node"><title>Node5</title>
<g id="a_node5"><a xlink:href="class_thinksquirrel_1_1_word_game_builder_example_1_1_example_view_model_1_1_player_context.html" target="_top" xlink:title="Contains information about the player. ">
<polygon fill="none" stroke="black" points="186.326,-47.5 186.326,-65.5 355.554,-65.5 355.554,-47.5 186.326,-47.5"/>
<text text-anchor="middle" x="270.94" y="-53.5" font-family="Helvetica,sans-Serif" font-size="10.00">ExampleViewModel.PlayerContext</text>
</a>
</g>
</g>
<!-- Node1&#45;&gt;Node5 -->
<g id="edge4" class="edge"><title>Node1&#45;&gt;Node5</title>
<path fill="none" stroke="midnightblue" d="M127.615,-87.3481C159.013,-80.5427 198.642,-71.9534 228.105,-65.5675"/>
<polygon fill="midnightblue" stroke="midnightblue" points="126.765,-83.951 117.733,-89.4899 128.248,-90.7922 126.765,-83.951"/>
</g>
<!-- Node6 -->
<g id="node6" class="node"><title>Node6</title>
<g id="a_node6"><a xlink:href="class_thinksquirrel_1_1_word_game_builder_example_1_1_example_view_model_1_1_word_result_context.html" target="_top" xlink:title="Contains information about a word check. ">
<polygon fill="none" stroke="black" points="191.7,-0.5 191.7,-28.5 350.18,-28.5 350.18,-0.5 191.7,-0.5"/>
<text text-anchor="start" x="199.7" y="-16.5" font-family="Helvetica,sans-Serif" font-size="10.00">ExampleViewModel.WordResult</text>
<text text-anchor="middle" x="270.94" y="-6.5" font-family="Helvetica,sans-Serif" font-size="10.00">Context</text>
</a>
</g>
</g>
<!-- Node1&#45;&gt;Node6 -->
<g id="edge5" class="edge"><title>Node1&#45;&gt;Node6</title>
<path fill="none" stroke="midnightblue" d="M98.8085,-84.2456C120.588,-71.0058 154.766,-51.4406 186.326,-38.5 195.269,-34.8331 204.967,-31.4997 214.482,-28.5621"/>
<polygon fill="midnightblue" stroke="midnightblue" points="96.9602,-81.2734 90.2775,-89.4948 100.629,-87.2352 96.9602,-81.2734"/>
</g>
</g>
</svg>
