<?xml version="1.0" encoding="UTF-8" standalone="no"?>
<!DOCTYPE svg PUBLIC "-//W3C//DTD SVG 1.1//EN"
 "http://www.w3.org/Graphics/SVG/1.1/DTD/svg11.dtd">
<!-- Generated by graphviz version 2.38.0 (20140413.2041)
 -->
<!-- Title: Graphical Class Hierarchy Pages: 1 -->
<svg width="529pt" height="861pt"
 viewBox="0.00 0.00 528.69 861.00" xmlns="http://www.w3.org/2000/svg" xmlns:xlink="http://www.w3.org/1999/xlink">
<g id="graph0" class="graph" transform="scale(1 1) rotate(0) translate(4 857)">
<title>Graphical Class Hierarchy</title>
<!-- Node1 -->
<g id="node1" class="node"><title>Node1</title>
<polygon fill="none" stroke="#bfbfbf" points="131.763,-834.5 131.763,-852.5 244.472,-852.5 244.472,-834.5 131.763,-834.5"/>
<text text-anchor="middle" x="188.118" y="-840.5" font-family="Helvetica,sans-Serif" font-size="10.00">IEventSystemHandler</text>
</g>
<!-- Node2 -->
<g id="node2" class="node"><title>Node2</title>
<g id="a_node2"><a xlink:href="class_thinksquirrel_1_1_word_game_builder_1_1_tiles_1_1_ugui_1_1_letter_tile_ugui_input.html" target="_top" xlink:title="Adds input control to a letter tile, using uGUI&#39;s pointer events. ">
<polygon fill="none" stroke="black" points="303.902,-742.5 303.902,-760.5 404.028,-760.5 404.028,-742.5 303.902,-742.5"/>
<text text-anchor="middle" x="353.965" y="-748.5" font-family="Helvetica,sans-Serif" font-size="10.00">LetterTileUguiInput</text>
</a>
</g>
</g>
<!-- Node1&#45;&gt;Node2 -->
<g id="edge1" class="edge"><title>Node1&#45;&gt;Node2</title>
<path fill="none" stroke="midnightblue" d="M231.837,-831.009C236.205,-829.325 240.519,-827.486 244.562,-825.5 282.812,-806.719 323.023,-775.89 341.921,-760.636"/>
<polygon fill="midnightblue" stroke="midnightblue" points="230.501,-827.77 222.272,-834.444 232.867,-834.358 230.501,-827.77"/>
</g>
<!-- Node3 -->
<g id="node3" class="node"><title>Node3</title>
<polygon fill="none" stroke="#bfbfbf" points="0,-222.5 0,-240.5 95.6729,-240.5 95.6729,-222.5 0,-222.5"/>
<text text-anchor="middle" x="47.8364" y="-228.5" font-family="Helvetica,sans-Serif" font-size="10.00">IList&lt; ILetterTile &gt;</text>
</g>
<!-- Node4 -->
<g id="node4" class="node"><title>Node4</title>
<g id="a_node4"><a xlink:href="interface_thinksquirrel_1_1_word_game_builder_1_1_object_model_1_1_i_tile_pool.html" target="_top" xlink:title="An interface defining a pool of letter tiles. Implementations must derive from MonoBehaviour in some ...">
<polygon fill="none" stroke="black" points="160.848,-222.5 160.848,-240.5 215.388,-240.5 215.388,-222.5 160.848,-222.5"/>
<text text-anchor="middle" x="188.118" y="-228.5" font-family="Helvetica,sans-Serif" font-size="10.00">ITilePool</text>
</a>
</g>
</g>
<!-- Node3&#45;&gt;Node4 -->
<g id="edge2" class="edge"><title>Node3&#45;&gt;Node4</title>
<path fill="none" stroke="midnightblue" d="M106.095,-231.5C125.031,-231.5 145.193,-231.5 160.668,-231.5"/>
<polygon fill="midnightblue" stroke="midnightblue" points="106.038,-228 96.0382,-231.5 106.038,-235 106.038,-228"/>
</g>
<!-- Node5 -->
<g id="node5" class="node"><title>Node5</title>
<g id="a_node5"><a xlink:href="class_thinksquirrel_1_1_word_game_builder_1_1_gameplay_1_1_tile_pool.html" target="_top" xlink:title="A class that manages an instance pool of letter tiles. ">
<polygon fill="none" stroke="black" points="328.084,-222.5 328.084,-240.5 379.846,-240.5 379.846,-222.5 328.084,-222.5"/>
<text text-anchor="middle" x="353.965" y="-228.5" font-family="Helvetica,sans-Serif" font-size="10.00">TilePool</text>
</a>
</g>
</g>
<!-- Node4&#45;&gt;Node5 -->
<g id="edge3" class="edge"><title>Node4&#45;&gt;Node5</title>
<path fill="none" stroke="midnightblue" d="M225.477,-231.5C256.651,-231.5 300.733,-231.5 328.048,-231.5"/>
<polygon fill="midnightblue" stroke="midnightblue" points="225.443,-228 215.443,-231.5 225.443,-235 225.443,-228"/>
</g>
<!-- Node6 -->
<g id="node6" class="node"><title>Node6</title>
<polygon fill="none" stroke="#bfbfbf" points="134.544,-797.5 134.544,-815.5 241.691,-815.5 241.691,-797.5 134.544,-797.5"/>
<text text-anchor="middle" x="188.118" y="-803.5" font-family="Helvetica,sans-Serif" font-size="10.00">IPointerClickHandler</text>
</g>
<!-- Node6&#45;&gt;Node2 -->
<g id="edge4" class="edge"><title>Node6&#45;&gt;Node2</title>
<path fill="none" stroke="midnightblue" d="M227.039,-794.273C232.911,-792.355 238.903,-790.384 244.562,-788.5 272.675,-779.14 304.786,-768.141 326.717,-760.582"/>
<polygon fill="midnightblue" stroke="midnightblue" points="225.777,-791.002 217.351,-797.425 227.943,-797.659 225.777,-791.002"/>
</g>
<!-- Node7 -->
<g id="node7" class="node"><title>Node7</title>
<polygon fill="none" stroke="#bfbfbf" points="132.593,-760.5 132.593,-778.5 243.642,-778.5 243.642,-760.5 132.593,-760.5"/>
<text text-anchor="middle" x="188.118" y="-766.5" font-family="Helvetica,sans-Serif" font-size="10.00">IPointerDownHandler</text>
</g>
<!-- Node7&#45;&gt;Node2 -->
<g id="edge5" class="edge"><title>Node7&#45;&gt;Node2</title>
<path fill="none" stroke="midnightblue" d="M253.889,-762.384C270.538,-760.555 288.176,-758.618 303.884,-756.892"/>
<polygon fill="midnightblue" stroke="midnightblue" points="253.235,-758.935 243.677,-763.506 253.999,-765.893 253.235,-758.935"/>
</g>
<!-- Node8 -->
<g id="node8" class="node"><title>Node8</title>
<polygon fill="none" stroke="#bfbfbf" points="133.426,-723.5 133.426,-741.5 242.81,-741.5 242.81,-723.5 133.426,-723.5"/>
<text text-anchor="middle" x="188.118" y="-729.5" font-family="Helvetica,sans-Serif" font-size="10.00">IPointerEnterHandler</text>
</g>
<!-- Node8&#45;&gt;Node2 -->
<g id="edge6" class="edge"><title>Node8&#45;&gt;Node2</title>
<path fill="none" stroke="midnightblue" d="M253.501,-739.966C270.267,-741.91 288.062,-743.974 303.894,-745.81"/>
<polygon fill="midnightblue" stroke="midnightblue" points="253.558,-736.449 243.222,-738.774 252.752,-743.403 253.558,-736.449"/>
</g>
<!-- Node9 -->
<g id="node9" class="node"><title>Node9</title>
<polygon fill="none" stroke="#bfbfbf" points="137.042,-686.5 137.042,-704.5 239.194,-704.5 239.194,-686.5 137.042,-686.5"/>
<text text-anchor="middle" x="188.118" y="-692.5" font-family="Helvetica,sans-Serif" font-size="10.00">IPointerExitHandler</text>
</g>
<!-- Node9&#45;&gt;Node2 -->
<g id="edge7" class="edge"><title>Node9&#45;&gt;Node2</title>
<path fill="none" stroke="midnightblue" d="M229.817,-707.821C234.831,-709.6 239.847,-711.508 244.562,-713.5 261.228,-720.541 263.703,-725.939 280.562,-732.5 290.493,-736.365 301.491,-739.703 311.853,-742.456"/>
<polygon fill="midnightblue" stroke="midnightblue" points="230.851,-704.476 220.256,-704.572 228.598,-711.104 230.851,-704.476"/>
</g>
<!-- Node10 -->
<g id="node10" class="node"><title>Node10</title>
<polygon fill="none" stroke="#bfbfbf" points="138.985,-649.5 138.985,-667.5 237.25,-667.5 237.25,-649.5 138.985,-649.5"/>
<text text-anchor="middle" x="188.118" y="-655.5" font-family="Helvetica,sans-Serif" font-size="10.00">IPointerUpHandler</text>
</g>
<!-- Node10&#45;&gt;Node2 -->
<g id="edge8" class="edge"><title>Node10&#45;&gt;Node2</title>
<path fill="none" stroke="midnightblue" d="M237.967,-672.12C240.278,-673.449 242.493,-674.905 244.562,-676.5 267.997,-694.563 256.62,-715.115 280.562,-732.5 287.398,-737.463 295.43,-741.131 303.61,-743.841"/>
<polygon fill="midnightblue" stroke="midnightblue" points="239.206,-668.83 228.683,-667.596 236.14,-675.123 239.206,-668.83"/>
</g>
<!-- Node11 -->
<g id="node11" class="node"><title>Node11</title>
<polygon fill="none" stroke="#bfbfbf" points="4.81445,-390.5 4.81445,-408.5 90.8584,-408.5 90.8584,-390.5 4.81445,-390.5"/>
<text text-anchor="middle" x="47.8364" y="-396.5" font-family="Helvetica,sans-Serif" font-size="10.00">MonoBehaviour</text>
</g>
<!-- Node12 -->
<g id="node12" class="node"><title>Node12</title>
<g id="a_node12"><a xlink:href="class_thinksquirrel_1_1_word_game_builder_1_1_w_g_b_base.html" target="_top" xlink:title="The base class for all Word Game Builder components. ">
<polygon fill="none" stroke="black" points="156.778,-427.5 156.778,-445.5 219.458,-445.5 219.458,-427.5 156.778,-427.5"/>
<text text-anchor="middle" x="188.118" y="-433.5" font-family="Helvetica,sans-Serif" font-size="10.00">WGBBase</text>
</a>
</g>
</g>
<!-- Node11&#45;&gt;Node12 -->
<g id="edge9" class="edge"><title>Node11&#45;&gt;Node12</title>
<path fill="none" stroke="midnightblue" d="M92.5425,-411.194C113.331,-416.757 137.683,-423.273 156.47,-428.3"/>
<polygon fill="midnightblue" stroke="midnightblue" points="93.2287,-407.755 82.6638,-408.551 91.4193,-414.517 93.2287,-407.755"/>
</g>
<!-- Node29 -->
<g id="node29" class="node"><title>Node29</title>
<g id="a_node29"><a xlink:href="class_thinksquirrel_1_1_word_game_builder_example_1_1_example_view.html" target="_top" xlink:title="This class is responsible for rendering the UI. ">
<polygon fill="none" stroke="black" points="149.915,-390.5 149.915,-408.5 226.32,-408.5 226.32,-390.5 149.915,-390.5"/>
<text text-anchor="middle" x="188.118" y="-396.5" font-family="Helvetica,sans-Serif" font-size="10.00">ExampleView</text>
</a>
</g>
</g>
<!-- Node11&#45;&gt;Node29 -->
<g id="edge28" class="edge"><title>Node11&#45;&gt;Node29</title>
<path fill="none" stroke="midnightblue" d="M101.444,-399.5C117.56,-399.5 134.949,-399.5 149.822,-399.5"/>
<polygon fill="midnightblue" stroke="midnightblue" points="101.077,-396 91.0767,-399.5 101.077,-403 101.077,-396"/>
</g>
<!-- Node30 -->
<g id="node30" class="node"><title>Node30</title>
<g id="a_node30"><a xlink:href="class_thinksquirrel_1_1_word_game_builder_example_1_1_example_view_model.html" target="_top" xlink:title="This class is responsible for sending and receiving data between the game and the UI...">
<polygon fill="none" stroke="black" points="136.297,-353.5 136.297,-371.5 239.938,-371.5 239.938,-353.5 136.297,-353.5"/>
<text text-anchor="middle" x="188.118" y="-359.5" font-family="Helvetica,sans-Serif" font-size="10.00">ExampleViewModel</text>
</a>
</g>
</g>
<!-- Node11&#45;&gt;Node30 -->
<g id="edge29" class="edge"><title>Node11&#45;&gt;Node30</title>
<path fill="none" stroke="midnightblue" d="M92.5747,-387.797C112.155,-382.558 134.891,-376.474 153.16,-371.586"/>
<polygon fill="midnightblue" stroke="midnightblue" points="91.4193,-384.483 82.6638,-390.449 93.2287,-391.245 91.4193,-384.483"/>
</g>
<!-- Node12&#45;&gt;Node2 -->
<g id="edge26" class="edge"><title>Node12&#45;&gt;Node2</title>
<path fill="none" stroke="midnightblue" d="M194.46,-455.577C212.421,-519.468 270.097,-722.475 280.562,-732.5 287.038,-738.703 295.283,-742.942 303.872,-745.826"/>
<polygon fill="midnightblue" stroke="midnightblue" points="197.744,-454.328 191.673,-445.645 191.005,-456.219 197.744,-454.328"/>
</g>
<!-- Node12&#45;&gt;Node5 -->
<g id="edge10" class="edge"><title>Node12&#45;&gt;Node5</title>
<path fill="none" stroke="midnightblue" d="M229.456,-428.257C235.135,-425.611 240.434,-422.116 244.562,-417.5 293.73,-362.522 231.119,-310.23 280.562,-255.5 292.547,-242.234 312.026,-236.286 327.763,-233.626"/>
<polygon fill="midnightblue" stroke="midnightblue" points="227.791,-425.145 219.677,-431.957 230.269,-431.692 227.791,-425.145"/>
</g>
<!-- Node13 -->
<g id="node13" class="node"><title>Node13</title>
<g id="a_node13"><a xlink:href="class_thinksquirrel_1_1_word_game_builder_1_1_gameplay_1_1_wildcard_tile_manager.html" target="_top" xlink:title="A manager class for selecting wildcard tiles. ">
<polygon fill="none" stroke="black" points="298.91,-148.5 298.91,-166.5 409.021,-166.5 409.021,-148.5 298.91,-148.5"/>
<text text-anchor="middle" x="353.965" y="-154.5" font-family="Helvetica,sans-Serif" font-size="10.00">WildcardTileManager</text>
</a>
</g>
</g>
<!-- Node12&#45;&gt;Node13 -->
<g id="edge11" class="edge"><title>Node12&#45;&gt;Node13</title>
<path fill="none" stroke="midnightblue" d="M229.149,-428.787C235.021,-426.08 240.461,-422.427 244.562,-417.5 314.128,-333.924 207.45,-255.991 280.562,-175.5 285.527,-170.035 291.869,-166.111 298.731,-163.313"/>
<polygon fill="midnightblue" stroke="midnightblue" points="227.844,-425.538 219.696,-432.31 230.289,-432.097 227.844,-425.538"/>
</g>
<!-- Node14 -->
<g id="node14" class="node"><title>Node14</title>
<g id="a_node14"><a xlink:href="class_thinksquirrel_1_1_word_game_builder_1_1_gameplay_1_1_word_game_agent.html" target="_top" xlink:title="Represents a word game AI agent. The agent is multithreaded and supports automatic selection/submissi...">
<polygon fill="none" stroke="black" points="307.425,-111.5 307.425,-129.5 400.505,-129.5 400.505,-111.5 307.425,-111.5"/>
<text text-anchor="middle" x="353.965" y="-117.5" font-family="Helvetica,sans-Serif" font-size="10.00">WordGameAgent</text>
</a>
</g>
</g>
<!-- Node12&#45;&gt;Node14 -->
<g id="edge12" class="edge"><title>Node12&#45;&gt;Node14</title>
<path fill="none" stroke="midnightblue" d="M229.047,-428.939C234.98,-426.216 240.467,-422.518 244.562,-417.5 323.615,-320.636 197.397,-231.857 280.562,-138.5 287.455,-130.763 297.11,-126.103 307.129,-123.354"/>
<polygon fill="midnightblue" stroke="midnightblue" points="227.661,-425.719 219.492,-432.466 230.085,-432.286 227.661,-425.719"/>
</g>
<!-- Node15 -->
<g id="node15" class="node"><title>Node15</title>
<g id="a_node15"><a xlink:href="class_thinksquirrel_1_1_word_game_builder_1_1_gameplay_1_1_word_game_player.html" target="_top" xlink:title="Represents a word game player. It tracks scores, holds tiles, and can be controlled by an AI agent...">
<polygon fill="none" stroke="black" points="306.319,-185.5 306.319,-203.5 401.611,-203.5 401.611,-185.5 306.319,-185.5"/>
<text text-anchor="middle" x="353.965" y="-191.5" font-family="Helvetica,sans-Serif" font-size="10.00">WordGamePlayer</text>
</a>
</g>
</g>
<!-- Node12&#45;&gt;Node15 -->
<g id="edge13" class="edge"><title>Node12&#45;&gt;Node15</title>
<path fill="none" stroke="midnightblue" d="M229.04,-428.695C234.924,-425.998 240.397,-422.373 244.562,-417.5 304.667,-347.182 217.475,-280.155 280.562,-212.5 287.364,-205.206 296.625,-200.671 306.249,-197.896"/>
<polygon fill="midnightblue" stroke="midnightblue" points="227.734,-425.446 219.582,-432.213 230.174,-432.007 227.734,-425.446"/>
</g>
<!-- Node16 -->
<g id="node16" class="node"><title>Node16</title>
<g id="a_node16"><a xlink:href="class_thinksquirrel_1_1_word_game_builder_1_1_tiles_1_1_daikon_forge_1_1_letter_tile_daikon_forge_control.html" target="_top" xlink:title="Adds Daikon Forge GUI display to a letter tile. ">
<polygon fill="none" stroke="black" points="280.562,-335.5 280.562,-353.5 427.368,-353.5 427.368,-335.5 280.562,-335.5"/>
<text text-anchor="middle" x="353.965" y="-341.5" font-family="Helvetica,sans-Serif" font-size="10.00">LetterTileDaikonForgeControl</text>
</a>
</g>
</g>
<!-- Node12&#45;&gt;Node16 -->
<g id="edge14" class="edge"><title>Node12&#45;&gt;Node16</title>
<path fill="none" stroke="midnightblue" d="M229.454,-426.264C234.833,-423.899 240.043,-421.012 244.562,-417.5 267.63,-399.572 256.742,-379.414 280.562,-362.5 285.737,-358.825 291.584,-355.898 297.655,-353.567"/>
<polygon fill="midnightblue" stroke="midnightblue" points="227.798,-423.149 219.702,-429.983 230.292,-429.69 227.798,-423.149"/>
</g>
<!-- Node17 -->
<g id="node17" class="node"><title>Node17</title>
<g id="a_node17"><a xlink:href="class_thinksquirrel_1_1_word_game_builder_1_1_tiles_1_1_daikon_forge_1_1_letter_tile_daikon_forge_input.html" target="_top" xlink:title="Adds input control to a letter tile, using DF&#45;GUI&#39;s events. ">
<polygon fill="none" stroke="black" points="285.56,-298.5 285.56,-316.5 422.371,-316.5 422.371,-298.5 285.56,-298.5"/>
<text text-anchor="middle" x="353.965" y="-304.5" font-family="Helvetica,sans-Serif" font-size="10.00">LetterTileDaikonForgeInput</text>
</a>
</g>
</g>
<!-- Node12&#45;&gt;Node17 -->
<g id="edge15" class="edge"><title>Node12&#45;&gt;Node17</title>
<path fill="none" stroke="midnightblue" d="M229.22,-427.515C234.842,-424.965 240.185,-421.694 244.562,-417.5 276.268,-387.125 247.574,-354.477 280.562,-325.5 284.747,-321.824 289.569,-318.876 294.695,-316.513"/>
<polygon fill="midnightblue" stroke="midnightblue" points="227.722,-424.34 219.616,-431.163 230.208,-430.884 227.722,-424.34"/>
</g>
<!-- Node18 -->
<g id="node18" class="node"><title>Node18</title>
<g id="a_node18"><a xlink:href="class_thinksquirrel_1_1_word_game_builder_1_1_tiles_1_1_letter_tile.html" target="_top" xlink:title="A standard letter tile. Includes support for selection, wildcard tiles, multiple colors, input, and state querying. ">
<polygon fill="none" stroke="black" points="463.368,-55.5 463.368,-73.5 520.687,-73.5 520.687,-55.5 463.368,-55.5"/>
<text text-anchor="middle" x="492.027" y="-61.5" font-family="Helvetica,sans-Serif" font-size="10.00">LetterTile</text>
</a>
</g>
</g>
<!-- Node12&#45;&gt;Node18 -->
<g id="edge16" class="edge"><title>Node12&#45;&gt;Node18</title>
<path fill="none" stroke="midnightblue" d="M229.423,-427.979C235.062,-425.368 240.357,-421.957 244.562,-417.5 285.414,-374.208 238.211,-330.326 280.562,-288.5 328.596,-241.062 377.95,-295.494 427.368,-249.5 480.577,-199.978 489.312,-103.974 490.746,-73.8059"/>
<polygon fill="midnightblue" stroke="midnightblue" points="227.843,-424.835 219.74,-431.661 230.331,-431.378 227.843,-424.835"/>
</g>
<!-- Node19 -->
<g id="node19" class="node"><title>Node19</title>
<g id="a_node19"><a xlink:href="class_thinksquirrel_1_1_word_game_builder_1_1_tiles_1_1_letter_tile_animation.html" target="_top" xlink:title="Adds animation to a letter tile. ">
<polygon fill="none" stroke="black" points="303.072,-705.5 303.072,-723.5 404.858,-723.5 404.858,-705.5 303.072,-705.5"/>
<text text-anchor="middle" x="353.965" y="-711.5" font-family="Helvetica,sans-Serif" font-size="10.00">LetterTileAnimation</text>
</a>
</g>
</g>
<!-- Node12&#45;&gt;Node19 -->
<g id="edge17" class="edge"><title>Node12&#45;&gt;Node19</title>
<path fill="none" stroke="midnightblue" d="M193.419,-455.612C205.936,-509.622 243.795,-661.656 280.562,-695.5 286.873,-701.309 294.742,-705.385 302.947,-708.237"/>
<polygon fill="midnightblue" stroke="midnightblue" points="196.782,-454.621 191.142,-445.653 189.959,-456.181 196.782,-454.621"/>
</g>
<!-- Node20 -->
<g id="node20" class="node"><title>Node20</title>
<g id="a_node20"><a xlink:href="class_thinksquirrel_1_1_word_game_builder_1_1_tiles_1_1_letter_tile_color_control.html" target="_top" xlink:title="Automatically controls the color of objects based on a letter tile&#39;s state. ">
<polygon fill="none" stroke="black" points="297.24,-668.5 297.24,-686.5 410.691,-686.5 410.691,-668.5 297.24,-668.5"/>
<text text-anchor="middle" x="353.965" y="-674.5" font-family="Helvetica,sans-Serif" font-size="10.00">LetterTileColorControl</text>
</a>
</g>
</g>
<!-- Node12&#45;&gt;Node20 -->
<g id="edge18" class="edge"><title>Node12&#45;&gt;Node20</title>
<path fill="none" stroke="midnightblue" d="M191.31,-455.769C197.265,-498.875 217.759,-603.601 280.562,-658.5 285.357,-662.691 290.968,-665.974 296.909,-668.542"/>
<polygon fill="midnightblue" stroke="midnightblue" points="194.772,-455.249 190.042,-445.769 187.828,-456.13 194.772,-455.249"/>
</g>
<!-- Node21 -->
<g id="node21" class="node"><title>Node21</title>
<g id="a_node21"><a xlink:href="class_thinksquirrel_1_1_word_game_builder_1_1_tiles_1_1_letter_tile_label_control.html" target="_top" xlink:title="Automatically controls the text on objects based on a letter tile&#39;s state. ">
<polygon fill="none" stroke="black" points="296.954,-631.5 296.954,-649.5 410.977,-649.5 410.977,-631.5 296.954,-631.5"/>
<text text-anchor="middle" x="353.965" y="-637.5" font-family="Helvetica,sans-Serif" font-size="10.00">LetterTileLabelControl</text>
</a>
</g>
</g>
<!-- Node12&#45;&gt;Node21 -->
<g id="edge19" class="edge"><title>Node12&#45;&gt;Node21</title>
<path fill="none" stroke="midnightblue" d="M193.141,-456.104C201.974,-494.034 226.717,-577.584 280.562,-621.5 285.598,-625.607 291.428,-628.834 297.551,-631.369"/>
<polygon fill="midnightblue" stroke="midnightblue" points="196.462,-454.907 190.896,-445.892 189.625,-456.41 196.462,-454.907"/>
</g>
<!-- Node22 -->
<g id="node22" class="node"><title>Node22</title>
<g id="a_node22"><a xlink:href="class_thinksquirrel_1_1_word_game_builder_1_1_tiles_1_1_letter_tile_mouse_input.html" target="_top" xlink:title="Adds input control to a letter tile, using Unity&#39;s OnMouse[...] methods. ">
<polygon fill="none" stroke="black" points="299.178,-594.5 299.178,-612.5 408.752,-612.5 408.752,-594.5 299.178,-594.5"/>
<text text-anchor="middle" x="353.965" y="-600.5" font-family="Helvetica,sans-Serif" font-size="10.00">LetterTileMouseInput</text>
</a>
</g>
</g>
<!-- Node12&#45;&gt;Node22 -->
<g id="edge20" class="edge"><title>Node12&#45;&gt;Node22</title>
<path fill="none" stroke="midnightblue" d="M195.579,-455.66C207.306,-487.45 235.169,-550.915 280.562,-584.5 286.204,-588.674 292.687,-591.932 299.405,-594.476"/>
<polygon fill="midnightblue" stroke="midnightblue" points="198.738,-454.096 192.101,-445.837 192.139,-456.432 198.738,-454.096"/>
</g>
<!-- Node23 -->
<g id="node23" class="node"><title>Node23</title>
<g id="a_node23"><a xlink:href="class_thinksquirrel_1_1_word_game_builder_1_1_tiles_1_1_letter_tile_visibility_control.html" target="_top" xlink:title="Automatically controls the visibility of objects based on a letter tile&#39;s state. ">
<polygon fill="none" stroke="black" points="291.217,-557.5 291.217,-575.5 416.714,-575.5 416.714,-557.5 291.217,-557.5"/>
<text text-anchor="middle" x="353.965" y="-563.5" font-family="Helvetica,sans-Serif" font-size="10.00">LetterTileVisibilityControl</text>
</a>
</g>
</g>
<!-- Node12&#45;&gt;Node23 -->
<g id="edge21" class="edge"><title>Node12&#45;&gt;Node23</title>
<path fill="none" stroke="midnightblue" d="M198.906,-454.327C213.43,-479.077 243.057,-523.504 280.562,-547.5 287.021,-551.632 294.348,-554.869 301.801,-557.403"/>
<polygon fill="midnightblue" stroke="midnightblue" points="201.928,-452.561 193.937,-445.605 195.846,-456.026 201.928,-452.561"/>
</g>
<!-- Node24 -->
<g id="node24" class="node"><title>Node24</title>
<g id="a_node24"><a xlink:href="class_thinksquirrel_1_1_word_game_builder_1_1_tiles_1_1_ngui_1_1_letter_tile_ngui_control.html" target="_top" xlink:title="Adds NGUI display to a letter tile. ">
<polygon fill="none" stroke="black" points="298.905,-520.5 298.905,-538.5 409.026,-538.5 409.026,-520.5 298.905,-520.5"/>
<text text-anchor="middle" x="353.965" y="-526.5" font-family="Helvetica,sans-Serif" font-size="10.00">LetterTileNguiControl</text>
</a>
</g>
</g>
<!-- Node12&#45;&gt;Node24 -->
<g id="edge22" class="edge"><title>Node12&#45;&gt;Node24</title>
<path fill="none" stroke="midnightblue" d="M205.25,-453.199C222.42,-470.034 251.122,-495.601 280.562,-510.5 288.679,-514.608 297.771,-517.889 306.697,-520.49"/>
<polygon fill="midnightblue" stroke="midnightblue" points="207.334,-450.331 197.795,-445.72 202.376,-455.273 207.334,-450.331"/>
</g>
<!-- Node25 -->
<g id="node25" class="node"><title>Node25</title>
<g id="a_node25"><a xlink:href="class_thinksquirrel_1_1_word_game_builder_1_1_tiles_1_1_ngui_1_1_letter_tile_ngui_input.html" target="_top" xlink:title="Adds input control to a letter tile, using NGUI&#39;s OnPress/OnHover/OnClick methods. ">
<polygon fill="none" stroke="black" points="303.902,-483.5 303.902,-501.5 404.028,-501.5 404.028,-483.5 303.902,-483.5"/>
<text text-anchor="middle" x="353.965" y="-489.5" font-family="Helvetica,sans-Serif" font-size="10.00">LetterTileNguiInput</text>
</a>
</g>
</g>
<!-- Node12&#45;&gt;Node25 -->
<g id="edge23" class="edge"><title>Node12&#45;&gt;Node25</title>
<path fill="none" stroke="midnightblue" d="M218.785,-449.627C236.506,-457.184 259.58,-466.534 280.562,-473.5 291.539,-477.144 303.635,-480.551 314.744,-483.445"/>
<polygon fill="midnightblue" stroke="midnightblue" points="220.107,-446.385 209.538,-445.639 217.335,-452.813 220.107,-446.385"/>
</g>
<!-- Node26 -->
<g id="node26" class="node"><title>Node26</title>
<g id="a_node26"><a xlink:href="class_thinksquirrel_1_1_word_game_builder_1_1_tiles_1_1_tk2_d_1_1_letter_tile_tk2_d_control.html" target="_top" xlink:title="Adds 2D Toolkit display to a letter tile. ">
<polygon fill="none" stroke="black" points="297.242,-446.5 297.242,-464.5 410.688,-464.5 410.688,-446.5 297.242,-446.5"/>
<text text-anchor="middle" x="353.965" y="-452.5" font-family="Helvetica,sans-Serif" font-size="10.00">LetterTileTk2DControl</text>
</a>
</g>
</g>
<!-- Node12&#45;&gt;Node26 -->
<g id="edge24" class="edge"><title>Node12&#45;&gt;Node26</title>
<path fill="none" stroke="midnightblue" d="M229.736,-441.21C250.088,-443.57 275.046,-446.464 297.166,-449.029"/>
<polygon fill="midnightblue" stroke="midnightblue" points="229.889,-437.705 219.552,-440.029 229.082,-444.658 229.889,-437.705"/>
</g>
<!-- Node27 -->
<g id="node27" class="node"><title>Node27</title>
<g id="a_node27"><a xlink:href="class_thinksquirrel_1_1_word_game_builder_1_1_tiles_1_1_tk2_d_1_1_letter_tile_tk2_d_input.html" target="_top" xlink:title="Adds input control to a letter tile, using 2D Toolkit&#39;s UI events. ">
<polygon fill="none" stroke="black" points="302.24,-409.5 302.24,-427.5 405.691,-427.5 405.691,-409.5 302.24,-409.5"/>
<text text-anchor="middle" x="353.965" y="-415.5" font-family="Helvetica,sans-Serif" font-size="10.00">LetterTileTk2DInput</text>
</a>
</g>
</g>
<!-- Node12&#45;&gt;Node27 -->
<g id="edge25" class="edge"><title>Node12&#45;&gt;Node27</title>
<path fill="none" stroke="midnightblue" d="M229.521,-432.061C251.435,-429.654 278.737,-426.655 302.089,-424.089"/>
<polygon fill="midnightblue" stroke="midnightblue" points="229.11,-428.585 219.552,-433.157 229.875,-435.543 229.11,-428.585"/>
</g>
<!-- Node28 -->
<g id="node28" class="node"><title>Node28</title>
<g id="a_node28"><a xlink:href="class_thinksquirrel_1_1_word_game_builder_example_1_1_example_game_logic.html" target="_top" xlink:title="This class is responsible for all game logic. ">
<polygon fill="none" stroke="black" points="300.943,-372.5 300.943,-390.5 406.987,-390.5 406.987,-372.5 300.943,-372.5"/>
<text text-anchor="middle" x="353.965" y="-378.5" font-family="Helvetica,sans-Serif" font-size="10.00">ExampleGameLogic</text>
</a>
</g>
</g>
<!-- Node12&#45;&gt;Node28 -->
<g id="edge27" class="edge"><title>Node12&#45;&gt;Node28</title>
<path fill="none" stroke="midnightblue" d="M227.458,-424.11C233.237,-422.027 239.092,-419.793 244.562,-417.5 261.06,-410.585 263.781,-405.695 280.562,-399.5 289.919,-396.046 300.197,-393.041 309.996,-390.528"/>
<polygon fill="midnightblue" stroke="midnightblue" points="226.168,-420.853 217.883,-427.456 228.478,-427.461 226.168,-420.853"/>
</g>
<!-- Node31 -->
<g id="node31" class="node"><title>Node31</title>
<g id="a_node31"><a xlink:href="interface_thinksquirrel_1_1_word_game_builder_1_1_object_model_1_1_i_mono_behaviour.html" target="_top" xlink:title="An interface representation of a MonoBehaviour. ">
<polygon fill="none" stroke="black" points="3.42529,-148.5 3.42529,-166.5 92.2476,-166.5 92.2476,-148.5 3.42529,-148.5"/>
<text text-anchor="middle" x="47.8364" y="-154.5" font-family="Helvetica,sans-Serif" font-size="10.00">IMonoBehaviour</text>
</a>
</g>
</g>
<!-- Node31&#45;&gt;Node4 -->
<g id="edge37" class="edge"><title>Node31&#45;&gt;Node4</title>
<path fill="none" stroke="midnightblue" d="M68.505,-172.658C84.7648,-184.661 108.812,-201.227 131.673,-212.5 140.799,-217 151.255,-220.884 160.61,-223.946"/>
<polygon fill="midnightblue" stroke="midnightblue" points="70.4288,-169.725 60.33,-166.521 66.2266,-175.324 70.4288,-169.725"/>
</g>
<!-- Node32 -->
<g id="node32" class="node"><title>Node32</title>
<g id="a_node32"><a xlink:href="interface_thinksquirrel_1_1_word_game_builder_1_1_object_model_1_1_i_letter_tile.html" target="_top" xlink:title="An interface defining a letter tile. Implementations must derive from MonoBehaviour in some form...">
<polygon fill="none" stroke="black" points="158.069,-56.5 158.069,-74.5 218.166,-74.5 218.166,-56.5 158.069,-56.5"/>
<text text-anchor="middle" x="188.118" y="-62.5" font-family="Helvetica,sans-Serif" font-size="10.00">ILetterTile</text>
</a>
</g>
</g>
<!-- Node31&#45;&gt;Node32 -->
<g id="edge30" class="edge"><title>Node31&#45;&gt;Node32</title>
<path fill="none" stroke="midnightblue" d="M70.7591,-142.518C87.4138,-131.175 110.916,-115.253 131.673,-101.5 145.641,-92.2448 161.711,-81.8371 172.941,-74.6018"/>
<polygon fill="midnightblue" stroke="midnightblue" points="68.5619,-139.78 62.2718,-148.305 72.5057,-145.563 68.5619,-139.78"/>
</g>
<!-- Node36 -->
<g id="node36" class="node"><title>Node36</title>
<g id="a_node36"><a xlink:href="interface_thinksquirrel_1_1_word_game_builder_1_1_object_model_1_1_i_wildcard_tile_manager.html" target="_top" xlink:title="An interface defining a manager for selecting wildcard tiles. Implementations must derive from MonoBe...">
<polygon fill="none" stroke="black" points="131.673,-148.5 131.673,-166.5 244.562,-166.5 244.562,-148.5 131.673,-148.5"/>
<text text-anchor="middle" x="188.118" y="-154.5" font-family="Helvetica,sans-Serif" font-size="10.00">IWildcardTileManager</text>
</a>
</g>
</g>
<!-- Node31&#45;&gt;Node36 -->
<g id="edge38" class="edge"><title>Node31&#45;&gt;Node36</title>
<path fill="none" stroke="midnightblue" d="M102.655,-157.5C112.11,-157.5 121.968,-157.5 131.471,-157.5"/>
<polygon fill="midnightblue" stroke="midnightblue" points="102.59,-154 92.5895,-157.5 102.589,-161 102.59,-154"/>
</g>
<!-- Node37 -->
<g id="node37" class="node"><title>Node37</title>
<g id="a_node37"><a xlink:href="interface_thinksquirrel_1_1_word_game_builder_1_1_object_model_1_1_i_word_game_agent.html" target="_top" xlink:title="An interface defining a word game agent. Implementations must derive from MonoBehaviour in some form...">
<polygon fill="none" stroke="black" points="140.188,-111.5 140.188,-129.5 236.047,-129.5 236.047,-111.5 140.188,-111.5"/>
<text text-anchor="middle" x="188.118" y="-117.5" font-family="Helvetica,sans-Serif" font-size="10.00">IWordGameAgent</text>
</a>
</g>
</g>
<!-- Node31&#45;&gt;Node37 -->
<g id="edge40" class="edge"><title>Node31&#45;&gt;Node37</title>
<path fill="none" stroke="midnightblue" d="M92.5747,-145.797C112.155,-140.558 134.891,-134.474 153.16,-129.586"/>
<polygon fill="midnightblue" stroke="midnightblue" points="91.4193,-142.483 82.6638,-148.449 93.2287,-149.245 91.4193,-142.483"/>
</g>
<!-- Node38 -->
<g id="node38" class="node"><title>Node38</title>
<g id="a_node38"><a xlink:href="interface_thinksquirrel_1_1_word_game_builder_1_1_object_model_1_1_i_word_game_player.html" target="_top" xlink:title="An interface defining a word game player. Implementations must derive from MonoBehaviour in some form...">
<polygon fill="none" stroke="black" points="139.083,-185.5 139.083,-203.5 237.153,-203.5 237.153,-185.5 139.083,-185.5"/>
<text text-anchor="middle" x="188.118" y="-191.5" font-family="Helvetica,sans-Serif" font-size="10.00">IWordGamePlayer</text>
</a>
</g>
</g>
<!-- Node31&#45;&gt;Node38 -->
<g id="edge42" class="edge"><title>Node31&#45;&gt;Node38</title>
<path fill="none" stroke="midnightblue" d="M92.5747,-169.203C112.155,-174.442 134.891,-180.526 153.16,-185.414"/>
<polygon fill="midnightblue" stroke="midnightblue" points="93.2287,-165.755 82.6638,-166.551 91.4193,-172.517 93.2287,-165.755"/>
</g>
<!-- Node33 -->
<g id="node33" class="node"><title>Node33</title>
<g id="a_node33"><a xlink:href="interface_thinksquirrel_1_1_word_game_builder_1_1_object_model_1_1_i_letter_tile_display.html" target="_top" xlink:title="An interface defining letter tile colors and labels. ">
<polygon fill="none" stroke="black" points="307.523,-74.5 307.523,-92.5 400.408,-92.5 400.408,-74.5 307.523,-74.5"/>
<text text-anchor="middle" x="353.965" y="-80.5" font-family="Helvetica,sans-Serif" font-size="10.00">ILetterTileDisplay</text>
</a>
</g>
</g>
<!-- Node32&#45;&gt;Node33 -->
<g id="edge31" class="edge"><title>Node32&#45;&gt;Node33</title>
<path fill="none" stroke="midnightblue" d="M228.461,-69.8222C252.165,-72.4262 282.454,-75.7538 307.223,-78.4748"/>
<polygon fill="midnightblue" stroke="midnightblue" points="228.733,-66.3311 218.41,-68.718 227.968,-73.2892 228.733,-66.3311"/>
</g>
<!-- Node34 -->
<g id="node34" class="node"><title>Node34</title>
<g id="a_node34"><a xlink:href="interface_thinksquirrel_1_1_word_game_builder_1_1_object_model_1_1_i_letter_tile_input.html" target="_top" xlink:title="An interface defining letter tile input events. ">
<polygon fill="none" stroke="black" points="312.796,-37.5 312.796,-55.5 395.134,-55.5 395.134,-37.5 312.796,-37.5"/>
<text text-anchor="middle" x="353.965" y="-43.5" font-family="Helvetica,sans-Serif" font-size="10.00">ILetterTileInput</text>
</a>
</g>
</g>
<!-- Node32&#45;&gt;Node34 -->
<g id="edge33" class="edge"><title>Node32&#45;&gt;Node34</title>
<path fill="none" stroke="midnightblue" d="M228.451,-60.9389C253.881,-57.9899 286.897,-54.1614 312.541,-51.1877"/>
<polygon fill="midnightblue" stroke="midnightblue" points="227.941,-57.4745 218.41,-62.1032 228.747,-64.4279 227.941,-57.4745"/>
</g>
<!-- Node35 -->
<g id="node35" class="node"><title>Node35</title>
<g id="a_node35"><a xlink:href="interface_thinksquirrel_1_1_word_game_builder_1_1_object_model_1_1_i_selectable_letter_tile.html" target="_top" xlink:title="An interface defining a letter tile that can be selected and deselected. Implementations must derive ...">
<polygon fill="none" stroke="black" points="300.567,-0.5 300.567,-18.5 407.363,-18.5 407.363,-0.5 300.567,-0.5"/>
<text text-anchor="middle" x="353.965" y="-6.5" font-family="Helvetica,sans-Serif" font-size="10.00">ISelectableLetterTile</text>
</a>
</g>
</g>
<!-- Node32&#45;&gt;Node35 -->
<g id="edge35" class="edge"><title>Node32&#45;&gt;Node35</title>
<path fill="none" stroke="midnightblue" d="M217.681,-52.3286C235.508,-44.4364 259.073,-34.5916 280.562,-27.5 290.649,-24.1715 301.702,-21.1285 312.068,-18.5297"/>
<polygon fill="midnightblue" stroke="midnightblue" points="216.111,-49.1971 208.418,-56.4824 218.975,-55.5843 216.111,-49.1971"/>
</g>
<!-- Node33&#45;&gt;Node18 -->
<g id="edge32" class="edge"><title>Node33&#45;&gt;Node18</title>
<path fill="none" stroke="midnightblue" d="M410.794,-75.704C428.812,-73.1878 448.012,-70.5067 463.111,-68.3983"/>
<polygon fill="midnightblue" stroke="midnightblue" points="410.07,-72.271 400.651,-77.1204 411.039,-79.2037 410.07,-72.271"/>
</g>
<!-- Node34&#45;&gt;Node18 -->
<g id="edge34" class="edge"><title>Node34&#45;&gt;Node18</title>
<path fill="none" stroke="midnightblue" d="M405.38,-53.1696C424.859,-55.7465 446.407,-58.5971 463.017,-60.7944"/>
<polygon fill="midnightblue" stroke="midnightblue" points="405.793,-49.6937 395.42,-51.8519 404.875,-56.6332 405.793,-49.6937"/>
</g>
<!-- Node35&#45;&gt;Node18 -->
<g id="edge36" class="edge"><title>Node35&#45;&gt;Node18</title>
<path fill="none" stroke="midnightblue" d="M410,-21.4325C415.939,-23.236 421.831,-25.2558 427.368,-27.5 445.849,-34.9908 465.446,-47.0917 477.935,-55.4025"/>
<polygon fill="midnightblue" stroke="midnightblue" points="410.589,-17.9617 400.013,-18.6003 408.679,-24.6961 410.589,-17.9617"/>
</g>
<!-- Node36&#45;&gt;Node13 -->
<g id="edge39" class="edge"><title>Node36&#45;&gt;Node13</title>
<path fill="none" stroke="midnightblue" d="M254.994,-157.5C269.49,-157.5 284.684,-157.5 298.662,-157.5"/>
<polygon fill="midnightblue" stroke="midnightblue" points="254.589,-154 244.589,-157.5 254.589,-161 254.589,-154"/>
</g>
<!-- Node37&#45;&gt;Node14 -->
<g id="edge41" class="edge"><title>Node37&#45;&gt;Node14</title>
<path fill="none" stroke="midnightblue" d="M246.305,-120.5C266.312,-120.5 288.491,-120.5 307.419,-120.5"/>
<polygon fill="midnightblue" stroke="midnightblue" points="246.07,-117 236.07,-120.5 246.07,-124 246.07,-117"/>
</g>
<!-- Node38&#45;&gt;Node15 -->
<g id="edge43" class="edge"><title>Node38&#45;&gt;Node15</title>
<path fill="none" stroke="midnightblue" d="M247.552,-194.5C266.788,-194.5 287.911,-194.5 306.164,-194.5"/>
<polygon fill="midnightblue" stroke="midnightblue" points="247.391,-191 237.391,-194.5 247.391,-198 247.391,-191"/>
</g>
</g>
</svg>
