<?xml version="1.0" encoding="UTF-8" standalone="no"?>
<!DOCTYPE svg PUBLIC "-//W3C//DTD SVG 1.1//EN"
 "http://www.w3.org/Graphics/SVG/1.1/DTD/svg11.dtd">
<!-- Generated by graphviz version 2.38.0 (20140413.2041)
 -->
<!-- Title: Graphical Class Hierarchy Pages: 1 -->
<svg width="245pt" height="64pt"
 viewBox="0.00 0.00 244.81 64.00" xmlns="http://www.w3.org/2000/svg" xmlns:xlink="http://www.w3.org/1999/xlink">
<g id="graph0" class="graph" transform="scale(1 1) rotate(0) translate(4 60)">
<title>Graphical Class Hierarchy</title>
<!-- Node1 -->
<g id="node1" class="node"><title>Node1</title>
<polygon fill="none" stroke="#bfbfbf" points="0,-18.5 0,-36.5 89.3691,-36.5 89.3691,-18.5 0,-18.5"/>
<text text-anchor="middle" x="44.6846" y="-24.5" font-family="Helvetica,sans-Serif" font-size="10.00">ScriptableObject</text>
</g>
<!-- Node2 -->
<g id="node2" class="node"><title>Node2</title>
<g id="a_node2"><a xlink:href="class_thinksquirrel_1_1_word_game_builder_1_1_word_game_language.html" target="_top" xlink:title="Represents a language for a word game. ">
<polygon fill="none" stroke="black" points="125.369,-37.5 125.369,-55.5 236.809,-55.5 236.809,-37.5 125.369,-37.5"/>
<text text-anchor="middle" x="181.089" y="-43.5" font-family="Helvetica,sans-Serif" font-size="10.00">WordGameLanguage</text>
</a>
</g>
</g>
<!-- Node1&#45;&gt;Node2 -->
<g id="edge1" class="edge"><title>Node1&#45;&gt;Node2</title>
<path fill="none" stroke="midnightblue" d="M99.7338,-35.1406C108.111,-36.3248 116.771,-37.5491 125.167,-38.736"/>
<polygon fill="midnightblue" stroke="midnightblue" points="100.085,-31.6556 89.6936,-33.7213 99.1052,-38.5867 100.085,-31.6556"/>
</g>
<!-- Node3 -->
<g id="node3" class="node"><title>Node3</title>
<g id="a_node3"><a xlink:href="class_thinksquirrel_1_1_word_game_builder_1_1_word_set.html" target="_top" xlink:title="A specialized data structure for storing letters and words. ">
<polygon fill="none" stroke="black" points="153.726,-0.5 153.726,-18.5 208.452,-18.5 208.452,-0.5 153.726,-0.5"/>
<text text-anchor="middle" x="181.089" y="-6.5" font-family="Helvetica,sans-Serif" font-size="10.00">WordSet</text>
</a>
</g>
</g>
<!-- Node1&#45;&gt;Node3 -->
<g id="edge2" class="edge"><title>Node1&#45;&gt;Node3</title>
<path fill="none" stroke="midnightblue" d="M99.8159,-20.2505C118.36,-17.767 138.285,-15.0985 153.645,-13.0415"/>
<polygon fill="midnightblue" stroke="midnightblue" points="99.1405,-16.8096 89.6936,-21.6061 100.07,-23.7477 99.1405,-16.8096"/>
</g>
</g>
</svg>
