<?xml version="1.0" encoding="UTF-8" standalone="no"?>
<!DOCTYPE svg PUBLIC "-//W3C//DTD SVG 1.1//EN"
 "http://www.w3.org/Graphics/SVG/1.1/DTD/svg11.dtd">
<!-- Generated by graphviz version 2.38.0 (20140413.2041)
 -->
<!-- Title: Graphical Class Hierarchy Pages: 1 -->
<svg width="209pt" height="64pt"
 viewBox="0.00 0.00 208.84 64.00" xmlns="http://www.w3.org/2000/svg" xmlns:xlink="http://www.w3.org/1999/xlink">
<g id="graph0" class="graph" transform="scale(1 1) rotate(0) translate(4 60)">
<title>Graphical Class Hierarchy</title>
<!-- Node1 -->
<g id="node1" class="node"><title>Node1</title>
<polygon fill="none" stroke="#bfbfbf" points="0,-18.5 0,-36.5 77.6895,-36.5 77.6895,-18.5 0,-18.5"/>
<text text-anchor="middle" x="38.8447" y="-24.5" font-family="Helvetica,sans-Serif" font-size="10.00">EditorWindow</text>
</g>
<!-- Node2 -->
<g id="node2" class="node"><title>Node2</title>
<g id="a_node2"><a xlink:href="class_thinksquirrel_1_1_word_game_builder_editor_1_1_culture_i_d_popup.html" target="_top" xlink:title="A popup window for picking a culture ID in the language editor. ">
<polygon fill="none" stroke="black" points="113.689,-37.5 113.689,-55.5 200.842,-55.5 200.842,-37.5 113.689,-37.5"/>
<text text-anchor="middle" x="157.266" y="-43.5" font-family="Helvetica,sans-Serif" font-size="10.00">CultureIDPopup</text>
</a>
</g>
</g>
<!-- Node1&#45;&gt;Node2 -->
<g id="edge1" class="edge"><title>Node1&#45;&gt;Node2</title>
<path fill="none" stroke="midnightblue" d="M88.1005,-35.3754C96.5684,-36.7574 105.326,-38.1866 113.627,-39.5414"/>
<polygon fill="midnightblue" stroke="midnightblue" points="88.3985,-31.8778 77.9653,-33.7213 87.2709,-38.7864 88.3985,-31.8778"/>
</g>
<!-- Node3 -->
<g id="node3" class="node"><title>Node3</title>
<g id="a_node3"><a xlink:href="class_thinksquirrel_1_1_word_game_builder_editor_1_1_language_editor.html" target="_top" xlink:title="Various resources for modifying languages through editor scripts. ">
<polygon fill="none" stroke="black" points="113.958,-0.5 113.958,-18.5 200.573,-18.5 200.573,-0.5 113.958,-0.5"/>
<text text-anchor="middle" x="157.266" y="-6.5" font-family="Helvetica,sans-Serif" font-size="10.00">LanguageEditor</text>
</a>
</g>
</g>
<!-- Node1&#45;&gt;Node3 -->
<g id="edge2" class="edge"><title>Node1&#45;&gt;Node3</title>
<path fill="none" stroke="midnightblue" d="M88.1005,-20.0391C96.5684,-18.7299 105.326,-17.3759 113.627,-16.0924"/>
<polygon fill="midnightblue" stroke="midnightblue" points="87.313,-16.6192 77.9653,-21.6061 88.3827,-23.537 87.313,-16.6192"/>
</g>
</g>
</svg>
