<?xml version="1.0" encoding="UTF-8" standalone="no"?>
<!DOCTYPE svg PUBLIC "-//W3C//DTD SVG 1.1//EN"
 "http://www.w3.org/Graphics/SVG/1.1/DTD/svg11.dtd">
<!-- Generated by graphviz version 2.38.0 (20140413.2041)
 -->
<!-- Title: Graphical Class Hierarchy Pages: 1 -->
<svg width="270pt" height="138pt"
 viewBox="0.00 0.00 269.99 138.00" xmlns="http://www.w3.org/2000/svg" xmlns:xlink="http://www.w3.org/1999/xlink">
<g id="graph0" class="graph" transform="scale(1 1) rotate(0) translate(4 134)">
<title>Graphical Class Hierarchy</title>
<!-- Node1 -->
<g id="node1" class="node"><title>Node1</title>
<polygon fill="none" stroke="#bfbfbf" points="21.4038,-111.5 21.4038,-129.5 92.4282,-129.5 92.4282,-111.5 21.4038,-111.5"/>
<text text-anchor="middle" x="56.916" y="-117.5" font-family="Helvetica,sans-Serif" font-size="10.00">IEnumerator</text>
</g>
<!-- Node2 -->
<g id="node2" class="node"><title>Node2</title>
<g id="a_node2"><a xlink:href="struct_thinksquirrel_1_1_word_game_builder_1_1_letter_list_1_1_enumerator.html" target="_top" xlink:title="LetterList.Enumerator">
<polygon fill="none" stroke="black" points="149.832,-74.5 149.832,-92.5 261.989,-92.5 261.989,-74.5 149.832,-74.5"/>
<text text-anchor="middle" x="205.911" y="-80.5" font-family="Helvetica,sans-Serif" font-size="10.00">LetterList.Enumerator</text>
</a>
</g>
</g>
<!-- Node1&#45;&gt;Node2 -->
<g id="edge1" class="edge"><title>Node1&#45;&gt;Node2</title>
<path fill="none" stroke="midnightblue" d="M102.549,-109.265C123.854,-103.903 149.007,-97.5715 169.047,-92.5272"/>
<polygon fill="midnightblue" stroke="midnightblue" points="101.595,-105.896 92.7517,-111.732 103.304,-112.685 101.595,-105.896"/>
</g>
<!-- Node3 -->
<g id="node3" class="node"><title>Node3</title>
<polygon fill="none" stroke="#bfbfbf" points="0,-74.5 0,-92.5 113.832,-92.5 113.832,-74.5 0,-74.5"/>
<text text-anchor="middle" x="56.916" y="-80.5" font-family="Helvetica,sans-Serif" font-size="10.00">IEnumerator&lt; Letter &gt;</text>
</g>
<!-- Node3&#45;&gt;Node2 -->
<g id="edge2" class="edge"><title>Node3&#45;&gt;Node2</title>
<path fill="none" stroke="midnightblue" d="M124.166,-83.5C132.653,-83.5 141.271,-83.5 149.561,-83.5"/>
<polygon fill="midnightblue" stroke="midnightblue" points="123.908,-80.0001 113.908,-83.5 123.908,-87.0001 123.908,-80.0001"/>
</g>
<!-- Node4 -->
<g id="node4" class="node"><title>Node4</title>
<polygon fill="none" stroke="#bfbfbf" points="22.7905,-37.5 22.7905,-55.5 91.0415,-55.5 91.0415,-37.5 22.7905,-37.5"/>
<text text-anchor="middle" x="56.916" y="-43.5" font-family="Helvetica,sans-Serif" font-size="10.00">IDisposable</text>
</g>
<!-- Node4&#45;&gt;Node2 -->
<g id="edge4" class="edge"><title>Node4&#45;&gt;Node2</title>
<path fill="none" stroke="midnightblue" d="M101.185,-57.3912C122.799,-62.8318 148.638,-69.3356 169.119,-74.4909"/>
<polygon fill="midnightblue" stroke="midnightblue" points="101.823,-53.9428 91.2714,-54.8959 100.115,-60.731 101.823,-53.9428"/>
</g>
<!-- Node5 -->
<g id="node5" class="node"><title>Node5</title>
<g id="a_node5"><a xlink:href="class_thinksquirrel_1_1_word_game_builder_1_1_async_task.html" target="_top" xlink:title="Represents an asynchronous task. ">
<polygon fill="none" stroke="black" points="174.014,-37.5 174.014,-55.5 237.807,-55.5 237.807,-37.5 174.014,-37.5"/>
<text text-anchor="middle" x="205.911" y="-43.5" font-family="Helvetica,sans-Serif" font-size="10.00">AsyncTask</text>
</a>
</g>
</g>
<!-- Node4&#45;&gt;Node5 -->
<g id="edge3" class="edge"><title>Node4&#45;&gt;Node5</title>
<path fill="none" stroke="midnightblue" d="M101.547,-46.5C124.736,-46.5 152.704,-46.5 173.698,-46.5"/>
<polygon fill="midnightblue" stroke="midnightblue" points="101.271,-43.0001 91.2714,-46.5 101.271,-50.0001 101.271,-43.0001"/>
</g>
<!-- Node6 -->
<g id="node6" class="node"><title>Node6</title>
<g id="a_node6"><a xlink:href="class_thinksquirrel_1_1_word_game_builder_1_1_tweening_1_1_tweener_3_01_t_01_4.html" target="_top" xlink:title="The main tweening class. ">
<polygon fill="none" stroke="black" points="167.234,-0.5 167.234,-18.5 244.587,-18.5 244.587,-0.5 167.234,-0.5"/>
<text text-anchor="middle" x="205.911" y="-6.5" font-family="Helvetica,sans-Serif" font-size="10.00">Tweener&lt; T &gt;</text>
</a>
</g>
</g>
<!-- Node4&#45;&gt;Node6 -->
<g id="edge5" class="edge"><title>Node4&#45;&gt;Node6</title>
<path fill="none" stroke="midnightblue" d="M101.185,-35.6088C122.799,-30.1682 148.638,-23.6644 169.119,-18.5091"/>
<polygon fill="midnightblue" stroke="midnightblue" points="100.115,-32.269 91.2714,-38.1041 101.823,-39.0572 100.115,-32.269"/>
</g>
</g>
</svg>
