<?xml version="1.0" encoding="UTF-8" standalone="no"?>
<!DOCTYPE svg PUBLIC "-//W3C//DTD SVG 1.1//EN"
 "http://www.w3.org/Graphics/SVG/1.1/DTD/svg11.dtd">
<!-- Generated by graphviz version 2.38.0 (20140413.2041)
 -->
<!-- Title: Letter Pages: 1 -->
<svg width="248pt" height="264pt"
 viewBox="0.00 0.00 248.34 264.00" xmlns="http://www.w3.org/2000/svg" xmlns:xlink="http://www.w3.org/1999/xlink">
<g id="graph0" class="graph" transform="scale(1 1) rotate(0) translate(4 260)">
<title>Letter</title>
<!-- Node1 -->
<g id="node1" class="node"><title>Node1</title>
<polygon fill="#bfbfbf" stroke="black" points="69.9888,-0.5 69.9888,-164.5 164.636,-164.5 164.636,-0.5 69.9888,-0.5"/>
<text text-anchor="middle" x="117.312" y="-152.5" font-family="Helvetica,sans-Serif" font-size="10.00">Letter</text>
<polyline fill="none" stroke="black" points="69.9888,-146.5 164.636,-146.5 "/>
<text text-anchor="start" x="77.9888" y="-134.5" font-family="Helvetica,sans-Serif" font-size="10.00">+ character</text>
<text text-anchor="start" x="77.9888" y="-124.5" font-family="Helvetica,sans-Serif" font-size="10.00">+ empty</text>
<text text-anchor="start" x="77.9888" y="-114.5" font-family="Helvetica,sans-Serif" font-size="10.00">+ hasValue</text>
<text text-anchor="start" x="77.9888" y="-104.5" font-family="Helvetica,sans-Serif" font-size="10.00">+ score</text>
<text text-anchor="start" x="77.9888" y="-94.5" font-family="Helvetica,sans-Serif" font-size="10.00">+ text</text>
<polyline fill="none" stroke="black" points="69.9888,-88.5 164.636,-88.5 "/>
<text text-anchor="start" x="77.9888" y="-76.5" font-family="Helvetica,sans-Serif" font-size="10.00">+ Letter()</text>
<text text-anchor="start" x="77.9888" y="-66.5" font-family="Helvetica,sans-Serif" font-size="10.00">+ CompareTo()</text>
<text text-anchor="start" x="77.9888" y="-56.5" font-family="Helvetica,sans-Serif" font-size="10.00">+ CompareTo()</text>
<text text-anchor="start" x="77.9888" y="-46.5" font-family="Helvetica,sans-Serif" font-size="10.00">+ Equals()</text>
<text text-anchor="start" x="77.9888" y="-36.5" font-family="Helvetica,sans-Serif" font-size="10.00">+ Equals()</text>
<text text-anchor="start" x="77.9888" y="-26.5" font-family="Helvetica,sans-Serif" font-size="10.00">+ GetHashCode()</text>
<text text-anchor="start" x="77.9888" y="-16.5" font-family="Helvetica,sans-Serif" font-size="10.00">+ operator!=()</text>
<text text-anchor="start" x="77.9888" y="-6.5" font-family="Helvetica,sans-Serif" font-size="10.00">+ operator==()</text>
</g>
<!-- Node2 -->
<g id="node2" class="node"><title>Node2</title>
<polygon fill="none" stroke="#bfbfbf" points="0,-201.5 0,-255.5 106.625,-255.5 106.625,-201.5 0,-201.5"/>
<text text-anchor="middle" x="53.3125" y="-243.5" font-family="Helvetica,sans-Serif" font-size="10.00">IEquatable&lt; Letter &gt;</text>
<polyline fill="none" stroke="#bfbfbf" points="0,-237.5 106.625,-237.5 "/>
<text text-anchor="middle" x="53.3125" y="-225.5" font-family="Helvetica,sans-Serif" font-size="10.00"> </text>
<polyline fill="none" stroke="#bfbfbf" points="0,-219.5 106.625,-219.5 "/>
<text text-anchor="middle" x="53.3125" y="-207.5" font-family="Helvetica,sans-Serif" font-size="10.00"> </text>
</g>
<!-- Node2&#45;&gt;Node1 -->
<g id="edge1" class="edge"><title>Node2&#45;&gt;Node1</title>
<path fill="none" stroke="midnightblue" d="M68.9843,-192.238C72.7716,-183.717 76.9757,-174.258 81.2787,-164.576"/>
<polygon fill="none" stroke="midnightblue" points="65.7655,-190.863 64.9024,-201.423 72.1622,-193.706 65.7655,-190.863"/>
</g>
<!-- Node3 -->
<g id="node3" class="node"><title>Node3</title>
<polygon fill="none" stroke="#bfbfbf" points="124.283,-201.5 124.283,-255.5 240.342,-255.5 240.342,-201.5 124.283,-201.5"/>
<text text-anchor="middle" x="182.312" y="-243.5" font-family="Helvetica,sans-Serif" font-size="10.00">IComparable&lt; Letter &gt;</text>
<polyline fill="none" stroke="#bfbfbf" points="124.283,-237.5 240.342,-237.5 "/>
<text text-anchor="middle" x="182.312" y="-225.5" font-family="Helvetica,sans-Serif" font-size="10.00"> </text>
<polyline fill="none" stroke="#bfbfbf" points="124.283,-219.5 240.342,-219.5 "/>
<text text-anchor="middle" x="182.312" y="-207.5" font-family="Helvetica,sans-Serif" font-size="10.00"> </text>
</g>
<!-- Node3&#45;&gt;Node1 -->
<g id="edge2" class="edge"><title>Node3&#45;&gt;Node1</title>
<path fill="none" stroke="midnightblue" d="M166.396,-192.238C162.549,-183.717 158.28,-174.258 153.909,-164.576"/>
<polygon fill="none" stroke="midnightblue" points="163.237,-193.748 170.541,-201.423 169.617,-190.868 163.237,-193.748"/>
</g>
</g>
</svg>
