<?xml version="1.0" encoding="UTF-8" standalone="no"?>
<!DOCTYPE svg PUBLIC "-//W3C//DTD SVG 1.1//EN"
 "http://www.w3.org/Graphics/SVG/1.1/DTD/svg11.dtd">
<!-- Generated by graphviz version 2.38.0 (20140413.2041)
 -->
<!-- Title: LoadLanguageWithProgressBar Pages: 1 -->
<svg width="372pt" height="88pt"
 viewBox="0.00 0.00 372.00 88.00" xmlns="http://www.w3.org/2000/svg" xmlns:xlink="http://www.w3.org/1999/xlink">
<g id="graph0" class="graph" transform="scale(1 1) rotate(0) translate(4 84)">
<title>LoadLanguageWithProgressBar</title>
<!-- Node1 -->
<g id="node1" class="node"><title>Node1</title>
<polygon fill="#bfbfbf" stroke="black" points="0,-30 0,-49 154,-49 154,-30 0,-30"/>
<text text-anchor="middle" x="77" y="-37" font-family="Helvetica,sans-Serif" font-size="10.00">LoadLanguageWithProgressBar</text>
</g>
<!-- Node2 -->
<g id="node2" class="node"><title>Node2</title>
<g id="a_node2"><a xlink:href="class_thinksquirrel_1_1_word_game_builder_1_1_word_game_language.html#a152b4ae6cda7fe6860603d6eee8b4c84" target="_top" xlink:title="Loads a language by identifier (file name). ">
<polygon fill="none" stroke="black" points="190,-49.5 190,-79.5 364,-79.5 364,-49.5 190,-49.5"/>
<text text-anchor="start" x="198" y="-67.5" font-family="Helvetica,sans-Serif" font-size="10.00">Thinksquirrel.WordGameBuilder.</text>
<text text-anchor="middle" x="277" y="-56.5" font-family="Helvetica,sans-Serif" font-size="10.00">WordGameLanguage.LoadLanguage</text>
</a>
</g>
</g>
<!-- Node1&#45;&gt;Node2 -->
<g id="edge1" class="edge"><title>Node1&#45;&gt;Node2</title>
<path fill="none" stroke="midnightblue" d="M153.42,-49.0227C162.075,-50.1155 170.985,-51.2406 179.865,-52.3617"/>
<polygon fill="midnightblue" stroke="midnightblue" points="179.502,-55.8436 189.862,-53.624 180.379,-48.8988 179.502,-55.8436"/>
</g>
<!-- Node3 -->
<g id="node3" class="node"><title>Node3</title>
<g id="a_node3"><a xlink:href="class_thinksquirrel_1_1_word_game_builder_1_1_word_set.html#a588f9d63a9e5ad1d87dd27c0991adf48" target="_top" xlink:title="Expands the set from compressed form. ">
<polygon fill="none" stroke="black" points="198.5,-0.5 198.5,-30.5 355.5,-30.5 355.5,-0.5 198.5,-0.5"/>
<text text-anchor="start" x="206.5" y="-18.5" font-family="Helvetica,sans-Serif" font-size="10.00">Thinksquirrel.WordGameBuilder.</text>
<text text-anchor="middle" x="277" y="-7.5" font-family="Helvetica,sans-Serif" font-size="10.00">WordSet.Decompress</text>
</a>
</g>
</g>
<!-- Node1&#45;&gt;Node3 -->
<g id="edge2" class="edge"><title>Node1&#45;&gt;Node3</title>
<path fill="none" stroke="midnightblue" d="M154.269,-30.2553C165.475,-28.897 177.092,-27.4888 188.503,-26.1057"/>
<polygon fill="midnightblue" stroke="midnightblue" points="188.955,-29.5766 198.462,-24.8986 188.113,-22.6274 188.955,-29.5766"/>
</g>
</g>
</svg>
