<?xml version="1.0" encoding="UTF-8" standalone="no"?>
<!DOCTYPE svg PUBLIC "-//W3C//DTD SVG 1.1//EN"
 "http://www.w3.org/Graphics/SVG/1.1/DTD/svg11.dtd">
<!-- Generated by graphviz version 2.38.0 (20140413.2041)
 -->
<!-- Title: ExampleViewModel Pages: 1 -->
<svg width="134pt" height="226pt"
 viewBox="0.00 0.00 134.00 226.00" xmlns="http://www.w3.org/2000/svg" xmlns:xlink="http://www.w3.org/1999/xlink">
<g id="graph0" class="graph" transform="scale(1 1) rotate(0) translate(4 222)">
<title>ExampleViewModel</title>
<!-- Node1 -->
<g id="node1" class="node"><title>Node1</title>
<polygon fill="#bfbfbf" stroke="black" points="0,-0.5 0,-123.5 126,-123.5 126,-0.5 0,-0.5"/>
<text text-anchor="middle" x="63" y="-111.5" font-family="Helvetica,sans-Serif" font-size="10.00">ExampleViewModel</text>
<polyline fill="none" stroke="black" points="0,-104.5 126,-104.5 "/>
<text text-anchor="start" x="8" y="-92.5" font-family="Helvetica,sans-Serif" font-size="10.00">+ agent</text>
<text text-anchor="start" x="8" y="-81.5" font-family="Helvetica,sans-Serif" font-size="10.00">+ game</text>
<text text-anchor="start" x="8" y="-70.5" font-family="Helvetica,sans-Serif" font-size="10.00">+ languages</text>
<text text-anchor="start" x="8" y="-59.5" font-family="Helvetica,sans-Serif" font-size="10.00">+ player</text>
<text text-anchor="start" x="8" y="-48.5" font-family="Helvetica,sans-Serif" font-size="10.00">+ showWildcardPanel</text>
<text text-anchor="start" x="8" y="-37.5" font-family="Helvetica,sans-Serif" font-size="10.00">+ submitButtonEnabled</text>
<text text-anchor="start" x="8" y="-26.5" font-family="Helvetica,sans-Serif" font-size="10.00">+ wildcardPanelSelection</text>
<polyline fill="none" stroke="black" points="0,-19.5 126,-19.5 "/>
<text text-anchor="middle" x="63" y="-7.5" font-family="Helvetica,sans-Serif" font-size="10.00"> </text>
</g>
<!-- Node2 -->
<g id="node2" class="node"><title>Node2</title>
<polygon fill="none" stroke="#bfbfbf" points="21.5,-160.5 21.5,-217.5 104.5,-217.5 104.5,-160.5 21.5,-160.5"/>
<text text-anchor="middle" x="63" y="-205.5" font-family="Helvetica,sans-Serif" font-size="10.00">MonoBehaviour</text>
<polyline fill="none" stroke="#bfbfbf" points="21.5,-198.5 104.5,-198.5 "/>
<text text-anchor="middle" x="63" y="-186.5" font-family="Helvetica,sans-Serif" font-size="10.00"> </text>
<polyline fill="none" stroke="#bfbfbf" points="21.5,-179.5 104.5,-179.5 "/>
<text text-anchor="middle" x="63" y="-167.5" font-family="Helvetica,sans-Serif" font-size="10.00"> </text>
</g>
<!-- Node2&#45;&gt;Node1 -->
<g id="edge1" class="edge"><title>Node2&#45;&gt;Node1</title>
<path fill="none" stroke="midnightblue" d="M63,-150.099C63,-141.739 63,-132.68 63,-123.672"/>
<polygon fill="none" stroke="midnightblue" points="59.5001,-150.258 63,-160.258 66.5001,-150.258 59.5001,-150.258"/>
</g>
</g>
</svg>
