<?xml version="1.0" encoding="UTF-8" standalone="no"?>
<!DOCTYPE svg PUBLIC "-//W3C//DTD SVG 1.1//EN"
 "http://www.w3.org/Graphics/SVG/1.1/DTD/svg11.dtd">
<!-- Generated by graphviz version 2.38.0 (20140413.2041)
 -->
<!-- Title: Copy Pages: 1 -->
<svg width="193pt" height="66pt"
 viewBox="0.00 0.00 193.00 66.00" xmlns="http://www.w3.org/2000/svg" xmlns:xlink="http://www.w3.org/1999/xlink">
<g id="graph0" class="graph" transform="scale(1 1) rotate(0) translate(4 62)">
<title>Copy</title>
<!-- Node1 -->
<g id="node1" class="node"><title>Node1</title>
<polygon fill="#bfbfbf" stroke="black" points="0,-19.5 0,-38.5 39,-38.5 39,-19.5 0,-19.5"/>
<text text-anchor="middle" x="19.5" y="-26.5" font-family="Helvetica,sans-Serif" font-size="10.00">Copy</text>
</g>
<!-- Node2 -->
<g id="node2" class="node"><title>Node2</title>
<g id="a_node2"><a xlink:href="class_thinksquirrel_1_1_word_game_builder_1_1_word_game_language.html#a8d44bcde9835062d569725680e4e10cf" target="_top" xlink:title="Creates a language with the given name and identifier (file name). ">
<polygon fill="none" stroke="black" points="107.5,-38.5 107.5,-57.5 152.5,-57.5 152.5,-38.5 107.5,-38.5"/>
<text text-anchor="middle" x="130" y="-45.5" font-family="Helvetica,sans-Serif" font-size="10.00">Create</text>
</a>
</g>
</g>
<!-- Node1&#45;&gt;Node2 -->
<g id="edge1" class="edge"><title>Node1&#45;&gt;Node2</title>
<path fill="none" stroke="midnightblue" d="M39.3993,-32.3095C55.3824,-35.1084 78.6167,-39.1771 97.4203,-42.4699"/>
<polygon fill="midnightblue" stroke="midnightblue" points="96.8828,-45.929 107.337,-44.2064 98.0903,-39.0339 96.8828,-45.929"/>
</g>
<!-- Node3 -->
<g id="node3" class="node"><title>Node3</title>
<g id="a_node3"><a xlink:href="class_thinksquirrel_1_1_word_game_builder_1_1_word_game_language.html#af9fa1744a6ce7695fcfca4f07cae0aaa" target="_top" xlink:title="Imports the words of a language from a CSV file. ">
<polygon fill="none" stroke="black" points="75,-0.5 75,-19.5 185,-19.5 185,-0.5 75,-0.5"/>
<text text-anchor="middle" x="130" y="-7.5" font-family="Helvetica,sans-Serif" font-size="10.00">ImportWordsFromCsv</text>
</a>
</g>
</g>
<!-- Node1&#45;&gt;Node3 -->
<g id="edge2" class="edge"><title>Node1&#45;&gt;Node3</title>
<path fill="none" stroke="midnightblue" d="M39.3993,-25.6905C46.7116,-24.41 55.5416,-22.8637 64.7708,-21.2475"/>
<polygon fill="midnightblue" stroke="midnightblue" points="65.6427,-24.6482 74.8891,-19.4756 64.4352,-17.7531 65.6427,-24.6482"/>
</g>
</g>
</svg>
