<?xml version="1.0" encoding="UTF-8" standalone="no"?>
<!DOCTYPE svg PUBLIC "-//W3C//DTD SVG 1.1//EN"
 "http://www.w3.org/Graphics/SVG/1.1/DTD/svg11.dtd">
<!-- Generated by graphviz version 2.38.0 (20140413.2041)
 -->
<!-- Title: Create Pages: 1 -->
<svg width="528pt" height="235pt"
 viewBox="0.00 0.00 528.00 235.00" xmlns="http://www.w3.org/2000/svg" xmlns:xlink="http://www.w3.org/1999/xlink">
<g id="graph0" class="graph" transform="scale(1 1) rotate(0) translate(4 231)">
<title>Create</title>
<!-- Node1 -->
<g id="node1" class="node"><title>Node1</title>
<polygon fill="#bfbfbf" stroke="black" points="0,-104 0,-123 45,-123 45,-104 0,-104"/>
<text text-anchor="middle" x="22.5" y="-111" font-family="Helvetica,sans-Serif" font-size="10.00">Create</text>
</g>
<!-- Node2 -->
<g id="node2" class="node"><title>Node2</title>
<g id="a_node2"><a xlink:href="class_thinksquirrel_1_1_word_game_builder_1_1_gameplay_1_1_word_checker.html#addf90951538425908ce504b2ed4ab352" target="_top" xlink:title="Checks the input word against the dictionary, asynchronously on another thread. ">
<polygon fill="none" stroke="black" points="81,-196.5 81,-226.5 286,-226.5 286,-196.5 81,-196.5"/>
<text text-anchor="start" x="89" y="-214.5" font-family="Helvetica,sans-Serif" font-size="10.00">Thinksquirrel.WordGameBuilder.</text>
<text text-anchor="middle" x="183.5" y="-203.5" font-family="Helvetica,sans-Serif" font-size="10.00">Gameplay.WordChecker.CheckWordAsync</text>
</a>
</g>
</g>
<!-- Node1&#45;&gt;Node2 -->
<g id="edge1" class="edge"><title>Node1&#45;&gt;Node2</title>
<path fill="none" stroke="midnightblue" d="M33.1328,-132.167C42.8987,-149.2 59.6046,-173.75 81,-187.5 86.4077,-190.975 92.2674,-193.948 98.3498,-196.491"/>
<polygon fill="midnightblue" stroke="midnightblue" points="36.069,-130.241 28.2017,-123.145 29.9266,-133.598 36.069,-130.241"/>
</g>
<!-- Node4 -->
<g id="node4" class="node"><title>Node4</title>
<g id="a_node4"><a xlink:href="class_thinksquirrel_1_1_word_game_builder_1_1_gameplay_1_1_word_game_agent.html#a0b8bd05e5893d7ed1dfeb730058a4330" target="_top" xlink:title="Finds a set of words, based on a list of letter tiles. ">
<polygon fill="none" stroke="black" points="89,-147.5 89,-177.5 278,-177.5 278,-147.5 89,-147.5"/>
<text text-anchor="start" x="97" y="-165.5" font-family="Helvetica,sans-Serif" font-size="10.00">Thinksquirrel.WordGameBuilder.</text>
<text text-anchor="middle" x="183.5" y="-154.5" font-family="Helvetica,sans-Serif" font-size="10.00">Gameplay.WordGameAgent.FindWords</text>
</a>
</g>
</g>
<!-- Node1&#45;&gt;Node4 -->
<g id="edge3" class="edge"><title>Node1&#45;&gt;Node4</title>
<path fill="none" stroke="midnightblue" d="M52.4195,-127.269C61.4434,-131.239 71.5185,-135.346 81,-138.5 90.7935,-141.758 101.258,-144.755 111.609,-147.446"/>
<polygon fill="midnightblue" stroke="midnightblue" points="53.6721,-123.994 43.1181,-123.065 50.7894,-130.373 53.6721,-123.994"/>
</g>
<!-- Node5 -->
<g id="node5" class="node"><title>Node5</title>
<g id="a_node5"><a xlink:href="class_thinksquirrel_1_1_word_game_builder_1_1_word_set.html#aa590080a03b081c2dcd70fb63a8a991a" target="_top" xlink:title="Expands the set from compressed form asynchronously. ">
<polygon fill="none" stroke="black" points="105,-98.5 105,-128.5 262,-128.5 262,-98.5 105,-98.5"/>
<text text-anchor="start" x="113" y="-116.5" font-family="Helvetica,sans-Serif" font-size="10.00">Thinksquirrel.WordGameBuilder.</text>
<text text-anchor="middle" x="183.5" y="-105.5" font-family="Helvetica,sans-Serif" font-size="10.00">WordSet.DecompressAsync</text>
</a>
</g>
</g>
<!-- Node1&#45;&gt;Node5 -->
<g id="edge4" class="edge"><title>Node1&#45;&gt;Node5</title>
<path fill="none" stroke="midnightblue" d="M55.5567,-113.5C69.9039,-113.5 87.5016,-113.5 104.972,-113.5"/>
<polygon fill="midnightblue" stroke="midnightblue" points="55.2749,-110 45.2749,-113.5 55.2749,-117 55.2749,-110"/>
</g>
<!-- Node6 -->
<g id="node6" class="node"><title>Node6</title>
<g id="a_node6"><a xlink:href="class_thinksquirrel_1_1_word_game_builder_1_1_word_set.html#a596aff1ed27807fb992bb9adc5366c21" target="_top" xlink:title="Finds the word in the set, asynchronously. ">
<polygon fill="none" stroke="black" points="105,-49.5 105,-79.5 262,-79.5 262,-49.5 105,-49.5"/>
<text text-anchor="start" x="113" y="-67.5" font-family="Helvetica,sans-Serif" font-size="10.00">Thinksquirrel.WordGameBuilder.</text>
<text text-anchor="middle" x="183.5" y="-56.5" font-family="Helvetica,sans-Serif" font-size="10.00">WordSet.FindWordAsync</text>
</a>
</g>
</g>
<!-- Node1&#45;&gt;Node6 -->
<g id="edge5" class="edge"><title>Node1&#45;&gt;Node6</title>
<path fill="none" stroke="midnightblue" d="M53.6331,-99.8981C62.3585,-96.2404 71.9682,-92.4775 81,-89.5 91.9447,-85.8918 103.705,-82.5355 115.202,-79.528"/>
<polygon fill="midnightblue" stroke="midnightblue" points="52.0417,-96.7724 44.2353,-103.936 54.8049,-103.204 52.0417,-96.7724"/>
</g>
<!-- Node7 -->
<g id="node7" class="node"><title>Node7</title>
<g id="a_node7"><a xlink:href="class_thinksquirrel_1_1_word_game_builder_1_1_word_set.html#a40a5fa0daad2bab4f247df0a2474b286" target="_top" xlink:title="Asynchronously returns all words that begin with a prefix, up to maxIterations. ">
<polygon fill="none" stroke="black" points="105,-0.5 105,-30.5 262,-30.5 262,-0.5 105,-0.5"/>
<text text-anchor="start" x="113" y="-18.5" font-family="Helvetica,sans-Serif" font-size="10.00">Thinksquirrel.WordGameBuilder.</text>
<text text-anchor="middle" x="183.5" y="-7.5" font-family="Helvetica,sans-Serif" font-size="10.00">WordSet.FindWordsAsync</text>
</a>
</g>
</g>
<!-- Node1&#45;&gt;Node7 -->
<g id="edge6" class="edge"><title>Node1&#45;&gt;Node7</title>
<path fill="none" stroke="midnightblue" d="M33.3813,-94.8608C43.2323,-78.1009 59.9162,-54.0903 81,-40.5 88.3219,-35.7805 96.4664,-31.9518 104.868,-28.846"/>
<polygon fill="midnightblue" stroke="midnightblue" points="30.2304,-93.3237 28.389,-103.757 36.335,-96.7493 30.2304,-93.3237"/>
</g>
<!-- Node3 -->
<g id="node3" class="node"><title>Node3</title>
<g id="a_node3"><a xlink:href="class_thinksquirrel_1_1_word_game_builder_1_1_gameplay_1_1_word_game_player.html#a5850054dce7050ff763f918e17ded96c" target="_top" xlink:title="Submits the word for checking against the specified langauge&#39;s word list. ">
<polygon fill="none" stroke="black" points="322,-196.5 322,-226.5 520,-226.5 520,-196.5 322,-196.5"/>
<text text-anchor="start" x="330" y="-214.5" font-family="Helvetica,sans-Serif" font-size="10.00">Thinksquirrel.WordGameBuilder.</text>
<text text-anchor="middle" x="421" y="-203.5" font-family="Helvetica,sans-Serif" font-size="10.00">Gameplay.WordGamePlayer.SubmitWord</text>
</a>
</g>
</g>
<!-- Node2&#45;&gt;Node3 -->
<g id="edge2" class="edge"><title>Node2&#45;&gt;Node3</title>
<path fill="none" stroke="midnightblue" d="M296.102,-211.5C304.664,-211.5 313.27,-211.5 321.737,-211.5"/>
<polygon fill="midnightblue" stroke="midnightblue" points="296.082,-208 286.082,-211.5 296.082,-215 296.082,-208"/>
</g>
</g>
</svg>
