<?xml version="1.0" encoding="UTF-8" standalone="no"?>
<!DOCTYPE svg PUBLIC "-//W3C//DTD SVG 1.1//EN"
 "http://www.w3.org/Graphics/SVG/1.1/DTD/svg11.dtd">
<!-- Generated by graphviz version 2.38.0 (20140413.2041)
 -->
<!-- Title: Dispatch Pages: 1 -->
<!--zoomable 235 -->
<svg id="main" version="1.1" xmlns="http://www.w3.org/2000/svg" xmlns:xlink="http://www.w3.org/1999/xlink" xml:space="preserve" onload="init(evt)">
<style type="text/css"><![CDATA[
.edge:hover path { stroke: red; }
.edge:hover polygon { stroke: red; fill: red; }
]]></style>
<script type="text/javascript"><![CDATA[
var edges = document.getElementsByTagName('g');
if (edges && edges.length) {
  for (var i=0;i<edges.length;i++) {
    if (edges[i].id.substr(0,4)=='edge') {
      edges[i].setAttribute('class','edge');
    }
  }
}
]]></script>
        <defs>
                <circle id="rim" cx="0" cy="0" r="7"/>
                <circle id="rim2" cx="0" cy="0" r="3.5"/>
                <g id="zoomPlus">
                        <use xlink:href="#rim" fill="#404040">
                                <set attributeName="fill" to="#808080" begin="zoomplus.mouseover" end="zoomplus.mouseout"/>
                        </use>
                        <path d="M-4,0h8M0,-4v8" fill="none" stroke="white" stroke-width="1.5" pointer-events="none"/>
                </g>
                <g id="zoomMin">
                        <use xlink:href="#rim" fill="#404040">
                                <set attributeName="fill" to="#808080" begin="zoomminus.mouseover" end="zoomminus.mouseout"/>
                        </use>
                        <path d="M-4,0h8" fill="none" stroke="white" stroke-width="1.5" pointer-events="none"/>
                </g>
                <g id="dirArrow">
                        <path fill="none" stroke="white" stroke-width="1.5" d="M0,-3.0v7 M-2.5,-0.5L0,-3.0L2.5,-0.5"/>
                </g>
               <g id="resetDef">
                       <use xlink:href="#rim2" fill="#404040">
                               <set attributeName="fill" to="#808080" begin="reset.mouseover" end="reset.mouseout"/>
                       </use>
               </g>
        </defs>

<script type="text/javascript">
var viewWidth = 538;
var viewHeight = 235;
var sectionId = 'dynsection-3';
</script>
<script xlink:href="svgpan.js"/>
<svg id="graph" class="graph">
<g id="viewport">
<title>Dispatch</title>
<!-- Node1 -->
<g id="node1" class="node"><title>Node1</title>
<polygon fill="#bfbfbf" stroke="black" points="0,-104 0,-123 55,-123 55,-104 0,-104"/>
<text text-anchor="middle" x="27.5" y="-111" font-family="Helvetica,sans-Serif" font-size="10.00">Dispatch</text>
</g>
<!-- Node2 -->
<g id="node2" class="node"><title>Node2</title>
<g id="a_node2"><a xlink:href="class_thinksquirrel_1_1_word_game_builder_1_1_gameplay_1_1_word_checker.html#addf90951538425908ce504b2ed4ab352" target="_top" xlink:title="Checks the input word against the dictionary, asynchronously on another thread. ">
<polygon fill="none" stroke="black" points="91,-196.5 91,-226.5 296,-226.5 296,-196.5 91,-196.5"/>
<text text-anchor="start" x="99" y="-214.5" font-family="Helvetica,sans-Serif" font-size="10.00">Thinksquirrel.WordGameBuilder.</text>
<text text-anchor="middle" x="193.5" y="-203.5" font-family="Helvetica,sans-Serif" font-size="10.00">Gameplay.WordChecker.CheckWordAsync</text>
</a>
</g>
</g>
<!-- Node1&#45;&gt;Node2 -->
<g id="edge1" class="edge"><title>Node1&#45;&gt;Node2</title>
<path fill="none" stroke="midnightblue" d="M39.0566,-131.688C49.9099,-148.734 68.3913,-173.613 91,-187.5 96.6317,-190.959 102.721,-193.92 109.022,-196.454"/>
<polygon fill="midnightblue" stroke="midnightblue" points="42.0354,-129.85 33.8339,-123.143 36.0627,-133.5 42.0354,-129.85"/>
</g>
<!-- Node4 -->
<g id="node4" class="node"><title>Node4</title>
<g id="a_node4"><a xlink:href="class_thinksquirrel_1_1_word_game_builder_1_1_gameplay_1_1_word_game_agent.html#a0b8bd05e5893d7ed1dfeb730058a4330" target="_top" xlink:title="Finds a set of words, based on a list of letter tiles. ">
<polygon fill="none" stroke="black" points="99,-147.5 99,-177.5 288,-177.5 288,-147.5 99,-147.5"/>
<text text-anchor="start" x="107" y="-165.5" font-family="Helvetica,sans-Serif" font-size="10.00">Thinksquirrel.WordGameBuilder.</text>
<text text-anchor="middle" x="193.5" y="-154.5" font-family="Helvetica,sans-Serif" font-size="10.00">Gameplay.WordGameAgent.FindWords</text>
</a>
</g>
</g>
<!-- Node1&#45;&gt;Node4 -->
<g id="edge3" class="edge"><title>Node1&#45;&gt;Node4</title>
<path fill="none" stroke="midnightblue" d="M59.6448,-127.013C69.5557,-131.027 80.6375,-135.222 91,-138.5 101.186,-141.722 112.068,-144.733 122.785,-147.461"/>
<polygon fill="midnightblue" stroke="midnightblue" points="60.7724,-123.692 50.1941,-123.1 58.0947,-130.159 60.7724,-123.692"/>
</g>
<!-- Node5 -->
<g id="node5" class="node"><title>Node5</title>
<g id="a_node5"><a xlink:href="class_thinksquirrel_1_1_word_game_builder_1_1_word_set.html#aa590080a03b081c2dcd70fb63a8a991a" target="_top" xlink:title="Expands the set from compressed form asynchronously. ">
<polygon fill="none" stroke="black" points="115,-98.5 115,-128.5 272,-128.5 272,-98.5 115,-98.5"/>
<text text-anchor="start" x="123" y="-116.5" font-family="Helvetica,sans-Serif" font-size="10.00">Thinksquirrel.WordGameBuilder.</text>
<text text-anchor="middle" x="193.5" y="-105.5" font-family="Helvetica,sans-Serif" font-size="10.00">WordSet.DecompressAsync</text>
</a>
</g>
</g>
<!-- Node1&#45;&gt;Node5 -->
<g id="edge4" class="edge"><title>Node1&#45;&gt;Node5</title>
<path fill="none" stroke="midnightblue" d="M65.3707,-113.5C80.0598,-113.5 97.555,-113.5 114.796,-113.5"/>
<polygon fill="midnightblue" stroke="midnightblue" points="65.2145,-110 55.2144,-113.5 65.2144,-117 65.2145,-110"/>
</g>
<!-- Node6 -->
<g id="node6" class="node"><title>Node6</title>
<g id="a_node6"><a xlink:href="class_thinksquirrel_1_1_word_game_builder_1_1_word_set.html#a596aff1ed27807fb992bb9adc5366c21" target="_top" xlink:title="Finds the word in the set, asynchronously. ">
<polygon fill="none" stroke="black" points="115,-49.5 115,-79.5 272,-79.5 272,-49.5 115,-49.5"/>
<text text-anchor="start" x="123" y="-67.5" font-family="Helvetica,sans-Serif" font-size="10.00">Thinksquirrel.WordGameBuilder.</text>
<text text-anchor="middle" x="193.5" y="-56.5" font-family="Helvetica,sans-Serif" font-size="10.00">WordSet.FindWordAsync</text>
</a>
</g>
</g>
<!-- Node1&#45;&gt;Node6 -->
<g id="edge5" class="edge"><title>Node1&#45;&gt;Node6</title>
<path fill="none" stroke="midnightblue" d="M60.9694,-100.147C70.5537,-96.4471 81.123,-92.5994 91,-89.5 102.342,-85.941 114.524,-82.5666 126.375,-79.5153"/>
<polygon fill="midnightblue" stroke="midnightblue" points="59.4304,-96.9916 51.4083,-103.912 61.9953,-103.505 59.4304,-96.9916"/>
</g>
<!-- Node7 -->
<g id="node7" class="node"><title>Node7</title>
<g id="a_node7"><a xlink:href="class_thinksquirrel_1_1_word_game_builder_1_1_word_set.html#a40a5fa0daad2bab4f247df0a2474b286" target="_top" xlink:title="Asynchronously returns all words that begin with a prefix, up to maxIterations. ">
<polygon fill="none" stroke="black" points="115,-0.5 115,-30.5 272,-30.5 272,-0.5 115,-0.5"/>
<text text-anchor="start" x="123" y="-18.5" font-family="Helvetica,sans-Serif" font-size="10.00">Thinksquirrel.WordGameBuilder.</text>
<text text-anchor="middle" x="193.5" y="-7.5" font-family="Helvetica,sans-Serif" font-size="10.00">WordSet.FindWordsAsync</text>
</a>
</g>
</g>
<!-- Node1&#45;&gt;Node7 -->
<g id="edge6" class="edge"><title>Node1&#45;&gt;Node7</title>
<path fill="none" stroke="midnightblue" d="M39.6246,-94.868C50.6004,-78.1132 68.9133,-54.1059 91,-40.5 98.3395,-35.9787 106.45,-32.2745 114.792,-29.2399"/>
<polygon fill="midnightblue" stroke="midnightblue" points="36.3934,-93.432 34.037,-103.761 42.3206,-97.156 36.3934,-93.432"/>
</g>
<!-- Node3 -->
<g id="node3" class="node"><title>Node3</title>
<g id="a_node3"><a xlink:href="class_thinksquirrel_1_1_word_game_builder_1_1_gameplay_1_1_word_game_player.html#a5850054dce7050ff763f918e17ded96c" target="_top" xlink:title="Submits the word for checking against the specified langauge&#39;s word list. ">
<polygon fill="none" stroke="black" points="332,-196.5 332,-226.5 530,-226.5 530,-196.5 332,-196.5"/>
<text text-anchor="start" x="340" y="-214.5" font-family="Helvetica,sans-Serif" font-size="10.00">Thinksquirrel.WordGameBuilder.</text>
<text text-anchor="middle" x="431" y="-203.5" font-family="Helvetica,sans-Serif" font-size="10.00">Gameplay.WordGamePlayer.SubmitWord</text>
</a>
</g>
</g>
<!-- Node2&#45;&gt;Node3 -->
<g id="edge2" class="edge"><title>Node2&#45;&gt;Node3</title>
<path fill="none" stroke="midnightblue" d="M306.102,-211.5C314.664,-211.5 323.27,-211.5 331.737,-211.5"/>
<polygon fill="midnightblue" stroke="midnightblue" points="306.082,-208 296.082,-211.5 306.082,-215 306.082,-208"/>
</g>
</g>
</svg>
        <g id="navigator" transform="translate(0 0)" fill="#404254">
                <rect fill="#f2f5e9" fill-opacity="0.5" stroke="#606060" stroke-width=".5" x="0" y="0" width="60" height="60"/>
                <use id="zoomplus" xlink:href="#zoomPlus" x="17" y="9" onmousedown="handleZoom(evt,'in')"/>
                <use id="zoomminus" xlink:href="#zoomMin" x="42" y="9" onmousedown="handleZoom(evt,'out')"/>
                <use id="reset" xlink:href="#resetDef" x="30" y="36" onmousedown="handleReset()"/>
                <g id="arrowUp" xlink:href="#dirArrow" transform="translate(30 24)" onmousedown="handlePan(0,-1)">
                  <use xlink:href="#rim" fill="#404040">
                        <set attributeName="fill" to="#808080" begin="arrowUp.mouseover" end="arrowUp.mouseout"/>
                  </use>
                  <path fill="none" stroke="white" stroke-width="1.5" d="M0,-3.0v7 M-2.5,-0.5L0,-3.0L2.5,-0.5"/>
                </g>
                <g id="arrowRight" xlink:href="#dirArrow" transform="rotate(90) translate(36 -43)" onmousedown="handlePan(1,0)">
                  <use xlink:href="#rim" fill="#404040">
                        <set attributeName="fill" to="#808080" begin="arrowRight.mouseover" end="arrowRight.mouseout"/>
                  </use>
                  <path fill="none" stroke="white" stroke-width="1.5" d="M0,-3.0v7 M-2.5,-0.5L0,-3.0L2.5,-0.5"/>
                </g>
                <g id="arrowDown" xlink:href="#dirArrow" transform="rotate(180) translate(-30 -48)" onmousedown="handlePan(0,1)">
                  <use xlink:href="#rim" fill="#404040">
                        <set attributeName="fill" to="#808080" begin="arrowDown.mouseover" end="arrowDown.mouseout"/>
                  </use>
                  <path fill="none" stroke="white" stroke-width="1.5" d="M0,-3.0v7 M-2.5,-0.5L0,-3.0L2.5,-0.5"/>
                </g>
                <g id="arrowLeft" xlink:href="#dirArrow" transform="rotate(270) translate(-36 17)" onmousedown="handlePan(-1,0)">
                  <use xlink:href="#rim" fill="#404040">
                        <set attributeName="fill" to="#808080" begin="arrowLeft.mouseover" end="arrowLeft.mouseout"/>
                  </use>
                  <path fill="none" stroke="white" stroke-width="1.5" d="M0,-3.0v7 M-2.5,-0.5L0,-3.0L2.5,-0.5"/>
                </g>
        </g>
        <svg viewBox="0 0 15 15" width="100%" height="30px" preserveAspectRatio="xMaxYMin meet">
         <g id="arrow_out" transform="scale(0.3 0.3)">
          <a xlink:href="class_thinksquirrel_1_1_word_game_builder_1_1_async_task_a61696d12bced86b6c979f001fa79df78_icgraph_org.svg" target="_base">
           <rect id="button" ry="5" rx="5" y="6" x="6" height="38" width="38"
                fill="#f2f5e9" fill-opacity="0.5" stroke="#606060" stroke-width="1.0"/>
           <path id="arrow"
             d="M 11.500037,31.436501 C 11.940474,20.09759 22.043105,11.32322 32.158766,21.979434 L 37.068811,17.246167 C 37.068811,17.246167 37.088388,32 37.088388,32 L 22.160133,31.978069 C 22.160133,31.978069 26.997745,27.140456 26.997745,27.140456 C 18.528582,18.264221 13.291696,25.230495 11.500037,31.436501 z"
             style="fill:#404040;"/>
          </a>
         </g>
        </svg>
</svg>
