<?xml version="1.0" encoding="UTF-8" standalone="no"?>
<!DOCTYPE svg PUBLIC "-//W3C//DTD SVG 1.1//EN"
 "http://www.w3.org/Graphics/SVG/1.1/DTD/svg11.dtd">
<!-- Generated by graphviz version 2.38.0 (20140413.2041)
 -->
<!-- Title: CultureIDPopup Pages: 1 -->
<svg width="95pt" height="160pt"
 viewBox="0.00 0.00 95.00 160.00" xmlns="http://www.w3.org/2000/svg" xmlns:xlink="http://www.w3.org/1999/xlink">
<g id="graph0" class="graph" transform="scale(1 1) rotate(0) translate(4 156)">
<title>CultureIDPopup</title>
<!-- Node1 -->
<g id="node1" class="node"><title>Node1</title>
<polygon fill="#bfbfbf" stroke="black" points="0,-0.5 0,-57.5 87,-57.5 87,-0.5 0,-0.5"/>
<text text-anchor="middle" x="43.5" y="-45.5" font-family="Helvetica,sans-Serif" font-size="10.00">CultureIDPopup</text>
<polyline fill="none" stroke="black" points="0,-38.5 87,-38.5 "/>
<text text-anchor="start" x="8" y="-26.5" font-family="Helvetica,sans-Serif" font-size="10.00">+ popupEnabled</text>
<polyline fill="none" stroke="black" points="0,-19.5 87,-19.5 "/>
<text text-anchor="middle" x="43.5" y="-7.5" font-family="Helvetica,sans-Serif" font-size="10.00"> </text>
</g>
<!-- Node2 -->
<g id="node2" class="node"><title>Node2</title>
<polygon fill="none" stroke="#bfbfbf" points="5,-94.5 5,-151.5 82,-151.5 82,-94.5 5,-94.5"/>
<text text-anchor="middle" x="43.5" y="-139.5" font-family="Helvetica,sans-Serif" font-size="10.00">EditorWindow</text>
<polyline fill="none" stroke="#bfbfbf" points="5,-132.5 82,-132.5 "/>
<text text-anchor="middle" x="43.5" y="-120.5" font-family="Helvetica,sans-Serif" font-size="10.00"> </text>
<polyline fill="none" stroke="#bfbfbf" points="5,-113.5 82,-113.5 "/>
<text text-anchor="middle" x="43.5" y="-101.5" font-family="Helvetica,sans-Serif" font-size="10.00"> </text>
</g>
<!-- Node2&#45;&gt;Node1 -->
<g id="edge1" class="edge"><title>Node2&#45;&gt;Node1</title>
<path fill="none" stroke="midnightblue" d="M43.5,-84.2092C43.5,-75.2929 43.5,-65.9513 43.5,-57.5836"/>
<polygon fill="none" stroke="midnightblue" points="40.0001,-84.3969 43.5,-94.397 47.0001,-84.397 40.0001,-84.3969"/>
</g>
</g>
</svg>
