<?xml version="1.0" encoding="UTF-8" standalone="no"?>
<!DOCTYPE svg PUBLIC "-//W3C//DTD SVG 1.1//EN"
 "http://www.w3.org/Graphics/SVG/1.1/DTD/svg11.dtd">
<!-- Generated by graphviz version 2.38.0 (20140413.2041)
 -->
<!-- Title: Invoke Pages: 1 -->
<svg width="277pt" height="138pt"
 viewBox="0.00 0.00 277.00 137.50" xmlns="http://www.w3.org/2000/svg" xmlns:xlink="http://www.w3.org/1999/xlink">
<g id="graph0" class="graph" transform="scale(1 1) rotate(0) translate(4 133.5)">
<title>Invoke</title>
<!-- Node1 -->
<g id="node1" class="node"><title>Node1</title>
<polygon fill="#bfbfbf" stroke="black" points="0,-61 0,-80 44,-80 44,-61 0,-61"/>
<text text-anchor="middle" x="22" y="-68" font-family="Helvetica,sans-Serif" font-size="10.00">Invoke</text>
</g>
<!-- Node2 -->
<g id="node2" class="node"><title>Node2</title>
<g id="a_node2"><a xlink:href="class_thinksquirrel_1_1_word_game_builder_1_1_w_g_b_event.html#a5618b5967a8632ffe2d8e43b98ca8dc0" target="_top" xlink:title="Invoke an event with the current event state. ">
<polygon fill="none" stroke="black" points="152.5,-110 152.5,-129 196.5,-129 196.5,-110 152.5,-110"/>
<text text-anchor="middle" x="174.5" y="-117" font-family="Helvetica,sans-Serif" font-size="10.00">Invoke</text>
</a>
</g>
</g>
<!-- Node1&#45;&gt;Node2 -->
<g id="edge1" class="edge"><title>Node1&#45;&gt;Node2</title>
<path fill="none" stroke="midnightblue" d="M47.2492,-85.2146C57.1224,-90.6813 68.8248,-96.5157 80,-100.5 104.028,-109.067 132.983,-114.202 152.242,-116.935"/>
<polygon fill="midnightblue" stroke="midnightblue" points="48.8376,-82.0909 38.4205,-80.1583 45.3587,-88.1653 48.8376,-82.0909"/>
</g>
<!-- Node3 -->
<g id="node3" class="node"><title>Node3</title>
<g id="a_node3"><a xlink:href="class_thinksquirrel_1_1_word_game_builder_1_1_gameplay_1_1_wildcard_tile_manager.html#a558733e100ca158233fe06df5a0f59ce" target="_top" xlink:title="Selects the specified tile as a wildcard with the specified language and player. ">
<polygon fill="none" stroke="black" points="82,-50 82,-91 267,-91 267,-50 82,-50"/>
<text text-anchor="start" x="90" y="-79" font-family="Helvetica,sans-Serif" font-size="10.00">Thinksquirrel.WordGameBuilder.</text>
<text text-anchor="start" x="90" y="-68" font-family="Helvetica,sans-Serif" font-size="10.00">Gameplay.WildcardTileManager.Select</text>
<text text-anchor="middle" x="174.5" y="-57" font-family="Helvetica,sans-Serif" font-size="10.00">WildcardTile</text>
</a>
</g>
</g>
<!-- Node1&#45;&gt;Node3 -->
<g id="edge2" class="edge"><title>Node1&#45;&gt;Node3</title>
<path fill="none" stroke="midnightblue" d="M54.4703,-70.5C62.7721,-70.5 72.164,-70.5 81.9417,-70.5"/>
<polygon fill="midnightblue" stroke="midnightblue" points="54.2438,-67.0001 44.2438,-70.5 54.2437,-74.0001 54.2438,-67.0001"/>
</g>
<!-- Node4 -->
<g id="node4" class="node"><title>Node4</title>
<g id="a_node4"><a xlink:href="class_thinksquirrel_1_1_word_game_builder_1_1_gameplay_1_1_word_game_agent.html#a0b8bd05e5893d7ed1dfeb730058a4330" target="_top" xlink:title="Finds a set of words, based on a list of letter tiles. ">
<polygon fill="none" stroke="black" points="80,-0.5 80,-30.5 269,-30.5 269,-0.5 80,-0.5"/>
<text text-anchor="start" x="88" y="-18.5" font-family="Helvetica,sans-Serif" font-size="10.00">Thinksquirrel.WordGameBuilder.</text>
<text text-anchor="middle" x="174.5" y="-7.5" font-family="Helvetica,sans-Serif" font-size="10.00">Gameplay.WordGameAgent.FindWords</text>
</a>
</g>
</g>
<!-- Node1&#45;&gt;Node4 -->
<g id="edge3" class="edge"><title>Node1&#45;&gt;Node4</title>
<path fill="none" stroke="midnightblue" d="M47.8041,-55.9004C57.6039,-50.5462 69.1089,-44.7603 80,-40.5 89.389,-36.8273 99.5129,-33.5029 109.512,-30.5653"/>
<polygon fill="midnightblue" stroke="midnightblue" points="46.0142,-52.8913 39.0065,-60.8375 49.44,-58.9957 46.0142,-52.8913"/>
</g>
</g>
</svg>
