<?xml version="1.0" encoding="UTF-8" standalone="no"?>
<!DOCTYPE svg PUBLIC "-//W3C//DTD SVG 1.1//EN"
 "http://www.w3.org/Graphics/SVG/1.1/DTD/svg11.dtd">
<!-- Generated by graphviz version 2.38.0 (20140413.2041)
 -->
<!-- Title: CollapseSet Pages: 1 -->
<svg width="307pt" height="137pt"
 viewBox="0.00 0.00 307.00 137.00" xmlns="http://www.w3.org/2000/svg" xmlns:xlink="http://www.w3.org/1999/xlink">
<g id="graph0" class="graph" transform="scale(1 1) rotate(0) translate(4 133)">
<title>CollapseSet</title>
<!-- Node1 -->
<g id="node1" class="node"><title>Node1</title>
<polygon fill="#bfbfbf" stroke="black" points="0,-55 0,-74 69,-74 69,-55 0,-55"/>
<text text-anchor="middle" x="34.5" y="-62" font-family="Helvetica,sans-Serif" font-size="10.00">CollapseSet</text>
</g>
<!-- Node2 -->
<g id="node2" class="node"><title>Node2</title>
<g id="a_node2"><a xlink:href="class_thinksquirrel_1_1_word_game_builder_1_1_word_game_language.html#a3beb481648a7e11edf80adb71ba5a5cc" target="_top" xlink:title="Unloads a language by identifier. ">
<polygon fill="none" stroke="black" points="105,-98.5 105,-128.5 299,-128.5 299,-98.5 105,-98.5"/>
<text text-anchor="start" x="113" y="-116.5" font-family="Helvetica,sans-Serif" font-size="10.00">Thinksquirrel.WordGameBuilder.</text>
<text text-anchor="middle" x="202" y="-105.5" font-family="Helvetica,sans-Serif" font-size="10.00">WordGameLanguage.RemoveByIdentifier</text>
</a>
</g>
</g>
<!-- Node1&#45;&gt;Node2 -->
<g id="edge1" class="edge"><title>Node1&#45;&gt;Node2</title>
<path fill="none" stroke="midnightblue" d="M69.5143,-77.5054C80.7342,-81.5882 93.3287,-85.9517 105,-89.5 115.273,-92.6232 126.252,-95.6519 136.98,-98.4461"/>
<polygon fill="midnightblue" stroke="midnightblue" points="70.6593,-74.1973 60.066,-74.0172 68.2349,-80.764 70.6593,-74.1973"/>
</g>
<!-- Node3 -->
<g id="node3" class="node"><title>Node3</title>
<g id="a_node3"><a xlink:href="class_thinksquirrel_1_1_word_game_builder_1_1_word_game_language.html#a7f1c6752a7793902e86a28ab8971e256" target="_top" xlink:title="Unloads the first occurance of a language by name. ">
<polygon fill="none" stroke="black" points="110.5,-49.5 110.5,-79.5 293.5,-79.5 293.5,-49.5 110.5,-49.5"/>
<text text-anchor="start" x="118.5" y="-67.5" font-family="Helvetica,sans-Serif" font-size="10.00">Thinksquirrel.WordGameBuilder.</text>
<text text-anchor="middle" x="202" y="-56.5" font-family="Helvetica,sans-Serif" font-size="10.00">WordGameLanguage.RemoveByName</text>
</a>
</g>
</g>
<!-- Node1&#45;&gt;Node3 -->
<g id="edge2" class="edge"><title>Node1&#45;&gt;Node3</title>
<path fill="none" stroke="midnightblue" d="M79.4622,-64.5C89.104,-64.5 99.6538,-64.5 110.382,-64.5"/>
<polygon fill="midnightblue" stroke="midnightblue" points="79.3908,-61.0001 69.3908,-64.5 79.3907,-68.0001 79.3908,-61.0001"/>
</g>
<!-- Node4 -->
<g id="node4" class="node"><title>Node4</title>
<g id="a_node4"><a xlink:href="class_thinksquirrel_1_1_word_game_builder_1_1_word_game_language.html#ae181b60d8c24114b8c417b74a51bff12" target="_top" xlink:title="Completely unloads all languages. ">
<polygon fill="none" stroke="black" points="123.5,-0.5 123.5,-30.5 280.5,-30.5 280.5,-0.5 123.5,-0.5"/>
<text text-anchor="start" x="131.5" y="-18.5" font-family="Helvetica,sans-Serif" font-size="10.00">Thinksquirrel.WordGameBuilder.</text>
<text text-anchor="middle" x="202" y="-7.5" font-family="Helvetica,sans-Serif" font-size="10.00">WordGameLanguage.RemoveAll</text>
</a>
</g>
</g>
<!-- Node1&#45;&gt;Node4 -->
<g id="edge3" class="edge"><title>Node1&#45;&gt;Node4</title>
<path fill="none" stroke="midnightblue" d="M71.2752,-51.5503C82.0579,-47.8088 93.9611,-43.8378 105,-40.5 116.375,-37.0606 128.592,-33.659 140.371,-30.5248"/>
<polygon fill="midnightblue" stroke="midnightblue" points="70.0202,-48.2815 61.7447,-54.8972 72.3396,-54.8861 70.0202,-48.2815"/>
</g>
</g>
</svg>
