<?xml version="1.0" encoding="UTF-8" standalone="no"?>
<!DOCTYPE svg PUBLIC "-//W3C//DTD SVG 1.1//EN"
 "http://www.w3.org/Graphics/SVG/1.1/DTD/svg11.dtd">
<!-- Generated by graphviz version 2.38.0 (20140413.2041)
 -->
<!-- Title: OnPlayerWordResult Pages: 1 -->
<svg width="354pt" height="88pt"
 viewBox="0.00 0.00 354.00 88.00" xmlns="http://www.w3.org/2000/svg" xmlns:xlink="http://www.w3.org/1999/xlink">
<g id="graph0" class="graph" transform="scale(1 1) rotate(0) translate(4 84)">
<title>OnPlayerWordResult</title>
<!-- Node1 -->
<g id="node1" class="node"><title>Node1</title>
<polygon fill="#bfbfbf" stroke="black" points="0,-30 0,-49 108,-49 108,-30 0,-30"/>
<text text-anchor="middle" x="54" y="-37" font-family="Helvetica,sans-Serif" font-size="10.00">OnPlayerWordResult</text>
</g>
<!-- Node2 -->
<g id="node2" class="node"><title>Node2</title>
<g id="a_node2"><a xlink:href="interface_thinksquirrel_1_1_word_game_builder_1_1_object_model_1_1_i_word_game_agent.html#a4bcc8aa30dc4f3f6f9e257fd064d955f" target="_top" xlink:title="Finds a set of words, based on the player&#39;s current held tiles. ">
<polygon fill="none" stroke="black" points="144,-49.5 144,-79.5 346,-79.5 346,-49.5 144,-49.5"/>
<text text-anchor="start" x="152" y="-67.5" font-family="Helvetica,sans-Serif" font-size="10.00">Thinksquirrel.WordGameBuilder.</text>
<text text-anchor="middle" x="245" y="-56.5" font-family="Helvetica,sans-Serif" font-size="10.00">ObjectModel.IWordGameAgent.FindWords</text>
</a>
</g>
</g>
<!-- Node1&#45;&gt;Node2 -->
<g id="edge1" class="edge"><title>Node1&#45;&gt;Node2</title>
<path fill="none" stroke="midnightblue" d="M108.15,-46.5304C116.321,-47.6112 125.005,-48.76 133.879,-49.9337"/>
<polygon fill="midnightblue" stroke="midnightblue" points="133.588,-53.4256 143.96,-51.2672 134.506,-46.486 133.588,-53.4256"/>
</g>
<!-- Node3 -->
<g id="node3" class="node"><title>Node3</title>
<g id="a_node3"><a xlink:href="interface_thinksquirrel_1_1_word_game_builder_1_1_object_model_1_1_i_tile_pool.html#ae66f37155b51e19efe7a39369371c2c1" target="_top" xlink:title="Distributes the specified amount of tiles to the specified IWordGamePlayer, up to the player&#39;s maximu...">
<polygon fill="none" stroke="black" points="157,-0.5 157,-30.5 333,-30.5 333,-0.5 157,-0.5"/>
<text text-anchor="start" x="165" y="-18.5" font-family="Helvetica,sans-Serif" font-size="10.00">Thinksquirrel.WordGameBuilder.</text>
<text text-anchor="middle" x="245" y="-7.5" font-family="Helvetica,sans-Serif" font-size="10.00">ObjectModel.ITilePool.DistributeTiles</text>
</a>
</g>
</g>
<!-- Node1&#45;&gt;Node3 -->
<g id="edge2" class="edge"><title>Node1&#45;&gt;Node3</title>
<path fill="none" stroke="midnightblue" d="M108.15,-32.7508C120.244,-31.2151 133.463,-29.5365 146.754,-27.8486"/>
<polygon fill="midnightblue" stroke="midnightblue" points="147.436,-31.2903 156.915,-26.5584 146.554,-24.3461 147.436,-31.2903"/>
</g>
</g>
</svg>
