<?xml version="1.0" encoding="UTF-8" standalone="no"?>
<!DOCTYPE svg PUBLIC "-//W3C//DTD SVG 1.1//EN"
 "http://www.w3.org/Graphics/SVG/1.1/DTD/svg11.dtd">
<!-- Generated by graphviz version 2.38.0 (20140413.2041)
 -->
<!-- Title: FindWordsAsync Pages: 1 -->
<svg width="293pt" height="88pt"
 viewBox="0.00 0.00 293.00 88.00" xmlns="http://www.w3.org/2000/svg" xmlns:xlink="http://www.w3.org/1999/xlink">
<g id="graph0" class="graph" transform="scale(1 1) rotate(0) translate(4 84)">
<title>FindWordsAsync</title>
<!-- Node1 -->
<g id="node1" class="node"><title>Node1</title>
<polygon fill="#bfbfbf" stroke="black" points="0,-30 0,-49 92,-49 92,-30 0,-30"/>
<text text-anchor="middle" x="46" y="-37" font-family="Helvetica,sans-Serif" font-size="10.00">FindWordsAsync</text>
</g>
<!-- Node2 -->
<g id="node2" class="node"><title>Node2</title>
<g id="a_node2"><a xlink:href="class_thinksquirrel_1_1_word_game_builder_1_1_async_task.html#a74d46304f773f12c82b4c083696c7855" target="_top" xlink:title="Creates a task on a background thread. ">
<polygon fill="none" stroke="black" points="128,-49.5 128,-79.5 285,-79.5 285,-49.5 128,-49.5"/>
<text text-anchor="start" x="136" y="-67.5" font-family="Helvetica,sans-Serif" font-size="10.00">Thinksquirrel.WordGameBuilder.</text>
<text text-anchor="middle" x="206.5" y="-56.5" font-family="Helvetica,sans-Serif" font-size="10.00">AsyncTask.Create</text>
</a>
</g>
</g>
<!-- Node1&#45;&gt;Node2 -->
<g id="edge1" class="edge"><title>Node1&#45;&gt;Node2</title>
<path fill="none" stroke="midnightblue" d="M92.4197,-46.664C100.462,-47.9325 109.076,-49.2912 117.829,-50.6718"/>
<polygon fill="midnightblue" stroke="midnightblue" points="117.324,-54.1353 127.747,-52.2362 118.415,-47.2208 117.324,-54.1353"/>
</g>
<!-- Node3 -->
<g id="node3" class="node"><title>Node3</title>
<g id="a_node3"><a xlink:href="class_thinksquirrel_1_1_word_game_builder_1_1_async_task.html#a61696d12bced86b6c979f001fa79df78" target="_top" xlink:title="Dispatches an action onto the main thread. ">
<polygon fill="none" stroke="black" points="128,-0.5 128,-30.5 285,-30.5 285,-0.5 128,-0.5"/>
<text text-anchor="start" x="136" y="-18.5" font-family="Helvetica,sans-Serif" font-size="10.00">Thinksquirrel.WordGameBuilder.</text>
<text text-anchor="middle" x="206.5" y="-7.5" font-family="Helvetica,sans-Serif" font-size="10.00">AsyncTask.Dispatch</text>
</a>
</g>
</g>
<!-- Node1&#45;&gt;Node3 -->
<g id="edge2" class="edge"><title>Node1&#45;&gt;Node3</title>
<path fill="none" stroke="midnightblue" d="M92.4197,-32.6226C100.462,-31.4048 109.076,-30.1004 117.829,-28.7751"/>
<polygon fill="midnightblue" stroke="midnightblue" points="118.384,-32.231 127.747,-27.2733 117.336,-25.3099 118.384,-32.231"/>
</g>
</g>
</svg>
