<?xml version="1.0" encoding="UTF-8" standalone="no"?>
<!DOCTYPE svg PUBLIC "-//W3C//DTD SVG 1.1//EN"
 "http://www.w3.org/Graphics/SVG/1.1/DTD/svg11.dtd">
<!-- Generated by graphviz version 2.38.0 (20140413.2041)
 -->
<!-- Title: FindByIdentifier Pages: 1 -->
<svg width="291pt" height="176pt"
 viewBox="0.00 0.00 291.00 175.50" xmlns="http://www.w3.org/2000/svg" xmlns:xlink="http://www.w3.org/1999/xlink">
<g id="graph0" class="graph" transform="scale(1 1) rotate(0) translate(4 171.5)">
<title>FindByIdentifier</title>
<!-- Node1 -->
<g id="node1" class="node"><title>Node1</title>
<polygon fill="#bfbfbf" stroke="black" points="0,-68.5 0,-87.5 83,-87.5 83,-68.5 0,-68.5"/>
<text text-anchor="middle" x="41.5" y="-75.5" font-family="Helvetica,sans-Serif" font-size="10.00">FindByIdentifier</text>
</g>
<!-- Node2 -->
<g id="node2" class="node"><title>Node2</title>
<g id="a_node2"><a xlink:href="class_thinksquirrel_1_1_word_game_builder_1_1_gameplay_1_1_tile_pool.html#ad93cb8a56a2c82e24f9073821654d986" target="_top" xlink:title="Creates the tile pool. ">
<polygon fill="none" stroke="black" points="119,-137 119,-167 283,-167 283,-137 119,-137"/>
<text text-anchor="start" x="127" y="-155" font-family="Helvetica,sans-Serif" font-size="10.00">Thinksquirrel.WordGameBuilder.</text>
<text text-anchor="middle" x="201" y="-144" font-family="Helvetica,sans-Serif" font-size="10.00">Gameplay.TilePool.CreateTilePool</text>
</a>
</g>
</g>
<!-- Node1&#45;&gt;Node2 -->
<g id="edge1" class="edge"><title>Node1&#45;&gt;Node2</title>
<path fill="none" stroke="midnightblue" d="M63.2496,-93.9513C78.1146,-104.767 98.9674,-118.728 119,-128 126.188,-131.327 133.947,-134.318 141.717,-136.967"/>
<polygon fill="midnightblue" stroke="midnightblue" points="64.9428,-90.849 54.8287,-87.6938 60.7677,-96.4676 64.9428,-90.849"/>
</g>
<!-- Node3 -->
<g id="node3" class="node"><title>Node3</title>
<g id="a_node3"><a xlink:href="class_thinksquirrel_1_1_word_game_builder_1_1_gameplay_1_1_tile_pool.html#a57b5649459feafb1388a3c83d04141e8" target="_top" xlink:title="Resets the tile pool. ">
<polygon fill="none" stroke="black" points="120.5,-88 120.5,-118 281.5,-118 281.5,-88 120.5,-88"/>
<text text-anchor="start" x="128.5" y="-106" font-family="Helvetica,sans-Serif" font-size="10.00">Thinksquirrel.WordGameBuilder.</text>
<text text-anchor="middle" x="201" y="-95" font-family="Helvetica,sans-Serif" font-size="10.00">Gameplay.TilePool.ResetTilePool</text>
</a>
</g>
</g>
<!-- Node1&#45;&gt;Node3 -->
<g id="edge2" class="edge"><title>Node1&#45;&gt;Node3</title>
<path fill="none" stroke="midnightblue" d="M93.0581,-86.0251C101.811,-87.4144 111.099,-88.8887 120.403,-90.3655"/>
<polygon fill="midnightblue" stroke="midnightblue" points="93.4852,-82.5492 83.0602,-84.4381 92.3878,-89.4626 93.4852,-82.5492"/>
</g>
<!-- Node4 -->
<g id="node4" class="node"><title>Node4</title>
<g id="a_node4"><a xlink:href="class_thinksquirrel_1_1_word_game_builder_1_1_gameplay_1_1_tile_pool.html#a9a6655be91f9a087ac4d460821885fc3" target="_top" xlink:title="Spawns a brand new tile into the pool, based on the specified letter. ">
<polygon fill="none" stroke="black" points="122.5,-39 122.5,-69 279.5,-69 279.5,-39 122.5,-39"/>
<text text-anchor="start" x="130.5" y="-57" font-family="Helvetica,sans-Serif" font-size="10.00">Thinksquirrel.WordGameBuilder.</text>
<text text-anchor="middle" x="201" y="-46" font-family="Helvetica,sans-Serif" font-size="10.00">Gameplay.TilePool.CreateTile</text>
</a>
</g>
</g>
<!-- Node1&#45;&gt;Node4 -->
<g id="edge3" class="edge"><title>Node1&#45;&gt;Node4</title>
<path fill="none" stroke="midnightblue" d="M92.9494,-70.3125C102.314,-68.8855 112.294,-67.3648 122.252,-65.8473"/>
<polygon fill="midnightblue" stroke="midnightblue" points="92.4188,-66.8528 83.0602,-71.8194 93.4733,-73.773 92.4188,-66.8528"/>
</g>
<!-- Node5 -->
<g id="node5" class="node"><title>Node5</title>
<g id="a_node5"><a xlink:href="class_thinksquirrel_1_1_word_game_builder_1_1_word_game_language.html#a9ac0166c5bf9e7e44b056d0fc3e7e355" target="_top" xlink:title="Deep copy this language to a new language. A unique name will be assigned to the language identifier...">
<polygon fill="none" stroke="black" points="181.5,-0.5 181.5,-19.5 220.5,-19.5 220.5,-0.5 181.5,-0.5"/>
<text text-anchor="middle" x="201" y="-7.5" font-family="Helvetica,sans-Serif" font-size="10.00">Copy</text>
</a>
</g>
</g>
<!-- Node1&#45;&gt;Node5 -->
<g id="edge4" class="edge"><title>Node1&#45;&gt;Node5</title>
<path fill="none" stroke="midnightblue" d="M63.4849,-62.2603C78.3182,-51.7954 99.0382,-38.4683 119,-30 139.535,-21.2884 164.676,-15.8204 181.45,-12.8461"/>
<polygon fill="midnightblue" stroke="midnightblue" points="61.1275,-59.6454 55.0692,-68.3372 65.2255,-65.3205 61.1275,-59.6454"/>
</g>
</g>
</svg>
