<?xml version="1.0" encoding="UTF-8" standalone="no"?>
<!DOCTYPE svg PUBLIC "-//W3C//DTD SVG 1.1//EN"
 "http://www.w3.org/Graphics/SVG/1.1/DTD/svg11.dtd">
<!-- Generated by graphviz version 2.38.0 (20140413.2041)
 -->
<!-- Title: FindWordAsync Pages: 1 -->
<svg width="287pt" height="88pt"
 viewBox="0.00 0.00 287.00 88.00" xmlns="http://www.w3.org/2000/svg" xmlns:xlink="http://www.w3.org/1999/xlink">
<g id="graph0" class="graph" transform="scale(1 1) rotate(0) translate(4 84)">
<title>FindWordAsync</title>
<!-- Node1 -->
<g id="node1" class="node"><title>Node1</title>
<polygon fill="#bfbfbf" stroke="black" points="0,-30 0,-49 86,-49 86,-30 0,-30"/>
<text text-anchor="middle" x="43" y="-37" font-family="Helvetica,sans-Serif" font-size="10.00">FindWordAsync</text>
</g>
<!-- Node2 -->
<g id="node2" class="node"><title>Node2</title>
<g id="a_node2"><a xlink:href="class_thinksquirrel_1_1_word_game_builder_1_1_async_task.html#a74d46304f773f12c82b4c083696c7855" target="_top" xlink:title="Creates a task on a background thread. ">
<polygon fill="none" stroke="black" points="122,-49.5 122,-79.5 279,-79.5 279,-49.5 122,-49.5"/>
<text text-anchor="start" x="130" y="-67.5" font-family="Helvetica,sans-Serif" font-size="10.00">Thinksquirrel.WordGameBuilder.</text>
<text text-anchor="middle" x="200.5" y="-56.5" font-family="Helvetica,sans-Serif" font-size="10.00">AsyncTask.Create</text>
</a>
</g>
</g>
<!-- Node1&#45;&gt;Node2 -->
<g id="edge1" class="edge"><title>Node1&#45;&gt;Node2</title>
<path fill="none" stroke="midnightblue" d="M86.0805,-46.2654C94.1187,-47.5577 102.806,-48.9544 111.672,-50.3797"/>
<polygon fill="midnightblue" stroke="midnightblue" points="111.303,-53.8652 121.731,-51.997 112.414,-46.954 111.303,-53.8652"/>
</g>
<!-- Node3 -->
<g id="node3" class="node"><title>Node3</title>
<g id="a_node3"><a xlink:href="class_thinksquirrel_1_1_word_game_builder_1_1_async_task.html#a61696d12bced86b6c979f001fa79df78" target="_top" xlink:title="Dispatches an action onto the main thread. ">
<polygon fill="none" stroke="black" points="122,-0.5 122,-30.5 279,-30.5 279,-0.5 122,-0.5"/>
<text text-anchor="start" x="130" y="-18.5" font-family="Helvetica,sans-Serif" font-size="10.00">Thinksquirrel.WordGameBuilder.</text>
<text text-anchor="middle" x="200.5" y="-7.5" font-family="Helvetica,sans-Serif" font-size="10.00">AsyncTask.Dispatch</text>
</a>
</g>
</g>
<!-- Node1&#45;&gt;Node3 -->
<g id="edge2" class="edge"><title>Node1&#45;&gt;Node3</title>
<path fill="none" stroke="midnightblue" d="M86.0805,-33.0053C94.1187,-31.7646 102.806,-30.4238 111.672,-29.0555"/>
<polygon fill="midnightblue" stroke="midnightblue" points="112.382,-32.4874 121.731,-27.5029 111.314,-25.5693 112.382,-32.4874"/>
</g>
</g>
</svg>
