<?xml version="1.0" encoding="UTF-8" standalone="no"?>
<!DOCTYPE svg PUBLIC "-//W3C//DTD SVG 1.1//EN"
 "http://www.w3.org/Graphics/SVG/1.1/DTD/svg11.dtd">
<!-- Generated by graphviz version 2.38.0 (20140413.2041)
 -->
<!-- Title: ResetTilePool Pages: 1 -->
<svg width="318pt" height="149pt"
 viewBox="0.00 0.00 318.00 148.50" xmlns="http://www.w3.org/2000/svg" xmlns:xlink="http://www.w3.org/1999/xlink">
<g id="graph0" class="graph" transform="scale(1 1) rotate(0) translate(4 144.5)">
<title>ResetTilePool</title>
<!-- Node1 -->
<g id="node1" class="node"><title>Node1</title>
<polygon fill="#bfbfbf" stroke="black" points="0,-66.5 0,-85.5 77,-85.5 77,-66.5 0,-66.5"/>
<text text-anchor="middle" x="38.5" y="-73.5" font-family="Helvetica,sans-Serif" font-size="10.00">ResetTilePool</text>
</g>
<!-- Node2 -->
<g id="node2" class="node"><title>Node2</title>
<g id="a_node2"><a xlink:href="class_thinksquirrel_1_1_word_game_builder_1_1_word_game_language.html#acea8c72132872acbe9b57f7919526102" target="_top" xlink:title="Finds a loaded language by identifier. ">
<polygon fill="none" stroke="black" points="122.5,-110 122.5,-140 300.5,-140 300.5,-110 122.5,-110"/>
<text text-anchor="start" x="130.5" y="-128" font-family="Helvetica,sans-Serif" font-size="10.00">Thinksquirrel.WordGameBuilder.</text>
<text text-anchor="middle" x="211.5" y="-117" font-family="Helvetica,sans-Serif" font-size="10.00">WordGameLanguage.FindByIdentifier</text>
</a>
</g>
</g>
<!-- Node1&#45;&gt;Node2 -->
<g id="edge1" class="edge"><title>Node1&#45;&gt;Node2</title>
<path fill="none" stroke="midnightblue" d="M65.8598,-85.5832C79.7854,-90.4887 97.2179,-96.3829 113,-101 120.47,-103.185 128.3,-105.339 136.138,-107.404"/>
<polygon fill="midnightblue" stroke="midnightblue" points="135.484,-110.85 146.043,-109.97 137.24,-104.074 135.484,-110.85"/>
</g>
<!-- Node3 -->
<g id="node3" class="node"><title>Node3</title>
<g id="a_node3"><a xlink:href="interface_thinksquirrel_1_1_word_game_builder_1_1_object_model_1_1_i_letter_tile.html#a74e10633348eb8098e688500c2679688" target="_top" xlink:title="This should control tile visibility, colliders, and triggers. ">
<polygon fill="none" stroke="black" points="124.5,-61 124.5,-91 298.5,-91 298.5,-61 124.5,-61"/>
<text text-anchor="start" x="132.5" y="-79" font-family="Helvetica,sans-Serif" font-size="10.00">Thinksquirrel.WordGameBuilder.</text>
<text text-anchor="middle" x="211.5" y="-68" font-family="Helvetica,sans-Serif" font-size="10.00">ObjectModel.ILetterTile.DespawnTile</text>
</a>
</g>
</g>
<!-- Node1&#45;&gt;Node3 -->
<g id="edge2" class="edge"><title>Node1&#45;&gt;Node3</title>
<path fill="none" stroke="midnightblue" d="M77.0267,-76C88.2298,-76 101.058,-76 114.232,-76"/>
<polygon fill="midnightblue" stroke="midnightblue" points="114.353,-79.5001 124.353,-76 114.353,-72.5001 114.353,-79.5001"/>
</g>
<!-- Node4 -->
<g id="node4" class="node"><title>Node4</title>
<g id="a_node4"><a xlink:href="class_thinksquirrel_1_1_word_game_builder_1_1_word_game_language.html#aebcb73d5c2851cd30aae66c3cb66977c" target="_top" xlink:title="Gets the psuedo&#45;random number generator for the language. ">
<polygon fill="none" stroke="black" points="113,-0.5 113,-41.5 310,-41.5 310,-0.5 113,-0.5"/>
<text text-anchor="start" x="121" y="-29.5" font-family="Helvetica,sans-Serif" font-size="10.00">Thinksquirrel.WordGameBuilder.</text>
<text text-anchor="start" x="121" y="-18.5" font-family="Helvetica,sans-Serif" font-size="10.00">WordGameLanguage.GetRandomNumber</text>
<text text-anchor="middle" x="211.5" y="-7.5" font-family="Helvetica,sans-Serif" font-size="10.00">Generator</text>
</a>
</g>
</g>
<!-- Node1&#45;&gt;Node4 -->
<g id="edge3" class="edge"><title>Node1&#45;&gt;Node4</title>
<path fill="none" stroke="midnightblue" d="M68.4576,-66.487C81.9826,-62.0586 98.307,-56.7346 113,-52 120.429,-49.606 128.181,-47.1204 135.926,-44.6452"/>
<polygon fill="midnightblue" stroke="midnightblue" points="137.245,-47.8983 145.707,-41.5232 135.116,-41.2297 137.245,-47.8983"/>
</g>
</g>
</svg>
