<?xml version="1.0" encoding="UTF-8" standalone="no"?>
<!DOCTYPE svg PUBLIC "-//W3C//DTD SVG 1.1//EN"
 "http://www.w3.org/Graphics/SVG/1.1/DTD/svg11.dtd">
<!-- Generated by graphviz version 2.38.0 (20140413.2041)
 -->
<!-- Title: CheckWordAsync Pages: 1 -->
<svg width="296pt" height="88pt"
 viewBox="0.00 0.00 296.00 88.00" xmlns="http://www.w3.org/2000/svg" xmlns:xlink="http://www.w3.org/1999/xlink">
<g id="graph0" class="graph" transform="scale(1 1) rotate(0) translate(4 84)">
<title>CheckWordAsync</title>
<!-- Node1 -->
<g id="node1" class="node"><title>Node1</title>
<polygon fill="#bfbfbf" stroke="black" points="0,-30 0,-49 95,-49 95,-30 0,-30"/>
<text text-anchor="middle" x="47.5" y="-37" font-family="Helvetica,sans-Serif" font-size="10.00">CheckWordAsync</text>
</g>
<!-- Node2 -->
<g id="node2" class="node"><title>Node2</title>
<g id="a_node2"><a xlink:href="class_thinksquirrel_1_1_word_game_builder_1_1_async_task.html#a74d46304f773f12c82b4c083696c7855" target="_top" xlink:title="Creates a task on a background thread. ">
<polygon fill="none" stroke="black" points="131,-49.5 131,-79.5 288,-79.5 288,-49.5 131,-49.5"/>
<text text-anchor="start" x="139" y="-67.5" font-family="Helvetica,sans-Serif" font-size="10.00">Thinksquirrel.WordGameBuilder.</text>
<text text-anchor="middle" x="209.5" y="-56.5" font-family="Helvetica,sans-Serif" font-size="10.00">AsyncTask.Create</text>
</a>
</g>
</g>
<!-- Node1&#45;&gt;Node2 -->
<g id="edge1" class="edge"><title>Node1&#45;&gt;Node2</title>
<path fill="none" stroke="midnightblue" d="M95.2087,-46.7982C103.318,-48.0653 111.982,-49.4191 120.772,-50.7926"/>
<polygon fill="midnightblue" stroke="midnightblue" points="120.307,-54.2622 130.727,-52.348 121.387,-47.3461 120.307,-54.2622"/>
</g>
<!-- Node3 -->
<g id="node3" class="node"><title>Node3</title>
<g id="a_node3"><a xlink:href="class_thinksquirrel_1_1_word_game_builder_1_1_async_task.html#a61696d12bced86b6c979f001fa79df78" target="_top" xlink:title="Dispatches an action onto the main thread. ">
<polygon fill="none" stroke="black" points="131,-0.5 131,-30.5 288,-30.5 288,-0.5 131,-0.5"/>
<text text-anchor="start" x="139" y="-18.5" font-family="Helvetica,sans-Serif" font-size="10.00">Thinksquirrel.WordGameBuilder.</text>
<text text-anchor="middle" x="209.5" y="-7.5" font-family="Helvetica,sans-Serif" font-size="10.00">AsyncTask.Dispatch</text>
</a>
</g>
</g>
<!-- Node1&#45;&gt;Node3 -->
<g id="edge2" class="edge"><title>Node1&#45;&gt;Node3</title>
<path fill="none" stroke="midnightblue" d="M95.2087,-32.4937C103.318,-31.2773 111.982,-29.9777 120.772,-28.6591"/>
<polygon fill="midnightblue" stroke="midnightblue" points="121.357,-32.1107 130.727,-27.1659 120.319,-25.1881 121.357,-32.1107"/>
</g>
</g>
</svg>
