<?xml version="1.0" encoding="UTF-8" standalone="no"?>
<!DOCTYPE svg PUBLIC "-//W3C//DTD SVG 1.1//EN"
 "http://www.w3.org/Graphics/SVG/1.1/DTD/svg11.dtd">
<!-- Generated by graphviz version 2.38.0 (20140413.2041)
 -->
<!-- Title: Graphical Class Hierarchy Pages: 1 -->
<svg width="359pt" height="204pt"
 viewBox="0.00 0.00 359.00 203.50" xmlns="http://www.w3.org/2000/svg" xmlns:xlink="http://www.w3.org/1999/xlink">
<g id="graph0" class="graph" transform="scale(1 1) rotate(0) translate(4 199.5)">
<title>Graphical Class Hierarchy</title>
<!-- Node1 -->
<g id="node1" class="node"><title>Node1</title>
<g id="a_node1"><a xlink:href="class_thinksquirrel_1_1_word_game_builder_example_1_1_example_view_model_1_1_ui_context.html" target="_top" xlink:title="Represents a base class for all user interface contexts. ">
<polygon fill="none" stroke="black" points="0,-94 0,-113 148,-113 148,-94 0,-94"/>
<text text-anchor="middle" x="74" y="-101" font-family="Helvetica,sans-Serif" font-size="10.00">ExampleViewModel.UiContext</text>
</a>
</g>
</g>
<!-- Node2 -->
<g id="node2" class="node"><title>Node2</title>
<g id="a_node2"><a xlink:href="class_thinksquirrel_1_1_word_game_builder_example_1_1_example_view_model_1_1_agent_context.html" target="_top" xlink:title="Contains information about the agent. ">
<polygon fill="none" stroke="black" points="185.5,-176 185.5,-195 349.5,-195 349.5,-176 185.5,-176"/>
<text text-anchor="middle" x="267.5" y="-183" font-family="Helvetica,sans-Serif" font-size="10.00">ExampleViewModel.AgentContext</text>
</a>
</g>
</g>
<!-- Node1&#45;&gt;Node2 -->
<g id="edge1" class="edge"><title>Node1&#45;&gt;Node2</title>
<path fill="none" stroke="midnightblue" d="M96.7672,-118.7C118.094,-132.945 151.97,-153.884 184,-166.5 193.573,-170.27 204.079,-173.4 214.292,-175.956"/>
<polygon fill="midnightblue" stroke="midnightblue" points="98.6776,-115.767 88.4374,-113.048 94.7475,-121.559 98.6776,-115.767"/>
</g>
<!-- Node3 -->
<g id="node3" class="node"><title>Node3</title>
<g id="a_node3"><a xlink:href="class_thinksquirrel_1_1_word_game_builder_example_1_1_example_view_model_1_1_game_context.html" target="_top" xlink:title="Contains information about the game. ">
<polygon fill="none" stroke="black" points="185,-138 185,-157 350,-157 350,-138 185,-138"/>
<text text-anchor="middle" x="267.5" y="-145" font-family="Helvetica,sans-Serif" font-size="10.00">ExampleViewModel.GameContext</text>
</a>
</g>
</g>
<!-- Node1&#45;&gt;Node3 -->
<g id="edge2" class="edge"><title>Node1&#45;&gt;Node3</title>
<path fill="none" stroke="midnightblue" d="M126.69,-115.376C157.537,-122.464 196.188,-131.345 225.028,-137.971"/>
<polygon fill="midnightblue" stroke="midnightblue" points="127.082,-111.876 116.553,-113.047 125.515,-118.698 127.082,-111.876"/>
</g>
<!-- Node4 -->
<g id="node4" class="node"><title>Node4</title>
<g id="a_node4"><a xlink:href="class_thinksquirrel_1_1_word_game_builder_example_1_1_example_view_model_1_1_languages_context.html" target="_top" xlink:title="Contains information about languages. ">
<polygon fill="none" stroke="black" points="191.5,-88.5 191.5,-118.5 343.5,-118.5 343.5,-88.5 191.5,-88.5"/>
<text text-anchor="start" x="199.5" y="-106.5" font-family="Helvetica,sans-Serif" font-size="10.00">ExampleViewModel.Languages</text>
<text text-anchor="middle" x="267.5" y="-95.5" font-family="Helvetica,sans-Serif" font-size="10.00">Context</text>
</a>
</g>
</g>
<!-- Node1&#45;&gt;Node4 -->
<g id="edge3" class="edge"><title>Node1&#45;&gt;Node4</title>
<path fill="none" stroke="midnightblue" d="M158.264,-103.5C169.29,-103.5 180.541,-103.5 191.418,-103.5"/>
<polygon fill="midnightblue" stroke="midnightblue" points="158.218,-100 148.218,-103.5 158.218,-107 158.218,-100"/>
</g>
<!-- Node5 -->
<g id="node5" class="node"><title>Node5</title>
<g id="a_node5"><a xlink:href="class_thinksquirrel_1_1_word_game_builder_example_1_1_example_view_model_1_1_player_context.html" target="_top" xlink:title="Contains information about the player. ">
<polygon fill="none" stroke="black" points="184,-50 184,-69 351,-69 351,-50 184,-50"/>
<text text-anchor="middle" x="267.5" y="-57" font-family="Helvetica,sans-Serif" font-size="10.00">ExampleViewModel.PlayerContext</text>
</a>
</g>
</g>
<!-- Node1&#45;&gt;Node5 -->
<g id="edge4" class="edge"><title>Node1&#45;&gt;Node5</title>
<path fill="none" stroke="midnightblue" d="M126.69,-91.6236C157.537,-84.5358 196.188,-75.6552 225.028,-69.0287"/>
<polygon fill="midnightblue" stroke="midnightblue" points="125.515,-88.3022 116.553,-93.9527 127.082,-95.1244 125.515,-88.3022"/>
</g>
<!-- Node6 -->
<g id="node6" class="node"><title>Node6</title>
<g id="a_node6"><a xlink:href="class_thinksquirrel_1_1_word_game_builder_example_1_1_example_view_model_1_1_word_result_context.html" target="_top" xlink:title="Contains information about a word check. ">
<polygon fill="none" stroke="black" points="189.5,-0.5 189.5,-30.5 345.5,-30.5 345.5,-0.5 189.5,-0.5"/>
<text text-anchor="start" x="197.5" y="-18.5" font-family="Helvetica,sans-Serif" font-size="10.00">ExampleViewModel.WordResult</text>
<text text-anchor="middle" x="267.5" y="-7.5" font-family="Helvetica,sans-Serif" font-size="10.00">Context</text>
</a>
</g>
</g>
<!-- Node1&#45;&gt;Node6 -->
<g id="edge5" class="edge"><title>Node1&#45;&gt;Node6</title>
<path fill="none" stroke="midnightblue" d="M97.6859,-88.3138C119.192,-74.4264 152.768,-54.0432 184,-40.5 192.376,-36.8681 201.444,-33.5475 210.399,-30.5962"/>
<polygon fill="midnightblue" stroke="midnightblue" points="95.7046,-85.4274 89.2497,-93.8289 99.5349,-91.2865 95.7046,-85.4274"/>
</g>
</g>
</svg>
