<?xml version="1.0" encoding="UTF-8" standalone="no"?>
<!DOCTYPE svg PUBLIC "-//W3C//DTD SVG 1.1//EN"
 "http://www.w3.org/Graphics/SVG/1.1/DTD/svg11.dtd">
<!-- Generated by graphviz version 2.38.0 (20140413.2041)
 -->
<!-- Title: Letter Pages: 1 -->
<svg width="244pt" height="281pt"
 viewBox="0.00 0.00 244.00 281.00" xmlns="http://www.w3.org/2000/svg" xmlns:xlink="http://www.w3.org/1999/xlink">
<g id="graph0" class="graph" transform="scale(1 1) rotate(0) translate(4 277)">
<title>Letter</title>
<!-- Node1 -->
<g id="node1" class="node"><title>Node1</title>
<polygon fill="#bfbfbf" stroke="black" points="69.5,-0.5 69.5,-178.5 161.5,-178.5 161.5,-0.5 69.5,-0.5"/>
<text text-anchor="middle" x="115.5" y="-166.5" font-family="Helvetica,sans-Serif" font-size="10.00">Letter</text>
<polyline fill="none" stroke="black" points="69.5,-159.5 161.5,-159.5 "/>
<text text-anchor="start" x="77.5" y="-147.5" font-family="Helvetica,sans-Serif" font-size="10.00">+ character</text>
<text text-anchor="start" x="77.5" y="-136.5" font-family="Helvetica,sans-Serif" font-size="10.00">+ empty</text>
<text text-anchor="start" x="77.5" y="-125.5" font-family="Helvetica,sans-Serif" font-size="10.00">+ hasValue</text>
<text text-anchor="start" x="77.5" y="-114.5" font-family="Helvetica,sans-Serif" font-size="10.00">+ score</text>
<text text-anchor="start" x="77.5" y="-103.5" font-family="Helvetica,sans-Serif" font-size="10.00">+ text</text>
<polyline fill="none" stroke="black" points="69.5,-96.5 161.5,-96.5 "/>
<text text-anchor="start" x="77.5" y="-84.5" font-family="Helvetica,sans-Serif" font-size="10.00">+ Letter()</text>
<text text-anchor="start" x="77.5" y="-73.5" font-family="Helvetica,sans-Serif" font-size="10.00">+ CompareTo()</text>
<text text-anchor="start" x="77.5" y="-62.5" font-family="Helvetica,sans-Serif" font-size="10.00">+ CompareTo()</text>
<text text-anchor="start" x="77.5" y="-51.5" font-family="Helvetica,sans-Serif" font-size="10.00">+ Equals()</text>
<text text-anchor="start" x="77.5" y="-40.5" font-family="Helvetica,sans-Serif" font-size="10.00">+ Equals()</text>
<text text-anchor="start" x="77.5" y="-29.5" font-family="Helvetica,sans-Serif" font-size="10.00">+ GetHashCode()</text>
<text text-anchor="start" x="77.5" y="-18.5" font-family="Helvetica,sans-Serif" font-size="10.00">+ operator!=()</text>
<text text-anchor="start" x="77.5" y="-7.5" font-family="Helvetica,sans-Serif" font-size="10.00">+ operator==()</text>
</g>
<!-- Node2 -->
<g id="node2" class="node"><title>Node2</title>
<polygon fill="none" stroke="#bfbfbf" points="0,-215.5 0,-272.5 105,-272.5 105,-215.5 0,-215.5"/>
<text text-anchor="middle" x="52.5" y="-260.5" font-family="Helvetica,sans-Serif" font-size="10.00">IEquatable&lt; Letter &gt;</text>
<polyline fill="none" stroke="#bfbfbf" points="0,-253.5 105,-253.5 "/>
<text text-anchor="middle" x="52.5" y="-241.5" font-family="Helvetica,sans-Serif" font-size="10.00"> </text>
<polyline fill="none" stroke="#bfbfbf" points="0,-234.5 105,-234.5 "/>
<text text-anchor="middle" x="52.5" y="-222.5" font-family="Helvetica,sans-Serif" font-size="10.00"> </text>
</g>
<!-- Node2&#45;&gt;Node1 -->
<g id="edge1" class="edge"><title>Node2&#45;&gt;Node1</title>
<path fill="none" stroke="midnightblue" d="M67.816,-205.926C71.2993,-197.494 75.1451,-188.185 79.0964,-178.62"/>
<polygon fill="none" stroke="midnightblue" points="64.4922,-204.805 63.9088,-215.383 70.9619,-207.477 64.4922,-204.805"/>
</g>
<!-- Node3 -->
<g id="node3" class="node"><title>Node3</title>
<polygon fill="none" stroke="#bfbfbf" points="123,-215.5 123,-272.5 236,-272.5 236,-215.5 123,-215.5"/>
<text text-anchor="middle" x="179.5" y="-260.5" font-family="Helvetica,sans-Serif" font-size="10.00">IComparable&lt; Letter &gt;</text>
<polyline fill="none" stroke="#bfbfbf" points="123,-253.5 236,-253.5 "/>
<text text-anchor="middle" x="179.5" y="-241.5" font-family="Helvetica,sans-Serif" font-size="10.00"> </text>
<polyline fill="none" stroke="#bfbfbf" points="123,-234.5 236,-234.5 "/>
<text text-anchor="middle" x="179.5" y="-222.5" font-family="Helvetica,sans-Serif" font-size="10.00"> </text>
</g>
<!-- Node3&#45;&gt;Node1 -->
<g id="edge2" class="edge"><title>Node3&#45;&gt;Node1</title>
<path fill="none" stroke="midnightblue" d="M163.941,-205.926C160.402,-197.494 156.495,-188.185 152.481,-178.62"/>
<polygon fill="none" stroke="midnightblue" points="160.813,-207.517 167.91,-215.383 167.268,-204.808 160.813,-207.517"/>
</g>
</g>
</svg>
