<?xml version="1.0" encoding="UTF-8" standalone="no"?>
<!DOCTYPE svg PUBLIC "-//W3C//DTD SVG 1.1//EN"
 "http://www.w3.org/Graphics/SVG/1.1/DTD/svg11.dtd">
<!-- Generated by graphviz version 2.36.0 (20140111.2315)
 -->
<!-- Title: ExampleViewModel Pages: 1 -->
<svg width="154pt" height="226pt"
 viewBox="0.00 0.00 154.00 226.00" xmlns="http://www.w3.org/2000/svg" xmlns:xlink="http://www.w3.org/1999/xlink">
<g id="graph0" class="graph" transform="scale(1 1) rotate(0) translate(4 222)">
<title>ExampleViewModel</title>
<!-- Node1 -->
<g id="node1" class="node"><title>Node1</title>
<polygon fill="#bfbfbf" stroke="black" points="-0.727539,-1 -0.727539,-125 146.728,-125 146.728,-1 -0.727539,-1"/>
<text text-anchor="middle" x="73" y="-113" font-family="Helvetica,sans-Serif" font-size="10.00">ExampleViewModel</text>
<polyline fill="none" stroke="black" points="-0.727539,-107 146.728,-107 "/>
<text text-anchor="start" x="7.27246" y="-95" font-family="Helvetica,sans-Serif" font-size="10.00">+ agent</text>
<text text-anchor="start" x="7.27246" y="-85" font-family="Helvetica,sans-Serif" font-size="10.00">+ game</text>
<text text-anchor="start" x="7.27246" y="-75" font-family="Helvetica,sans-Serif" font-size="10.00">+ languages</text>
<text text-anchor="start" x="7.27246" y="-65" font-family="Helvetica,sans-Serif" font-size="10.00">+ player</text>
<text text-anchor="start" x="7.27246" y="-55" font-family="Helvetica,sans-Serif" font-size="10.00">+ showWildcardPanel</text>
<text text-anchor="start" x="7.27246" y="-45" font-family="Helvetica,sans-Serif" font-size="10.00">+ submitButtonEnabled</text>
<text text-anchor="start" x="7.27246" y="-35" font-family="Helvetica,sans-Serif" font-size="10.00">+ wildcardPanelScrollPosition</text>
<text text-anchor="start" x="7.27246" y="-25" font-family="Helvetica,sans-Serif" font-size="10.00">+ wildcardPanelSelection</text>
<polyline fill="none" stroke="black" points="-0.727539,-19 146.728,-19 "/>
<text text-anchor="middle" x="73" y="-7" font-family="Helvetica,sans-Serif" font-size="10.00"> </text>
</g>
<!-- Node2 -->
<g id="node2" class="node"><title>Node2</title>
<polygon fill="none" stroke="#bfbfbf" points="29.978,-163 29.978,-217 116.022,-217 116.022,-163 29.978,-163"/>
<text text-anchor="middle" x="73" y="-205" font-family="Helvetica,sans-Serif" font-size="10.00">MonoBehaviour</text>
<polyline fill="none" stroke="#bfbfbf" points="29.978,-199 116.022,-199 "/>
<text text-anchor="middle" x="73" y="-187" font-family="Helvetica,sans-Serif" font-size="10.00"> </text>
<polyline fill="none" stroke="#bfbfbf" points="29.978,-181 116.022,-181 "/>
<text text-anchor="middle" x="73" y="-169" font-family="Helvetica,sans-Serif" font-size="10.00"> </text>
</g>
<!-- Node2&#45;&gt;Node1 -->
<g id="edge1" class="edge"><title>Node2&#45;&gt;Node1</title>
<path fill="none" stroke="midnightblue" d="M73,-152.715C73,-144.071 73,-134.61 73,-125.188"/>
<polygon fill="none" stroke="midnightblue" points="69.5001,-152.796 73,-162.796 76.5001,-152.796 69.5001,-152.796"/>
</g>
</g>
</svg>
