<?xml version="1.0" encoding="UTF-8" standalone="no"?>
<!DOCTYPE svg PUBLIC "-//W3C//DTD SVG 1.1//EN"
 "http://www.w3.org/Graphics/SVG/1.1/DTD/svg11.dtd">
<!-- Generated by graphviz version 2.36.0 (20140111.2315)
 -->
<!-- Title: LanguageEditor Pages: 1 -->
<svg width="110pt" height="166pt"
 viewBox="0.00 0.00 110.00 166.00" xmlns="http://www.w3.org/2000/svg" xmlns:xlink="http://www.w3.org/1999/xlink">
<g id="graph0" class="graph" transform="scale(1 1) rotate(0) translate(4 162)">
<title>LanguageEditor</title>
<!-- Node1 -->
<g id="node1" class="node"><title>Node1</title>
<polygon fill="#bfbfbf" stroke="black" points="-0.220215,-1 -0.220215,-65 102.22,-65 102.22,-1 -0.220215,-1"/>
<text text-anchor="middle" x="51" y="-53" font-family="Helvetica,sans-Serif" font-size="10.00">LanguageEditor</text>
<polyline fill="none" stroke="black" points="-0.220215,-47 102.22,-47 "/>
<text text-anchor="start" x="7.77979" y="-35" font-family="Helvetica,sans-Serif" font-size="10.00">+ languagePath</text>
<polyline fill="none" stroke="black" points="-0.220215,-29 102.22,-29 "/>
<text text-anchor="start" x="7.77979" y="-17" font-family="Helvetica,sans-Serif" font-size="10.00">+ LangToIdentifier()</text>
<text text-anchor="start" x="7.77979" y="-7" font-family="Helvetica,sans-Serif" font-size="10.00">+ SaveLanguage()</text>
</g>
<!-- Node2 -->
<g id="node2" class="node"><title>Node2</title>
<polygon fill="none" stroke="#bfbfbf" points="12.1553,-103 12.1553,-157 89.8447,-157 89.8447,-103 12.1553,-103"/>
<text text-anchor="middle" x="51" y="-145" font-family="Helvetica,sans-Serif" font-size="10.00">EditorWindow</text>
<polyline fill="none" stroke="#bfbfbf" points="12.1553,-139 89.8447,-139 "/>
<text text-anchor="middle" x="51" y="-127" font-family="Helvetica,sans-Serif" font-size="10.00"> </text>
<polyline fill="none" stroke="#bfbfbf" points="12.1553,-121 89.8447,-121 "/>
<text text-anchor="middle" x="51" y="-109" font-family="Helvetica,sans-Serif" font-size="10.00"> </text>
</g>
<!-- Node2&#45;&gt;Node1 -->
<g id="edge1" class="edge"><title>Node2&#45;&gt;Node1</title>
<path fill="none" stroke="midnightblue" d="M51,-92.5388C51,-83.5151 51,-73.9288 51,-65.1826"/>
<polygon fill="none" stroke="midnightblue" points="47.5001,-92.7893 51,-102.789 54.5001,-92.7894 47.5001,-92.7893"/>
</g>
</g>
</svg>
