<?xml version="1.0" encoding="UTF-8" standalone="no"?>
<!DOCTYPE svg PUBLIC "-//W3C//DTD SVG 1.1//EN"
 "http://www.w3.org/Graphics/SVG/1.1/DTD/svg11.dtd">
<!-- Generated by graphviz version 2.36.0 (20140111.2315)
 -->
<!-- Title: ExampleView Pages: 1 -->
<svg width="94pt" height="156pt"
 viewBox="0.00 0.00 94.00 156.00" xmlns="http://www.w3.org/2000/svg" xmlns:xlink="http://www.w3.org/1999/xlink">
<g id="graph0" class="graph" transform="scale(1 1) rotate(0) translate(4 152)">
<title>ExampleView</title>
<!-- Node1 -->
<g id="node1" class="node"><title>Node1</title>
<polygon fill="#bfbfbf" stroke="black" points="4.79736,-1 4.79736,-55 81.2026,-55 81.2026,-1 4.79736,-1"/>
<text text-anchor="middle" x="43" y="-43" font-family="Helvetica,sans-Serif" font-size="10.00">ExampleView</text>
<polyline fill="none" stroke="black" points="4.79736,-37 81.2026,-37 "/>
<text text-anchor="middle" x="43" y="-25" font-family="Helvetica,sans-Serif" font-size="10.00"> </text>
<polyline fill="none" stroke="black" points="4.79736,-19 81.2026,-19 "/>
<text text-anchor="middle" x="43" y="-7" font-family="Helvetica,sans-Serif" font-size="10.00"> </text>
</g>
<!-- Node2 -->
<g id="node2" class="node"><title>Node2</title>
<polygon fill="none" stroke="#bfbfbf" points="-0.0219727,-93 -0.0219727,-147 86.022,-147 86.022,-93 -0.0219727,-93"/>
<text text-anchor="middle" x="43" y="-135" font-family="Helvetica,sans-Serif" font-size="10.00">MonoBehaviour</text>
<polyline fill="none" stroke="#bfbfbf" points="-0.0219727,-129 86.022,-129 "/>
<text text-anchor="middle" x="43" y="-117" font-family="Helvetica,sans-Serif" font-size="10.00"> </text>
<polyline fill="none" stroke="#bfbfbf" points="-0.0219727,-111 86.022,-111 "/>
<text text-anchor="middle" x="43" y="-99" font-family="Helvetica,sans-Serif" font-size="10.00"> </text>
</g>
<!-- Node2&#45;&gt;Node1 -->
<g id="edge1" class="edge"><title>Node2&#45;&gt;Node1</title>
<path fill="none" stroke="midnightblue" d="M43,-82.8649C43,-73.6445 43,-63.9071 43,-55.285"/>
<polygon fill="none" stroke="midnightblue" points="39.5001,-82.9682 43,-92.9683 46.5001,-82.9683 39.5001,-82.9682"/>
</g>
</g>
</svg>
