<?xml version="1.0" encoding="UTF-8" standalone="no"?>
<!DOCTYPE svg PUBLIC "-//W3C//DTD SVG 1.1//EN"
 "http://www.w3.org/Graphics/SVG/1.1/DTD/svg11.dtd">
<!-- Generated by graphviz version 2.36.0 (20140111.2315)
 -->
<!-- Title: WGBBase Pages: 1 -->
<!--zoomable 638 -->
<svg id="main" version="1.1" xmlns="http://www.w3.org/2000/svg" xmlns:xlink="http://www.w3.org/1999/xlink" xml:space="preserve" onload="init(evt)">
<style type="text/css"><![CDATA[
.edge:hover path { stroke: red; }
.edge:hover polygon { stroke: red; fill: red; }
]]></style>
<script type="text/javascript"><![CDATA[
var edges = document.getElementsByTagName('g');
if (edges && edges.length) {
  for (var i=0;i<edges.length;i++) {
    if (edges[i].id.substr(0,4)=='edge') {
      edges[i].setAttribute('class','edge');
    }
  }
}
]]></script>
        <defs>
                <circle id="rim" cx="0" cy="0" r="7"/>
                <circle id="rim2" cx="0" cy="0" r="3.5"/>
                <g id="zoomPlus">
                        <use xlink:href="#rim" fill="#404040">
                                <set attributeName="fill" to="#808080" begin="zoomplus.mouseover" end="zoomplus.mouseout"/>
                        </use>
                        <path d="M-4,0h8M0,-4v8" fill="none" stroke="white" stroke-width="1.5" pointer-events="none"/>
                </g>
                <g id="zoomMin">
                        <use xlink:href="#rim" fill="#404040">
                                <set attributeName="fill" to="#808080" begin="zoomminus.mouseover" end="zoomminus.mouseout"/>
                        </use>
                        <path d="M-4,0h8" fill="none" stroke="white" stroke-width="1.5" pointer-events="none"/>
                </g>
                <g id="dirArrow">
                        <path fill="none" stroke="white" stroke-width="1.5" d="M0,-3.0v7 M-2.5,-0.5L0,-3.0L2.5,-0.5"/>
                </g>
               <g id="resetDef">
                       <use xlink:href="#rim2" fill="#404040">
                               <set attributeName="fill" to="#808080" begin="reset.mouseover" end="reset.mouseout"/>
                       </use>
               </g>
        </defs>

<script type="text/javascript">
var viewWidth = 2358;
var viewHeight = 638;
var sectionId = 'dynsection-0';
</script>
<script xlink:href="svgpan.js"/>
<svg id="graph" class="graph">
<g id="viewport">
<title>WGBBase</title>
<!-- Node1 -->
<g id="node1" class="node"><title>Node1</title>
<polygon fill="#bfbfbf" stroke="black" points="1144.95,-313 1144.95,-537 1347.05,-537 1347.05,-313 1144.95,-313"/>
<text text-anchor="middle" x="1246" y="-525" font-family="Helvetica,sans-Serif" font-size="10.00">WGBBase</text>
<polyline fill="none" stroke="black" points="1144.95,-519 1347.05,-519 "/>
<text text-anchor="start" x="1152.95" y="-507" font-family="Helvetica,sans-Serif" font-size="10.00">+ userData</text>
<polyline fill="none" stroke="black" points="1144.95,-501 1347.05,-501 "/>
<text text-anchor="start" x="1152.95" y="-489" font-family="Helvetica,sans-Serif" font-size="10.00">+ GetComponentFromInterface&lt; T &gt;()</text>
<text text-anchor="start" x="1152.95" y="-479" font-family="Helvetica,sans-Serif" font-size="10.00">+ GetComponentInChildrenFrom</text>
<text text-anchor="start" x="1152.95" y="-469" font-family="Helvetica,sans-Serif" font-size="10.00">Interface&lt; T &gt;()</text>
<text text-anchor="start" x="1152.95" y="-459" font-family="Helvetica,sans-Serif" font-size="10.00">+ GetComponentsFromInterface&lt; T &gt;()</text>
<text text-anchor="start" x="1152.95" y="-449" font-family="Helvetica,sans-Serif" font-size="10.00">+ GetComponentsInChildrenFrom</text>
<text text-anchor="start" x="1152.95" y="-439" font-family="Helvetica,sans-Serif" font-size="10.00">Interface&lt; T &gt;()</text>
<text text-anchor="start" x="1152.95" y="-429" font-family="Helvetica,sans-Serif" font-size="10.00">+ FindObjectOfTypeFromInterface&lt; T &gt;()</text>
<text text-anchor="start" x="1152.95" y="-419" font-family="Helvetica,sans-Serif" font-size="10.00">+ FindObjectsOfTypeFromInterface&lt; T &gt;()</text>
<text text-anchor="start" x="1152.95" y="-409" font-family="Helvetica,sans-Serif" font-size="10.00">+ InstantiateFromInterface&lt; T &gt;()</text>
<text text-anchor="start" x="1152.95" y="-399" font-family="Helvetica,sans-Serif" font-size="10.00">+ InstantiateFromInterface&lt; T &gt;()</text>
<text text-anchor="start" x="1152.95" y="-389" font-family="Helvetica,sans-Serif" font-size="10.00">+ Log()</text>
<text text-anchor="start" x="1152.95" y="-379" font-family="Helvetica,sans-Serif" font-size="10.00">+ Log()</text>
<text text-anchor="start" x="1152.95" y="-369" font-family="Helvetica,sans-Serif" font-size="10.00">+ LogError()</text>
<text text-anchor="start" x="1152.95" y="-359" font-family="Helvetica,sans-Serif" font-size="10.00">+ LogError()</text>
<text text-anchor="start" x="1152.95" y="-349" font-family="Helvetica,sans-Serif" font-size="10.00">+ LogException()</text>
<text text-anchor="start" x="1152.95" y="-339" font-family="Helvetica,sans-Serif" font-size="10.00">+ LogException()</text>
<text text-anchor="start" x="1152.95" y="-329" font-family="Helvetica,sans-Serif" font-size="10.00">+ LogWarning()</text>
<text text-anchor="start" x="1152.95" y="-319" font-family="Helvetica,sans-Serif" font-size="10.00">+ LogWarning()</text>
</g>
<!-- Node3 -->
<g id="node3" class="node"><title>Node3</title>
<g id="a_node3"><a xlink:href="class_thinksquirrel_1_1_word_game_builder_1_1_gameplay_1_1_tile_pool.html" target="_top" xlink:title="A class that manages an instance pool of letter tiles. ">
<polygon fill="none" stroke="black" points="-0.441895,-11 -0.441895,-265 116.442,-265 116.442,-11 -0.441895,-11"/>
<text text-anchor="middle" x="58" y="-253" font-family="Helvetica,sans-Serif" font-size="10.00">TilePool</text>
<polyline fill="none" stroke="black" points="-0.441895,-247 116.442,-247 "/>
<text text-anchor="start" x="7.55811" y="-235" font-family="Helvetica,sans-Serif" font-size="10.00">+ blankLetterCount</text>
<text text-anchor="start" x="7.55811" y="-225" font-family="Helvetica,sans-Serif" font-size="10.00">+ language</text>
<text text-anchor="start" x="7.55811" y="-215" font-family="Helvetica,sans-Serif" font-size="10.00">+ languageIdentifier</text>
<text text-anchor="start" x="7.55811" y="-205" font-family="Helvetica,sans-Serif" font-size="10.00">+ lastDistributionCount</text>
<text text-anchor="start" x="7.55811" y="-195" font-family="Helvetica,sans-Serif" font-size="10.00">+ onTileDistribution</text>
<text text-anchor="start" x="7.55811" y="-185" font-family="Helvetica,sans-Serif" font-size="10.00">+ poolMultiplier</text>
<text text-anchor="start" x="7.55811" y="-175" font-family="Helvetica,sans-Serif" font-size="10.00">+ tileDistribution</text>
<text text-anchor="start" x="7.55811" y="-165" font-family="Helvetica,sans-Serif" font-size="10.00">+ tileDistributionCount</text>
<text text-anchor="start" x="7.55811" y="-155" font-family="Helvetica,sans-Serif" font-size="10.00">+ tilePool</text>
<text text-anchor="start" x="7.55811" y="-145" font-family="Helvetica,sans-Serif" font-size="10.00">+ tilePoolCount</text>
<text text-anchor="start" x="7.55811" y="-135" font-family="Helvetica,sans-Serif" font-size="10.00">+ tilePrefab</text>
<polyline fill="none" stroke="black" points="-0.441895,-129 116.442,-129 "/>
<text text-anchor="start" x="7.55811" y="-117" font-family="Helvetica,sans-Serif" font-size="10.00">+ AddLetter()</text>
<text text-anchor="start" x="7.55811" y="-107" font-family="Helvetica,sans-Serif" font-size="10.00">+ Contains()</text>
<text text-anchor="start" x="7.55811" y="-97" font-family="Helvetica,sans-Serif" font-size="10.00">+ CreateTile()</text>
<text text-anchor="start" x="7.55811" y="-87" font-family="Helvetica,sans-Serif" font-size="10.00">+ CreateTilePool()</text>
<text text-anchor="start" x="7.55811" y="-77" font-family="Helvetica,sans-Serif" font-size="10.00">+ CreateTilePool()</text>
<text text-anchor="start" x="7.55811" y="-67" font-family="Helvetica,sans-Serif" font-size="10.00">+ DestroyAllTiles()</text>
<text text-anchor="start" x="7.55811" y="-57" font-family="Helvetica,sans-Serif" font-size="10.00">+ DestroyTile()</text>
<text text-anchor="start" x="7.55811" y="-47" font-family="Helvetica,sans-Serif" font-size="10.00">+ DestroyTiles()</text>
<text text-anchor="start" x="7.55811" y="-37" font-family="Helvetica,sans-Serif" font-size="10.00">+ DistributeTiles()</text>
<text text-anchor="start" x="7.55811" y="-27" font-family="Helvetica,sans-Serif" font-size="10.00">+ DistributeTiles()</text>
<text text-anchor="start" x="7.55811" y="-17" font-family="Helvetica,sans-Serif" font-size="10.00">and 10 more...</text>
</a>
</g>
</g>
<!-- Node1&#45;&gt;Node3 -->
<g id="edge2" class="edge"><title>Node1&#45;&gt;Node3</title>
<path fill="none" stroke="midnightblue" d="M1134.73,-422.303C884.398,-416.459 286.218,-390.557 126,-276 121.464,-272.757 117.215,-269.124 113.235,-265.187"/>
<polygon fill="none" stroke="midnightblue" points="1134.86,-425.807 1144.94,-422.535 1135.02,-418.809 1134.86,-425.807"/>
</g>
<!-- Node4 -->
<g id="node4" class="node"><title>Node4</title>
<g id="a_node4"><a xlink:href="class_thinksquirrel_1_1_word_game_builder_1_1_gameplay_1_1_wildcard_tile_manager.html" target="_top" xlink:title="A manager class for selecting wildcard tiles. ">
<polygon fill="none" stroke="black" points="134.911,-111 134.911,-165 253.089,-165 253.089,-111 134.911,-111"/>
<text text-anchor="middle" x="194" y="-153" font-family="Helvetica,sans-Serif" font-size="10.00">WildcardTileManager</text>
<polyline fill="none" stroke="black" points="134.911,-147 253.089,-147 "/>
<text text-anchor="start" x="142.911" y="-135" font-family="Helvetica,sans-Serif" font-size="10.00">+ onWildcardTileSelect</text>
<polyline fill="none" stroke="black" points="134.911,-129 253.089,-129 "/>
<text text-anchor="start" x="142.911" y="-117" font-family="Helvetica,sans-Serif" font-size="10.00">+ SelectWildcardTile()</text>
</a>
</g>
</g>
<!-- Node1&#45;&gt;Node4 -->
<g id="edge3" class="edge"><title>Node1&#45;&gt;Node4</title>
<path fill="none" stroke="midnightblue" d="M1134.26,-419.965C906.684,-409.738 399.338,-376.068 262,-276 225.195,-249.183 207.185,-196.811 199.305,-165.16"/>
<polygon fill="none" stroke="midnightblue" points="1134.41,-423.475 1144.55,-420.42 1134.72,-416.482 1134.41,-423.475"/>
</g>
<!-- Node5 -->
<g id="node5" class="node"><title>Node5</title>
<g id="a_node5"><a xlink:href="class_thinksquirrel_1_1_word_game_builder_1_1_gameplay_1_1_word_game_agent.html" target="_top" xlink:title="Represents a word game AI agent. The agent is multithreaded and supports automatic selection/submissi...">
<polygon fill="none" stroke="black" points="271.174,-46 271.174,-230 400.826,-230 400.826,-46 271.174,-46"/>
<text text-anchor="middle" x="336" y="-218" font-family="Helvetica,sans-Serif" font-size="10.00">WordGameAgent</text>
<polyline fill="none" stroke="black" points="271.174,-212 400.826,-212 "/>
<text text-anchor="start" x="279.174" y="-200" font-family="Helvetica,sans-Serif" font-size="10.00">+ autoSelectTime</text>
<text text-anchor="start" x="279.174" y="-190" font-family="Helvetica,sans-Serif" font-size="10.00">+ autoSelectWord</text>
<text text-anchor="start" x="279.174" y="-180" font-family="Helvetica,sans-Serif" font-size="10.00">+ autoSubmitTime</text>
<text text-anchor="start" x="279.174" y="-170" font-family="Helvetica,sans-Serif" font-size="10.00">+ autoSubmitWord</text>
<text text-anchor="start" x="279.174" y="-160" font-family="Helvetica,sans-Serif" font-size="10.00">+ bias</text>
<text text-anchor="start" x="279.174" y="-150" font-family="Helvetica,sans-Serif" font-size="10.00">+ customWildcardScore</text>
<text text-anchor="start" x="279.174" y="-140" font-family="Helvetica,sans-Serif" font-size="10.00">+ customWildcardScores</text>
<text text-anchor="start" x="279.174" y="-130" font-family="Helvetica,sans-Serif" font-size="10.00">+ customWildcardScoring</text>
<text text-anchor="start" x="279.174" y="-120" font-family="Helvetica,sans-Serif" font-size="10.00">+ ignorePlayerInputState</text>
<text text-anchor="start" x="279.174" y="-110" font-family="Helvetica,sans-Serif" font-size="10.00">+ lastSearchInfo</text>
<text text-anchor="start" x="279.174" y="-100" font-family="Helvetica,sans-Serif" font-size="10.00">and 9 more...</text>
<polyline fill="none" stroke="black" points="271.174,-94 400.826,-94 "/>
<text text-anchor="start" x="279.174" y="-82" font-family="Helvetica,sans-Serif" font-size="10.00">+ FindWords()</text>
<text text-anchor="start" x="279.174" y="-72" font-family="Helvetica,sans-Serif" font-size="10.00">+ FindWords()</text>
<text text-anchor="start" x="279.174" y="-62" font-family="Helvetica,sans-Serif" font-size="10.00">+ FindWords()</text>
<text text-anchor="start" x="279.174" y="-52" font-family="Helvetica,sans-Serif" font-size="10.00">+ Stop()</text>
</a>
</g>
</g>
<!-- Node1&#45;&gt;Node5 -->
<g id="edge4" class="edge"><title>Node1&#45;&gt;Node5</title>
<path fill="none" stroke="midnightblue" d="M1134.52,-416.311C934.109,-400.568 523.207,-358.941 409,-276 392.754,-264.202 379.781,-247.668 369.553,-230.154"/>
<polygon fill="none" stroke="midnightblue" points="1134.53,-419.823 1144.78,-417.109 1135.08,-412.844 1134.53,-419.823"/>
</g>
<!-- Node6 -->
<g id="node6" class="node"><title>Node6</title>
<g id="a_node6"><a xlink:href="class_thinksquirrel_1_1_word_game_builder_1_1_gameplay_1_1_word_game_player.html" target="_top" xlink:title="Represents a word game player. It tracks scores, holds tiles, and can be controlled by an AI agent...">
<polygon fill="none" stroke="black" points="418.488,-1 418.488,-275 543.512,-275 543.512,-1 418.488,-1"/>
<text text-anchor="middle" x="481" y="-263" font-family="Helvetica,sans-Serif" font-size="10.00">WordGamePlayer</text>
<polyline fill="none" stroke="black" points="418.488,-257 543.512,-257 "/>
<text text-anchor="start" x="426.488" y="-245" font-family="Helvetica,sans-Serif" font-size="10.00">+ bestWord</text>
<text text-anchor="start" x="426.488" y="-235" font-family="Helvetica,sans-Serif" font-size="10.00">+ bestWordScore</text>
<text text-anchor="start" x="426.488" y="-225" font-family="Helvetica,sans-Serif" font-size="10.00">+ heldTiles</text>
<text text-anchor="start" x="426.488" y="-215" font-family="Helvetica,sans-Serif" font-size="10.00">+ highScore</text>
<text text-anchor="start" x="426.488" y="-205" font-family="Helvetica,sans-Serif" font-size="10.00">+ inputEnabled</text>
<text text-anchor="start" x="426.488" y="-195" font-family="Helvetica,sans-Serif" font-size="10.00">+ lastPenalty</text>
<text text-anchor="start" x="426.488" y="-185" font-family="Helvetica,sans-Serif" font-size="10.00">+ lastResult</text>
<text text-anchor="start" x="426.488" y="-175" font-family="Helvetica,sans-Serif" font-size="10.00">+ lastWord</text>
<text text-anchor="start" x="426.488" y="-165" font-family="Helvetica,sans-Serif" font-size="10.00">+ lastWordScore</text>
<text text-anchor="start" x="426.488" y="-155" font-family="Helvetica,sans-Serif" font-size="10.00">+ maxTiles</text>
<text text-anchor="start" x="426.488" y="-145" font-family="Helvetica,sans-Serif" font-size="10.00">and 11 more...</text>
<polyline fill="none" stroke="black" points="418.488,-139 543.512,-139 "/>
<text text-anchor="start" x="426.488" y="-127" font-family="Helvetica,sans-Serif" font-size="10.00">+ ClearSelection()</text>
<text text-anchor="start" x="426.488" y="-117" font-family="Helvetica,sans-Serif" font-size="10.00">+ DeselectTile()</text>
<text text-anchor="start" x="426.488" y="-107" font-family="Helvetica,sans-Serif" font-size="10.00">+ Initialize()</text>
<text text-anchor="start" x="426.488" y="-97" font-family="Helvetica,sans-Serif" font-size="10.00">+ ResetAllData()</text>
<text text-anchor="start" x="426.488" y="-87" font-family="Helvetica,sans-Serif" font-size="10.00">+ ResetAllScores()</text>
<text text-anchor="start" x="426.488" y="-77" font-family="Helvetica,sans-Serif" font-size="10.00">+ ResetBestWord()</text>
<text text-anchor="start" x="426.488" y="-67" font-family="Helvetica,sans-Serif" font-size="10.00">+ ResetHighScore()</text>
<text text-anchor="start" x="426.488" y="-57" font-family="Helvetica,sans-Serif" font-size="10.00">+ ResetLastPenalty()</text>
<text text-anchor="start" x="426.488" y="-47" font-family="Helvetica,sans-Serif" font-size="10.00">+ ResetLastWord()</text>
<text text-anchor="start" x="426.488" y="-37" font-family="Helvetica,sans-Serif" font-size="10.00">+ ResetPreviousWords()</text>
<text text-anchor="start" x="426.488" y="-27" font-family="Helvetica,sans-Serif" font-size="10.00">and 6 more...</text>
<text text-anchor="start" x="426.488" y="-17" font-family="Helvetica,sans-Serif" font-size="10.00">+ FindPlayer()</text>
<text text-anchor="start" x="426.488" y="-7" font-family="Helvetica,sans-Serif" font-size="10.00">+ GetAllPlayers()</text>
</a>
</g>
</g>
<!-- Node1&#45;&gt;Node6 -->
<g id="edge5" class="edge"><title>Node1&#45;&gt;Node6</title>
<path fill="none" stroke="midnightblue" d="M1134.71,-411.801C962.877,-391.085 643.356,-344.498 553,-276 549.788,-273.565 546.706,-270.945 543.748,-268.17"/>
<polygon fill="none" stroke="midnightblue" points="1134.45,-415.295 1144.8,-413.008 1135.28,-408.345 1134.45,-415.295"/>
</g>
<!-- Node7 -->
<g id="node7" class="node"><title>Node7</title>
<g id="a_node7"><a xlink:href="class_thinksquirrel_1_1_word_game_builder_1_1_tiles_1_1_daikon_forge_1_1_letter_tile_daikon_forge_control.html" target="_top" xlink:title="Adds Daikon Forge GUI display to a letter tile. ">
<polygon fill="none" stroke="black" points="561.597,-101 561.597,-175 708.403,-175 708.403,-101 561.597,-101"/>
<text text-anchor="middle" x="635" y="-163" font-family="Helvetica,sans-Serif" font-size="10.00">LetterTileDaikonForgeControl</text>
<polyline fill="none" stroke="black" points="561.597,-157 708.403,-157 "/>
<text text-anchor="start" x="569.597" y="-145" font-family="Helvetica,sans-Serif" font-size="10.00">+ controls</text>
<text text-anchor="start" x="569.597" y="-135" font-family="Helvetica,sans-Serif" font-size="10.00">+ letterLabel</text>
<text text-anchor="start" x="569.597" y="-125" font-family="Helvetica,sans-Serif" font-size="10.00">+ scoreLabel</text>
<polyline fill="none" stroke="black" points="561.597,-119 708.403,-119 "/>
<text text-anchor="middle" x="635" y="-107" font-family="Helvetica,sans-Serif" font-size="10.00"> </text>
</a>
</g>
</g>
<!-- Node1&#45;&gt;Node7 -->
<g id="edge6" class="edge"><title>Node1&#45;&gt;Node7</title>
<path fill="none" stroke="midnightblue" d="M1134.61,-416.553C1019.86,-403.827 840.885,-369.358 718,-276 684.12,-250.261 661.09,-206.353 648.043,-175.187"/>
<polygon fill="none" stroke="midnightblue" points="1134.51,-420.061 1144.82,-417.647 1135.25,-413.101 1134.51,-420.061"/>
</g>
<!-- Node8 -->
<g id="node8" class="node"><title>Node8</title>
<g id="a_node8"><a xlink:href="class_thinksquirrel_1_1_word_game_builder_1_1_tiles_1_1_daikon_forge_1_1_letter_tile_daikon_forge_input.html" target="_top" xlink:title="Adds input control to a letter tile, using DF&#45;GUI&#39;s events. ">
<polygon fill="none" stroke="black" points="726.595,-111 726.595,-165 863.405,-165 863.405,-111 726.595,-111"/>
<text text-anchor="middle" x="795" y="-153" font-family="Helvetica,sans-Serif" font-size="10.00">LetterTileDaikonForgeInput</text>
<polyline fill="none" stroke="black" points="726.595,-147 863.405,-147 "/>
<text text-anchor="middle" x="795" y="-135" font-family="Helvetica,sans-Serif" font-size="10.00"> </text>
<polyline fill="none" stroke="black" points="726.595,-129 863.405,-129 "/>
<text text-anchor="middle" x="795" y="-117" font-family="Helvetica,sans-Serif" font-size="10.00"> </text>
</a>
</g>
</g>
<!-- Node1&#45;&gt;Node8 -->
<g id="edge7" class="edge"><title>Node1&#45;&gt;Node8</title>
<path fill="none" stroke="midnightblue" d="M1135.18,-401.204C1054.65,-379.999 947.06,-341.539 872,-276 837.267,-245.673 814.835,-195.681 803.6,-165.206"/>
<polygon fill="none" stroke="midnightblue" points="1134.3,-404.593 1144.86,-403.705 1136.05,-397.815 1134.3,-404.593"/>
</g>
<!-- Node9 -->
<g id="node9" class="node"><title>Node9</title>
<g id="a_node9"><a xlink:href="class_thinksquirrel_1_1_word_game_builder_1_1_tiles_1_1_letter_tile.html" target="_top" xlink:title="A standard letter tile. Includes support for selection, wildcard tiles, multiple colors, input, and state querying. ">
<polygon fill="none" stroke="black" points="881.494,-11 881.494,-265 1034.51,-265 1034.51,-11 881.494,-11"/>
<text text-anchor="middle" x="958" y="-253" font-family="Helvetica,sans-Serif" font-size="10.00">LetterTile</text>
<polyline fill="none" stroke="black" points="881.494,-247 1034.51,-247 "/>
<text text-anchor="start" x="889.494" y="-235" font-family="Helvetica,sans-Serif" font-size="10.00">+ colorInfo</text>
<text text-anchor="start" x="889.494" y="-225" font-family="Helvetica,sans-Serif" font-size="10.00">+ currentBackgroundColor</text>
<text text-anchor="start" x="889.494" y="-215" font-family="Helvetica,sans-Serif" font-size="10.00">+ currentBackgroundColorRaw</text>
<text text-anchor="start" x="889.494" y="-205" font-family="Helvetica,sans-Serif" font-size="10.00">+ currentLetter</text>
<text text-anchor="start" x="889.494" y="-195" font-family="Helvetica,sans-Serif" font-size="10.00">+ currentLetterLabel</text>
<text text-anchor="start" x="889.494" y="-185" font-family="Helvetica,sans-Serif" font-size="10.00">+ currentPointValue</text>
<text text-anchor="start" x="889.494" y="-175" font-family="Helvetica,sans-Serif" font-size="10.00">+ currentScoreLabel</text>
<text text-anchor="start" x="889.494" y="-165" font-family="Helvetica,sans-Serif" font-size="10.00">+ currentTextColor</text>
<text text-anchor="start" x="889.494" y="-155" font-family="Helvetica,sans-Serif" font-size="10.00">+ currentTextColorRaw</text>
<text text-anchor="start" x="889.494" y="-145" font-family="Helvetica,sans-Serif" font-size="10.00">+ defaultPointValue</text>
<text text-anchor="start" x="889.494" y="-135" font-family="Helvetica,sans-Serif" font-size="10.00">and 18 more...</text>
<polyline fill="none" stroke="black" points="881.494,-129 1034.51,-129 "/>
<text text-anchor="start" x="889.494" y="-117" font-family="Helvetica,sans-Serif" font-size="10.00">+ CanSelectTile()</text>
<text text-anchor="start" x="889.494" y="-107" font-family="Helvetica,sans-Serif" font-size="10.00">+ CanSelectTile()</text>
<text text-anchor="start" x="889.494" y="-97" font-family="Helvetica,sans-Serif" font-size="10.00">+ ChangeLetter()</text>
<text text-anchor="start" x="889.494" y="-87" font-family="Helvetica,sans-Serif" font-size="10.00">+ ChangeLetter()</text>
<text text-anchor="start" x="889.494" y="-77" font-family="Helvetica,sans-Serif" font-size="10.00">+ ChangeLetter()</text>
<text text-anchor="start" x="889.494" y="-67" font-family="Helvetica,sans-Serif" font-size="10.00">+ DeselectTile()</text>
<text text-anchor="start" x="889.494" y="-57" font-family="Helvetica,sans-Serif" font-size="10.00">+ DeselectTile()</text>
<text text-anchor="start" x="889.494" y="-47" font-family="Helvetica,sans-Serif" font-size="10.00">+ DespawnTile()</text>
<text text-anchor="start" x="889.494" y="-37" font-family="Helvetica,sans-Serif" font-size="10.00">+ ModifyTileSelection()</text>
<text text-anchor="start" x="889.494" y="-27" font-family="Helvetica,sans-Serif" font-size="10.00">+ RemoveWildcard()</text>
<text text-anchor="start" x="889.494" y="-17" font-family="Helvetica,sans-Serif" font-size="10.00">and 11 more...</text>
</a>
</g>
</g>
<!-- Node1&#45;&gt;Node9 -->
<g id="edge8" class="edge"><title>Node1&#45;&gt;Node9</title>
<path fill="none" stroke="midnightblue" d="M1136.2,-355.664C1104.04,-332.678 1070.23,-305.347 1043,-276 1039.76,-272.512 1036.58,-268.883 1033.46,-265.148"/>
<polygon fill="none" stroke="midnightblue" points="1134.59,-358.812 1144.78,-361.721 1138.63,-353.094 1134.59,-358.812"/>
</g>
<!-- Node10 -->
<g id="node10" class="node"><title>Node10</title>
<g id="a_node10"><a xlink:href="class_thinksquirrel_1_1_word_game_builder_1_1_tiles_1_1_letter_tile_animation.html" target="_top" xlink:title="Adds animation to a letter tile. ">
<polygon fill="none" stroke="black" points="1052.44,-91 1052.44,-185 1171.56,-185 1171.56,-91 1052.44,-91"/>
<text text-anchor="middle" x="1112" y="-173" font-family="Helvetica,sans-Serif" font-size="10.00">LetterTileAnimation</text>
<polyline fill="none" stroke="black" points="1052.44,-167 1171.56,-167 "/>
<text text-anchor="start" x="1060.44" y="-155" font-family="Helvetica,sans-Serif" font-size="10.00">+ changeAnimationClip</text>
<text text-anchor="start" x="1060.44" y="-145" font-family="Helvetica,sans-Serif" font-size="10.00">+ disableAnimationClip</text>
<text text-anchor="start" x="1060.44" y="-135" font-family="Helvetica,sans-Serif" font-size="10.00">+ enableAnimationClip</text>
<text text-anchor="start" x="1060.44" y="-125" font-family="Helvetica,sans-Serif" font-size="10.00">+ spawnAnimationClip</text>
<text text-anchor="start" x="1060.44" y="-115" font-family="Helvetica,sans-Serif" font-size="10.00">+ tileAnimation</text>
<polyline fill="none" stroke="black" points="1052.44,-109 1171.56,-109 "/>
<text text-anchor="middle" x="1112" y="-97" font-family="Helvetica,sans-Serif" font-size="10.00"> </text>
</a>
</g>
</g>
<!-- Node1&#45;&gt;Node10 -->
<g id="edge9" class="edge"><title>Node1&#45;&gt;Node10</title>
<path fill="none" stroke="midnightblue" d="M1189.49,-303.806C1169.76,-261.837 1148.78,-217.222 1133.63,-185.01"/>
<polygon fill="none" stroke="midnightblue" points="1186.39,-305.435 1193.81,-312.995 1192.72,-302.457 1186.39,-305.435"/>
</g>
<!-- Node11 -->
<g id="node11" class="node"><title>Node11</title>
<g id="a_node11"><a xlink:href="class_thinksquirrel_1_1_word_game_builder_1_1_tiles_1_1_letter_tile_color_control.html" target="_top" xlink:title="Automatically controls the color of objects based on a letter tile&#39;s state. ">
<polygon fill="none" stroke="black" points="1189.27,-101 1189.27,-175 1302.73,-175 1302.73,-101 1189.27,-101"/>
<text text-anchor="middle" x="1246" y="-163" font-family="Helvetica,sans-Serif" font-size="10.00">LetterTileColorControl</text>
<polyline fill="none" stroke="black" points="1189.27,-157 1302.73,-157 "/>
<text text-anchor="start" x="1197.27" y="-145" font-family="Helvetica,sans-Serif" font-size="10.00">+ background</text>
<text text-anchor="start" x="1197.27" y="-135" font-family="Helvetica,sans-Serif" font-size="10.00">+ colorProperties</text>
<text text-anchor="start" x="1197.27" y="-125" font-family="Helvetica,sans-Serif" font-size="10.00">+ text</text>
<polyline fill="none" stroke="black" points="1189.27,-119 1302.73,-119 "/>
<text text-anchor="middle" x="1246" y="-107" font-family="Helvetica,sans-Serif" font-size="10.00"> </text>
</a>
</g>
</g>
<!-- Node1&#45;&gt;Node11 -->
<g id="edge10" class="edge"><title>Node1&#45;&gt;Node11</title>
<path fill="none" stroke="midnightblue" d="M1246,-302.898C1246,-256.765 1246,-207.57 1246,-175.251"/>
<polygon fill="none" stroke="midnightblue" points="1242.5,-302.995 1246,-312.995 1249.5,-302.996 1242.5,-302.995"/>
</g>
<!-- Node12 -->
<g id="node12" class="node"><title>Node12</title>
<g id="a_node12"><a xlink:href="class_thinksquirrel_1_1_word_game_builder_1_1_tiles_1_1_letter_tile_label_control.html" target="_top" xlink:title="Automatically controls the text on objects based on a letter tile&#39;s state. ">
<polygon fill="none" stroke="black" points="1320.99,-106 1320.99,-170 1435.01,-170 1435.01,-106 1320.99,-106"/>
<text text-anchor="middle" x="1378" y="-158" font-family="Helvetica,sans-Serif" font-size="10.00">LetterTileLabelControl</text>
<polyline fill="none" stroke="black" points="1320.99,-152 1435.01,-152 "/>
<text text-anchor="start" x="1328.99" y="-140" font-family="Helvetica,sans-Serif" font-size="10.00">+ letterLabel</text>
<text text-anchor="start" x="1328.99" y="-130" font-family="Helvetica,sans-Serif" font-size="10.00">+ scoreLabel</text>
<polyline fill="none" stroke="black" points="1320.99,-124 1435.01,-124 "/>
<text text-anchor="middle" x="1378" y="-112" font-family="Helvetica,sans-Serif" font-size="10.00"> </text>
</a>
</g>
</g>
<!-- Node1&#45;&gt;Node12 -->
<g id="edge11" class="edge"><title>Node1&#45;&gt;Node12</title>
<path fill="none" stroke="midnightblue" d="M1301.62,-303.903C1324.3,-254.952 1348.64,-202.383 1363.6,-170.087"/>
<polygon fill="none" stroke="midnightblue" points="1298.44,-302.451 1297.41,-312.995 1304.79,-305.392 1298.44,-302.451"/>
</g>
<!-- Node13 -->
<g id="node13" class="node"><title>Node13</title>
<g id="a_node13"><a xlink:href="class_thinksquirrel_1_1_word_game_builder_1_1_tiles_1_1_letter_tile_mouse_input.html" target="_top" xlink:title="Adds input control to a letter tile, using Unity&#39;s OnMouse[...] methods. ">
<polygon fill="none" stroke="black" points="1453.21,-111 1453.21,-165 1562.79,-165 1562.79,-111 1453.21,-111"/>
<text text-anchor="middle" x="1508" y="-153" font-family="Helvetica,sans-Serif" font-size="10.00">LetterTileMouseInput</text>
<polyline fill="none" stroke="black" points="1453.21,-147 1562.79,-147 "/>
<text text-anchor="middle" x="1508" y="-135" font-family="Helvetica,sans-Serif" font-size="10.00"> </text>
<polyline fill="none" stroke="black" points="1453.21,-129 1562.79,-129 "/>
<text text-anchor="middle" x="1508" y="-117" font-family="Helvetica,sans-Serif" font-size="10.00"> </text>
</a>
</g>
</g>
<!-- Node1&#45;&gt;Node13 -->
<g id="edge12" class="edge"><title>Node1&#45;&gt;Node13</title>
<path fill="none" stroke="midnightblue" d="M1355.67,-356.816C1386.97,-333.956 1419.26,-306.407 1444,-276 1471.59,-242.094 1490.36,-194.34 1500.12,-165.094"/>
<polygon fill="none" stroke="midnightblue" points="1353.38,-354.151 1347.3,-362.831 1357.47,-359.834 1353.38,-354.151"/>
</g>
<!-- Node14 -->
<g id="node14" class="node"><title>Node14</title>
<g id="a_node14"><a xlink:href="class_thinksquirrel_1_1_word_game_builder_1_1_tiles_1_1_letter_tile_visibility_control.html" target="_top" xlink:title="Automatically controls the visibility of objects based on a letter tile&#39;s state. ">
<polygon fill="none" stroke="black" points="1581.25,-111 1581.25,-165 1706.75,-165 1706.75,-111 1581.25,-111"/>
<text text-anchor="middle" x="1644" y="-153" font-family="Helvetica,sans-Serif" font-size="10.00">LetterTileVisibilityControl</text>
<polyline fill="none" stroke="black" points="1581.25,-147 1706.75,-147 "/>
<text text-anchor="start" x="1589.25" y="-135" font-family="Helvetica,sans-Serif" font-size="10.00">+ objects</text>
<polyline fill="none" stroke="black" points="1581.25,-129 1706.75,-129 "/>
<text text-anchor="middle" x="1644" y="-117" font-family="Helvetica,sans-Serif" font-size="10.00"> </text>
</a>
</g>
</g>
<!-- Node1&#45;&gt;Node14 -->
<g id="edge13" class="edge"><title>Node1&#45;&gt;Node14</title>
<path fill="none" stroke="midnightblue" d="M1356.64,-393.685C1424.93,-370.473 1510.69,-332.664 1571,-276 1604.09,-244.904 1625.25,-195.39 1635.84,-165.176"/>
<polygon fill="none" stroke="midnightblue" points="1355.5,-390.375 1347.13,-396.863 1357.72,-397.014 1355.5,-390.375"/>
</g>
<!-- Node15 -->
<g id="node15" class="node"><title>Node15</title>
<g id="a_node15"><a xlink:href="class_thinksquirrel_1_1_word_game_builder_1_1_tiles_1_1_ngui_1_1_letter_tile_ngui_control.html" target="_top" xlink:title="Adds NGUI display to a letter tile. ">
<polygon fill="none" stroke="black" points="1724.94,-101 1724.94,-175 1835.06,-175 1835.06,-101 1724.94,-101"/>
<text text-anchor="middle" x="1780" y="-163" font-family="Helvetica,sans-Serif" font-size="10.00">LetterTileNguiControl</text>
<polyline fill="none" stroke="black" points="1724.94,-157 1835.06,-157 "/>
<text text-anchor="start" x="1732.94" y="-145" font-family="Helvetica,sans-Serif" font-size="10.00">+ letterLabel</text>
<text text-anchor="start" x="1732.94" y="-135" font-family="Helvetica,sans-Serif" font-size="10.00">+ scoreLabel</text>
<text text-anchor="start" x="1732.94" y="-125" font-family="Helvetica,sans-Serif" font-size="10.00">+ widgets</text>
<polyline fill="none" stroke="black" points="1724.94,-119 1835.06,-119 "/>
<text text-anchor="middle" x="1780" y="-107" font-family="Helvetica,sans-Serif" font-size="10.00"> </text>
</a>
</g>
</g>
<!-- Node1&#45;&gt;Node15 -->
<g id="edge14" class="edge"><title>Node1&#45;&gt;Node15</title>
<path fill="none" stroke="midnightblue" d="M1357.26,-414.166C1460.87,-399.674 1614.08,-363.937 1715,-276 1745.27,-249.626 1762.54,-206.058 1771.56,-175.14"/>
<polygon fill="none" stroke="midnightblue" points="1356.52,-410.734 1347.08,-415.544 1357.46,-417.671 1356.52,-410.734"/>
</g>
<!-- Node16 -->
<g id="node16" class="node"><title>Node16</title>
<g id="a_node16"><a xlink:href="class_thinksquirrel_1_1_word_game_builder_1_1_tiles_1_1_ngui_1_1_letter_tile_ngui_input.html" target="_top" xlink:title="Adds input control to a letter tile, using NGUI&#39;s OnPress/OnHover/OnClick methods. ">
<polygon fill="none" stroke="black" points="1852.94,-111 1852.94,-165 1953.06,-165 1953.06,-111 1852.94,-111"/>
<text text-anchor="middle" x="1903" y="-153" font-family="Helvetica,sans-Serif" font-size="10.00">LetterTileNguiInput</text>
<polyline fill="none" stroke="black" points="1852.94,-147 1953.06,-147 "/>
<text text-anchor="middle" x="1903" y="-135" font-family="Helvetica,sans-Serif" font-size="10.00"> </text>
<polyline fill="none" stroke="black" points="1852.94,-129 1953.06,-129 "/>
<text text-anchor="middle" x="1903" y="-117" font-family="Helvetica,sans-Serif" font-size="10.00"> </text>
</a>
</g>
</g>
<!-- Node1&#45;&gt;Node16 -->
<g id="edge15" class="edge"><title>Node1&#45;&gt;Node16</title>
<path fill="none" stroke="midnightblue" d="M1357.47,-408.457C1509.48,-385.283 1771.24,-337.706 1844,-276 1877.67,-247.441 1892.66,-196.154 1898.92,-165.081"/>
<polygon fill="none" stroke="midnightblue" points="1356.53,-405.059 1347.17,-410.016 1357.58,-411.98 1356.53,-405.059"/>
</g>
<!-- Node17 -->
<g id="node17" class="node"><title>Node17</title>
<g id="a_node17"><a xlink:href="class_thinksquirrel_1_1_word_game_builder_1_1_tiles_1_1_tk2_d_1_1_letter_tile_tk2_d_control.html" target="_top" xlink:title="Adds 2D Toolkit display to a letter tile. ">
<polygon fill="none" stroke="black" points="1971.28,-101 1971.28,-175 2084.72,-175 2084.72,-101 1971.28,-101"/>
<text text-anchor="middle" x="2028" y="-163" font-family="Helvetica,sans-Serif" font-size="10.00">LetterTileTk2DControl</text>
<polyline fill="none" stroke="black" points="1971.28,-157 2084.72,-157 "/>
<text text-anchor="start" x="1979.28" y="-145" font-family="Helvetica,sans-Serif" font-size="10.00">+ letterLabel</text>
<text text-anchor="start" x="1979.28" y="-135" font-family="Helvetica,sans-Serif" font-size="10.00">+ scoreLabel</text>
<text text-anchor="start" x="1979.28" y="-125" font-family="Helvetica,sans-Serif" font-size="10.00">+ sprites</text>
<polyline fill="none" stroke="black" points="1971.28,-119 2084.72,-119 "/>
<text text-anchor="middle" x="2028" y="-107" font-family="Helvetica,sans-Serif" font-size="10.00"> </text>
</a>
</g>
</g>
<!-- Node1&#45;&gt;Node17 -->
<g id="edge16" class="edge"><title>Node1&#45;&gt;Node17</title>
<path fill="none" stroke="midnightblue" d="M1357.46,-413.038C1534.42,-393.682 1869.13,-348.504 1962,-276 1994.05,-250.981 2011.42,-206.486 2020.18,-175.001"/>
<polygon fill="none" stroke="midnightblue" points="1356.9,-409.578 1347.34,-414.136 1357.66,-416.537 1356.9,-409.578"/>
</g>
<!-- Node18 -->
<g id="node18" class="node"><title>Node18</title>
<g id="a_node18"><a xlink:href="class_thinksquirrel_1_1_word_game_builder_1_1_tiles_1_1_tk2_d_1_1_letter_tile_tk2_d_input.html" target="_top" xlink:title="Adds input control to a letter tile, using 2D Toolkit&#39;s UI events. ">
<polygon fill="none" stroke="black" points="2102.27,-111 2102.27,-165 2205.73,-165 2205.73,-111 2102.27,-111"/>
<text text-anchor="middle" x="2154" y="-153" font-family="Helvetica,sans-Serif" font-size="10.00">LetterTileTk2DInput</text>
<polyline fill="none" stroke="black" points="2102.27,-147 2205.73,-147 "/>
<text text-anchor="start" x="2110.27" y="-135" font-family="Helvetica,sans-Serif" font-size="10.00">+ uiItem</text>
<polyline fill="none" stroke="black" points="2102.27,-129 2205.73,-129 "/>
<text text-anchor="middle" x="2154" y="-117" font-family="Helvetica,sans-Serif" font-size="10.00"> </text>
</a>
</g>
</g>
<!-- Node1&#45;&gt;Node18 -->
<g id="edge17" class="edge"><title>Node1&#45;&gt;Node18</title>
<path fill="none" stroke="midnightblue" d="M1357.52,-417.376C1560.57,-403.273 1980.07,-364.087 2093,-276 2128.1,-248.617 2143.53,-196.689 2149.9,-165.225"/>
<polygon fill="none" stroke="midnightblue" points="1357.16,-413.892 1347.42,-418.069 1357.64,-420.876 1357.16,-413.892"/>
</g>
<!-- Node19 -->
<g id="node19" class="node"><title>Node19</title>
<g id="a_node19"><a xlink:href="class_thinksquirrel_1_1_word_game_builder_example_1_1_example_game_logic.html" target="_top" xlink:title="This class is responsible for all game logic. ">
<polygon fill="none" stroke="black" points="2223.47,-96 2223.47,-180 2350.53,-180 2350.53,-96 2223.47,-96"/>
<text text-anchor="middle" x="2287" y="-168" font-family="Helvetica,sans-Serif" font-size="10.00">ExampleGameLogic</text>
<polyline fill="none" stroke="black" points="2223.47,-162 2350.53,-162 "/>
<text text-anchor="middle" x="2287" y="-150" font-family="Helvetica,sans-Serif" font-size="10.00"> </text>
<polyline fill="none" stroke="black" points="2223.47,-144 2350.53,-144 "/>
<text text-anchor="start" x="2231.47" y="-132" font-family="Helvetica,sans-Serif" font-size="10.00">+ OnAgentFindWords()</text>
<text text-anchor="start" x="2231.47" y="-122" font-family="Helvetica,sans-Serif" font-size="10.00">+ OnPlayerWordResult()</text>
<text text-anchor="start" x="2231.47" y="-112" font-family="Helvetica,sans-Serif" font-size="10.00">+ OnTileDistribution()</text>
<text text-anchor="start" x="2231.47" y="-102" font-family="Helvetica,sans-Serif" font-size="10.00">+ OnWildcardTileSelect()</text>
</a>
</g>
</g>
<!-- Node1&#45;&gt;Node19 -->
<g id="edge18" class="edge"><title>Node1&#45;&gt;Node19</title>
<path fill="none" stroke="midnightblue" d="M1357.39,-419.336C1581.67,-407.992 2077.9,-372.441 2214,-276 2246.21,-253.173 2265.47,-211.606 2276.04,-180.224"/>
<polygon fill="none" stroke="midnightblue" points="1357.06,-415.848 1347.24,-419.842 1357.41,-422.839 1357.06,-415.848"/>
</g>
<!-- Node2 -->
<g id="node2" class="node"><title>Node2</title>
<polygon fill="none" stroke="#bfbfbf" points="1202.98,-575 1202.98,-629 1289.02,-629 1289.02,-575 1202.98,-575"/>
<text text-anchor="middle" x="1246" y="-617" font-family="Helvetica,sans-Serif" font-size="10.00">MonoBehaviour</text>
<polyline fill="none" stroke="#bfbfbf" points="1202.98,-611 1289.02,-611 "/>
<text text-anchor="middle" x="1246" y="-599" font-family="Helvetica,sans-Serif" font-size="10.00"> </text>
<polyline fill="none" stroke="#bfbfbf" points="1202.98,-593 1289.02,-593 "/>
<text text-anchor="middle" x="1246" y="-581" font-family="Helvetica,sans-Serif" font-size="10.00"> </text>
</g>
<!-- Node2&#45;&gt;Node1 -->
<g id="edge1" class="edge"><title>Node2&#45;&gt;Node1</title>
<path fill="none" stroke="midnightblue" d="M1246,-564.684C1246,-556.251 1246,-546.84 1246,-537.001"/>
<polygon fill="none" stroke="midnightblue" points="1242.5,-564.801 1246,-574.801 1249.5,-564.801 1242.5,-564.801"/>
</g>
</g>
</svg>
        <g id="navigator" transform="translate(0 0)" fill="#404254">
                <rect fill="#f2f5e9" fill-opacity="0.5" stroke="#606060" stroke-width=".5" x="0" y="0" width="60" height="60"/>
                <use id="zoomplus" xlink:href="#zoomPlus" x="17" y="9" onmousedown="handleZoom(evt,'in')"/>
                <use id="zoomminus" xlink:href="#zoomMin" x="42" y="9" onmousedown="handleZoom(evt,'out')"/>
                <use id="reset" xlink:href="#resetDef" x="30" y="36" onmousedown="handleReset()"/>
                <g id="arrowUp" xlink:href="#dirArrow" transform="translate(30 24)" onmousedown="handlePan(0,-1)">
                  <use xlink:href="#rim" fill="#404040">
                        <set attributeName="fill" to="#808080" begin="arrowUp.mouseover" end="arrowUp.mouseout"/>
                  </use>
                  <path fill="none" stroke="white" stroke-width="1.5" d="M0,-3.0v7 M-2.5,-0.5L0,-3.0L2.5,-0.5"/>
                </g>
                <g id="arrowRight" xlink:href="#dirArrow" transform="rotate(90) translate(36 -43)" onmousedown="handlePan(1,0)">
                  <use xlink:href="#rim" fill="#404040">
                        <set attributeName="fill" to="#808080" begin="arrowRight.mouseover" end="arrowRight.mouseout"/>
                  </use>
                  <path fill="none" stroke="white" stroke-width="1.5" d="M0,-3.0v7 M-2.5,-0.5L0,-3.0L2.5,-0.5"/>
                </g>
                <g id="arrowDown" xlink:href="#dirArrow" transform="rotate(180) translate(-30 -48)" onmousedown="handlePan(0,1)">
                  <use xlink:href="#rim" fill="#404040">
                        <set attributeName="fill" to="#808080" begin="arrowDown.mouseover" end="arrowDown.mouseout"/>
                  </use>
                  <path fill="none" stroke="white" stroke-width="1.5" d="M0,-3.0v7 M-2.5,-0.5L0,-3.0L2.5,-0.5"/>
                </g>
                <g id="arrowLeft" xlink:href="#dirArrow" transform="rotate(270) translate(-36 17)" onmousedown="handlePan(-1,0)">
                  <use xlink:href="#rim" fill="#404040">
                        <set attributeName="fill" to="#808080" begin="arrowLeft.mouseover" end="arrowLeft.mouseout"/>
                  </use>
                  <path fill="none" stroke="white" stroke-width="1.5" d="M0,-3.0v7 M-2.5,-0.5L0,-3.0L2.5,-0.5"/>
                </g>
        </g>
        <svg viewBox="0 0 15 15" width="100%" height="30px" preserveAspectRatio="xMaxYMin meet">
         <g id="arrow_out" transform="scale(0.3 0.3)">
          <a xlink:href="class_thinksquirrel_1_1_word_game_builder_1_1_w_g_b_base__inherit__graph_org.svg" target="_base">
           <rect id="button" ry="5" rx="5" y="6" x="6" height="38" width="38"
                fill="#f2f5e9" fill-opacity="0.5" stroke="#606060" stroke-width="1.0"/>
           <path id="arrow"
             d="M 11.500037,31.436501 C 11.940474,20.09759 22.043105,11.32322 32.158766,21.979434 L 37.068811,17.246167 C 37.068811,17.246167 37.088388,32 37.088388,32 L 22.160133,31.978069 C 22.160133,31.978069 26.997745,27.140456 26.997745,27.140456 C 18.528582,18.264221 13.291696,25.230495 11.500037,31.436501 z"
             style="fill:#404040;"/>
          </a>
         </g>
        </svg>
</svg>
