<?xml version="1.0" encoding="UTF-8" standalone="no"?>
<!DOCTYPE svg PUBLIC "-//W3C//DTD SVG 1.1//EN"
 "http://www.w3.org/Graphics/SVG/1.1/DTD/svg11.dtd">
<!-- Generated by graphviz version 2.36.0 (20140111.2315)
 -->
<!-- Title: ExampleViewModel.UiContext Pages: 1 -->
<svg width="899pt" height="276pt"
 viewBox="0.00 0.00 899.00 276.00" xmlns="http://www.w3.org/2000/svg" xmlns:xlink="http://www.w3.org/1999/xlink">
<g id="graph0" class="graph" transform="scale(1 1) rotate(0) translate(4 272)">
<title>ExampleViewModel.UiContext</title>
<!-- Node1 -->
<g id="node1" class="node"><title>Node1</title>
<polygon fill="#bfbfbf" stroke="black" points="373.837,-213 373.837,-267 524.163,-267 524.163,-213 373.837,-213"/>
<text text-anchor="middle" x="449" y="-255" font-family="Helvetica,sans-Serif" font-size="10.00">ExampleViewModel.UiContext</text>
<polyline fill="none" stroke="black" points="373.837,-249 524.163,-249 "/>
<text text-anchor="middle" x="449" y="-237" font-family="Helvetica,sans-Serif" font-size="10.00"> </text>
<polyline fill="none" stroke="black" points="373.837,-231 524.163,-231 "/>
<text text-anchor="middle" x="449" y="-219" font-family="Helvetica,sans-Serif" font-size="10.00"> </text>
</g>
<!-- Node2 -->
<g id="node2" class="node"><title>Node2</title>
<g id="a_node2"><a xlink:href="class_thinksquirrel_1_1_word_game_builder_example_1_1_example_view_model_1_1_agent_context.html" target="_top" xlink:title="Contains information about the agent. ">
<polygon fill="none" stroke="black" points="-0.507812,-56 -0.507812,-120 166.508,-120 166.508,-56 -0.507812,-56"/>
<text text-anchor="middle" x="83" y="-108" font-family="Helvetica,sans-Serif" font-size="10.00">ExampleViewModel.AgentContext</text>
<polyline fill="none" stroke="black" points="-0.507812,-102 166.508,-102 "/>
<text text-anchor="start" x="7.49219" y="-90" font-family="Helvetica,sans-Serif" font-size="10.00">+ agentStatus</text>
<text text-anchor="start" x="7.49219" y="-80" font-family="Helvetica,sans-Serif" font-size="10.00">+ automaticMode</text>
<polyline fill="none" stroke="black" points="-0.507812,-74 166.508,-74 "/>
<text text-anchor="start" x="7.49219" y="-62" font-family="Helvetica,sans-Serif" font-size="10.00">+ ToggleAutomaticMode()</text>
</a>
</g>
</g>
<!-- Node1&#45;&gt;Node2 -->
<g id="edge1" class="edge"><title>Node1&#45;&gt;Node2</title>
<path fill="none" stroke="midnightblue" d="M363.517,-230.914C307.567,-222.89 234.299,-207.054 176,-176 150.047,-162.176 125.959,-139.233 108.803,-120.378"/>
<polygon fill="none" stroke="midnightblue" points="363.372,-234.427 373.755,-232.323 364.326,-227.492 363.372,-234.427"/>
</g>
<!-- Node3 -->
<g id="node3" class="node"><title>Node3</title>
<g id="a_node3"><a xlink:href="class_thinksquirrel_1_1_word_game_builder_example_1_1_example_view_model_1_1_game_context.html" target="_top" xlink:title="Contains information about the game. ">
<polygon fill="none" stroke="black" points="184.943,-46 184.943,-130 353.057,-130 353.057,-46 184.943,-46"/>
<text text-anchor="middle" x="269" y="-118" font-family="Helvetica,sans-Serif" font-size="10.00">ExampleViewModel.GameContext</text>
<polyline fill="none" stroke="black" points="184.943,-112 353.057,-112 "/>
<text text-anchor="start" x="192.943" y="-100" font-family="Helvetica,sans-Serif" font-size="10.00">+ isInitialized</text>
<text text-anchor="start" x="192.943" y="-90" font-family="Helvetica,sans-Serif" font-size="10.00">+ tilePoolExists</text>
<text text-anchor="start" x="192.943" y="-80" font-family="Helvetica,sans-Serif" font-size="10.00">+ tilesRemaining</text>
<polyline fill="none" stroke="black" points="184.943,-74 353.057,-74 "/>
<text text-anchor="start" x="192.943" y="-62" font-family="Helvetica,sans-Serif" font-size="10.00">+ ResetTiles()</text>
<text text-anchor="start" x="192.943" y="-52" font-family="Helvetica,sans-Serif" font-size="10.00">+ SelectWildcardLetter()</text>
</a>
</g>
</g>
<!-- Node1&#45;&gt;Node3 -->
<g id="edge2" class="edge"><title>Node1&#45;&gt;Node3</title>
<path fill="none" stroke="midnightblue" d="M402.031,-206.628C388.827,-197.09 374.63,-186.412 362,-176 344.769,-161.796 326.659,-145.258 311.045,-130.438"/>
<polygon fill="none" stroke="midnightblue" points="400.37,-209.743 410.538,-212.717 404.444,-204.05 400.37,-209.743"/>
</g>
<!-- Node4 -->
<g id="node4" class="node"><title>Node4</title>
<g id="a_node4"><a xlink:href="class_thinksquirrel_1_1_word_game_builder_example_1_1_example_view_model_1_1_languages_context.html" target="_top" xlink:title="Contains information about languages. ">
<polygon fill="none" stroke="black" points="371.044,-36 371.044,-140 526.956,-140 526.956,-36 371.044,-36"/>
<text text-anchor="start" x="379.044" y="-128" font-family="Helvetica,sans-Serif" font-size="10.00">ExampleViewModel.Languages</text>
<text text-anchor="middle" x="449" y="-118" font-family="Helvetica,sans-Serif" font-size="10.00">Context</text>
<polyline fill="none" stroke="black" points="371.044,-112 526.956,-112 "/>
<text text-anchor="start" x="379.044" y="-100" font-family="Helvetica,sans-Serif" font-size="10.00">+ currentLanguage</text>
<text text-anchor="start" x="379.044" y="-90" font-family="Helvetica,sans-Serif" font-size="10.00">+ currentLanguageIsLoaded</text>
<text text-anchor="start" x="379.044" y="-80" font-family="Helvetica,sans-Serif" font-size="10.00">+ currentLetters</text>
<text text-anchor="start" x="379.044" y="-70" font-family="Helvetica,sans-Serif" font-size="10.00">+ languageLoadProgress</text>
<text text-anchor="start" x="379.044" y="-60" font-family="Helvetica,sans-Serif" font-size="10.00">+ languageNames</text>
<polyline fill="none" stroke="black" points="371.044,-54 526.956,-54 "/>
<text text-anchor="start" x="379.044" y="-42" font-family="Helvetica,sans-Serif" font-size="10.00">+ ChangeLanguage()</text>
</a>
</g>
</g>
<!-- Node1&#45;&gt;Node4 -->
<g id="edge3" class="edge"><title>Node1&#45;&gt;Node4</title>
<path fill="none" stroke="midnightblue" d="M449,-202.692C449,-183.967 449,-160.811 449,-140.294"/>
<polygon fill="none" stroke="midnightblue" points="445.5,-202.872 449,-212.872 452.5,-202.872 445.5,-202.872"/>
</g>
<!-- Node5 -->
<g id="node5" class="node"><title>Node5</title>
<g id="a_node5"><a xlink:href="class_thinksquirrel_1_1_word_game_builder_example_1_1_example_view_model_1_1_player_context.html" target="_top" xlink:title="Contains information about the player. ">
<polygon fill="none" stroke="black" points="545.386,-1 545.386,-175 714.614,-175 714.614,-1 545.386,-1"/>
<text text-anchor="middle" x="630" y="-163" font-family="Helvetica,sans-Serif" font-size="10.00">ExampleViewModel.PlayerContext</text>
<polyline fill="none" stroke="black" points="545.386,-157 714.614,-157 "/>
<text text-anchor="start" x="553.386" y="-145" font-family="Helvetica,sans-Serif" font-size="10.00">+ bestWord</text>
<text text-anchor="start" x="553.386" y="-135" font-family="Helvetica,sans-Serif" font-size="10.00">+ bestWordScore</text>
<text text-anchor="start" x="553.386" y="-125" font-family="Helvetica,sans-Serif" font-size="10.00">+ hasSelection</text>
<text text-anchor="start" x="553.386" y="-115" font-family="Helvetica,sans-Serif" font-size="10.00">+ highScore</text>
<text text-anchor="start" x="553.386" y="-105" font-family="Helvetica,sans-Serif" font-size="10.00">+ inputEnabled</text>
<text text-anchor="start" x="553.386" y="-95" font-family="Helvetica,sans-Serif" font-size="10.00">+ lastWord</text>
<text text-anchor="start" x="553.386" y="-85" font-family="Helvetica,sans-Serif" font-size="10.00">+ lastWordScore</text>
<text text-anchor="start" x="553.386" y="-75" font-family="Helvetica,sans-Serif" font-size="10.00">+ multiplyByPermutations</text>
<text text-anchor="start" x="553.386" y="-65" font-family="Helvetica,sans-Serif" font-size="10.00">+ orderedResult</text>
<text text-anchor="start" x="553.386" y="-55" font-family="Helvetica,sans-Serif" font-size="10.00">+ permutationResult</text>
<text text-anchor="start" x="553.386" y="-45" font-family="Helvetica,sans-Serif" font-size="10.00">+ score</text>
<polyline fill="none" stroke="black" points="545.386,-39 714.614,-39 "/>
<text text-anchor="start" x="553.386" y="-27" font-family="Helvetica,sans-Serif" font-size="10.00">+ PlayerContext()</text>
<text text-anchor="start" x="553.386" y="-17" font-family="Helvetica,sans-Serif" font-size="10.00">+ ClearSelection()</text>
<text text-anchor="start" x="553.386" y="-7" font-family="Helvetica,sans-Serif" font-size="10.00">+ SubmitWord()</text>
</a>
</g>
</g>
<!-- Node1&#45;&gt;Node5 -->
<g id="edge4" class="edge"><title>Node1&#45;&gt;Node5</title>
<path fill="none" stroke="midnightblue" d="M494.964,-206.752C508.118,-197.144 522.321,-186.398 535,-176 538.372,-173.235 541.782,-170.386 545.204,-167.482"/>
<polygon fill="none" stroke="midnightblue" points="492.542,-204.185 486.498,-212.886 496.65,-209.853 492.542,-204.185"/>
</g>
<!-- Node6 -->
<g id="node6" class="node"><title>Node6</title>
<g id="a_node6"><a xlink:href="class_thinksquirrel_1_1_word_game_builder_example_1_1_example_view_model_1_1_word_result_context.html" target="_top" xlink:title="Contains information about a word check. ">
<polygon fill="none" stroke="black" points="732.76,-36 732.76,-140 891.24,-140 891.24,-36 732.76,-36"/>
<text text-anchor="start" x="740.76" y="-128" font-family="Helvetica,sans-Serif" font-size="10.00">ExampleViewModel.WordResult</text>
<text text-anchor="middle" x="812" y="-118" font-family="Helvetica,sans-Serif" font-size="10.00">Context</text>
<polyline fill="none" stroke="black" points="732.76,-112 891.24,-112 "/>
<text text-anchor="start" x="740.76" y="-100" font-family="Helvetica,sans-Serif" font-size="10.00">+ allWords</text>
<text text-anchor="start" x="740.76" y="-90" font-family="Helvetica,sans-Serif" font-size="10.00">+ hasValue</text>
<text text-anchor="start" x="740.76" y="-80" font-family="Helvetica,sans-Serif" font-size="10.00">+ input</text>
<text text-anchor="start" x="740.76" y="-70" font-family="Helvetica,sans-Serif" font-size="10.00">+ isValid</text>
<text text-anchor="start" x="740.76" y="-60" font-family="Helvetica,sans-Serif" font-size="10.00">+ score</text>
<polyline fill="none" stroke="black" points="732.76,-54 891.24,-54 "/>
<text text-anchor="middle" x="812" y="-42" font-family="Helvetica,sans-Serif" font-size="10.00"> </text>
</a>
</g>
</g>
<!-- Node1&#45;&gt;Node6 -->
<g id="edge5" class="edge"><title>Node1&#45;&gt;Node6</title>
<path fill="none" stroke="midnightblue" d="M534.381,-231.483C590.713,-223.691 664.609,-207.9 723,-176 739.687,-166.884 755.418,-153.755 768.879,-140.449"/>
<polygon fill="none" stroke="midnightblue" points="533.884,-228.018 524.431,-232.802 534.804,-234.957 533.884,-228.018"/>
</g>
</g>
</svg>
