<?xml version="1.0" encoding="UTF-8" standalone="no"?>
<!DOCTYPE svg PUBLIC "-//W3C//DTD SVG 1.1//EN"
 "http://www.w3.org/Graphics/SVG/1.1/DTD/svg11.dtd">
<!-- Generated by graphviz version 2.36.0 (20140111.2315)
 -->
<!-- Title: ExampleViewModel.LanguagesContext Pages: 1 -->
<svg width="162pt" height="206pt"
 viewBox="0.00 0.00 162.00 206.00" xmlns="http://www.w3.org/2000/svg" xmlns:xlink="http://www.w3.org/1999/xlink">
<g id="graph0" class="graph" transform="scale(1 1) rotate(0) translate(4 202)">
<title>ExampleViewModel.LanguagesContext</title>
<!-- Node1 -->
<g id="node1" class="node"><title>Node1</title>
<polygon fill="#bfbfbf" stroke="black" points="-0.956055,-1 -0.956055,-105 154.956,-105 154.956,-1 -0.956055,-1"/>
<text text-anchor="start" x="7.04395" y="-93" font-family="Helvetica,sans-Serif" font-size="10.00">ExampleViewModel.Languages</text>
<text text-anchor="middle" x="77" y="-83" font-family="Helvetica,sans-Serif" font-size="10.00">Context</text>
<polyline fill="none" stroke="black" points="-0.956055,-77 154.956,-77 "/>
<text text-anchor="start" x="7.04395" y="-65" font-family="Helvetica,sans-Serif" font-size="10.00">+ currentLanguage</text>
<text text-anchor="start" x="7.04395" y="-55" font-family="Helvetica,sans-Serif" font-size="10.00">+ currentLanguageIsLoaded</text>
<text text-anchor="start" x="7.04395" y="-45" font-family="Helvetica,sans-Serif" font-size="10.00">+ currentLetters</text>
<text text-anchor="start" x="7.04395" y="-35" font-family="Helvetica,sans-Serif" font-size="10.00">+ languageLoadProgress</text>
<text text-anchor="start" x="7.04395" y="-25" font-family="Helvetica,sans-Serif" font-size="10.00">+ languageNames</text>
<polyline fill="none" stroke="black" points="-0.956055,-19 154.956,-19 "/>
<text text-anchor="start" x="7.04395" y="-7" font-family="Helvetica,sans-Serif" font-size="10.00">+ ChangeLanguage()</text>
</g>
<!-- Node2 -->
<g id="node2" class="node"><title>Node2</title>
<g id="a_node2"><a xlink:href="class_thinksquirrel_1_1_word_game_builder_example_1_1_example_view_model_1_1_ui_context.html" target="_top" xlink:title="Represents a base class for all user interface contexts. ">
<polygon fill="none" stroke="black" points="47.0469,-143 47.0469,-197 106.953,-197 106.953,-143 47.0469,-143"/>
<text text-anchor="middle" x="77" y="-185" font-family="Helvetica,sans-Serif" font-size="10.00">UiContext</text>
<polyline fill="none" stroke="black" points="47.0469,-179 106.953,-179 "/>
<text text-anchor="middle" x="77" y="-167" font-family="Helvetica,sans-Serif" font-size="10.00"> </text>
<polyline fill="none" stroke="black" points="47.0469,-161 106.953,-161 "/>
<text text-anchor="middle" x="77" y="-149" font-family="Helvetica,sans-Serif" font-size="10.00"> </text>
</a>
</g>
</g>
<!-- Node2&#45;&gt;Node1 -->
<g id="edge1" class="edge"><title>Node2&#45;&gt;Node1</title>
<path fill="none" stroke="midnightblue" d="M77,-132.747C77,-124.06 77,-114.621 77,-105.393"/>
<polygon fill="none" stroke="midnightblue" points="73.5001,-132.905 77,-142.905 80.5001,-132.905 73.5001,-132.905"/>
</g>
</g>
</svg>
