<?xml version="1.0" encoding="UTF-8" standalone="no"?>
<!DOCTYPE svg PUBLIC "-//W3C//DTD SVG 1.1//EN"
 "http://www.w3.org/Graphics/SVG/1.1/DTD/svg11.dtd">
<!-- Generated by graphviz version 2.36.0 (20140111.2315)
 -->
<!-- Title: ExampleViewModel.GameContext Pages: 1 -->
<svg width="176pt" height="186pt"
 viewBox="0.00 0.00 176.00 186.00" xmlns="http://www.w3.org/2000/svg" xmlns:xlink="http://www.w3.org/1999/xlink">
<g id="graph0" class="graph" transform="scale(1 1) rotate(0) translate(4 182)">
<title>ExampleViewModel.GameContext</title>
<!-- Node1 -->
<g id="node1" class="node"><title>Node1</title>
<polygon fill="#bfbfbf" stroke="black" points="-0.0571289,-1 -0.0571289,-85 168.057,-85 168.057,-1 -0.0571289,-1"/>
<text text-anchor="middle" x="84" y="-73" font-family="Helvetica,sans-Serif" font-size="10.00">ExampleViewModel.GameContext</text>
<polyline fill="none" stroke="black" points="-0.0571289,-67 168.057,-67 "/>
<text text-anchor="start" x="7.94287" y="-55" font-family="Helvetica,sans-Serif" font-size="10.00">+ isInitialized</text>
<text text-anchor="start" x="7.94287" y="-45" font-family="Helvetica,sans-Serif" font-size="10.00">+ tilePoolExists</text>
<text text-anchor="start" x="7.94287" y="-35" font-family="Helvetica,sans-Serif" font-size="10.00">+ tilesRemaining</text>
<polyline fill="none" stroke="black" points="-0.0571289,-29 168.057,-29 "/>
<text text-anchor="start" x="7.94287" y="-17" font-family="Helvetica,sans-Serif" font-size="10.00">+ ResetTiles()</text>
<text text-anchor="start" x="7.94287" y="-7" font-family="Helvetica,sans-Serif" font-size="10.00">+ SelectWildcardLetter()</text>
</g>
<!-- Node2 -->
<g id="node2" class="node"><title>Node2</title>
<g id="a_node2"><a xlink:href="class_thinksquirrel_1_1_word_game_builder_example_1_1_example_view_model_1_1_ui_context.html" target="_top" xlink:title="Represents a base class for all user interface contexts. ">
<polygon fill="none" stroke="black" points="54.0469,-123 54.0469,-177 113.953,-177 113.953,-123 54.0469,-123"/>
<text text-anchor="middle" x="84" y="-165" font-family="Helvetica,sans-Serif" font-size="10.00">UiContext</text>
<polyline fill="none" stroke="black" points="54.0469,-159 113.953,-159 "/>
<text text-anchor="middle" x="84" y="-147" font-family="Helvetica,sans-Serif" font-size="10.00"> </text>
<polyline fill="none" stroke="black" points="54.0469,-141 113.953,-141 "/>
<text text-anchor="middle" x="84" y="-129" font-family="Helvetica,sans-Serif" font-size="10.00"> </text>
</a>
</g>
</g>
<!-- Node2&#45;&gt;Node1 -->
<g id="edge1" class="edge"><title>Node2&#45;&gt;Node1</title>
<path fill="none" stroke="midnightblue" d="M84,-112.503C84,-103.755 84,-94.3512 84,-85.3987"/>
<polygon fill="none" stroke="midnightblue" points="80.5001,-112.775 84,-122.775 87.5001,-112.775 80.5001,-112.775"/>
</g>
</g>
</svg>
