<?xml version="1.0" encoding="UTF-8" standalone="no"?>
<!DOCTYPE svg PUBLIC "-//W3C//DTD SVG 1.1//EN"
 "http://www.w3.org/Graphics/SVG/1.1/DTD/svg11.dtd">
<!-- Generated by graphviz version 2.36.0 (20140111.2315)
 -->
<!-- Title: WildcardTileManager Pages: 1 -->
<svg width="346pt" height="598pt"
 viewBox="0.00 0.00 346.00 598.00" xmlns="http://www.w3.org/2000/svg" xmlns:xlink="http://www.w3.org/1999/xlink">
<g id="graph0" class="graph" transform="scale(1 1) rotate(0) translate(4 594)">
<title>WildcardTileManager</title>
<!-- Node1 -->
<g id="node1" class="node"><title>Node1</title>
<polygon fill="#bfbfbf" stroke="black" points="130.911,-1 130.911,-55 249.089,-55 249.089,-1 130.911,-1"/>
<text text-anchor="middle" x="190" y="-43" font-family="Helvetica,sans-Serif" font-size="10.00">WildcardTileManager</text>
<polyline fill="none" stroke="black" points="130.911,-37 249.089,-37 "/>
<text text-anchor="start" x="138.911" y="-25" font-family="Helvetica,sans-Serif" font-size="10.00">+ onWildcardTileSelect</text>
<polyline fill="none" stroke="black" points="130.911,-19 249.089,-19 "/>
<text text-anchor="start" x="138.911" y="-7" font-family="Helvetica,sans-Serif" font-size="10.00">+ SelectWildcardTile()</text>
</g>
<!-- Node2 -->
<g id="node2" class="node"><title>Node2</title>
<g id="a_node2"><a xlink:href="class_thinksquirrel_1_1_word_game_builder_1_1_w_g_b_base.html" target="_top" xlink:title="The base class for all Word Game Builder components. ">
<polygon fill="none" stroke="black" points="-0.0541992,-93 -0.0541992,-317 202.054,-317 202.054,-93 -0.0541992,-93"/>
<text text-anchor="middle" x="101" y="-305" font-family="Helvetica,sans-Serif" font-size="10.00">WGBBase</text>
<polyline fill="none" stroke="black" points="-0.0541992,-299 202.054,-299 "/>
<text text-anchor="start" x="7.9458" y="-287" font-family="Helvetica,sans-Serif" font-size="10.00">+ userData</text>
<polyline fill="none" stroke="black" points="-0.0541992,-281 202.054,-281 "/>
<text text-anchor="start" x="7.9458" y="-269" font-family="Helvetica,sans-Serif" font-size="10.00">+ GetComponentFromInterface&lt; T &gt;()</text>
<text text-anchor="start" x="7.9458" y="-259" font-family="Helvetica,sans-Serif" font-size="10.00">+ GetComponentInChildrenFrom</text>
<text text-anchor="start" x="7.9458" y="-249" font-family="Helvetica,sans-Serif" font-size="10.00">Interface&lt; T &gt;()</text>
<text text-anchor="start" x="7.9458" y="-239" font-family="Helvetica,sans-Serif" font-size="10.00">+ GetComponentsFromInterface&lt; T &gt;()</text>
<text text-anchor="start" x="7.9458" y="-229" font-family="Helvetica,sans-Serif" font-size="10.00">+ GetComponentsInChildrenFrom</text>
<text text-anchor="start" x="7.9458" y="-219" font-family="Helvetica,sans-Serif" font-size="10.00">Interface&lt; T &gt;()</text>
<text text-anchor="start" x="7.9458" y="-209" font-family="Helvetica,sans-Serif" font-size="10.00">+ FindObjectOfTypeFromInterface&lt; T &gt;()</text>
<text text-anchor="start" x="7.9458" y="-199" font-family="Helvetica,sans-Serif" font-size="10.00">+ FindObjectsOfTypeFromInterface&lt; T &gt;()</text>
<text text-anchor="start" x="7.9458" y="-189" font-family="Helvetica,sans-Serif" font-size="10.00">+ InstantiateFromInterface&lt; T &gt;()</text>
<text text-anchor="start" x="7.9458" y="-179" font-family="Helvetica,sans-Serif" font-size="10.00">+ InstantiateFromInterface&lt; T &gt;()</text>
<text text-anchor="start" x="7.9458" y="-169" font-family="Helvetica,sans-Serif" font-size="10.00">+ Log()</text>
<text text-anchor="start" x="7.9458" y="-159" font-family="Helvetica,sans-Serif" font-size="10.00">+ Log()</text>
<text text-anchor="start" x="7.9458" y="-149" font-family="Helvetica,sans-Serif" font-size="10.00">+ LogError()</text>
<text text-anchor="start" x="7.9458" y="-139" font-family="Helvetica,sans-Serif" font-size="10.00">+ LogError()</text>
<text text-anchor="start" x="7.9458" y="-129" font-family="Helvetica,sans-Serif" font-size="10.00">+ LogException()</text>
<text text-anchor="start" x="7.9458" y="-119" font-family="Helvetica,sans-Serif" font-size="10.00">+ LogException()</text>
<text text-anchor="start" x="7.9458" y="-109" font-family="Helvetica,sans-Serif" font-size="10.00">+ LogWarning()</text>
<text text-anchor="start" x="7.9458" y="-99" font-family="Helvetica,sans-Serif" font-size="10.00">+ LogWarning()</text>
</a>
</g>
</g>
<!-- Node2&#45;&gt;Node1 -->
<g id="edge1" class="edge"><title>Node2&#45;&gt;Node1</title>
<path fill="none" stroke="midnightblue" d="M162.18,-83.7017C167.518,-73.2071 172.48,-63.4485 176.693,-55.1653"/>
<polygon fill="none" stroke="midnightblue" points="159.031,-82.1739 157.617,-92.6741 165.27,-85.3472 159.031,-82.1739"/>
</g>
<!-- Node3 -->
<g id="node3" class="node"><title>Node3</title>
<polygon fill="none" stroke="#bfbfbf" points="57.978,-445 57.978,-499 144.022,-499 144.022,-445 57.978,-445"/>
<text text-anchor="middle" x="101" y="-487" font-family="Helvetica,sans-Serif" font-size="10.00">MonoBehaviour</text>
<polyline fill="none" stroke="#bfbfbf" points="57.978,-481 144.022,-481 "/>
<text text-anchor="middle" x="101" y="-469" font-family="Helvetica,sans-Serif" font-size="10.00"> </text>
<polyline fill="none" stroke="#bfbfbf" points="57.978,-463 144.022,-463 "/>
<text text-anchor="middle" x="101" y="-451" font-family="Helvetica,sans-Serif" font-size="10.00"> </text>
</g>
<!-- Node3&#45;&gt;Node2 -->
<g id="edge2" class="edge"><title>Node3&#45;&gt;Node2</title>
<path fill="none" stroke="midnightblue" d="M101,-434.514C101,-404.144 101,-359.239 101,-317.256"/>
<polygon fill="none" stroke="midnightblue" points="97.5001,-434.622 101,-444.622 104.5,-434.622 97.5001,-434.622"/>
</g>
<!-- Node4 -->
<g id="node4" class="node"><title>Node4</title>
<g id="a_node4"><a xlink:href="interface_thinksquirrel_1_1_word_game_builder_1_1_object_model_1_1_i_wildcard_tile_manager.html" target="_top" xlink:title="An interface defining a manager for selecting wildcard tiles. Implementations must derive from MonoBe...">
<polygon fill="none" stroke="black" points="219.911,-178 219.911,-232 338.089,-232 338.089,-178 219.911,-178"/>
<text text-anchor="middle" x="279" y="-220" font-family="Helvetica,sans-Serif" font-size="10.00">IWildcardTileManager</text>
<polyline fill="none" stroke="black" points="219.911,-214 338.089,-214 "/>
<text text-anchor="start" x="227.911" y="-202" font-family="Helvetica,sans-Serif" font-size="10.00">+ onWildcardTileSelect</text>
<polyline fill="none" stroke="black" points="219.911,-196 338.089,-196 "/>
<text text-anchor="start" x="227.911" y="-184" font-family="Helvetica,sans-Serif" font-size="10.00">+ SelectWildcardTile()</text>
</a>
</g>
</g>
<!-- Node4&#45;&gt;Node1 -->
<g id="edge3" class="edge"><title>Node4&#45;&gt;Node1</title>
<path fill="none" stroke="midnightblue" d="M261.088,-168.78C243.991,-135.162 218.627,-85.2888 203.27,-55.0922"/>
<polygon fill="none" stroke="midnightblue" points="258.023,-170.474 265.676,-177.801 264.262,-167.301 258.023,-170.474"/>
</g>
<!-- Node5 -->
<g id="node5" class="node"><title>Node5</title>
<g id="a_node5"><a xlink:href="interface_thinksquirrel_1_1_word_game_builder_1_1_object_model_1_1_i_mono_behaviour.html" target="_top" xlink:title="An interface representation of a MonoBehaviour. ">
<polygon fill="none" stroke="black" points="223.339,-355 223.339,-589 334.661,-589 334.661,-355 223.339,-355"/>
<text text-anchor="middle" x="279" y="-577" font-family="Helvetica,sans-Serif" font-size="10.00">IMonoBehaviour</text>
<polyline fill="none" stroke="black" points="223.339,-571 334.661,-571 "/>
<text text-anchor="start" x="231.339" y="-559" font-family="Helvetica,sans-Serif" font-size="10.00">+ enabled</text>
<text text-anchor="start" x="231.339" y="-549" font-family="Helvetica,sans-Serif" font-size="10.00">+ gameObject</text>
<text text-anchor="start" x="231.339" y="-539" font-family="Helvetica,sans-Serif" font-size="10.00">+ hideFlags</text>
<text text-anchor="start" x="231.339" y="-529" font-family="Helvetica,sans-Serif" font-size="10.00">+ name</text>
<text text-anchor="start" x="231.339" y="-519" font-family="Helvetica,sans-Serif" font-size="10.00">+ tag</text>
<text text-anchor="start" x="231.339" y="-509" font-family="Helvetica,sans-Serif" font-size="10.00">+ transform</text>
<text text-anchor="start" x="231.339" y="-499" font-family="Helvetica,sans-Serif" font-size="10.00">+ userData</text>
<polyline fill="none" stroke="black" points="223.339,-493 334.661,-493 "/>
<text text-anchor="start" x="231.339" y="-481" font-family="Helvetica,sans-Serif" font-size="10.00">+ CancelInvoke()</text>
<text text-anchor="start" x="231.339" y="-471" font-family="Helvetica,sans-Serif" font-size="10.00">+ CancelInvoke()</text>
<text text-anchor="start" x="231.339" y="-461" font-family="Helvetica,sans-Serif" font-size="10.00">+ GetInstanceID()</text>
<text text-anchor="start" x="231.339" y="-451" font-family="Helvetica,sans-Serif" font-size="10.00">+ Invoke()</text>
<text text-anchor="start" x="231.339" y="-441" font-family="Helvetica,sans-Serif" font-size="10.00">+ InvokeRepeating()</text>
<text text-anchor="start" x="231.339" y="-431" font-family="Helvetica,sans-Serif" font-size="10.00">+ IsInvoking()</text>
<text text-anchor="start" x="231.339" y="-421" font-family="Helvetica,sans-Serif" font-size="10.00">+ IsInvoking()</text>
<text text-anchor="start" x="231.339" y="-411" font-family="Helvetica,sans-Serif" font-size="10.00">+ StartCoroutine()</text>
<text text-anchor="start" x="231.339" y="-401" font-family="Helvetica,sans-Serif" font-size="10.00">+ StartCoroutine()</text>
<text text-anchor="start" x="231.339" y="-391" font-family="Helvetica,sans-Serif" font-size="10.00">+ StartCoroutine()</text>
<text text-anchor="start" x="231.339" y="-381" font-family="Helvetica,sans-Serif" font-size="10.00">+ StopAllCoroutines()</text>
<text text-anchor="start" x="231.339" y="-371" font-family="Helvetica,sans-Serif" font-size="10.00">+ StopCoroutine()</text>
<text text-anchor="start" x="231.339" y="-361" font-family="Helvetica,sans-Serif" font-size="10.00">+ ToString()</text>
</a>
</g>
</g>
<!-- Node5&#45;&gt;Node4 -->
<g id="edge4" class="edge"><title>Node5&#45;&gt;Node4</title>
<path fill="none" stroke="midnightblue" d="M279,-344.577C279,-302.102 279,-258.793 279,-232.157"/>
<polygon fill="none" stroke="midnightblue" points="275.5,-344.767 279,-354.767 282.5,-344.767 275.5,-344.767"/>
</g>
</g>
</svg>
