<?xml version="1.0" encoding="UTF-8" standalone="no"?>
<!DOCTYPE svg PUBLIC "-//W3C//DTD SVG 1.1//EN"
 "http://www.w3.org/Graphics/SVG/1.1/DTD/svg11.dtd">
<!-- Generated by graphviz version 2.36.0 (20140111.2315)
 -->
<!-- Title: AsyncTask Pages: 1 -->
<svg width="136pt" height="246pt"
 viewBox="0.00 0.00 136.00 246.00" xmlns="http://www.w3.org/2000/svg" xmlns:xlink="http://www.w3.org/1999/xlink">
<g id="graph0" class="graph" transform="scale(1 1) rotate(0) translate(4 242)">
<title>AsyncTask</title>
<!-- Node1 -->
<g id="node1" class="node"><title>Node1</title>
<polygon fill="#bfbfbf" stroke="black" points="-0.0913086,-1 -0.0913086,-145 128.091,-145 128.091,-1 -0.0913086,-1"/>
<text text-anchor="middle" x="64" y="-133" font-family="Helvetica,sans-Serif" font-size="10.00">AsyncTask</text>
<polyline fill="none" stroke="black" points="-0.0913086,-127 128.091,-127 "/>
<text text-anchor="start" x="7.90869" y="-115" font-family="Helvetica,sans-Serif" font-size="10.00">+ hasEnded</text>
<text text-anchor="start" x="7.90869" y="-105" font-family="Helvetica,sans-Serif" font-size="10.00">+ isFailed</text>
<text text-anchor="start" x="7.90869" y="-95" font-family="Helvetica,sans-Serif" font-size="10.00">+ isSucceeded</text>
<text text-anchor="start" x="7.90869" y="-85" font-family="Helvetica,sans-Serif" font-size="10.00">+ shouldAbort</text>
<polyline fill="none" stroke="black" points="-0.0913086,-79 128.091,-79 "/>
<text text-anchor="start" x="7.90869" y="-67" font-family="Helvetica,sans-Serif" font-size="10.00">+ Abort()</text>
<text text-anchor="start" x="7.90869" y="-57" font-family="Helvetica,sans-Serif" font-size="10.00">+ AbortWait()</text>
<text text-anchor="start" x="7.90869" y="-47" font-family="Helvetica,sans-Serif" font-size="10.00">+ AbortWaitForSeconds()</text>
<text text-anchor="start" x="7.90869" y="-37" font-family="Helvetica,sans-Serif" font-size="10.00">+ Dispose()</text>
<text text-anchor="start" x="7.90869" y="-27" font-family="Helvetica,sans-Serif" font-size="10.00">+ SetReusable()</text>
<text text-anchor="start" x="7.90869" y="-17" font-family="Helvetica,sans-Serif" font-size="10.00">+ Wait()</text>
<text text-anchor="start" x="7.90869" y="-7" font-family="Helvetica,sans-Serif" font-size="10.00">+ WaitForSeconds()</text>
</g>
<!-- Node2 -->
<g id="node2" class="node"><title>Node2</title>
<polygon fill="none" stroke="#bfbfbf" points="29.8745,-183 29.8745,-237 98.1255,-237 98.1255,-183 29.8745,-183"/>
<text text-anchor="middle" x="64" y="-225" font-family="Helvetica,sans-Serif" font-size="10.00">IDisposable</text>
<polyline fill="none" stroke="#bfbfbf" points="29.8745,-219 98.1255,-219 "/>
<text text-anchor="middle" x="64" y="-207" font-family="Helvetica,sans-Serif" font-size="10.00"> </text>
<polyline fill="none" stroke="#bfbfbf" points="29.8745,-201 98.1255,-201 "/>
<text text-anchor="middle" x="64" y="-189" font-family="Helvetica,sans-Serif" font-size="10.00"> </text>
</g>
<!-- Node2&#45;&gt;Node1 -->
<g id="edge1" class="edge"><title>Node2&#45;&gt;Node1</title>
<path fill="none" stroke="midnightblue" d="M64,-172.925C64,-164.287 64,-154.765 64,-145.145"/>
<polygon fill="none" stroke="midnightblue" points="60.5001,-172.971 64,-182.971 67.5001,-172.971 60.5001,-172.971"/>
</g>
</g>
</svg>
