<?xml version="1.0" encoding="UTF-8" standalone="no"?>
<!DOCTYPE svg PUBLIC "-//W3C//DTD SVG 1.1//EN"
 "http://www.w3.org/Graphics/SVG/1.1/DTD/svg11.dtd">
<!-- Generated by graphviz version 2.36.0 (20140111.2315)
 -->
<!-- Title: LetterTileLabelControl Pages: 1 -->
<svg width="210pt" height="428pt"
 viewBox="0.00 0.00 210.00 428.00" xmlns="http://www.w3.org/2000/svg" xmlns:xlink="http://www.w3.org/1999/xlink">
<g id="graph0" class="graph" transform="scale(1 1) rotate(0) translate(4 424)">
<title>LetterTileLabelControl</title>
<!-- Node1 -->
<g id="node1" class="node"><title>Node1</title>
<polygon fill="#bfbfbf" stroke="black" points="43.9888,-1 43.9888,-65 158.011,-65 158.011,-1 43.9888,-1"/>
<text text-anchor="middle" x="101" y="-53" font-family="Helvetica,sans-Serif" font-size="10.00">LetterTileLabelControl</text>
<polyline fill="none" stroke="black" points="43.9888,-47 158.011,-47 "/>
<text text-anchor="start" x="51.9888" y="-35" font-family="Helvetica,sans-Serif" font-size="10.00">+ letterLabel</text>
<text text-anchor="start" x="51.9888" y="-25" font-family="Helvetica,sans-Serif" font-size="10.00">+ scoreLabel</text>
<polyline fill="none" stroke="black" points="43.9888,-19 158.011,-19 "/>
<text text-anchor="middle" x="101" y="-7" font-family="Helvetica,sans-Serif" font-size="10.00"> </text>
</g>
<!-- Node2 -->
<g id="node2" class="node"><title>Node2</title>
<g id="a_node2"><a xlink:href="class_thinksquirrel_1_1_word_game_builder_1_1_w_g_b_base.html" target="_top" xlink:title="The base class for all Word Game Builder components. ">
<polygon fill="none" stroke="black" points="-0.0541992,-103 -0.0541992,-327 202.054,-327 202.054,-103 -0.0541992,-103"/>
<text text-anchor="middle" x="101" y="-315" font-family="Helvetica,sans-Serif" font-size="10.00">WGBBase</text>
<polyline fill="none" stroke="black" points="-0.0541992,-309 202.054,-309 "/>
<text text-anchor="start" x="7.9458" y="-297" font-family="Helvetica,sans-Serif" font-size="10.00">+ userData</text>
<polyline fill="none" stroke="black" points="-0.0541992,-291 202.054,-291 "/>
<text text-anchor="start" x="7.9458" y="-279" font-family="Helvetica,sans-Serif" font-size="10.00">+ GetComponentFromInterface&lt; T &gt;()</text>
<text text-anchor="start" x="7.9458" y="-269" font-family="Helvetica,sans-Serif" font-size="10.00">+ GetComponentInChildrenFrom</text>
<text text-anchor="start" x="7.9458" y="-259" font-family="Helvetica,sans-Serif" font-size="10.00">Interface&lt; T &gt;()</text>
<text text-anchor="start" x="7.9458" y="-249" font-family="Helvetica,sans-Serif" font-size="10.00">+ GetComponentsFromInterface&lt; T &gt;()</text>
<text text-anchor="start" x="7.9458" y="-239" font-family="Helvetica,sans-Serif" font-size="10.00">+ GetComponentsInChildrenFrom</text>
<text text-anchor="start" x="7.9458" y="-229" font-family="Helvetica,sans-Serif" font-size="10.00">Interface&lt; T &gt;()</text>
<text text-anchor="start" x="7.9458" y="-219" font-family="Helvetica,sans-Serif" font-size="10.00">+ FindObjectOfTypeFromInterface&lt; T &gt;()</text>
<text text-anchor="start" x="7.9458" y="-209" font-family="Helvetica,sans-Serif" font-size="10.00">+ FindObjectsOfTypeFromInterface&lt; T &gt;()</text>
<text text-anchor="start" x="7.9458" y="-199" font-family="Helvetica,sans-Serif" font-size="10.00">+ InstantiateFromInterface&lt; T &gt;()</text>
<text text-anchor="start" x="7.9458" y="-189" font-family="Helvetica,sans-Serif" font-size="10.00">+ InstantiateFromInterface&lt; T &gt;()</text>
<text text-anchor="start" x="7.9458" y="-179" font-family="Helvetica,sans-Serif" font-size="10.00">+ Log()</text>
<text text-anchor="start" x="7.9458" y="-169" font-family="Helvetica,sans-Serif" font-size="10.00">+ Log()</text>
<text text-anchor="start" x="7.9458" y="-159" font-family="Helvetica,sans-Serif" font-size="10.00">+ LogError()</text>
<text text-anchor="start" x="7.9458" y="-149" font-family="Helvetica,sans-Serif" font-size="10.00">+ LogError()</text>
<text text-anchor="start" x="7.9458" y="-139" font-family="Helvetica,sans-Serif" font-size="10.00">+ LogException()</text>
<text text-anchor="start" x="7.9458" y="-129" font-family="Helvetica,sans-Serif" font-size="10.00">+ LogException()</text>
<text text-anchor="start" x="7.9458" y="-119" font-family="Helvetica,sans-Serif" font-size="10.00">+ LogWarning()</text>
<text text-anchor="start" x="7.9458" y="-109" font-family="Helvetica,sans-Serif" font-size="10.00">+ LogWarning()</text>
</a>
</g>
</g>
<!-- Node2&#45;&gt;Node1 -->
<g id="edge1" class="edge"><title>Node2&#45;&gt;Node1</title>
<path fill="none" stroke="midnightblue" d="M101,-92.6933C101,-82.739 101,-73.3684 101,-65.1601"/>
<polygon fill="none" stroke="midnightblue" points="97.5001,-92.8207 101,-102.821 104.5,-92.8208 97.5001,-92.8207"/>
</g>
<!-- Node3 -->
<g id="node3" class="node"><title>Node3</title>
<polygon fill="none" stroke="#bfbfbf" points="57.978,-365 57.978,-419 144.022,-419 144.022,-365 57.978,-365"/>
<text text-anchor="middle" x="101" y="-407" font-family="Helvetica,sans-Serif" font-size="10.00">MonoBehaviour</text>
<polyline fill="none" stroke="#bfbfbf" points="57.978,-401 144.022,-401 "/>
<text text-anchor="middle" x="101" y="-389" font-family="Helvetica,sans-Serif" font-size="10.00"> </text>
<polyline fill="none" stroke="#bfbfbf" points="57.978,-383 144.022,-383 "/>
<text text-anchor="middle" x="101" y="-371" font-family="Helvetica,sans-Serif" font-size="10.00"> </text>
</g>
<!-- Node3&#45;&gt;Node2 -->
<g id="edge2" class="edge"><title>Node3&#45;&gt;Node2</title>
<path fill="none" stroke="midnightblue" d="M101,-354.684C101,-346.251 101,-336.84 101,-327.001"/>
<polygon fill="none" stroke="midnightblue" points="97.5001,-354.801 101,-364.801 104.5,-354.801 97.5001,-354.801"/>
</g>
</g>
</svg>
