<?xml version="1.0" encoding="UTF-8" standalone="no"?>
<!DOCTYPE svg PUBLIC "-//W3C//DTD SVG 1.1//EN"
 "http://www.w3.org/Graphics/SVG/1.1/DTD/svg11.dtd">
<!-- Generated by graphviz version 2.36.0 (20140111.2315)
 -->
<!-- Title: Tweener&lt; T &gt; Pages: 1 -->
<svg width="88pt" height="316pt"
 viewBox="0.00 0.00 88.00 316.00" xmlns="http://www.w3.org/2000/svg" xmlns:xlink="http://www.w3.org/1999/xlink">
<g id="graph0" class="graph" transform="scale(1 1) rotate(0) translate(4 312)">
<title>Tweener&lt; T &gt;</title>
<!-- Node1 -->
<g id="node1" class="node"><title>Node1</title>
<polygon fill="#bfbfbf" stroke="black" points="-0.290039,-1 -0.290039,-215 80.29,-215 80.29,-1 -0.290039,-1"/>
<text text-anchor="middle" x="40" y="-203" font-family="Helvetica,sans-Serif" font-size="10.00">Tweener&lt; T &gt;</text>
<polyline fill="none" stroke="black" points="-0.290039,-197 80.29,-197 "/>
<text text-anchor="start" x="7.70996" y="-185" font-family="Helvetica,sans-Serif" font-size="10.00">+ currentValue</text>
<text text-anchor="start" x="7.70996" y="-175" font-family="Helvetica,sans-Serif" font-size="10.00">+ delay</text>
<text text-anchor="start" x="7.70996" y="-165" font-family="Helvetica,sans-Serif" font-size="10.00">+ duration</text>
<text text-anchor="start" x="7.70996" y="-155" font-family="Helvetica,sans-Serif" font-size="10.00">+ easing</text>
<text text-anchor="start" x="7.70996" y="-145" font-family="Helvetica,sans-Serif" font-size="10.00">+ end</text>
<text text-anchor="start" x="7.70996" y="-135" font-family="Helvetica,sans-Serif" font-size="10.00">+ hasEnded</text>
<text text-anchor="start" x="7.70996" y="-125" font-family="Helvetica,sans-Serif" font-size="10.00">+ hasStarted</text>
<text text-anchor="start" x="7.70996" y="-115" font-family="Helvetica,sans-Serif" font-size="10.00">+ isDisposed</text>
<text text-anchor="start" x="7.70996" y="-105" font-family="Helvetica,sans-Serif" font-size="10.00">+ isEnabled</text>
<text text-anchor="start" x="7.70996" y="-95" font-family="Helvetica,sans-Serif" font-size="10.00">+ onTween</text>
<text text-anchor="start" x="7.70996" y="-85" font-family="Helvetica,sans-Serif" font-size="10.00">+ start</text>
<text text-anchor="start" x="7.70996" y="-75" font-family="Helvetica,sans-Serif" font-size="10.00">+ startTime</text>
<polyline fill="none" stroke="black" points="-0.290039,-69 80.29,-69 "/>
<text text-anchor="start" x="7.70996" y="-57" font-family="Helvetica,sans-Serif" font-size="10.00">+ Tweener()</text>
<text text-anchor="start" x="7.70996" y="-47" font-family="Helvetica,sans-Serif" font-size="10.00">+ Dispose()</text>
<text text-anchor="start" x="7.70996" y="-37" font-family="Helvetica,sans-Serif" font-size="10.00">+ Start()</text>
<text text-anchor="start" x="7.70996" y="-27" font-family="Helvetica,sans-Serif" font-size="10.00">+ Start()</text>
<text text-anchor="start" x="7.70996" y="-17" font-family="Helvetica,sans-Serif" font-size="10.00">+ Start()</text>
<text text-anchor="start" x="7.70996" y="-7" font-family="Helvetica,sans-Serif" font-size="10.00">+ Stop()</text>
</g>
<!-- Node2 -->
<g id="node2" class="node"><title>Node2</title>
<polygon fill="none" stroke="#bfbfbf" points="5.87451,-253 5.87451,-307 74.1255,-307 74.1255,-253 5.87451,-253"/>
<text text-anchor="middle" x="40" y="-295" font-family="Helvetica,sans-Serif" font-size="10.00">IDisposable</text>
<polyline fill="none" stroke="#bfbfbf" points="5.87451,-289 74.1255,-289 "/>
<text text-anchor="middle" x="40" y="-277" font-family="Helvetica,sans-Serif" font-size="10.00"> </text>
<polyline fill="none" stroke="#bfbfbf" points="5.87451,-271 74.1255,-271 "/>
<text text-anchor="middle" x="40" y="-259" font-family="Helvetica,sans-Serif" font-size="10.00"> </text>
</g>
<!-- Node2&#45;&gt;Node1 -->
<g id="edge1" class="edge"><title>Node2&#45;&gt;Node1</title>
<path fill="none" stroke="midnightblue" d="M40,-242.761C40,-234.391 40,-225.069 40,-215.349"/>
<polygon fill="none" stroke="midnightblue" points="36.5001,-242.81 40,-252.81 43.5001,-242.81 36.5001,-242.81"/>
</g>
</g>
</svg>
