<?xml version="1.0" encoding="UTF-8" standalone="no"?>
<!DOCTYPE svg PUBLIC "-//W3C//DTD SVG 1.1//EN"
 "http://www.w3.org/Graphics/SVG/1.1/DTD/svg11.dtd">
<!-- Generated by graphviz version 2.36.0 (20140111.2315)
 -->
<!-- Title: Graphical Class Hierarchy Pages: 1 -->
<svg width="526pt" height="731pt"
 viewBox="0.00 0.00 526.00 731.00" xmlns="http://www.w3.org/2000/svg" xmlns:xlink="http://www.w3.org/1999/xlink">
<g id="graph0" class="graph" transform="scale(1 1) rotate(0) translate(4 727)">
<title>Graphical Class Hierarchy</title>
<!-- Node1 -->
<g id="node1" class="node"><title>Node1</title>
<polygon fill="none" stroke="#bfbfbf" points="1.97803,-261 1.97803,-279 88.022,-279 88.022,-261 1.97803,-261"/>
<text text-anchor="middle" x="45" y="-267" font-family="Helvetica,sans-Serif" font-size="10.00">MonoBehaviour</text>
</g>
<!-- Node2 -->
<g id="node2" class="node"><title>Node2</title>
<g id="a_node2"><a xlink:href="class_thinksquirrel_1_1_word_game_builder_1_1_w_g_b_base.html" target="_top" xlink:title="The base class for all Word Game Builder components. ">
<polygon fill="none" stroke="black" points="151.66,-298 151.66,-316 214.34,-316 214.34,-298 151.66,-298"/>
<text text-anchor="middle" x="183" y="-304" font-family="Helvetica,sans-Serif" font-size="10.00">WGBBase</text>
</a>
</g>
</g>
<!-- Node1&#45;&gt;Node2 -->
<g id="edge1" class="edge"><title>Node1&#45;&gt;Node2</title>
<path fill="none" stroke="midnightblue" d="M89.1908,-281.75C109.422,-287.254 133.048,-293.682 151.399,-298.675"/>
<polygon fill="midnightblue" stroke="midnightblue" points="89.8375,-278.299 79.2693,-279.051 87.9998,-285.054 89.8375,-278.299"/>
</g>
<!-- Node20 -->
<g id="node20" class="node"><title>Node20</title>
<g id="a_node20"><a xlink:href="class_thinksquirrel_1_1_word_game_builder_example_1_1_example_view.html" target="_top" xlink:title="This class is responsible for rendering the UI. ">
<polygon fill="none" stroke="black" points="144.797,-261 144.797,-279 221.203,-279 221.203,-261 144.797,-261"/>
<text text-anchor="middle" x="183" y="-267" font-family="Helvetica,sans-Serif" font-size="10.00">ExampleView</text>
</a>
</g>
</g>
<!-- Node1&#45;&gt;Node20 -->
<g id="edge19" class="edge"><title>Node1&#45;&gt;Node20</title>
<path fill="none" stroke="midnightblue" d="M98.6285,-270C113.877,-270 130.215,-270 144.351,-270"/>
<polygon fill="midnightblue" stroke="midnightblue" points="98.2858,-266.5 88.2858,-270 98.2857,-273.5 98.2858,-266.5"/>
</g>
<!-- Node21 -->
<g id="node21" class="node"><title>Node21</title>
<g id="a_node21"><a xlink:href="class_thinksquirrel_1_1_word_game_builder_example_1_1_example_view_model.html" target="_top" xlink:title="This class is responsible for sending and receiving data between the game and the UI...">
<polygon fill="none" stroke="black" points="131.179,-224 131.179,-242 234.821,-242 234.821,-224 131.179,-224"/>
<text text-anchor="middle" x="183" y="-230" font-family="Helvetica,sans-Serif" font-size="10.00">ExampleViewModel</text>
</a>
</g>
</g>
<!-- Node1&#45;&gt;Node21 -->
<g id="edge20" class="edge"><title>Node1&#45;&gt;Node21</title>
<path fill="none" stroke="midnightblue" d="M89.0167,-258.297C108.274,-253.058 130.635,-246.974 148.603,-242.086"/>
<polygon fill="midnightblue" stroke="midnightblue" points="87.9998,-254.946 79.2693,-260.949 89.8375,-261.701 87.9998,-254.946"/>
</g>
<!-- Node3 -->
<g id="node3" class="node"><title>Node3</title>
<g id="a_node3"><a xlink:href="class_thinksquirrel_1_1_word_game_builder_1_1_gameplay_1_1_tile_pool.html" target="_top" xlink:title="A class that manages an instance pool of letter tiles. ">
<polygon fill="none" stroke="black" points="324.119,-557 324.119,-575 375.881,-575 375.881,-557 324.119,-557"/>
<text text-anchor="middle" x="350" y="-563" font-family="Helvetica,sans-Serif" font-size="10.00">TilePool</text>
</a>
</g>
</g>
<!-- Node2&#45;&gt;Node3 -->
<g id="edge2" class="edge"><title>Node2&#45;&gt;Node3</title>
<path fill="none" stroke="midnightblue" d="M190.145,-325.926C207.802,-379.845 258.535,-531.38 276,-547 289.08,-558.698 308.468,-563.356 323.977,-565.138"/>
<polygon fill="midnightblue" stroke="midnightblue" points="193.417,-324.67 186.988,-316.249 186.762,-326.841 193.417,-324.67"/>
</g>
<!-- Node4 -->
<g id="node4" class="node"><title>Node4</title>
<g id="a_node4"><a xlink:href="class_thinksquirrel_1_1_word_game_builder_1_1_gameplay_1_1_wildcard_tile_manager.html" target="_top" xlink:title="A manager class for selecting wildcard tiles. ">
<polygon fill="none" stroke="black" points="294.944,-520 294.944,-538 405.056,-538 405.056,-520 294.944,-520"/>
<text text-anchor="middle" x="350" y="-526" font-family="Helvetica,sans-Serif" font-size="10.00">WildcardTileManager</text>
</a>
</g>
</g>
<!-- Node2&#45;&gt;Node4 -->
<g id="edge3" class="edge"><title>Node2&#45;&gt;Node4</title>
<path fill="none" stroke="midnightblue" d="M187.067,-326.283C194.543,-366.738 217.567,-460.787 276,-510 281.509,-514.64 288.021,-518.163 294.849,-520.835"/>
<polygon fill="midnightblue" stroke="midnightblue" points="190.507,-325.634 185.354,-316.376 183.609,-326.826 190.507,-325.634"/>
</g>
<!-- Node5 -->
<g id="node5" class="node"><title>Node5</title>
<g id="a_node5"><a xlink:href="class_thinksquirrel_1_1_word_game_builder_1_1_gameplay_1_1_word_game_agent.html" target="_top" xlink:title="Represents a word game AI agent. The agent is multithreaded and supports automatic selection/submissi...">
<polygon fill="none" stroke="black" points="303.46,-483 303.46,-501 396.54,-501 396.54,-483 303.46,-483"/>
<text text-anchor="middle" x="350" y="-489" font-family="Helvetica,sans-Serif" font-size="10.00">WordGameAgent</text>
</a>
</g>
</g>
<!-- Node2&#45;&gt;Node5 -->
<g id="edge4" class="edge"><title>Node2&#45;&gt;Node5</title>
<path fill="none" stroke="midnightblue" d="M189.115,-326.049C199.451,-360.781 226.193,-434.371 276,-473 283.865,-479.1 293.494,-483.252 303.146,-486.076"/>
<polygon fill="midnightblue" stroke="midnightblue" points="192.426,-324.895 186.327,-316.232 185.692,-326.808 192.426,-324.895"/>
</g>
<!-- Node6 -->
<g id="node6" class="node"><title>Node6</title>
<g id="a_node6"><a xlink:href="class_thinksquirrel_1_1_word_game_builder_1_1_gameplay_1_1_word_game_player.html" target="_top" xlink:title="Represents a word game player. It tracks scores, holds tiles, and can be controlled by an AI agent...">
<polygon fill="none" stroke="black" points="302.354,-594 302.354,-612 397.646,-612 397.646,-594 302.354,-594"/>
<text text-anchor="middle" x="350" y="-600" font-family="Helvetica,sans-Serif" font-size="10.00">WordGamePlayer</text>
</a>
</g>
</g>
<!-- Node2&#45;&gt;Node6 -->
<g id="edge5" class="edge"><title>Node2&#45;&gt;Node6</title>
<path fill="none" stroke="midnightblue" d="M190.426,-325.812C200.913,-356.563 222.311,-419.531 240,-473 256.289,-522.239 238.262,-548.425 276,-584 283.242,-590.827 292.618,-595.275 302.223,-598.155"/>
<polygon fill="midnightblue" stroke="midnightblue" points="193.739,-324.681 187.196,-316.347 187.114,-326.942 193.739,-324.681"/>
</g>
<!-- Node7 -->
<g id="node7" class="node"><title>Node7</title>
<g id="a_node7"><a xlink:href="class_thinksquirrel_1_1_word_game_builder_1_1_tiles_1_1_daikon_forge_1_1_letter_tile_daikon_forge_control.html" target="_top" xlink:title="Adds Daikon Forge GUI display to a letter tile. ">
<polygon fill="none" stroke="black" points="276.597,-111 276.597,-129 423.403,-129 423.403,-111 276.597,-111"/>
<text text-anchor="middle" x="350" y="-117" font-family="Helvetica,sans-Serif" font-size="10.00">LetterTileDaikonForgeControl</text>
</a>
</g>
</g>
<!-- Node2&#45;&gt;Node7 -->
<g id="edge6" class="edge"><title>Node2&#45;&gt;Node7</title>
<path fill="none" stroke="midnightblue" d="M224.023,-298.998C230.001,-296.324 235.618,-292.757 240,-288 284.693,-239.477 231.077,-192.311 276,-144 282.178,-137.356 290.224,-132.549 298.71,-129.071"/>
<polygon fill="midnightblue" stroke="midnightblue" points="222.639,-295.777 214.456,-302.507 225.05,-302.349 222.639,-295.777"/>
</g>
<!-- Node8 -->
<g id="node8" class="node"><title>Node8</title>
<g id="a_node8"><a xlink:href="class_thinksquirrel_1_1_word_game_builder_1_1_tiles_1_1_daikon_forge_1_1_letter_tile_daikon_forge_input.html" target="_top" xlink:title="Adds input control to a letter tile, using DF&#45;GUI&#39;s events. ">
<polygon fill="none" stroke="black" points="281.595,-74 281.595,-92 418.405,-92 418.405,-74 281.595,-74"/>
<text text-anchor="middle" x="350" y="-80" font-family="Helvetica,sans-Serif" font-size="10.00">LetterTileDaikonForgeInput</text>
</a>
</g>
</g>
<!-- Node2&#45;&gt;Node8 -->
<g id="edge7" class="edge"><title>Node2&#45;&gt;Node8</title>
<path fill="none" stroke="midnightblue" d="M224.062,-299.283C230.085,-296.578 235.706,-292.926 240,-288 295.614,-224.199 217.715,-162.371 276,-101 279.416,-97.4033 283.426,-94.4778 287.779,-92.1035"/>
<polygon fill="midnightblue" stroke="midnightblue" points="222.598,-296.092 214.4,-302.804 224.994,-302.669 222.598,-296.092"/>
</g>
<!-- Node9 -->
<g id="node9" class="node"><title>Node9</title>
<g id="a_node9"><a xlink:href="class_thinksquirrel_1_1_word_game_builder_1_1_tiles_1_1_letter_tile.html" target="_top" xlink:title="A standard letter tile. Includes support for selection, wildcard tiles, multiple colors, input, and state querying. ">
<polygon fill="none" stroke="black" points="460.341,-649 460.341,-667 517.659,-667 517.659,-649 460.341,-649"/>
<text text-anchor="middle" x="489" y="-655" font-family="Helvetica,sans-Serif" font-size="10.00">LetterTile</text>
</a>
</g>
</g>
<!-- Node2&#45;&gt;Node9 -->
<g id="edge8" class="edge"><title>Node2&#45;&gt;Node9</title>
<path fill="none" stroke="midnightblue" d="M223.937,-298.654C229.878,-296.02 235.505,-292.556 240,-288 276.425,-251.081 234.05,-207.496 276,-177 329.205,-138.322 374.516,-133.664 424,-177 461.075,-209.468 483.845,-584.461 487.485,-648.673"/>
<polygon fill="midnightblue" stroke="midnightblue" points="222.633,-295.404 214.46,-302.146 225.054,-301.972 222.633,-295.404"/>
</g>
<!-- Node10 -->
<g id="node10" class="node"><title>Node10</title>
<g id="a_node10"><a xlink:href="class_thinksquirrel_1_1_word_game_builder_1_1_tiles_1_1_letter_tile_animation.html" target="_top" xlink:title="Adds animation to a letter tile. ">
<polygon fill="none" stroke="black" points="299.107,-37 299.107,-55 400.893,-55 400.893,-37 299.107,-37"/>
<text text-anchor="middle" x="350" y="-43" font-family="Helvetica,sans-Serif" font-size="10.00">LetterTileAnimation</text>
</a>
</g>
</g>
<!-- Node2&#45;&gt;Node10 -->
<g id="edge9" class="edge"><title>Node2&#45;&gt;Node10</title>
<path fill="none" stroke="midnightblue" d="M224.191,-299.394C230.199,-296.676 235.782,-292.992 240,-288 305.076,-210.978 207.698,-138.176 276,-64 282.101,-57.3744 290.216,-53.0127 298.817,-50.176"/>
<polygon fill="midnightblue" stroke="midnightblue" points="222.728,-296.202 214.535,-302.92 225.129,-302.778 222.728,-296.202"/>
</g>
<!-- Node11 -->
<g id="node11" class="node"><title>Node11</title>
<g id="a_node11"><a xlink:href="class_thinksquirrel_1_1_word_game_builder_1_1_tiles_1_1_letter_tile_color_control.html" target="_top" xlink:title="Automatically controls the color of objects based on a letter tile&#39;s state. ">
<polygon fill="none" stroke="black" points="293.274,-0 293.274,-18 406.726,-18 406.726,-0 293.274,-0"/>
<text text-anchor="middle" x="350" y="-6" font-family="Helvetica,sans-Serif" font-size="10.00">LetterTileColorControl</text>
</a>
</g>
</g>
<!-- Node2&#45;&gt;Node11 -->
<g id="edge10" class="edge"><title>Node2&#45;&gt;Node11</title>
<path fill="none" stroke="midnightblue" d="M224.1,-299.557C230.169,-296.823 235.795,-293.091 240,-288 314.572,-197.717 197.645,-114.02 276,-27 280.717,-21.7619 286.692,-17.9326 293.184,-15.151"/>
<polygon fill="midnightblue" stroke="midnightblue" points="222.556,-296.394 214.341,-303.086 224.936,-302.977 222.556,-296.394"/>
</g>
<!-- Node12 -->
<g id="node12" class="node"><title>Node12</title>
<g id="a_node12"><a xlink:href="class_thinksquirrel_1_1_word_game_builder_1_1_tiles_1_1_letter_tile_label_control.html" target="_top" xlink:title="Automatically controls the text on objects based on a letter tile&#39;s state. ">
<polygon fill="none" stroke="black" points="292.989,-446 292.989,-464 407.011,-464 407.011,-446 292.989,-446"/>
<text text-anchor="middle" x="350" y="-452" font-family="Helvetica,sans-Serif" font-size="10.00">LetterTileLabelControl</text>
</a>
</g>
</g>
<!-- Node2&#45;&gt;Node12 -->
<g id="edge11" class="edge"><title>Node2&#45;&gt;Node12</title>
<path fill="none" stroke="midnightblue" d="M191.96,-325.306C205.192,-353.525 234.431,-407.381 276,-436 282.04,-440.159 288.931,-443.407 296.012,-445.945"/>
<polygon fill="midnightblue" stroke="midnightblue" points="195.132,-323.826 187.816,-316.163 188.757,-326.716 195.132,-323.826"/>
</g>
<!-- Node13 -->
<g id="node13" class="node"><title>Node13</title>
<g id="a_node13"><a xlink:href="class_thinksquirrel_1_1_word_game_builder_1_1_tiles_1_1_letter_tile_mouse_input.html" target="_top" xlink:title="Adds input control to a letter tile, using Unity&#39;s OnMouse[...] methods. ">
<polygon fill="none" stroke="black" points="295.213,-409 295.213,-427 404.787,-427 404.787,-409 295.213,-409"/>
<text text-anchor="middle" x="350" y="-415" font-family="Helvetica,sans-Serif" font-size="10.00">LetterTileMouseInput</text>
</a>
</g>
</g>
<!-- Node2&#45;&gt;Node13 -->
<g id="edge12" class="edge"><title>Node2&#45;&gt;Node13</title>
<path fill="none" stroke="midnightblue" d="M196.681,-324.442C212.784,-345.314 242.532,-379.837 276,-399 283.273,-403.165 291.473,-406.434 299.68,-408.997"/>
<polygon fill="midnightblue" stroke="midnightblue" points="199.267,-322.057 190.461,-316.167 193.672,-326.263 199.267,-322.057"/>
</g>
<!-- Node14 -->
<g id="node14" class="node"><title>Node14</title>
<g id="a_node14"><a xlink:href="class_thinksquirrel_1_1_word_game_builder_1_1_tiles_1_1_letter_tile_visibility_control.html" target="_top" xlink:title="Automatically controls the visibility of objects based on a letter tile&#39;s state. ">
<polygon fill="none" stroke="black" points="287.251,-372 287.251,-390 412.749,-390 412.749,-372 287.251,-372"/>
<text text-anchor="middle" x="350" y="-378" font-family="Helvetica,sans-Serif" font-size="10.00">LetterTileVisibilityControl</text>
</a>
</g>
</g>
<!-- Node2&#45;&gt;Node14 -->
<g id="edge13" class="edge"><title>Node2&#45;&gt;Node14</title>
<path fill="none" stroke="midnightblue" d="M205.061,-321.963C223.139,-334.214 250.276,-351.223 276,-362 285.421,-365.947 295.879,-369.253 305.866,-371.941"/>
<polygon fill="midnightblue" stroke="midnightblue" points="206.707,-318.847 196.488,-316.049 202.732,-324.608 206.707,-318.847"/>
</g>
<!-- Node15 -->
<g id="node15" class="node"><title>Node15</title>
<g id="a_node15"><a xlink:href="class_thinksquirrel_1_1_word_game_builder_1_1_tiles_1_1_ngui_1_1_letter_tile_ngui_control.html" target="_top" xlink:title="Adds NGUI display to a letter tile. ">
<polygon fill="none" stroke="black" points="294.939,-335 294.939,-353 405.061,-353 405.061,-335 294.939,-335"/>
<text text-anchor="middle" x="350" y="-341" font-family="Helvetica,sans-Serif" font-size="10.00">LetterTileNguiControl</text>
</a>
</g>
</g>
<!-- Node2&#45;&gt;Node15 -->
<g id="edge14" class="edge"><title>Node2&#45;&gt;Node15</title>
<path fill="none" stroke="midnightblue" d="M224.448,-316.07C250.129,-321.829 283.231,-329.252 308.853,-334.997"/>
<polygon fill="midnightblue" stroke="midnightblue" points="225.172,-312.646 214.649,-313.873 223.64,-319.476 225.172,-312.646"/>
</g>
<!-- Node16 -->
<g id="node16" class="node"><title>Node16</title>
<g id="a_node16"><a xlink:href="class_thinksquirrel_1_1_word_game_builder_1_1_tiles_1_1_ngui_1_1_letter_tile_ngui_input.html" target="_top" xlink:title="Adds input control to a letter tile, using NGUI&#39;s OnPress/OnHover/OnClick methods. ">
<polygon fill="none" stroke="black" points="299.937,-298 299.937,-316 400.063,-316 400.063,-298 299.937,-298"/>
<text text-anchor="middle" x="350" y="-304" font-family="Helvetica,sans-Serif" font-size="10.00">LetterTileNguiInput</text>
</a>
</g>
</g>
<!-- Node2&#45;&gt;Node16 -->
<g id="edge15" class="edge"><title>Node2&#45;&gt;Node16</title>
<path fill="none" stroke="midnightblue" d="M224.94,-307C247.58,-307 275.871,-307 299.718,-307"/>
<polygon fill="midnightblue" stroke="midnightblue" points="224.649,-303.5 214.649,-307 224.649,-310.5 224.649,-303.5"/>
</g>
<!-- Node17 -->
<g id="node17" class="node"><title>Node17</title>
<g id="a_node17"><a xlink:href="class_thinksquirrel_1_1_word_game_builder_1_1_tiles_1_1_tk2_d_1_1_letter_tile_tk2_d_control.html" target="_top" xlink:title="Adds 2D Toolkit display to a letter tile. ">
<polygon fill="none" stroke="black" points="293.277,-261 293.277,-279 406.723,-279 406.723,-261 293.277,-261"/>
<text text-anchor="middle" x="350" y="-267" font-family="Helvetica,sans-Serif" font-size="10.00">LetterTileTk2DControl</text>
</a>
</g>
</g>
<!-- Node2&#45;&gt;Node17 -->
<g id="edge16" class="edge"><title>Node2&#45;&gt;Node17</title>
<path fill="none" stroke="midnightblue" d="M224.448,-297.93C250.129,-292.171 283.231,-284.748 308.853,-279.003"/>
<polygon fill="midnightblue" stroke="midnightblue" points="223.64,-294.524 214.649,-300.127 225.172,-301.354 223.64,-294.524"/>
</g>
<!-- Node18 -->
<g id="node18" class="node"><title>Node18</title>
<g id="a_node18"><a xlink:href="class_thinksquirrel_1_1_word_game_builder_1_1_tiles_1_1_tk2_d_1_1_letter_tile_tk2_d_input.html" target="_top" xlink:title="Adds input control to a letter tile, using 2D Toolkit&#39;s UI events. ">
<polygon fill="none" stroke="black" points="298.274,-224 298.274,-242 401.726,-242 401.726,-224 298.274,-224"/>
<text text-anchor="middle" x="350" y="-230" font-family="Helvetica,sans-Serif" font-size="10.00">LetterTileTk2DInput</text>
</a>
</g>
</g>
<!-- Node2&#45;&gt;Node18 -->
<g id="edge17" class="edge"><title>Node2&#45;&gt;Node18</title>
<path fill="none" stroke="midnightblue" d="M223.932,-296.071C229.527,-293.8 235.05,-291.125 240,-288 259.401,-275.752 256.094,-262.409 276,-251 282.795,-247.106 290.415,-244.048 298.1,-241.649"/>
<polygon fill="midnightblue" stroke="midnightblue" points="222.719,-292.788 214.537,-299.519 225.13,-299.36 222.719,-292.788"/>
</g>
<!-- Node19 -->
<g id="node19" class="node"><title>Node19</title>
<g id="a_node19"><a xlink:href="class_thinksquirrel_1_1_word_game_builder_example_1_1_example_game_logic.html" target="_top" xlink:title="This class is responsible for all game logic. ">
<polygon fill="none" stroke="black" points="296.978,-187 296.978,-205 403.022,-205 403.022,-187 296.978,-187"/>
<text text-anchor="middle" x="350" y="-193" font-family="Helvetica,sans-Serif" font-size="10.00">ExampleGameLogic</text>
</a>
</g>
</g>
<!-- Node2&#45;&gt;Node19 -->
<g id="edge18" class="edge"><title>Node2&#45;&gt;Node19</title>
<path fill="none" stroke="midnightblue" d="M224.209,-297.752C229.926,-295.236 235.412,-292.045 240,-288 267.435,-263.813 247.558,-236.994 276,-214 282.09,-209.076 289.336,-205.471 296.861,-202.838"/>
<polygon fill="midnightblue" stroke="midnightblue" points="222.633,-294.605 214.487,-301.38 225.08,-301.163 222.633,-294.605"/>
</g>
<!-- Node22 -->
<g id="node22" class="node"><title>Node22</title>
<g id="a_node22"><a xlink:href="interface_thinksquirrel_1_1_word_game_builder_1_1_object_model_1_1_i_mono_behaviour.html" target="_top" xlink:title="An interface representation of a MonoBehaviour. ">
<polygon fill="none" stroke="black" points="0.588867,-557 0.588867,-575 89.4111,-575 89.4111,-557 0.588867,-557"/>
<text text-anchor="middle" x="45" y="-563" font-family="Helvetica,sans-Serif" font-size="10.00">IMonoBehaviour</text>
</a>
</g>
</g>
<!-- Node23 -->
<g id="node23" class="node"><title>Node23</title>
<g id="a_node23"><a xlink:href="interface_thinksquirrel_1_1_word_game_builder_1_1_object_model_1_1_i_letter_tile.html" target="_top" xlink:title="An interface defining a letter tile. Implementations must derive from MonoBehaviour in some form...">
<polygon fill="none" stroke="black" points="152.952,-649 152.952,-667 213.048,-667 213.048,-649 152.952,-649"/>
<text text-anchor="middle" x="183" y="-655" font-family="Helvetica,sans-Serif" font-size="10.00">ILetterTile</text>
</a>
</g>
</g>
<!-- Node22&#45;&gt;Node23 -->
<g id="edge21" class="edge"><title>Node22&#45;&gt;Node23</title>
<path fill="none" stroke="midnightblue" d="M67.6199,-581.023C83.6756,-592.14 106.138,-607.613 126,-621 140.301,-630.639 156.783,-641.499 168.145,-648.947"/>
<polygon fill="midnightblue" stroke="midnightblue" points="69.1872,-577.85 58.975,-575.029 65.1987,-583.603 69.1872,-577.85"/>
</g>
<!-- Node27 -->
<g id="node27" class="node"><title>Node27</title>
<g id="a_node27"><a xlink:href="interface_thinksquirrel_1_1_word_game_builder_1_1_object_model_1_1_i_tile_pool.html" target="_top" xlink:title="An interface defining a pool of letter tiles. Implementations must derive from MonoBehaviour in some ...">
<polygon fill="none" stroke="black" points="155.73,-557 155.73,-575 210.27,-575 210.27,-557 155.73,-557"/>
<text text-anchor="middle" x="183" y="-563" font-family="Helvetica,sans-Serif" font-size="10.00">ITilePool</text>
</a>
</g>
</g>
<!-- Node22&#45;&gt;Node27 -->
<g id="edge28" class="edge"><title>Node22&#45;&gt;Node27</title>
<path fill="none" stroke="midnightblue" d="M99.8697,-566C118.93,-566 139.54,-566 155.346,-566"/>
<polygon fill="midnightblue" stroke="midnightblue" points="99.7799,-562.5 89.7799,-566 99.7798,-569.5 99.7799,-562.5"/>
</g>
<!-- Node28 -->
<g id="node28" class="node"><title>Node28</title>
<g id="a_node28"><a xlink:href="interface_thinksquirrel_1_1_word_game_builder_1_1_object_model_1_1_i_wildcard_tile_manager.html" target="_top" xlink:title="An interface defining a manager for selecting wildcard tiles. Implementations must derive from MonoBe...">
<polygon fill="none" stroke="black" points="126.555,-520 126.555,-538 239.445,-538 239.445,-520 126.555,-520"/>
<text text-anchor="middle" x="183" y="-526" font-family="Helvetica,sans-Serif" font-size="10.00">IWildcardTileManager</text>
</a>
</g>
</g>
<!-- Node22&#45;&gt;Node28 -->
<g id="edge30" class="edge"><title>Node22&#45;&gt;Node28</title>
<path fill="none" stroke="midnightblue" d="M89.0167,-554.297C108.274,-549.058 130.635,-542.974 148.603,-538.086"/>
<polygon fill="midnightblue" stroke="midnightblue" points="87.9998,-550.946 79.2693,-556.949 89.8375,-557.701 87.9998,-550.946"/>
</g>
<!-- Node29 -->
<g id="node29" class="node"><title>Node29</title>
<g id="a_node29"><a xlink:href="interface_thinksquirrel_1_1_word_game_builder_1_1_object_model_1_1_i_word_game_agent.html" target="_top" xlink:title="An interface defining a word game agent. Implementations must derive from MonoBehaviour in some form...">
<polygon fill="none" stroke="black" points="135.071,-483 135.071,-501 230.929,-501 230.929,-483 135.071,-483"/>
<text text-anchor="middle" x="183" y="-489" font-family="Helvetica,sans-Serif" font-size="10.00">IWordGameAgent</text>
</a>
</g>
</g>
<!-- Node22&#45;&gt;Node29 -->
<g id="edge32" class="edge"><title>Node22&#45;&gt;Node29</title>
<path fill="none" stroke="midnightblue" d="M64.5441,-550.592C80.1428,-538.247 103.451,-521.196 126,-510 132.951,-506.548 140.711,-503.56 148.186,-501.063"/>
<polygon fill="midnightblue" stroke="midnightblue" points="62.3108,-547.897 56.725,-556.899 66.7059,-553.345 62.3108,-547.897"/>
</g>
<!-- Node30 -->
<g id="node30" class="node"><title>Node30</title>
<g id="a_node30"><a xlink:href="interface_thinksquirrel_1_1_word_game_builder_1_1_object_model_1_1_i_word_game_player.html" target="_top" xlink:title="An interface defining a word game player. Implementations must derive from MonoBehaviour in some form...">
<polygon fill="none" stroke="black" points="133.965,-594 133.965,-612 232.035,-612 232.035,-594 133.965,-594"/>
<text text-anchor="middle" x="183" y="-600" font-family="Helvetica,sans-Serif" font-size="10.00">IWordGamePlayer</text>
</a>
</g>
</g>
<!-- Node22&#45;&gt;Node30 -->
<g id="edge34" class="edge"><title>Node22&#45;&gt;Node30</title>
<path fill="none" stroke="midnightblue" d="M89.0167,-577.703C108.274,-582.942 130.635,-589.026 148.603,-593.914"/>
<polygon fill="midnightblue" stroke="midnightblue" points="89.8375,-574.299 79.2693,-575.051 87.9998,-581.054 89.8375,-574.299"/>
</g>
<!-- Node24 -->
<g id="node24" class="node"><title>Node24</title>
<g id="a_node24"><a xlink:href="interface_thinksquirrel_1_1_word_game_builder_1_1_object_model_1_1_i_letter_tile_display.html" target="_top" xlink:title="An interface defining letter tile colors and labels. ">
<polygon fill="none" stroke="black" points="303.558,-668 303.558,-686 396.442,-686 396.442,-668 303.558,-668"/>
<text text-anchor="middle" x="350" y="-674" font-family="Helvetica,sans-Serif" font-size="10.00">ILetterTileDisplay</text>
</a>
</g>
</g>
<!-- Node23&#45;&gt;Node24 -->
<g id="edge22" class="edge"><title>Node23&#45;&gt;Node24</title>
<path fill="none" stroke="midnightblue" d="M223.309,-662.526C247.362,-665.296 278.238,-668.852 303.369,-671.745"/>
<polygon fill="midnightblue" stroke="midnightblue" points="223.454,-659.02 213.119,-661.353 222.653,-665.974 223.454,-659.02"/>
</g>
<!-- Node25 -->
<g id="node25" class="node"><title>Node25</title>
<g id="a_node25"><a xlink:href="interface_thinksquirrel_1_1_word_game_builder_1_1_object_model_1_1_i_letter_tile_input.html" target="_top" xlink:title="An interface defining letter tile input events. ">
<polygon fill="none" stroke="black" points="308.831,-631 308.831,-649 391.169,-649 391.169,-631 308.831,-631"/>
<text text-anchor="middle" x="350" y="-637" font-family="Helvetica,sans-Serif" font-size="10.00">ILetterTileInput</text>
</a>
</g>
</g>
<!-- Node23&#45;&gt;Node25 -->
<g id="edge24" class="edge"><title>Node23&#45;&gt;Node25</title>
<path fill="none" stroke="midnightblue" d="M223.293,-653.713C249.087,-650.9 282.732,-647.229 308.723,-644.394"/>
<polygon fill="midnightblue" stroke="midnightblue" points="222.68,-650.259 213.119,-654.823 223.439,-657.218 222.68,-650.259"/>
</g>
<!-- Node26 -->
<g id="node26" class="node"><title>Node26</title>
<g id="a_node26"><a xlink:href="interface_thinksquirrel_1_1_word_game_builder_1_1_object_model_1_1_i_selectable_letter_tile.html" target="_top" xlink:title="An interface defining a letter tile that can be selected and deselected. Implementations must derive ...">
<polygon fill="none" stroke="black" points="296.602,-705 296.602,-723 403.398,-723 403.398,-705 296.602,-705"/>
<text text-anchor="middle" x="350" y="-711" font-family="Helvetica,sans-Serif" font-size="10.00">ISelectableLetterTile</text>
</a>
</g>
</g>
<!-- Node23&#45;&gt;Node26 -->
<g id="edge26" class="edge"><title>Node23&#45;&gt;Node26</title>
<path fill="none" stroke="midnightblue" d="M213.85,-671.132C231.679,-678.691 254.894,-688.041 276,-695 287.069,-698.65 299.265,-702.058 310.466,-704.952"/>
<polygon fill="midnightblue" stroke="midnightblue" points="215.117,-667.867 204.546,-667.143 212.358,-674.301 215.117,-667.867"/>
</g>
<!-- Node24&#45;&gt;Node9 -->
<g id="edge23" class="edge"><title>Node24&#45;&gt;Node9</title>
<path fill="none" stroke="midnightblue" d="M406.673,-669.279C425.071,-666.727 444.749,-663.998 460.139,-661.864"/>
<polygon fill="midnightblue" stroke="midnightblue" points="406.043,-665.833 396.619,-670.673 407.005,-672.766 406.043,-665.833"/>
</g>
<!-- Node25&#45;&gt;Node9 -->
<g id="edge25" class="edge"><title>Node25&#45;&gt;Node9</title>
<path fill="none" stroke="midnightblue" d="M401.479,-646.632C421.273,-649.233 443.229,-652.118 460.07,-654.33"/>
<polygon fill="midnightblue" stroke="midnightblue" points="401.734,-643.136 391.364,-645.303 400.822,-650.076 401.734,-643.136"/>
</g>
<!-- Node26&#45;&gt;Node9 -->
<g id="edge27" class="edge"><title>Node26&#45;&gt;Node9</title>
<path fill="none" stroke="midnightblue" d="M403.765,-702.086C410.667,-700 417.569,-697.639 424,-695 442.523,-687.399 462.236,-675.322 474.812,-667.047"/>
<polygon fill="midnightblue" stroke="midnightblue" points="402.371,-698.843 393.709,-704.944 404.285,-705.577 402.371,-698.843"/>
</g>
<!-- Node27&#45;&gt;Node3 -->
<g id="edge29" class="edge"><title>Node27&#45;&gt;Node3</title>
<path fill="none" stroke="midnightblue" d="M220.615,-566C252.009,-566 296.401,-566 323.908,-566"/>
<polygon fill="midnightblue" stroke="midnightblue" points="220.51,-562.5 210.51,-566 220.51,-569.5 220.51,-562.5"/>
</g>
<!-- Node28&#45;&gt;Node4 -->
<g id="edge31" class="edge"><title>Node28&#45;&gt;Node4</title>
<path fill="none" stroke="midnightblue" d="M250.023,-529C264.909,-529 280.541,-529 294.873,-529"/>
<polygon fill="midnightblue" stroke="midnightblue" points="249.862,-525.5 239.861,-529 249.861,-532.5 249.862,-525.5"/>
</g>
<!-- Node29&#45;&gt;Node5 -->
<g id="edge33" class="edge"><title>Node29&#45;&gt;Node5</title>
<path fill="none" stroke="midnightblue" d="M241.356,-492C261.664,-492 284.22,-492 303.416,-492"/>
<polygon fill="midnightblue" stroke="midnightblue" points="241.282,-488.5 231.282,-492 241.282,-495.5 241.282,-488.5"/>
</g>
<!-- Node30&#45;&gt;Node6 -->
<g id="edge35" class="edge"><title>Node30&#45;&gt;Node6</title>
<path fill="none" stroke="midnightblue" d="M242.233,-603C261.881,-603 283.544,-603 302.193,-603"/>
<polygon fill="midnightblue" stroke="midnightblue" points="242.168,-599.5 232.168,-603 242.168,-606.5 242.168,-599.5"/>
</g>
</g>
</svg>
