<?xml version="1.0" encoding="UTF-8" standalone="no"?>
<!DOCTYPE svg PUBLIC "-//W3C//DTD SVG 1.1//EN"
 "http://www.w3.org/Graphics/SVG/1.1/DTD/svg11.dtd">
<!-- Generated by graphviz version 2.36.0 (20140111.2315)
 -->
<!-- Title: Graphical Class Hierarchy Pages: 1 -->
<svg width="202pt" height="63pt"
 viewBox="0.00 0.00 202.00 63.00" xmlns="http://www.w3.org/2000/svg" xmlns:xlink="http://www.w3.org/1999/xlink">
<g id="graph0" class="graph" transform="scale(1 1) rotate(0) translate(4 59)">
<title>Graphical Class Hierarchy</title>
<!-- Node1 -->
<g id="node1" class="node"><title>Node1</title>
<polygon fill="none" stroke="#bfbfbf" points="-0.0292969,-37 -0.0292969,-55 116.029,-55 116.029,-37 -0.0292969,-37"/>
<text text-anchor="middle" x="58" y="-43" font-family="Helvetica,sans-Serif" font-size="10.00">IComparable&lt; Letter &gt;</text>
</g>
<!-- Node2 -->
<g id="node2" class="node"><title>Node2</title>
<g id="a_node2"><a xlink:href="struct_thinksquirrel_1_1_word_game_builder_1_1_letter.html" target="_top" xlink:title="Represents a letter. ">
<polygon fill="none" stroke="black" points="152.214,-18 152.214,-36 193.786,-36 193.786,-18 152.214,-18"/>
<text text-anchor="middle" x="173" y="-24" font-family="Helvetica,sans-Serif" font-size="10.00">Letter</text>
</a>
</g>
</g>
<!-- Node1&#45;&gt;Node2 -->
<g id="edge1" class="edge"><title>Node1&#45;&gt;Node2</title>
<path fill="none" stroke="midnightblue" d="M123.002,-35.2386C133.526,-33.4691 143.696,-31.7591 152.017,-30.3599"/>
<polygon fill="midnightblue" stroke="midnightblue" points="122.134,-31.8354 112.852,-36.9452 123.294,-38.7385 122.134,-31.8354"/>
</g>
<!-- Node3 -->
<g id="node3" class="node"><title>Node3</title>
<polygon fill="none" stroke="#bfbfbf" points="4.6875,-0 4.6875,-18 111.312,-18 111.312,-0 4.6875,-0"/>
<text text-anchor="middle" x="58" y="-6" font-family="Helvetica,sans-Serif" font-size="10.00">IEquatable&lt; Letter &gt;</text>
</g>
<!-- Node3&#45;&gt;Node2 -->
<g id="edge2" class="edge"><title>Node3&#45;&gt;Node2</title>
<path fill="none" stroke="midnightblue" d="M121.67,-18.9828C132.667,-20.7346 143.349,-22.4361 152.021,-23.8176"/>
<polygon fill="midnightblue" stroke="midnightblue" points="121.956,-15.4844 111.53,-17.3677 120.855,-22.3972 121.956,-15.4844"/>
</g>
</g>
</svg>
