<?xml version="1.0" encoding="UTF-8" standalone="no"?>
<!DOCTYPE svg PUBLIC "-//W3C//DTD SVG 1.1//EN"
 "http://www.w3.org/Graphics/SVG/1.1/DTD/svg11.dtd">
<!-- Generated by graphviz version 2.36.0 (20140111.2315)
 -->
<!-- Title: Graphical Class Hierarchy Pages: 1 -->
<svg width="190pt" height="63pt"
 viewBox="0.00 0.00 190.00 63.00" xmlns="http://www.w3.org/2000/svg" xmlns:xlink="http://www.w3.org/1999/xlink">
<g id="graph0" class="graph" transform="scale(1 1) rotate(0) translate(4 59)">
<title>Graphical Class Hierarchy</title>
<!-- Node1 -->
<g id="node1" class="node"><title>Node1</title>
<polygon fill="none" stroke="#bfbfbf" points="-0.125488,-18 -0.125488,-36 68.1255,-36 68.1255,-18 -0.125488,-18"/>
<text text-anchor="middle" x="34" y="-24" font-family="Helvetica,sans-Serif" font-size="10.00">IDisposable</text>
</g>
<!-- Node2 -->
<g id="node2" class="node"><title>Node2</title>
<g id="a_node2"><a xlink:href="class_thinksquirrel_1_1_word_game_builder_1_1_async_task.html" target="_top" xlink:title="Represents an asynchronous task. ">
<polygon fill="none" stroke="black" points="111.104,-37 111.104,-55 174.896,-55 174.896,-37 111.104,-37"/>
<text text-anchor="middle" x="143" y="-43" font-family="Helvetica,sans-Serif" font-size="10.00">AsyncTask</text>
</a>
</g>
</g>
<!-- Node1&#45;&gt;Node2 -->
<g id="edge1" class="edge"><title>Node1&#45;&gt;Node2</title>
<path fill="none" stroke="midnightblue" d="M78.1271,-34.6581C89.108,-36.608 100.695,-38.6655 110.941,-40.4849"/>
<polygon fill="midnightblue" stroke="midnightblue" points="78.7269,-31.2099 68.2689,-32.9076 77.503,-38.1021 78.7269,-31.2099"/>
</g>
<!-- Node3 -->
<g id="node3" class="node"><title>Node3</title>
<g id="a_node3"><a xlink:href="class_thinksquirrel_1_1_word_game_builder_1_1_tweening_1_1_tweener_3_01_t_01_4.html" target="_top" xlink:title="The main tweening class. ">
<polygon fill="none" stroke="black" points="104.324,-0 104.324,-18 181.676,-18 181.676,-0 104.324,-0"/>
<text text-anchor="middle" x="143" y="-6" font-family="Helvetica,sans-Serif" font-size="10.00">Tweener&lt; T &gt;</text>
</a>
</g>
</g>
<!-- Node1&#45;&gt;Node3 -->
<g id="edge2" class="edge"><title>Node1&#45;&gt;Node3</title>
<path fill="none" stroke="midnightblue" d="M78.1816,-19.7358C86.8201,-18.2826 95.8317,-16.7666 104.269,-15.3473"/>
<polygon fill="midnightblue" stroke="midnightblue" points="77.5497,-16.2928 68.2689,-21.4034 78.711,-23.1958 77.5497,-16.2928"/>
</g>
</g>
</svg>
