<?xml version="1.0" encoding="UTF-8" standalone="no"?>
<!DOCTYPE svg PUBLIC "-//W3C//DTD SVG 1.1//EN"
 "http://www.w3.org/Graphics/SVG/1.1/DTD/svg11.dtd">
<!-- Generated by graphviz version 2.36.0 (20140111.2315)
 -->
<!-- Title: Graphical Class Hierarchy Pages: 1 -->
<svg width="364pt" height="194pt"
 viewBox="0.00 0.00 364.00 194.00" xmlns="http://www.w3.org/2000/svg" xmlns:xlink="http://www.w3.org/1999/xlink">
<g id="graph0" class="graph" transform="scale(1 1) rotate(0) translate(4 190)">
<title>Graphical Class Hierarchy</title>
<!-- Node1 -->
<g id="node1" class="node"><title>Node1</title>
<g id="a_node1"><a xlink:href="class_thinksquirrel_1_1_word_game_builder_example_1_1_example_view_model_1_1_ui_context.html" target="_top" xlink:title="Represents a base class for all user interface contexts. ">
<polygon fill="none" stroke="black" points="-0.163086,-89 -0.163086,-107 150.163,-107 150.163,-89 -0.163086,-89"/>
<text text-anchor="middle" x="75" y="-95" font-family="Helvetica,sans-Serif" font-size="10.00">ExampleViewModel.UiContext</text>
</a>
</g>
</g>
<!-- Node2 -->
<g id="node2" class="node"><title>Node2</title>
<g id="a_node2"><a xlink:href="class_thinksquirrel_1_1_word_game_builder_example_1_1_example_view_model_1_1_agent_context.html" target="_top" xlink:title="Contains information about the agent. ">
<polygon fill="none" stroke="black" points="187.492,-168 187.492,-186 354.508,-186 354.508,-168 187.492,-168"/>
<text text-anchor="middle" x="271" y="-174" font-family="Helvetica,sans-Serif" font-size="10.00">ExampleViewModel.AgentContext</text>
</a>
</g>
</g>
<!-- Node1&#45;&gt;Node2 -->
<g id="edge1" class="edge"><title>Node1&#45;&gt;Node2</title>
<path fill="none" stroke="midnightblue" d="M98.0865,-112.439C119.697,-125.979 153.945,-145.902 186,-158 196.631,-162.013 208.354,-165.317 219.582,-167.981"/>
<polygon fill="midnightblue" stroke="midnightblue" points="99.9584,-109.482 89.6421,-107.069 96.2018,-115.389 99.9584,-109.482"/>
</g>
<!-- Node3 -->
<g id="node3" class="node"><title>Node3</title>
<g id="a_node3"><a xlink:href="class_thinksquirrel_1_1_word_game_builder_example_1_1_example_view_model_1_1_game_context.html" target="_top" xlink:title="Contains information about the game. ">
<polygon fill="none" stroke="black" points="186.943,-131 186.943,-149 355.057,-149 355.057,-131 186.943,-131"/>
<text text-anchor="middle" x="271" y="-137" font-family="Helvetica,sans-Serif" font-size="10.00">ExampleViewModel.GameContext</text>
</a>
</g>
</g>
<!-- Node1&#45;&gt;Node3 -->
<g id="edge2" class="edge"><title>Node1&#45;&gt;Node3</title>
<path fill="none" stroke="midnightblue" d="M127.511,-109.152C158.946,-115.957 198.62,-124.547 228.117,-130.932"/>
<polygon fill="midnightblue" stroke="midnightblue" points="128.132,-105.705 117.618,-107.01 126.651,-112.547 128.132,-105.705"/>
</g>
<!-- Node4 -->
<g id="node4" class="node"><title>Node4</title>
<g id="a_node4"><a xlink:href="class_thinksquirrel_1_1_word_game_builder_example_1_1_example_view_model_1_1_languages_context.html" target="_top" xlink:title="Contains information about languages. ">
<polygon fill="none" stroke="black" points="193.044,-84 193.044,-112 348.956,-112 348.956,-84 193.044,-84"/>
<text text-anchor="start" x="201.044" y="-100" font-family="Helvetica,sans-Serif" font-size="10.00">ExampleViewModel.Languages</text>
<text text-anchor="middle" x="271" y="-90" font-family="Helvetica,sans-Serif" font-size="10.00">Context</text>
</a>
</g>
</g>
<!-- Node1&#45;&gt;Node4 -->
<g id="edge3" class="edge"><title>Node1&#45;&gt;Node4</title>
<path fill="none" stroke="midnightblue" d="M160.455,-98C171.265,-98 182.287,-98 192.971,-98"/>
<polygon fill="midnightblue" stroke="midnightblue" points="160.174,-94.5001 150.173,-98 160.173,-101.5 160.174,-94.5001"/>
</g>
<!-- Node5 -->
<g id="node5" class="node"><title>Node5</title>
<g id="a_node5"><a xlink:href="class_thinksquirrel_1_1_word_game_builder_example_1_1_example_view_model_1_1_player_context.html" target="_top" xlink:title="Contains information about the player. ">
<polygon fill="none" stroke="black" points="186.386,-47 186.386,-65 355.614,-65 355.614,-47 186.386,-47"/>
<text text-anchor="middle" x="271" y="-53" font-family="Helvetica,sans-Serif" font-size="10.00">ExampleViewModel.PlayerContext</text>
</a>
</g>
</g>
<!-- Node1&#45;&gt;Node5 -->
<g id="edge4" class="edge"><title>Node1&#45;&gt;Node5</title>
<path fill="none" stroke="midnightblue" d="M127.511,-86.8481C158.946,-80.0427 198.62,-71.4534 228.117,-65.0675"/>
<polygon fill="midnightblue" stroke="midnightblue" points="126.651,-83.4532 117.618,-88.9899 128.132,-90.2947 126.651,-83.4532"/>
</g>
<!-- Node6 -->
<g id="node6" class="node"><title>Node6</title>
<g id="a_node6"><a xlink:href="class_thinksquirrel_1_1_word_game_builder_example_1_1_example_view_model_1_1_word_result_context.html" target="_top" xlink:title="Contains information about a word check. ">
<polygon fill="none" stroke="black" points="191.76,-0 191.76,-28 350.24,-28 350.24,-0 191.76,-0"/>
<text text-anchor="start" x="199.76" y="-16" font-family="Helvetica,sans-Serif" font-size="10.00">ExampleViewModel.WordResult</text>
<text text-anchor="middle" x="271" y="-6" font-family="Helvetica,sans-Serif" font-size="10.00">Context</text>
</a>
</g>
</g>
<!-- Node1&#45;&gt;Node6 -->
<g id="edge5" class="edge"><title>Node1&#45;&gt;Node6</title>
<path fill="none" stroke="midnightblue" d="M98.6053,-83.7347C120.348,-70.487 154.472,-50.9164 186,-38 194.982,-34.3201 204.723,-30.9802 214.283,-28.0403"/>
<polygon fill="midnightblue" stroke="midnightblue" points="96.763,-80.7588 90.089,-88.9873 100.438,-86.7167 96.763,-80.7588"/>
</g>
</g>
</svg>
