<?xml version="1.0" encoding="UTF-8" standalone="no"?>
<!DOCTYPE svg PUBLIC "-//W3C//DTD SVG 1.1//EN"
 "http://www.w3.org/Graphics/SVG/1.1/DTD/svg11.dtd">
<!-- Generated by graphviz version 2.36.0 (20140111.2315)
 -->
<!-- Title: Letter Pages: 1 -->
<svg width="248pt" height="266pt"
 viewBox="0.00 0.00 248.00 266.00" xmlns="http://www.w3.org/2000/svg" xmlns:xlink="http://www.w3.org/1999/xlink">
<g id="graph0" class="graph" transform="scale(1 1) rotate(0) translate(4 262)">
<title>Letter</title>
<!-- Node1 -->
<g id="node1" class="node"><title>Node1</title>
<polygon fill="#bfbfbf" stroke="black" points="69.6763,-1 69.6763,-165 164.324,-165 164.324,-1 69.6763,-1"/>
<text text-anchor="middle" x="117" y="-153" font-family="Helvetica,sans-Serif" font-size="10.00">Letter</text>
<polyline fill="none" stroke="black" points="69.6763,-147 164.324,-147 "/>
<text text-anchor="start" x="77.6763" y="-135" font-family="Helvetica,sans-Serif" font-size="10.00">+ character</text>
<text text-anchor="start" x="77.6763" y="-125" font-family="Helvetica,sans-Serif" font-size="10.00">+ empty</text>
<text text-anchor="start" x="77.6763" y="-115" font-family="Helvetica,sans-Serif" font-size="10.00">+ hasValue</text>
<text text-anchor="start" x="77.6763" y="-105" font-family="Helvetica,sans-Serif" font-size="10.00">+ score</text>
<text text-anchor="start" x="77.6763" y="-95" font-family="Helvetica,sans-Serif" font-size="10.00">+ text</text>
<polyline fill="none" stroke="black" points="69.6763,-89 164.324,-89 "/>
<text text-anchor="start" x="77.6763" y="-77" font-family="Helvetica,sans-Serif" font-size="10.00">+ Letter()</text>
<text text-anchor="start" x="77.6763" y="-67" font-family="Helvetica,sans-Serif" font-size="10.00">+ CompareTo()</text>
<text text-anchor="start" x="77.6763" y="-57" font-family="Helvetica,sans-Serif" font-size="10.00">+ CompareTo()</text>
<text text-anchor="start" x="77.6763" y="-47" font-family="Helvetica,sans-Serif" font-size="10.00">+ Equals()</text>
<text text-anchor="start" x="77.6763" y="-37" font-family="Helvetica,sans-Serif" font-size="10.00">+ Equals()</text>
<text text-anchor="start" x="77.6763" y="-27" font-family="Helvetica,sans-Serif" font-size="10.00">+ GetHashCode()</text>
<text text-anchor="start" x="77.6763" y="-17" font-family="Helvetica,sans-Serif" font-size="10.00">+ operator!=()</text>
<text text-anchor="start" x="77.6763" y="-7" font-family="Helvetica,sans-Serif" font-size="10.00">+ operator==()</text>
</g>
<!-- Node2 -->
<g id="node2" class="node"><title>Node2</title>
<polygon fill="none" stroke="#bfbfbf" points="-0.3125,-203 -0.3125,-257 106.312,-257 106.312,-203 -0.3125,-203"/>
<text text-anchor="middle" x="53" y="-245" font-family="Helvetica,sans-Serif" font-size="10.00">IEquatable&lt; Letter &gt;</text>
<polyline fill="none" stroke="#bfbfbf" points="-0.3125,-239 106.312,-239 "/>
<text text-anchor="middle" x="53" y="-227" font-family="Helvetica,sans-Serif" font-size="10.00"> </text>
<polyline fill="none" stroke="#bfbfbf" points="-0.3125,-221 106.312,-221 "/>
<text text-anchor="middle" x="53" y="-209" font-family="Helvetica,sans-Serif" font-size="10.00"> </text>
</g>
<!-- Node2&#45;&gt;Node1 -->
<g id="edge1" class="edge"><title>Node2&#45;&gt;Node1</title>
<path fill="none" stroke="midnightblue" d="M68.7372,-193.346C72.5871,-184.623 76.8648,-174.931 81.2376,-165.024"/>
<polygon fill="none" stroke="midnightblue" points="65.426,-192.18 64.5899,-202.742 71.8299,-195.006 65.426,-192.18"/>
</g>
<!-- Node3 -->
<g id="node3" class="node"><title>Node3</title>
<polygon fill="none" stroke="#bfbfbf" points="123.971,-203 123.971,-257 240.029,-257 240.029,-203 123.971,-203"/>
<text text-anchor="middle" x="182" y="-245" font-family="Helvetica,sans-Serif" font-size="10.00">IComparable&lt; Letter &gt;</text>
<polyline fill="none" stroke="#bfbfbf" points="123.971,-239 240.029,-239 "/>
<text text-anchor="middle" x="182" y="-227" font-family="Helvetica,sans-Serif" font-size="10.00"> </text>
<polyline fill="none" stroke="#bfbfbf" points="123.971,-221 240.029,-221 "/>
<text text-anchor="middle" x="182" y="-209" font-family="Helvetica,sans-Serif" font-size="10.00"> </text>
</g>
<!-- Node3&#45;&gt;Node1 -->
<g id="edge2" class="edge"><title>Node3&#45;&gt;Node1</title>
<path fill="none" stroke="midnightblue" d="M166.017,-193.346C162.107,-184.623 157.762,-174.931 153.321,-165.024"/>
<polygon fill="none" stroke="midnightblue" points="162.945,-195.048 170.229,-202.742 169.332,-192.185 162.945,-195.048"/>
</g>
</g>
</svg>
