<?xml version="1.0" encoding="UTF-8" standalone="no"?>
<!DOCTYPE svg PUBLIC "-//W3C//DTD SVG 1.1//EN"
 "http://www.w3.org/Graphics/SVG/1.1/DTD/svg11.dtd">
<!-- Generated by graphviz version 2.38.0 (20140413.2041)
 -->
<!-- Title: ExampleViewModel Pages: 1 -->
<svg width="155pt" height="224pt"
 viewBox="0.00 0.00 155.46 224.00" xmlns="http://www.w3.org/2000/svg" xmlns:xlink="http://www.w3.org/1999/xlink">
<g id="graph0" class="graph" transform="scale(1 1) rotate(0) translate(4 220)">
<title>ExampleViewModel</title>
<!-- Node1 -->
<g id="node1" class="node"><title>Node1</title>
<polygon fill="#bfbfbf" stroke="black" points="0,-0.5 0,-124.5 147.455,-124.5 147.455,-0.5 0,-0.5"/>
<text text-anchor="middle" x="73.7275" y="-112.5" font-family="Helvetica,sans-Serif" font-size="10.00">ExampleViewModel</text>
<polyline fill="none" stroke="black" points="0,-106.5 147.455,-106.5 "/>
<text text-anchor="start" x="8" y="-94.5" font-family="Helvetica,sans-Serif" font-size="10.00">+ agent</text>
<text text-anchor="start" x="8" y="-84.5" font-family="Helvetica,sans-Serif" font-size="10.00">+ game</text>
<text text-anchor="start" x="8" y="-74.5" font-family="Helvetica,sans-Serif" font-size="10.00">+ languages</text>
<text text-anchor="start" x="8" y="-64.5" font-family="Helvetica,sans-Serif" font-size="10.00">+ player</text>
<text text-anchor="start" x="8" y="-54.5" font-family="Helvetica,sans-Serif" font-size="10.00">+ showWildcardPanel</text>
<text text-anchor="start" x="8" y="-44.5" font-family="Helvetica,sans-Serif" font-size="10.00">+ submitButtonEnabled</text>
<text text-anchor="start" x="8" y="-34.5" font-family="Helvetica,sans-Serif" font-size="10.00">+ wildcardPanelScrollPosition</text>
<text text-anchor="start" x="8" y="-24.5" font-family="Helvetica,sans-Serif" font-size="10.00">+ wildcardPanelSelection</text>
<polyline fill="none" stroke="black" points="0,-18.5 147.455,-18.5 "/>
<text text-anchor="middle" x="73.7275" y="-6.5" font-family="Helvetica,sans-Serif" font-size="10.00"> </text>
</g>
<!-- Node2 -->
<g id="node2" class="node"><title>Node2</title>
<polygon fill="none" stroke="#bfbfbf" points="30.7056,-161.5 30.7056,-215.5 116.75,-215.5 116.75,-161.5 30.7056,-161.5"/>
<text text-anchor="middle" x="73.7275" y="-203.5" font-family="Helvetica,sans-Serif" font-size="10.00">MonoBehaviour</text>
<polyline fill="none" stroke="#bfbfbf" points="30.7056,-197.5 116.75,-197.5 "/>
<text text-anchor="middle" x="73.7275" y="-185.5" font-family="Helvetica,sans-Serif" font-size="10.00"> </text>
<polyline fill="none" stroke="#bfbfbf" points="30.7056,-179.5 116.75,-179.5 "/>
<text text-anchor="middle" x="73.7275" y="-167.5" font-family="Helvetica,sans-Serif" font-size="10.00"> </text>
</g>
<!-- Node2&#45;&gt;Node1 -->
<g id="edge1" class="edge"><title>Node2&#45;&gt;Node1</title>
<path fill="none" stroke="midnightblue" d="M73.7275,-151.127C73.7275,-142.812 73.7275,-133.75 73.7275,-124.711"/>
<polygon fill="none" stroke="midnightblue" points="70.2276,-151.203 73.7275,-161.203 77.2276,-151.203 70.2276,-151.203"/>
</g>
</g>
</svg>
