<?xml version="1.0" encoding="UTF-8" standalone="no"?>
<!DOCTYPE svg PUBLIC "-//W3C//DTD SVG 1.1//EN"
 "http://www.w3.org/Graphics/SVG/1.1/DTD/svg11.dtd">
<!-- Generated by graphviz version 2.38.0 (20140413.2041)
 -->
<!-- Title: ExampleViewModel.UiContext Pages: 1 -->
<svg width="900pt" height="274pt"
 viewBox="0.00 0.00 899.75 274.00" xmlns="http://www.w3.org/2000/svg" xmlns:xlink="http://www.w3.org/1999/xlink">
<g id="graph0" class="graph" transform="scale(1 1) rotate(0) translate(4 270)">
<title>ExampleViewModel.UiContext</title>
<!-- Node1 -->
<g id="node1" class="node"><title>Node1</title>
<polygon fill="#bfbfbf" stroke="black" points="374.345,-211.5 374.345,-265.5 524.671,-265.5 524.671,-211.5 374.345,-211.5"/>
<text text-anchor="middle" x="449.508" y="-253.5" font-family="Helvetica,sans-Serif" font-size="10.00">ExampleViewModel.UiContext</text>
<polyline fill="none" stroke="black" points="374.345,-247.5 524.671,-247.5 "/>
<text text-anchor="middle" x="449.508" y="-235.5" font-family="Helvetica,sans-Serif" font-size="10.00"> </text>
<polyline fill="none" stroke="black" points="374.345,-229.5 524.671,-229.5 "/>
<text text-anchor="middle" x="449.508" y="-217.5" font-family="Helvetica,sans-Serif" font-size="10.00"> </text>
</g>
<!-- Node2 -->
<g id="node2" class="node"><title>Node2</title>
<g id="a_node2"><a xlink:href="class_thinksquirrel_1_1_word_game_builder_example_1_1_example_view_model_1_1_agent_context.html" target="_top" xlink:title="Contains information about the agent. ">
<polygon fill="none" stroke="black" points="0,-55.5 0,-119.5 167.016,-119.5 167.016,-55.5 0,-55.5"/>
<text text-anchor="middle" x="83.5078" y="-107.5" font-family="Helvetica,sans-Serif" font-size="10.00">ExampleViewModel.AgentContext</text>
<polyline fill="none" stroke="black" points="0,-101.5 167.016,-101.5 "/>
<text text-anchor="start" x="8" y="-89.5" font-family="Helvetica,sans-Serif" font-size="10.00">+ agentStatus</text>
<text text-anchor="start" x="8" y="-79.5" font-family="Helvetica,sans-Serif" font-size="10.00">+ automaticMode</text>
<polyline fill="none" stroke="black" points="0,-73.5 167.016,-73.5 "/>
<text text-anchor="start" x="8" y="-61.5" font-family="Helvetica,sans-Serif" font-size="10.00">+ ToggleAutomaticMode()</text>
</a>
</g>
</g>
<!-- Node1&#45;&gt;Node2 -->
<g id="edge1" class="edge"><title>Node1&#45;&gt;Node2</title>
<path fill="none" stroke="midnightblue" d="M364.057,-229.544C308.12,-221.611 234.855,-205.907 176.508,-175 150.592,-161.272 126.503,-138.461 109.337,-119.71"/>
<polygon fill="none" stroke="midnightblue" points="363.912,-233.057 374.293,-230.937 364.856,-226.12 363.912,-233.057"/>
</g>
<!-- Node3 -->
<g id="node3" class="node"><title>Node3</title>
<g id="a_node3"><a xlink:href="class_thinksquirrel_1_1_word_game_builder_example_1_1_example_view_model_1_1_game_context.html" target="_top" xlink:title="Contains information about the game. ">
<polygon fill="none" stroke="black" points="185.451,-45.5 185.451,-129.5 353.565,-129.5 353.565,-45.5 185.451,-45.5"/>
<text text-anchor="middle" x="269.508" y="-117.5" font-family="Helvetica,sans-Serif" font-size="10.00">ExampleViewModel.GameContext</text>
<polyline fill="none" stroke="black" points="185.451,-111.5 353.565,-111.5 "/>
<text text-anchor="start" x="193.451" y="-99.5" font-family="Helvetica,sans-Serif" font-size="10.00">+ isInitialized</text>
<text text-anchor="start" x="193.451" y="-89.5" font-family="Helvetica,sans-Serif" font-size="10.00">+ tilePoolExists</text>
<text text-anchor="start" x="193.451" y="-79.5" font-family="Helvetica,sans-Serif" font-size="10.00">+ tilesRemaining</text>
<polyline fill="none" stroke="black" points="185.451,-73.5 353.565,-73.5 "/>
<text text-anchor="start" x="193.451" y="-61.5" font-family="Helvetica,sans-Serif" font-size="10.00">+ ResetTiles()</text>
<text text-anchor="start" x="193.451" y="-51.5" font-family="Helvetica,sans-Serif" font-size="10.00">+ SelectWildcardLetter()</text>
</a>
</g>
</g>
<!-- Node1&#45;&gt;Node3 -->
<g id="edge2" class="edge"><title>Node1&#45;&gt;Node3</title>
<path fill="none" stroke="midnightblue" d="M402.539,-205.401C389.335,-195.939 375.138,-185.341 362.508,-175 345.276,-160.891 327.166,-144.451 311.552,-129.715"/>
<polygon fill="none" stroke="midnightblue" points="400.866,-208.505 411.046,-211.44 404.919,-202.797 400.866,-208.505"/>
</g>
<!-- Node4 -->
<g id="node4" class="node"><title>Node4</title>
<g id="a_node4"><a xlink:href="class_thinksquirrel_1_1_word_game_builder_example_1_1_example_view_model_1_1_languages_context.html" target="_top" xlink:title="Contains information about languages. ">
<polygon fill="none" stroke="black" points="371.552,-35.5 371.552,-139.5 527.464,-139.5 527.464,-35.5 371.552,-35.5"/>
<text text-anchor="start" x="379.552" y="-127.5" font-family="Helvetica,sans-Serif" font-size="10.00">ExampleViewModel.Languages</text>
<text text-anchor="middle" x="449.508" y="-117.5" font-family="Helvetica,sans-Serif" font-size="10.00">Context</text>
<polyline fill="none" stroke="black" points="371.552,-111.5 527.464,-111.5 "/>
<text text-anchor="start" x="379.552" y="-99.5" font-family="Helvetica,sans-Serif" font-size="10.00">+ currentLanguage</text>
<text text-anchor="start" x="379.552" y="-89.5" font-family="Helvetica,sans-Serif" font-size="10.00">+ currentLanguageIsLoaded</text>
<text text-anchor="start" x="379.552" y="-79.5" font-family="Helvetica,sans-Serif" font-size="10.00">+ currentLetters</text>
<text text-anchor="start" x="379.552" y="-69.5" font-family="Helvetica,sans-Serif" font-size="10.00">+ languageLoadProgress</text>
<text text-anchor="start" x="379.552" y="-59.5" font-family="Helvetica,sans-Serif" font-size="10.00">+ languageNames</text>
<polyline fill="none" stroke="black" points="371.552,-53.5 527.464,-53.5 "/>
<text text-anchor="start" x="379.552" y="-41.5" font-family="Helvetica,sans-Serif" font-size="10.00">+ ChangeLanguage()</text>
</a>
</g>
</g>
<!-- Node1&#45;&gt;Node4 -->
<g id="edge3" class="edge"><title>Node1&#45;&gt;Node4</title>
<path fill="none" stroke="midnightblue" d="M449.508,-201.127C449.508,-182.606 449.508,-159.782 449.508,-139.534"/>
<polygon fill="none" stroke="midnightblue" points="446.008,-201.205 449.508,-211.205 453.008,-201.205 446.008,-201.205"/>
</g>
<!-- Node5 -->
<g id="node5" class="node"><title>Node5</title>
<g id="a_node5"><a xlink:href="class_thinksquirrel_1_1_word_game_builder_example_1_1_example_view_model_1_1_player_context.html" target="_top" xlink:title="Contains information about the player. ">
<polygon fill="none" stroke="black" points="545.894,-0.5 545.894,-174.5 715.122,-174.5 715.122,-0.5 545.894,-0.5"/>
<text text-anchor="middle" x="630.508" y="-162.5" font-family="Helvetica,sans-Serif" font-size="10.00">ExampleViewModel.PlayerContext</text>
<polyline fill="none" stroke="black" points="545.894,-156.5 715.122,-156.5 "/>
<text text-anchor="start" x="553.894" y="-144.5" font-family="Helvetica,sans-Serif" font-size="10.00">+ bestWord</text>
<text text-anchor="start" x="553.894" y="-134.5" font-family="Helvetica,sans-Serif" font-size="10.00">+ bestWordScore</text>
<text text-anchor="start" x="553.894" y="-124.5" font-family="Helvetica,sans-Serif" font-size="10.00">+ hasSelection</text>
<text text-anchor="start" x="553.894" y="-114.5" font-family="Helvetica,sans-Serif" font-size="10.00">+ highScore</text>
<text text-anchor="start" x="553.894" y="-104.5" font-family="Helvetica,sans-Serif" font-size="10.00">+ inputEnabled</text>
<text text-anchor="start" x="553.894" y="-94.5" font-family="Helvetica,sans-Serif" font-size="10.00">+ lastWord</text>
<text text-anchor="start" x="553.894" y="-84.5" font-family="Helvetica,sans-Serif" font-size="10.00">+ lastWordScore</text>
<text text-anchor="start" x="553.894" y="-74.5" font-family="Helvetica,sans-Serif" font-size="10.00">+ multiplyByPermutations</text>
<text text-anchor="start" x="553.894" y="-64.5" font-family="Helvetica,sans-Serif" font-size="10.00">+ orderedResult</text>
<text text-anchor="start" x="553.894" y="-54.5" font-family="Helvetica,sans-Serif" font-size="10.00">+ permutationResult</text>
<text text-anchor="start" x="553.894" y="-44.5" font-family="Helvetica,sans-Serif" font-size="10.00">+ score</text>
<polyline fill="none" stroke="black" points="545.894,-38.5 715.122,-38.5 "/>
<text text-anchor="start" x="553.894" y="-26.5" font-family="Helvetica,sans-Serif" font-size="10.00">+ PlayerContext()</text>
<text text-anchor="start" x="553.894" y="-16.5" font-family="Helvetica,sans-Serif" font-size="10.00">+ ClearSelection()</text>
<text text-anchor="start" x="553.894" y="-6.5" font-family="Helvetica,sans-Serif" font-size="10.00">+ SubmitWord()</text>
</a>
</g>
</g>
<!-- Node1&#45;&gt;Node5 -->
<g id="edge4" class="edge"><title>Node1&#45;&gt;Node5</title>
<path fill="none" stroke="midnightblue" d="M496.441,-205.357C509.645,-195.894 523.85,-185.308 536.508,-175 539.603,-172.479 542.728,-169.885 545.863,-167.241"/>
<polygon fill="none" stroke="midnightblue" points="494.061,-202.754 487.935,-211.399 498.115,-208.461 494.061,-202.754"/>
</g>
<!-- Node6 -->
<g id="node6" class="node"><title>Node6</title>
<g id="a_node6"><a xlink:href="class_thinksquirrel_1_1_word_game_builder_example_1_1_example_view_model_1_1_word_result_context.html" target="_top" xlink:title="Contains information about a word check. ">
<polygon fill="none" stroke="black" points="733.268,-35.5 733.268,-139.5 891.748,-139.5 891.748,-35.5 733.268,-35.5"/>
<text text-anchor="start" x="741.268" y="-127.5" font-family="Helvetica,sans-Serif" font-size="10.00">ExampleViewModel.WordResult</text>
<text text-anchor="middle" x="812.508" y="-117.5" font-family="Helvetica,sans-Serif" font-size="10.00">Context</text>
<polyline fill="none" stroke="black" points="733.268,-111.5 891.748,-111.5 "/>
<text text-anchor="start" x="741.268" y="-99.5" font-family="Helvetica,sans-Serif" font-size="10.00">+ allWords</text>
<text text-anchor="start" x="741.268" y="-89.5" font-family="Helvetica,sans-Serif" font-size="10.00">+ hasValue</text>
<text text-anchor="start" x="741.268" y="-79.5" font-family="Helvetica,sans-Serif" font-size="10.00">+ input</text>
<text text-anchor="start" x="741.268" y="-69.5" font-family="Helvetica,sans-Serif" font-size="10.00">+ isValid</text>
<text text-anchor="start" x="741.268" y="-59.5" font-family="Helvetica,sans-Serif" font-size="10.00">+ score</text>
<polyline fill="none" stroke="black" points="733.268,-53.5 891.748,-53.5 "/>
<text text-anchor="middle" x="812.508" y="-41.5" font-family="Helvetica,sans-Serif" font-size="10.00"> </text>
</a>
</g>
</g>
<!-- Node1&#45;&gt;Node6 -->
<g id="edge5" class="edge"><title>Node1&#45;&gt;Node6</title>
<path fill="none" stroke="midnightblue" d="M534.932,-230.317C591.517,-222.701 665.84,-207.061 724.508,-175 741.051,-165.96 756.619,-152.913 769.927,-139.683"/>
<polygon fill="none" stroke="midnightblue" points="534.409,-226.855 524.938,-231.604 535.303,-233.798 534.409,-226.855"/>
</g>
</g>
</svg>
