<?xml version="1.0" encoding="UTF-8" standalone="no"?>
<!DOCTYPE svg PUBLIC "-//W3C//DTD SVG 1.1//EN"
 "http://www.w3.org/Graphics/SVG/1.1/DTD/svg11.dtd">
<!-- Generated by graphviz version 2.38.0 (20140413.2041)
 -->
<!-- Title: LetterTileUIInput Pages: 1 -->
<svg width="960pt" height="415pt"
 viewBox="0.00 0.00 959.63 415.00" xmlns="http://www.w3.org/2000/svg" xmlns:xlink="http://www.w3.org/1999/xlink">
<g id="graph0" class="graph" transform="scale(1 1) rotate(0) translate(4 411)">
<title>LetterTileUIInput</title>
<!-- Node1 -->
<g id="node1" class="node"><title>Node1</title>
<polygon fill="#bfbfbf" stroke="black" points="484.274,-0.5 484.274,-54.5 573.834,-54.5 573.834,-0.5 484.274,-0.5"/>
<text text-anchor="middle" x="529.054" y="-42.5" font-family="Helvetica,sans-Serif" font-size="10.00">LetterTileUIInput</text>
<polyline fill="none" stroke="black" points="484.274,-36.5 573.834,-36.5 "/>
<text text-anchor="middle" x="529.054" y="-24.5" font-family="Helvetica,sans-Serif" font-size="10.00"> </text>
<polyline fill="none" stroke="black" points="484.274,-18.5 573.834,-18.5 "/>
<text text-anchor="middle" x="529.054" y="-6.5" font-family="Helvetica,sans-Serif" font-size="10.00"> </text>
</g>
<!-- Node2 -->
<g id="node2" class="node"><title>Node2</title>
<g id="a_node2"><a xlink:href="class_thinksquirrel_1_1_word_game_builder_1_1_w_g_b_base.html" target="_top" xlink:title="The base class for all Word Game Builder components. ">
<polygon fill="none" stroke="black" points="0,-91.5 0,-315.5 202.108,-315.5 202.108,-91.5 0,-91.5"/>
<text text-anchor="middle" x="101.054" y="-303.5" font-family="Helvetica,sans-Serif" font-size="10.00">WGBBase</text>
<polyline fill="none" stroke="black" points="0,-297.5 202.108,-297.5 "/>
<text text-anchor="start" x="8" y="-285.5" font-family="Helvetica,sans-Serif" font-size="10.00">+ userData</text>
<polyline fill="none" stroke="black" points="0,-279.5 202.108,-279.5 "/>
<text text-anchor="start" x="8" y="-267.5" font-family="Helvetica,sans-Serif" font-size="10.00">+ GetComponentFromInterface&lt; T &gt;()</text>
<text text-anchor="start" x="8" y="-257.5" font-family="Helvetica,sans-Serif" font-size="10.00">+ GetComponentInChildrenFrom</text>
<text text-anchor="start" x="8" y="-247.5" font-family="Helvetica,sans-Serif" font-size="10.00">Interface&lt; T &gt;()</text>
<text text-anchor="start" x="8" y="-237.5" font-family="Helvetica,sans-Serif" font-size="10.00">+ GetComponentsFromInterface&lt; T &gt;()</text>
<text text-anchor="start" x="8" y="-227.5" font-family="Helvetica,sans-Serif" font-size="10.00">+ GetComponentsInChildrenFrom</text>
<text text-anchor="start" x="8" y="-217.5" font-family="Helvetica,sans-Serif" font-size="10.00">Interface&lt; T &gt;()</text>
<text text-anchor="start" x="8" y="-207.5" font-family="Helvetica,sans-Serif" font-size="10.00">+ FindObjectOfTypeFromInterface&lt; T &gt;()</text>
<text text-anchor="start" x="8" y="-197.5" font-family="Helvetica,sans-Serif" font-size="10.00">+ FindObjectsOfTypeFromInterface&lt; T &gt;()</text>
<text text-anchor="start" x="8" y="-187.5" font-family="Helvetica,sans-Serif" font-size="10.00">+ InstantiateFromInterface&lt; T &gt;()</text>
<text text-anchor="start" x="8" y="-177.5" font-family="Helvetica,sans-Serif" font-size="10.00">+ InstantiateFromInterface&lt; T &gt;()</text>
<text text-anchor="start" x="8" y="-167.5" font-family="Helvetica,sans-Serif" font-size="10.00">+ Log()</text>
<text text-anchor="start" x="8" y="-157.5" font-family="Helvetica,sans-Serif" font-size="10.00">+ Log()</text>
<text text-anchor="start" x="8" y="-147.5" font-family="Helvetica,sans-Serif" font-size="10.00">+ LogError()</text>
<text text-anchor="start" x="8" y="-137.5" font-family="Helvetica,sans-Serif" font-size="10.00">+ LogError()</text>
<text text-anchor="start" x="8" y="-127.5" font-family="Helvetica,sans-Serif" font-size="10.00">+ LogException()</text>
<text text-anchor="start" x="8" y="-117.5" font-family="Helvetica,sans-Serif" font-size="10.00">+ LogException()</text>
<text text-anchor="start" x="8" y="-107.5" font-family="Helvetica,sans-Serif" font-size="10.00">+ LogWarning()</text>
<text text-anchor="start" x="8" y="-97.5" font-family="Helvetica,sans-Serif" font-size="10.00">+ LogWarning()</text>
</a>
</g>
</g>
<!-- Node2&#45;&gt;Node1 -->
<g id="edge1" class="edge"><title>Node2&#45;&gt;Node1</title>
<path fill="none" stroke="midnightblue" d="M210.774,-91.1512C210.867,-91.1007 210.961,-91.0503 211.054,-91 299.769,-43.3247 419.894,-31.7637 484.131,-29.1221"/>
<polygon fill="none" stroke="midnightblue" points="209.064,-88.0966 202.167,-96.1387 212.574,-94.1532 209.064,-88.0966"/>
</g>
<!-- Node3 -->
<g id="node3" class="node"><title>Node3</title>
<polygon fill="none" stroke="#bfbfbf" points="58.0322,-352.5 58.0322,-406.5 144.076,-406.5 144.076,-352.5 58.0322,-352.5"/>
<text text-anchor="middle" x="101.054" y="-394.5" font-family="Helvetica,sans-Serif" font-size="10.00">MonoBehaviour</text>
<polyline fill="none" stroke="#bfbfbf" points="58.0322,-388.5 144.076,-388.5 "/>
<text text-anchor="middle" x="101.054" y="-376.5" font-family="Helvetica,sans-Serif" font-size="10.00"> </text>
<polyline fill="none" stroke="#bfbfbf" points="58.0322,-370.5 144.076,-370.5 "/>
<text text-anchor="middle" x="101.054" y="-358.5" font-family="Helvetica,sans-Serif" font-size="10.00"> </text>
</g>
<!-- Node3&#45;&gt;Node2 -->
<g id="edge2" class="edge"><title>Node3&#45;&gt;Node2</title>
<path fill="none" stroke="midnightblue" d="M101.054,-342.306C101.054,-334.157 101.054,-325.091 101.054,-315.611"/>
<polygon fill="none" stroke="midnightblue" points="97.5543,-342.45 101.054,-352.45 104.554,-342.45 97.5543,-342.45"/>
</g>
<!-- Node4 -->
<g id="node4" class="node"><title>Node4</title>
<polygon fill="none" stroke="#bfbfbf" points="219.7,-176.5 219.7,-230.5 332.409,-230.5 332.409,-176.5 219.7,-176.5"/>
<text text-anchor="middle" x="276.054" y="-218.5" font-family="Helvetica,sans-Serif" font-size="10.00">IEventSystemHandler</text>
<polyline fill="none" stroke="#bfbfbf" points="219.7,-212.5 332.409,-212.5 "/>
<text text-anchor="middle" x="276.054" y="-200.5" font-family="Helvetica,sans-Serif" font-size="10.00"> </text>
<polyline fill="none" stroke="#bfbfbf" points="219.7,-194.5 332.409,-194.5 "/>
<text text-anchor="middle" x="276.054" y="-182.5" font-family="Helvetica,sans-Serif" font-size="10.00"> </text>
</g>
<!-- Node4&#45;&gt;Node1 -->
<g id="edge3" class="edge"><title>Node4&#45;&gt;Node1</title>
<path fill="none" stroke="midnightblue" d="M288.914,-166.939C299.455,-142.431 316.637,-110.825 341.054,-91 382.576,-57.2871 443.02,-41.47 484.079,-34.2469"/>
<polygon fill="none" stroke="midnightblue" points="285.639,-165.7 285.066,-176.279 292.111,-168.366 285.639,-165.7"/>
</g>
<!-- Node5 -->
<g id="node5" class="node"><title>Node5</title>
<polygon fill="none" stroke="#bfbfbf" points="350.53,-176.5 350.53,-230.5 461.579,-230.5 461.579,-176.5 350.53,-176.5"/>
<text text-anchor="middle" x="406.054" y="-218.5" font-family="Helvetica,sans-Serif" font-size="10.00">IPointerDownHandler</text>
<polyline fill="none" stroke="#bfbfbf" points="350.53,-212.5 461.579,-212.5 "/>
<text text-anchor="middle" x="406.054" y="-200.5" font-family="Helvetica,sans-Serif" font-size="10.00"> </text>
<polyline fill="none" stroke="#bfbfbf" points="350.53,-194.5 461.579,-194.5 "/>
<text text-anchor="middle" x="406.054" y="-182.5" font-family="Helvetica,sans-Serif" font-size="10.00"> </text>
</g>
<!-- Node5&#45;&gt;Node1 -->
<g id="edge4" class="edge"><title>Node5&#45;&gt;Node1</title>
<path fill="none" stroke="midnightblue" d="M423.96,-167.339C436.082,-144.746 453.11,-115.205 471.054,-91 480.399,-78.3948 491.949,-65.5128 502.276,-54.7443"/>
<polygon fill="none" stroke="midnightblue" points="420.828,-165.775 419.239,-176.25 427.013,-169.052 420.828,-165.775"/>
</g>
<!-- Node6 -->
<g id="node6" class="node"><title>Node6</title>
<polygon fill="none" stroke="#bfbfbf" points="479.921,-176.5 479.921,-230.5 578.187,-230.5 578.187,-176.5 479.921,-176.5"/>
<text text-anchor="middle" x="529.054" y="-218.5" font-family="Helvetica,sans-Serif" font-size="10.00">IPointerUpHandler</text>
<polyline fill="none" stroke="#bfbfbf" points="479.921,-212.5 578.187,-212.5 "/>
<text text-anchor="middle" x="529.054" y="-200.5" font-family="Helvetica,sans-Serif" font-size="10.00"> </text>
<polyline fill="none" stroke="#bfbfbf" points="479.921,-194.5 578.187,-194.5 "/>
<text text-anchor="middle" x="529.054" y="-182.5" font-family="Helvetica,sans-Serif" font-size="10.00"> </text>
</g>
<!-- Node6&#45;&gt;Node1 -->
<g id="edge5" class="edge"><title>Node6&#45;&gt;Node1</title>
<path fill="none" stroke="midnightblue" d="M529.054,-166.219C529.054,-132.925 529.054,-84.4024 529.054,-54.7276"/>
<polygon fill="none" stroke="midnightblue" points="525.554,-166.45 529.054,-176.45 532.554,-166.45 525.554,-166.45"/>
</g>
<!-- Node7 -->
<g id="node7" class="node"><title>Node7</title>
<polygon fill="none" stroke="#bfbfbf" points="596.362,-176.5 596.362,-230.5 705.746,-230.5 705.746,-176.5 596.362,-176.5"/>
<text text-anchor="middle" x="651.054" y="-218.5" font-family="Helvetica,sans-Serif" font-size="10.00">IPointerEnterHandler</text>
<polyline fill="none" stroke="#bfbfbf" points="596.362,-212.5 705.746,-212.5 "/>
<text text-anchor="middle" x="651.054" y="-200.5" font-family="Helvetica,sans-Serif" font-size="10.00"> </text>
<polyline fill="none" stroke="#bfbfbf" points="596.362,-194.5 705.746,-194.5 "/>
<text text-anchor="middle" x="651.054" y="-182.5" font-family="Helvetica,sans-Serif" font-size="10.00"> </text>
</g>
<!-- Node7&#45;&gt;Node1 -->
<g id="edge6" class="edge"><title>Node7&#45;&gt;Node1</title>
<path fill="none" stroke="midnightblue" d="M633.509,-167.316C621.607,-144.714 604.848,-115.171 587.054,-91 577.752,-78.3634 566.209,-65.476 555.876,-54.712"/>
<polygon fill="none" stroke="midnightblue" points="630.425,-168.972 638.142,-176.231 636.636,-165.744 630.425,-168.972"/>
</g>
<!-- Node8 -->
<g id="node8" class="node"><title>Node8</title>
<polygon fill="none" stroke="#bfbfbf" points="723.978,-176.5 723.978,-230.5 826.13,-230.5 826.13,-176.5 723.978,-176.5"/>
<text text-anchor="middle" x="775.054" y="-218.5" font-family="Helvetica,sans-Serif" font-size="10.00">IPointerExitHandler</text>
<polyline fill="none" stroke="#bfbfbf" points="723.978,-212.5 826.13,-212.5 "/>
<text text-anchor="middle" x="775.054" y="-200.5" font-family="Helvetica,sans-Serif" font-size="10.00"> </text>
<polyline fill="none" stroke="#bfbfbf" points="723.978,-194.5 826.13,-194.5 "/>
<text text-anchor="middle" x="775.054" y="-182.5" font-family="Helvetica,sans-Serif" font-size="10.00"> </text>
</g>
<!-- Node8&#45;&gt;Node1 -->
<g id="edge7" class="edge"><title>Node8&#45;&gt;Node1</title>
<path fill="none" stroke="midnightblue" d="M763.7,-166.655C754.261,-142.213 738.537,-110.805 715.054,-91 674.691,-56.9578 615.019,-41.2266 574.217,-34.1125"/>
<polygon fill="none" stroke="midnightblue" points="760.514,-168.133 767.247,-176.313 767.085,-165.719 760.514,-168.133"/>
</g>
<!-- Node9 -->
<g id="node9" class="node"><title>Node9</title>
<polygon fill="none" stroke="#bfbfbf" points="844.48,-176.5 844.48,-230.5 951.628,-230.5 951.628,-176.5 844.48,-176.5"/>
<text text-anchor="middle" x="898.054" y="-218.5" font-family="Helvetica,sans-Serif" font-size="10.00">IPointerClickHandler</text>
<polyline fill="none" stroke="#bfbfbf" points="844.48,-212.5 951.628,-212.5 "/>
<text text-anchor="middle" x="898.054" y="-200.5" font-family="Helvetica,sans-Serif" font-size="10.00"> </text>
<polyline fill="none" stroke="#bfbfbf" points="844.48,-194.5 951.628,-194.5 "/>
<text text-anchor="middle" x="898.054" y="-182.5" font-family="Helvetica,sans-Serif" font-size="10.00"> </text>
</g>
<!-- Node9&#45;&gt;Node1 -->
<g id="edge8" class="edge"><title>Node9&#45;&gt;Node1</title>
<path fill="none" stroke="midnightblue" d="M886.735,-166.513C877,-141.509 860.449,-109.477 835.054,-91 793.895,-61.0539 648.519,-41.4156 573.929,-33.0728"/>
<polygon fill="none" stroke="midnightblue" points="883.509,-167.881 890.256,-176.05 890.076,-165.457 883.509,-167.881"/>
</g>
</g>
</svg>
