<?xml version="1.0" encoding="UTF-8" standalone="no"?>
<!DOCTYPE svg PUBLIC "-//W3C//DTD SVG 1.1//EN"
 "http://www.w3.org/Graphics/SVG/1.1/DTD/svg11.dtd">
<!-- Generated by graphviz version 2.38.0 (20140413.2041)
 -->
<!-- Title: AsyncTask Pages: 1 -->
<svg width="136pt" height="244pt"
 viewBox="0.00 0.00 136.18 244.00" xmlns="http://www.w3.org/2000/svg" xmlns:xlink="http://www.w3.org/1999/xlink">
<g id="graph0" class="graph" transform="scale(1 1) rotate(0) translate(4 240)">
<title>AsyncTask</title>
<!-- Node1 -->
<g id="node1" class="node"><title>Node1</title>
<polygon fill="#bfbfbf" stroke="black" points="0,-0.5 0,-144.5 128.183,-144.5 128.183,-0.5 0,-0.5"/>
<text text-anchor="middle" x="64.0913" y="-132.5" font-family="Helvetica,sans-Serif" font-size="10.00">AsyncTask</text>
<polyline fill="none" stroke="black" points="0,-126.5 128.183,-126.5 "/>
<text text-anchor="start" x="8" y="-114.5" font-family="Helvetica,sans-Serif" font-size="10.00">+ hasEnded</text>
<text text-anchor="start" x="8" y="-104.5" font-family="Helvetica,sans-Serif" font-size="10.00">+ isFailed</text>
<text text-anchor="start" x="8" y="-94.5" font-family="Helvetica,sans-Serif" font-size="10.00">+ isSucceeded</text>
<text text-anchor="start" x="8" y="-84.5" font-family="Helvetica,sans-Serif" font-size="10.00">+ shouldAbort</text>
<polyline fill="none" stroke="black" points="0,-78.5 128.183,-78.5 "/>
<text text-anchor="start" x="8" y="-66.5" font-family="Helvetica,sans-Serif" font-size="10.00">+ Abort()</text>
<text text-anchor="start" x="8" y="-56.5" font-family="Helvetica,sans-Serif" font-size="10.00">+ AbortWait()</text>
<text text-anchor="start" x="8" y="-46.5" font-family="Helvetica,sans-Serif" font-size="10.00">+ AbortWaitForSeconds()</text>
<text text-anchor="start" x="8" y="-36.5" font-family="Helvetica,sans-Serif" font-size="10.00">+ Dispose()</text>
<text text-anchor="start" x="8" y="-26.5" font-family="Helvetica,sans-Serif" font-size="10.00">+ SetReusable()</text>
<text text-anchor="start" x="8" y="-16.5" font-family="Helvetica,sans-Serif" font-size="10.00">+ Wait()</text>
<text text-anchor="start" x="8" y="-6.5" font-family="Helvetica,sans-Serif" font-size="10.00">+ WaitForSeconds()</text>
</g>
<!-- Node2 -->
<g id="node2" class="node"><title>Node2</title>
<polygon fill="none" stroke="#bfbfbf" points="29.9658,-181.5 29.9658,-235.5 98.2168,-235.5 98.2168,-181.5 29.9658,-181.5"/>
<text text-anchor="middle" x="64.0913" y="-223.5" font-family="Helvetica,sans-Serif" font-size="10.00">IDisposable</text>
<polyline fill="none" stroke="#bfbfbf" points="29.9658,-217.5 98.2168,-217.5 "/>
<text text-anchor="middle" x="64.0913" y="-205.5" font-family="Helvetica,sans-Serif" font-size="10.00"> </text>
<polyline fill="none" stroke="#bfbfbf" points="29.9658,-199.5 98.2168,-199.5 "/>
<text text-anchor="middle" x="64.0913" y="-187.5" font-family="Helvetica,sans-Serif" font-size="10.00"> </text>
</g>
<!-- Node2&#45;&gt;Node1 -->
<g id="edge1" class="edge"><title>Node2&#45;&gt;Node1</title>
<path fill="none" stroke="midnightblue" d="M64.0913,-171.311C64.0913,-163.007 64.0913,-153.895 64.0913,-144.678"/>
<polygon fill="none" stroke="midnightblue" points="60.5914,-171.345 64.0913,-181.345 67.5914,-171.345 60.5914,-171.345"/>
</g>
</g>
</svg>
