<?xml version="1.0" encoding="UTF-8" standalone="no"?>
<!DOCTYPE svg PUBLIC "-//W3C//DTD SVG 1.1//EN"
 "http://www.w3.org/Graphics/SVG/1.1/DTD/svg11.dtd">
<!-- Generated by graphviz version 2.38.0 (20140413.2041)
 -->
<!-- Title: WGBBase Pages: 1 -->
<svg width="2467pt" height="635pt"
 viewBox="0.00 0.00 2466.97 635.00" xmlns="http://www.w3.org/2000/svg" xmlns:xlink="http://www.w3.org/1999/xlink">
<g id="graph0" class="graph" transform="scale(1 1) rotate(0) translate(4 631)">
<title>WGBBase</title>
<!-- Node1 -->
<g id="node1" class="node"><title>Node1</title>
<polygon fill="#bfbfbf" stroke="black" points="1211.39,-311.5 1211.39,-535.5 1413.5,-535.5 1413.5,-311.5 1211.39,-311.5"/>
<text text-anchor="middle" x="1312.44" y="-523.5" font-family="Helvetica,sans-Serif" font-size="10.00">WGBBase</text>
<polyline fill="none" stroke="black" points="1211.39,-517.5 1413.5,-517.5 "/>
<text text-anchor="start" x="1219.39" y="-505.5" font-family="Helvetica,sans-Serif" font-size="10.00">+ userData</text>
<polyline fill="none" stroke="black" points="1211.39,-499.5 1413.5,-499.5 "/>
<text text-anchor="start" x="1219.39" y="-487.5" font-family="Helvetica,sans-Serif" font-size="10.00">+ GetComponentFromInterface&lt; T &gt;()</text>
<text text-anchor="start" x="1219.39" y="-477.5" font-family="Helvetica,sans-Serif" font-size="10.00">+ GetComponentInChildrenFrom</text>
<text text-anchor="start" x="1219.39" y="-467.5" font-family="Helvetica,sans-Serif" font-size="10.00">Interface&lt; T &gt;()</text>
<text text-anchor="start" x="1219.39" y="-457.5" font-family="Helvetica,sans-Serif" font-size="10.00">+ GetComponentsFromInterface&lt; T &gt;()</text>
<text text-anchor="start" x="1219.39" y="-447.5" font-family="Helvetica,sans-Serif" font-size="10.00">+ GetComponentsInChildrenFrom</text>
<text text-anchor="start" x="1219.39" y="-437.5" font-family="Helvetica,sans-Serif" font-size="10.00">Interface&lt; T &gt;()</text>
<text text-anchor="start" x="1219.39" y="-427.5" font-family="Helvetica,sans-Serif" font-size="10.00">+ FindObjectOfTypeFromInterface&lt; T &gt;()</text>
<text text-anchor="start" x="1219.39" y="-417.5" font-family="Helvetica,sans-Serif" font-size="10.00">+ FindObjectsOfTypeFromInterface&lt; T &gt;()</text>
<text text-anchor="start" x="1219.39" y="-407.5" font-family="Helvetica,sans-Serif" font-size="10.00">+ InstantiateFromInterface&lt; T &gt;()</text>
<text text-anchor="start" x="1219.39" y="-397.5" font-family="Helvetica,sans-Serif" font-size="10.00">+ InstantiateFromInterface&lt; T &gt;()</text>
<text text-anchor="start" x="1219.39" y="-387.5" font-family="Helvetica,sans-Serif" font-size="10.00">+ Log()</text>
<text text-anchor="start" x="1219.39" y="-377.5" font-family="Helvetica,sans-Serif" font-size="10.00">+ Log()</text>
<text text-anchor="start" x="1219.39" y="-367.5" font-family="Helvetica,sans-Serif" font-size="10.00">+ LogError()</text>
<text text-anchor="start" x="1219.39" y="-357.5" font-family="Helvetica,sans-Serif" font-size="10.00">+ LogError()</text>
<text text-anchor="start" x="1219.39" y="-347.5" font-family="Helvetica,sans-Serif" font-size="10.00">+ LogException()</text>
<text text-anchor="start" x="1219.39" y="-337.5" font-family="Helvetica,sans-Serif" font-size="10.00">+ LogException()</text>
<text text-anchor="start" x="1219.39" y="-327.5" font-family="Helvetica,sans-Serif" font-size="10.00">+ LogWarning()</text>
<text text-anchor="start" x="1219.39" y="-317.5" font-family="Helvetica,sans-Serif" font-size="10.00">+ LogWarning()</text>
</g>
<!-- Node3 -->
<g id="node3" class="node"><title>Node3</title>
<g id="a_node3"><a xlink:href="class_thinksquirrel_1_1_word_game_builder_1_1_gameplay_1_1_tile_pool.html" target="_top" xlink:title="A class that manages an instance pool of letter tiles. ">
<polygon fill="none" stroke="black" points="0,-5.5 0,-269.5 116.884,-269.5 116.884,-5.5 0,-5.5"/>
<text text-anchor="middle" x="58.4419" y="-257.5" font-family="Helvetica,sans-Serif" font-size="10.00">TilePool</text>
<polyline fill="none" stroke="black" points="0,-251.5 116.884,-251.5 "/>
<text text-anchor="start" x="8" y="-239.5" font-family="Helvetica,sans-Serif" font-size="10.00">+ blankLetterCount</text>
<text text-anchor="start" x="8" y="-229.5" font-family="Helvetica,sans-Serif" font-size="10.00">+ Count</text>
<text text-anchor="start" x="8" y="-219.5" font-family="Helvetica,sans-Serif" font-size="10.00">+ IsReadOnly</text>
<text text-anchor="start" x="8" y="-209.5" font-family="Helvetica,sans-Serif" font-size="10.00">+ language</text>
<text text-anchor="start" x="8" y="-199.5" font-family="Helvetica,sans-Serif" font-size="10.00">+ languageIdentifier</text>
<text text-anchor="start" x="8" y="-189.5" font-family="Helvetica,sans-Serif" font-size="10.00">+ lastDistributionCount</text>
<text text-anchor="start" x="8" y="-179.5" font-family="Helvetica,sans-Serif" font-size="10.00">+ onTileDistribution</text>
<text text-anchor="start" x="8" y="-169.5" font-family="Helvetica,sans-Serif" font-size="10.00">+ poolMultiplier</text>
<text text-anchor="start" x="8" y="-159.5" font-family="Helvetica,sans-Serif" font-size="10.00">+ this[int index]</text>
<text text-anchor="start" x="8" y="-149.5" font-family="Helvetica,sans-Serif" font-size="10.00">+ tileDistribution</text>
<text text-anchor="start" x="8" y="-139.5" font-family="Helvetica,sans-Serif" font-size="10.00">+ tileDistributionCount</text>
<text text-anchor="start" x="8" y="-129.5" font-family="Helvetica,sans-Serif" font-size="10.00">+ tilePrefab</text>
<polyline fill="none" stroke="black" points="0,-123.5 116.884,-123.5 "/>
<text text-anchor="start" x="8" y="-111.5" font-family="Helvetica,sans-Serif" font-size="10.00">+ Add()</text>
<text text-anchor="start" x="8" y="-101.5" font-family="Helvetica,sans-Serif" font-size="10.00">+ AddLetter()</text>
<text text-anchor="start" x="8" y="-91.5" font-family="Helvetica,sans-Serif" font-size="10.00">+ Clear()</text>
<text text-anchor="start" x="8" y="-81.5" font-family="Helvetica,sans-Serif" font-size="10.00">+ Contains()</text>
<text text-anchor="start" x="8" y="-71.5" font-family="Helvetica,sans-Serif" font-size="10.00">+ Contains()</text>
<text text-anchor="start" x="8" y="-61.5" font-family="Helvetica,sans-Serif" font-size="10.00">+ CopyTo()</text>
<text text-anchor="start" x="8" y="-51.5" font-family="Helvetica,sans-Serif" font-size="10.00">+ CreateTile()</text>
<text text-anchor="start" x="8" y="-41.5" font-family="Helvetica,sans-Serif" font-size="10.00">+ CreateTilePool()</text>
<text text-anchor="start" x="8" y="-31.5" font-family="Helvetica,sans-Serif" font-size="10.00">+ CreateTilePool()</text>
<text text-anchor="start" x="8" y="-21.5" font-family="Helvetica,sans-Serif" font-size="10.00">+ DestroyAllTiles()</text>
<text text-anchor="start" x="8" y="-11.5" font-family="Helvetica,sans-Serif" font-size="10.00">and 20 more...</text>
</a>
</g>
</g>
<!-- Node1&#45;&gt;Node3 -->
<g id="edge2" class="edge"><title>Node1&#45;&gt;Node3</title>
<path fill="none" stroke="midnightblue" d="M1200.85,-421.77C939.686,-418.02 297.822,-396.363 126.442,-275 123.201,-272.705 120.106,-270.21 117.152,-267.547"/>
<polygon fill="none" stroke="midnightblue" points="1201.07,-425.273 1211.12,-421.911 1201.17,-418.274 1201.07,-425.273"/>
</g>
<!-- Node4 -->
<g id="node4" class="node"><title>Node4</title>
<g id="a_node4"><a xlink:href="class_thinksquirrel_1_1_word_game_builder_1_1_gameplay_1_1_wildcard_tile_manager.html" target="_top" xlink:title="A manager class for selecting wildcard tiles. ">
<polygon fill="none" stroke="black" points="135.353,-110.5 135.353,-164.5 253.531,-164.5 253.531,-110.5 135.353,-110.5"/>
<text text-anchor="middle" x="194.442" y="-152.5" font-family="Helvetica,sans-Serif" font-size="10.00">WildcardTileManager</text>
<polyline fill="none" stroke="black" points="135.353,-146.5 253.531,-146.5 "/>
<text text-anchor="start" x="143.353" y="-134.5" font-family="Helvetica,sans-Serif" font-size="10.00">+ onWildcardTileSelect</text>
<polyline fill="none" stroke="black" points="135.353,-128.5 253.531,-128.5 "/>
<text text-anchor="start" x="143.353" y="-116.5" font-family="Helvetica,sans-Serif" font-size="10.00">+ SelectWildcardTile()</text>
</a>
</g>
</g>
<!-- Node1&#45;&gt;Node4 -->
<g id="edge3" class="edge"><title>Node1&#45;&gt;Node4</title>
<path fill="none" stroke="midnightblue" d="M1201.18,-419.725C962.515,-411.759 410.997,-381.974 262.442,-275 225.595,-248.467 207.599,-196.223 199.734,-164.625"/>
<polygon fill="none" stroke="midnightblue" points="1201.16,-423.226 1211.27,-420.055 1201.39,-416.23 1201.16,-423.226"/>
</g>
<!-- Node5 -->
<g id="node5" class="node"><title>Node5</title>
<g id="a_node5"><a xlink:href="class_thinksquirrel_1_1_word_game_builder_1_1_gameplay_1_1_word_game_agent.html" target="_top" xlink:title="Represents a word game AI agent. The agent is multithreaded and supports automatic selection/submissi...">
<polygon fill="none" stroke="black" points="271.616,-45.5 271.616,-229.5 401.268,-229.5 401.268,-45.5 271.616,-45.5"/>
<text text-anchor="middle" x="336.442" y="-217.5" font-family="Helvetica,sans-Serif" font-size="10.00">WordGameAgent</text>
<polyline fill="none" stroke="black" points="271.616,-211.5 401.268,-211.5 "/>
<text text-anchor="start" x="279.616" y="-199.5" font-family="Helvetica,sans-Serif" font-size="10.00">+ autoSelectTime</text>
<text text-anchor="start" x="279.616" y="-189.5" font-family="Helvetica,sans-Serif" font-size="10.00">+ autoSelectWord</text>
<text text-anchor="start" x="279.616" y="-179.5" font-family="Helvetica,sans-Serif" font-size="10.00">+ autoSubmitTime</text>
<text text-anchor="start" x="279.616" y="-169.5" font-family="Helvetica,sans-Serif" font-size="10.00">+ autoSubmitWord</text>
<text text-anchor="start" x="279.616" y="-159.5" font-family="Helvetica,sans-Serif" font-size="10.00">+ bias</text>
<text text-anchor="start" x="279.616" y="-149.5" font-family="Helvetica,sans-Serif" font-size="10.00">+ customWildcardScore</text>
<text text-anchor="start" x="279.616" y="-139.5" font-family="Helvetica,sans-Serif" font-size="10.00">+ customWildcardScores</text>
<text text-anchor="start" x="279.616" y="-129.5" font-family="Helvetica,sans-Serif" font-size="10.00">+ customWildcardScoring</text>
<text text-anchor="start" x="279.616" y="-119.5" font-family="Helvetica,sans-Serif" font-size="10.00">+ ignorePlayerInputState</text>
<text text-anchor="start" x="279.616" y="-109.5" font-family="Helvetica,sans-Serif" font-size="10.00">+ lastSearchInfo</text>
<text text-anchor="start" x="279.616" y="-99.5" font-family="Helvetica,sans-Serif" font-size="10.00">and 9 more...</text>
<polyline fill="none" stroke="black" points="271.616,-93.5 401.268,-93.5 "/>
<text text-anchor="start" x="279.616" y="-81.5" font-family="Helvetica,sans-Serif" font-size="10.00">+ FindWords()</text>
<text text-anchor="start" x="279.616" y="-71.5" font-family="Helvetica,sans-Serif" font-size="10.00">+ FindWords()</text>
<text text-anchor="start" x="279.616" y="-61.5" font-family="Helvetica,sans-Serif" font-size="10.00">+ FindWords()</text>
<text text-anchor="start" x="279.616" y="-51.5" font-family="Helvetica,sans-Serif" font-size="10.00">+ Stop()</text>
</a>
</g>
</g>
<!-- Node1&#45;&gt;Node5 -->
<g id="edge4" class="edge"><title>Node1&#45;&gt;Node5</title>
<path fill="none" stroke="midnightblue" d="M1201.09,-416.497C988.484,-403.1 534.741,-364.605 409.442,-275 393.266,-263.432 380.342,-247.146 370.142,-229.837"/>
<polygon fill="none" stroke="midnightblue" points="1201.14,-420.007 1211.34,-417.135 1201.57,-413.02 1201.14,-420.007"/>
</g>
<!-- Node6 -->
<g id="node6" class="node"><title>Node6</title>
<g id="a_node6"><a xlink:href="class_thinksquirrel_1_1_word_game_builder_1_1_gameplay_1_1_word_game_player.html" target="_top" xlink:title="Represents a word game player. It tracks scores, holds tiles, and can be controlled by an AI agent...">
<polygon fill="none" stroke="black" points="418.93,-0.5 418.93,-274.5 543.954,-274.5 543.954,-0.5 418.93,-0.5"/>
<text text-anchor="middle" x="481.442" y="-262.5" font-family="Helvetica,sans-Serif" font-size="10.00">WordGamePlayer</text>
<polyline fill="none" stroke="black" points="418.93,-256.5 543.954,-256.5 "/>
<text text-anchor="start" x="426.93" y="-244.5" font-family="Helvetica,sans-Serif" font-size="10.00">+ bestWord</text>
<text text-anchor="start" x="426.93" y="-234.5" font-family="Helvetica,sans-Serif" font-size="10.00">+ bestWordScore</text>
<text text-anchor="start" x="426.93" y="-224.5" font-family="Helvetica,sans-Serif" font-size="10.00">+ heldTiles</text>
<text text-anchor="start" x="426.93" y="-214.5" font-family="Helvetica,sans-Serif" font-size="10.00">+ highScore</text>
<text text-anchor="start" x="426.93" y="-204.5" font-family="Helvetica,sans-Serif" font-size="10.00">+ inputEnabled</text>
<text text-anchor="start" x="426.93" y="-194.5" font-family="Helvetica,sans-Serif" font-size="10.00">+ lastPenalty</text>
<text text-anchor="start" x="426.93" y="-184.5" font-family="Helvetica,sans-Serif" font-size="10.00">+ lastResult</text>
<text text-anchor="start" x="426.93" y="-174.5" font-family="Helvetica,sans-Serif" font-size="10.00">+ lastWord</text>
<text text-anchor="start" x="426.93" y="-164.5" font-family="Helvetica,sans-Serif" font-size="10.00">+ lastWordScore</text>
<text text-anchor="start" x="426.93" y="-154.5" font-family="Helvetica,sans-Serif" font-size="10.00">+ maxTiles</text>
<text text-anchor="start" x="426.93" y="-144.5" font-family="Helvetica,sans-Serif" font-size="10.00">and 11 more...</text>
<polyline fill="none" stroke="black" points="418.93,-138.5 543.954,-138.5 "/>
<text text-anchor="start" x="426.93" y="-126.5" font-family="Helvetica,sans-Serif" font-size="10.00">+ ClearSelection()</text>
<text text-anchor="start" x="426.93" y="-116.5" font-family="Helvetica,sans-Serif" font-size="10.00">+ DeselectTile()</text>
<text text-anchor="start" x="426.93" y="-106.5" font-family="Helvetica,sans-Serif" font-size="10.00">+ Initialize()</text>
<text text-anchor="start" x="426.93" y="-96.5" font-family="Helvetica,sans-Serif" font-size="10.00">+ ResetAllData()</text>
<text text-anchor="start" x="426.93" y="-86.5" font-family="Helvetica,sans-Serif" font-size="10.00">+ ResetAllScores()</text>
<text text-anchor="start" x="426.93" y="-76.5" font-family="Helvetica,sans-Serif" font-size="10.00">+ ResetBestWord()</text>
<text text-anchor="start" x="426.93" y="-66.5" font-family="Helvetica,sans-Serif" font-size="10.00">+ ResetHighScore()</text>
<text text-anchor="start" x="426.93" y="-56.5" font-family="Helvetica,sans-Serif" font-size="10.00">+ ResetLastPenalty()</text>
<text text-anchor="start" x="426.93" y="-46.5" font-family="Helvetica,sans-Serif" font-size="10.00">+ ResetLastWord()</text>
<text text-anchor="start" x="426.93" y="-36.5" font-family="Helvetica,sans-Serif" font-size="10.00">+ ResetPreviousWords()</text>
<text text-anchor="start" x="426.93" y="-26.5" font-family="Helvetica,sans-Serif" font-size="10.00">and 6 more...</text>
<text text-anchor="start" x="426.93" y="-16.5" font-family="Helvetica,sans-Serif" font-size="10.00">+ FindPlayer()</text>
<text text-anchor="start" x="426.93" y="-6.5" font-family="Helvetica,sans-Serif" font-size="10.00">+ GetAllPlayers()</text>
</a>
</g>
</g>
<!-- Node1&#45;&gt;Node6 -->
<g id="edge5" class="edge"><title>Node1&#45;&gt;Node6</title>
<path fill="none" stroke="midnightblue" d="M1201.07,-412.67C1015.81,-394.412 654.641,-350.139 553.442,-275 550.215,-272.604 547.119,-270.021 544.15,-267.279"/>
<polygon fill="none" stroke="midnightblue" points="1200.82,-416.162 1211.12,-413.651 1201.5,-409.195 1200.82,-416.162"/>
</g>
<!-- Node7 -->
<g id="node7" class="node"><title>Node7</title>
<g id="a_node7"><a xlink:href="class_thinksquirrel_1_1_word_game_builder_1_1_tiles_1_1_daikon_forge_1_1_letter_tile_daikon_forge_control.html" target="_top" xlink:title="Adds Daikon Forge GUI display to a letter tile. ">
<polygon fill="none" stroke="black" points="562.039,-100.5 562.039,-174.5 708.845,-174.5 708.845,-100.5 562.039,-100.5"/>
<text text-anchor="middle" x="635.442" y="-162.5" font-family="Helvetica,sans-Serif" font-size="10.00">LetterTileDaikonForgeControl</text>
<polyline fill="none" stroke="black" points="562.039,-156.5 708.845,-156.5 "/>
<text text-anchor="start" x="570.039" y="-144.5" font-family="Helvetica,sans-Serif" font-size="10.00">+ controls</text>
<text text-anchor="start" x="570.039" y="-134.5" font-family="Helvetica,sans-Serif" font-size="10.00">+ letterLabel</text>
<text text-anchor="start" x="570.039" y="-124.5" font-family="Helvetica,sans-Serif" font-size="10.00">+ scoreLabel</text>
<polyline fill="none" stroke="black" points="562.039,-118.5 708.845,-118.5 "/>
<text text-anchor="middle" x="635.442" y="-106.5" font-family="Helvetica,sans-Serif" font-size="10.00"> </text>
</a>
</g>
</g>
<!-- Node1&#45;&gt;Node7 -->
<g id="edge6" class="edge"><title>Node1&#45;&gt;Node7</title>
<path fill="none" stroke="midnightblue" d="M1201,-419.67C1073.02,-411.199 862.228,-380.705 718.442,-275 684.252,-249.865 661.283,-206.018 648.334,-174.803"/>
<polygon fill="none" stroke="midnightblue" points="1201.02,-423.178 1211.22,-420.311 1201.46,-416.191 1201.02,-423.178"/>
</g>
<!-- Node8 -->
<g id="node8" class="node"><title>Node8</title>
<g id="a_node8"><a xlink:href="class_thinksquirrel_1_1_word_game_builder_1_1_tiles_1_1_daikon_forge_1_1_letter_tile_daikon_forge_input.html" target="_top" xlink:title="Adds input control to a letter tile, using DF&#45;GUI&#39;s events. ">
<polygon fill="none" stroke="black" points="727.037,-110.5 727.037,-164.5 863.847,-164.5 863.847,-110.5 727.037,-110.5"/>
<text text-anchor="middle" x="795.442" y="-152.5" font-family="Helvetica,sans-Serif" font-size="10.00">LetterTileDaikonForgeInput</text>
<polyline fill="none" stroke="black" points="727.037,-146.5 863.847,-146.5 "/>
<text text-anchor="middle" x="795.442" y="-134.5" font-family="Helvetica,sans-Serif" font-size="10.00"> </text>
<polyline fill="none" stroke="black" points="727.037,-128.5 863.847,-128.5 "/>
<text text-anchor="middle" x="795.442" y="-116.5" font-family="Helvetica,sans-Serif" font-size="10.00"> </text>
</a>
</g>
</g>
<!-- Node1&#45;&gt;Node8 -->
<g id="edge7" class="edge"><title>Node1&#45;&gt;Node8</title>
<path fill="none" stroke="midnightblue" d="M1201.02,-407.983C1104.93,-390.536 967.087,-353.166 872.442,-275 836.883,-245.633 814.656,-195.314 803.695,-164.662"/>
<polygon fill="none" stroke="midnightblue" points="1200.61,-411.463 1211.06,-409.761 1201.83,-404.571 1200.61,-411.463"/>
</g>
<!-- Node9 -->
<g id="node9" class="node"><title>Node9</title>
<g id="a_node9"><a xlink:href="class_thinksquirrel_1_1_word_game_builder_1_1_tiles_1_1_letter_tile.html" target="_top" xlink:title="A standard letter tile. Includes support for selection, wildcard tiles, multiple colors, input, and state querying. ">
<polygon fill="none" stroke="black" points="881.936,-10.5 881.936,-264.5 1034.95,-264.5 1034.95,-10.5 881.936,-10.5"/>
<text text-anchor="middle" x="958.442" y="-252.5" font-family="Helvetica,sans-Serif" font-size="10.00">LetterTile</text>
<polyline fill="none" stroke="black" points="881.936,-246.5 1034.95,-246.5 "/>
<text text-anchor="start" x="889.936" y="-234.5" font-family="Helvetica,sans-Serif" font-size="10.00">+ colorInfo</text>
<text text-anchor="start" x="889.936" y="-224.5" font-family="Helvetica,sans-Serif" font-size="10.00">+ currentBackgroundColor</text>
<text text-anchor="start" x="889.936" y="-214.5" font-family="Helvetica,sans-Serif" font-size="10.00">+ currentBackgroundColorRaw</text>
<text text-anchor="start" x="889.936" y="-204.5" font-family="Helvetica,sans-Serif" font-size="10.00">+ currentChange</text>
<text text-anchor="start" x="889.936" y="-194.5" font-family="Helvetica,sans-Serif" font-size="10.00">+ currentLetter</text>
<text text-anchor="start" x="889.936" y="-184.5" font-family="Helvetica,sans-Serif" font-size="10.00">+ currentLetterLabel</text>
<text text-anchor="start" x="889.936" y="-174.5" font-family="Helvetica,sans-Serif" font-size="10.00">+ currentPointValue</text>
<text text-anchor="start" x="889.936" y="-164.5" font-family="Helvetica,sans-Serif" font-size="10.00">+ currentScoreLabel</text>
<text text-anchor="start" x="889.936" y="-154.5" font-family="Helvetica,sans-Serif" font-size="10.00">+ currentTextColor</text>
<text text-anchor="start" x="889.936" y="-144.5" font-family="Helvetica,sans-Serif" font-size="10.00">+ currentTextColorRaw</text>
<text text-anchor="start" x="889.936" y="-134.5" font-family="Helvetica,sans-Serif" font-size="10.00">and 20 more...</text>
<polyline fill="none" stroke="black" points="881.936,-128.5 1034.95,-128.5 "/>
<text text-anchor="start" x="889.936" y="-116.5" font-family="Helvetica,sans-Serif" font-size="10.00">+ CanSelectTile()</text>
<text text-anchor="start" x="889.936" y="-106.5" font-family="Helvetica,sans-Serif" font-size="10.00">+ CanSelectTile()</text>
<text text-anchor="start" x="889.936" y="-96.5" font-family="Helvetica,sans-Serif" font-size="10.00">+ ChangeDefaultLetter()</text>
<text text-anchor="start" x="889.936" y="-86.5" font-family="Helvetica,sans-Serif" font-size="10.00">+ ChangeDefaultLetter()</text>
<text text-anchor="start" x="889.936" y="-76.5" font-family="Helvetica,sans-Serif" font-size="10.00">+ ChangeDefaultLetter()</text>
<text text-anchor="start" x="889.936" y="-66.5" font-family="Helvetica,sans-Serif" font-size="10.00">+ DeselectTile()</text>
<text text-anchor="start" x="889.936" y="-56.5" font-family="Helvetica,sans-Serif" font-size="10.00">+ DeselectTile()</text>
<text text-anchor="start" x="889.936" y="-46.5" font-family="Helvetica,sans-Serif" font-size="10.00">+ DespawnTile()</text>
<text text-anchor="start" x="889.936" y="-36.5" font-family="Helvetica,sans-Serif" font-size="10.00">+ ForceDeselectTile()</text>
<text text-anchor="start" x="889.936" y="-26.5" font-family="Helvetica,sans-Serif" font-size="10.00">+ ForceSelectTile()</text>
<text text-anchor="start" x="889.936" y="-16.5" font-family="Helvetica,sans-Serif" font-size="10.00">and 13 more...</text>
</a>
</g>
</g>
<!-- Node1&#45;&gt;Node9 -->
<g id="edge8" class="edge"><title>Node1&#45;&gt;Node9</title>
<path fill="none" stroke="midnightblue" d="M1201.91,-377.728C1149.73,-352.858 1089.07,-318.163 1043.44,-275 1039.99,-271.738 1036.63,-268.308 1033.35,-264.746"/>
<polygon fill="none" stroke="midnightblue" points="1200.67,-381.014 1211.21,-382.101 1203.65,-374.679 1200.67,-381.014"/>
</g>
<!-- Node10 -->
<g id="node10" class="node"><title>Node10</title>
<g id="a_node10"><a xlink:href="class_thinksquirrel_1_1_word_game_builder_1_1_tiles_1_1_letter_tile_animation.html" target="_top" xlink:title="Adds animation to a letter tile. ">
<polygon fill="none" stroke="black" points="1052.88,-90.5 1052.88,-184.5 1172,-184.5 1172,-90.5 1052.88,-90.5"/>
<text text-anchor="middle" x="1112.44" y="-172.5" font-family="Helvetica,sans-Serif" font-size="10.00">LetterTileAnimation</text>
<polyline fill="none" stroke="black" points="1052.88,-166.5 1172,-166.5 "/>
<text text-anchor="start" x="1060.88" y="-154.5" font-family="Helvetica,sans-Serif" font-size="10.00">+ changeAnimationClip</text>
<text text-anchor="start" x="1060.88" y="-144.5" font-family="Helvetica,sans-Serif" font-size="10.00">+ disableAnimationClip</text>
<text text-anchor="start" x="1060.88" y="-134.5" font-family="Helvetica,sans-Serif" font-size="10.00">+ enableAnimationClip</text>
<text text-anchor="start" x="1060.88" y="-124.5" font-family="Helvetica,sans-Serif" font-size="10.00">+ spawnAnimationClip</text>
<text text-anchor="start" x="1060.88" y="-114.5" font-family="Helvetica,sans-Serif" font-size="10.00">+ tileAnimation</text>
<polyline fill="none" stroke="black" points="1052.88,-108.5 1172,-108.5 "/>
<text text-anchor="middle" x="1112.44" y="-96.5" font-family="Helvetica,sans-Serif" font-size="10.00"> </text>
</a>
</g>
</g>
<!-- Node1&#45;&gt;Node10 -->
<g id="edge9" class="edge"><title>Node1&#45;&gt;Node10</title>
<path fill="none" stroke="midnightblue" d="M1204.94,-308.157C1196.27,-297.241 1187.97,-286.099 1180.44,-275 1161.19,-246.627 1144.02,-212.03 1131.74,-184.766"/>
<polygon fill="none" stroke="midnightblue" points="1202.3,-310.468 1211.3,-316.061 1207.76,-306.077 1202.3,-310.468"/>
</g>
<!-- Node11 -->
<g id="node11" class="node"><title>Node11</title>
<g id="a_node11"><a xlink:href="class_thinksquirrel_1_1_word_game_builder_1_1_tiles_1_1_letter_tile_color_control.html" target="_top" xlink:title="Automatically controls the color of objects based on a letter tile&#39;s state. ">
<polygon fill="none" stroke="black" points="1189.72,-100.5 1189.72,-174.5 1303.17,-174.5 1303.17,-100.5 1189.72,-100.5"/>
<text text-anchor="middle" x="1246.44" y="-162.5" font-family="Helvetica,sans-Serif" font-size="10.00">LetterTileColorControl</text>
<polyline fill="none" stroke="black" points="1189.72,-156.5 1303.17,-156.5 "/>
<text text-anchor="start" x="1197.72" y="-144.5" font-family="Helvetica,sans-Serif" font-size="10.00">+ background</text>
<text text-anchor="start" x="1197.72" y="-134.5" font-family="Helvetica,sans-Serif" font-size="10.00">+ colorProperties</text>
<text text-anchor="start" x="1197.72" y="-124.5" font-family="Helvetica,sans-Serif" font-size="10.00">+ text</text>
<polyline fill="none" stroke="black" points="1189.72,-118.5 1303.17,-118.5 "/>
<text text-anchor="middle" x="1246.44" y="-106.5" font-family="Helvetica,sans-Serif" font-size="10.00"> </text>
</a>
</g>
</g>
<!-- Node1&#45;&gt;Node11 -->
<g id="edge10" class="edge"><title>Node1&#45;&gt;Node11</title>
<path fill="none" stroke="midnightblue" d="M1284.37,-301.717C1273.68,-255.723 1262.29,-206.691 1254.81,-174.512"/>
<polygon fill="none" stroke="midnightblue" points="1280.97,-302.53 1286.64,-311.478 1287.79,-300.945 1280.97,-302.53"/>
</g>
<!-- Node12 -->
<g id="node12" class="node"><title>Node12</title>
<g id="a_node12"><a xlink:href="class_thinksquirrel_1_1_word_game_builder_1_1_tiles_1_1_letter_tile_label_control.html" target="_top" xlink:title="Automatically controls the text on objects based on a letter tile&#39;s state. ">
<polygon fill="none" stroke="black" points="1321.43,-105.5 1321.43,-169.5 1435.45,-169.5 1435.45,-105.5 1321.43,-105.5"/>
<text text-anchor="middle" x="1378.44" y="-157.5" font-family="Helvetica,sans-Serif" font-size="10.00">LetterTileLabelControl</text>
<polyline fill="none" stroke="black" points="1321.43,-151.5 1435.45,-151.5 "/>
<text text-anchor="start" x="1329.43" y="-139.5" font-family="Helvetica,sans-Serif" font-size="10.00">+ letterLabel</text>
<text text-anchor="start" x="1329.43" y="-129.5" font-family="Helvetica,sans-Serif" font-size="10.00">+ scoreLabel</text>
<polyline fill="none" stroke="black" points="1321.43,-123.5 1435.45,-123.5 "/>
<text text-anchor="middle" x="1378.44" y="-111.5" font-family="Helvetica,sans-Serif" font-size="10.00"> </text>
</a>
</g>
</g>
<!-- Node1&#45;&gt;Node12 -->
<g id="edge11" class="edge"><title>Node1&#45;&gt;Node12</title>
<path fill="none" stroke="midnightblue" d="M1340.55,-301.549C1351.78,-253.242 1363.77,-201.612 1371.19,-169.693"/>
<polygon fill="none" stroke="midnightblue" points="1337.1,-300.945 1338.24,-311.478 1343.92,-302.53 1337.1,-300.945"/>
</g>
<!-- Node13 -->
<g id="node13" class="node"><title>Node13</title>
<g id="a_node13"><a xlink:href="class_thinksquirrel_1_1_word_game_builder_1_1_tiles_1_1_letter_tile_mouse_input.html" target="_top" xlink:title="Adds input control to a letter tile, using Unity&#39;s OnMouse[...] methods. ">
<polygon fill="none" stroke="black" points="1453.65,-110.5 1453.65,-164.5 1563.23,-164.5 1563.23,-110.5 1453.65,-110.5"/>
<text text-anchor="middle" x="1508.44" y="-152.5" font-family="Helvetica,sans-Serif" font-size="10.00">LetterTileMouseInput</text>
<polyline fill="none" stroke="black" points="1453.65,-146.5 1563.23,-146.5 "/>
<text text-anchor="middle" x="1508.44" y="-134.5" font-family="Helvetica,sans-Serif" font-size="10.00"> </text>
<polyline fill="none" stroke="black" points="1453.65,-128.5 1563.23,-128.5 "/>
<text text-anchor="middle" x="1508.44" y="-116.5" font-family="Helvetica,sans-Serif" font-size="10.00"> </text>
</a>
</g>
</g>
<!-- Node1&#45;&gt;Node13 -->
<g id="edge12" class="edge"><title>Node1&#45;&gt;Node13</title>
<path fill="none" stroke="midnightblue" d="M1419.97,-308.686C1428.67,-297.623 1436.97,-286.303 1444.44,-275 1468.19,-239.086 1487.84,-192.965 1498.86,-164.584"/>
<polygon fill="none" stroke="midnightblue" points="1417.08,-306.696 1413.57,-316.694 1422.55,-311.066 1417.08,-306.696"/>
</g>
<!-- Node14 -->
<g id="node14" class="node"><title>Node14</title>
<g id="a_node14"><a xlink:href="class_thinksquirrel_1_1_word_game_builder_1_1_tiles_1_1_letter_tile_visibility_control.html" target="_top" xlink:title="Automatically controls the visibility of objects based on a letter tile&#39;s state. ">
<polygon fill="none" stroke="black" points="1581.69,-110.5 1581.69,-164.5 1707.19,-164.5 1707.19,-110.5 1581.69,-110.5"/>
<text text-anchor="middle" x="1644.44" y="-152.5" font-family="Helvetica,sans-Serif" font-size="10.00">LetterTileVisibilityControl</text>
<polyline fill="none" stroke="black" points="1581.69,-146.5 1707.19,-146.5 "/>
<text text-anchor="start" x="1589.69" y="-134.5" font-family="Helvetica,sans-Serif" font-size="10.00">+ objects</text>
<polyline fill="none" stroke="black" points="1581.69,-128.5 1707.19,-128.5 "/>
<text text-anchor="middle" x="1644.44" y="-116.5" font-family="Helvetica,sans-Serif" font-size="10.00"> </text>
</a>
</g>
</g>
<!-- Node1&#45;&gt;Node14 -->
<g id="edge13" class="edge"><title>Node1&#45;&gt;Node14</title>
<path fill="none" stroke="midnightblue" d="M1423.03,-377.201C1473.19,-352.569 1530.52,-318.226 1572.44,-275 1603.69,-242.784 1624.87,-194.29 1635.78,-164.61"/>
<polygon fill="none" stroke="midnightblue" points="1421.23,-374.183 1413.75,-381.687 1424.28,-380.485 1421.23,-374.183"/>
</g>
<!-- Node15 -->
<g id="node15" class="node"><title>Node15</title>
<g id="a_node15"><a xlink:href="class_thinksquirrel_1_1_word_game_builder_1_1_tiles_1_1_ngui_1_1_letter_tile_ngui_control.html" target="_top" xlink:title="Adds NGUI display to a letter tile. ">
<polygon fill="none" stroke="black" points="1725.38,-100.5 1725.38,-174.5 1835.5,-174.5 1835.5,-100.5 1725.38,-100.5"/>
<text text-anchor="middle" x="1780.44" y="-162.5" font-family="Helvetica,sans-Serif" font-size="10.00">LetterTileNguiControl</text>
<polyline fill="none" stroke="black" points="1725.38,-156.5 1835.5,-156.5 "/>
<text text-anchor="start" x="1733.38" y="-144.5" font-family="Helvetica,sans-Serif" font-size="10.00">+ letterLabel</text>
<text text-anchor="start" x="1733.38" y="-134.5" font-family="Helvetica,sans-Serif" font-size="10.00">+ scoreLabel</text>
<text text-anchor="start" x="1733.38" y="-124.5" font-family="Helvetica,sans-Serif" font-size="10.00">+ widgets</text>
<polyline fill="none" stroke="black" points="1725.38,-118.5 1835.5,-118.5 "/>
<text text-anchor="middle" x="1780.44" y="-106.5" font-family="Helvetica,sans-Serif" font-size="10.00"> </text>
</a>
</g>
</g>
<!-- Node1&#45;&gt;Node15 -->
<g id="edge14" class="edge"><title>Node1&#45;&gt;Node15</title>
<path fill="none" stroke="midnightblue" d="M1423.61,-405.806C1512.31,-387.352 1634.82,-349.711 1716.44,-275 1745.69,-248.227 1762.74,-205.337 1771.78,-174.782"/>
<polygon fill="none" stroke="midnightblue" points="1422.88,-402.382 1413.78,-407.801 1424.28,-409.242 1422.88,-402.382"/>
</g>
<!-- Node16 -->
<g id="node16" class="node"><title>Node16</title>
<g id="a_node16"><a xlink:href="class_thinksquirrel_1_1_word_game_builder_1_1_tiles_1_1_ngui_1_1_letter_tile_ngui_input.html" target="_top" xlink:title="Adds input control to a letter tile, using NGUI&#39;s OnPress/OnHover/OnClick methods. ">
<polygon fill="none" stroke="black" points="1853.38,-110.5 1853.38,-164.5 1953.5,-164.5 1953.5,-110.5 1853.38,-110.5"/>
<text text-anchor="middle" x="1903.44" y="-152.5" font-family="Helvetica,sans-Serif" font-size="10.00">LetterTileNguiInput</text>
<polyline fill="none" stroke="black" points="1853.38,-146.5 1953.5,-146.5 "/>
<text text-anchor="middle" x="1903.44" y="-134.5" font-family="Helvetica,sans-Serif" font-size="10.00"> </text>
<polyline fill="none" stroke="black" points="1853.38,-128.5 1953.5,-128.5 "/>
<text text-anchor="middle" x="1903.44" y="-116.5" font-family="Helvetica,sans-Serif" font-size="10.00"> </text>
</a>
</g>
</g>
<!-- Node1&#45;&gt;Node16 -->
<g id="edge15" class="edge"><title>Node1&#45;&gt;Node16</title>
<path fill="none" stroke="midnightblue" d="M1423.85,-419C1541.54,-409.639 1726.12,-378.077 1844.44,-275 1877.53,-246.172 1892.69,-195.437 1899.14,-164.604"/>
<polygon fill="none" stroke="midnightblue" points="1423.44,-415.521 1413.73,-419.763 1423.97,-422.501 1423.44,-415.521"/>
</g>
<!-- Node17 -->
<g id="node17" class="node"><title>Node17</title>
<g id="a_node17"><a xlink:href="class_thinksquirrel_1_1_word_game_builder_1_1_tiles_1_1_tk2_d_1_1_letter_tile_tk2_d_control.html" target="_top" xlink:title="Adds 2D Toolkit display to a letter tile. ">
<polygon fill="none" stroke="black" points="1971.72,-100.5 1971.72,-174.5 2085.17,-174.5 2085.17,-100.5 1971.72,-100.5"/>
<text text-anchor="middle" x="2028.44" y="-162.5" font-family="Helvetica,sans-Serif" font-size="10.00">LetterTileTk2DControl</text>
<polyline fill="none" stroke="black" points="1971.72,-156.5 2085.17,-156.5 "/>
<text text-anchor="start" x="1979.72" y="-144.5" font-family="Helvetica,sans-Serif" font-size="10.00">+ letterLabel</text>
<text text-anchor="start" x="1979.72" y="-134.5" font-family="Helvetica,sans-Serif" font-size="10.00">+ scoreLabel</text>
<text text-anchor="start" x="1979.72" y="-124.5" font-family="Helvetica,sans-Serif" font-size="10.00">+ sprites</text>
<polyline fill="none" stroke="black" points="1971.72,-118.5 2085.17,-118.5 "/>
<text text-anchor="middle" x="2028.44" y="-106.5" font-family="Helvetica,sans-Serif" font-size="10.00"> </text>
</a>
</g>
</g>
<!-- Node1&#45;&gt;Node17 -->
<g id="edge16" class="edge"><title>Node1&#45;&gt;Node17</title>
<path fill="none" stroke="midnightblue" d="M1423.81,-409.015C1586.85,-387.347 1880.1,-340.473 1962.44,-275 1994.07,-249.852 2011.5,-205.786 2020.38,-174.53"/>
<polygon fill="none" stroke="midnightblue" points="1423.2,-405.565 1413.74,-410.343 1424.11,-412.505 1423.2,-405.565"/>
</g>
<!-- Node18 -->
<g id="node18" class="node"><title>Node18</title>
<g id="a_node18"><a xlink:href="class_thinksquirrel_1_1_word_game_builder_1_1_tiles_1_1_tk2_d_1_1_letter_tile_tk2_d_input.html" target="_top" xlink:title="Adds input control to a letter tile, using 2D Toolkit&#39;s UI events. ">
<polygon fill="none" stroke="black" points="2102.72,-110.5 2102.72,-164.5 2206.17,-164.5 2206.17,-110.5 2102.72,-110.5"/>
<text text-anchor="middle" x="2154.44" y="-152.5" font-family="Helvetica,sans-Serif" font-size="10.00">LetterTileTk2DInput</text>
<polyline fill="none" stroke="black" points="2102.72,-146.5 2206.17,-146.5 "/>
<text text-anchor="start" x="2110.72" y="-134.5" font-family="Helvetica,sans-Serif" font-size="10.00">+ uiItem</text>
<polyline fill="none" stroke="black" points="2102.72,-128.5 2206.17,-128.5 "/>
<text text-anchor="middle" x="2154.44" y="-116.5" font-family="Helvetica,sans-Serif" font-size="10.00"> </text>
</a>
</g>
</g>
<!-- Node1&#45;&gt;Node18 -->
<g id="edge17" class="edge"><title>Node1&#45;&gt;Node18</title>
<path fill="none" stroke="midnightblue" d="M1423.74,-414.201C1614.24,-397.968 1992.17,-356.283 2094.44,-275 2129.1,-247.458 2144.23,-195.807 2150.45,-164.543"/>
<polygon fill="none" stroke="midnightblue" points="1423.37,-410.72 1413.7,-415.048 1423.96,-417.695 1423.37,-410.72"/>
</g>
<!-- Node19 -->
<g id="node19" class="node"><title>Node19</title>
<g id="a_node19"><a xlink:href="class_thinksquirrel_1_1_word_game_builder_1_1_tiles_1_1_u_i_1_1_letter_tile_u_i_input.html" target="_top" xlink:title="Adds input control to a letter tile, using Unity UI&#39;s pointer events. ">
<polygon fill="none" stroke="black" points="2224.66,-110.5 2224.66,-164.5 2314.22,-164.5 2314.22,-110.5 2224.66,-110.5"/>
<text text-anchor="middle" x="2269.44" y="-152.5" font-family="Helvetica,sans-Serif" font-size="10.00">LetterTileUIInput</text>
<polyline fill="none" stroke="black" points="2224.66,-146.5 2314.22,-146.5 "/>
<text text-anchor="middle" x="2269.44" y="-134.5" font-family="Helvetica,sans-Serif" font-size="10.00"> </text>
<polyline fill="none" stroke="black" points="2224.66,-128.5 2314.22,-128.5 "/>
<text text-anchor="middle" x="2269.44" y="-116.5" font-family="Helvetica,sans-Serif" font-size="10.00"> </text>
</a>
</g>
</g>
<!-- Node1&#45;&gt;Node19 -->
<g id="edge18" class="edge"><title>Node1&#45;&gt;Node19</title>
<path fill="none" stroke="midnightblue" d="M1423.6,-417.793C1637.37,-406.624 2095.26,-371.791 2215.44,-275 2249.38,-247.666 2262.07,-195.944 2266.76,-164.612"/>
<polygon fill="none" stroke="midnightblue" points="1423.42,-414.297 1413.61,-418.307 1423.78,-421.288 1423.42,-414.297"/>
</g>
<!-- Node20 -->
<g id="node20" class="node"><title>Node20</title>
<g id="a_node20"><a xlink:href="class_thinksquirrel_1_1_word_game_builder_example_1_1_example_game_logic.html" target="_top" xlink:title="This class is responsible for all game logic. ">
<polygon fill="none" stroke="black" points="2331.91,-95.5 2331.91,-179.5 2458.97,-179.5 2458.97,-95.5 2331.91,-95.5"/>
<text text-anchor="middle" x="2395.44" y="-167.5" font-family="Helvetica,sans-Serif" font-size="10.00">ExampleGameLogic</text>
<polyline fill="none" stroke="black" points="2331.91,-161.5 2458.97,-161.5 "/>
<text text-anchor="middle" x="2395.44" y="-149.5" font-family="Helvetica,sans-Serif" font-size="10.00"> </text>
<polyline fill="none" stroke="black" points="2331.91,-143.5 2458.97,-143.5 "/>
<text text-anchor="start" x="2339.91" y="-131.5" font-family="Helvetica,sans-Serif" font-size="10.00">+ OnAgentFindWords()</text>
<text text-anchor="start" x="2339.91" y="-121.5" font-family="Helvetica,sans-Serif" font-size="10.00">+ OnPlayerWordResult()</text>
<text text-anchor="start" x="2339.91" y="-111.5" font-family="Helvetica,sans-Serif" font-size="10.00">+ OnTileDistribution()</text>
<text text-anchor="start" x="2339.91" y="-101.5" font-family="Helvetica,sans-Serif" font-size="10.00">+ OnWildcardTileSelect()</text>
</a>
</g>
</g>
<!-- Node1&#45;&gt;Node20 -->
<g id="edge19" class="edge"><title>Node1&#45;&gt;Node20</title>
<path fill="none" stroke="midnightblue" d="M1424.06,-418.758C1655.99,-409.009 2180.34,-376.114 2323.44,-275 2355.5,-252.349 2374.44,-210.921 2384.79,-179.624"/>
<polygon fill="none" stroke="midnightblue" points="1423.76,-415.267 1413.91,-419.177 1424.05,-422.261 1423.76,-415.267"/>
</g>
<!-- Node2 -->
<g id="node2" class="node"><title>Node2</title>
<polygon fill="none" stroke="#bfbfbf" points="1269.42,-572.5 1269.42,-626.5 1355.46,-626.5 1355.46,-572.5 1269.42,-572.5"/>
<text text-anchor="middle" x="1312.44" y="-614.5" font-family="Helvetica,sans-Serif" font-size="10.00">MonoBehaviour</text>
<polyline fill="none" stroke="#bfbfbf" points="1269.42,-608.5 1355.46,-608.5 "/>
<text text-anchor="middle" x="1312.44" y="-596.5" font-family="Helvetica,sans-Serif" font-size="10.00"> </text>
<polyline fill="none" stroke="#bfbfbf" points="1269.42,-590.5 1355.46,-590.5 "/>
<text text-anchor="middle" x="1312.44" y="-578.5" font-family="Helvetica,sans-Serif" font-size="10.00"> </text>
</g>
<!-- Node2&#45;&gt;Node1 -->
<g id="edge1" class="edge"><title>Node2&#45;&gt;Node1</title>
<path fill="none" stroke="midnightblue" d="M1312.44,-562.306C1312.44,-554.157 1312.44,-545.091 1312.44,-535.611"/>
<polygon fill="none" stroke="midnightblue" points="1308.94,-562.45 1312.44,-572.45 1315.94,-562.45 1308.94,-562.45"/>
</g>
</g>
</svg>
