<?xml version="1.0" encoding="UTF-8" standalone="no"?>
<!DOCTYPE svg PUBLIC "-//W3C//DTD SVG 1.1//EN"
 "http://www.w3.org/Graphics/SVG/1.1/DTD/svg11.dtd">
<!-- Generated by graphviz version 2.38.0 (20140413.2041)
 -->
<!-- Title: ExampleView Pages: 1 -->
<svg width="94pt" height="154pt"
 viewBox="0.00 0.00 94.04 154.00" xmlns="http://www.w3.org/2000/svg" xmlns:xlink="http://www.w3.org/1999/xlink">
<g id="graph0" class="graph" transform="scale(1 1) rotate(0) translate(4 150)">
<title>ExampleView</title>
<!-- Node1 -->
<g id="node1" class="node"><title>Node1</title>
<polygon fill="#bfbfbf" stroke="black" points="4.81934,-0.5 4.81934,-54.5 81.2246,-54.5 81.2246,-0.5 4.81934,-0.5"/>
<text text-anchor="middle" x="43.022" y="-42.5" font-family="Helvetica,sans-Serif" font-size="10.00">ExampleView</text>
<polyline fill="none" stroke="black" points="4.81934,-36.5 81.2246,-36.5 "/>
<text text-anchor="middle" x="43.022" y="-24.5" font-family="Helvetica,sans-Serif" font-size="10.00"> </text>
<polyline fill="none" stroke="black" points="4.81934,-18.5 81.2246,-18.5 "/>
<text text-anchor="middle" x="43.022" y="-6.5" font-family="Helvetica,sans-Serif" font-size="10.00"> </text>
</g>
<!-- Node2 -->
<g id="node2" class="node"><title>Node2</title>
<polygon fill="none" stroke="#bfbfbf" points="0,-91.5 0,-145.5 86.0439,-145.5 86.0439,-91.5 0,-91.5"/>
<text text-anchor="middle" x="43.022" y="-133.5" font-family="Helvetica,sans-Serif" font-size="10.00">MonoBehaviour</text>
<polyline fill="none" stroke="#bfbfbf" points="0,-127.5 86.0439,-127.5 "/>
<text text-anchor="middle" x="43.022" y="-115.5" font-family="Helvetica,sans-Serif" font-size="10.00"> </text>
<polyline fill="none" stroke="#bfbfbf" points="0,-109.5 86.0439,-109.5 "/>
<text text-anchor="middle" x="43.022" y="-97.5" font-family="Helvetica,sans-Serif" font-size="10.00"> </text>
</g>
<!-- Node2&#45;&gt;Node1 -->
<g id="edge1" class="edge"><title>Node2&#45;&gt;Node1</title>
<path fill="none" stroke="midnightblue" d="M43.022,-81.1155C43.022,-72.2061 43.022,-62.8475 43.022,-54.5341"/>
<polygon fill="none" stroke="midnightblue" points="39.5221,-81.2784 43.022,-91.2784 46.5221,-81.2785 39.5221,-81.2784"/>
</g>
</g>
</svg>
