<?xml version="1.0" encoding="UTF-8" standalone="no"?>
<!DOCTYPE svg PUBLIC "-//W3C//DTD SVG 1.1//EN"
 "http://www.w3.org/Graphics/SVG/1.1/DTD/svg11.dtd">
<!-- Generated by graphviz version 2.38.0 (20140413.2041)
 -->
<!-- Title: LetterComparer Pages: 1 -->
<svg width="113pt" height="174pt"
 viewBox="0.00 0.00 112.65 174.00" xmlns="http://www.w3.org/2000/svg" xmlns:xlink="http://www.w3.org/1999/xlink">
<g id="graph0" class="graph" transform="scale(1 1) rotate(0) translate(4 170)">
<title>LetterComparer</title>
<!-- Node1 -->
<g id="node1" class="node"><title>Node1</title>
<polygon fill="#bfbfbf" stroke="black" points="5.00244,-0.5 5.00244,-64.5 99.6499,-64.5 99.6499,-0.5 5.00244,-0.5"/>
<text text-anchor="middle" x="52.3262" y="-52.5" font-family="Helvetica,sans-Serif" font-size="10.00">LetterComparer</text>
<polyline fill="none" stroke="black" points="5.00244,-46.5 99.6499,-46.5 "/>
<text text-anchor="middle" x="52.3262" y="-34.5" font-family="Helvetica,sans-Serif" font-size="10.00"> </text>
<polyline fill="none" stroke="black" points="5.00244,-28.5 99.6499,-28.5 "/>
<text text-anchor="start" x="13.0024" y="-16.5" font-family="Helvetica,sans-Serif" font-size="10.00">+ Equals()</text>
<text text-anchor="start" x="13.0024" y="-6.5" font-family="Helvetica,sans-Serif" font-size="10.00">+ GetHashCode()</text>
</g>
<!-- Node2 -->
<g id="node2" class="node"><title>Node2</title>
<polygon fill="none" stroke="#bfbfbf" points="0,-101.5 0,-165.5 104.652,-165.5 104.652,-101.5 0,-101.5"/>
<text text-anchor="start" x="8" y="-153.5" font-family="Helvetica,sans-Serif" font-size="10.00">IEqualityComparer&lt;</text>
<text text-anchor="middle" x="52.3262" y="-143.5" font-family="Helvetica,sans-Serif" font-size="10.00"> Letter &gt;</text>
<polyline fill="none" stroke="#bfbfbf" points="0,-137.5 104.652,-137.5 "/>
<text text-anchor="middle" x="52.3262" y="-125.5" font-family="Helvetica,sans-Serif" font-size="10.00"> </text>
<polyline fill="none" stroke="#bfbfbf" points="0,-119.5 104.652,-119.5 "/>
<text text-anchor="middle" x="52.3262" y="-107.5" font-family="Helvetica,sans-Serif" font-size="10.00"> </text>
</g>
<!-- Node2&#45;&gt;Node1 -->
<g id="edge1" class="edge"><title>Node2&#45;&gt;Node1</title>
<path fill="none" stroke="midnightblue" d="M52.3262,-91.2823C52.3262,-82.4203 52.3262,-73.1938 52.3262,-64.7828"/>
<polygon fill="none" stroke="midnightblue" points="48.8263,-91.4474 52.3262,-101.447 55.8263,-91.4474 48.8263,-91.4474"/>
</g>
</g>
</svg>
