<?xml version="1.0" encoding="UTF-8" standalone="no"?>
<!DOCTYPE svg PUBLIC "-//W3C//DTD SVG 1.1//EN"
 "http://www.w3.org/Graphics/SVG/1.1/DTD/svg11.dtd">
<!-- Generated by graphviz version 2.38.0 (20140413.2041)
 -->
<!-- Title: Graphical Class Hierarchy Pages: 1 -->
<svg width="202pt" height="64pt"
 viewBox="0.00 0.00 201.63 64.00" xmlns="http://www.w3.org/2000/svg" xmlns:xlink="http://www.w3.org/1999/xlink">
<g id="graph0" class="graph" transform="scale(1 1) rotate(0) translate(4 60)">
<title>Graphical Class Hierarchy</title>
<!-- Node1 -->
<g id="node1" class="node"><title>Node1</title>
<polygon fill="none" stroke="#bfbfbf" points="0,-37.5 0,-55.5 116.059,-55.5 116.059,-37.5 0,-37.5"/>
<text text-anchor="middle" x="58.0293" y="-43.5" font-family="Helvetica,sans-Serif" font-size="10.00">IComparable&lt; Letter &gt;</text>
</g>
<!-- Node2 -->
<g id="node2" class="node"><title>Node2</title>
<g id="a_node2"><a xlink:href="struct_thinksquirrel_1_1_word_game_builder_1_1_letter.html" target="_top" xlink:title="Represents a letter. ">
<polygon fill="none" stroke="black" points="152.059,-18.5 152.059,-36.5 193.63,-36.5 193.63,-18.5 152.059,-18.5"/>
<text text-anchor="middle" x="172.844" y="-24.5" font-family="Helvetica,sans-Serif" font-size="10.00">Letter</text>
</a>
</g>
</g>
<!-- Node1&#45;&gt;Node2 -->
<g id="edge1" class="edge"><title>Node1&#45;&gt;Node2</title>
<path fill="none" stroke="midnightblue" d="M122.926,-35.7386C133.433,-33.9691 143.587,-32.2591 151.894,-30.8599"/>
<polygon fill="midnightblue" stroke="midnightblue" points="122.073,-32.3329 112.794,-37.4452 123.236,-39.2357 122.073,-32.3329"/>
</g>
<!-- Node3 -->
<g id="node3" class="node"><title>Node3</title>
<polygon fill="none" stroke="#bfbfbf" points="4.7168,-0.5 4.7168,-18.5 111.342,-18.5 111.342,-0.5 4.7168,-0.5"/>
<text text-anchor="middle" x="58.0293" y="-6.5" font-family="Helvetica,sans-Serif" font-size="10.00">IEquatable&lt; Letter &gt;</text>
</g>
<!-- Node3&#45;&gt;Node2 -->
<g id="edge2" class="edge"><title>Node3&#45;&gt;Node2</title>
<path fill="none" stroke="midnightblue" d="M121.597,-19.4828C132.576,-21.2346 143.24,-22.9361 151.898,-24.3176"/>
<polygon fill="midnightblue" stroke="midnightblue" points="121.9,-15.9871 111.474,-17.8677 120.797,-22.8996 121.9,-15.9871"/>
</g>
</g>
</svg>
