<?xml version="1.0" encoding="UTF-8" standalone="no"?>
<!DOCTYPE svg PUBLIC "-//W3C//DTD SVG 1.1//EN"
 "http://www.w3.org/Graphics/SVG/1.1/DTD/svg11.dtd">
<!-- Generated by graphviz version 2.38.0 (20140413.2041)
 -->
<!-- Title: LetterList.Enumerator Pages: 1 -->
<svg width="297pt" height="194pt"
 viewBox="0.00 0.00 297.43 194.00" xmlns="http://www.w3.org/2000/svg" xmlns:xlink="http://www.w3.org/1999/xlink">
<g id="graph0" class="graph" transform="scale(1 1) rotate(0) translate(4 190)">
<title>LetterList.Enumerator</title>
<!-- Node1 -->
<g id="node1" class="node"><title>Node1</title>
<polygon fill="#bfbfbf" stroke="black" points="109.837,-0.5 109.837,-94.5 221.995,-94.5 221.995,-0.5 109.837,-0.5"/>
<text text-anchor="middle" x="165.916" y="-82.5" font-family="Helvetica,sans-Serif" font-size="10.00">LetterList.Enumerator</text>
<polyline fill="none" stroke="black" points="109.837,-76.5 221.995,-76.5 "/>
<text text-anchor="start" x="117.837" y="-64.5" font-family="Helvetica,sans-Serif" font-size="10.00">+ l</text>
<text text-anchor="start" x="117.837" y="-54.5" font-family="Helvetica,sans-Serif" font-size="10.00">+ Current</text>
<text text-anchor="start" x="117.837" y="-44.5" font-family="Helvetica,sans-Serif" font-size="10.00">+ Current</text>
<polyline fill="none" stroke="black" points="109.837,-38.5 221.995,-38.5 "/>
<text text-anchor="start" x="117.837" y="-26.5" font-family="Helvetica,sans-Serif" font-size="10.00">+ Dispose()</text>
<text text-anchor="start" x="117.837" y="-16.5" font-family="Helvetica,sans-Serif" font-size="10.00">+ MoveNext()</text>
<text text-anchor="start" x="117.837" y="-6.5" font-family="Helvetica,sans-Serif" font-size="10.00">+ Reset()</text>
</g>
<!-- Node2 -->
<g id="node2" class="node"><title>Node2</title>
<polygon fill="none" stroke="#bfbfbf" points="0,-131.5 0,-185.5 113.832,-185.5 113.832,-131.5 0,-131.5"/>
<text text-anchor="middle" x="56.916" y="-173.5" font-family="Helvetica,sans-Serif" font-size="10.00">IEnumerator&lt; Letter &gt;</text>
<polyline fill="none" stroke="#bfbfbf" points="0,-167.5 113.832,-167.5 "/>
<text text-anchor="middle" x="56.916" y="-155.5" font-family="Helvetica,sans-Serif" font-size="10.00"> </text>
<polyline fill="none" stroke="#bfbfbf" points="0,-149.5 113.832,-149.5 "/>
<text text-anchor="middle" x="56.916" y="-137.5" font-family="Helvetica,sans-Serif" font-size="10.00"> </text>
</g>
<!-- Node2&#45;&gt;Node1 -->
<g id="edge1" class="edge"><title>Node2&#45;&gt;Node1</title>
<path fill="none" stroke="midnightblue" d="M90.2173,-124.199C99.4767,-114.939 109.703,-104.713 119.565,-94.8505"/>
<polygon fill="none" stroke="midnightblue" points="87.6204,-121.846 83.0242,-131.392 92.5702,-126.796 87.6204,-121.846"/>
</g>
<!-- Node3 -->
<g id="node3" class="node"><title>Node3</title>
<polygon fill="none" stroke="#bfbfbf" points="131.791,-131.5 131.791,-185.5 200.042,-185.5 200.042,-131.5 131.791,-131.5"/>
<text text-anchor="middle" x="165.916" y="-173.5" font-family="Helvetica,sans-Serif" font-size="10.00">IDisposable</text>
<polyline fill="none" stroke="#bfbfbf" points="131.791,-167.5 200.042,-167.5 "/>
<text text-anchor="middle" x="165.916" y="-155.5" font-family="Helvetica,sans-Serif" font-size="10.00"> </text>
<polyline fill="none" stroke="#bfbfbf" points="131.791,-149.5 200.042,-149.5 "/>
<text text-anchor="middle" x="165.916" y="-137.5" font-family="Helvetica,sans-Serif" font-size="10.00"> </text>
</g>
<!-- Node3&#45;&gt;Node1 -->
<g id="edge2" class="edge"><title>Node3&#45;&gt;Node1</title>
<path fill="none" stroke="midnightblue" d="M165.916,-121.141C165.916,-112.716 165.916,-103.639 165.916,-94.8505"/>
<polygon fill="none" stroke="midnightblue" points="162.416,-121.392 165.916,-131.392 169.416,-121.392 162.416,-121.392"/>
</g>
<!-- Node4 -->
<g id="node4" class="node"><title>Node4</title>
<polygon fill="none" stroke="#bfbfbf" points="218.404,-131.5 218.404,-185.5 289.428,-185.5 289.428,-131.5 218.404,-131.5"/>
<text text-anchor="middle" x="253.916" y="-173.5" font-family="Helvetica,sans-Serif" font-size="10.00">IEnumerator</text>
<polyline fill="none" stroke="#bfbfbf" points="218.404,-167.5 289.428,-167.5 "/>
<text text-anchor="middle" x="253.916" y="-155.5" font-family="Helvetica,sans-Serif" font-size="10.00"> </text>
<polyline fill="none" stroke="#bfbfbf" points="218.404,-149.5 289.428,-149.5 "/>
<text text-anchor="middle" x="253.916" y="-137.5" font-family="Helvetica,sans-Serif" font-size="10.00"> </text>
</g>
<!-- Node4&#45;&gt;Node1 -->
<g id="edge3" class="edge"><title>Node4&#45;&gt;Node1</title>
<path fill="none" stroke="midnightblue" d="M226.362,-123.371C219.065,-114.332 211.062,-104.42 203.337,-94.8505"/>
<polygon fill="none" stroke="midnightblue" points="223.833,-125.81 232.838,-131.392 229.279,-121.412 223.833,-125.81"/>
</g>
</g>
</svg>
