<?xml version="1.0" encoding="UTF-8" standalone="no"?>
<!DOCTYPE svg PUBLIC "-//W3C//DTD SVG 1.1//EN"
 "http://www.w3.org/Graphics/SVG/1.1/DTD/svg11.dtd">
<!-- Generated by graphviz version 2.38.0 (20140413.2041)
 -->
<!-- Title: LetterList.Enumerator Pages: 1 -->
<svg width="415pt" height="436pt"
 viewBox="0.00 0.00 414.74 436.00" xmlns="http://www.w3.org/2000/svg" xmlns:xlink="http://www.w3.org/1999/xlink">
<g id="graph0" class="graph" transform="scale(1 1) rotate(0) translate(4 432)">
<title>LetterList.Enumerator</title>
<!-- Node1 -->
<g id="node1" class="node"><title>Node1</title>
<polygon fill="#bfbfbf" stroke="black" points="153.837,-0.5 153.837,-84.5 265.995,-84.5 265.995,-0.5 153.837,-0.5"/>
<text text-anchor="middle" x="209.916" y="-72.5" font-family="Helvetica,sans-Serif" font-size="10.00">LetterList.Enumerator</text>
<polyline fill="none" stroke="black" points="153.837,-66.5 265.995,-66.5 "/>
<text text-anchor="start" x="161.837" y="-54.5" font-family="Helvetica,sans-Serif" font-size="10.00">+ Current</text>
<text text-anchor="start" x="161.837" y="-44.5" font-family="Helvetica,sans-Serif" font-size="10.00">+ Current</text>
<polyline fill="none" stroke="black" points="153.837,-38.5 265.995,-38.5 "/>
<text text-anchor="start" x="161.837" y="-26.5" font-family="Helvetica,sans-Serif" font-size="10.00">+ Dispose()</text>
<text text-anchor="start" x="161.837" y="-16.5" font-family="Helvetica,sans-Serif" font-size="10.00">+ MoveNext()</text>
<text text-anchor="start" x="161.837" y="-6.5" font-family="Helvetica,sans-Serif" font-size="10.00">+ Reset()</text>
</g>
<!-- Node2 -->
<g id="node2" class="node"><title>Node2</title>
<polygon fill="none" stroke="#bfbfbf" points="0,-206.5 0,-260.5 113.832,-260.5 113.832,-206.5 0,-206.5"/>
<text text-anchor="middle" x="56.916" y="-248.5" font-family="Helvetica,sans-Serif" font-size="10.00">IEnumerator&lt; Letter &gt;</text>
<polyline fill="none" stroke="#bfbfbf" points="0,-242.5 113.832,-242.5 "/>
<text text-anchor="middle" x="56.916" y="-230.5" font-family="Helvetica,sans-Serif" font-size="10.00"> </text>
<polyline fill="none" stroke="#bfbfbf" points="0,-224.5 113.832,-224.5 "/>
<text text-anchor="middle" x="56.916" y="-212.5" font-family="Helvetica,sans-Serif" font-size="10.00"> </text>
</g>
<!-- Node2&#45;&gt;Node1 -->
<g id="edge1" class="edge"><title>Node2&#45;&gt;Node1</title>
<path fill="none" stroke="midnightblue" d="M76.9706,-197.881C89.2705,-177.669 105.886,-152.079 122.916,-131 135.84,-115.003 151.305,-98.6993 165.588,-84.5682"/>
<polygon fill="none" stroke="midnightblue" points="73.9605,-196.094 71.8063,-206.468 79.9594,-199.702 73.9605,-196.094"/>
</g>
<!-- Node3 -->
<g id="node3" class="node"><title>Node3</title>
<polygon fill="none" stroke="#bfbfbf" points="131.791,-206.5 131.791,-260.5 200.042,-260.5 200.042,-206.5 131.791,-206.5"/>
<text text-anchor="middle" x="165.916" y="-248.5" font-family="Helvetica,sans-Serif" font-size="10.00">IDisposable</text>
<polyline fill="none" stroke="#bfbfbf" points="131.791,-242.5 200.042,-242.5 "/>
<text text-anchor="middle" x="165.916" y="-230.5" font-family="Helvetica,sans-Serif" font-size="10.00"> </text>
<polyline fill="none" stroke="#bfbfbf" points="131.791,-224.5 200.042,-224.5 "/>
<text text-anchor="middle" x="165.916" y="-212.5" font-family="Helvetica,sans-Serif" font-size="10.00"> </text>
</g>
<!-- Node3&#45;&gt;Node1 -->
<g id="edge2" class="edge"><title>Node3&#45;&gt;Node1</title>
<path fill="none" stroke="midnightblue" d="M174.314,-196.426C181.729,-164.575 192.537,-118.15 200.297,-84.8162"/>
<polygon fill="none" stroke="midnightblue" points="170.893,-195.687 172.034,-206.22 177.71,-197.274 170.893,-195.687"/>
</g>
<!-- Node4 -->
<g id="node4" class="node"><title>Node4</title>
<polygon fill="none" stroke="#bfbfbf" points="218.404,-206.5 218.404,-260.5 289.428,-260.5 289.428,-206.5 218.404,-206.5"/>
<text text-anchor="middle" x="253.916" y="-248.5" font-family="Helvetica,sans-Serif" font-size="10.00">IEnumerator</text>
<polyline fill="none" stroke="#bfbfbf" points="218.404,-242.5 289.428,-242.5 "/>
<text text-anchor="middle" x="253.916" y="-230.5" font-family="Helvetica,sans-Serif" font-size="10.00"> </text>
<polyline fill="none" stroke="#bfbfbf" points="218.404,-224.5 289.428,-224.5 "/>
<text text-anchor="middle" x="253.916" y="-212.5" font-family="Helvetica,sans-Serif" font-size="10.00"> </text>
</g>
<!-- Node4&#45;&gt;Node1 -->
<g id="edge3" class="edge"><title>Node4&#45;&gt;Node1</title>
<path fill="none" stroke="midnightblue" d="M245.518,-196.426C238.103,-164.575 227.295,-118.15 219.535,-84.8162"/>
<polygon fill="none" stroke="midnightblue" points="242.122,-197.274 247.798,-206.22 248.939,-195.687 242.122,-197.274"/>
</g>
<!-- Node5 -->
<g id="node5" class="node"><title>Node5</title>
<g id="a_node5"><a xlink:href="class_thinksquirrel_1_1_word_game_builder_1_1_letter_list.html" target="_top" xlink:title="{LetterList\n|+ Count\l+ IsReadOnly\l+ this[int index]\l|+ LetterList()\l+ LetterList()\l+ LetterList()\l+ Add()\l+ AddRange()\l+ Clear()\l+ Contains()\l+ CopyTo()\l+ GetEnumerator()\l+ IndexOf()\l+ Insert()\l+ Remove()\l+ RemoveAt()\l+ Sort()\l}">
<polygon fill="none" stroke="black" points="307.095,-131.5 307.095,-335.5 406.737,-335.5 406.737,-131.5 307.095,-131.5"/>
<text text-anchor="middle" x="356.916" y="-323.5" font-family="Helvetica,sans-Serif" font-size="10.00">LetterList</text>
<polyline fill="none" stroke="black" points="307.095,-317.5 406.737,-317.5 "/>
<text text-anchor="start" x="315.095" y="-305.5" font-family="Helvetica,sans-Serif" font-size="10.00">+ Count</text>
<text text-anchor="start" x="315.095" y="-295.5" font-family="Helvetica,sans-Serif" font-size="10.00">+ IsReadOnly</text>
<text text-anchor="start" x="315.095" y="-285.5" font-family="Helvetica,sans-Serif" font-size="10.00">+ this[int index]</text>
<polyline fill="none" stroke="black" points="307.095,-279.5 406.737,-279.5 "/>
<text text-anchor="start" x="315.095" y="-267.5" font-family="Helvetica,sans-Serif" font-size="10.00">+ LetterList()</text>
<text text-anchor="start" x="315.095" y="-257.5" font-family="Helvetica,sans-Serif" font-size="10.00">+ LetterList()</text>
<text text-anchor="start" x="315.095" y="-247.5" font-family="Helvetica,sans-Serif" font-size="10.00">+ LetterList()</text>
<text text-anchor="start" x="315.095" y="-237.5" font-family="Helvetica,sans-Serif" font-size="10.00">+ Add()</text>
<text text-anchor="start" x="315.095" y="-227.5" font-family="Helvetica,sans-Serif" font-size="10.00">+ AddRange()</text>
<text text-anchor="start" x="315.095" y="-217.5" font-family="Helvetica,sans-Serif" font-size="10.00">+ Clear()</text>
<text text-anchor="start" x="315.095" y="-207.5" font-family="Helvetica,sans-Serif" font-size="10.00">+ Contains()</text>
<text text-anchor="start" x="315.095" y="-197.5" font-family="Helvetica,sans-Serif" font-size="10.00">+ CopyTo()</text>
<text text-anchor="start" x="315.095" y="-187.5" font-family="Helvetica,sans-Serif" font-size="10.00">+ GetEnumerator()</text>
<text text-anchor="start" x="315.095" y="-177.5" font-family="Helvetica,sans-Serif" font-size="10.00">+ IndexOf()</text>
<text text-anchor="start" x="315.095" y="-167.5" font-family="Helvetica,sans-Serif" font-size="10.00">+ Insert()</text>
<text text-anchor="start" x="315.095" y="-157.5" font-family="Helvetica,sans-Serif" font-size="10.00">+ Remove()</text>
<text text-anchor="start" x="315.095" y="-147.5" font-family="Helvetica,sans-Serif" font-size="10.00">+ RemoveAt()</text>
<text text-anchor="start" x="315.095" y="-137.5" font-family="Helvetica,sans-Serif" font-size="10.00">+ Sort()</text>
</a>
</g>
</g>
<!-- Node5&#45;&gt;Node1 -->
<g id="edge4" class="edge"><title>Node5&#45;&gt;Node1</title>
<path fill="none" stroke="#404040" d="M306.958,-141.985C304.327,-138.215 301.641,-134.537 298.916,-131 289.009,-118.143 277.28,-105.319 265.643,-93.6087"/>
<polygon fill="none" stroke="#404040" points="265.342,-93.3116 258.26,-91.9495 256.794,-84.889 263.876,-86.2511 265.342,-93.3116"/>
<text text-anchor="middle" x="288.336" y="-105" font-family="Helvetica,sans-Serif" font-size="10.00"> +l</text>
</g>
<!-- Node6 -->
<g id="node6" class="node"><title>Node6</title>
<polygon fill="none" stroke="#bfbfbf" points="318.342,-373.5 318.342,-427.5 395.49,-427.5 395.49,-373.5 318.342,-373.5"/>
<text text-anchor="middle" x="356.916" y="-415.5" font-family="Helvetica,sans-Serif" font-size="10.00">IList&lt; Letter &gt;</text>
<polyline fill="none" stroke="#bfbfbf" points="318.342,-409.5 395.49,-409.5 "/>
<text text-anchor="middle" x="356.916" y="-397.5" font-family="Helvetica,sans-Serif" font-size="10.00"> </text>
<polyline fill="none" stroke="#bfbfbf" points="318.342,-391.5 395.49,-391.5 "/>
<text text-anchor="middle" x="356.916" y="-379.5" font-family="Helvetica,sans-Serif" font-size="10.00"> </text>
</g>
<!-- Node6&#45;&gt;Node5 -->
<g id="edge5" class="edge"><title>Node6&#45;&gt;Node5</title>
<path fill="none" stroke="midnightblue" d="M356.916,-363.206C356.916,-354.756 356.916,-345.351 356.916,-335.579"/>
<polygon fill="none" stroke="midnightblue" points="353.416,-363.355 356.916,-373.355 360.416,-363.355 353.416,-363.355"/>
</g>
</g>
</svg>
