<?xml version="1.0" encoding="UTF-8" standalone="no"?>
<!DOCTYPE svg PUBLIC "-//W3C//DTD SVG 1.1//EN"
 "http://www.w3.org/Graphics/SVG/1.1/DTD/svg11.dtd">
<!-- Generated by graphviz version 2.34.0 (20140122.0018)
 -->
<!-- Title: Tweener&lt; T &gt; Pages: 1 -->
<svg width="88pt" height="360pt"
 viewBox="0.00 0.00 88.00 360.00" xmlns="http://www.w3.org/2000/svg" xmlns:xlink="http://www.w3.org/1999/xlink">
<g id="graph0" class="graph" transform="scale(1 1) rotate(0) translate(4 356)">
<title>Tweener&lt; T &gt;</title>
<!-- Node1 -->
<g id="node1" class="node"><title>Node1</title>
<polygon fill="#bfbfbf" stroke="black" points="-0.290039,-1 -0.290039,-253 80.29,-253 80.29,-1 -0.290039,-1"/>
<text text-anchor="middle" x="40" y="-239" font-family="Helvetica,sans-Serif" font-size="10.00">Tweener&lt; T &gt;</text>
<polyline fill="none" stroke="black" points="-0.290039,-233 80.29,-233 "/>
<text text-anchor="start" x="7.70996" y="-219" font-family="Helvetica,sans-Serif" font-size="10.00">+ currentValue</text>
<text text-anchor="start" x="7.70996" y="-207" font-family="Helvetica,sans-Serif" font-size="10.00">+ delay</text>
<text text-anchor="start" x="7.70996" y="-195" font-family="Helvetica,sans-Serif" font-size="10.00">+ duration</text>
<text text-anchor="start" x="7.70996" y="-183" font-family="Helvetica,sans-Serif" font-size="10.00">+ easing</text>
<text text-anchor="start" x="7.70996" y="-171" font-family="Helvetica,sans-Serif" font-size="10.00">+ end</text>
<text text-anchor="start" x="7.70996" y="-159" font-family="Helvetica,sans-Serif" font-size="10.00">+ hasEnded</text>
<text text-anchor="start" x="7.70996" y="-147" font-family="Helvetica,sans-Serif" font-size="10.00">+ hasStarted</text>
<text text-anchor="start" x="7.70996" y="-135" font-family="Helvetica,sans-Serif" font-size="10.00">+ isDisposed</text>
<text text-anchor="start" x="7.70996" y="-123" font-family="Helvetica,sans-Serif" font-size="10.00">+ isEnabled</text>
<text text-anchor="start" x="7.70996" y="-111" font-family="Helvetica,sans-Serif" font-size="10.00">+ onTween</text>
<text text-anchor="start" x="7.70996" y="-99" font-family="Helvetica,sans-Serif" font-size="10.00">+ start</text>
<text text-anchor="start" x="7.70996" y="-87" font-family="Helvetica,sans-Serif" font-size="10.00">+ startTime</text>
<polyline fill="none" stroke="black" points="-0.290039,-81 80.29,-81 "/>
<text text-anchor="start" x="7.70996" y="-67" font-family="Helvetica,sans-Serif" font-size="10.00">+ Tweener()</text>
<text text-anchor="start" x="7.70996" y="-55" font-family="Helvetica,sans-Serif" font-size="10.00">+ Dispose()</text>
<text text-anchor="start" x="7.70996" y="-43" font-family="Helvetica,sans-Serif" font-size="10.00">+ Start()</text>
<text text-anchor="start" x="7.70996" y="-31" font-family="Helvetica,sans-Serif" font-size="10.00">+ Start()</text>
<text text-anchor="start" x="7.70996" y="-19" font-family="Helvetica,sans-Serif" font-size="10.00">+ Start()</text>
<text text-anchor="start" x="7.70996" y="-7" font-family="Helvetica,sans-Serif" font-size="10.00">+ Stop()</text>
</g>
<!-- Node2 -->
<g id="node2" class="node"><title>Node2</title>
<polygon fill="none" stroke="#bfbfbf" points="5.87451,-291 5.87451,-351 74.1255,-351 74.1255,-291 5.87451,-291"/>
<text text-anchor="middle" x="40" y="-337" font-family="Helvetica,sans-Serif" font-size="10.00">IDisposable</text>
<polyline fill="none" stroke="#bfbfbf" points="5.87451,-331 74.1255,-331 "/>
<text text-anchor="middle" x="40" y="-317" font-family="Helvetica,sans-Serif" font-size="10.00"> </text>
<polyline fill="none" stroke="#bfbfbf" points="5.87451,-311 74.1255,-311 "/>
<text text-anchor="middle" x="40" y="-297" font-family="Helvetica,sans-Serif" font-size="10.00"> </text>
</g>
<!-- Node2&#45;&gt;Node1 -->
<g id="edge1" class="edge"><title>Node2&#45;&gt;Node1</title>
<path fill="none" stroke="midnightblue" d="M40,-280.658C40,-272.207 40,-262.844 40,-253.035"/>
<polygon fill="none" stroke="midnightblue" points="36.5001,-280.839 40,-290.839 43.5001,-280.839 36.5001,-280.839"/>
</g>
</g>
</svg>
