<?xml version="1.0" encoding="UTF-8" standalone="no"?>
<!DOCTYPE svg PUBLIC "-//W3C//DTD SVG 1.1//EN"
 "http://www.w3.org/Graphics/SVG/1.1/DTD/svg11.dtd">
<!-- Generated by graphviz version 2.34.0 (20140122.0018)
 -->
<!-- Title: WildcardTileManager Pages: 1 -->
<svg width="346pt" height="686pt"
 viewBox="0.00 0.00 346.00 686.00" xmlns="http://www.w3.org/2000/svg" xmlns:xlink="http://www.w3.org/1999/xlink">
<g id="graph0" class="graph" transform="scale(1 1) rotate(0) translate(4 682)">
<title>WildcardTileManager</title>
<!-- Node1 -->
<g id="node1" class="node"><title>Node1</title>
<polygon fill="#bfbfbf" stroke="black" points="130.911,-1 130.911,-61 249.089,-61 249.089,-1 130.911,-1"/>
<text text-anchor="middle" x="190" y="-47" font-family="Helvetica,sans-Serif" font-size="10.00">WildcardTileManager</text>
<polyline fill="none" stroke="black" points="130.911,-41 249.089,-41 "/>
<text text-anchor="start" x="138.911" y="-27" font-family="Helvetica,sans-Serif" font-size="10.00">+ onWildcardTileSelect</text>
<polyline fill="none" stroke="black" points="130.911,-21 249.089,-21 "/>
<text text-anchor="start" x="138.911" y="-7" font-family="Helvetica,sans-Serif" font-size="10.00">+ SelectWildcardTile()</text>
</g>
<!-- Node2 -->
<g id="node2" class="node"><title>Node2</title>
<g id="a_node2"><a xlink:href="class_thinksquirrel_1_1_word_game_builder_1_1_w_g_b_base.html" target="_top" xlink:title="The base class for all Word Game Builder components. ">
<polygon fill="none" stroke="black" points="-0.0541992,-99 -0.0541992,-363 202.054,-363 202.054,-99 -0.0541992,-99"/>
<text text-anchor="middle" x="101" y="-349" font-family="Helvetica,sans-Serif" font-size="10.00">WGBBase</text>
<polyline fill="none" stroke="black" points="-0.0541992,-343 202.054,-343 "/>
<text text-anchor="start" x="7.9458" y="-329" font-family="Helvetica,sans-Serif" font-size="10.00">+ userData</text>
<polyline fill="none" stroke="black" points="-0.0541992,-323 202.054,-323 "/>
<text text-anchor="start" x="7.9458" y="-309" font-family="Helvetica,sans-Serif" font-size="10.00">+ GetComponentFromInterface&lt; T &gt;()</text>
<text text-anchor="start" x="7.9458" y="-297" font-family="Helvetica,sans-Serif" font-size="10.00">+ GetComponentInChildrenFrom</text>
<text text-anchor="start" x="7.9458" y="-285" font-family="Helvetica,sans-Serif" font-size="10.00">Interface&lt; T &gt;()</text>
<text text-anchor="start" x="7.9458" y="-273" font-family="Helvetica,sans-Serif" font-size="10.00">+ GetComponentsFromInterface&lt; T &gt;()</text>
<text text-anchor="start" x="7.9458" y="-261" font-family="Helvetica,sans-Serif" font-size="10.00">+ GetComponentsInChildrenFrom</text>
<text text-anchor="start" x="7.9458" y="-249" font-family="Helvetica,sans-Serif" font-size="10.00">Interface&lt; T &gt;()</text>
<text text-anchor="start" x="7.9458" y="-237" font-family="Helvetica,sans-Serif" font-size="10.00">+ FindObjectOfTypeFromInterface&lt; T &gt;()</text>
<text text-anchor="start" x="7.9458" y="-225" font-family="Helvetica,sans-Serif" font-size="10.00">+ FindObjectsOfTypeFromInterface&lt; T &gt;()</text>
<text text-anchor="start" x="7.9458" y="-213" font-family="Helvetica,sans-Serif" font-size="10.00">+ InstantiateFromInterface&lt; T &gt;()</text>
<text text-anchor="start" x="7.9458" y="-201" font-family="Helvetica,sans-Serif" font-size="10.00">+ InstantiateFromInterface&lt; T &gt;()</text>
<text text-anchor="start" x="7.9458" y="-189" font-family="Helvetica,sans-Serif" font-size="10.00">+ Log()</text>
<text text-anchor="start" x="7.9458" y="-177" font-family="Helvetica,sans-Serif" font-size="10.00">+ Log()</text>
<text text-anchor="start" x="7.9458" y="-165" font-family="Helvetica,sans-Serif" font-size="10.00">+ LogError()</text>
<text text-anchor="start" x="7.9458" y="-153" font-family="Helvetica,sans-Serif" font-size="10.00">+ LogError()</text>
<text text-anchor="start" x="7.9458" y="-141" font-family="Helvetica,sans-Serif" font-size="10.00">+ LogException()</text>
<text text-anchor="start" x="7.9458" y="-129" font-family="Helvetica,sans-Serif" font-size="10.00">+ LogException()</text>
<text text-anchor="start" x="7.9458" y="-117" font-family="Helvetica,sans-Serif" font-size="10.00">+ LogWarning()</text>
<text text-anchor="start" x="7.9458" y="-105" font-family="Helvetica,sans-Serif" font-size="10.00">+ LogWarning()</text>
</a>
</g>
</g>
<!-- Node2&#45;&gt;Node1 -->
<g id="edge1" class="edge"><title>Node2&#45;&gt;Node1</title>
<path fill="none" stroke="midnightblue" d="M164.168,-89.4686C168.829,-79.0988 173.157,-69.4716 176.885,-61.1765"/>
<polygon fill="none" stroke="midnightblue" points="160.9,-88.2018 159.993,-98.7577 167.285,-91.0717 160.9,-88.2018"/>
</g>
<!-- Node3 -->
<g id="node3" class="node"><title>Node3</title>
<polygon fill="none" stroke="#bfbfbf" points="57.978,-509 57.978,-569 144.022,-569 144.022,-509 57.978,-509"/>
<text text-anchor="middle" x="101" y="-555" font-family="Helvetica,sans-Serif" font-size="10.00">MonoBehaviour</text>
<polyline fill="none" stroke="#bfbfbf" points="57.978,-549 144.022,-549 "/>
<text text-anchor="middle" x="101" y="-535" font-family="Helvetica,sans-Serif" font-size="10.00"> </text>
<polyline fill="none" stroke="#bfbfbf" points="57.978,-529 144.022,-529 "/>
<text text-anchor="middle" x="101" y="-515" font-family="Helvetica,sans-Serif" font-size="10.00"> </text>
</g>
<!-- Node3&#45;&gt;Node2 -->
<g id="edge2" class="edge"><title>Node3&#45;&gt;Node2</title>
<path fill="none" stroke="midnightblue" d="M101,-498.839C101,-464.395 101,-412.232 101,-363.136"/>
<polygon fill="none" stroke="midnightblue" points="97.5001,-498.936 101,-508.936 104.5,-498.936 97.5001,-498.936"/>
</g>
<!-- Node4 -->
<g id="node4" class="node"><title>Node4</title>
<g id="a_node4"><a xlink:href="interface_thinksquirrel_1_1_word_game_builder_1_1_object_model_1_1_i_wildcard_tile_manager.html" target="_top" xlink:title="An interface defining a manager for selecting wildcard tiles. Implementations must derive from MonoBe...">
<polygon fill="none" stroke="black" points="219.911,-201 219.911,-261 338.089,-261 338.089,-201 219.911,-201"/>
<text text-anchor="middle" x="279" y="-247" font-family="Helvetica,sans-Serif" font-size="10.00">IWildcardTileManager</text>
<polyline fill="none" stroke="black" points="219.911,-241 338.089,-241 "/>
<text text-anchor="start" x="227.911" y="-227" font-family="Helvetica,sans-Serif" font-size="10.00">+ onWildcardTileSelect</text>
<polyline fill="none" stroke="black" points="219.911,-221 338.089,-221 "/>
<text text-anchor="start" x="227.911" y="-207" font-family="Helvetica,sans-Serif" font-size="10.00">+ SelectWildcardTile()</text>
</a>
</g>
</g>
<!-- Node4&#45;&gt;Node1 -->
<g id="edge3" class="edge"><title>Node4&#45;&gt;Node1</title>
<path fill="none" stroke="midnightblue" d="M261.7,-191.513C244.517,-153.286 218.557,-95.5319 203.041,-61.0129"/>
<polygon fill="none" stroke="midnightblue" points="258.576,-193.098 265.868,-200.784 264.96,-190.229 258.576,-193.098"/>
</g>
<!-- Node5 -->
<g id="node5" class="node"><title>Node5</title>
<g id="a_node5"><a xlink:href="interface_thinksquirrel_1_1_word_game_builder_1_1_object_model_1_1_i_mono_behaviour.html" target="_top" xlink:title="An interface representation of a MonoBehaviour. ">
<polygon fill="none" stroke="black" points="223.339,-401 223.339,-677 334.661,-677 334.661,-401 223.339,-401"/>
<text text-anchor="middle" x="279" y="-663" font-family="Helvetica,sans-Serif" font-size="10.00">IMonoBehaviour</text>
<polyline fill="none" stroke="black" points="223.339,-657 334.661,-657 "/>
<text text-anchor="start" x="231.339" y="-643" font-family="Helvetica,sans-Serif" font-size="10.00">+ enabled</text>
<text text-anchor="start" x="231.339" y="-631" font-family="Helvetica,sans-Serif" font-size="10.00">+ gameObject</text>
<text text-anchor="start" x="231.339" y="-619" font-family="Helvetica,sans-Serif" font-size="10.00">+ hideFlags</text>
<text text-anchor="start" x="231.339" y="-607" font-family="Helvetica,sans-Serif" font-size="10.00">+ name</text>
<text text-anchor="start" x="231.339" y="-595" font-family="Helvetica,sans-Serif" font-size="10.00">+ tag</text>
<text text-anchor="start" x="231.339" y="-583" font-family="Helvetica,sans-Serif" font-size="10.00">+ transform</text>
<text text-anchor="start" x="231.339" y="-571" font-family="Helvetica,sans-Serif" font-size="10.00">+ userData</text>
<polyline fill="none" stroke="black" points="223.339,-565 334.661,-565 "/>
<text text-anchor="start" x="231.339" y="-551" font-family="Helvetica,sans-Serif" font-size="10.00">+ CancelInvoke()</text>
<text text-anchor="start" x="231.339" y="-539" font-family="Helvetica,sans-Serif" font-size="10.00">+ CancelInvoke()</text>
<text text-anchor="start" x="231.339" y="-527" font-family="Helvetica,sans-Serif" font-size="10.00">+ GetInstanceID()</text>
<text text-anchor="start" x="231.339" y="-515" font-family="Helvetica,sans-Serif" font-size="10.00">+ Invoke()</text>
<text text-anchor="start" x="231.339" y="-503" font-family="Helvetica,sans-Serif" font-size="10.00">+ InvokeRepeating()</text>
<text text-anchor="start" x="231.339" y="-491" font-family="Helvetica,sans-Serif" font-size="10.00">+ IsInvoking()</text>
<text text-anchor="start" x="231.339" y="-479" font-family="Helvetica,sans-Serif" font-size="10.00">+ IsInvoking()</text>
<text text-anchor="start" x="231.339" y="-467" font-family="Helvetica,sans-Serif" font-size="10.00">+ StartCoroutine()</text>
<text text-anchor="start" x="231.339" y="-455" font-family="Helvetica,sans-Serif" font-size="10.00">+ StartCoroutine()</text>
<text text-anchor="start" x="231.339" y="-443" font-family="Helvetica,sans-Serif" font-size="10.00">+ StartCoroutine()</text>
<text text-anchor="start" x="231.339" y="-431" font-family="Helvetica,sans-Serif" font-size="10.00">+ StopAllCoroutines()</text>
<text text-anchor="start" x="231.339" y="-419" font-family="Helvetica,sans-Serif" font-size="10.00">+ StopCoroutine()</text>
<text text-anchor="start" x="231.339" y="-407" font-family="Helvetica,sans-Serif" font-size="10.00">+ ToString()</text>
</a>
</g>
</g>
<!-- Node5&#45;&gt;Node4 -->
<g id="edge4" class="edge"><title>Node5&#45;&gt;Node4</title>
<path fill="none" stroke="midnightblue" d="M279,-390.533C279,-341.429 279,-291.564 279,-261.205"/>
<polygon fill="none" stroke="midnightblue" points="275.5,-390.664 279,-400.664 282.5,-390.664 275.5,-390.664"/>
</g>
</g>
</svg>
