<?xml version="1.0" encoding="UTF-8" standalone="no"?>
<!DOCTYPE svg PUBLIC "-//W3C//DTD SVG 1.1//EN"
 "http://www.w3.org/Graphics/SVG/1.1/DTD/svg11.dtd">
<!-- Generated by graphviz version 2.34.0 (20140122.0018)
 -->
<!-- Title: ExampleView Pages: 1 -->
<svg width="94pt" height="168pt"
 viewBox="0.00 0.00 94.00 168.00" xmlns="http://www.w3.org/2000/svg" xmlns:xlink="http://www.w3.org/1999/xlink">
<g id="graph0" class="graph" transform="scale(1 1) rotate(0) translate(4 164)">
<title>ExampleView</title>
<!-- Node1 -->
<g id="node1" class="node"><title>Node1</title>
<polygon fill="#bfbfbf" stroke="black" points="4.79736,-1 4.79736,-61 81.2026,-61 81.2026,-1 4.79736,-1"/>
<text text-anchor="middle" x="43" y="-47" font-family="Helvetica,sans-Serif" font-size="10.00">ExampleView</text>
<polyline fill="none" stroke="black" points="4.79736,-41 81.2026,-41 "/>
<text text-anchor="middle" x="43" y="-27" font-family="Helvetica,sans-Serif" font-size="10.00"> </text>
<polyline fill="none" stroke="black" points="4.79736,-21 81.2026,-21 "/>
<text text-anchor="middle" x="43" y="-7" font-family="Helvetica,sans-Serif" font-size="10.00"> </text>
</g>
<!-- Node2 -->
<g id="node2" class="node"><title>Node2</title>
<polygon fill="none" stroke="#bfbfbf" points="-0.0219727,-99 -0.0219727,-159 86.022,-159 86.022,-99 -0.0219727,-99"/>
<text text-anchor="middle" x="43" y="-145" font-family="Helvetica,sans-Serif" font-size="10.00">MonoBehaviour</text>
<polyline fill="none" stroke="#bfbfbf" points="-0.0219727,-139 86.022,-139 "/>
<text text-anchor="middle" x="43" y="-125" font-family="Helvetica,sans-Serif" font-size="10.00"> </text>
<polyline fill="none" stroke="#bfbfbf" points="-0.0219727,-119 86.022,-119 "/>
<text text-anchor="middle" x="43" y="-105" font-family="Helvetica,sans-Serif" font-size="10.00"> </text>
</g>
<!-- Node2&#45;&gt;Node1 -->
<g id="edge1" class="edge"><title>Node2&#45;&gt;Node1</title>
<path fill="none" stroke="midnightblue" d="M43,-88.8172C43,-79.6194 43,-69.9744 43,-61.2962"/>
<polygon fill="none" stroke="midnightblue" points="39.5001,-88.9363 43,-98.9363 46.5001,-88.9363 39.5001,-88.9363"/>
</g>
</g>
</svg>
