<?xml version="1.0" encoding="UTF-8" standalone="no"?>
<!DOCTYPE svg PUBLIC "-//W3C//DTD SVG 1.1//EN"
 "http://www.w3.org/Graphics/SVG/1.1/DTD/svg11.dtd">
<!-- Generated by graphviz version 2.34.0 (20140122.0018)
 -->
<!-- Title: Graphical Class Hierarchy Pages: 1 -->
<svg width="202pt" height="67pt"
 viewBox="0.00 0.00 202.00 67.00" xmlns="http://www.w3.org/2000/svg" xmlns:xlink="http://www.w3.org/1999/xlink">
<g id="graph0" class="graph" transform="scale(1 1) rotate(0) translate(4 63)">
<title>Graphical Class Hierarchy</title>
<!-- Node1 -->
<g id="node1" class="node"><title>Node1</title>
<polygon fill="none" stroke="#bfbfbf" points="-0.0292969,-39 -0.0292969,-59 116.029,-59 116.029,-39 -0.0292969,-39"/>
<text text-anchor="middle" x="58" y="-45" font-family="Helvetica,sans-Serif" font-size="10.00">IComparable&lt; Letter &gt;</text>
</g>
<!-- Node2 -->
<g id="node2" class="node"><title>Node2</title>
<g id="a_node2"><a xlink:href="struct_thinksquirrel_1_1_word_game_builder_1_1_letter.html" target="_top" xlink:title="Represents a letter. ">
<polygon fill="none" stroke="black" points="152.214,-19 152.214,-39 193.786,-39 193.786,-19 152.214,-19"/>
<text text-anchor="middle" x="173" y="-25" font-family="Helvetica,sans-Serif" font-size="10.00">Letter</text>
</a>
</g>
</g>
<!-- Node1&#45;&gt;Node2 -->
<g id="edge1" class="edge"><title>Node1&#45;&gt;Node2</title>
<path fill="none" stroke="midnightblue" d="M125.895,-37.1602C135.456,-35.468 144.605,-33.8486 152.197,-32.505"/>
<polygon fill="midnightblue" stroke="midnightblue" points="125.068,-33.7521 115.831,-38.9414 126.288,-40.6449 125.068,-33.7521"/>
</g>
<!-- Node3 -->
<g id="node3" class="node"><title>Node3</title>
<polygon fill="none" stroke="#bfbfbf" points="4.6875,-0 4.6875,-20 111.312,-20 111.312,-0 4.6875,-0"/>
<text text-anchor="middle" x="58" y="-6" font-family="Helvetica,sans-Serif" font-size="10.00">IEquatable&lt; Letter &gt;</text>
</g>
<!-- Node3&#45;&gt;Node2 -->
<g id="edge2" class="edge"><title>Node3&#45;&gt;Node2</title>
<path fill="none" stroke="midnightblue" d="M121.67,-20.5374C132.667,-22.3865 143.349,-24.1825 152.021,-25.6408"/>
<polygon fill="midnightblue" stroke="midnightblue" points="121.972,-17.0392 111.53,-18.8325 120.811,-23.9423 121.972,-17.0392"/>
</g>
</g>
</svg>
