<?xml version="1.0" encoding="UTF-8" standalone="no"?>
<!DOCTYPE svg PUBLIC "-//W3C//DTD SVG 1.1//EN"
 "http://www.w3.org/Graphics/SVG/1.1/DTD/svg11.dtd">
<!-- Generated by graphviz version 2.34.0 (20140122.0018)
 -->
<!-- Title: Graphical Class Hierarchy Pages: 1 -->
<svg width="364pt" height="208pt"
 viewBox="0.00 0.00 364.00 208.00" xmlns="http://www.w3.org/2000/svg" xmlns:xlink="http://www.w3.org/1999/xlink">
<g id="graph0" class="graph" transform="scale(1 1) rotate(0) translate(4 204)">
<title>Graphical Class Hierarchy</title>
<!-- Node1 -->
<g id="node1" class="node"><title>Node1</title>
<g id="a_node1"><a xlink:href="class_thinksquirrel_1_1_word_game_builder_example_1_1_example_view_model_1_1_ui_context.html" target="_top" xlink:title="Represents a base class for all user interface contexts. ">
<polygon fill="none" stroke="black" points="-0.163086,-96 -0.163086,-116 150.163,-116 150.163,-96 -0.163086,-96"/>
<text text-anchor="middle" x="75" y="-102" font-family="Helvetica,sans-Serif" font-size="10.00">ExampleViewModel.UiContext</text>
</a>
</g>
</g>
<!-- Node2 -->
<g id="node2" class="node"><title>Node2</title>
<g id="a_node2"><a xlink:href="class_thinksquirrel_1_1_word_game_builder_example_1_1_example_view_model_1_1_agent_context.html" target="_top" xlink:title="Contains information about the agent. ">
<polygon fill="none" stroke="black" points="187.492,-180 187.492,-200 354.508,-200 354.508,-180 187.492,-180"/>
<text text-anchor="middle" x="271" y="-186" font-family="Helvetica,sans-Serif" font-size="10.00">ExampleViewModel.AgentContext</text>
</a>
</g>
</g>
<!-- Node1&#45;&gt;Node2 -->
<g id="edge1" class="edge"><title>Node1&#45;&gt;Node2</title>
<path fill="none" stroke="midnightblue" d="M98.6944,-121.88C120.258,-136.305 154.047,-157.225 186,-170 195.883,-173.951 206.745,-177.249 217.283,-179.952"/>
<polygon fill="midnightblue" stroke="midnightblue" points="100.481,-118.862 90.2423,-116.138 96.5472,-124.652 100.481,-118.862"/>
</g>
<!-- Node3 -->
<g id="node3" class="node"><title>Node3</title>
<g id="a_node3"><a xlink:href="class_thinksquirrel_1_1_word_game_builder_example_1_1_example_view_model_1_1_game_context.html" target="_top" xlink:title="Contains information about the game. ">
<polygon fill="none" stroke="black" points="186.943,-141 186.943,-161 355.057,-161 355.057,-141 186.943,-141"/>
<text text-anchor="middle" x="271" y="-147" font-family="Helvetica,sans-Serif" font-size="10.00">ExampleViewModel.GameContext</text>
</a>
</g>
</g>
<!-- Node1&#45;&gt;Node3 -->
<g id="edge2" class="edge"><title>Node1&#45;&gt;Node3</title>
<path fill="none" stroke="midnightblue" d="M129.597,-118.432C160.147,-125.519 197.933,-134.284 226.608,-140.935"/>
<polygon fill="midnightblue" stroke="midnightblue" points="130.07,-114.949 119.537,-116.099 128.488,-121.768 130.07,-114.949"/>
</g>
<!-- Node4 -->
<g id="node4" class="node"><title>Node4</title>
<g id="a_node4"><a xlink:href="class_thinksquirrel_1_1_word_game_builder_example_1_1_example_view_model_1_1_languages_context.html" target="_top" xlink:title="Contains information about languages. ">
<polygon fill="none" stroke="black" points="193.044,-90 193.044,-122 348.956,-122 348.956,-90 193.044,-90"/>
<text text-anchor="start" x="201.044" y="-108" font-family="Helvetica,sans-Serif" font-size="10.00">ExampleViewModel.Languages</text>
<text text-anchor="middle" x="271" y="-96" font-family="Helvetica,sans-Serif" font-size="10.00">Context</text>
</a>
</g>
</g>
<!-- Node1&#45;&gt;Node4 -->
<g id="edge3" class="edge"><title>Node1&#45;&gt;Node4</title>
<path fill="none" stroke="midnightblue" d="M160.455,-106C171.265,-106 182.287,-106 192.971,-106"/>
<polygon fill="midnightblue" stroke="midnightblue" points="160.174,-102.5 150.173,-106 160.173,-109.5 160.174,-102.5"/>
</g>
<!-- Node5 -->
<g id="node5" class="node"><title>Node5</title>
<g id="a_node5"><a xlink:href="class_thinksquirrel_1_1_word_game_builder_example_1_1_example_view_model_1_1_player_context.html" target="_top" xlink:title="Contains information about the player. ">
<polygon fill="none" stroke="black" points="186.386,-51 186.386,-71 355.614,-71 355.614,-51 186.386,-51"/>
<text text-anchor="middle" x="271" y="-57" font-family="Helvetica,sans-Serif" font-size="10.00">ExampleViewModel.PlayerContext</text>
</a>
</g>
</g>
<!-- Node1&#45;&gt;Node5 -->
<g id="edge4" class="edge"><title>Node1&#45;&gt;Node5</title>
<path fill="none" stroke="midnightblue" d="M129.597,-93.5677C160.147,-86.4814 197.933,-77.7165 226.608,-71.0652"/>
<polygon fill="midnightblue" stroke="midnightblue" points="128.488,-90.232 119.537,-95.9011 130.07,-97.0509 128.488,-90.232"/>
</g>
<!-- Node6 -->
<g id="node6" class="node"><title>Node6</title>
<g id="a_node6"><a xlink:href="class_thinksquirrel_1_1_word_game_builder_example_1_1_example_view_model_1_1_word_result_context.html" target="_top" xlink:title="Contains information about a word check. ">
<polygon fill="none" stroke="black" points="191.76,-0 191.76,-32 350.24,-32 350.24,-0 191.76,-0"/>
<text text-anchor="start" x="199.76" y="-18" font-family="Helvetica,sans-Serif" font-size="10.00">ExampleViewModel.WordResult</text>
<text text-anchor="middle" x="271" y="-6" font-family="Helvetica,sans-Serif" font-size="10.00">Context</text>
</a>
</g>
</g>
<!-- Node1&#45;&gt;Node6 -->
<g id="edge5" class="edge"><title>Node1&#45;&gt;Node6</title>
<path fill="none" stroke="midnightblue" d="M99.2647,-90.3674C120.985,-76.2882 154.666,-55.7514 186,-42 194.248,-38.3804 203.155,-35.0482 211.981,-32.0632"/>
<polygon fill="midnightblue" stroke="midnightblue" points="97.1709,-87.555 90.7301,-95.9673 101.011,-93.4076 97.1709,-87.555"/>
</g>
</g>
</svg>
