<?xml version="1.0" encoding="UTF-8" standalone="no"?>
<!DOCTYPE svg PUBLIC "-//W3C//DTD SVG 1.1//EN"
 "http://www.w3.org/Graphics/SVG/1.1/DTD/svg11.dtd">
<!-- Generated by graphviz version 2.34.0 (20130907.0111)
 -->
<!-- Title: WGBBase Pages: 1 -->
<svg width="1981pt" height="706pt"
 viewBox="0.00 0.00 1981.00 706.00" xmlns="http://www.w3.org/2000/svg" xmlns:xlink="http://www.w3.org/1999/xlink">
<g id="graph0" class="graph" transform="scale(1 1) rotate(0) translate(4 702)">
<title>WGBBase</title>
<!-- Node1 -->
<g id="node1" class="node"><title>Node1</title>
<polygon fill="#bfbfbf" stroke="black" points="977.5,-359 977.5,-603 1174.5,-603 1174.5,-359 977.5,-359"/>
<text text-anchor="middle" x="1076" y="-591" font-family="Helvetica,sans-Serif" font-size="10.00">WGBBase</text>
<polyline fill="none" stroke="black" points="977.5,-584 1174.5,-584 "/>
<text text-anchor="start" x="985.5" y="-572" font-family="Helvetica,sans-Serif" font-size="10.00">+ userData</text>
<polyline fill="none" stroke="black" points="977.5,-565 1174.5,-565 "/>
<text text-anchor="start" x="985.5" y="-553" font-family="Helvetica,sans-Serif" font-size="10.00">+ GetComponentFromInterface&lt; T &gt;()</text>
<text text-anchor="start" x="985.5" y="-542" font-family="Helvetica,sans-Serif" font-size="10.00">+ GetComponentInChildrenFrom</text>
<text text-anchor="start" x="985.5" y="-531" font-family="Helvetica,sans-Serif" font-size="10.00">Interface&lt; T &gt;()</text>
<text text-anchor="start" x="985.5" y="-520" font-family="Helvetica,sans-Serif" font-size="10.00">+ GetComponentsFromInterface&lt; T &gt;()</text>
<text text-anchor="start" x="985.5" y="-509" font-family="Helvetica,sans-Serif" font-size="10.00">+ GetComponentsInChildrenFrom</text>
<text text-anchor="start" x="985.5" y="-498" font-family="Helvetica,sans-Serif" font-size="10.00">Interface&lt; T &gt;()</text>
<text text-anchor="start" x="985.5" y="-487" font-family="Helvetica,sans-Serif" font-size="10.00">+ FindObjectOfTypeFromInterface&lt; T &gt;()</text>
<text text-anchor="start" x="985.5" y="-476" font-family="Helvetica,sans-Serif" font-size="10.00">+ FindObjectsOfTypeFromInterface&lt; T &gt;()</text>
<text text-anchor="start" x="985.5" y="-465" font-family="Helvetica,sans-Serif" font-size="10.00">+ InstantiateFromInterface&lt; T &gt;()</text>
<text text-anchor="start" x="985.5" y="-454" font-family="Helvetica,sans-Serif" font-size="10.00">+ InstantiateFromInterface&lt; T &gt;()</text>
<text text-anchor="start" x="985.5" y="-443" font-family="Helvetica,sans-Serif" font-size="10.00">+ Log()</text>
<text text-anchor="start" x="985.5" y="-432" font-family="Helvetica,sans-Serif" font-size="10.00">+ Log()</text>
<text text-anchor="start" x="985.5" y="-421" font-family="Helvetica,sans-Serif" font-size="10.00">+ LogError()</text>
<text text-anchor="start" x="985.5" y="-410" font-family="Helvetica,sans-Serif" font-size="10.00">+ LogError()</text>
<text text-anchor="start" x="985.5" y="-399" font-family="Helvetica,sans-Serif" font-size="10.00">+ LogException()</text>
<text text-anchor="start" x="985.5" y="-388" font-family="Helvetica,sans-Serif" font-size="10.00">+ LogException()</text>
<text text-anchor="start" x="985.5" y="-377" font-family="Helvetica,sans-Serif" font-size="10.00">+ LogWarning()</text>
<text text-anchor="start" x="985.5" y="-366" font-family="Helvetica,sans-Serif" font-size="10.00">+ LogWarning()</text>
</g>
<!-- Node3 -->
<g id="node3" class="node"><title>Node3</title>
<g id="a_node3"><a xlink:href="class_thinksquirrel_software_1_1_word_game_builder_1_1_gameplay_1_1_tile_pool.html" target="_top" xlink:title="A class that manages an instance pool of letter tiles. ">
<polygon fill="none" stroke="black" points="0,-0.5 0,-321.5 116,-321.5 116,-0.5 0,-0.5"/>
<text text-anchor="middle" x="58" y="-309.5" font-family="Helvetica,sans-Serif" font-size="10.00">TilePool</text>
<polyline fill="none" stroke="black" points="0,-302.5 116,-302.5 "/>
<text text-anchor="start" x="8" y="-290.5" font-family="Helvetica,sans-Serif" font-size="10.00">+ blankLetterCount</text>
<text text-anchor="start" x="8" y="-279.5" font-family="Helvetica,sans-Serif" font-size="10.00">+ language</text>
<text text-anchor="start" x="8" y="-268.5" font-family="Helvetica,sans-Serif" font-size="10.00">+ languageIdentifier</text>
<text text-anchor="start" x="8" y="-257.5" font-family="Helvetica,sans-Serif" font-size="10.00">+ lastDistributionCount</text>
<text text-anchor="start" x="8" y="-246.5" font-family="Helvetica,sans-Serif" font-size="10.00">+ onTileDistribution</text>
<text text-anchor="start" x="8" y="-235.5" font-family="Helvetica,sans-Serif" font-size="10.00">+ poolMultiplier</text>
<text text-anchor="start" x="8" y="-224.5" font-family="Helvetica,sans-Serif" font-size="10.00">+ tileDistribution</text>
<text text-anchor="start" x="8" y="-213.5" font-family="Helvetica,sans-Serif" font-size="10.00">+ tileDistributionCount</text>
<text text-anchor="start" x="8" y="-202.5" font-family="Helvetica,sans-Serif" font-size="10.00">+ tilePool</text>
<text text-anchor="start" x="8" y="-191.5" font-family="Helvetica,sans-Serif" font-size="10.00">+ tilePoolCount</text>
<text text-anchor="start" x="8" y="-180.5" font-family="Helvetica,sans-Serif" font-size="10.00">+ tilePrefab</text>
<polyline fill="none" stroke="black" points="0,-173.5 116,-173.5 "/>
<text text-anchor="start" x="8" y="-161.5" font-family="Helvetica,sans-Serif" font-size="10.00">+ AddLetter()</text>
<text text-anchor="start" x="8" y="-150.5" font-family="Helvetica,sans-Serif" font-size="10.00">+ CreateTilePool()</text>
<text text-anchor="start" x="8" y="-139.5" font-family="Helvetica,sans-Serif" font-size="10.00">+ CreateTilePool()</text>
<text text-anchor="start" x="8" y="-128.5" font-family="Helvetica,sans-Serif" font-size="10.00">+ DestroyAllTiles()</text>
<text text-anchor="start" x="8" y="-117.5" font-family="Helvetica,sans-Serif" font-size="10.00">+ DestroyTile()</text>
<text text-anchor="start" x="8" y="-106.5" font-family="Helvetica,sans-Serif" font-size="10.00">+ DestroyTiles()</text>
<text text-anchor="start" x="8" y="-95.5" font-family="Helvetica,sans-Serif" font-size="10.00">+ DistributeTiles()</text>
<text text-anchor="start" x="8" y="-84.5" font-family="Helvetica,sans-Serif" font-size="10.00">+ DistributeTiles()</text>
<text text-anchor="start" x="8" y="-73.5" font-family="Helvetica,sans-Serif" font-size="10.00">+ InsertTile()</text>
<text text-anchor="start" x="8" y="-62.5" font-family="Helvetica,sans-Serif" font-size="10.00">+ RemoveLetter()</text>
<text text-anchor="start" x="8" y="-51.5" font-family="Helvetica,sans-Serif" font-size="10.00">+ RemoveTile()</text>
<text text-anchor="start" x="8" y="-40.5" font-family="Helvetica,sans-Serif" font-size="10.00">+ RemoveTiles()</text>
<text text-anchor="start" x="8" y="-29.5" font-family="Helvetica,sans-Serif" font-size="10.00">+ ResetTilePool()</text>
<text text-anchor="start" x="8" y="-18.5" font-family="Helvetica,sans-Serif" font-size="10.00">+ SaveTileDistribution()</text>
<text text-anchor="start" x="8" y="-7.5" font-family="Helvetica,sans-Serif" font-size="10.00">+ SetTiles()</text>
</a>
</g>
</g>
<!-- Node1&#45;&gt;Node3 -->
<g id="edge2" class="edge"><title>Node1&#45;&gt;Node3</title>
<path fill="none" stroke="midnightblue" d="M967.423,-474.941C746.38,-462.612 254.097,-424.159 125,-322 121.93,-319.571 118.999,-316.975 116.201,-314.237"/>
<polygon fill="none" stroke="midnightblue" points="967.243,-478.437 977.421,-475.492 967.628,-471.447 967.243,-478.437"/>
</g>
<!-- Node4 -->
<g id="node4" class="node"><title>Node4</title>
<g id="a_node4"><a xlink:href="class_thinksquirrel_software_1_1_word_game_builder_1_1_gameplay_1_1_wildcard_tile_manager.html" target="_top" xlink:title="A manager class for selecting wildcard tiles. ">
<polygon fill="none" stroke="black" points="134.5,-132.5 134.5,-189.5 251.5,-189.5 251.5,-132.5 134.5,-132.5"/>
<text text-anchor="middle" x="193" y="-177.5" font-family="Helvetica,sans-Serif" font-size="10.00">WildcardTileManager</text>
<polyline fill="none" stroke="black" points="134.5,-170.5 251.5,-170.5 "/>
<text text-anchor="start" x="142.5" y="-158.5" font-family="Helvetica,sans-Serif" font-size="10.00">+ onWildcardTileSelect</text>
<polyline fill="none" stroke="black" points="134.5,-151.5 251.5,-151.5 "/>
<text text-anchor="start" x="142.5" y="-139.5" font-family="Helvetica,sans-Serif" font-size="10.00">+ SelectWildcardTile()</text>
</a>
</g>
</g>
<!-- Node1&#45;&gt;Node4 -->
<g id="edge3" class="edge"><title>Node1&#45;&gt;Node4</title>
<path fill="none" stroke="midnightblue" d="M967.254,-471.578C770.816,-454.36 367.22,-409.192 260,-322 218.995,-288.655 202.724,-225.833 196.545,-189.621"/>
<polygon fill="none" stroke="midnightblue" points="967.045,-475.073 977.31,-472.45 967.65,-468.099 967.045,-475.073"/>
</g>
<!-- Node5 -->
<g id="node5" class="node"><title>Node5</title>
<g id="a_node5"><a xlink:href="class_thinksquirrel_software_1_1_word_game_builder_1_1_gameplay_1_1_word_game_agent.html" target="_top" xlink:title="Represents a word game AI agent. The agent is multithreaded and supports automatic selection/submissi...">
<polygon fill="none" stroke="black" points="269.5,-61 269.5,-261 398.5,-261 398.5,-61 269.5,-61"/>
<text text-anchor="middle" x="334" y="-249" font-family="Helvetica,sans-Serif" font-size="10.00">WordGameAgent</text>
<polyline fill="none" stroke="black" points="269.5,-242 398.5,-242 "/>
<text text-anchor="start" x="277.5" y="-230" font-family="Helvetica,sans-Serif" font-size="10.00">+ autoSelectTime</text>
<text text-anchor="start" x="277.5" y="-219" font-family="Helvetica,sans-Serif" font-size="10.00">+ autoSelectWord</text>
<text text-anchor="start" x="277.5" y="-208" font-family="Helvetica,sans-Serif" font-size="10.00">+ autoSubmitTime</text>
<text text-anchor="start" x="277.5" y="-197" font-family="Helvetica,sans-Serif" font-size="10.00">+ autoSubmitWord</text>
<text text-anchor="start" x="277.5" y="-186" font-family="Helvetica,sans-Serif" font-size="10.00">+ bias</text>
<text text-anchor="start" x="277.5" y="-175" font-family="Helvetica,sans-Serif" font-size="10.00">+ customWildcardScore</text>
<text text-anchor="start" x="277.5" y="-164" font-family="Helvetica,sans-Serif" font-size="10.00">+ customWildcardScores</text>
<text text-anchor="start" x="277.5" y="-153" font-family="Helvetica,sans-Serif" font-size="10.00">+ customWildcardScoring</text>
<text text-anchor="start" x="277.5" y="-142" font-family="Helvetica,sans-Serif" font-size="10.00">+ ignorePlayerInputState</text>
<text text-anchor="start" x="277.5" y="-131" font-family="Helvetica,sans-Serif" font-size="10.00">+ lastSearchInfo</text>
<text text-anchor="start" x="277.5" y="-120" font-family="Helvetica,sans-Serif" font-size="10.00">and 9 more...</text>
<polyline fill="none" stroke="black" points="269.5,-113 398.5,-113 "/>
<text text-anchor="start" x="277.5" y="-101" font-family="Helvetica,sans-Serif" font-size="10.00">+ FindWords()</text>
<text text-anchor="start" x="277.5" y="-90" font-family="Helvetica,sans-Serif" font-size="10.00">+ FindWords()</text>
<text text-anchor="start" x="277.5" y="-79" font-family="Helvetica,sans-Serif" font-size="10.00">+ FindWords()</text>
<text text-anchor="start" x="277.5" y="-68" font-family="Helvetica,sans-Serif" font-size="10.00">+ Stop()</text>
</a>
</g>
</g>
<!-- Node1&#45;&gt;Node5 -->
<g id="edge4" class="edge"><title>Node1&#45;&gt;Node5</title>
<path fill="none" stroke="midnightblue" d="M967.08,-465.957C800.517,-442.582 492.865,-391.321 408,-322 388.564,-306.124 373.987,-284.002 363.15,-261.265"/>
<polygon fill="none" stroke="midnightblue" points="966.966,-469.475 977.353,-467.388 967.932,-462.542 966.966,-469.475"/>
</g>
<!-- Node6 -->
<g id="node6" class="node"><title>Node6</title>
<g id="a_node6"><a xlink:href="class_thinksquirrel_software_1_1_word_game_builder_1_1_gameplay_1_1_word_game_player.html" target="_top" xlink:title="Represents a word game player. Also tracks scores and high scores. ">
<polygon fill="none" stroke="black" points="417,-11.5 417,-310.5 539,-310.5 539,-11.5 417,-11.5"/>
<text text-anchor="middle" x="478" y="-298.5" font-family="Helvetica,sans-Serif" font-size="10.00">WordGamePlayer</text>
<polyline fill="none" stroke="black" points="417,-291.5 539,-291.5 "/>
<text text-anchor="start" x="425" y="-279.5" font-family="Helvetica,sans-Serif" font-size="10.00">+ bestWord</text>
<text text-anchor="start" x="425" y="-268.5" font-family="Helvetica,sans-Serif" font-size="10.00">+ bestWordScore</text>
<text text-anchor="start" x="425" y="-257.5" font-family="Helvetica,sans-Serif" font-size="10.00">+ heldTiles</text>
<text text-anchor="start" x="425" y="-246.5" font-family="Helvetica,sans-Serif" font-size="10.00">+ highScore</text>
<text text-anchor="start" x="425" y="-235.5" font-family="Helvetica,sans-Serif" font-size="10.00">+ inputEnabled</text>
<text text-anchor="start" x="425" y="-224.5" font-family="Helvetica,sans-Serif" font-size="10.00">+ lastPenalty</text>
<text text-anchor="start" x="425" y="-213.5" font-family="Helvetica,sans-Serif" font-size="10.00">+ lastResult</text>
<text text-anchor="start" x="425" y="-202.5" font-family="Helvetica,sans-Serif" font-size="10.00">+ lastWord</text>
<text text-anchor="start" x="425" y="-191.5" font-family="Helvetica,sans-Serif" font-size="10.00">+ lastWordScore</text>
<text text-anchor="start" x="425" y="-180.5" font-family="Helvetica,sans-Serif" font-size="10.00">+ maxTiles</text>
<text text-anchor="start" x="425" y="-169.5" font-family="Helvetica,sans-Serif" font-size="10.00">and 11 more...</text>
<polyline fill="none" stroke="black" points="417,-162.5 539,-162.5 "/>
<text text-anchor="start" x="425" y="-150.5" font-family="Helvetica,sans-Serif" font-size="10.00">+ ClearSelection()</text>
<text text-anchor="start" x="425" y="-139.5" font-family="Helvetica,sans-Serif" font-size="10.00">+ DeselectTile()</text>
<text text-anchor="start" x="425" y="-128.5" font-family="Helvetica,sans-Serif" font-size="10.00">+ Initialize()</text>
<text text-anchor="start" x="425" y="-117.5" font-family="Helvetica,sans-Serif" font-size="10.00">+ ResetAllData()</text>
<text text-anchor="start" x="425" y="-106.5" font-family="Helvetica,sans-Serif" font-size="10.00">+ ResetAllScores()</text>
<text text-anchor="start" x="425" y="-95.5" font-family="Helvetica,sans-Serif" font-size="10.00">+ ResetBestWord()</text>
<text text-anchor="start" x="425" y="-84.5" font-family="Helvetica,sans-Serif" font-size="10.00">+ ResetHighScore()</text>
<text text-anchor="start" x="425" y="-73.5" font-family="Helvetica,sans-Serif" font-size="10.00">+ ResetLastPenalty()</text>
<text text-anchor="start" x="425" y="-62.5" font-family="Helvetica,sans-Serif" font-size="10.00">+ ResetLastWord()</text>
<text text-anchor="start" x="425" y="-51.5" font-family="Helvetica,sans-Serif" font-size="10.00">+ ResetPreviousWords()</text>
<text text-anchor="start" x="425" y="-40.5" font-family="Helvetica,sans-Serif" font-size="10.00">and 6 more...</text>
<text text-anchor="start" x="425" y="-29.5" font-family="Helvetica,sans-Serif" font-size="10.00">+ FindPlayer()</text>
<text text-anchor="start" x="425" y="-18.5" font-family="Helvetica,sans-Serif" font-size="10.00">+ GetAllPlayers()</text>
</a>
</g>
</g>
<!-- Node1&#45;&gt;Node6 -->
<g id="edge5" class="edge"><title>Node1&#45;&gt;Node6</title>
<path fill="none" stroke="midnightblue" d="M967.455,-473.902C850.712,-461.902 666,-426.453 548,-322 544.027,-318.483 540.27,-314.699 536.718,-310.702"/>
<polygon fill="none" stroke="midnightblue" points="967.191,-477.393 977.486,-474.893 967.879,-470.427 967.191,-477.393"/>
</g>
<!-- Node7 -->
<g id="node7" class="node"><title>Node7</title>
<g id="a_node7"><a xlink:href="class_thinksquirrel_software_1_1_word_game_builder_1_1_tiles_1_1_daikon_forge_1_1_letter_tile_daikon_forge_display.html" target="_top" xlink:title="Adds Daikon Forge GUI display to a letter tile. ">
<polygon fill="none" stroke="black" points="557.5,-121.5 557.5,-200.5 700.5,-200.5 700.5,-121.5 557.5,-121.5"/>
<text text-anchor="middle" x="629" y="-188.5" font-family="Helvetica,sans-Serif" font-size="10.00">LetterTileDaikonForgeDisplay</text>
<polyline fill="none" stroke="black" points="557.5,-181.5 700.5,-181.5 "/>
<text text-anchor="start" x="565.5" y="-169.5" font-family="Helvetica,sans-Serif" font-size="10.00">+ controls</text>
<text text-anchor="start" x="565.5" y="-158.5" font-family="Helvetica,sans-Serif" font-size="10.00">+ letterLabel</text>
<text text-anchor="start" x="565.5" y="-147.5" font-family="Helvetica,sans-Serif" font-size="10.00">+ scoreLabel</text>
<polyline fill="none" stroke="black" points="557.5,-140.5 700.5,-140.5 "/>
<text text-anchor="middle" x="629" y="-128.5" font-family="Helvetica,sans-Serif" font-size="10.00"> </text>
</a>
</g>
</g>
<!-- Node1&#45;&gt;Node7 -->
<g id="edge6" class="edge"><title>Node1&#45;&gt;Node7</title>
<path fill="none" stroke="midnightblue" d="M967.371,-454.523C888.032,-431.239 782.152,-389.873 710,-322 674.509,-288.614 652.14,-236.252 640.113,-200.593"/>
<polygon fill="none" stroke="midnightblue" points="966.822,-458.007 977.4,-457.412 968.76,-451.281 966.822,-458.007"/>
</g>
<!-- Node8 -->
<g id="node8" class="node"><title>Node8</title>
<g id="a_node8"><a xlink:href="class_thinksquirrel_software_1_1_word_game_builder_1_1_tiles_1_1_daikon_forge_1_1_letter_tile_daikon_forge_input.html" target="_top" xlink:title="Adds input control to a letter tile, using DF&#45;GUI&#39;s events. ">
<polygon fill="none" stroke="black" points="719,-110.5 719,-211.5 851,-211.5 851,-110.5 719,-110.5"/>
<text text-anchor="middle" x="785" y="-199.5" font-family="Helvetica,sans-Serif" font-size="10.00">LetterTileDaikonForgeInput</text>
<polyline fill="none" stroke="black" points="719,-192.5 851,-192.5 "/>
<text text-anchor="middle" x="785" y="-180.5" font-family="Helvetica,sans-Serif" font-size="10.00"> </text>
<polyline fill="none" stroke="black" points="719,-173.5 851,-173.5 "/>
<text text-anchor="start" x="727" y="-161.5" font-family="Helvetica,sans-Serif" font-size="10.00">+ OnClick()</text>
<text text-anchor="start" x="727" y="-150.5" font-family="Helvetica,sans-Serif" font-size="10.00">+ OnMouseDown()</text>
<text text-anchor="start" x="727" y="-139.5" font-family="Helvetica,sans-Serif" font-size="10.00">+ OnMouseHover()</text>
<text text-anchor="start" x="727" y="-128.5" font-family="Helvetica,sans-Serif" font-size="10.00">+ OnMouseLeave()</text>
<text text-anchor="start" x="727" y="-117.5" font-family="Helvetica,sans-Serif" font-size="10.00">+ OnMouseUp()</text>
</a>
</g>
</g>
<!-- Node1&#45;&gt;Node8 -->
<g id="edge7" class="edge"><title>Node1&#45;&gt;Node8</title>
<path fill="none" stroke="midnightblue" d="M968.8,-417.359C930.926,-391.418 890.269,-358.765 860,-322 833.091,-289.316 813.399,-245.376 800.963,-211.812"/>
<polygon fill="none" stroke="midnightblue" points="967.094,-420.43 977.34,-423.128 971.013,-414.63 967.094,-420.43"/>
</g>
<!-- Node9 -->
<g id="node9" class="node"><title>Node9</title>
<g id="a_node9"><a xlink:href="class_thinksquirrel_software_1_1_word_game_builder_1_1_tiles_1_1_letter_tile.html" target="_top" xlink:title="A standard letter tile. Includes support for selection, wildcard tiles, multiple colors, input, and state querying. ">
<polygon fill="none" stroke="black" points="869,-22.5 869,-299.5 999,-299.5 999,-22.5 869,-22.5"/>
<text text-anchor="middle" x="934" y="-287.5" font-family="Helvetica,sans-Serif" font-size="10.00">LetterTile</text>
<polyline fill="none" stroke="black" points="869,-280.5 999,-280.5 "/>
<text text-anchor="start" x="877" y="-268.5" font-family="Helvetica,sans-Serif" font-size="10.00">+ colorInfo</text>
<text text-anchor="start" x="877" y="-257.5" font-family="Helvetica,sans-Serif" font-size="10.00">+ currentBackgroundColor</text>
<text text-anchor="start" x="877" y="-246.5" font-family="Helvetica,sans-Serif" font-size="10.00">+ currentLetter</text>
<text text-anchor="start" x="877" y="-235.5" font-family="Helvetica,sans-Serif" font-size="10.00">+ currentLetterLabel</text>
<text text-anchor="start" x="877" y="-224.5" font-family="Helvetica,sans-Serif" font-size="10.00">+ currentPointValue</text>
<text text-anchor="start" x="877" y="-213.5" font-family="Helvetica,sans-Serif" font-size="10.00">+ currentScoreLabel</text>
<text text-anchor="start" x="877" y="-202.5" font-family="Helvetica,sans-Serif" font-size="10.00">+ currentTextColor</text>
<text text-anchor="start" x="877" y="-191.5" font-family="Helvetica,sans-Serif" font-size="10.00">+ defaultPointValue</text>
<text text-anchor="start" x="877" y="-180.5" font-family="Helvetica,sans-Serif" font-size="10.00">+ displayInfo</text>
<text text-anchor="start" x="877" y="-169.5" font-family="Helvetica,sans-Serif" font-size="10.00">+ isActive</text>
<text text-anchor="start" x="877" y="-158.5" font-family="Helvetica,sans-Serif" font-size="10.00">and 12 more...</text>
<polyline fill="none" stroke="black" points="869,-151.5 999,-151.5 "/>
<text text-anchor="start" x="877" y="-139.5" font-family="Helvetica,sans-Serif" font-size="10.00">+ CanSelectTile()</text>
<text text-anchor="start" x="877" y="-128.5" font-family="Helvetica,sans-Serif" font-size="10.00">+ CanSelectTile()</text>
<text text-anchor="start" x="877" y="-117.5" font-family="Helvetica,sans-Serif" font-size="10.00">+ ChangeLetter()</text>
<text text-anchor="start" x="877" y="-106.5" font-family="Helvetica,sans-Serif" font-size="10.00">+ ChangeLetter()</text>
<text text-anchor="start" x="877" y="-95.5" font-family="Helvetica,sans-Serif" font-size="10.00">+ ChangeLetter()</text>
<text text-anchor="start" x="877" y="-84.5" font-family="Helvetica,sans-Serif" font-size="10.00">+ DeselectTile()</text>
<text text-anchor="start" x="877" y="-73.5" font-family="Helvetica,sans-Serif" font-size="10.00">+ DeselectTile()</text>
<text text-anchor="start" x="877" y="-62.5" font-family="Helvetica,sans-Serif" font-size="10.00">+ DespawnTile()</text>
<text text-anchor="start" x="877" y="-51.5" font-family="Helvetica,sans-Serif" font-size="10.00">+ ModifyTileSelection()</text>
<text text-anchor="start" x="877" y="-40.5" font-family="Helvetica,sans-Serif" font-size="10.00">+ RemoveWildcard()</text>
<text text-anchor="start" x="877" y="-29.5" font-family="Helvetica,sans-Serif" font-size="10.00">and 11 more...</text>
</a>
</g>
</g>
<!-- Node1&#45;&gt;Node9 -->
<g id="edge8" class="edge"><title>Node1&#45;&gt;Node9</title>
<path fill="none" stroke="midnightblue" d="M1017.83,-349.726C1010.44,-333.176 1002.86,-316.197 995.417,-299.539"/>
<polygon fill="none" stroke="midnightblue" points="1014.64,-351.167 1021.91,-358.871 1021.03,-348.313 1014.64,-351.167"/>
</g>
<!-- Node10 -->
<g id="node10" class="node"><title>Node10</title>
<g id="a_node10"><a xlink:href="class_thinksquirrel_software_1_1_word_game_builder_1_1_tiles_1_1_letter_tile_animation.html" target="_top" xlink:title="Adds animation to a letter tile. ">
<polygon fill="none" stroke="black" points="1017.5,-110.5 1017.5,-211.5 1134.5,-211.5 1134.5,-110.5 1017.5,-110.5"/>
<text text-anchor="middle" x="1076" y="-199.5" font-family="Helvetica,sans-Serif" font-size="10.00">LetterTileAnimation</text>
<polyline fill="none" stroke="black" points="1017.5,-192.5 1134.5,-192.5 "/>
<text text-anchor="start" x="1025.5" y="-180.5" font-family="Helvetica,sans-Serif" font-size="10.00">+ changeAnimationClip</text>
<text text-anchor="start" x="1025.5" y="-169.5" font-family="Helvetica,sans-Serif" font-size="10.00">+ disableAnimationClip</text>
<text text-anchor="start" x="1025.5" y="-158.5" font-family="Helvetica,sans-Serif" font-size="10.00">+ enableAnimationClip</text>
<text text-anchor="start" x="1025.5" y="-147.5" font-family="Helvetica,sans-Serif" font-size="10.00">+ spawnAnimationClip</text>
<text text-anchor="start" x="1025.5" y="-136.5" font-family="Helvetica,sans-Serif" font-size="10.00">+ tileAnimation</text>
<polyline fill="none" stroke="black" points="1017.5,-129.5 1134.5,-129.5 "/>
<text text-anchor="middle" x="1076" y="-117.5" font-family="Helvetica,sans-Serif" font-size="10.00"> </text>
</a>
</g>
</g>
<!-- Node1&#45;&gt;Node10 -->
<g id="edge9" class="edge"><title>Node1&#45;&gt;Node10</title>
<path fill="none" stroke="midnightblue" d="M1076,-348.629C1076,-300.351 1076,-248.568 1076,-211.825"/>
<polygon fill="none" stroke="midnightblue" points="1072.5,-348.871 1076,-358.871 1079.5,-348.871 1072.5,-348.871"/>
</g>
<!-- Node11 -->
<g id="node11" class="node"><title>Node11</title>
<g id="a_node11"><a xlink:href="class_thinksquirrel_software_1_1_word_game_builder_1_1_tiles_1_1_letter_tile_mouse_input.html" target="_top" xlink:title="Adds input control to a letter tile, using Unity&#39;s OnMouse[...] methods. ">
<polygon fill="none" stroke="black" points="1152.5,-132.5 1152.5,-189.5 1259.5,-189.5 1259.5,-132.5 1152.5,-132.5"/>
<text text-anchor="middle" x="1206" y="-177.5" font-family="Helvetica,sans-Serif" font-size="10.00">LetterTileMouseInput</text>
<polyline fill="none" stroke="black" points="1152.5,-170.5 1259.5,-170.5 "/>
<text text-anchor="middle" x="1206" y="-158.5" font-family="Helvetica,sans-Serif" font-size="10.00"> </text>
<polyline fill="none" stroke="black" points="1152.5,-151.5 1259.5,-151.5 "/>
<text text-anchor="middle" x="1206" y="-139.5" font-family="Helvetica,sans-Serif" font-size="10.00"> </text>
</a>
</g>
</g>
<!-- Node1&#45;&gt;Node11 -->
<g id="edge10" class="edge"><title>Node1&#45;&gt;Node11</title>
<path fill="none" stroke="midnightblue" d="M1131.61,-349.596C1135.49,-340.268 1139.32,-330.998 1143,-322 1161.92,-275.714 1183.05,-221.501 1195.4,-189.549"/>
<polygon fill="none" stroke="midnightblue" points="1128.34,-348.358 1127.72,-358.934 1134.8,-351.053 1128.34,-348.358"/>
</g>
<!-- Node12 -->
<g id="node12" class="node"><title>Node12</title>
<g id="a_node12"><a xlink:href="class_thinksquirrel_software_1_1_word_game_builder_1_1_tiles_1_1_letter_tile_sprite.html" target="_top" xlink:title="Adds sprite display to a letter tile (Unity 4.3+ only). ">
<polygon fill="none" stroke="black" points="1278,-132.5 1278,-189.5 1360,-189.5 1360,-132.5 1278,-132.5"/>
<text text-anchor="middle" x="1319" y="-177.5" font-family="Helvetica,sans-Serif" font-size="10.00">LetterTileSprite</text>
<polyline fill="none" stroke="black" points="1278,-170.5 1360,-170.5 "/>
<text text-anchor="start" x="1286" y="-158.5" font-family="Helvetica,sans-Serif" font-size="10.00">+ sprites</text>
<polyline fill="none" stroke="black" points="1278,-151.5 1360,-151.5 "/>
<text text-anchor="middle" x="1319" y="-139.5" font-family="Helvetica,sans-Serif" font-size="10.00"> </text>
</a>
</g>
</g>
<!-- Node1&#45;&gt;Node12 -->
<g id="edge11" class="edge"><title>Node1&#45;&gt;Node12</title>
<path fill="none" stroke="midnightblue" d="M1182.44,-410.284C1213.6,-385.546 1245.35,-355.442 1268,-322 1295.96,-280.724 1309.32,-223.201 1315.11,-189.553"/>
<polygon fill="none" stroke="midnightblue" points="1180.26,-407.543 1174.53,-416.456 1184.57,-413.06 1180.26,-407.543"/>
</g>
<!-- Node13 -->
<g id="node13" class="node"><title>Node13</title>
<g id="a_node13"><a xlink:href="class_thinksquirrel_software_1_1_word_game_builder_1_1_tiles_1_1_letter_tile_text_mesh.html" target="_top" xlink:title="Adds text mesh display to a letter tile. ">
<polygon fill="none" stroke="black" points="1378.5,-127 1378.5,-195 1477.5,-195 1477.5,-127 1378.5,-127"/>
<text text-anchor="middle" x="1428" y="-183" font-family="Helvetica,sans-Serif" font-size="10.00">LetterTileTextMesh</text>
<polyline fill="none" stroke="black" points="1378.5,-176 1477.5,-176 "/>
<text text-anchor="start" x="1386.5" y="-164" font-family="Helvetica,sans-Serif" font-size="10.00">+ letterLabel</text>
<text text-anchor="start" x="1386.5" y="-153" font-family="Helvetica,sans-Serif" font-size="10.00">+ scoreLabel</text>
<polyline fill="none" stroke="black" points="1378.5,-146 1477.5,-146 "/>
<text text-anchor="middle" x="1428" y="-134" font-family="Helvetica,sans-Serif" font-size="10.00"> </text>
</a>
</g>
</g>
<!-- Node1&#45;&gt;Node13 -->
<g id="edge12" class="edge"><title>Node1&#45;&gt;Node13</title>
<path fill="none" stroke="midnightblue" d="M1184.19,-443.711C1245.71,-418.206 1320,-378.463 1369,-322 1400.73,-285.441 1415.99,-230.316 1422.88,-195.253"/>
<polygon fill="none" stroke="midnightblue" points="1182.77,-440.512 1174.83,-447.526 1185.41,-446.995 1182.77,-440.512"/>
</g>
<!-- Node14 -->
<g id="node14" class="node"><title>Node14</title>
<g id="a_node14"><a xlink:href="class_thinksquirrel_software_1_1_word_game_builder_1_1_tiles_1_1_letter_tile_visibility.html" target="_top" xlink:title="Automatically controls the visibility of objects based on a letter tile&#39;s state. ">
<polygon fill="none" stroke="black" points="1495.5,-121.5 1495.5,-200.5 1588.5,-200.5 1588.5,-121.5 1495.5,-121.5"/>
<text text-anchor="middle" x="1542" y="-188.5" font-family="Helvetica,sans-Serif" font-size="10.00">LetterTileVisibility</text>
<polyline fill="none" stroke="black" points="1495.5,-181.5 1588.5,-181.5 "/>
<text text-anchor="start" x="1503.5" y="-169.5" font-family="Helvetica,sans-Serif" font-size="10.00">+ behaviours</text>
<text text-anchor="start" x="1503.5" y="-158.5" font-family="Helvetica,sans-Serif" font-size="10.00">+ gameObjects</text>
<text text-anchor="start" x="1503.5" y="-147.5" font-family="Helvetica,sans-Serif" font-size="10.00">+ renderers</text>
<polyline fill="none" stroke="black" points="1495.5,-140.5 1588.5,-140.5 "/>
<text text-anchor="middle" x="1542" y="-128.5" font-family="Helvetica,sans-Serif" font-size="10.00"> </text>
</a>
</g>
</g>
<!-- Node1&#45;&gt;Node14 -->
<g id="edge13" class="edge"><title>Node1&#45;&gt;Node14</title>
<path fill="none" stroke="midnightblue" d="M1184.57,-464.076C1276.36,-445.2 1405.45,-405.104 1486,-322 1518.06,-288.929 1531.85,-236.497 1537.73,-200.735"/>
<polygon fill="none" stroke="midnightblue" points="1183.8,-460.66 1174.69,-466.056 1185.18,-467.523 1183.8,-460.66"/>
</g>
<!-- Node15 -->
<g id="node15" class="node"><title>Node15</title>
<g id="a_node15"><a xlink:href="class_thinksquirrel_software_1_1_word_game_builder_1_1_tiles_1_1_ngui_1_1_letter_tile_ngui_display.html" target="_top" xlink:title="Adds NGUI display to a letter tile. ">
<polygon fill="none" stroke="black" points="1607,-121.5 1607,-200.5 1715,-200.5 1715,-121.5 1607,-121.5"/>
<text text-anchor="middle" x="1661" y="-188.5" font-family="Helvetica,sans-Serif" font-size="10.00">LetterTileNguiDisplay</text>
<polyline fill="none" stroke="black" points="1607,-181.5 1715,-181.5 "/>
<text text-anchor="start" x="1615" y="-169.5" font-family="Helvetica,sans-Serif" font-size="10.00">+ controls</text>
<text text-anchor="start" x="1615" y="-158.5" font-family="Helvetica,sans-Serif" font-size="10.00">+ letterLabel</text>
<text text-anchor="start" x="1615" y="-147.5" font-family="Helvetica,sans-Serif" font-size="10.00">+ scoreLabel</text>
<polyline fill="none" stroke="black" points="1607,-140.5 1715,-140.5 "/>
<text text-anchor="middle" x="1661" y="-128.5" font-family="Helvetica,sans-Serif" font-size="10.00"> </text>
</a>
</g>
</g>
<!-- Node1&#45;&gt;Node15 -->
<g id="edge14" class="edge"><title>Node1&#45;&gt;Node15</title>
<path fill="none" stroke="midnightblue" d="M1184.53,-474.124C1300.34,-462.308 1482.54,-427.008 1597,-322 1631.72,-290.145 1647.94,-236.925 1655.29,-200.686"/>
<polygon fill="none" stroke="midnightblue" points="1184.19,-470.641 1174.58,-475.099 1184.87,-477.608 1184.19,-470.641"/>
</g>
<!-- Node16 -->
<g id="node16" class="node"><title>Node16</title>
<g id="a_node16"><a xlink:href="class_thinksquirrel_software_1_1_word_game_builder_1_1_tiles_1_1_ngui_1_1_letter_tile_ngui_input.html" target="_top" xlink:title="Adds input control to a letter tile, using NGUI&#39;s OnPress/OnHover/OnClick methods. ">
<polygon fill="none" stroke="black" points="1733.5,-132.5 1733.5,-189.5 1830.5,-189.5 1830.5,-132.5 1733.5,-132.5"/>
<text text-anchor="middle" x="1782" y="-177.5" font-family="Helvetica,sans-Serif" font-size="10.00">LetterTileNguiInput</text>
<polyline fill="none" stroke="black" points="1733.5,-170.5 1830.5,-170.5 "/>
<text text-anchor="middle" x="1782" y="-158.5" font-family="Helvetica,sans-Serif" font-size="10.00"> </text>
<polyline fill="none" stroke="black" points="1733.5,-151.5 1830.5,-151.5 "/>
<text text-anchor="middle" x="1782" y="-139.5" font-family="Helvetica,sans-Serif" font-size="10.00"> </text>
</a>
</g>
</g>
<!-- Node1&#45;&gt;Node16 -->
<g id="edge15" class="edge"><title>Node1&#45;&gt;Node16</title>
<path fill="none" stroke="midnightblue" d="M1184.67,-466.058C1347.75,-443.108 1645.11,-392.76 1724,-322 1762.49,-287.476 1775.46,-225.385 1779.82,-189.549"/>
<polygon fill="none" stroke="midnightblue" points="1184.03,-462.613 1174.61,-467.463 1184.99,-469.546 1184.03,-462.613"/>
</g>
<!-- Node17 -->
<g id="node17" class="node"><title>Node17</title>
<g id="a_node17"><a xlink:href="class_thinksquirrel_software_1_1_word_game_builder_example_1_1_example_game_logic.html" target="_top" xlink:title="This class is responsible for all game logic. ">
<polygon fill="none" stroke="black" points="1848.5,-116 1848.5,-206 1973.5,-206 1973.5,-116 1848.5,-116"/>
<text text-anchor="middle" x="1911" y="-194" font-family="Helvetica,sans-Serif" font-size="10.00">ExampleGameLogic</text>
<polyline fill="none" stroke="black" points="1848.5,-187 1973.5,-187 "/>
<text text-anchor="middle" x="1911" y="-175" font-family="Helvetica,sans-Serif" font-size="10.00"> </text>
<polyline fill="none" stroke="black" points="1848.5,-168 1973.5,-168 "/>
<text text-anchor="start" x="1856.5" y="-156" font-family="Helvetica,sans-Serif" font-size="10.00">+ OnAgentFindWords()</text>
<text text-anchor="start" x="1856.5" y="-145" font-family="Helvetica,sans-Serif" font-size="10.00">+ OnPlayerWordResult()</text>
<text text-anchor="start" x="1856.5" y="-134" font-family="Helvetica,sans-Serif" font-size="10.00">+ OnTileDistribution()</text>
<text text-anchor="start" x="1856.5" y="-123" font-family="Helvetica,sans-Serif" font-size="10.00">+ OnWildcardTileSelect()</text>
</a>
</g>
</g>
<!-- Node1&#45;&gt;Node17 -->
<g id="edge16" class="edge"><title>Node1&#45;&gt;Node17</title>
<path fill="none" stroke="midnightblue" d="M1184.88,-469.642C1370.84,-450.001 1739.27,-402 1839,-322 1874.88,-293.219 1893.48,-242.724 1902.71,-206.144"/>
<polygon fill="none" stroke="midnightblue" points="1184.38,-466.174 1174.8,-470.697 1185.11,-473.136 1184.38,-466.174"/>
</g>
<!-- Node2 -->
<g id="node2" class="node"><title>Node2</title>
<polygon fill="none" stroke="#bfbfbf" points="1034.5,-640.5 1034.5,-697.5 1117.5,-697.5 1117.5,-640.5 1034.5,-640.5"/>
<text text-anchor="middle" x="1076" y="-685.5" font-family="Helvetica,sans-Serif" font-size="10.00">MonoBehaviour</text>
<polyline fill="none" stroke="#bfbfbf" points="1034.5,-678.5 1117.5,-678.5 "/>
<text text-anchor="middle" x="1076" y="-666.5" font-family="Helvetica,sans-Serif" font-size="10.00"> </text>
<polyline fill="none" stroke="#bfbfbf" points="1034.5,-659.5 1117.5,-659.5 "/>
<text text-anchor="middle" x="1076" y="-647.5" font-family="Helvetica,sans-Serif" font-size="10.00"> </text>
</g>
<!-- Node2&#45;&gt;Node1 -->
<g id="edge1" class="edge"><title>Node2&#45;&gt;Node1</title>
<path fill="none" stroke="midnightblue" d="M1076,-629.933C1076,-621.741 1076,-612.663 1076,-603.15"/>
<polygon fill="none" stroke="midnightblue" points="1072.5,-630.154 1076,-640.154 1079.5,-630.154 1072.5,-630.154"/>
</g>
</g>
</svg>
