<?xml version="1.0" encoding="UTF-8" standalone="no"?>
<!DOCTYPE svg PUBLIC "-//W3C//DTD SVG 1.1//EN"
 "http://www.w3.org/Graphics/SVG/1.1/DTD/svg11.dtd">
<!-- Generated by graphviz version 2.34.0 (20130907.0111)
 -->
<!-- Title: WordGamePlayerInspector Pages: 1 -->
<svg width="142pt" height="342pt"
 viewBox="0.00 0.00 142.00 342.00" xmlns="http://www.w3.org/2000/svg" xmlns:xlink="http://www.w3.org/1999/xlink">
<g id="graph0" class="graph" transform="scale(1 1) rotate(0) translate(4 338)">
<title>WordGamePlayerInspector</title>
<!-- Node1 -->
<g id="node1" class="node"><title>Node1</title>
<polygon fill="#bfbfbf" stroke="black" points="0,-0.5 0,-57.5 134,-57.5 134,-0.5 0,-0.5"/>
<text text-anchor="middle" x="67" y="-45.5" font-family="Helvetica,sans-Serif" font-size="10.00">WordGamePlayerInspector</text>
<polyline fill="none" stroke="black" points="0,-38.5 134,-38.5 "/>
<text text-anchor="middle" x="67" y="-26.5" font-family="Helvetica,sans-Serif" font-size="10.00"> </text>
<polyline fill="none" stroke="black" points="0,-19.5 134,-19.5 "/>
<text text-anchor="start" x="8" y="-7.5" font-family="Helvetica,sans-Serif" font-size="10.00">+ OnInspectorGUI()</text>
</g>
<!-- Node2 -->
<g id="node2" class="node"><title>Node2</title>
<g id="a_node2"><a xlink:href="class_thinksquirrel_software_1_1_word_game_builder_editor_1_1_w_g_b_inspector_base.html" target="_top" xlink:title="{WGBInspectorBase\n||+ DrawDefaultInspector()\l+ DrawDefaultInspector()\l+ DrawEvent()\l# DrawSeparator()\l# DrawSeparator()\l# DrawSeparator()\l# DrawSeparator()\l# DrawSeparator()\l# DrawSeparator()\l}">
<polygon fill="none" stroke="black" points="5.5,-94.5 5.5,-239.5 128.5,-239.5 128.5,-94.5 5.5,-94.5"/>
<text text-anchor="middle" x="67" y="-227.5" font-family="Helvetica,sans-Serif" font-size="10.00">WGBInspectorBase</text>
<polyline fill="none" stroke="black" points="5.5,-220.5 128.5,-220.5 "/>
<text text-anchor="middle" x="67" y="-208.5" font-family="Helvetica,sans-Serif" font-size="10.00"> </text>
<polyline fill="none" stroke="black" points="5.5,-201.5 128.5,-201.5 "/>
<text text-anchor="start" x="13.5" y="-189.5" font-family="Helvetica,sans-Serif" font-size="10.00">+ DrawDefaultInspector()</text>
<text text-anchor="start" x="13.5" y="-178.5" font-family="Helvetica,sans-Serif" font-size="10.00">+ DrawDefaultInspector()</text>
<text text-anchor="start" x="13.5" y="-167.5" font-family="Helvetica,sans-Serif" font-size="10.00">+ DrawEvent()</text>
<text text-anchor="start" x="13.5" y="-156.5" font-family="Helvetica,sans-Serif" font-size="10.00"># DrawSeparator()</text>
<text text-anchor="start" x="13.5" y="-145.5" font-family="Helvetica,sans-Serif" font-size="10.00"># DrawSeparator()</text>
<text text-anchor="start" x="13.5" y="-134.5" font-family="Helvetica,sans-Serif" font-size="10.00"># DrawSeparator()</text>
<text text-anchor="start" x="13.5" y="-123.5" font-family="Helvetica,sans-Serif" font-size="10.00"># DrawSeparator()</text>
<text text-anchor="start" x="13.5" y="-112.5" font-family="Helvetica,sans-Serif" font-size="10.00"># DrawSeparator()</text>
<text text-anchor="start" x="13.5" y="-101.5" font-family="Helvetica,sans-Serif" font-size="10.00"># DrawSeparator()</text>
</a>
</g>
</g>
<!-- Node2&#45;&gt;Node1 -->
<g id="edge1" class="edge"><title>Node2&#45;&gt;Node1</title>
<path fill="none" stroke="midnightblue" d="M67,-84.3871C67,-74.8611 67,-65.7068 67,-57.7138"/>
<polygon fill="none" stroke="midnightblue" points="63.5001,-84.4155 67,-94.4155 70.5001,-84.4156 63.5001,-84.4155"/>
</g>
<!-- Node3 -->
<g id="node3" class="node"><title>Node3</title>
<polygon fill="none" stroke="#bfbfbf" points="46,-276.5 46,-333.5 88,-333.5 88,-276.5 46,-276.5"/>
<text text-anchor="middle" x="67" y="-321.5" font-family="Helvetica,sans-Serif" font-size="10.00">Editor</text>
<polyline fill="none" stroke="#bfbfbf" points="46,-314.5 88,-314.5 "/>
<text text-anchor="middle" x="67" y="-302.5" font-family="Helvetica,sans-Serif" font-size="10.00"> </text>
<polyline fill="none" stroke="#bfbfbf" points="46,-295.5 88,-295.5 "/>
<text text-anchor="middle" x="67" y="-283.5" font-family="Helvetica,sans-Serif" font-size="10.00"> </text>
</g>
<!-- Node3&#45;&gt;Node2 -->
<g id="edge2" class="edge"><title>Node3&#45;&gt;Node2</title>
<path fill="none" stroke="midnightblue" d="M67,-266.356C67,-257.999 67,-248.872 67,-239.656"/>
<polygon fill="none" stroke="midnightblue" points="63.5001,-266.478 67,-276.478 70.5001,-266.478 63.5001,-266.478"/>
</g>
</g>
</svg>
