<?xml version="1.0" encoding="UTF-8" standalone="no"?>
<!DOCTYPE svg PUBLIC "-//W3C//DTD SVG 1.1//EN"
 "http://www.w3.org/Graphics/SVG/1.1/DTD/svg11.dtd">
<!-- Generated by graphviz version 2.34.0 (20130907.0111)
 -->
<!-- Title: WGBWebWindow Pages: 1 -->
<svg width="160pt" height="172pt"
 viewBox="0.00 0.00 160.00 172.00" xmlns="http://www.w3.org/2000/svg" xmlns:xlink="http://www.w3.org/1999/xlink">
<g id="graph0" class="graph" transform="scale(1 1) rotate(0) translate(4 168)">
<title>WGBWebWindow</title>
<!-- Node1 -->
<g id="node1" class="node"><title>Node1</title>
<polygon fill="#bfbfbf" stroke="black" points="-0.5,-1 -0.5,-69 152.5,-69 152.5,-1 -0.5,-1"/>
<text text-anchor="middle" x="76" y="-57" font-family="Helvetica,sans-Serif" font-size="10.00">WGBWebWindow</text>
<polyline fill="none" stroke="black" points="-0.5,-50 152.5,-50 "/>
<text text-anchor="middle" x="76" y="-38" font-family="Helvetica,sans-Serif" font-size="10.00"> </text>
<polyline fill="none" stroke="black" points="-0.5,-31 152.5,-31 "/>
<text text-anchor="start" x="7.5" y="-19" font-family="Helvetica,sans-Serif" font-size="10.00">+ GetTypeFromAllAssemblies()</text>
<text text-anchor="start" x="7.5" y="-8" font-family="Helvetica,sans-Serif" font-size="10.00">+ Load()</text>
</g>
<!-- Node2 -->
<g id="node2" class="node"><title>Node2</title>
<polygon fill="none" stroke="#bfbfbf" points="37.5,-106.5 37.5,-163.5 114.5,-163.5 114.5,-106.5 37.5,-106.5"/>
<text text-anchor="middle" x="76" y="-151.5" font-family="Helvetica,sans-Serif" font-size="10.00">EditorWindow</text>
<polyline fill="none" stroke="#bfbfbf" points="37.5,-144.5 114.5,-144.5 "/>
<text text-anchor="middle" x="76" y="-132.5" font-family="Helvetica,sans-Serif" font-size="10.00"> </text>
<polyline fill="none" stroke="#bfbfbf" points="37.5,-125.5 114.5,-125.5 "/>
<text text-anchor="middle" x="76" y="-113.5" font-family="Helvetica,sans-Serif" font-size="10.00"> </text>
</g>
<!-- Node2&#45;&gt;Node1 -->
<g id="edge1" class="edge"><title>Node2&#45;&gt;Node1</title>
<path fill="none" stroke="midnightblue" d="M76,-96.3023C76,-87.3951 76,-77.9608 76,-69.2659"/>
<polygon fill="none" stroke="midnightblue" points="72.5001,-96.4407 76,-106.441 79.5001,-96.4408 72.5001,-96.4407"/>
</g>
</g>
</svg>
