<?xml version="1.0" encoding="UTF-8" standalone="no"?>
<!DOCTYPE svg PUBLIC "-//W3C//DTD SVG 1.1//EN"
 "http://www.w3.org/Graphics/SVG/1.1/DTD/svg11.dtd">
<!-- Generated by graphviz version 2.34.0 (20130907.0111)
 -->
<!-- Title: WGBInspectorBase Pages: 1 -->
<svg width="694pt" height="342pt"
 viewBox="0.00 0.00 694.00 342.00" xmlns="http://www.w3.org/2000/svg" xmlns:xlink="http://www.w3.org/1999/xlink">
<g id="graph0" class="graph" transform="scale(1 1) rotate(0) translate(4 338)">
<title>WGBInspectorBase</title>
<!-- Node1 -->
<g id="node1" class="node"><title>Node1</title>
<polygon fill="#bfbfbf" stroke="black" points="249.5,-94.5 249.5,-239.5 372.5,-239.5 372.5,-94.5 249.5,-94.5"/>
<text text-anchor="middle" x="311" y="-227.5" font-family="Helvetica,sans-Serif" font-size="10.00">WGBInspectorBase</text>
<polyline fill="none" stroke="black" points="249.5,-220.5 372.5,-220.5 "/>
<text text-anchor="middle" x="311" y="-208.5" font-family="Helvetica,sans-Serif" font-size="10.00"> </text>
<polyline fill="none" stroke="black" points="249.5,-201.5 372.5,-201.5 "/>
<text text-anchor="start" x="257.5" y="-189.5" font-family="Helvetica,sans-Serif" font-size="10.00">+ DrawDefaultInspector()</text>
<text text-anchor="start" x="257.5" y="-178.5" font-family="Helvetica,sans-Serif" font-size="10.00">+ DrawDefaultInspector()</text>
<text text-anchor="start" x="257.5" y="-167.5" font-family="Helvetica,sans-Serif" font-size="10.00">+ DrawEvent()</text>
<text text-anchor="start" x="257.5" y="-156.5" font-family="Helvetica,sans-Serif" font-size="10.00"># DrawSeparator()</text>
<text text-anchor="start" x="257.5" y="-145.5" font-family="Helvetica,sans-Serif" font-size="10.00"># DrawSeparator()</text>
<text text-anchor="start" x="257.5" y="-134.5" font-family="Helvetica,sans-Serif" font-size="10.00"># DrawSeparator()</text>
<text text-anchor="start" x="257.5" y="-123.5" font-family="Helvetica,sans-Serif" font-size="10.00"># DrawSeparator()</text>
<text text-anchor="start" x="257.5" y="-112.5" font-family="Helvetica,sans-Serif" font-size="10.00"># DrawSeparator()</text>
<text text-anchor="start" x="257.5" y="-101.5" font-family="Helvetica,sans-Serif" font-size="10.00"># DrawSeparator()</text>
</g>
<!-- Node3 -->
<g id="node3" class="node"><title>Node3</title>
<g id="a_node3"><a xlink:href="class_thinksquirrel_software_1_1_word_game_builder_editor_1_1_letter_tile_inspector.html" target="_top" xlink:title="{LetterTileInspector\n||+ OnInspectorGUI()\l}">
<polygon fill="none" stroke="black" points="-0.5,-0.5 -0.5,-57.5 100.5,-57.5 100.5,-0.5 -0.5,-0.5"/>
<text text-anchor="middle" x="50" y="-45.5" font-family="Helvetica,sans-Serif" font-size="10.00">LetterTileInspector</text>
<polyline fill="none" stroke="black" points="-0.5,-38.5 100.5,-38.5 "/>
<text text-anchor="middle" x="50" y="-26.5" font-family="Helvetica,sans-Serif" font-size="10.00"> </text>
<polyline fill="none" stroke="black" points="-0.5,-19.5 100.5,-19.5 "/>
<text text-anchor="start" x="7.5" y="-7.5" font-family="Helvetica,sans-Serif" font-size="10.00">+ OnInspectorGUI()</text>
</a>
</g>
</g>
<!-- Node1&#45;&gt;Node3 -->
<g id="edge2" class="edge"><title>Node1&#45;&gt;Node3</title>
<path fill="none" stroke="midnightblue" d="M240.52,-129.275C196.331,-106.249 140.403,-77.1066 100.598,-56.3655"/>
<polygon fill="none" stroke="midnightblue" points="238.991,-132.425 249.477,-133.942 242.226,-126.217 238.991,-132.425"/>
</g>
<!-- Node4 -->
<g id="node4" class="node"><title>Node4</title>
<g id="a_node4"><a xlink:href="class_thinksquirrel_software_1_1_word_game_builder_editor_1_1_tile_pool_inspector.html" target="_top" xlink:title="{TilePoolInspector\n||+ OnInspectorGUI()\l}">
<polygon fill="none" stroke="black" points="118.5,-0.5 118.5,-57.5 219.5,-57.5 219.5,-0.5 118.5,-0.5"/>
<text text-anchor="middle" x="169" y="-45.5" font-family="Helvetica,sans-Serif" font-size="10.00">TilePoolInspector</text>
<polyline fill="none" stroke="black" points="118.5,-38.5 219.5,-38.5 "/>
<text text-anchor="middle" x="169" y="-26.5" font-family="Helvetica,sans-Serif" font-size="10.00"> </text>
<polyline fill="none" stroke="black" points="118.5,-19.5 219.5,-19.5 "/>
<text text-anchor="start" x="126.5" y="-7.5" font-family="Helvetica,sans-Serif" font-size="10.00">+ OnInspectorGUI()</text>
</a>
</g>
</g>
<!-- Node1&#45;&gt;Node4 -->
<g id="edge3" class="edge"><title>Node1&#45;&gt;Node4</title>
<path fill="none" stroke="midnightblue" d="M241.592,-99.5249C226.196,-84.7788 210.699,-69.9371 198.001,-57.7753"/>
<polygon fill="none" stroke="midnightblue" points="239.487,-102.355 249.13,-106.744 244.329,-97.2995 239.487,-102.355"/>
</g>
<!-- Node5 -->
<g id="node5" class="node"><title>Node5</title>
<g id="a_node5"><a xlink:href="class_thinksquirrel_software_1_1_word_game_builder_editor_1_1_wildcard_tile_manager_inspector.html" target="_top" xlink:title="{WildcardTileManagerInspector\n||+ OnInspectorGUI()\l}">
<polygon fill="none" stroke="black" points="237.5,-0.5 237.5,-57.5 384.5,-57.5 384.5,-0.5 237.5,-0.5"/>
<text text-anchor="middle" x="311" y="-45.5" font-family="Helvetica,sans-Serif" font-size="10.00">WildcardTileManagerInspector</text>
<polyline fill="none" stroke="black" points="237.5,-38.5 384.5,-38.5 "/>
<text text-anchor="middle" x="311" y="-26.5" font-family="Helvetica,sans-Serif" font-size="10.00"> </text>
<polyline fill="none" stroke="black" points="237.5,-19.5 384.5,-19.5 "/>
<text text-anchor="start" x="245.5" y="-7.5" font-family="Helvetica,sans-Serif" font-size="10.00">+ OnInspectorGUI()</text>
</a>
</g>
</g>
<!-- Node1&#45;&gt;Node5 -->
<g id="edge4" class="edge"><title>Node1&#45;&gt;Node5</title>
<path fill="none" stroke="midnightblue" d="M311,-84.3871C311,-74.8611 311,-65.7068 311,-57.7138"/>
<polygon fill="none" stroke="midnightblue" points="307.5,-84.4155 311,-94.4155 314.5,-84.4156 307.5,-84.4155"/>
</g>
<!-- Node6 -->
<g id="node6" class="node"><title>Node6</title>
<g id="a_node6"><a xlink:href="class_thinksquirrel_software_1_1_word_game_builder_editor_1_1_word_game_agent_inspector.html" target="_top" xlink:title="{WordGameAgentInspector\n||+ OnInspectorGUI()\l}">
<polygon fill="none" stroke="black" points="402.5,-0.5 402.5,-57.5 533.5,-57.5 533.5,-0.5 402.5,-0.5"/>
<text text-anchor="middle" x="468" y="-45.5" font-family="Helvetica,sans-Serif" font-size="10.00">WordGameAgentInspector</text>
<polyline fill="none" stroke="black" points="402.5,-38.5 533.5,-38.5 "/>
<text text-anchor="middle" x="468" y="-26.5" font-family="Helvetica,sans-Serif" font-size="10.00"> </text>
<polyline fill="none" stroke="black" points="402.5,-19.5 533.5,-19.5 "/>
<text text-anchor="start" x="410.5" y="-7.5" font-family="Helvetica,sans-Serif" font-size="10.00">+ OnInspectorGUI()</text>
</a>
</g>
</g>
<!-- Node1&#45;&gt;Node6 -->
<g id="edge5" class="edge"><title>Node1&#45;&gt;Node6</title>
<path fill="none" stroke="midnightblue" d="M380.274,-105.992C399.673,-89.188 419.834,-71.7235 435.93,-57.7805"/>
<polygon fill="none" stroke="midnightblue" points="377.867,-103.447 372.6,-112.64 382.45,-108.738 377.867,-103.447"/>
</g>
<!-- Node7 -->
<g id="node7" class="node"><title>Node7</title>
<g id="a_node7"><a xlink:href="class_thinksquirrel_software_1_1_word_game_builder_editor_1_1_word_game_player_inspector.html" target="_top" xlink:title="{WordGamePlayerInspector\n||+ OnInspectorGUI()\l}">
<polygon fill="none" stroke="black" points="552,-0.5 552,-57.5 686,-57.5 686,-0.5 552,-0.5"/>
<text text-anchor="middle" x="619" y="-45.5" font-family="Helvetica,sans-Serif" font-size="10.00">WordGamePlayerInspector</text>
<polyline fill="none" stroke="black" points="552,-38.5 686,-38.5 "/>
<text text-anchor="middle" x="619" y="-26.5" font-family="Helvetica,sans-Serif" font-size="10.00"> </text>
<polyline fill="none" stroke="black" points="552,-19.5 686,-19.5 "/>
<text text-anchor="start" x="560" y="-7.5" font-family="Helvetica,sans-Serif" font-size="10.00">+ OnInspectorGUI()</text>
</a>
</g>
</g>
<!-- Node1&#45;&gt;Node7 -->
<g id="edge6" class="edge"><title>Node1&#45;&gt;Node7</title>
<path fill="none" stroke="midnightblue" d="M381.874,-134.705C434.588,-111.428 505.858,-79.959 556.463,-57.6138"/>
<polygon fill="none" stroke="midnightblue" points="380.322,-131.564 372.588,-138.805 383.15,-137.968 380.322,-131.564"/>
</g>
<!-- Node2 -->
<g id="node2" class="node"><title>Node2</title>
<polygon fill="none" stroke="#bfbfbf" points="290,-276.5 290,-333.5 332,-333.5 332,-276.5 290,-276.5"/>
<text text-anchor="middle" x="311" y="-321.5" font-family="Helvetica,sans-Serif" font-size="10.00">Editor</text>
<polyline fill="none" stroke="#bfbfbf" points="290,-314.5 332,-314.5 "/>
<text text-anchor="middle" x="311" y="-302.5" font-family="Helvetica,sans-Serif" font-size="10.00"> </text>
<polyline fill="none" stroke="#bfbfbf" points="290,-295.5 332,-295.5 "/>
<text text-anchor="middle" x="311" y="-283.5" font-family="Helvetica,sans-Serif" font-size="10.00"> </text>
</g>
<!-- Node2&#45;&gt;Node1 -->
<g id="edge1" class="edge"><title>Node2&#45;&gt;Node1</title>
<path fill="none" stroke="midnightblue" d="M311,-266.356C311,-257.999 311,-248.872 311,-239.656"/>
<polygon fill="none" stroke="midnightblue" points="307.5,-266.478 311,-276.478 314.5,-266.478 307.5,-266.478"/>
</g>
</g>
</svg>
