<?xml version="1.0" encoding="UTF-8" standalone="no"?>
<!DOCTYPE svg PUBLIC "-//W3C//DTD SVG 1.1//EN"
 "http://www.w3.org/Graphics/SVG/1.1/DTD/svg11.dtd">
<!-- Generated by graphviz version 2.34.0 (20130907.0111)
 -->
<!-- Title: Graphical Class Hierarchy Pages: 1 -->
<svg width="512pt" height="674pt"
 viewBox="0.00 0.00 512.00 674.00" xmlns="http://www.w3.org/2000/svg" xmlns:xlink="http://www.w3.org/1999/xlink">
<g id="graph0" class="graph" transform="scale(1 1) rotate(0) translate(4 670)">
<title>Graphical Class Hierarchy</title>
<!-- Node1 -->
<g id="node1" class="node"><title>Node1</title>
<polygon fill="none" stroke="#bfbfbf" points="1.5,-304.5 1.5,-323.5 84.5,-323.5 84.5,-304.5 1.5,-304.5"/>
<text text-anchor="middle" x="43" y="-311.5" font-family="Helvetica,sans-Serif" font-size="10.00">MonoBehaviour</text>
</g>
<!-- Node2 -->
<g id="node2" class="node"><title>Node2</title>
<g id="a_node2"><a xlink:href="class_thinksquirrel_software_1_1_word_game_builder_1_1_w_g_b_base.html" target="_top" xlink:title="The base class for all Word Game Builder components. ">
<polygon fill="none" stroke="black" points="145.5,-266.5 145.5,-285.5 208.5,-285.5 208.5,-266.5 145.5,-266.5"/>
<text text-anchor="middle" x="177" y="-273.5" font-family="Helvetica,sans-Serif" font-size="10.00">WGBBase</text>
</a>
</g>
</g>
<!-- Node1&#45;&gt;Node2 -->
<g id="edge1" class="edge"><title>Node1&#45;&gt;Node2</title>
<path fill="none" stroke="midnightblue" d="M86.9757,-301.628C106.049,-296.137 128.055,-289.802 145.416,-284.805"/>
<polygon fill="midnightblue" stroke="midnightblue" points="85.9506,-298.281 77.3092,-304.411 87.8872,-305.008 85.9506,-298.281"/>
</g>
<!-- Node18 -->
<g id="node18" class="node"><title>Node18</title>
<g id="a_node18"><a xlink:href="class_thinksquirrel_software_1_1_word_game_builder_example_1_1_example_view.html" target="_top" xlink:title="This class is responsible for rendering the UI. ">
<polygon fill="none" stroke="black" points="139,-304.5 139,-323.5 215,-323.5 215,-304.5 139,-304.5"/>
<text text-anchor="middle" x="177" y="-311.5" font-family="Helvetica,sans-Serif" font-size="10.00">ExampleView</text>
</a>
</g>
</g>
<!-- Node1&#45;&gt;Node18 -->
<g id="edge17" class="edge"><title>Node1&#45;&gt;Node18</title>
<path fill="none" stroke="midnightblue" d="M95.0698,-314C109.645,-314 125.246,-314 138.822,-314"/>
<polygon fill="midnightblue" stroke="midnightblue" points="94.6815,-310.5 84.6814,-314 94.6814,-317.5 94.6815,-310.5"/>
</g>
<!-- Node19 -->
<g id="node19" class="node"><title>Node19</title>
<g id="a_node19"><a xlink:href="class_thinksquirrel_software_1_1_word_game_builder_example_1_1_example_view_model.html" target="_top" xlink:title="This class is responsible for sending and receiving data between the game and the UI...">
<polygon fill="none" stroke="black" points="126,-342.5 126,-361.5 228,-361.5 228,-342.5 126,-342.5"/>
<text text-anchor="middle" x="177" y="-349.5" font-family="Helvetica,sans-Serif" font-size="10.00">ExampleViewModel</text>
</a>
</g>
</g>
<!-- Node1&#45;&gt;Node19 -->
<g id="edge18" class="edge"><title>Node1&#45;&gt;Node19</title>
<path fill="none" stroke="midnightblue" d="M87.0409,-326.391C105.118,-331.594 125.819,-337.554 142.701,-342.414"/>
<polygon fill="midnightblue" stroke="midnightblue" points="87.8872,-322.992 77.3092,-323.589 85.9506,-329.719 87.8872,-322.992"/>
</g>
<!-- Node3 -->
<g id="node3" class="node"><title>Node3</title>
<g id="a_node3"><a xlink:href="class_thinksquirrel_software_1_1_word_game_builder_1_1_gameplay_1_1_tile_pool.html" target="_top" xlink:title="A class that manages an instance pool of letter tiles. ">
<polygon fill="none" stroke="black" points="314.5,-494.5 314.5,-513.5 365.5,-513.5 365.5,-494.5 314.5,-494.5"/>
<text text-anchor="middle" x="340" y="-501.5" font-family="Helvetica,sans-Serif" font-size="10.00">TilePool</text>
</a>
</g>
</g>
<!-- Node2&#45;&gt;Node3 -->
<g id="edge2" class="edge"><title>Node2&#45;&gt;Node3</title>
<path fill="none" stroke="midnightblue" d="M218.333,-284.737C223.5,-287.32 228.276,-290.666 232,-295 288.014,-360.186 209.523,-422.013 268,-485 279.72,-497.624 298.824,-502.218 314.264,-503.739"/>
<polygon fill="midnightblue" stroke="midnightblue" points="219.336,-281.368 208.754,-280.864 216.713,-287.857 219.336,-281.368"/>
</g>
<!-- Node4 -->
<g id="node4" class="node"><title>Node4</title>
<g id="a_node4"><a xlink:href="class_thinksquirrel_software_1_1_word_game_builder_1_1_gameplay_1_1_wildcard_tile_manager.html" target="_top" xlink:title="A manager class for selecting wildcard tiles. ">
<polygon fill="none" stroke="black" points="286.5,-456.5 286.5,-475.5 393.5,-475.5 393.5,-456.5 286.5,-456.5"/>
<text text-anchor="middle" x="340" y="-463.5" font-family="Helvetica,sans-Serif" font-size="10.00">WildcardTileManager</text>
</a>
</g>
</g>
<!-- Node2&#45;&gt;Node4 -->
<g id="edge3" class="edge"><title>Node2&#45;&gt;Node4</title>
<path fill="none" stroke="midnightblue" d="M218.158,-284.892C223.349,-287.453 228.178,-290.751 232,-295 278.427,-346.617 219.625,-397.205 268,-447 273.068,-452.217 279.399,-456.052 286.18,-458.863"/>
<polygon fill="midnightblue" stroke="midnightblue" points="219.146,-281.516 208.562,-281.032 216.534,-288.011 219.146,-281.516"/>
</g>
<!-- Node5 -->
<g id="node5" class="node"><title>Node5</title>
<g id="a_node5"><a xlink:href="class_thinksquirrel_software_1_1_word_game_builder_1_1_gameplay_1_1_word_game_agent.html" target="_top" xlink:title="Represents a word game AI agent. The agent is multithreaded and supports automatic selection/submissi...">
<polygon fill="none" stroke="black" points="294,-418.5 294,-437.5 386,-437.5 386,-418.5 294,-418.5"/>
<text text-anchor="middle" x="340" y="-425.5" font-family="Helvetica,sans-Serif" font-size="10.00">WordGameAgent</text>
</a>
</g>
</g>
<!-- Node2&#45;&gt;Node5 -->
<g id="edge4" class="edge"><title>Node2&#45;&gt;Node5</title>
<path fill="none" stroke="midnightblue" d="M218.174,-285.362C223.284,-287.855 228.085,-291.009 232,-295 267.725,-331.422 232.051,-367.799 268,-404 275.06,-411.109 284.296,-416.113 293.761,-419.635"/>
<polygon fill="midnightblue" stroke="midnightblue" points="219.352,-282.063 208.77,-281.551 216.724,-288.55 219.352,-282.063"/>
</g>
<!-- Node6 -->
<g id="node6" class="node"><title>Node6</title>
<g id="a_node6"><a xlink:href="class_thinksquirrel_software_1_1_word_game_builder_1_1_gameplay_1_1_word_game_player.html" target="_top" xlink:title="Represents a word game player. Also tracks scores and high scores. ">
<polygon fill="none" stroke="black" points="293,-532.5 293,-551.5 387,-551.5 387,-532.5 293,-532.5"/>
<text text-anchor="middle" x="340" y="-539.5" font-family="Helvetica,sans-Serif" font-size="10.00">WordGamePlayer</text>
</a>
</g>
</g>
<!-- Node2&#45;&gt;Node6 -->
<g id="edge5" class="edge"><title>Node2&#45;&gt;Node6</title>
<path fill="none" stroke="midnightblue" d="M218.286,-284.551C223.501,-287.159 228.303,-290.561 232,-295 297.66,-373.824 199.361,-446.756 268,-523 274.488,-530.207 283.382,-534.81 292.681,-537.719"/>
<polygon fill="midnightblue" stroke="midnightblue" points="219.187,-281.141 208.603,-280.662 216.579,-287.637 219.187,-281.141"/>
</g>
<!-- Node7 -->
<g id="node7" class="node"><title>Node7</title>
<g id="a_node7"><a xlink:href="class_thinksquirrel_software_1_1_word_game_builder_1_1_tiles_1_1_daikon_forge_1_1_letter_tile_daikon_forge_display.html" target="_top" xlink:title="Adds Daikon Forge GUI display to a letter tile. ">
<polygon fill="none" stroke="black" points="268.5,-342.5 268.5,-361.5 411.5,-361.5 411.5,-342.5 268.5,-342.5"/>
<text text-anchor="middle" x="340" y="-349.5" font-family="Helvetica,sans-Serif" font-size="10.00">LetterTileDaikonForgeDisplay</text>
</a>
</g>
</g>
<!-- Node2&#45;&gt;Node7 -->
<g id="edge6" class="edge"><title>Node2&#45;&gt;Node7</title>
<path fill="none" stroke="midnightblue" d="M218.019,-287.634C222.899,-289.753 227.681,-292.199 232,-295 251.519,-307.659 248.009,-321.1 268,-333 274.469,-336.851 281.727,-339.936 289.068,-342.404"/>
<polygon fill="midnightblue" stroke="midnightblue" points="219.195,-284.336 208.607,-283.954 216.645,-290.856 219.195,-284.336"/>
</g>
<!-- Node8 -->
<g id="node8" class="node"><title>Node8</title>
<g id="a_node8"><a xlink:href="class_thinksquirrel_software_1_1_word_game_builder_1_1_tiles_1_1_daikon_forge_1_1_letter_tile_daikon_forge_input.html" target="_top" xlink:title="Adds input control to a letter tile, using DF&#45;GUI&#39;s events. ">
<polygon fill="none" stroke="black" points="274,-304.5 274,-323.5 406,-323.5 406,-304.5 274,-304.5"/>
<text text-anchor="middle" x="340" y="-311.5" font-family="Helvetica,sans-Serif" font-size="10.00">LetterTileDaikonForgeInput</text>
</a>
</g>
</g>
<!-- Node2&#45;&gt;Node8 -->
<g id="edge7" class="edge"><title>Node2&#45;&gt;Node8</title>
<path fill="none" stroke="midnightblue" d="M218.721,-285.611C243.219,-291.393 274.282,-298.725 298.704,-304.489"/>
<polygon fill="midnightblue" stroke="midnightblue" points="219.198,-282.128 208.662,-283.237 217.59,-288.941 219.198,-282.128"/>
</g>
<!-- Node9 -->
<g id="node9" class="node"><title>Node9</title>
<g id="a_node9"><a xlink:href="class_thinksquirrel_software_1_1_word_game_builder_1_1_tiles_1_1_letter_tile.html" target="_top" xlink:title="A standard letter tile. Includes support for selection, wildcard tiles, multiple colors, input, and state querying. ">
<polygon fill="none" stroke="black" points="448,-589.5 448,-608.5 504,-608.5 504,-589.5 448,-589.5"/>
<text text-anchor="middle" x="476" y="-596.5" font-family="Helvetica,sans-Serif" font-size="10.00">LetterTile</text>
</a>
</g>
</g>
<!-- Node2&#45;&gt;Node9 -->
<g id="edge8" class="edge"><title>Node2&#45;&gt;Node9</title>
<path fill="none" stroke="midnightblue" d="M217.911,-285.897C223.021,-288.31 227.893,-291.3 232,-295 259.767,-320.018 239.251,-347.116 268,-371 318.914,-413.297 363.764,-363.673 412,-409 466.196,-459.928 473.807,-558.481 474.846,-589.448"/>
<polygon fill="midnightblue" stroke="midnightblue" points="219.153,-282.625 208.569,-282.149 216.546,-289.121 219.153,-282.625"/>
</g>
<!-- Node10 -->
<g id="node10" class="node"><title>Node10</title>
<g id="a_node10"><a xlink:href="class_thinksquirrel_software_1_1_word_game_builder_1_1_tiles_1_1_letter_tile_animation.html" target="_top" xlink:title="Adds animation to a letter tile. ">
<polygon fill="none" stroke="black" points="290,-266.5 290,-285.5 390,-285.5 390,-266.5 290,-266.5"/>
<text text-anchor="middle" x="340" y="-273.5" font-family="Helvetica,sans-Serif" font-size="10.00">LetterTileAnimation</text>
</a>
</g>
</g>
<!-- Node2&#45;&gt;Node10 -->
<g id="edge9" class="edge"><title>Node2&#45;&gt;Node10</title>
<path fill="none" stroke="midnightblue" d="M218.81,-276C240.392,-276 267.052,-276 289.774,-276"/>
<polygon fill="midnightblue" stroke="midnightblue" points="218.662,-272.5 208.662,-276 218.662,-279.5 218.662,-272.5"/>
</g>
<!-- Node11 -->
<g id="node11" class="node"><title>Node11</title>
<g id="a_node11"><a xlink:href="class_thinksquirrel_software_1_1_word_game_builder_1_1_tiles_1_1_letter_tile_mouse_input.html" target="_top" xlink:title="Adds input control to a letter tile, using Unity&#39;s OnMouse[...] methods. ">
<polygon fill="none" stroke="black" points="286.5,-228.5 286.5,-247.5 393.5,-247.5 393.5,-228.5 286.5,-228.5"/>
<text text-anchor="middle" x="340" y="-235.5" font-family="Helvetica,sans-Serif" font-size="10.00">LetterTileMouseInput</text>
</a>
</g>
</g>
<!-- Node2&#45;&gt;Node11 -->
<g id="edge10" class="edge"><title>Node2&#45;&gt;Node11</title>
<path fill="none" stroke="midnightblue" d="M218.721,-266.389C243.219,-260.607 274.282,-253.275 298.704,-247.511"/>
<polygon fill="midnightblue" stroke="midnightblue" points="217.59,-263.059 208.662,-268.763 219.198,-269.872 217.59,-263.059"/>
</g>
<!-- Node12 -->
<g id="node12" class="node"><title>Node12</title>
<g id="a_node12"><a xlink:href="class_thinksquirrel_software_1_1_word_game_builder_1_1_tiles_1_1_letter_tile_sprite.html" target="_top" xlink:title="Adds sprite display to a letter tile (Unity 4.3+ only). ">
<polygon fill="none" stroke="black" points="299,-190.5 299,-209.5 381,-209.5 381,-190.5 299,-190.5"/>
<text text-anchor="middle" x="340" y="-197.5" font-family="Helvetica,sans-Serif" font-size="10.00">LetterTileSprite</text>
</a>
</g>
</g>
<!-- Node2&#45;&gt;Node12 -->
<g id="edge11" class="edge"><title>Node2&#45;&gt;Node12</title>
<path fill="none" stroke="midnightblue" d="M198.789,-260.254C216.404,-247.561 242.756,-230.063 268,-219 277.7,-214.749 288.574,-211.257 298.84,-208.479"/>
<polygon fill="midnightblue" stroke="midnightblue" points="196.415,-257.654 190.425,-266.394 200.558,-263.297 196.415,-257.654"/>
</g>
<!-- Node13 -->
<g id="node13" class="node"><title>Node13</title>
<g id="a_node13"><a xlink:href="class_thinksquirrel_software_1_1_word_game_builder_1_1_tiles_1_1_letter_tile_text_mesh.html" target="_top" xlink:title="Adds text mesh display to a letter tile. ">
<polygon fill="none" stroke="black" points="290.5,-152.5 290.5,-171.5 389.5,-171.5 389.5,-152.5 290.5,-152.5"/>
<text text-anchor="middle" x="340" y="-159.5" font-family="Helvetica,sans-Serif" font-size="10.00">LetterTileTextMesh</text>
</a>
</g>
</g>
<!-- Node2&#45;&gt;Node13 -->
<g id="edge12" class="edge"><title>Node2&#45;&gt;Node13</title>
<path fill="none" stroke="midnightblue" d="M190.239,-257.966C205.802,-236.427 234.691,-200.829 268,-181 274.798,-176.953 282.468,-173.752 290.188,-171.225"/>
<polygon fill="midnightblue" stroke="midnightblue" points="187.303,-256.056 184.411,-266.249 193.028,-260.085 187.303,-256.056"/>
</g>
<!-- Node14 -->
<g id="node14" class="node"><title>Node14</title>
<g id="a_node14"><a xlink:href="class_thinksquirrel_software_1_1_word_game_builder_1_1_tiles_1_1_letter_tile_visibility.html" target="_top" xlink:title="Automatically controls the visibility of objects based on a letter tile&#39;s state. ">
<polygon fill="none" stroke="black" points="293.5,-114.5 293.5,-133.5 386.5,-133.5 386.5,-114.5 293.5,-114.5"/>
<text text-anchor="middle" x="340" y="-121.5" font-family="Helvetica,sans-Serif" font-size="10.00">LetterTileVisibility</text>
</a>
</g>
</g>
<!-- Node2&#45;&gt;Node14 -->
<g id="edge13" class="edge"><title>Node2&#45;&gt;Node14</title>
<path fill="none" stroke="midnightblue" d="M185.73,-256.74C198.435,-227.584 226.532,-172.522 268,-143 275.484,-137.672 284.375,-133.838 293.289,-131.079"/>
<polygon fill="midnightblue" stroke="midnightblue" points="182.396,-255.639 181.749,-266.214 188.849,-258.351 182.396,-255.639"/>
</g>
<!-- Node15 -->
<g id="node15" class="node"><title>Node15</title>
<g id="a_node15"><a xlink:href="class_thinksquirrel_software_1_1_word_game_builder_1_1_tiles_1_1_ngui_1_1_letter_tile_ngui_display.html" target="_top" xlink:title="Adds NGUI display to a letter tile. ">
<polygon fill="none" stroke="black" points="286,-76.5 286,-95.5 394,-95.5 394,-76.5 286,-76.5"/>
<text text-anchor="middle" x="340" y="-83.5" font-family="Helvetica,sans-Serif" font-size="10.00">LetterTileNguiDisplay</text>
</a>
</g>
</g>
<!-- Node2&#45;&gt;Node15 -->
<g id="edge14" class="edge"><title>Node2&#45;&gt;Node15</title>
<path fill="none" stroke="midnightblue" d="M182.743,-256.382C192.417,-220.667 217.873,-145.032 268,-105 273.284,-100.78 279.424,-97.4925 285.838,-94.9329"/>
<polygon fill="midnightblue" stroke="midnightblue" points="179.345,-255.544 180.238,-266.101 186.123,-257.291 179.345,-255.544"/>
</g>
<!-- Node16 -->
<g id="node16" class="node"><title>Node16</title>
<g id="a_node16"><a xlink:href="class_thinksquirrel_software_1_1_word_game_builder_1_1_tiles_1_1_ngui_1_1_letter_tile_ngui_input.html" target="_top" xlink:title="Adds input control to a letter tile, using NGUI&#39;s OnPress/OnHover/OnClick methods. ">
<polygon fill="none" stroke="black" points="291.5,-38.5 291.5,-57.5 388.5,-57.5 388.5,-38.5 291.5,-38.5"/>
<text text-anchor="middle" x="340" y="-45.5" font-family="Helvetica,sans-Serif" font-size="10.00">LetterTileNguiInput</text>
</a>
</g>
</g>
<!-- Node2&#45;&gt;Node16 -->
<g id="edge15" class="edge"><title>Node2&#45;&gt;Node16</title>
<path fill="none" stroke="midnightblue" d="M180.668,-256.466C187.378,-215.067 208.866,-118.119 268,-67 274.661,-61.2421 282.889,-57.2078 291.356,-54.3862"/>
<polygon fill="midnightblue" stroke="midnightblue" points="177.204,-255.965 179.177,-266.374 184.126,-257.006 177.204,-255.965"/>
</g>
<!-- Node17 -->
<g id="node17" class="node"><title>Node17</title>
<g id="a_node17"><a xlink:href="class_thinksquirrel_software_1_1_word_game_builder_example_1_1_example_game_logic.html" target="_top" xlink:title="This class is responsible for all game logic. ">
<polygon fill="none" stroke="black" points="288,-0.5 288,-19.5 392,-19.5 392,-0.5 288,-0.5"/>
<text text-anchor="middle" x="340" y="-7.5" font-family="Helvetica,sans-Serif" font-size="10.00">ExampleGameLogic</text>
</a>
</g>
</g>
<!-- Node2&#45;&gt;Node17 -->
<g id="edge16" class="edge"><title>Node2&#45;&gt;Node17</title>
<path fill="none" stroke="midnightblue" d="M179.202,-256.517C183.151,-209.964 199.745,-91.502 268,-29 273.646,-23.8295 280.546,-20.039 287.802,-17.2656"/>
<polygon fill="midnightblue" stroke="midnightblue" points="175.711,-256.263 178.461,-266.494 182.692,-256.781 175.711,-256.263"/>
</g>
<!-- Node20 -->
<g id="node20" class="node"><title>Node20</title>
<g id="a_node20"><a xlink:href="interface_thinksquirrel_software_1_1_word_game_builder_1_1_object_model_1_1_i_mono_behaviour.html" target="_top" xlink:title="An interface representation of a MonoBehaviour. ">
<polygon fill="none" stroke="black" points="0.5,-494.5 0.5,-513.5 85.5,-513.5 85.5,-494.5 0.5,-494.5"/>
<text text-anchor="middle" x="43" y="-501.5" font-family="Helvetica,sans-Serif" font-size="10.00">IMonoBehaviour</text>
</a>
</g>
</g>
<!-- Node21 -->
<g id="node21" class="node"><title>Node21</title>
<g id="a_node21"><a xlink:href="interface_thinksquirrel_software_1_1_word_game_builder_1_1_object_model_1_1_i_letter_tile.html" target="_top" xlink:title="An interface defining a letter tile. Implementations must derive from MonoBehaviour in some form...">
<polygon fill="none" stroke="black" points="147.5,-589.5 147.5,-608.5 206.5,-608.5 206.5,-589.5 147.5,-589.5"/>
<text text-anchor="middle" x="177" y="-596.5" font-family="Helvetica,sans-Serif" font-size="10.00">ILetterTile</text>
</a>
</g>
</g>
<!-- Node20&#45;&gt;Node21 -->
<g id="edge19" class="edge"><title>Node20&#45;&gt;Node21</title>
<path fill="none" stroke="midnightblue" d="M65.3539,-519.763C80.9878,-531.265 102.745,-547.191 122,-561 135.601,-570.754 151.252,-581.742 162.191,-589.384"/>
<polygon fill="midnightblue" stroke="midnightblue" points="67.049,-516.664 56.9217,-513.552 62.8974,-522.3 67.049,-516.664"/>
</g>
<!-- Node25 -->
<g id="node25" class="node"><title>Node25</title>
<g id="a_node25"><a xlink:href="interface_thinksquirrel_software_1_1_word_game_builder_1_1_object_model_1_1_i_tile_pool.html" target="_top" xlink:title="An interface defining a pool of letter tiles. Implementations must derive from MonoBehaviour in some ...">
<polygon fill="none" stroke="black" points="150.5,-494.5 150.5,-513.5 203.5,-513.5 203.5,-494.5 150.5,-494.5"/>
<text text-anchor="middle" x="177" y="-501.5" font-family="Helvetica,sans-Serif" font-size="10.00">ITilePool</text>
</a>
</g>
</g>
<!-- Node20&#45;&gt;Node25 -->
<g id="edge26" class="edge"><title>Node20&#45;&gt;Node25</title>
<path fill="none" stroke="midnightblue" d="M95.9212,-504C114.565,-504 134.78,-504 150.236,-504"/>
<polygon fill="midnightblue" stroke="midnightblue" points="95.7657,-500.5 85.7656,-504 95.7656,-507.5 95.7657,-500.5"/>
</g>
<!-- Node26 -->
<g id="node26" class="node"><title>Node26</title>
<g id="a_node26"><a xlink:href="interface_thinksquirrel_software_1_1_word_game_builder_1_1_object_model_1_1_i_wildcard_tile_manager.html" target="_top" xlink:title="An interface defining a manager for selecting wildcard tiles. Implementations must derive from MonoBe...">
<polygon fill="none" stroke="black" points="122,-456.5 122,-475.5 232,-475.5 232,-456.5 122,-456.5"/>
<text text-anchor="middle" x="177" y="-463.5" font-family="Helvetica,sans-Serif" font-size="10.00">IWildcardTileManager</text>
</a>
</g>
</g>
<!-- Node20&#45;&gt;Node26 -->
<g id="edge28" class="edge"><title>Node20&#45;&gt;Node26</title>
<path fill="none" stroke="midnightblue" d="M87.0409,-491.609C105.118,-486.406 125.819,-480.446 142.701,-475.586"/>
<polygon fill="midnightblue" stroke="midnightblue" points="85.9506,-488.281 77.3092,-494.411 87.8872,-495.008 85.9506,-488.281"/>
</g>
<!-- Node27 -->
<g id="node27" class="node"><title>Node27</title>
<g id="a_node27"><a xlink:href="interface_thinksquirrel_software_1_1_word_game_builder_1_1_object_model_1_1_i_word_game_agent.html" target="_top" xlink:title="An interface defining a word game agent. Implementations must derive from MonoBehaviour in some form...">
<polygon fill="none" stroke="black" points="130,-418.5 130,-437.5 224,-437.5 224,-418.5 130,-418.5"/>
<text text-anchor="middle" x="177" y="-425.5" font-family="Helvetica,sans-Serif" font-size="10.00">IWordGameAgent</text>
</a>
</g>
</g>
<!-- Node20&#45;&gt;Node27 -->
<g id="edge30" class="edge"><title>Node20&#45;&gt;Node27</title>
<path fill="none" stroke="midnightblue" d="M62.9975,-487.652C78.1774,-475.218 100.414,-458.367 122,-447 128.859,-443.388 136.551,-440.213 143.933,-437.545"/>
<polygon fill="midnightblue" stroke="midnightblue" points="60.3648,-485.29 54.9336,-494.387 64.8523,-490.663 60.3648,-485.29"/>
</g>
<!-- Node28 -->
<g id="node28" class="node"><title>Node28</title>
<g id="a_node28"><a xlink:href="interface_thinksquirrel_software_1_1_word_game_builder_1_1_object_model_1_1_i_word_game_player.html" target="_top" xlink:title="An interface defining a word game player. Implementations must derive from MonoBehaviour in some form...">
<polygon fill="none" stroke="black" points="129,-532.5 129,-551.5 225,-551.5 225,-532.5 129,-532.5"/>
<text text-anchor="middle" x="177" y="-539.5" font-family="Helvetica,sans-Serif" font-size="10.00">IWordGamePlayer</text>
</a>
</g>
</g>
<!-- Node20&#45;&gt;Node28 -->
<g id="edge32" class="edge"><title>Node20&#45;&gt;Node28</title>
<path fill="none" stroke="midnightblue" d="M87.0409,-516.391C105.118,-521.594 125.819,-527.554 142.701,-532.414"/>
<polygon fill="midnightblue" stroke="midnightblue" points="87.8872,-512.992 77.3092,-513.589 85.9506,-519.719 87.8872,-512.992"/>
</g>
<!-- Node22 -->
<g id="node22" class="node"><title>Node22</title>
<g id="a_node22"><a xlink:href="interface_thinksquirrel_software_1_1_word_game_builder_1_1_object_model_1_1_i_letter_tile_display.html" target="_top" xlink:title="An interface defining letter tile colors and labels. ">
<polygon fill="none" stroke="black" points="294.5,-646.5 294.5,-665.5 385.5,-665.5 385.5,-646.5 294.5,-646.5"/>
<text text-anchor="middle" x="340" y="-653.5" font-family="Helvetica,sans-Serif" font-size="10.00">ILetterTileDisplay</text>
</a>
</g>
</g>
<!-- Node21&#45;&gt;Node22 -->
<g id="edge20" class="edge"><title>Node21&#45;&gt;Node22</title>
<path fill="none" stroke="midnightblue" d="M207.981,-612.887C225.295,-620.594 247.616,-630.007 268,-637 278.018,-640.437 289.003,-643.642 299.275,-646.405"/>
<polygon fill="midnightblue" stroke="midnightblue" points="208.974,-609.495 198.419,-608.577 206.097,-615.877 208.974,-609.495"/>
</g>
<!-- Node23 -->
<g id="node23" class="node"><title>Node23</title>
<g id="a_node23"><a xlink:href="interface_thinksquirrel_software_1_1_word_game_builder_1_1_object_model_1_1_i_letter_tile_input.html" target="_top" xlink:title="An interface defining letter tile input events. ">
<polygon fill="none" stroke="black" points="300,-608.5 300,-627.5 380,-627.5 380,-608.5 300,-608.5"/>
<text text-anchor="middle" x="340" y="-615.5" font-family="Helvetica,sans-Serif" font-size="10.00">ILetterTileInput</text>
</a>
</g>
</g>
<!-- Node21&#45;&gt;Node23 -->
<g id="edge22" class="edge"><title>Node21&#45;&gt;Node23</title>
<path fill="none" stroke="midnightblue" d="M216.722,-603.57C241.901,-606.541 274.623,-610.403 299.88,-613.383"/>
<polygon fill="midnightblue" stroke="midnightblue" points="217.125,-600.093 206.784,-602.397 216.304,-607.045 217.125,-600.093"/>
</g>
<!-- Node24 -->
<g id="node24" class="node"><title>Node24</title>
<g id="a_node24"><a xlink:href="interface_thinksquirrel_software_1_1_word_game_builder_1_1_object_model_1_1_i_selectable_letter_tile.html" target="_top" xlink:title="An interface defining a letter tile that can be selected and deselected. Implementations must derive ...">
<polygon fill="none" stroke="black" points="288,-570.5 288,-589.5 392,-589.5 392,-570.5 288,-570.5"/>
<text text-anchor="middle" x="340" y="-577.5" font-family="Helvetica,sans-Serif" font-size="10.00">ISelectableLetterTile</text>
</a>
</g>
</g>
<!-- Node21&#45;&gt;Node24 -->
<g id="edge24" class="edge"><title>Node21&#45;&gt;Node24</title>
<path fill="none" stroke="midnightblue" d="M216.758,-594.426C238.038,-591.915 264.698,-588.769 287.685,-586.056"/>
<polygon fill="midnightblue" stroke="midnightblue" points="216.304,-590.955 206.784,-595.603 217.125,-597.907 216.304,-590.955"/>
</g>
<!-- Node22&#45;&gt;Node9 -->
<g id="edge21" class="edge"><title>Node22&#45;&gt;Node9</title>
<path fill="none" stroke="midnightblue" d="M394.072,-643.569C400.204,-641.614 406.298,-639.425 412,-637 430.102,-629.302 449.223,-617.114 461.587,-608.624"/>
<polygon fill="midnightblue" stroke="midnightblue" points="393.032,-640.227 384.457,-646.448 395.04,-646.932 393.032,-640.227"/>
</g>
<!-- Node23&#45;&gt;Node9 -->
<g id="edge23" class="edge"><title>Node23&#45;&gt;Node9</title>
<path fill="none" stroke="midnightblue" d="M390.097,-611.038C409.635,-608.268 431.365,-605.187 447.95,-602.835"/>
<polygon fill="midnightblue" stroke="midnightblue" points="389.528,-607.584 380.119,-612.453 390.511,-614.515 389.528,-607.584"/>
</g>
<!-- Node24&#45;&gt;Node9 -->
<g id="edge25" class="edge"><title>Node24&#45;&gt;Node9</title>
<path fill="none" stroke="midnightblue" d="M402.386,-588.704C418.277,-590.957 434.592,-593.27 447.722,-595.132"/>
<polygon fill="midnightblue" stroke="midnightblue" points="402.434,-585.176 392.042,-587.237 401.452,-592.107 402.434,-585.176"/>
</g>
<!-- Node25&#45;&gt;Node3 -->
<g id="edge27" class="edge"><title>Node25&#45;&gt;Node3</title>
<path fill="none" stroke="midnightblue" d="M213.756,-504C244.342,-504 287.56,-504 314.4,-504"/>
<polygon fill="midnightblue" stroke="midnightblue" points="213.511,-500.5 203.511,-504 213.511,-507.5 213.511,-500.5"/>
</g>
<!-- Node26&#45;&gt;Node4 -->
<g id="edge29" class="edge"><title>Node26&#45;&gt;Node4</title>
<path fill="none" stroke="midnightblue" d="M242.098,-466C256.812,-466 272.289,-466 286.45,-466"/>
<polygon fill="midnightblue" stroke="midnightblue" points="242.059,-462.5 232.059,-466 242.059,-469.5 242.059,-462.5"/>
</g>
<!-- Node27&#45;&gt;Node5 -->
<g id="edge31" class="edge"><title>Node27&#45;&gt;Node5</title>
<path fill="none" stroke="midnightblue" d="M234.15,-428C253.724,-428 275.417,-428 293.969,-428"/>
<polygon fill="midnightblue" stroke="midnightblue" points="234.136,-424.5 224.136,-428 234.136,-431.5 234.136,-424.5"/>
</g>
<!-- Node28&#45;&gt;Node6 -->
<g id="edge33" class="edge"><title>Node28&#45;&gt;Node6</title>
<path fill="none" stroke="midnightblue" d="M235.258,-542C254.119,-542 274.842,-542 292.775,-542"/>
<polygon fill="midnightblue" stroke="midnightblue" points="235.001,-538.5 225.001,-542 235.001,-545.5 235.001,-538.5"/>
</g>
</g>
</svg>
