<?xml version="1.0" encoding="UTF-8" standalone="no"?>
<!DOCTYPE svg PUBLIC "-//W3C//DTD SVG 1.1//EN"
 "http://www.w3.org/Graphics/SVG/1.1/DTD/svg11.dtd">
<!-- Generated by graphviz version 2.34.0 (20130907.0111)
 -->
<!-- Title: WordGameEventState Pages: 1 -->
<!--zoomable 808 -->
<svg id="main" version="1.1" xmlns="http://www.w3.org/2000/svg" xmlns:xlink="http://www.w3.org/1999/xlink" xml:space="preserve" onload="init(evt)">
<style type="text/css"><![CDATA[
.edge:hover path { stroke: red; }
.edge:hover polygon { stroke: red; fill: red; }
]]></style>
<script type="text/javascript"><![CDATA[
var edges = document.getElementsByTagName('g');
if (edges && edges.length) {
  for (var i=0;i<edges.length;i++) {
    if (edges[i].id.substr(0,4)=='edge') {
      edges[i].setAttribute('class','edge');
    }
  }
}
]]></script>
        <defs>
                <circle id="rim" cx="0" cy="0" r="7"/>
                <circle id="rim2" cx="0" cy="0" r="3.5"/>
                <g id="zoomPlus">
                        <use xlink:href="#rim" fill="#404040">
                                <set attributeName="fill" to="#808080" begin="zoomplus.mouseover" end="zoomplus.mouseout"/>
                        </use>
                        <path d="M-4,0h8M0,-4v8" fill="none" stroke="white" stroke-width="1.5" pointer-events="none"/>
                </g>
                <g id="zoomMin">
                        <use xlink:href="#rim" fill="#404040">
                                <set attributeName="fill" to="#808080" begin="zoomminus.mouseover" end="zoomminus.mouseout"/>
                        </use>
                        <path d="M-4,0h8" fill="none" stroke="white" stroke-width="1.5" pointer-events="none"/>
                </g>
                <g id="dirArrow">
                        <path fill="none" stroke="white" stroke-width="1.5" d="M0,-3.0v7 M-2.5,-0.5L0,-3.0L2.5,-0.5"/>
                </g>
               <g id="resetDef">
                       <use xlink:href="#rim2" fill="#404040">
                               <set attributeName="fill" to="#808080" begin="reset.mouseover" end="reset.mouseout"/>
                       </use>
               </g>
        </defs>

<script type="text/javascript">
var viewWidth = 950;
var viewHeight = 808;
var sectionId = 'dynsection-0';
</script>
<script xlink:href="svgpan.js"/>
<svg id="graph" class="graph">
<g id="viewport">
<title>WordGameEventState</title>
<!-- Node1 -->
<g id="node1" class="node"><title>Node1</title>
<polygon fill="#bfbfbf" stroke="black" points="365.5,-0.5 365.5,-57.5 478.5,-57.5 478.5,-0.5 365.5,-0.5"/>
<text text-anchor="middle" x="422" y="-45.5" font-family="Helvetica,sans-Serif" font-size="10.00">WordGameEventState</text>
<polyline fill="none" stroke="black" points="365.5,-38.5 478.5,-38.5 "/>
<text text-anchor="middle" x="422" y="-26.5" font-family="Helvetica,sans-Serif" font-size="10.00"> </text>
<polyline fill="none" stroke="black" points="365.5,-19.5 478.5,-19.5 "/>
<text text-anchor="middle" x="422" y="-7.5" font-family="Helvetica,sans-Serif" font-size="10.00"> </text>
</g>
<!-- Node2 -->
<g id="node2" class="node"><title>Node2</title>
<g id="a_node2"><a xlink:href="interface_thinksquirrel_software_1_1_word_game_builder_1_1_object_model_1_1_i_wildcard_tile_manager.html" target="_top" xlink:title="An interface defining a pool of letter tiles. Implementations must derive from MonoBehaviour in some ...">
<polygon fill="none" stroke="black" points="-0.5,-277.5 -0.5,-334.5 116.5,-334.5 116.5,-277.5 -0.5,-277.5"/>
<text text-anchor="middle" x="58" y="-322.5" font-family="Helvetica,sans-Serif" font-size="10.00">IWildcardTileManager</text>
<polyline fill="none" stroke="black" points="-0.5,-315.5 116.5,-315.5 "/>
<text text-anchor="start" x="7.5" y="-303.5" font-family="Helvetica,sans-Serif" font-size="10.00">+ onWildcardTileSelect</text>
<polyline fill="none" stroke="black" points="-0.5,-296.5 116.5,-296.5 "/>
<text text-anchor="start" x="7.5" y="-284.5" font-family="Helvetica,sans-Serif" font-size="10.00">+ SelectWildcardTile()</text>
</a>
</g>
</g>
<!-- Node2&#45;&gt;Node1 -->
<g id="edge1" class="edge"><title>Node2&#45;&gt;Node1</title>
<path fill="none" stroke="#404040" d="M55.6381,-277.263C53.1754,-228.665 55.8571,-128.327 113,-76 147.077,-44.7951 272.673,-34.751 352.869,-31.523"/>
<polygon fill="none" stroke="#404040" points="353.337,-31.5058 359.185,-27.2863 365.329,-31.0613 359.481,-35.2808 353.337,-31.5058"/>
<text text-anchor="middle" x="178" y="-79.5" font-family="Helvetica,sans-Serif" font-size="10.00"> +currentWildcardTileManager</text>
</g>
<!-- Node3 -->
<g id="node3" class="node"><title>Node3</title>
<g id="a_node3"><a xlink:href="interface_thinksquirrel_software_1_1_word_game_builder_1_1_object_model_1_1_i_mono_behaviour.html" target="_top" xlink:title="An interface representation of a MonoBehaviour. ">
<polygon fill="none" stroke="black" points="250,-544.5 250,-799.5 360,-799.5 360,-544.5 250,-544.5"/>
<text text-anchor="middle" x="305" y="-787.5" font-family="Helvetica,sans-Serif" font-size="10.00">IMonoBehaviour</text>
<polyline fill="none" stroke="black" points="250,-780.5 360,-780.5 "/>
<text text-anchor="start" x="258" y="-768.5" font-family="Helvetica,sans-Serif" font-size="10.00">+ enabled</text>
<text text-anchor="start" x="258" y="-757.5" font-family="Helvetica,sans-Serif" font-size="10.00">+ gameObject</text>
<text text-anchor="start" x="258" y="-746.5" font-family="Helvetica,sans-Serif" font-size="10.00">+ hideFlags</text>
<text text-anchor="start" x="258" y="-735.5" font-family="Helvetica,sans-Serif" font-size="10.00">+ name</text>
<text text-anchor="start" x="258" y="-724.5" font-family="Helvetica,sans-Serif" font-size="10.00">+ tag</text>
<text text-anchor="start" x="258" y="-713.5" font-family="Helvetica,sans-Serif" font-size="10.00">+ transform</text>
<text text-anchor="start" x="258" y="-702.5" font-family="Helvetica,sans-Serif" font-size="10.00">+ userData</text>
<polyline fill="none" stroke="black" points="250,-695.5 360,-695.5 "/>
<text text-anchor="start" x="258" y="-683.5" font-family="Helvetica,sans-Serif" font-size="10.00">+ CancelInvoke()</text>
<text text-anchor="start" x="258" y="-672.5" font-family="Helvetica,sans-Serif" font-size="10.00">+ CancelInvoke()</text>
<text text-anchor="start" x="258" y="-661.5" font-family="Helvetica,sans-Serif" font-size="10.00">+ GetInstanceID()</text>
<text text-anchor="start" x="258" y="-650.5" font-family="Helvetica,sans-Serif" font-size="10.00">+ Invoke()</text>
<text text-anchor="start" x="258" y="-639.5" font-family="Helvetica,sans-Serif" font-size="10.00">+ InvokeRepeating()</text>
<text text-anchor="start" x="258" y="-628.5" font-family="Helvetica,sans-Serif" font-size="10.00">+ IsInvoking()</text>
<text text-anchor="start" x="258" y="-617.5" font-family="Helvetica,sans-Serif" font-size="10.00">+ IsInvoking()</text>
<text text-anchor="start" x="258" y="-606.5" font-family="Helvetica,sans-Serif" font-size="10.00">+ StartCoroutine()</text>
<text text-anchor="start" x="258" y="-595.5" font-family="Helvetica,sans-Serif" font-size="10.00">+ StartCoroutine()</text>
<text text-anchor="start" x="258" y="-584.5" font-family="Helvetica,sans-Serif" font-size="10.00">+ StartCoroutine()</text>
<text text-anchor="start" x="258" y="-573.5" font-family="Helvetica,sans-Serif" font-size="10.00">+ StopAllCoroutines()</text>
<text text-anchor="start" x="258" y="-562.5" font-family="Helvetica,sans-Serif" font-size="10.00">+ StopCoroutine()</text>
<text text-anchor="start" x="258" y="-551.5" font-family="Helvetica,sans-Serif" font-size="10.00">+ ToString()</text>
</a>
</g>
</g>
<!-- Node3&#45;&gt;Node2 -->
<g id="edge2" class="edge"><title>Node3&#45;&gt;Node2</title>
<path fill="none" stroke="midnightblue" d="M241.63,-625.652C203.507,-595.511 156.597,-552.939 126,-506 90.1131,-450.946 71.074,-374.929 62.9324,-334.646"/>
<polygon fill="none" stroke="midnightblue" points="239.586,-628.497 249.622,-631.892 243.894,-622.979 239.586,-628.497"/>
</g>
<!-- Node4 -->
<g id="node4" class="node"><title>Node4</title>
<g id="a_node4"><a xlink:href="interface_thinksquirrel_software_1_1_word_game_builder_1_1_object_model_1_1_i_tile_pool.html" target="_top" xlink:title="An interface defining a pool of letter tiles. Implementations must derive from MonoBehaviour in some ...">
<polygon fill="none" stroke="black" points="135,-217 135,-395 235,-395 235,-217 135,-217"/>
<text text-anchor="middle" x="185" y="-383" font-family="Helvetica,sans-Serif" font-size="10.00">ITilePool</text>
<polyline fill="none" stroke="black" points="135,-376 235,-376 "/>
<text text-anchor="start" x="143" y="-364" font-family="Helvetica,sans-Serif" font-size="10.00">+ language</text>
<text text-anchor="start" x="143" y="-353" font-family="Helvetica,sans-Serif" font-size="10.00">+ onTileDistribution</text>
<text text-anchor="start" x="143" y="-342" font-family="Helvetica,sans-Serif" font-size="10.00">+ tileDistribution</text>
<text text-anchor="start" x="143" y="-331" font-family="Helvetica,sans-Serif" font-size="10.00">+ tilePool</text>
<text text-anchor="start" x="143" y="-320" font-family="Helvetica,sans-Serif" font-size="10.00">+ tilePoolCount</text>
<polyline fill="none" stroke="black" points="135,-313 235,-313 "/>
<text text-anchor="start" x="143" y="-301" font-family="Helvetica,sans-Serif" font-size="10.00">+ CreateTilePool()</text>
<text text-anchor="start" x="143" y="-290" font-family="Helvetica,sans-Serif" font-size="10.00">+ DestroyAllTiles()</text>
<text text-anchor="start" x="143" y="-279" font-family="Helvetica,sans-Serif" font-size="10.00">+ DestroyTile()</text>
<text text-anchor="start" x="143" y="-268" font-family="Helvetica,sans-Serif" font-size="10.00">+ DistributeTiles()</text>
<text text-anchor="start" x="143" y="-257" font-family="Helvetica,sans-Serif" font-size="10.00">+ DistributeTiles()</text>
<text text-anchor="start" x="143" y="-246" font-family="Helvetica,sans-Serif" font-size="10.00">+ InsertTile()</text>
<text text-anchor="start" x="143" y="-235" font-family="Helvetica,sans-Serif" font-size="10.00">+ RemoveTile()</text>
<text text-anchor="start" x="143" y="-224" font-family="Helvetica,sans-Serif" font-size="10.00">+ ResetTilePool()</text>
</a>
</g>
</g>
<!-- Node3&#45;&gt;Node4 -->
<g id="edge4" class="edge"><title>Node3&#45;&gt;Node4</title>
<path fill="none" stroke="midnightblue" d="M253.786,-534.614C250.403,-524.955 247.109,-515.346 244,-506 231.999,-469.927 219.869,-429.789 209.755,-395.063"/>
<polygon fill="none" stroke="midnightblue" points="250.568,-536.014 257.195,-544.281 257.17,-533.686 250.568,-536.014"/>
</g>
<!-- Node5 -->
<g id="node5" class="node"><title>Node5</title>
<g id="a_node5"><a xlink:href="interface_thinksquirrel_software_1_1_word_game_builder_1_1_object_model_1_1_i_letter_tile.html" target="_top" xlink:title="An interface defining a letter tile. Implementations must derive from MonoBehaviour in some form...">
<polygon fill="none" stroke="black" points="253,-211.5 253,-400.5 357,-400.5 357,-211.5 253,-211.5"/>
<text text-anchor="middle" x="305" y="-388.5" font-family="Helvetica,sans-Serif" font-size="10.00">ILetterTile</text>
<polyline fill="none" stroke="black" points="253,-381.5 357,-381.5 "/>
<text text-anchor="start" x="261" y="-369.5" font-family="Helvetica,sans-Serif" font-size="10.00">+ currentLetter</text>
<text text-anchor="start" x="261" y="-358.5" font-family="Helvetica,sans-Serif" font-size="10.00">+ currentPointValue</text>
<text text-anchor="start" x="261" y="-347.5" font-family="Helvetica,sans-Serif" font-size="10.00">+ defaultPointValue</text>
<text text-anchor="start" x="261" y="-336.5" font-family="Helvetica,sans-Serif" font-size="10.00">+ isActive</text>
<text text-anchor="start" x="261" y="-325.5" font-family="Helvetica,sans-Serif" font-size="10.00">+ letter</text>
<text text-anchor="start" x="261" y="-314.5" font-family="Helvetica,sans-Serif" font-size="10.00">+ onTileChange</text>
<text text-anchor="start" x="261" y="-303.5" font-family="Helvetica,sans-Serif" font-size="10.00">+ onTileSpawn</text>
<text text-anchor="start" x="261" y="-292.5" font-family="Helvetica,sans-Serif" font-size="10.00">+ wildcardLetter</text>
<polyline fill="none" stroke="black" points="253,-285.5 357,-285.5 "/>
<text text-anchor="start" x="261" y="-273.5" font-family="Helvetica,sans-Serif" font-size="10.00">+ ChangeLetter()</text>
<text text-anchor="start" x="261" y="-262.5" font-family="Helvetica,sans-Serif" font-size="10.00">+ DespawnTile()</text>
<text text-anchor="start" x="261" y="-251.5" font-family="Helvetica,sans-Serif" font-size="10.00">+ RemoveWildcard()</text>
<text text-anchor="start" x="261" y="-240.5" font-family="Helvetica,sans-Serif" font-size="10.00">+ SetWildcard()</text>
<text text-anchor="start" x="261" y="-229.5" font-family="Helvetica,sans-Serif" font-size="10.00">+ SetWildcard()</text>
<text text-anchor="start" x="261" y="-218.5" font-family="Helvetica,sans-Serif" font-size="10.00">+ SpawnTile()</text>
</a>
</g>
</g>
<!-- Node3&#45;&gt;Node5 -->
<g id="edge6" class="edge"><title>Node3&#45;&gt;Node5</title>
<path fill="none" stroke="midnightblue" d="M305,-534.4C305,-489.759 305,-441.226 305,-400.505"/>
<polygon fill="none" stroke="midnightblue" points="301.5,-534.457 305,-544.457 308.5,-534.457 301.5,-534.457"/>
</g>
<!-- Node6 -->
<g id="node6" class="node"><title>Node6</title>
<g id="a_node6"><a xlink:href="interface_thinksquirrel_software_1_1_word_game_builder_1_1_object_model_1_1_i_word_game_agent.html" target="_top" xlink:title="An interface defining a word game player. Implementations must derive from MonoBehaviour in some form...">
<polygon fill="none" stroke="black" points="375,-266.5 375,-345.5 469,-345.5 469,-266.5 375,-266.5"/>
<text text-anchor="middle" x="422" y="-333.5" font-family="Helvetica,sans-Serif" font-size="10.00">IWordGameAgent</text>
<polyline fill="none" stroke="black" points="375,-326.5 469,-326.5 "/>
<text text-anchor="start" x="383" y="-314.5" font-family="Helvetica,sans-Serif" font-size="10.00">+ lastSearchInfo</text>
<text text-anchor="start" x="383" y="-303.5" font-family="Helvetica,sans-Serif" font-size="10.00">+ onFindWords</text>
<polyline fill="none" stroke="black" points="375,-296.5 469,-296.5 "/>
<text text-anchor="start" x="383" y="-284.5" font-family="Helvetica,sans-Serif" font-size="10.00">+ FindWords()</text>
<text text-anchor="start" x="383" y="-273.5" font-family="Helvetica,sans-Serif" font-size="10.00">+ Stop()</text>
</a>
</g>
</g>
<!-- Node3&#45;&gt;Node6 -->
<g id="edge8" class="edge"><title>Node3&#45;&gt;Node6</title>
<path fill="none" stroke="midnightblue" d="M356.363,-534.663C359.711,-524.993 362.956,-515.367 366,-506 383.915,-450.875 401.513,-386.103 412.065,-345.795"/>
<polygon fill="none" stroke="midnightblue" points="352.977,-533.746 352.986,-544.34 359.586,-536.052 352.977,-533.746"/>
</g>
<!-- Node9 -->
<g id="node9" class="node"><title>Node9</title>
<g id="a_node9"><a xlink:href="interface_thinksquirrel_software_1_1_word_game_builder_1_1_object_model_1_1_i_word_game_player.html" target="_top" xlink:title="An interface defining a word game player. Implementations must derive from MonoBehaviour in some form...">
<polygon fill="none" stroke="black" points="487.5,-173 487.5,-439 616.5,-439 616.5,-173 487.5,-173"/>
<text text-anchor="middle" x="552" y="-427" font-family="Helvetica,sans-Serif" font-size="10.00">IWordGamePlayer</text>
<polyline fill="none" stroke="black" points="487.5,-420 616.5,-420 "/>
<text text-anchor="start" x="495.5" y="-408" font-family="Helvetica,sans-Serif" font-size="10.00">+ bestWord</text>
<text text-anchor="start" x="495.5" y="-397" font-family="Helvetica,sans-Serif" font-size="10.00">+ bestWordScore</text>
<text text-anchor="start" x="495.5" y="-386" font-family="Helvetica,sans-Serif" font-size="10.00">+ heldTiles</text>
<text text-anchor="start" x="495.5" y="-375" font-family="Helvetica,sans-Serif" font-size="10.00">+ highScore</text>
<text text-anchor="start" x="495.5" y="-364" font-family="Helvetica,sans-Serif" font-size="10.00">+ inputEnabled</text>
<text text-anchor="start" x="495.5" y="-353" font-family="Helvetica,sans-Serif" font-size="10.00">+ lastResult</text>
<text text-anchor="start" x="495.5" y="-342" font-family="Helvetica,sans-Serif" font-size="10.00">+ lastWord</text>
<text text-anchor="start" x="495.5" y="-331" font-family="Helvetica,sans-Serif" font-size="10.00">+ lastWordScore</text>
<text text-anchor="start" x="495.5" y="-320" font-family="Helvetica,sans-Serif" font-size="10.00">+ maxTiles</text>
<text text-anchor="start" x="495.5" y="-309" font-family="Helvetica,sans-Serif" font-size="10.00">+ multiplyByPermutations</text>
<text text-anchor="start" x="495.5" y="-298" font-family="Helvetica,sans-Serif" font-size="10.00">+ onWordResult</text>
<text text-anchor="start" x="495.5" y="-287" font-family="Helvetica,sans-Serif" font-size="10.00">+ orderedWordCheck</text>
<text text-anchor="start" x="495.5" y="-276" font-family="Helvetica,sans-Serif" font-size="10.00">+ playTiles</text>
<text text-anchor="start" x="495.5" y="-265" font-family="Helvetica,sans-Serif" font-size="10.00">+ score</text>
<polyline fill="none" stroke="black" points="487.5,-258 616.5,-258 "/>
<text text-anchor="start" x="495.5" y="-246" font-family="Helvetica,sans-Serif" font-size="10.00">+ ClearSelection()</text>
<text text-anchor="start" x="495.5" y="-235" font-family="Helvetica,sans-Serif" font-size="10.00">+ ResetAllData()</text>
<text text-anchor="start" x="495.5" y="-224" font-family="Helvetica,sans-Serif" font-size="10.00">+ ResetBestWord()</text>
<text text-anchor="start" x="495.5" y="-213" font-family="Helvetica,sans-Serif" font-size="10.00">+ ResetHighScore()</text>
<text text-anchor="start" x="495.5" y="-202" font-family="Helvetica,sans-Serif" font-size="10.00">+ ResetLastWord()</text>
<text text-anchor="start" x="495.5" y="-191" font-family="Helvetica,sans-Serif" font-size="10.00">+ ResetScore()</text>
<text text-anchor="start" x="495.5" y="-180" font-family="Helvetica,sans-Serif" font-size="10.00">+ SubmitWord()</text>
</a>
</g>
</g>
<!-- Node3&#45;&gt;Node9 -->
<g id="edge12" class="edge"><title>Node3&#45;&gt;Node9</title>
<path fill="none" stroke="midnightblue" d="M368.159,-622.963C404.377,-592.704 448.387,-550.95 478,-506 491.485,-485.531 502.958,-462.268 512.553,-439.044"/>
<polygon fill="none" stroke="midnightblue" points="365.568,-620.563 360.084,-629.628 370.024,-625.961 365.568,-620.563"/>
</g>
<!-- Node4&#45;&gt;Node1 -->
<g id="edge3" class="edge"><title>Node4&#45;&gt;Node1</title>
<path fill="none" stroke="#404040" d="M190.728,-216.965C198.487,-168.844 216.003,-111.9 255,-76 281.602,-51.5108 320.054,-39.8781 353.356,-34.4274"/>
<polygon fill="none" stroke="#404040" points="353.486,-34.4087 358.849,-29.5891 365.361,-32.6866 359.997,-37.5062 353.486,-34.4087"/>
<text text-anchor="middle" x="292" y="-79.5" font-family="Helvetica,sans-Serif" font-size="10.00"> +currentTilePool</text>
</g>
<!-- Node5&#45;&gt;Node1 -->
<g id="edge5" class="edge"><title>Node5&#45;&gt;Node1</title>
<path fill="none" stroke="#404040" d="M300.422,-211.373C302.61,-166.899 311.927,-115.063 339,-76 343.434,-69.6021 349.059,-63.9988 355.284,-59.1149"/>
<polygon fill="none" stroke="#404040" points="355.626,-58.8768 358.265,-52.166 365.475,-52.0213 362.836,-58.7321 355.626,-58.8768"/>
<text text-anchor="middle" x="378.5" y="-79.5" font-family="Helvetica,sans-Serif" font-size="10.00"> +currentLetterTile</text>
</g>
<!-- Node6&#45;&gt;Node1 -->
<g id="edge7" class="edge"><title>Node6&#45;&gt;Node1</title>
<path fill="none" stroke="#404040" d="M422,-266.473C422,-214.58 422,-122.677 422,-70.0265"/>
<polygon fill="none" stroke="#404040" points="422,-69.848 418,-63.848 422,-57.848 426,-63.8479 422,-69.848"/>
<text text-anchor="middle" x="454.5" y="-79.5" font-family="Helvetica,sans-Serif" font-size="10.00"> +currentAgent</text>
</g>
<!-- Node7 -->
<g id="node7" class="node"><title>Node7</title>
<g id="a_node7"><a xlink:href="class_thinksquirrel_software_1_1_word_game_builder_1_1_language.html" target="_top" xlink:title="Represents a language. ">
<polygon fill="none" stroke="black" points="634.5,-107 634.5,-505 777.5,-505 777.5,-107 634.5,-107"/>
<text text-anchor="middle" x="706" y="-493" font-family="Helvetica,sans-Serif" font-size="10.00">Language</text>
<polyline fill="none" stroke="black" points="634.5,-486 777.5,-486 "/>
<text text-anchor="start" x="642.5" y="-474" font-family="Helvetica,sans-Serif" font-size="10.00">+ all</text>
<text text-anchor="start" x="642.5" y="-463" font-family="Helvetica,sans-Serif" font-size="10.00">+ allNames</text>
<text text-anchor="start" x="642.5" y="-452" font-family="Helvetica,sans-Serif" font-size="10.00">+ allowBlanks</text>
<text text-anchor="start" x="642.5" y="-441" font-family="Helvetica,sans-Serif" font-size="10.00">+ blankLetterWeight</text>
<text text-anchor="start" x="642.5" y="-430" font-family="Helvetica,sans-Serif" font-size="10.00">+ caseSensitive</text>
<text text-anchor="start" x="642.5" y="-419" font-family="Helvetica,sans-Serif" font-size="10.00">+ culture</text>
<text text-anchor="start" x="642.5" y="-408" font-family="Helvetica,sans-Serif" font-size="10.00">+ cultureName</text>
<text text-anchor="start" x="642.5" y="-397" font-family="Helvetica,sans-Serif" font-size="10.00">+ current</text>
<text text-anchor="start" x="642.5" y="-386" font-family="Helvetica,sans-Serif" font-size="10.00">+ decompressOnLoad</text>
<text text-anchor="start" x="642.5" y="-375" font-family="Helvetica,sans-Serif" font-size="10.00">+ identifier</text>
<text text-anchor="start" x="642.5" y="-364" font-family="Helvetica,sans-Serif" font-size="10.00">+ languageName</text>
<text text-anchor="start" x="642.5" y="-353" font-family="Helvetica,sans-Serif" font-size="10.00">+ letters</text>
<text text-anchor="start" x="642.5" y="-342" font-family="Helvetica,sans-Serif" font-size="10.00">+ wordCount</text>
<text text-anchor="start" x="642.5" y="-331" font-family="Helvetica,sans-Serif" font-size="10.00">+ wordSet</text>
<polyline fill="none" stroke="black" points="634.5,-324 777.5,-324 "/>
<text text-anchor="start" x="642.5" y="-312" font-family="Helvetica,sans-Serif" font-size="10.00">+ ChangeIdentifier()</text>
<text text-anchor="start" x="642.5" y="-301" font-family="Helvetica,sans-Serif" font-size="10.00">+ ClearRandomLetterCache()</text>
<text text-anchor="start" x="642.5" y="-290" font-family="Helvetica,sans-Serif" font-size="10.00">+ ExportLettersToCsv()</text>
<text text-anchor="start" x="642.5" y="-279" font-family="Helvetica,sans-Serif" font-size="10.00">+ ExportWordsToCsv()</text>
<text text-anchor="start" x="642.5" y="-268" font-family="Helvetica,sans-Serif" font-size="10.00">+ GetLetter()</text>
<text text-anchor="start" x="642.5" y="-257" font-family="Helvetica,sans-Serif" font-size="10.00">+ GetLetter()</text>
<text text-anchor="start" x="642.5" y="-246" font-family="Helvetica,sans-Serif" font-size="10.00">+ GetRandomLetter()</text>
<text text-anchor="start" x="642.5" y="-235" font-family="Helvetica,sans-Serif" font-size="10.00">+ GetRandomLetter()</text>
<text text-anchor="start" x="642.5" y="-224" font-family="Helvetica,sans-Serif" font-size="10.00">+ GetRandomLetters()</text>
<text text-anchor="start" x="642.5" y="-213" font-family="Helvetica,sans-Serif" font-size="10.00">+ GetRandomLetters()</text>
<text text-anchor="start" x="642.5" y="-202" font-family="Helvetica,sans-Serif" font-size="10.00">and 14 more...</text>
<text text-anchor="start" x="642.5" y="-191" font-family="Helvetica,sans-Serif" font-size="10.00">+ Create()</text>
<text text-anchor="start" x="642.5" y="-180" font-family="Helvetica,sans-Serif" font-size="10.00">+ FindByIdentifier()</text>
<text text-anchor="start" x="642.5" y="-169" font-family="Helvetica,sans-Serif" font-size="10.00">+ FindByName()</text>
<text text-anchor="start" x="642.5" y="-158" font-family="Helvetica,sans-Serif" font-size="10.00">+ LoadLanguage()</text>
<text text-anchor="start" x="642.5" y="-147" font-family="Helvetica,sans-Serif" font-size="10.00">+ LoadLanguages()</text>
<text text-anchor="start" x="642.5" y="-136" font-family="Helvetica,sans-Serif" font-size="10.00">+ RemoveAll()</text>
<text text-anchor="start" x="642.5" y="-125" font-family="Helvetica,sans-Serif" font-size="10.00">+ RemoveByIdentifier()</text>
<text text-anchor="start" x="642.5" y="-114" font-family="Helvetica,sans-Serif" font-size="10.00">+ RemoveByName()</text>
</a>
</g>
</g>
<!-- Node7&#45;&gt;Node1 -->
<g id="edge9" class="edge"><title>Node7&#45;&gt;Node1</title>
<path fill="none" stroke="#404040" d="M634.337,-117.263C631.341,-113.379 628.23,-109.617 625,-106 590.671,-67.5633 534.98,-48.501 490.604,-39.084"/>
<polygon fill="none" stroke="#404040" points="490.481,-39.0596 483.818,-41.8184 478.709,-36.7295 485.372,-33.9707 490.481,-39.0596"/>
<text text-anchor="middle" x="645" y="-79.5" font-family="Helvetica,sans-Serif" font-size="10.00"> +currentLanguage</text>
</g>
<!-- Node8 -->
<g id="node8" class="node"><title>Node8</title>
<polygon fill="none" stroke="#bfbfbf" points="661.5,-643.5 661.5,-700.5 750.5,-700.5 750.5,-643.5 661.5,-643.5"/>
<text text-anchor="middle" x="706" y="-688.5" font-family="Helvetica,sans-Serif" font-size="10.00">ScriptableObject</text>
<polyline fill="none" stroke="#bfbfbf" points="661.5,-681.5 750.5,-681.5 "/>
<text text-anchor="middle" x="706" y="-669.5" font-family="Helvetica,sans-Serif" font-size="10.00"> </text>
<polyline fill="none" stroke="#bfbfbf" points="661.5,-662.5 750.5,-662.5 "/>
<text text-anchor="middle" x="706" y="-650.5" font-family="Helvetica,sans-Serif" font-size="10.00"> </text>
</g>
<!-- Node8&#45;&gt;Node7 -->
<g id="edge10" class="edge"><title>Node8&#45;&gt;Node7</title>
<path fill="none" stroke="midnightblue" d="M706,-633.31C706,-601.856 706,-554.395 706,-505.338"/>
<polygon fill="none" stroke="midnightblue" points="702.5,-633.342 706,-643.342 709.5,-633.342 702.5,-633.342"/>
</g>
<!-- Node9&#45;&gt;Node1 -->
<g id="edge11" class="edge"><title>Node9&#45;&gt;Node1</title>
<path fill="none" stroke="#404040" d="M533.888,-172.731C524.85,-139.023 511.304,-104.347 491,-76 488.372,-72.3314 485.354,-68.8715 482.079,-65.6243"/>
<polygon fill="none" stroke="#404040" points="481.904,-65.4693 474.758,-64.4976 472.907,-57.5281 480.052,-58.4999 481.904,-65.4693"/>
<text text-anchor="middle" x="532.5" y="-79.5" font-family="Helvetica,sans-Serif" font-size="10.00"> +currentPlayer</text>
</g>
<!-- Node10 -->
<g id="node10" class="node"><title>Node10</title>
<g id="a_node10"><a xlink:href="class_thinksquirrel_software_1_1_word_game_builder_1_1_w_g_b_event.html" target="_top" xlink:title="A serializable class for event binding. ">
<polygon fill="none" stroke="black" points="796,-145.5 796,-466.5 942,-466.5 942,-145.5 796,-145.5"/>
<text text-anchor="middle" x="869" y="-454.5" font-family="Helvetica,sans-Serif" font-size="10.00">WGBEvent</text>
<polyline fill="none" stroke="black" points="796,-447.5 942,-447.5 "/>
<text text-anchor="start" x="804" y="-435.5" font-family="Helvetica,sans-Serif" font-size="10.00">+ currentAgent</text>
<text text-anchor="start" x="804" y="-424.5" font-family="Helvetica,sans-Serif" font-size="10.00">+ currentLanguage</text>
<text text-anchor="start" x="804" y="-413.5" font-family="Helvetica,sans-Serif" font-size="10.00">+ currentLetterTile</text>
<text text-anchor="start" x="804" y="-402.5" font-family="Helvetica,sans-Serif" font-size="10.00">+ currentPlayer</text>
<text text-anchor="start" x="804" y="-391.5" font-family="Helvetica,sans-Serif" font-size="10.00">+ currentTilePool</text>
<text text-anchor="start" x="804" y="-380.5" font-family="Helvetica,sans-Serif" font-size="10.00">+ currentWildcardTileManager</text>
<text text-anchor="start" x="804" y="-369.5" font-family="Helvetica,sans-Serif" font-size="10.00">+ isDelegate</text>
<text text-anchor="start" x="804" y="-358.5" font-family="Helvetica,sans-Serif" font-size="10.00">+ methodName</text>
<text text-anchor="start" x="804" y="-347.5" font-family="Helvetica,sans-Serif" font-size="10.00">+ rawMethodName</text>
<text text-anchor="start" x="804" y="-336.5" font-family="Helvetica,sans-Serif" font-size="10.00">+ target</text>
<text text-anchor="start" x="804" y="-325.5" font-family="Helvetica,sans-Serif" font-size="10.00">+ targetGameObject</text>
<polyline fill="none" stroke="black" points="796,-318.5 942,-318.5 "/>
<text text-anchor="start" x="804" y="-306.5" font-family="Helvetica,sans-Serif" font-size="10.00">+ WGBEvent()</text>
<text text-anchor="start" x="804" y="-295.5" font-family="Helvetica,sans-Serif" font-size="10.00">+ WGBEvent()</text>
<text text-anchor="start" x="804" y="-284.5" font-family="Helvetica,sans-Serif" font-size="10.00">+ WGBEvent()</text>
<text text-anchor="start" x="804" y="-273.5" font-family="Helvetica,sans-Serif" font-size="10.00">+ WGBEvent()</text>
<text text-anchor="start" x="804" y="-262.5" font-family="Helvetica,sans-Serif" font-size="10.00">+ Add()</text>
<text text-anchor="start" x="804" y="-251.5" font-family="Helvetica,sans-Serif" font-size="10.00">+ Add()</text>
<text text-anchor="start" x="804" y="-240.5" font-family="Helvetica,sans-Serif" font-size="10.00">+ Add()</text>
<text text-anchor="start" x="804" y="-229.5" font-family="Helvetica,sans-Serif" font-size="10.00">+ Add()</text>
<text text-anchor="start" x="804" y="-218.5" font-family="Helvetica,sans-Serif" font-size="10.00">+ GetDelegate()</text>
<text text-anchor="start" x="804" y="-207.5" font-family="Helvetica,sans-Serif" font-size="10.00">+ GetInvocationList()</text>
<text text-anchor="start" x="804" y="-196.5" font-family="Helvetica,sans-Serif" font-size="10.00">and 11 more...</text>
<text text-anchor="start" x="804" y="-185.5" font-family="Helvetica,sans-Serif" font-size="10.00">+ Invoke()</text>
<text text-anchor="start" x="804" y="-174.5" font-family="Helvetica,sans-Serif" font-size="10.00">+ operator bool()</text>
<text text-anchor="start" x="804" y="-163.5" font-family="Helvetica,sans-Serif" font-size="10.00">+ operator+()</text>
<text text-anchor="start" x="804" y="-152.5" font-family="Helvetica,sans-Serif" font-size="10.00">+ operator&#45;()</text>
</a>
</g>
</g>
<!-- Node10&#45;&gt;Node1 -->
<g id="edge13" class="edge"><title>Node10&#45;&gt;Node1</title>
<path fill="none" stroke="#404040" d="M818.161,-145.415C809.084,-130.857 798.448,-117.349 786,-106 743.54,-67.2876 584.134,-45.6659 490.946,-36.0845"/>
<polygon fill="none" stroke="#404040" points="490.752,-36.0651 484.382,-39.4457 478.812,-34.8664 485.181,-31.4857 490.752,-36.0651"/>
<text text-anchor="middle" x="766" y="-79.5" font-family="Helvetica,sans-Serif" font-size="10.00"> +evt</text>
</g>
</g>
</svg>
        <g id="navigator" transform="translate(0 0)" fill="#404254">
                <rect fill="#f2f5e9" fill-opacity="0.5" stroke="#606060" stroke-width=".5" x="0" y="0" width="60" height="60"/>
                <use id="zoomplus" xlink:href="#zoomPlus" x="17" y="9" onmousedown="handleZoom(evt,'in')"/>
                <use id="zoomminus" xlink:href="#zoomMin" x="42" y="9" onmousedown="handleZoom(evt,'out')"/>
                <use id="reset" xlink:href="#resetDef" x="30" y="36" onmousedown="handleReset()"/>
                <g id="arrowUp" xlink:href="#dirArrow" transform="translate(30 24)" onmousedown="handlePan(0,-1)">
                  <use xlink:href="#rim" fill="#404040">
                        <set attributeName="fill" to="#808080" begin="arrowUp.mouseover" end="arrowUp.mouseout"/>
                  </use>
                  <path fill="none" stroke="white" stroke-width="1.5" d="M0,-3.0v7 M-2.5,-0.5L0,-3.0L2.5,-0.5"/>
                </g>
                <g id="arrowRight" xlink:href="#dirArrow" transform="rotate(90) translate(36 -43)" onmousedown="handlePan(1,0)">
                  <use xlink:href="#rim" fill="#404040">
                        <set attributeName="fill" to="#808080" begin="arrowRight.mouseover" end="arrowRight.mouseout"/>
                  </use>
                  <path fill="none" stroke="white" stroke-width="1.5" d="M0,-3.0v7 M-2.5,-0.5L0,-3.0L2.5,-0.5"/>
                </g>
                <g id="arrowDown" xlink:href="#dirArrow" transform="rotate(180) translate(-30 -48)" onmousedown="handlePan(0,1)">
                  <use xlink:href="#rim" fill="#404040">
                        <set attributeName="fill" to="#808080" begin="arrowDown.mouseover" end="arrowDown.mouseout"/>
                  </use>
                  <path fill="none" stroke="white" stroke-width="1.5" d="M0,-3.0v7 M-2.5,-0.5L0,-3.0L2.5,-0.5"/>
                </g>
                <g id="arrowLeft" xlink:href="#dirArrow" transform="rotate(270) translate(-36 17)" onmousedown="handlePan(-1,0)">
                  <use xlink:href="#rim" fill="#404040">
                        <set attributeName="fill" to="#808080" begin="arrowLeft.mouseover" end="arrowLeft.mouseout"/>
                  </use>
                  <path fill="none" stroke="white" stroke-width="1.5" d="M0,-3.0v7 M-2.5,-0.5L0,-3.0L2.5,-0.5"/>
                </g>
        </g>
        <svg viewBox="0 0 15 15" width="100%" height="30px" preserveAspectRatio="xMaxYMin meet">
         <g id="arrow_out" transform="scale(0.3 0.3)">
          <a xlink:href="struct_thinksquirrel_software_1_1_word_game_builder_1_1_word_game_event_state__coll__graph_org.svg" target="_base">
           <rect id="button" ry="5" rx="5" y="6" x="6" height="38" width="38"
                fill="#f2f5e9" fill-opacity="0.5" stroke="#606060" stroke-width="1.0"/>
           <path id="arrow"
             d="M 11.500037,31.436501 C 11.940474,20.09759 22.043105,11.32322 32.158766,21.979434 L 37.068811,17.246167 C 37.068811,17.246167 37.088388,32 37.088388,32 L 22.160133,31.978069 C 22.160133,31.978069 26.997745,27.140456 26.997745,27.140456 C 18.528582,18.264221 13.291696,25.230495 11.500037,31.436501 z"
             style="fill:#404040;"/>
          </a>
         </g>
        </svg>
</svg>
