<?xml version="1.0" encoding="UTF-8" standalone="no"?>
<!DOCTYPE svg PUBLIC "-//W3C//DTD SVG 1.1//EN"
 "http://www.w3.org/Graphics/SVG/1.1/DTD/svg11.dtd">
<!-- Generated by graphviz version 2.34.0 (20130907.0111)
 -->
<!-- Title: Letter Pages: 1 -->
<svg width="231pt" height="282pt"
 viewBox="0.00 0.00 231.00 282.00" xmlns="http://www.w3.org/2000/svg" xmlns:xlink="http://www.w3.org/1999/xlink">
<g id="graph0" class="graph" transform="scale(1 1) rotate(0) translate(4 278)">
<title>Letter</title>
<!-- Node1 -->
<g id="node1" class="node"><title>Node1</title>
<polygon fill="#bfbfbf" stroke="black" points="63,-1 63,-179 155,-179 155,-1 63,-1"/>
<text text-anchor="middle" x="109" y="-167" font-family="Helvetica,sans-Serif" font-size="10.00">Letter</text>
<polyline fill="none" stroke="black" points="63,-160 155,-160 "/>
<text text-anchor="start" x="71" y="-148" font-family="Helvetica,sans-Serif" font-size="10.00">+ character</text>
<text text-anchor="start" x="71" y="-137" font-family="Helvetica,sans-Serif" font-size="10.00">+ empty</text>
<text text-anchor="start" x="71" y="-126" font-family="Helvetica,sans-Serif" font-size="10.00">+ hasValue</text>
<text text-anchor="start" x="71" y="-115" font-family="Helvetica,sans-Serif" font-size="10.00">+ score</text>
<text text-anchor="start" x="71" y="-104" font-family="Helvetica,sans-Serif" font-size="10.00">+ text</text>
<polyline fill="none" stroke="black" points="63,-97 155,-97 "/>
<text text-anchor="start" x="71" y="-85" font-family="Helvetica,sans-Serif" font-size="10.00">+ Letter()</text>
<text text-anchor="start" x="71" y="-74" font-family="Helvetica,sans-Serif" font-size="10.00">+ CompareTo()</text>
<text text-anchor="start" x="71" y="-63" font-family="Helvetica,sans-Serif" font-size="10.00">+ CompareTo()</text>
<text text-anchor="start" x="71" y="-52" font-family="Helvetica,sans-Serif" font-size="10.00">+ Equals()</text>
<text text-anchor="start" x="71" y="-41" font-family="Helvetica,sans-Serif" font-size="10.00">+ Equals()</text>
<text text-anchor="start" x="71" y="-30" font-family="Helvetica,sans-Serif" font-size="10.00">+ GetHashCode()</text>
<text text-anchor="start" x="71" y="-19" font-family="Helvetica,sans-Serif" font-size="10.00">+ operator!=()</text>
<text text-anchor="start" x="71" y="-8" font-family="Helvetica,sans-Serif" font-size="10.00">+ operator==()</text>
</g>
<!-- Node2 -->
<g id="node2" class="node"><title>Node2</title>
<polygon fill="none" stroke="#bfbfbf" points="-0.5,-216.5 -0.5,-273.5 98.5,-273.5 98.5,-216.5 -0.5,-216.5"/>
<text text-anchor="middle" x="49" y="-261.5" font-family="Helvetica,sans-Serif" font-size="10.00">IEquatable&lt;Letter&gt;</text>
<polyline fill="none" stroke="#bfbfbf" points="-0.5,-254.5 98.5,-254.5 "/>
<text text-anchor="middle" x="49" y="-242.5" font-family="Helvetica,sans-Serif" font-size="10.00"> </text>
<polyline fill="none" stroke="#bfbfbf" points="-0.5,-235.5 98.5,-235.5 "/>
<text text-anchor="middle" x="49" y="-223.5" font-family="Helvetica,sans-Serif" font-size="10.00"> </text>
</g>
<!-- Node2&#45;&gt;Node1 -->
<g id="edge1" class="edge"><title>Node2&#45;&gt;Node1</title>
<path fill="none" stroke="midnightblue" d="M63.6181,-206.724C66.9645,-198.191 70.6609,-188.765 74.4566,-179.086"/>
<polygon fill="none" stroke="midnightblue" points="60.2581,-205.705 59.8655,-216.293 66.7749,-208.261 60.2581,-205.705"/>
</g>
<!-- Node3 -->
<g id="node3" class="node"><title>Node3</title>
<polygon fill="none" stroke="#bfbfbf" points="116.5,-216.5 116.5,-273.5 223.5,-273.5 223.5,-216.5 116.5,-216.5"/>
<text text-anchor="middle" x="170" y="-261.5" font-family="Helvetica,sans-Serif" font-size="10.00">IComparable&lt;Letter&gt;</text>
<polyline fill="none" stroke="#bfbfbf" points="116.5,-254.5 223.5,-254.5 "/>
<text text-anchor="middle" x="170" y="-242.5" font-family="Helvetica,sans-Serif" font-size="10.00"> </text>
<polyline fill="none" stroke="#bfbfbf" points="116.5,-235.5 223.5,-235.5 "/>
<text text-anchor="middle" x="170" y="-223.5" font-family="Helvetica,sans-Serif" font-size="10.00"> </text>
</g>
<!-- Node3&#45;&gt;Node1 -->
<g id="edge2" class="edge"><title>Node3&#45;&gt;Node1</title>
<path fill="none" stroke="midnightblue" d="M155.249,-207.002C151.818,-198.396 148.02,-188.87 144.119,-179.086"/>
<polygon fill="none" stroke="midnightblue" points="151.999,-208.3 158.953,-216.293 158.501,-205.708 151.999,-208.3"/>
</g>
</g>
</svg>
